<?xml version="1.0" encoding="utf-8"?>
<!-- Generator: Adobe Illustrator 16.0.0, SVG Export Plug-In . SVG Version: 6.00 Build 0)  -->
<!DOCTYPE svg PUBLIC "-//W3C//DTD SVG 1.1//EN" "http://www.w3.org/Graphics/SVG/1.1/DTD/svg11.dtd">
<svg version="1.1" id="Layer_1" xmlns="http://www.w3.org/2000/svg" xmlns:xlink="http://www.w3.org/1999/xlink" x="0px" y="0px"
	 width="684px" height="296.64px" viewBox="0 0 684 296.64" enable-background="new 0 0 684 296.64" xml:space="preserve">
<rect x="-79" y="-117" fill="#99B7A8" width="898" height="542"/>
<g id="rod">
	<polygon fill="#663433" points="254.014,194.874 564.812,194.874 564.812,199.616 254.014,201.075 	"/>
	<polygon fill="#773C3D" points="254.014,194.874 258.756,181.741 553.503,175.906 564.812,194.874 	"/>
	<polygon fill="#3D1F1F" points="258.759,201.053 258.759,204.358 556.421,204.358 556.421,199.656 	"/>
	<polygon fill="#4E2727" points="258.759,204.358 254.014,211.836 562.075,217.701 556.421,203.629 	"/>
	<polygon fill="#663433" points="254.014,211.631 254.014,215.393 562.075,222.779 562.075,217.582 	"/>
</g>
<g id="rod_1_">
	<polygon fill="#663433" points="252.646,167.361 563.443,167.361 563.443,172.104 252.646,173.563 	"/>
	<polygon fill="#773C3D" points="252.646,167.361 257.388,154.229 552.136,148.393 563.443,167.361 	"/>
	<polygon fill="#3D1F1F" points="257.391,173.54 257.391,176.846 555.054,176.846 555.054,172.143 	"/>
	<polygon fill="#4E2727" points="257.391,176.846 252.646,184.323 560.707,190.188 555.054,176.116 	"/>
	<polygon fill="#663433" points="252.646,184.118 252.646,187.88 560.707,195.268 560.707,190.069 	"/>
</g>
<g id="rod_2_">
	<polygon fill="#663433" points="245.3,134.333 556.098,134.333 556.098,139.076 245.3,140.536 	"/>
	<polygon fill="#773C3D" points="245.3,134.333 250.042,121.201 544.789,115.366 556.098,134.333 	"/>
	<polygon fill="#3D1F1F" points="250.046,140.513 250.046,143.819 547.709,143.819 547.709,139.116 	"/>
	<polygon fill="#4E2727" points="250.046,143.819 245.3,151.296 553.361,157.161 547.709,143.089 	"/>
	<polygon fill="#663433" points="245.3,151.091 245.3,154.854 553.361,162.24 553.361,157.041 	"/>
</g>
<g>
	<polygon fill="#7C765A" points="158.035,261.219 255.295,263.42 259.258,203.653 158.035,205.547 	"/>
	<path fill="#6B664F" d="M235.932,239.875c0,0-10.342,6.161-12.543,9.241h23.545C246.934,249.116,242.533,242.955,235.932,239.875z"
		/>
	<polygon fill="#6B664F" points="152.314,205.657 158.035,205.547 158.255,260.999 150.883,260.999 	"/>
	<polygon fill="#575340" points="149.673,205.657 168.157,205.657 166.891,157.193 161.703,157.357 161.516,154.57 154.569,154.57 	
		"/>
	<polygon fill="#8B8466" points="166.397,157.21 259.99,153.836 263.217,203.567 168.157,205.657 	"/>
	<polygon fill="#6B664F" points="196.91,104.549 250.455,107.929 218.915,100.002 	"/>
	<polygon fill="#7C765A" points="158.255,106.017 161.703,157.357 250.455,154.57 250.455,106.897 	"/>
	<polygon fill="#6B664F" points="150.26,106.017 158.255,106.017 161.516,154.57 149.673,154.57 	"/>
	<polygon fill="#575340" points="135.884,96.334 149.673,86.946 157.742,106.017 150.883,106.017 	"/>
</g>
<g>
	<polygon fill="#7C765A" points="52.985,256.288 150.245,258.489 154.208,198.723 52.985,200.616 	"/>
	<path fill="#6B664F" d="M130.881,234.944c0,0-10.342,6.161-12.543,9.241h23.545C141.884,244.186,137.482,238.024,130.881,234.944z"
		/>
	<polygon fill="#6B664F" points="47.264,200.727 52.985,200.616 53.205,256.068 45.833,256.068 	"/>
	<polygon fill="#575340" points="44.623,200.727 63.107,200.727 61.841,152.263 56.652,152.427 56.465,149.64 49.519,149.64 	"/>
	<polygon fill="#8B8466" points="61.347,152.279 154.939,148.905 158.167,198.637 63.107,200.727 	"/>
	<polygon fill="#6B664F" points="91.86,99.619 145.404,102.999 113.865,95.071 	"/>
	<polygon fill="#7C765A" points="53.205,101.086 56.652,152.427 145.404,149.64 145.404,101.966 	"/>
	<polygon fill="#6B664F" points="45.21,101.086 53.205,101.086 56.465,149.64 44.623,149.64 	"/>
	<polygon fill="#575340" points="30.833,91.404 44.623,82.015 52.691,101.086 45.833,101.086 	"/>
</g>
<g id="iron_fence">
	<g>
		<g>
			<line fill="none" stroke="#3D3D3D" stroke-miterlimit="10" x1="348.884" y1="222.082" x2="547.175" y2="51.871"/>
			<line fill="none" stroke="#3D3D3D" stroke-miterlimit="10" x1="352.178" y1="234.162" x2="546.958" y2="66.886"/>
			<line fill="none" stroke="#3D3D3D" stroke-miterlimit="10" x1="373.408" y1="234.162" x2="546.677" y2="86.292"/>
			<line fill="none" stroke="#3D3D3D" stroke-miterlimit="10" x1="395.005" y1="234.162" x2="543.618" y2="105.68"/>
			<line fill="none" stroke="#3D3D3D" stroke-miterlimit="10" x1="415.138" y1="234.162" x2="543.618" y2="119.59"/>
			<line fill="none" stroke="#3D3D3D" stroke-miterlimit="10" x1="434.538" y1="234.162" x2="543.618" y2="140.82"/>
			<line fill="none" stroke="#3D3D3D" stroke-miterlimit="10" x1="453.938" y1="234.162" x2="543.618" y2="155.828"/>
			<line fill="none" stroke="#3D3D3D" stroke-miterlimit="10" x1="469.312" y1="235.992" x2="543.618" y2="169.922"/>
			<line fill="none" stroke="#3D3D3D" stroke-miterlimit="10" x1="487.614" y1="235.992" x2="543.618" y2="185.479"/>
			<line fill="none" stroke="#3D3D3D" stroke-miterlimit="10" x1="504.086" y1="235.992" x2="545.028" y2="200.119"/>
			<line fill="none" stroke="#3D3D3D" stroke-miterlimit="10" x1="522.388" y1="235.992" x2="543.618" y2="218.057"/>
			<line fill="none" stroke="#3D3D3D" stroke-miterlimit="10" x1="534.955" y1="235.992" x2="542.032" y2="230.258"/>
			<line fill="none" stroke="#3D3D3D" stroke-miterlimit="10" x1="348.884" y1="209.271" x2="540.324" y2="37.962"/>
			<line fill="none" stroke="#3D3D3D" stroke-miterlimit="10" x1="348.884" y1="194.996" x2="524.557" y2="37.962"/>
			<line fill="none" stroke="#3D3D3D" stroke-miterlimit="10" x1="348.884" y1="180.354" x2="509.942" y2="37.962"/>
			<line fill="none" stroke="#3D3D3D" stroke-miterlimit="10" x1="348.884" y1="169.922" x2="494.202" y2="37.962"/>
			<line fill="none" stroke="#3D3D3D" stroke-miterlimit="10" x1="348.884" y1="150.523" x2="476.999" y2="37.962"/>
			<line fill="none" stroke="#3D3D3D" stroke-miterlimit="10" x1="348.884" y1="136.976" x2="458.696" y2="40.159"/>
			<line fill="none" stroke="#3D3D3D" stroke-miterlimit="10" x1="348.884" y1="120.688" x2="440.028" y2="40.159"/>
			<line fill="none" stroke="#3D3D3D" stroke-miterlimit="10" x1="346.688" y1="103.941" x2="419.164" y2="40.159"/>
			<line fill="none" stroke="#3D3D3D" stroke-miterlimit="10" x1="346.688" y1="83.352" x2="398.665" y2="40.159"/>
			<line fill="none" stroke="#3D3D3D" stroke-miterlimit="10" x1="346.688" y1="65.05" x2="377.435" y2="40.159"/>
			<line fill="none" stroke="#3D3D3D" stroke-miterlimit="10" x1="346.688" y1="50.408" x2="359.133" y2="40.159"/>
			<line fill="none" stroke="#3D3D3D" stroke-miterlimit="10" x1="530.807" y1="37.962" x2="547.175" y2="51.871"/>
			<line fill="none" stroke="#3D3D3D" stroke-miterlimit="10" x1="513.969" y1="40.159" x2="545.028" y2="65.05"/>
			<line fill="none" stroke="#3D3D3D" stroke-miterlimit="10" x1="491.784" y1="40.159" x2="546.677" y2="86.292"/>
			<line fill="none" stroke="#3D3D3D" stroke-miterlimit="10" x1="471.508" y1="40.159" x2="543.618" y2="103.941"/>
			<line fill="none" stroke="#3D3D3D" stroke-miterlimit="10" x1="451.741" y1="40.159" x2="543.618" y2="119.59"/>
			<line fill="none" stroke="#3D3D3D" stroke-miterlimit="10" x1="433.073" y1="40.159" x2="545.887" y2="140.82"/>
			<line fill="none" stroke="#3D3D3D" stroke-miterlimit="10" x1="419.164" y1="40.159" x2="545.028" y2="153.266"/>
			<line fill="none" stroke="#3D3D3D" stroke-miterlimit="10" x1="398.665" y1="40.159" x2="543.618" y2="169.922"/>
			<line fill="none" stroke="#3D3D3D" stroke-miterlimit="10" x1="384.756" y1="40.159" x2="543.618" y2="180.354"/>
			<line fill="none" stroke="#3D3D3D" stroke-miterlimit="10" x1="369.748" y1="40.159" x2="542.032" y2="194.996"/>
			<line fill="none" stroke="#3D3D3D" stroke-miterlimit="10" x1="352.91" y1="40.159" x2="543.618" y2="209.271"/>
			<line fill="none" stroke="#3D3D3D" stroke-miterlimit="10" x1="346.688" y1="52.604" x2="545.028" y2="223.912"/>
			<line fill="none" stroke="#3D3D3D" stroke-miterlimit="10" x1="346.688" y1="68.71" x2="542.032" y2="235.992"/>
			<line fill="none" stroke="#3D3D3D" stroke-miterlimit="10" x1="346.688" y1="88.567" x2="522.388" y2="238.291"/>
			<line fill="none" stroke="#3D3D3D" stroke-miterlimit="10" x1="346.688" y1="103.941" x2="497.68" y2="235.992"/>
			<line fill="none" stroke="#3D3D3D" stroke-miterlimit="10" x1="348.884" y1="120.688" x2="476.999" y2="235.992"/>
			<line fill="none" stroke="#3D3D3D" stroke-miterlimit="10" x1="348.884" y1="140.82" x2="458.696" y2="235.992"/>
			<line fill="none" stroke="#3D3D3D" stroke-miterlimit="10" x1="346.688" y1="155.828" x2="440.028" y2="235.992"/>
			<line fill="none" stroke="#3D3D3D" stroke-miterlimit="10" x1="348.884" y1="171.568" x2="421.543" y2="235.992"/>
			<line fill="none" stroke="#3D3D3D" stroke-miterlimit="10" x1="348.884" y1="186.576" x2="403.79" y2="235.992"/>
			<line fill="none" stroke="#3D3D3D" stroke-miterlimit="10" x1="348.884" y1="201.949" x2="382.926" y2="234.162"/>
			<line fill="none" stroke="#3D3D3D" stroke-miterlimit="10" x1="348.884" y1="218.057" x2="367.552" y2="234.162"/>
			<line fill="none" stroke="#3D3D3D" stroke-miterlimit="10" x1="348.884" y1="229.221" x2="354.191" y2="235.076"/>
		</g>
		<polygon fill="none" stroke="#282828" stroke-width="9" stroke-miterlimit="10" points="544.472,238.555 346.321,236.418 
			344.583,38.755 547.4,36.315 		"/>
	</g>
	<ellipse fill="#686868" cx="547.175" cy="65.233" rx="1.033" ry="1.189"/>
	<ellipse fill="#686868" cx="546.443" cy="102.569" rx="1.033" ry="1.19"/>
	<ellipse fill="#686868" cx="545.711" cy="147.226" rx="1.033" ry="1.19"/>
	<ellipse fill="#686868" cx="544.979" cy="199.205" rx="1.033" ry="1.189"/>
	<ellipse fill="#686868" cx="344.388" cy="65.233" rx="1.033" ry="1.189"/>
	<ellipse fill="#686868" cx="345.12" cy="102.569" rx="1.033" ry="1.19"/>
	<ellipse fill="#686868" cx="345.12" cy="147.226" rx="1.033" ry="1.19"/>
	<ellipse fill="#686868" cx="345.852" cy="199.205" rx="1.033" ry="1.189"/>
</g>
<g id="chain1_2_">
	<polygon fill="none" stroke="#6B6B6B" stroke-width="2" stroke-miterlimit="10" points="62.894,62.71 66.088,63.167 66.313,67.89 
		62.618,68.011 	"/>
	<polygon fill="none" stroke="#6B6B6B" stroke-width="2" stroke-miterlimit="10" points="62.894,45.868 66.088,46.385 
		66.313,51.731 62.618,51.869 	"/>
	<polygon fill="none" stroke="#6B6B6B" stroke-width="2" stroke-miterlimit="10" points="66.037,60.292 62.842,59.835 
		62.618,55.113 66.313,54.992 	"/>
	<polygon fill="#767676" points="63.52,58.752 65.147,58.577 65.279,64.904 63.52,64.178 	"/>
	<polygon fill="#767676" points="63.52,66.251 65.081,66.251 65.279,72.387 63.52,71.705 	"/>
	<polygon fill="#767676" points="63.52,56.476 65.279,57.15 65.206,50.861 63.593,50.935 	"/>
	<polygon fill="none" stroke="#6B6B6B" stroke-width="2" stroke-miterlimit="10" points="62.894,38.092 66.088,38.549 
		66.313,43.272 62.618,43.393 	"/>
	<polygon fill="none" stroke="#6B6B6B" stroke-width="2" stroke-miterlimit="10" points="62.894,20.834 66.088,21.39 66.313,27.135 
		62.618,27.282 	"/>
	<polygon fill="none" stroke="#6B6B6B" stroke-width="2" stroke-miterlimit="10" points="66.037,35.673 62.842,35.217 
		62.618,30.495 66.313,30.374 	"/>
	<polygon fill="#767676" points="63.52,34.134 65.147,33.958 65.279,40.287 63.52,39.561 	"/>
	<polygon fill="#767676" points="63.52,41.633 65.081,41.633 65.279,47.769 63.52,47.087 	"/>
	<polygon fill="#767676" points="63.52,31.858 65.279,32.532 65.206,26.243 63.593,26.317 	"/>
	<polygon fill="none" stroke="#6B6B6B" stroke-width="2" stroke-miterlimit="10" points="62.894,12.788 66.088,13.245 
		66.313,17.968 62.618,18.089 	"/>
	<polygon fill="none" stroke="#6B6B6B" stroke-width="2" stroke-miterlimit="10" points="62.894,-4.176 66.088,-3.649 66.313,1.806 
		62.618,1.946 	"/>
	<polygon fill="none" stroke="#6B6B6B" stroke-width="2" stroke-miterlimit="10" points="66.037,10.37 62.842,9.913 62.618,5.19 
		66.313,5.07 	"/>
	<polygon fill="#767676" points="63.52,8.83 65.147,8.654 65.279,14.982 63.52,14.256 	"/>
	<polygon fill="#767676" points="63.52,16.329 65.081,16.329 65.279,22.464 63.52,21.783 	"/>
	<polygon fill="#767676" points="63.52,6.554 65.279,7.228 65.206,0.939 63.593,1.012 	"/>
	<polygon fill="none" stroke="#6B6B6B" stroke-width="2" stroke-miterlimit="10" points="62.894,-12.08 66.088,-11.623 66.313,-6.9 
		62.618,-6.779 	"/>
	<polygon fill="none" stroke="#6B6B6B" stroke-width="2" stroke-miterlimit="10" points="66.037,-14.499 62.842,-14.955 
		62.618,-19.678 66.313,-19.798 	"/>
	<polygon fill="#767676" points="63.52,-16.038 65.147,-16.214 65.279,-9.886 63.52,-10.611 	"/>
	<polygon fill="#767676" points="63.52,-8.539 65.081,-8.539 65.279,-2.403 63.52,-3.085 	"/>
	<polygon fill="#767676" points="63.52,-18.314 65.279,-17.64 65.206,-23.929 63.593,-23.855 	"/>
</g>
<g>
	<g id="chain1_4_">
		<polygon fill="none" stroke="#6B6B6B" stroke-width="2" stroke-miterlimit="10" points="103.652,42.631 106.78,43.078 107,47.703 
			103.382,47.821 		"/>
		<polygon fill="none" stroke="#6B6B6B" stroke-width="2" stroke-miterlimit="10" points="103.652,26.141 106.78,26.647 107,31.882 
			103.382,32.016 		"/>
		<polygon fill="none" stroke="#6B6B6B" stroke-width="2" stroke-miterlimit="10" points="106.729,40.263 103.602,39.816 
			103.382,35.192 107,35.074 		"/>
		<polygon fill="#767676" points="104.265,38.756 105.858,38.584 105.988,44.779 104.265,44.069 		"/>
		<polygon fill="#767676" points="104.265,46.099 105.793,46.099 105.988,52.105 104.265,51.438 		"/>
		<polygon fill="#767676" points="104.265,36.527 105.988,37.187 105.916,31.029 104.337,31.102 		"/>
		<polygon fill="none" stroke="#6B6B6B" stroke-width="2" stroke-miterlimit="10" points="103.652,18.528 106.78,18.975 107,23.599 
			103.382,23.717 		"/>
		<polygon fill="none" stroke="#6B6B6B" stroke-width="2" stroke-miterlimit="10" points="103.652,1.629 106.78,2.173 107,7.799 
			103.382,7.943 		"/>
		<polygon fill="none" stroke="#6B6B6B" stroke-width="2" stroke-miterlimit="10" points="106.729,16.159 103.602,15.712 
			103.382,11.088 107,10.97 		"/>
		<polygon fill="#767676" points="104.265,14.652 105.858,14.479 105.988,20.676 104.265,19.965 		"/>
		<polygon fill="#767676" points="104.265,21.994 105.793,21.994 105.988,28.002 104.265,27.335 		"/>
		<polygon fill="#767676" points="104.265,12.423 105.988,13.083 105.916,6.925 104.337,6.998 		"/>
		<polygon fill="none" stroke="#6B6B6B" stroke-width="2" stroke-miterlimit="10" points="103.652,-6.249 106.78,-5.802 107,-1.177 
			103.382,-1.059 		"/>
		<polygon fill="none" stroke="#6B6B6B" stroke-width="2" stroke-miterlimit="10" points="103.652,-22.859 106.78,-22.342 
			107,-17.001 103.382,-16.864 		"/>
		<polygon fill="none" stroke="#6B6B6B" stroke-width="2" stroke-miterlimit="10" points="106.729,-8.617 103.602,-9.063 
			103.382,-13.688 107,-13.806 		"/>
		<polygon fill="#767676" points="104.265,-10.124 105.858,-10.296 105.988,-4.101 104.265,-4.811 		"/>
		<polygon fill="#767676" points="104.265,-2.782 105.793,-2.782 105.988,3.226 104.265,2.558 		"/>
		<polygon fill="#767676" points="104.265,-12.353 105.988,-11.693 105.916,-17.851 104.337,-17.778 		"/>
		<polygon fill="none" stroke="#6B6B6B" stroke-width="2" stroke-miterlimit="10" points="103.652,-30.597 106.78,-30.15 
			107,-25.526 103.382,-25.408 		"/>
		<polygon fill="none" stroke="#6B6B6B" stroke-width="2" stroke-miterlimit="10" points="106.729,-32.966 103.602,-33.413 
			103.382,-38.037 107,-38.155 		"/>
		<polygon fill="#767676" points="104.265,-34.473 105.858,-34.645 105.988,-28.449 104.265,-29.16 		"/>
		<polygon fill="#767676" points="104.265,-27.13 105.793,-27.13 105.988,-21.123 104.265,-21.791 		"/>
		<polygon fill="#767676" points="104.265,-36.702 105.988,-36.042 105.916,-42.199 104.337,-42.127 		"/>
	</g>
	<g id="chain1_3_">
		<polygon fill="none" stroke="#6B6B6B" stroke-width="2" stroke-miterlimit="10" points="81.666,41.777 84.793,42.224 
			85.013,46.849 81.395,46.967 		"/>
		<polygon fill="none" stroke="#6B6B6B" stroke-width="2" stroke-miterlimit="10" points="81.666,25.287 84.793,25.793 
			85.013,31.027 81.395,31.162 		"/>
		<polygon fill="none" stroke="#6B6B6B" stroke-width="2" stroke-miterlimit="10" points="84.742,39.409 81.615,38.962 
			81.395,34.338 85.013,34.22 		"/>
		<polygon fill="#767676" points="82.278,37.901 83.872,37.729 84,43.925 82.278,43.214 		"/>
		<polygon fill="#767676" points="82.278,45.244 83.806,45.244 84,51.251 82.278,50.584 		"/>
		<polygon fill="#767676" points="82.278,35.673 84,36.333 83.929,30.175 82.351,30.248 		"/>
		<polygon fill="none" stroke="#6B6B6B" stroke-width="2" stroke-miterlimit="10" points="81.666,17.673 84.793,18.121 
			85.013,22.744 81.395,22.863 		"/>
		<polygon fill="none" stroke="#6B6B6B" stroke-width="2" stroke-miterlimit="10" points="81.666,0.775 84.793,1.319 85.013,6.944 
			81.395,7.088 		"/>
		<polygon fill="none" stroke="#6B6B6B" stroke-width="2" stroke-miterlimit="10" points="84.742,15.304 81.615,14.858 
			81.395,10.234 85.013,10.115 		"/>
		<polygon fill="#767676" points="82.278,13.797 83.872,13.625 84,19.822 82.278,19.111 		"/>
		<polygon fill="#767676" points="82.278,21.14 83.806,21.14 84,27.148 82.278,26.48 		"/>
		<polygon fill="#767676" points="82.278,11.569 84,12.229 83.929,6.071 82.351,6.143 		"/>
		<polygon fill="none" stroke="#6B6B6B" stroke-width="2" stroke-miterlimit="10" points="81.666,-7.103 84.793,-6.656 
			85.013,-2.032 81.395,-1.913 		"/>
		<polygon fill="none" stroke="#6B6B6B" stroke-width="2" stroke-miterlimit="10" points="81.666,-23.713 84.793,-23.197 
			85.013,-17.855 81.395,-17.718 		"/>
		<polygon fill="none" stroke="#6B6B6B" stroke-width="2" stroke-miterlimit="10" points="84.742,-9.471 81.615,-9.918 
			81.395,-14.542 85.013,-14.66 		"/>
		<polygon fill="#767676" points="82.278,-10.979 83.872,-11.151 84,-4.955 82.278,-5.666 		"/>
		<polygon fill="#767676" points="82.278,-3.636 83.806,-3.636 84,2.372 82.278,1.704 		"/>
		<polygon fill="#767676" points="82.278,-13.208 84,-12.547 83.929,-18.705 82.351,-18.633 		"/>
		<polygon fill="none" stroke="#6B6B6B" stroke-width="2" stroke-miterlimit="10" points="81.666,-31.452 84.793,-31.004 
			85.013,-26.38 81.395,-26.262 		"/>
		<polygon fill="none" stroke="#6B6B6B" stroke-width="2" stroke-miterlimit="10" points="84.742,-33.82 81.615,-34.267 
			81.395,-38.891 85.013,-39.009 		"/>
		<polygon fill="#767676" points="82.278,-35.327 83.872,-35.5 84,-29.303 82.278,-30.014 		"/>
		<polygon fill="#767676" points="82.278,-27.985 83.806,-27.985 84,-21.977 82.278,-22.645 		"/>
		<polygon fill="#767676" points="82.278,-37.556 84,-36.896 83.929,-43.054 82.351,-42.981 		"/>
	</g>
	<polygon fill="none" stroke="#6B6B6B" stroke-width="2" stroke-miterlimit="10" points="104.181,55.545 101.824,53.441 
		103.775,49.897 107.28,50.52 	"/>
	<polygon fill="none" stroke="#6B6B6B" stroke-width="2" stroke-miterlimit="10" points="80.86,49.919 83.724,48.584 86.435,52.336 
		83.47,54.413 	"/>
	<polygon fill="none" stroke="#6B6B6B" stroke-width="2" stroke-miterlimit="10" points="91.868,56.023 90.034,58.596 
		85.827,56.666 87.384,53.398 	"/>
	<polygon fill="#767676" points="83.539,52.666 84.607,51.472 88.85,55.991 87.094,56.615 	"/>
	<polygon fill="none" stroke="#6B6B6B" stroke-width="2" stroke-miterlimit="10" points="100.09,54.47 100.401,57.625 95.298,59.22 
		94.229,55.762 	"/>
	<polygon fill="#767676" points="98.738,55.668 99.09,57.479 104.277,54.158 103.379,52.857 	"/>
	<polygon fill="#767676" points="89.979,57.732 90.226,56.224 96.187,56.999 95.25,58.592 	"/>
</g>
<g>
	<g id="chain1">
		<polygon fill="none" stroke="#6B6B6B" stroke-width="2" stroke-miterlimit="10" points="126.93,46.796 129.958,47.229 
			130.171,51.708 126.668,51.822 		"/>
		<polygon fill="none" stroke="#6B6B6B" stroke-width="2" stroke-miterlimit="10" points="126.93,30.828 129.958,31.317 
			130.171,36.387 126.668,36.517 		"/>
		<polygon fill="none" stroke="#6B6B6B" stroke-width="2" stroke-miterlimit="10" points="129.909,44.503 126.88,44.071 
			126.668,39.592 130.171,39.478 		"/>
		<polygon fill="#767676" points="127.523,43.043 129.066,42.877 129.191,48.877 127.523,48.188 		"/>
		<polygon fill="#767676" points="127.523,50.154 129.003,50.154 129.191,55.971 127.523,55.325 		"/>
		<polygon fill="#767676" points="127.523,40.885 129.191,41.525 129.122,35.562 127.593,35.631 		"/>
		<polygon fill="none" stroke="#6B6B6B" stroke-width="2" stroke-miterlimit="10" points="126.93,23.455 129.958,23.888 
			130.171,28.366 126.668,28.48 		"/>
		<polygon fill="none" stroke="#6B6B6B" stroke-width="2" stroke-miterlimit="10" points="126.93,7.091 129.958,7.618 
			130.171,13.065 126.668,13.205 		"/>
		<polygon fill="none" stroke="#6B6B6B" stroke-width="2" stroke-miterlimit="10" points="129.909,21.161 126.88,20.729 
			126.668,16.25 130.171,16.136 		"/>
		<polygon fill="#767676" points="127.523,19.702 129.066,19.535 129.191,25.535 127.523,24.847 		"/>
		<polygon fill="#767676" points="127.523,26.812 129.003,26.812 129.191,32.629 127.523,31.983 		"/>
		<polygon fill="#767676" points="127.523,17.543 129.191,18.183 129.122,12.219 127.593,12.289 		"/>
		<polygon fill="none" stroke="#6B6B6B" stroke-width="2" stroke-miterlimit="10" points="126.93,-0.538 129.958,-0.105 
			130.171,4.373 126.668,4.488 		"/>
		<polygon fill="none" stroke="#6B6B6B" stroke-width="2" stroke-miterlimit="10" points="126.93,-16.624 129.958,-16.123 
			130.171,-10.951 126.668,-10.818 		"/>
		<polygon fill="none" stroke="#6B6B6B" stroke-width="2" stroke-miterlimit="10" points="129.909,-2.832 126.88,-3.264 
			126.668,-7.742 130.171,-7.856 		"/>
		<polygon fill="#767676" points="127.523,-4.291 129.066,-4.458 129.191,1.542 127.523,0.854 		"/>
		<polygon fill="#767676" points="127.523,2.819 129.003,2.819 129.191,8.637 127.523,7.99 		"/>
		<polygon fill="#767676" points="127.523,-6.45 129.191,-5.81 129.122,-11.773 127.593,-11.704 		"/>
		<polygon fill="none" stroke="#6B6B6B" stroke-width="2" stroke-miterlimit="10" points="126.93,-24.117 129.958,-23.684 
			130.171,-19.206 126.668,-19.091 		"/>
		<polygon fill="none" stroke="#6B6B6B" stroke-width="2" stroke-miterlimit="10" points="129.909,-26.411 126.88,-26.843 
			126.668,-31.321 130.171,-31.436 		"/>
		<polygon fill="#767676" points="127.523,-27.87 129.066,-28.037 129.191,-22.037 127.523,-22.725 		"/>
		<polygon fill="#767676" points="127.523,-20.76 129.003,-20.76 129.191,-14.942 127.523,-15.588 		"/>
		<polygon fill="#767676" points="127.523,-30.029 129.191,-29.389 129.122,-35.353 127.593,-35.283 		"/>
	</g>
	<polygon fill="#989898" points="124.793,54.827 131.93,54.827 131.93,58.603 125.208,58.603 	"/>
	<path fill="#989898" d="M125.828,59.929v2.343c0,0-0.208,1.448,3.964,2.137c0,0,3.62,2.206,1.689,5.999
		c0,0-2.758,5.722-7.929,0.689c0,0-0.827,0.984,1.241,2.698c0,0,5.947,3.576,8.412-1.871c0,0,3.507-4.61-0.878-7.799l-3.966-4.197
		H125.828z"/>
	<path fill="#676767" d="M125.414,58.603v1.327h2.482v2.344c0,0,6.067,0.621,5.998,5.447c0,0,1.073,5.653-4.703,6.963
		c0,0-5.242,0.879-6.121-4.137l-0.94,1.086c0,0,2.354,8.015,10.662,4.636c0,0,6.377-2.688,4.481-9.998c0,0-1.793-4.481-7.102-5.516
		c0,0-0.69-1.792,0-2.152H125.414z"/>
</g>
<g>
	<g id="chain1_1_">
		<polygon fill="none" stroke="#6B6B6B" stroke-width="2" stroke-miterlimit="10" points="90.744,57.956 94.745,58.527 
			95.026,64.443 90.398,64.595 		"/>
		<polygon fill="none" stroke="#6B6B6B" stroke-width="2" stroke-miterlimit="10" points="90.744,36.86 94.745,37.508 
			95.026,44.205 90.398,44.376 		"/>
		<polygon fill="none" stroke="#6B6B6B" stroke-width="2" stroke-miterlimit="10" points="94.68,54.926 90.679,54.354 
			90.398,48.439 95.026,48.288 		"/>
		<polygon fill="#767676" points="91.528,52.998 93.566,52.778 93.731,60.704 91.528,59.794 		"/>
		<polygon fill="#767676" points="91.528,62.391 93.483,62.391 93.731,70.076 91.528,69.222 		"/>
		<polygon fill="#767676" points="91.528,50.147 93.731,50.991 93.639,43.114 91.62,43.207 		"/>
		<polygon fill="none" stroke="#6B6B6B" stroke-width="2" stroke-miterlimit="10" points="90.744,27.121 94.745,27.693 
			95.026,33.608 90.398,33.76 		"/>
		<polygon fill="none" stroke="#6B6B6B" stroke-width="2" stroke-miterlimit="10" points="90.744,5.504 94.745,6.2 95.026,13.397 
			90.398,13.581 		"/>
		<polygon fill="none" stroke="#6B6B6B" stroke-width="2" stroke-miterlimit="10" points="94.68,24.091 90.679,23.52 90.398,17.604 
			95.026,17.453 		"/>
		<polygon fill="#767676" points="91.528,22.164 93.566,21.943 93.731,29.87 91.528,28.96 		"/>
		<polygon fill="#767676" points="91.528,31.556 93.483,31.556 93.731,39.242 91.528,38.388 		"/>
		<polygon fill="#767676" points="91.528,19.312 93.731,20.157 93.639,12.279 91.62,12.371 		"/>
		<polygon fill="none" stroke="#6B6B6B" stroke-width="2" stroke-miterlimit="10" points="90.744,-4.574 94.745,-4.001 
			95.026,1.914 90.398,2.065 		"/>
		<polygon fill="none" stroke="#6B6B6B" stroke-width="2" stroke-miterlimit="10" points="90.744,-25.822 94.745,-25.161 
			95.026,-18.328 90.398,-18.153 		"/>
		<polygon fill="none" stroke="#6B6B6B" stroke-width="2" stroke-miterlimit="10" points="94.68,-7.603 90.679,-8.175 
			90.398,-14.09 95.026,-14.241 		"/>
		<polygon fill="#767676" points="91.528,-9.531 93.566,-9.751 93.731,-1.825 91.528,-2.734 		"/>
		<polygon fill="#767676" points="91.528,-0.138 93.483,-0.138 93.731,7.547 91.528,6.693 		"/>
		<polygon fill="#767676" points="91.528,-12.382 93.731,-11.538 93.639,-19.416 91.62,-19.323 		"/>
		<polygon fill="none" stroke="#6B6B6B" stroke-width="2" stroke-miterlimit="10" points="90.744,-35.721 94.745,-35.149 
			95.026,-29.234 90.398,-29.083 		"/>
		<polygon fill="none" stroke="#6B6B6B" stroke-width="2" stroke-miterlimit="10" points="94.68,-38.751 90.679,-39.322 
			90.398,-45.238 95.026,-45.389 		"/>
		<polygon fill="#767676" points="91.528,-40.679 93.566,-40.899 93.731,-32.973 91.528,-33.882 		"/>
		<polygon fill="#767676" points="91.528,-31.286 93.483,-31.286 93.731,-23.601 91.528,-24.455 		"/>
		<polygon fill="#767676" points="91.528,-43.53 93.731,-42.686 93.639,-50.563 91.62,-50.471 		"/>
	</g>
	<ellipse fill="#676767" cx="93.255" cy="76.173" rx="7.286" ry="7.458"/>
	<ellipse fill="#989898" cx="91.934" cy="76.079" rx="4.781" ry="5.163"/>
	<path fill="#989898" d="M94.331,83.55c-0.042-0.006-0.004,1.241-0.004,1.241s-2.618,0.647-3.09,1.986c0,0-2.103,3.413,1.545,5.139
		c0,0,3.796,1.618,4.912-2.226c0,0-0.773,3.007-3.096,3.298c0,0-7.18,1.734-5.635-5.823c0,0,0.429-2.677,3.819-3.023v-0.636
		L94.331,83.55z"/>
	<path fill="#676767" d="M93.574,83.631c-0.044-0.006,0,1.229,0,1.229s-2.778,0.683-3.279,2.094c0,0-2.231,3.598,1.64,5.419
		c0,0,4.627,1.201,5.812-2.852c0,0-0.205,4.184-2.669,4.491c0,0-8.834,1.32-7.195-6.648c0,0,0.456-2.823,4.053-3.188v-0.67
		L93.574,83.631z"/>
</g>
<g id="table">
	<polygon fill="#555555" points="353.967,196.143 682.673,192.115 681.33,206.616 353.967,204.188 	"/>
	<polygon fill="#49494A" points="355.041,204.188 358.801,280.468 367.932,278.856 367.932,204.292 	"/>
	<polygon fill="#49494A" points="664.678,206.492 681.33,206.616 674.348,285.033 660.651,282.75 	"/>
	<polygon fill="#333333" points="371.691,204.319 372.496,268.651 379.211,267.847 379.211,204.376 	"/>
	<polygon fill="#333333" points="640.441,206.313 652.528,206.616 645.479,265.563 637.422,264.556 	"/>
	<polygon fill="#737373" points="353.967,196.143 365.514,167.945 648.029,162.036 684.015,192.115 	"/>
	<path fill="#A4A4A4" d="M375.451,169.557c0,0-2.553,6.981,12.621,22.559l64.318-8.057l24.573-0.403l-2.15-4.834L375.451,169.557z"
		/>
	<polygon fill="#B6B6B7" points="391.429,164.856 388.206,164.856 387.4,186.206 476.964,183.117 474.411,178.553 	"/>
	<polygon fill="#CDCCCC" points="389.079,164.856 389.079,182.682 474.177,178.351 454.035,158.915 	"/>
	<path fill="#D8D8D8" d="M391.496,164.756l1.713,19.335c0,0,71.501,1.813,83.787-6.546l-17.12-21.45
		C459.876,156.095,450.712,162.641,391.496,164.756z"/>
	<polygon fill="#333333" points="568.539,174.658 568.539,180.164 634.603,176.27 632.991,173.047 	"/>
	<polygon fill="#556277" points="575.253,177.948 575.253,177.075 572.03,177.075 575.253,172.309 575.253,170.63 572.836,170.63 
		577.604,165.863 577.604,164.319 574.246,162.91 580.423,160.156 578.274,158.142 584.115,156.264 584.115,153.912 
		582.772,153.577 588.883,152.1 588.883,150.287 587.404,149.415 598.482,148.945 597.476,145.521 604.189,149.012 606.407,148.877 
		606.407,144.849 609.695,149.279 611.038,149.617 611.508,146.662 617.685,153.577 618.825,150.422 621.443,157.135 
		623.055,155.121 624.264,160.828 626.479,159.083 627.486,167.273 629.903,166.4 628.359,170.093 628.359,173.405 631.381,173.405 
		631.381,175.531 	"/>
	<path fill="#64728C" d="M591.635,177.344c0,0-2.014-7.923,6.982-12.085h7.922c0,0,7.116,2.149,7.653,10.743L591.635,177.344z"/>
	<path fill="#556277" d="M599.423,177.075c0,0,0-2.35,1.813-3.223c0,0,2.081-1.008,3.894,0c0,0,1.344,1.478,1.276,2.484
		L599.423,177.075z"/>
</g>
</svg>
