<?xml version="1.0" encoding="utf-8"?>
<!-- Generator: Adobe Illustrator 16.0.0, SVG Export Plug-In . SVG Version: 6.00 Build 0)  -->
<!DOCTYPE svg PUBLIC "-//W3C//DTD SVG 1.1//EN" "http://www.w3.org/Graphics/SVG/1.1/DTD/svg11.dtd">
<svg version="1.1" id="Layer_1" xmlns="http://www.w3.org/2000/svg" xmlns:xlink="http://www.w3.org/1999/xlink" x="0px" y="0px"
	 width="684px" height="296.641px" viewBox="0 0 684 296.641" enable-background="new 0 0 684 296.641" xml:space="preserve">
<rect y="0" fill="#3AA3A0" width="684" height="296.641"/>
<g>
	<polygon fill="#96B1B1" enable-background="new    " points="188.396,114.419 188.396,70.85 313.232,70.85 313.232,79.88 
		372.152,79.654 372.152,83.04 378.698,83.04 378.698,99.069 372.604,98.843 372.83,102.455 313.684,102.68 313.684,108.324 
		323.842,116.677 399.916,116.677 399.916,113.743 401.497,113.517 401.497,105.39 412.332,90.942 426.104,90.942 426.104,100.173 
		415.719,100.173 410.301,107.422 409.85,113.066 412.106,113.517 412.332,116.677 426.104,116.677 426.104,125.481 
		418.878,125.481 417.299,139.702 352.963,138.574 315.489,139.702 220.676,139.702 220.901,113.969 	"/>
	<path fill="#859D9D" enable-background="new    " d="M410.867,29.315h111.403v51.469h-16.253l-0.339,45.035h5.418l4.401,14.561
		H414.592l-95.151,35.555v4.063l-52.146,2.37V172.21l2.708-0.339l-0.169-13.883l-50.623-0.025v-53.814l10.667-13.883l41.649,0.338
		l-0.169,10.836l2.201-0.339V84.339h19.47l-0.169,11.174l7.28,0.338l9.143,6.603l0.169,22.349l-6.434,0.338v-16.931l-3.725-4.402
		h-6.264l0.169,21.333l22.01-0.169l-0.169,36.57l4.741,5.249l1.354-0.17c0,0,2.709-6.095,8.804-3.048l1.524-0.677
		c0,0,2.672-8.634,8.465-2.708l2.032-0.932c0,0,0.423-6.519,8.719-3.217l1.863-0.678c0,0,0.592-7.111,8.55-3.047l1.608-0.848
		c0,0,1.438-6.433,8.042-2.962l2.031-0.762c0,0,0.847-7.111,8.55-3.132l1.863-0.762c0,0,0.846-6.603,8.296-3.217l1.777-0.762
		c0,0,1.101-6.011,8.804-3.302l1.608-0.762c0,0,1.101-5.418,8.127-2.709l2.878-1.778l3.979-6.18l7.364-0.254l-0.423-43.596
		l-14.814,0.084L410.867,29.315z"/>
</g>
<g>
	<path fill="#958C4C" enable-background="new    " d="M166.257,234.085l-4-78.679v-9.654c0,0-2.166-11.334,32.167-13.167
		c0,0,30.833-3,51.333,5.5c0,0,4.667,3.667,4.333,9l-2.333,87c0,0,0.5,12.5-19,15.5c0,0-41.5,3.334-54-4.166
		C174.758,245.419,169.423,243.751,166.257,234.085z"/>
	<path fill="#7B712B" enable-background="new    " d="M161.258,155.406c0,0,59.5,2.986,90.667,0v5.18c0,0-67.334,3.832-90.667,0
		V155.406z"/>
	<path fill="#7B712B" enable-background="new    " d="M165.092,228.255c0,0,39.666,7.499,84.666,0v5.167c0,0-20.832,10.833-84.666,0
		V228.255z"/>
	<path fill="#A1974F" enable-background="new    " d="M218.925,174.254c0,0,24.457-0.043,31.457-1.793l-0.875,41.5
		c0,0-10.664,3.75-30.582,3.5V174.254z"/>
	<path fill="#BBB067" enable-background="new    " d="M233.257,182.586c0,0,9,0.125,11.75,0v10.125c0,0-11,0.875-11.75,0.5V182.586z
		"/>
	<path fill="#77703D" enable-background="new    " d="M223.549,202.544c0,0,2.833,0.543,3.25-0.291c0,0,0.416-8.251-0.542-10.501
		c0,0-1.292-1.209-3.417-0.75v0.625c0,0,1.881-0.562,2.024,1.678l0.476,7.489c0,0,0.375,1.375-1.833,1L223.549,202.544z"/>
	<path fill="#5A7470" enable-background="new    " d="M161.507,148.086v5.375c0,0-2.375,7.625-3,11.5c0,0-0.625,5.75,4,5.75v2.5
		c0,0-7,1-6.75-9.375C155.757,163.836,157.257,156.711,161.507,148.086z"/>
	<path fill="#879698" enable-background="new    " d="M206.757,90.253h3.333c0,0,2.167,30.833-4.667,41.5h-3.167
		C202.257,131.753,208.424,126.086,206.757,90.253z"/>
	<path fill="#879698" enable-background="new    " d="M181.256,114.919c0,0,1.5,13.501,6,18.167l2.5-1c0,0-4.833-3.667-5.833-17.167
		H181.256z"/>
	<path fill="#708083" enable-background="new    " d="M177.59,110.067h8.833c0,0-0.333,6.018-5.333,4.685
		C181.09,114.752,178.59,113.716,177.59,110.067z"/>
	<path fill="#7B7968" enable-background="new    " d="M166.507,93.086h14.25c0,0,0.125,7.5-8.188,7.188
		C172.57,100.273,166.945,100.023,166.507,93.086z"/>
	<path fill="#7B7968" enable-background="new    " d="M172.507,100.086c0,0-0.062,15.438,0.312,18.875
		c0,0,1.438,12.188,5.188,15.938c0,0,7.375,9.312,14.438-2.062c0,0,1.312-3.688,2.25-10.062l-2.25-0.375
		c0,0-0.438,10.812-4.875,12.5c0,0-7.125,2.688-9.688-5.438c0,0-1.5-2.438-2.812-12.062c0,0-0.25-15.5-0.25-17.312H172.507z"/>
	<path fill="#918E79" enable-background="new    " d="M188.632,111.773c0,0,0.375-4.562,3.25-5h5.75c0,0,2.812,1.312,3.062,4.5
		v8.062c0,0-0.438,2.812-3.438,3.062c0,0-4.875,1.375-7.562-2.125C189.695,120.273,188.32,117.648,188.632,111.773z"/>
	<path fill="#7B7968" enable-background="new    " d="M190.007,114.211h9.312c0,0,0.75,6.812-3.812,7c0,0-4.5,0-5-3.5
		C190.507,117.711,190.07,116.336,190.007,114.211z"/>
	<path fill="#7B7968" enable-background="new    " d="M193.257,95.586c0,0-6.417-0.5-5.667-7.833h14.25c0,0,0.25,5.583-5.167,7.833
		l-0.333,11.188h-3.083V95.586z"/>
	<path fill="#958C4C" enable-background="new    " d="M237.36,247.212c0,0,2.122-1.018,2.734-1.4l0.497,9.273l1.917,0.794v0.541
		h-5.147v-0.541l1.814-1.334L237.36,247.212z"/>
	<path fill="#958C4C" enable-background="new    " d="M228.133,249.632c0,0,1.777-0.234,2.179-0.313l-0.221,3.144l1.833,0.667v0.625
		h-5.167v-0.959l1.958-0.458L228.133,249.632z"/>
	<path fill="#958C4C" enable-background="new    " d="M180.508,247.212c0,0-2.122-1.018-2.734-1.4l-0.497,9.273l-1.917,0.794v0.541
		h5.147v-0.541l-1.814-1.334L180.508,247.212z"/>
	<path fill="#958C4C" enable-background="new    " d="M190.008,249.632c0,0-1.777-0.234-2.179-0.313l0.221,3.144l-1.833,0.667v0.625
		h5.167v-0.959l-1.958-0.458L190.008,249.632z"/>
</g>
<g>
	<g>
		<polygon fill="#323527" points="221.917,95.189 250.584,51.355 275.28,46.526 275.417,46.804 282.083,130.855 285.417,131.983 
			287.584,185.353 303.584,199.853 387.416,179.187 399.416,201.687 388.417,252.353 303.084,283.685 221.917,255.351 		"/>
		<polygon fill="#414631" points="230.25,108.519 266.417,108.519 265.75,180.703 230.25,173.019 		"/>
		<polygon fill="#4C5139" points="275.417,46.522 279.417,45.522 354.75,55.022 363.916,125.855 285.417,131.983 282.083,130.855 		
			"/>
		<polygon fill="#323527" points="275.417,46.689 279.25,45.522 285.417,131.983 282.083,130.855 		"/>
		<polygon fill="#434933" points="279.25,45.522 285.416,131.356 363.916,125.855 363.23,120.563 290.416,126.189 284.749,46.189 		
			"/>
		<polygon fill="#414631" points="285.078,50.836 284.582,46.189 354.582,54.856 363.23,120.563 359.525,120.848 351.583,58.522 		
			"/>
		<path fill="#313525" d="M322.084,119.608h2.417c0,0-0.417,1.25,7.833,0v-1h3.167c0,0,2.083,1.25,0,2.083
			C335.501,120.691,320.834,123.191,322.084,119.608z"/>
		<polygon fill="#414631" points="230.209,108.399 230.209,173.273 265.584,179.898 266.084,108.399 		"/>
		<polygon fill="#414631" points="234.022,170.086 234.834,170.086 234.772,113.711 260.334,113.711 260.334,113.086 
			233.334,113.086 233.772,170.086 		"/>
		<polygon fill="#7B7670" points="287.584,185.353 285.417,131.983 302.709,170.523 303.584,199.853 		"/>
		<polygon fill="#958A7E" points="302.709,170.523 384.959,155.648 386.334,177.648 383.954,180.041 303.584,199.853 		"/>
		<polygon fill="#C9BEB4" points="302.709,170.523 384.959,155.648 363.916,125.855 285.417,131.983 		"/>
		<polygon fill="#AAA097" points="285.417,132.022 302.709,170.523 342.459,163.398 287.833,131.793 		"/>
		<polygon fill="#AAA097" points="291.328,131.521 347.084,162.398 355.334,161.023 300.647,130.793 		"/>
		<polygon fill="#474D34" points="303.584,199.853 315.709,225.398 399.416,201.687 387.209,179.398 		"/>
		<polygon fill="#272A1D" points="310.834,203.273 353.834,192.648 361.459,207.773 318.959,220.023 		"/>
		<polygon fill="#272A1D" points="357.584,189.523 366.834,207.273 368.084,206.648 359.459,189.523 		"/>
		<polygon fill="#272A1D" points="368.334,187.273 369.334,186.523 377.959,204.398 376.459,204.398 		"/>
		<path fill="#272A1D" d="M363.584,198.773l21.923-8.533c0,0,0.491,1.846,1.022,2.408l-21.695,8.875L363.584,198.773z"/>
		<polygon fill="#272A1D" points="373.084,194.773 388.732,178.779 386.952,176.715 371.834,192.898 		"/>
		<ellipse fill="#692D2D" cx="390.959" cy="189.554" rx="5.5" ry="5.219"/>
		<ellipse fill="#692D2D" cx="391.959" cy="174.554" rx="5.5" ry="5.219"/>
		<ellipse fill="#D04231" cx="323.178" cy="212.679" rx="1.656" ry="1.406"/>
		<ellipse fill="#D04231" cx="320.365" cy="205.929" rx="1.655" ry="1.406"/>
		<ellipse fill="#D04231" cx="326.99" cy="204.179" rx="1.655" ry="1.406"/>
		<ellipse fill="#D04231" cx="333.615" cy="202.367" rx="1.655" ry="1.406"/>
		<ellipse fill="#79D031" cx="343.49" cy="207.336" rx="1.655" ry="1.406"/>
		<ellipse fill="#79D031" cx="340.24" cy="200.961" rx="1.655" ry="1.406"/>
		<ellipse fill="#79D031" cx="336.928" cy="208.742" rx="1.656" ry="1.406"/>
		<ellipse fill="#79D031" cx="330.303" cy="210.804" rx="1.656" ry="1.406"/>
	</g>
	<path fill="#252720" d="M365.053,127.457l-1.137-1.603l-0.396-3.058c0,0,21.563-2.898,30.063,20.102c0,0,4.181,20.295-7.566,29.672
		l-0.344-5.496c0,0,2.035-1.677,2.535-3.427l-2.789-0.636l-0.242-3.879l4.156,1.14c0,0,3.125-15-4.375-23.625l-7.901,7.732
		l-1.992-2.808l7.645-7.55c0,0-3.75-4.871-13.125-6.375l-0.917,4.904L365.053,127.457z"/>
</g>
<g>
	<polygon fill="#485F44" enable-background="new    " points="410.916,181.745 556.166,181.745 560.416,188.245 560.416,252.145 
		406.916,252.145 406.916,191.245 	"/>
	<polygon fill="#2C382A" enable-background="new    " points="410.166,191.745 415.166,184.995 552.166,184.995 556.416,189.745 
		556.416,248.245 411.166,248.245 	"/>
	<polyline fill="#485F44" enable-background="new    " points="541.416,181.995 532.666,143.745 431.666,143.495 423.416,181.995 	
		"/>
	<polygon fill="#628787" enable-background="new    " points="443.291,150.37 439.791,174.87 475.416,174.87 473.416,150.37 	"/>
	<path fill="#7DA1A1" enable-background="new    " d="M446.541,153.62c0,0,12.875-3,23.25,0c0,0,2.75,13.625,0.875,17.75h-26
		C444.666,171.37,443.916,161.62,446.541,153.62z"/>
	<polygon fill="#628787" enable-background="new    " points="481.041,156.245 524.791,156.245 529.416,174.495 483.541,174.495 	
		"/>
	<path fill="#B0B8B8" enable-background="new    " d="M479.916,150.245h22.5l1,5h-22.375
		C481.041,155.245,479.791,151.745,479.916,150.245z"/>
	<rect x="519" y="180.16" fill="#7C807C" enable-background="new    " width="3.166" height="1.5"/>
	<rect x="514" y="180.16" fill="#7C807C" enable-background="new    " width="3.166" height="1.5"/>
	<rect x="509" y="179.089" fill="#7C807C" enable-background="new    " width="3.166" height="2.571"/>
	<rect x="504" y="179.089" fill="#7C807C" enable-background="new    " width="3.166" height="2.571"/>
	<rect x="451" y="180.16" fill="#7C807C" enable-background="new    " width="3.166" height="1.5"/>
	<rect x="446" y="180.16" fill="#7C807C" enable-background="new    " width="3.166" height="1.5"/>
	<rect x="441" y="179.089" fill="#7C807C" enable-background="new    " width="3.166" height="2.571"/>
	<rect x="436" y="179.089" fill="#7C807C" enable-background="new    " width="3.166" height="2.571"/>
	<rect x="479" y="179.089" fill="#947773" enable-background="new    " width="3.166" height="2.571"/>
	<rect x="474" y="179.089" fill="#947773" enable-background="new    " width="3.166" height="2.571"/>
	<rect x="512.583" y="193.161" fill="#1A2319" enable-background="new    " width="19.417" height="2"/>
	<rect x="437.583" y="193.161" fill="#1A2319" enable-background="new    " width="19.417" height="2"/>
</g>
<g>
	<polygon fill="#556B47" points="48.001,60.34 48.001,86.173 77.834,110.84 77.834,120.673 87.168,120.673 87.168,110.34 
		116.001,83.007 116.001,66.34 	"/>
	<polygon fill="#344A40" points="79.001,120.673 85.751,120.673 85.751,161.518 79.001,161.506 	"/>
	<path fill="#213129" d="M78.001,161.506h8.25v6c0,0-0.5,1.875,1.375,2.5h5.625v8.75h-7.625c0,0-6.375-0.125-7.625-7.75V161.506z"/>
	<polygon fill="#2A4137" points="99.876,145.131 108.876,145.131 108.876,125.381 105.626,125.381 99.876,132.006 	"/>
	<rect x="112.751" y="118.131" fill="#2A4137" width="6" height="20.375"/>
	<path fill="#21332B" d="M112.376,118.131h6.687l-0.062-2.375c0,0,0.625-2.726,3.875-2.351v-7.562c0,0-10.5-0.211-10.5,5.914
		V118.131z"/>
	<rect x="122.876" y="106.756" fill="#21332B" width="7.25" height="5.875"/>
	<path fill="#21332B" d="M129.751,105.881v7.5h5.875c0,0,5.375-0.375,6.125-6.25v-7.5h-7.125v3.25c0,0-0.25,3.25-2.875,2.875
		L129.751,105.881z"/>
	<rect x="135.251" y="72.131" fill="none" width="5.875" height="27.625"/>
	<rect x="134.626" y="59.506" fill="#21332B" width="7.375" height="12.625"/>
	<path fill="#21332B" d="M135.251,59.506l6-0.125V40.756c0,0-2.875-3.5-6,0V59.506z"/>
	<polygon fill="#3D5132" points="92.751,148.506 96.876,145.131 153.501,145.131 153.501,158.131 154.876,158.131 154.876,161.381 
		153.626,161.381 153.626,162.881 154.876,162.881 154.876,165.381 153.501,165.381 153.626,168.131 154.876,168.131 
		154.876,170.631 153.626,170.631 153.584,171.255 154.876,171.255 154.876,173.255 153.543,173.255 153.709,177.13 157.563,177.13 
		164.919,192.424 165.919,192.007 167.585,195.174 166.252,195.924 166.502,196.674 167.919,196.007 168.752,197.34 
		167.585,198.174 168.085,199.174 169.085,198.257 170.169,200.09 168.669,200.924 174.252,212.344 174.335,250.51 93.252,250.51 
		87.419,226.427 92.918,221.094 	"/>
	<polygon fill="#57704A" points="97.252,150.264 99.835,148.348 149.753,148.348 149.753,181.015 155.002,181.015 169.419,214.006 
		169.419,246.266 97.252,246.266 92.418,228.516 97.168,223.266 	"/>
	<ellipse fill="none" stroke="#253524" stroke-width="2" cx="145.004" cy="196.726" rx="10.25" ry="10.375"/>
	<ellipse fill="none" stroke="#253524" cx="146.642" cy="217.224" rx="8.078" ry="7.938"/>
	<g>
		<ellipse fill="none" stroke="#253524" cx="126.47" cy="207.052" rx="7.906" ry="7.766"/>
		<polygon fill="#253524" points="122.232,213.609 123.189,214.116 125.189,210.381 124.251,210.006 		"/>
		<polygon fill="#253524" points="126.47,210.693 127.001,214.818 128.395,214.581 127.432,210.443 		"/>
		<polygon fill="#253524" points="133.376,209.286 129.876,208.881 129.876,208.068 133.813,208.068 		"/>
		<polygon fill="#253524" points="133.501,204.381 129.876,206.068 129.439,204.943 133.125,202.863 		"/>
		<polygon fill="#253524" points="127.126,203.568 128.751,200.318 129.876,200.818 127.939,204.006 		"/>
		<polygon fill="#253524" points="124.376,204.006 124.876,203.693 124.626,199.818 123.313,200.318 		"/>
		<polygon fill="#253524" points="119.189,205.506 123.001,206.068 123.001,205.506 119.189,204.466 		"/>
		<polygon fill="#253524" points="119.157,210.006 123.001,208.068 123.313,209.036 119.629,210.941 		"/>
		<ellipse fill="#39584B" cx="126.616" cy="207.199" rx="4.385" ry="4.337"/>
		<ellipse fill="#2D463B" cx="126.61" cy="207.225" rx="3.109" ry="2.999"/>
	</g>
	<g>
		<ellipse fill="none" stroke="#253524" cx="146.47" cy="217.052" rx="7.906" ry="7.766"/>
		<polygon fill="#253524" points="142.232,223.609 143.189,224.116 145.189,220.381 144.251,220.006 		"/>
		<polygon fill="#253524" points="146.47,220.693 147.001,224.818 148.395,224.581 147.432,220.443 		"/>
		<polygon fill="#253524" points="153.376,219.286 149.876,218.881 149.876,218.068 153.813,218.068 		"/>
		<polygon fill="#253524" points="153.501,214.381 149.876,216.068 149.439,214.943 153.125,212.863 		"/>
		<polygon fill="#253524" points="147.126,213.568 148.751,210.318 149.876,210.818 147.939,214.006 		"/>
		<polygon fill="#253524" points="144.376,214.006 144.876,213.693 144.626,209.818 143.313,210.318 		"/>
		<polygon fill="#253524" points="139.189,215.506 143.001,216.068 143.001,215.506 139.189,214.466 		"/>
		<polygon fill="#253524" points="139.157,220.006 143.001,218.068 143.313,219.036 139.629,220.941 		"/>
		<ellipse fill="#39584B" cx="146.616" cy="217.199" rx="4.385" ry="4.337"/>
		<ellipse fill="#2D463B" cx="146.61" cy="217.225" rx="3.109" ry="2.999"/>
	</g>
	<g>
		<ellipse fill="none" stroke="#253524" cx="145.13" cy="196.902" rx="10.249" ry="10.2"/>
		<polygon fill="#253524" points="139.636,205.513 140.876,206.179 143.469,201.273 142.253,200.78 		"/>
		<polygon fill="#253524" points="145.13,201.683 145.818,207.101 147.625,206.789 146.377,201.354 		"/>
		<polygon fill="#253524" points="154.083,199.835 149.545,199.302 149.545,198.236 154.649,198.236 		"/>
		<polygon fill="#253524" points="154.245,193.392 149.545,195.609 148.979,194.133 153.758,191.401 		"/>
		<polygon fill="#253524" points="145.98,192.326 148.087,188.058 149.545,188.715 147.034,192.9 		"/>
		<polygon fill="#253524" points="142.415,192.9 143.064,192.49 142.739,187.401 141.037,188.058 		"/>
		<polygon fill="#253524" points="135.691,194.871 140.633,195.609 140.633,194.871 135.691,193.505 		"/>
		<polygon fill="#253524" points="135.649,200.78 140.633,198.236 141.037,199.507 136.261,202.01 		"/>
		<ellipse fill="#39584B" cx="145.32" cy="197.094" rx="5.684" ry="5.697"/>
		<ellipse fill="#2D463B" cx="145.311" cy="197.13" rx="4.031" ry="3.938"/>
	</g>
	<line fill="#344A40" x1="86.001" y1="161.518" x2="78.834" y2="161.518"/>
	<rect x="135.251" y="72.131" fill="#2A4137" enable-background="new    " width="5.875" height="27.625"/>
	<rect x="112.376" y="138.506" fill="#21332B" enable-background="new    " width="7.042" height="6.625"/>
</g>
</svg>
