<?xml version="1.0" encoding="utf-8"?>
<!-- Generator: Adobe Illustrator 16.0.0, SVG Export Plug-In . SVG Version: 6.00 Build 0)  -->
<!DOCTYPE svg PUBLIC "-//W3C//DTD SVG 1.1//EN" "http://www.w3.org/Graphics/SVG/1.1/DTD/svg11.dtd">
<svg version="1.1" id="Layer_1" xmlns="http://www.w3.org/2000/svg" xmlns:xlink="http://www.w3.org/1999/xlink" x="0px" y="0px"
	 width="684px" height="296.64px" viewBox="0 0 684 296.64" enable-background="new 0 0 684 296.64" xml:space="preserve">
<rect x="-10" y="-23" fill="#BDA98A" width="736" height="352"/>
<g>
	<polygon fill="#674A2D" points="100.174,94.828 145.393,76.023 157.705,208.771 163.525,213.472 159.496,231.38 112.486,220.636 	
		"/>
	<polygon fill="#815D38" points="145.393,76.023 232.473,81.172 230.234,204.518 157.705,208.771 	"/>
	<polygon fill="#5F412A" points="175.166,99.081 220.833,100.872 212.773,205.413 213.669,104.229 	"/>
	<polygon fill="#A57647" points="157.705,208.771 230.011,204.294 233.592,207.862 163.525,213.472 	"/>
	<polygon fill="#94693F" points="163.525,213.472 233.592,207.862 228.892,225.336 159.496,231.38 	"/>
	<polygon fill="#989898" points="183.281,78.264 181.77,62.48 158.433,44.012 163.525,39.479 188.934,59.962 189.829,78.65 	"/>
</g>
<g id="chair_1_">
	<path fill="#D7C6A5" d="M495.182,94.735l6.691-46.671c0,0,30.118,0.873,42.631-1.455c0,0,7.857-2.619,14.841,0
		c0,0,35.793-1.455,47.578-4.947l-8.293,50.051l-17.169,6.693l-79.588,0.873l-6.691-2.037V94.735z"/>
	<polygon fill="#7D6E52" points="606.923,41.662 614.78,44.281 606.05,89.531 606.05,108.59 558.326,107.864 558.326,93.459 
		598.63,91.713 	"/>
	<path fill="#9D9477" d="M558.326,107.864H450.075V97.825c0,0,28.519,0.873,39.722-2.765c0,0,5.965-1.31,14.404,1.164
		c0,0,43.213,1.019,54.125-2.765V107.864z"/>
	<path fill="#D3492F" d="M556.58,50.101c0,0,21.68,2.328,42.777-2.474l-6.839,39.867c0,0-22.553,4.219-40.012,2.91L556.58,50.101z"
		/>
	<path fill="#A52F27" d="M552.07,90.259l0.728-1.31c0,0,29.827,0,36.52-3.347l6.257-36.52c0,0,2.328-0.728,3.783-1.31l-6.839,39.867
		C592.519,87.64,561.964,91.859,552.07,90.259z"/>
	<path fill="#D3492F" d="M506.529,53.156c0,0,24.734,0.582,38.411-3.201l-5.237,40.666c0,0-32.155,2.111-40.013,1.238
		L506.529,53.156z"/>
	<polygon fill="#A52F27" points="541.885,51.12 544.795,49.665 539.558,90.621 499.545,91.859 499.545,90.621 537.084,89.095 	"/>
	<polygon fill="#9D9477" fill-opacity="0.3" points="606.05,108.59 606.05,117.03 561.794,132.163 453.834,129.147 499.545,118.776 
		499.545,107.864 	"/>
</g>
<g>
	<polygon fill="#855A3A" points="420.991,81.362 526.578,75.093 526.578,67.257 420.991,77.248 	"/>
	<polygon fill="#4F3522" points="427.652,80.966 428.387,83.812 532.554,78.963 532.554,74.31 526.578,75.093 	"/>
	<polygon fill="#855A3A" points="428.387,83.812 532.554,78.963 535.492,149.926 435.438,144.637 	"/>
	<polygon fill="#5F412A" points="519.037,89.101 437.643,94.831 444.548,127.594 441.756,100.414 	"/>
	<polygon fill="#5F412A" points="526.578,67.257 578.099,68.238 578.099,144.49 535.492,149.926 532.554,78.963 532.554,74.31 
		526.578,75.093 	"/>
</g>
<g id="chair">
	<path fill="#D7C6A5" d="M404.427,151.201l6.691-46.671c0,0,30.118,0.873,42.631-1.455c0,0,7.857-2.619,14.841,0
		c0,0,35.793-1.455,47.578-4.947l-8.293,50.051l-17.169,6.693l-79.588,0.873l-6.691-2.037V151.201z"/>
	<polygon fill="#7D6E52" points="516.168,98.128 524.025,100.748 515.295,145.998 515.295,165.057 467.571,164.33 467.571,149.926 
		507.875,148.18 	"/>
	<path fill="#9D9477" d="M467.571,164.33H359.32v-10.039c0,0,28.519,0.873,39.722-2.765c0,0,5.965-1.31,14.404,1.164
		c0,0,43.213,1.019,54.125-2.765V164.33z"/>
	<path fill="#D3492F" d="M465.825,106.567c0,0,21.68,2.328,42.777-2.474l-6.839,39.867c0,0-22.553,4.219-40.012,2.91
		L465.825,106.567z"/>
	<path fill="#A52F27" d="M461.315,146.725l0.728-1.31c0,0,29.827,0,36.52-3.347l6.257-36.52c0,0,2.328-0.728,3.783-1.31
		l-6.839,39.867C501.764,144.106,471.209,148.325,461.315,146.725z"/>
	<path fill="#D3492F" d="M415.774,109.623c0,0,24.734,0.582,38.411-3.201l-5.237,40.666c0,0-32.155,2.111-40.013,1.238
		L415.774,109.623z"/>
	<polygon fill="#A52F27" points="451.13,107.586 454.04,106.131 448.803,147.087 408.79,148.325 408.79,147.087 446.329,145.561 	
		"/>
	<polygon fill="#9D9477" fill-opacity="0.3" points="515.295,165.057 515.295,173.496 471.039,188.629 363.079,185.613 
		408.79,175.242 408.79,164.33 	"/>
</g>
<g>
	<polygon fill="#855A3A" points="330.236,137.828 435.823,131.559 435.823,123.724 330.236,133.714 	"/>
	<polygon fill="#4F3522" points="336.897,137.433 337.631,140.278 441.799,135.43 441.799,130.776 435.823,131.559 	"/>
	<polygon fill="#855A3A" points="337.631,140.278 441.799,135.43 444.737,206.393 344.684,201.104 	"/>
	<polygon fill="#5F412A" points="428.282,145.567 346.888,151.297 353.793,184.061 351.001,156.88 	"/>
	<polygon fill="#5F412A" points="435.823,123.724 487.344,124.705 487.344,200.956 444.737,206.393 441.799,135.43 441.799,130.776 
		435.823,131.559 	"/>
</g>
</svg>
