<?xml version="1.0" encoding="utf-8"?>
<!-- Generator: Adobe Illustrator 16.0.0, SVG Export Plug-In . SVG Version: 6.00 Build 0)  -->
<!DOCTYPE svg PUBLIC "-//W3C//DTD SVG 1.1//EN" "http://www.w3.org/Graphics/SVG/1.1/DTD/svg11.dtd">
<svg version="1.1" id="Layer_1" xmlns="http://www.w3.org/2000/svg" xmlns:xlink="http://www.w3.org/1999/xlink" x="0px" y="0px"
	 width="684px" height="296.64px" viewBox="0 0 684 296.64" enable-background="new 0 0 684 296.64" xml:space="preserve">
<radialGradient id="SVGID_1_" cx="342" cy="148.3198" r="263.5932" gradientUnits="userSpaceOnUse">
	<stop  offset="0" style="stop-color:#C6B18B"/>
	<stop  offset="1" style="stop-color:#9E8157"/>
</radialGradient>
<rect fill="url(#SVGID_1_)" width="684" height="296.64"/>
<path fill="#68461B" d="M247.2,259.2h33.599l9.601-10h98.2l10.4,10h1h34.4l12.8-178.4c0,0-96.8-104.8-217.6,0L247.2,259.2z"/>
<polygon fill="#563D19" points="280.799,259.2 273.5,104 408.5,104 399,259.2 388.6,249.2 396,107 283.5,107 290.4,249.2 "/>
<polygon fill="#7C7A32" points="283.5,107 337.438,107 337.312,249.2 290.334,249.2 "/>
<polygon fill="#7C7A32" points="396,107 339.38,107 339.117,249.2 388.691,249.2 "/>
<rect x="324" y="83.333" fill="#2D2C1C" width="31" height="8.333"/>
<polygon fill="#B2B3B3" points="414.002,148.32 428.25,148.32 429.841,149.361 426.335,172 413.21,172 412.235,170.386 "/>
<polygon fill="#828282" points="429.841,149.361 415,149.361 413.334,172 426.335,172 "/>
<ellipse fill="#B2B3B3" cx="422.042" cy="156.132" rx="3.458" ry="3.549"/>
<ellipse fill="#B2B3B3" cx="421.039" cy="166.215" rx="3.458" ry="3.549"/>
<ellipse fill="#FEE600" cx="421.75" cy="155.924" rx="3.167" ry="3.341"/>
<ellipse fill="#FEE600" cx="420.83" cy="166.007" rx="3.25" ry="3.341"/>
<text transform="matrix(1.0521 0 0 1 337.4385 89.6206)" fill="#ED1F24" font-family="'MyriadPro-Regular'" font-size="7.5152">2</text>
<g>
	<path fill="#492D21" d="M453.125,229.38c0,0,14.5-8.501,32,0C485.125,229.38,469.125,237.879,453.125,229.38z"/>
	<path fill="#895D4D" d="M453.125,229.38l5.832,25.668h16.668l9.5-25.668C485.125,229.38,472.291,237.045,453.125,229.38z"/>
	<path fill="#B48454" d="M466.75,229.38c0,0,2.375,1.497,4.625-0.001v-27.873h-4.625V229.38z"/>
	<path fill="#895F25" d="M469.062,201.506h2.312v12.75c0,0-1.188-0.875-1.156-3.875c0,0,0.031-4.5-1.094-4.75
		C469.125,205.631,467.75,204.631,469.062,201.506z"/>
	<path fill="#3A7657" d="M454.625,200.868c0,0-0.125,3.737,2.875,2.67c0,0,1.625,2.669,3.25,1.335c0,0,3.5,1.014,4.75,0.373
		c0,0,2.5,3.733,5.875,0.212c0,0,5.125,0.846,6.75-1.538c0,0,3.625-0.516,3.875-6.255c0,0,4.5,1.084,3.625-3.795
		c0,0,1.375-3.812-2.125-4.747c0,0-0.625-4.805-3.625-3.871c0,0-4-4.671-7.625-0.667c0,0-2.75-3.337-6.625-1.067
		c0,0-3.25-2.937-5.25,1.067c0,0-3.625-2.269-4.875,1.735c0,0-2.875,0.667-2.375,3.87c0,0-1.992,2.019-0.059,3.68
		c0,0-1.441,2.861,0.059,3.528C453.125,197.398,451.75,200.067,454.625,200.868z"/>
	<path fill="#21AF76" d="M456.488,183.04c0,0-4.193,1.263-2.869,4.31c0,0-1.766,0.21-0.773,2.943c0,0-2.318,1.155-0.992,3.994
		c0,0-0.078,4.062,2.113,3.99c0,0,1.75,2.947,3.516,0.845c0,0,1.545,2.983,3.643,0.756c0,0,2.65,2.292,4.525-0.23
		c0,0,1.766,1.261,2.871-0.841c0,0,3.311,0.21,4.084-1.472c0,0,3.201,0.21,3.422-1.682c0,0,3.311-2.284,0.883-3.718
		c0,0,1.33-3.282-1.436-2.741c0,0,0.773-4.05-1.545-3.631c0,0-1.104-2.628-4.525-1.261c0,0-2.98-2.418-3.975-1.263
		c0,0-3.531-1.888-4.305-0.312C461.125,182.728,458.807,179.993,456.488,183.04z"/>
</g>
<g>
	<path fill="#492D21" d="M197.458,230.213c0,0,14.5-8.501,32,0C229.458,230.213,213.458,238.712,197.458,230.213z"/>
	<path fill="#895D4D" d="M197.458,230.213l5.832,25.668h16.668l9.5-25.668C229.458,230.213,216.625,237.878,197.458,230.213z"/>
	<path fill="#B48454" d="M211.083,230.213c0,0,2.375,1.497,4.625-0.001v-27.873h-4.625V230.213z"/>
	<path fill="#895F25" d="M213.396,202.339h2.312v12.75c0,0-1.188-0.875-1.156-3.875c0,0,0.031-4.5-1.094-4.75
		C213.458,206.464,212.083,205.464,213.396,202.339z"/>
	<path fill="#3A7657" d="M198.958,201.701c0,0-0.125,3.737,2.875,2.67c0,0,1.625,2.669,3.25,1.335c0,0,3.5,1.014,4.75,0.373
		c0,0,2.5,3.733,5.875,0.212c0,0,5.125,0.846,6.75-1.538c0,0,3.625-0.516,3.875-6.255c0,0,4.5,1.084,3.625-3.795
		c0,0,1.375-3.812-2.125-4.747c0,0-0.625-4.805-3.625-3.871c0,0-4-4.671-7.625-0.667c0,0-2.75-3.337-6.625-1.067
		c0,0-3.25-2.937-5.25,1.067c0,0-3.625-2.269-4.875,1.735c0,0-2.875,0.667-2.375,3.87c0,0-1.992,2.019-0.059,3.68
		c0,0-1.441,2.861,0.059,3.528C197.458,198.231,196.083,200.9,198.958,201.701z"/>
	<path fill="#21AF76" d="M200.822,183.873c0,0-4.193,1.263-2.869,4.31c0,0-1.766,0.21-0.773,2.943c0,0-2.318,1.155-0.992,3.994
		c0,0-0.078,4.062,2.113,3.99c0,0,1.75,2.947,3.516,0.845c0,0,1.545,2.983,3.643,0.756c0,0,2.65,2.292,4.525-0.23
		c0,0,1.766,1.261,2.871-0.841c0,0,3.311,0.21,4.084-1.472c0,0,3.201,0.21,3.422-1.682c0,0,3.311-2.284,0.883-3.718
		c0,0,1.33-3.282-1.436-2.741c0,0,0.773-4.05-1.545-3.631c0,0-1.104-2.628-4.525-1.261c0,0-2.98-2.418-3.975-1.263
		c0,0-3.531-1.888-4.305-0.312C205.458,183.561,203.14,180.826,200.822,183.873z"/>
</g>
</svg>
