<?xml version="1.0" encoding="utf-8"?>
<!-- Generator: Adobe Illustrator 16.0.0, SVG Export Plug-In . SVG Version: 6.00 Build 0)  -->
<!DOCTYPE svg PUBLIC "-//W3C//DTD SVG 1.1//EN" "http://www.w3.org/Graphics/SVG/1.1/DTD/svg11.dtd">
<svg version="1.1" id="Layer_1" xmlns="http://www.w3.org/2000/svg" xmlns:xlink="http://www.w3.org/1999/xlink" x="0px" y="0px"
	 width="684px" height="296.641px" viewBox="0 0 684 296.641" enable-background="new 0 0 684 296.641" xml:space="preserve">
<radialGradient id="SVGID_1_" cx="396" cy="-9.0002" r="263.5934" gradientTransform="matrix(1 0 0 -1 -54 139.3198)" gradientUnits="userSpaceOnUse">
	<stop  offset="0" style="stop-color:#C6B18B"/>
	<stop  offset="1" style="stop-color:#9E8157"/>
</radialGradient>
<rect y="0" fill="url(#SVGID_1_)" width="684" height="296.641"/>
<g>
	<polygon fill="#634A39" points="299.65,16.699 434.85,16.699 431.051,220.5 302.65,220.5 	"/>
	<g>
		<rect x="307.825" y="24.199" fill="#725B4B" width="118.5" height="43"/>
		<polygon fill="#A0846A" points="307.825,24.199 319.325,31.699 319.325,67.199 307.825,67.199 		"/>
		<rect x="319.325" y="31.699" fill="#3F322B" width="98" height="35.5"/>
	</g>
	<g>
		<rect x="307.825" y="74.199" fill="#725B4B" width="118.5" height="43"/>
		<polygon fill="#A0846A" points="307.825,74.199 319.325,81.699 319.325,117.199 307.825,117.199 		"/>
		<rect x="319.325" y="81.699" fill="#3F322B" width="98" height="35.5"/>
	</g>
	<g>
		<rect x="307.825" y="124.199" fill="#725B4B" width="118.5" height="43"/>
		<polygon fill="#A0846A" points="307.825,124.199 319.325,131.699 319.325,167.199 307.825,167.199 		"/>
		<rect x="319.325" y="131.699" fill="#3F322B" width="98" height="35.5"/>
	</g>
	<path fill="#BF94B4" d="M311.075,67.199v-28.75c0,0,4.25-1.25,6.25,0v28.75H311.075z"/>
	<path fill="#997952" d="M317.075,67.199V41.665c0,0,5.25-1.109,7.25,0l-1,25.534H317.075z"/>
	<path fill="#6B80BF" d="M330.575,67.199l0.751-22.935c0,0,4.999-0.951,6.999,0.044v22.891H330.575z"/>
	<path fill="#6B80BF" d="M332.325,117.199L332.2,94.434c0,0,5.875-1.121,7.875-0.125v22.891H332.325z"/>
	<path fill="#6DBCA1" d="M331.034,167.199l0.708-22.835c0,0,5.333-1.051,7.333-0.055v22.89H331.034z"/>
	<path fill="#6B80BF" d="M314.575,167.199l-0.125-22.765c0,0,5.875-1.121,7.875-0.125v22.89H314.575z"/>
	<path fill="#6B80BF" d="M397.575,67.199l0.751-22.935c0,0,4.999-0.951,6.999,0.044v22.891H397.575z"/>
	<path fill="#6B80BF" d="M397.575,117.199l0.751-22.935c0,0,4.999-0.951,6.999,0.044v22.891H397.575z"/>
	<path fill="#5C8273" d="M355.867,67.199l-1.061-19.174c0,0,5.312-1.951,9.41,0.04l0.108,19.134H355.867z"/>
	<path fill="#5C8273" d="M405.325,117.199V98.026c0,0,5.312-1.951,9.409,0.04l-1.44,19.134H405.325z"/>
	<path fill="#5C8273" d="M323.867,117.199l-1.06-19.174c0,0,5.311-1.951,9.409,0.04l0.109,19.134H323.867z"/>
	<path fill="#5C8273" d="M346.616,117.199l1.19-19.174c0,0,5.311-1.951,9.408,0.04l-1.89,19.134H346.616z"/>
	<path fill="#5C8273" d="M322.325,167.199v-19.1c0,0,5.193-1.823,9.292,0.167l-0.583,18.933H322.325L322.325,167.199z"/>
	<path fill="#693F5D" d="M370.866,67.199l1.257-20.757c0,0,7.994-2.408,12.094-0.225l-0.892,20.981H370.866z"/>
	<path fill="#693F5D" d="M355.325,117.199l2.007-20.757c0,0,7.994-2.408,12.094-0.225l-0.892,20.98L355.325,117.199L355.325,117.199
		z"/>
	<path fill="#DED190" d="M323.325,67.199l1-30.534c0,0,5.25-1.109,7.25,0l-1,30.534H323.325z"/>
	<path fill="#BF94B4" d="M338.325,67.199V38.116c0,0,5.125-1.104,7.125-0.042l1.417,29.125H338.325z"/>
	<path fill="#7A6275" d="M315.325,117.199V88.116c0,0,5.125-1.104,7.125-0.042l1.417,29.125H315.325z"/>
	<path fill="#BF94B4" d="M408.325,67.199V38.116c0,0,5.125-1.104,7.125-0.042l1.416,29.125H408.325z"/>
	<path fill="#DED190" d="M364.325,67.199l-0.188-29.083c0,0,5.625-0.958,8.479,0.188l-1.75,28.896L364.325,67.199L364.325,67.199z"
		/>
	<path fill="#DED190" d="M340.075,117.199l-0.188-29.083c0,0,5.625-0.958,8.479,0.188l-1.75,28.896L340.075,117.199L340.075,117.199
		z"/>
	<path fill="#DED190" d="M390.896,67.199l-0.307-29.031c0,0,4.392-1.202,8.598,0.137l-1.75,28.896L390.896,67.199L390.896,67.199z"
		/>
	<path fill="#57826D" d="M383.325,67.199l0.812-25.982c0,0,3.625-0.855,6.479,0.168l0.25,25.814H383.325z"/>
	<path fill="#4D4E83" d="M346.867,67.199l-1.495-30.562c0,0,7.078-1.159,9.078-0.041l1.417,30.604L346.867,67.199L346.867,67.199z"
		/>
	<path fill="#74AA8F" d="M384.137,41.217l-0.152,4.89c0,0-3.133-1.292-6.785-0.661l0.342-3.62L384.137,41.217z"/>
	<path fill="#DAADD0" d="M408.325,38.116l-5.165,1.5v4.238c0,0,1.479,0.062,2.165,0.454v22.891h3V38.116z"/>
	<path fill="#987E94" d="M322.45,88.074l0.482,9.907c0,0,1.143-0.509,3.768-0.812l-0.833-7.929L322.45,88.074z"/>
	<path fill="#E6E7E8" d="M374.493,105.251c0,0,0.584-0.333,0.917-1c0,0-0.416-3,2.417-2.417c0,0,3,0.306,0.833,6.819l-0.75,1.931
		c0,0,3.334-5.777,9.167-1.931c0,0,1.916,1.431,2.583,1.431c0,0-1.104,3.099-2.626,4.408c-3.584,3.083-9.917,4.167-12.124-0.241
		c0,0-1.166-2.583,1.917-8c0,0,0.583-1.167-0.417-1.583C376.41,104.667,376.076,105.584,374.493,105.251z"/>
	<path fill="#D1D3D4" d="M376.297,107.238c0,0-3.589,6.335,0.24,8.883c0,0,1.205,0.983,2.746,1.059
		C379.283,117.179,368.395,118.141,376.297,107.238z"/>
	<polygon fill="#4D5E84" points="398.326,94.265 397.575,117.199 390.137,117.02 391.387,96.262 	"/>
	<polygon fill="#56917B" points="339.075,144.309 339.075,167.199 343.764,167.199 342.764,146.262 	"/>
	<polygon fill="#916E8F" points="380.7,167.199 399.825,167.199 401.45,144.309 382.575,143.897 	"/>
	<polygon fill="#755A75" points="401.45,144.309 399.825,167.199 403.2,167.199 405.325,144.309 	"/>
	<polygon fill="#755A75" points="385.95,147.699 384.325,164.199 385.95,164.199 387.2,147.699 	"/>
	<polygon fill="#A7A9AC" points="387.2,147.699 398.014,147.699 396.7,164.199 385.95,164.199 	"/>
	<polygon fill="#808285" points="386.362,158.761 385.95,164.199 396.7,164.199 397.102,159.148 395.45,155.949 391.981,158.574 
		391.526,154.388 389.075,156.449 387.825,155.549 	"/>
	<rect x="307.825" y="173.367" fill="#3F322B" width="118.5" height="41"/>
	<rect x="308.407" y="173.949" fill="#634A39" width="58.668" height="39.625"/>
	<rect x="367.407" y="173.949" fill="#634A39" width="58.604" height="39.625"/>
	<rect x="314.45" y="178.699" fill="#3F322B" width="46.542" height="29.168"/>
	<rect x="318.117" y="181.867" fill="#634A39" width="39.208" height="23.166"/>
	<rect x="373.45" y="178.699" fill="#3F322B" width="46.542" height="29.168"/>
	<polygon fill="#7C5E4D" points="318.117,205.033 314.45,207.867 360.992,207.867 357.325,205.033 	"/>
	<rect x="377.117" y="181.867" fill="#634A39" width="39.208" height="23.166"/>
	<polygon fill="#7C5E4D" points="377.117,205.033 373.45,207.867 419.992,207.867 416.325,205.033 	"/>
</g>
<g>
	<g>
		
			<linearGradient id="SVGID_2_" gradientUnits="userSpaceOnUse" x1="451.9639" y1="60.6125" x2="442.9639" y2="38.6125" gradientTransform="matrix(0.9808 0.1952 -0.1952 0.9808 10.6694 -9.2318)">
			<stop  offset="0" style="stop-color:#FFFECA"/>
			<stop  offset="1" style="stop-color:#FFFC83"/>
		</linearGradient>
		<path fill="url(#SVGID_2_)" d="M426.249,113.781c0,0,11.693-7.518,24.701-1.153l12.633,32.152c0,0-23.898-6.297-39.132,7.06
			L426.249,113.781z"/>
		<path fill="#FFFC80" d="M424.451,151.84c0,0,13.755-12.758,39.132-7.06C463.583,144.78,449.638,156.779,424.451,151.84z"/>
		<path fill="#FFFEE9" d="M428.489,114.481c0,0,1.307-0.589,2.711-0.819l2.633,31.17l-6.246,2.777L428.489,114.481z"/>
		<path fill="#FFFEE9" d="M435.534,113.449c0,0,1.672-1.141,3.045-0.358l6.498,28.823l-7.051,1.276L435.534,113.449z"/>
		<path fill="#FFFEE9" d="M443.294,112.67c0,0,2.844,0.226,3.433,0.683l10.14,27.604l-8.645-0.116L443.294,112.67z"/>
	</g>
	<g>
		<path fill="#A5A5A5" d="M441.48,144.205c0,0,0.956-0.17,2.242-0.408v72.566h-2.242V144.205z"/>
		<ellipse fill="#A5A5A5" cx="442.353" cy="218.375" rx="20.167" ry="3.402"/>
	</g>
</g>
<g>
	<path fill="#543429" d="M461.703,208.011c0,0,0.332-26.508,17.666-49.421c0,0,13.667-2.246,22.667-3.246s28.666,1.167,33.333,3.75
		c0,0,14.334,4.123,16.667,7.188c0,0-9.001,13.396-7.667,36.396c0,0-6.287,1.168-18.666,5.334H461.703z"/>
	<path fill="#6B4331" d="M544.369,202.677c0,0-13.332,2.001-18.666,5.334c0,0-9.664,0.207-14.334,6.821c0,0,15.501-4.28,16.5,5.595
		c0,0-0.832,9.621-10.166,12.77c0,0-4,3.147-3.667,17.147l31.667-12.347c0,0,11.333-3.911,8.333-9.782
		c0,0-1.333-10.204,4.667-16.204C558.703,212.011,562.035,195.01,544.369,202.677z"/>
	<path fill="#875442" d="M511.369,214.833c0,0-4.833,7.179-4.499,36.179c0,0,3.498,2.5,7.166-0.667c0,0-0.418-13.046,3.667-17.147
		c0,0,9.253-2.687,10.166-12.77C527.869,220.427,528.206,210.927,511.369,214.833z"/>
	<path fill="#6B4331" d="M544.369,202.677c0,0-2.562-25.958,10.501-40.312c0,0,6.167-3.188,9.667,4.479c0,0,0.834,3.5,0,6.333
		c0,0-7.52,14.562-9.927,27.882C554.61,201.059,549.87,200.116,544.369,202.677z"/>
	<path fill="#543429" d="M562.994,164.302c0,0,3.171,3.213,0.961,10.044c0,0-12.65,15.654-13.517,26.647
		c0,0,5.942,0.733,6.624,1.683c0,0,4.808-23.875,8.683-28.125C565.745,174.552,567.743,169.303,562.994,164.302z"/>
	<polygon fill="#543429" points="531.495,227.302 548.37,219.302 548.37,225.517 529.87,231.802 	"/>
	<path fill="#543429" d="M461.703,208.011h64c0,0-12.502,1.874-14.334,6.821c0,0-4.282,6.47-4.516,33.47c0,0-2.358,2.375-6.608,2.75
		l-49.75-4c0,0-17.25-2.875-17-12.75c0,0-1.5-8.625,0.75-12.875c0,0,1-4.375,6.125-8.75L461.703,208.011z"/>
	<path fill="#543429" d="M461.703,208.011l-21.333,4.666c0,0-4.472,3.257-6.86,10.753c0,0-2.765-6.827-9.14-9.54
		c0,0-5.5-1.838-4-8.713c0,0-0.875-3,7.5-5.75c0,0,17-4.625,26.125-5.875h9.663C463.658,193.552,462.198,199.982,461.703,208.011z"
		/>
	<path fill="#543429" d="M479.369,158.591c0,0-10.423,12.503-15.711,34.962c0,0-6.955,0.208-10.288,0c0,0,0-20.875,5-33.708
		c0,0,1.955-6,5.288-6.667C463.658,153.177,472.537,147.177,479.369,158.591z"/>
	<path fill="#875442" d="M424.651,200.691c0,0,9.384-1.36,12.052,3.473l25-8.167c0,0-1.999-2.389-8.333-2.444
		C453.37,193.552,426.612,199.59,424.651,200.691z"/>
	<path fill="#6B4331" d="M453.37,193.552c0,0,0.248-32.113,9.29-40.001c0,0,7.635-4.982,13.422,0.898
		c0,0-13.88,11.678-17.713,39.195C458.369,193.645,454.647,193.263,453.37,193.552z"/>
	<path fill="#6B4331" d="M436.203,204.164c0,0-6.602-7.775-14.967-1.138c0,0-5.075,7.706,5.279,12.005c0,0,6.301,4.5,6.994,8.399
		c0,0,2.36-8.905,6.86-10.753C440.37,212.677,437.934,206.349,436.203,204.164z"/>
	<path fill="#3A241B" d="M464.996,188.437c0,0,6.872-21.919,14.373-29.847c0,0,4.234-0.676,4.834-0.77
		C484.203,157.821,469.288,174.878,464.996,188.437z"/>
	<path fill="#875442" d="M491.498,156.725c0,0-16.871,31.135-15.416,51.286c0,0-20.046,5.598-22.712,11.291
		c0,0-6.084,3.806-2.875,27.75c0,0,2.069-0.296,2.875,0c0,0-2.454-19.221,2.668-26.389c0,0,7.829-6,23.331-11.334
		c0,0-2.154-19.921,15.841-53.126L491.498,156.725z"/>
	<path fill="#875442" d="M530.702,157.821c0,0-18.33,28.01-23.832,55.343c0,0-10.318,4-11.66,8.667c0,0-7.936,13.833-7.056,28.25
		l3.285,0.264c0,0-0.405-19.147,6.762-26.914c0,0,3.336-4.78,13.168-10.1c0,0,0.491-16.978,22.662-54.822
		C534.031,158.509,531.919,158.359,530.702,157.821z"/>
	<path opacity="0.7" fill="#3A241B" d="M461.703,208.011c0,0,0.262-3.592,0.479-5.335c0,0,50.661,2.263,57.092,6.874
		c0,0-5.239,1.451-7.904,5.282c0,0-1.699,2.747-2.165,5.831c0,0-40.998-9.349-55.834-10.83
		C453.37,209.834,458.536,207.859,461.703,208.011z"/>
	<path fill="#3A241B" d="M551.935,166.165c0,0-9.928,13.116-7.565,36.513c0,0-11.499,1.805-14.499,3.438
		c0,0,2.824-33.945,13.412-44.406C543.282,161.709,550.499,164.333,551.935,166.165z"/>
</g>
<g>
	<polygon fill="#5B5B5B" points="180.317,22.534 243.817,22.534 242.317,95.683 180.317,95.683 	"/>
	<polygon fill="#FFFFFF" points="183.543,26.251 240.591,26.251 239.244,91.967 183.543,91.967 	"/>
	<polygon fill="#D1D1D1" points="195.621,40.163 228.514,40.163 227.737,78.054 195.621,78.054 	"/>
	<polygon fill="#262626" points="180.317,22.534 180.317,95.683 177.317,95.683 177.317,22.348 	"/>
	<path fill="#A1BC68" d="M195.621,41.288h31.571v13.125c0,0-7-3.125-9.125,2.75s-10.625,3.625-12.375,0s-9.518-0.75-10.071,1.125
		V41.288z"/>
	<path fill="#A57BB7" d="M195.621,58.288c0,0,3.02-4.124,8.733-2.437c0,0,0.58-0.422,3.084,3.257c0,0,6.304,4.087,10.154-0.929
		c0,0,1.85-7.266,9.6-3.766l-0.625,23.641h-30.946V58.288z"/>
	<path fill="#E5C7EF" d="M202.192,59.98c0,0-1.375-2.125,0-3.75s2.75-1,4,0c0,0,0.875,1.875,0,3.75
		C206.192,59.98,203.969,61.768,202.192,59.98z"/>
	<path fill="#C0D88D" d="M202.192,59.98c0,0,0.875,1.816,4,0l1.125,1.559c0,0-1.723,6.5-0.736,7.875c0,0,2.736,5.282,2.486,8.641
		h-8.875c0,0-0.875-11.641-1-13.891C199.192,64.163,199.942,60.796,202.192,59.98z"/>
	<polygon fill="#E5C7EF" points="204.081,65.163 204.692,63.288 209.083,65.163 212.692,62.163 212.692,63.663 209.083,66.788 	"/>
	<ellipse fill="#FFFFFF" cx="204.387" cy="47.601" rx="2.806" ry="2.438"/>
	<path fill="#FFFFFF" d="M217.192,56.788h4.25c0,0,0.75-3.031-1-3.328S217.319,54.79,217.192,56.788z"/>
</g>
<g>
	<polygon fill="#6B4331" points="207.019,169.584 210.734,162.584 297.067,162.584 299.401,169.584 	"/>
	<polygon fill="#3F322B" points="210.734,162.584 297.067,162.584 285.817,155.874 221.067,155.874 	"/>
	<polygon fill="#C99C7D" points="212.567,169.584 294.317,169.584 296.317,214.499 210.567,214.499 	"/>
	<polygon fill="#6B4331" points="204.317,214.499 301.317,214.499 302.567,220.499 200.817,220.499 	"/>
	<polygon fill="#875442" points="229.317,214.499 276.817,214.499 276.817,185.749 229.317,185.249 	"/>
	<polygon fill="#6B4331" points="229.317,214.499 234.233,210.419 234.233,185.249 271.901,185.697 271.901,210.252 
		276.817,214.499 	"/>
	<path fill="#E04C03" d="M236.901,197.416c0,0,0.25,3.585-1,6.501s-0.876,6.667,1.021,7.5c0,0,4.063,1.249,5.896,0.666
		c0,0,8.25,1.084,9.333-1.416c0,0,6.336-1.437,4.917-5.801c0,0-0.583-3.033,1.25-7.116c0,0-4.521,4.333-4.219,5.833
		c0,0-0.533,2.523-2.782,3.179c0,0,2.751-1.179,2.084-5.179c0,0-0.249-2.666,0.167-2.666c0,0-2.668,0.748-2.251,3.374
		c0,0-0.499-3.791-1.999-4.041c0,0,1.666,3.833-1.334,6.083c0,0,0.751-2.584-0.666-3.25c0,0-1.416,3.501-3,4.584
		c0,0,3.25-5.084,0-7.667c0,0-1.501,1.667-2.584,4.75l-2.083-4.25c0,0,0.083,3.415-1.167,3.791
		C238.484,202.291,238.818,199.165,236.901,197.416z"/>
	<path fill="#D1B305" d="M238.984,203.625c0,0-1.584,4.375,0,5.458c0,0,0.834,0.917,2.334,0.667l-0.584-1.5c0,0,2,1.503,3.25,1.543
		c0,0,3,0.539,3.167-0.877l1.833-1.67c0,0-1.288,3.004-1.75,2.647l4.084-1.728l-1.186-0.92l0.436-2.901c0,0-2.001,1.822-2.834,1.905
		l-0.988-1.905c0,0-0.846,2.204-2.262,2.43c0,0-0.92,0.053-1.666-2.43c0,0-1.251,1.788-0.834,2.43l-0.916-3.149
		c0,0-1.667,2.174-1.167,3.149L238.984,203.625z"/>
	<path fill="#FF5B00" d="M250.399,199.874c0,0,1.333,4.045,0,8.545s2.586,4.333,6.293,4.833s13.874,1.833,14.874-5.167
		c0,0-2.333-4.922-0.833-8.211c0,0-3.667,0.712-4.667,4.545c0,0,0.333-3.334-3.667-6.334c0,0-0.955-1.148-1.55-3.086
		c0,0-2.345,2.625-1.657,3.938s-0.312,2.438-1.125,4.125c0,0,0.062-2.188-1.938-3.188c0,0,0.875,2.375-1.312,3.938
		C254.817,203.811,254.606,201.061,250.399,199.874z"/>
	<path fill="#FFE000" d="M253.859,206.208c0,0-1.209,3.042,1.25,4.25l-0.583-1.25c0,0,0.874,1.833,3.541,1.625
		c0,0,3.083,0.376,5.167-1.333c0,0,0.501-0.375,0.959-0.375c0,0-0.459,0.874-0.917,0.916c0,0,1.251,0.375,1.917-2.25
		c0,0,0.041-0.625,0.458-1.75c0,0-2.626,0.001-2.792,1.084s-0.5,1.45-0.833,1.329c0,0,0.251-0.163,0.292-1.871
		c0,0-0.334-0.251-0.292,0.208c0,0,0.249,1.326-0.292,1.663c0,0-0.833,0.379-1.333,0.379c0,0,1.125-2.041,0.125-4.083
		c0,0-0.548-0.958-0.92-1.125c0,0-0.747,1.791-1.955,2.416c0,0-1.46,0.708-0.959,2.375l-1.083-2.5c0,0-0.75,1.459-0.458,2.084
		C255.151,208,254.359,208.458,253.859,206.208z"/>
</g>
<g>
	<path fill="#492D21" d="M217.367,135.256c0,0,14.5-8.501,32,0C249.367,135.256,233.367,143.755,217.367,135.256z"/>
	<path fill="#895D4D" d="M217.367,135.256l5.833,25.668h16.667l9.5-25.668C249.367,135.256,236.534,142.921,217.367,135.256z"/>
	<path fill="#B48454" d="M230.992,135.256c0,0,2.375,1.497,4.625-0.001v-27.873h-4.625V135.256z"/>
	<path fill="#895F25" d="M233.305,107.382h2.312v12.75c0,0-1.188-0.875-1.156-3.875c0,0,0.031-4.5-1.094-4.75
		C233.367,111.507,231.992,110.507,233.305,107.382z"/>
	<path fill="#3A7657" d="M218.867,106.743c0,0-0.125,3.737,2.875,2.67c0,0,1.625,2.669,3.25,1.335c0,0,3.5,1.015,4.75,0.373
		c0,0,2.5,3.733,5.875,0.213c0,0,5.125,0.846,6.75-1.538c0,0,3.625-0.517,3.875-6.256c0,0,4.5,1.084,3.625-3.795
		c0,0,1.375-3.812-2.125-4.747c0,0-0.625-4.805-3.625-3.87c0,0-4-4.672-7.625-0.667c0,0-2.75-3.338-6.625-1.067
		c0,0-3.25-2.938-5.25,1.067c0,0-3.625-2.27-4.875,1.734c0,0-2.875,0.667-2.375,3.87c0,0-1.992,2.02-0.059,3.68
		c0,0-1.441,2.861,0.059,3.528C217.367,103.273,215.992,105.942,218.867,106.743z"/>
	<path fill="#21AF76" d="M220.731,88.915c0,0-4.194,1.264-2.87,4.311c0,0-1.767,0.21-0.772,2.943c0,0-2.317,1.154-0.993,3.993
		c0,0-0.077,4.062,2.114,3.99c0,0,1.749,2.947,3.517,0.845c0,0,1.545,2.983,3.643,0.757c0,0,2.649,2.292,4.525-0.23
		c0,0,1.766,1.261,2.87-0.841c0,0,3.312,0.21,4.085-1.472c0,0,3.2,0.21,3.422-1.683c0,0,3.311-2.284,0.882-3.718
		c0,0,1.33-3.282-1.436-2.741c0,0,0.773-4.05-1.546-3.631c0,0-1.103-2.628-4.524-1.261c0,0-2.98-2.418-3.975-1.264
		c0,0-3.531-1.888-4.305-0.312C225.368,88.602,223.049,85.868,220.731,88.915z"/>
</g>
<g>
	<g>
		<polygon fill="#474747" points="269.169,216.098 269.169,174.23 272.787,170.612 352.84,165.184 352.84,218.101 349.222,221.526 
					"/>
		<polygon fill="#5B5B5B" points="269.169,174.23 272.787,170.612 352.84,165.184 346.734,169.708 		"/>
		<polygon fill="#2D2D2D" points="346.734,169.708 352.84,165.184 352.84,218.101 349.222,221.526 		"/>
		<polygon fill="#5B5B5B" points="292.949,194.844 295.328,193.059 315.548,193.059 314.029,194.844 		"/>
		<polygon fill="#2D2D2D" points="314.029,194.844 315.548,193.059 315.548,206.342 315.548,217.377 314.029,215.791 		"/>
		<polygon fill="#2D2D2D" points="292.949,217.744 292.949,220.615 314.029,222.466 317.002,220.104 317.002,219.375 		"/>
		<polygon fill="#5B5B5B" points="317.002,220.104 317.002,219.375 325.99,219.983 316.341,227.091 281.451,222.862 
			292.949,219.375 292.949,220.615 314.029,222.466 		"/>
		<polygon fill="#2D2D2D" points="281.451,222.862 316.341,227.091 325.99,219.983 325.99,221.606 316.242,228.842 281.451,224.678 
					"/>
	</g>
	<g>
		<polygon fill="#7C6141" points="281.451,224.678 281.451,222.862 292.949,219.375 292.949,217.744 282.51,217.036 254.49,227.091 
			340.658,237.003 367.089,222.466 325.99,219.983 325.99,221.606 316.242,228.842 		"/>
		<polygon fill="#634F39" points="254.49,227.091 340.658,237.003 340.658,265.813 254.49,253.654 		"/>
		<polygon fill="#443424" points="340.658,237.003 367.089,222.466 367.089,246.451 340.658,265.813 		"/>
	</g>
</g>
</svg>
