<?xml version="1.0" encoding="utf-8"?>
<!-- Generator: Adobe Illustrator 16.0.0, SVG Export Plug-In . SVG Version: 6.00 Build 0)  -->
<!DOCTYPE svg PUBLIC "-//W3C//DTD SVG 1.1//EN" "http://www.w3.org/Graphics/SVG/1.1/DTD/svg11.dtd">
<svg version="1.1" id="Layer_1" xmlns="http://www.w3.org/2000/svg" xmlns:xlink="http://www.w3.org/1999/xlink" x="0px" y="0px"
	 width="684px" height="296.64px" viewBox="0 0 684 296.64" enable-background="new 0 0 684 296.64" xml:space="preserve">
<rect x="-114.333" y="-80.333" fill="#BDA98A" width="910.667" height="532.667"/>
<g>
	<polygon fill="#FDCC99" points="191.874,233.259 342.333,280.866 407.706,265.91 385.568,251.984 235.841,232.228 	"/>
	<path fill="#B5614B" d="M177.998,101.226c0,0,13.561-7.965,25.824-6.998l11.059,21.514l10.48,117.517
		c0,0-42.919,3.967-47.363-5.792V101.226z"/>
	<path fill="#BF7765" d="M388.901,23.704c0,0,5.951-8.093,14.282-9.759v251.054c0,0-10.314-2.222-14.282-8.57V23.704z"/>
	<path fill="#B5614B" d="M403.184,13.944c0,0,24.28-9.204,67.127-4.443v260.258c0,0-45.163,3.956-61.572-2.856l-5.555-1.904V13.944z
		"/>
	<path fill="#844636" d="M470.311,9.501c0,0,26.979,2.857,32.692,13.648v232.644c0,0-2.541,10.474-32.692,13.966V9.501z"/>
	<polygon fill="#999936" points="202.119,94.876 388.901,23.704 388.901,44.095 202.119,105.668 	"/>
	<polygon fill="#63632A" points="202.119,105.668 388.901,44.095 388.901,84.403 230.366,130.424 	"/>
	<polygon fill="#B5614B" points="231.081,129.472 388.901,84.403 388.901,130.584 232.033,159.863 	"/>
	<polygon fill="#63632A" points="272.023,152.483 293.923,155.103 339.151,147.723 338.199,140.105 	"/>
	<polygon fill="#999936" points="232.033,159.863 234.889,215.088 273.689,216.278 272.023,152.483 	"/>
	<polygon fill="#C0D8E0" points="235.841,161.053 267.739,157.007 270.357,209.613 238.222,208.423 	"/>
	<polygon fill="#7B7C32" points="272.023,152.483 273.689,216.278 297.732,216.278 294.479,155.103 	"/>
	<polygon fill="#A5C7D2" points="273.689,157.007 292.257,160.577 293.447,211.042 276.784,211.042 	"/>
	<polygon fill="#924E3D" points="273.689,216.278 297.97,216.278 297.97,235.321 274.88,238.654 	"/>
	<polygon fill="#B5614B" points="235.841,232.228 274.88,238.654 273.689,216.278 234.651,215.088 	"/>
	<polygon fill="#999936" points="338.199,140.105 388.901,130.584 388.901,219.849 342.483,218.659 	"/>
	<polygon fill="#C0D8E0" points="344.626,144.628 388.901,135.345 388.901,212.708 347.721,212.708 	"/>
	<polygon fill="#C0D8E0" points="297.97,235.321 343.356,237.702 338.199,147.723 294.479,155.103 	"/>
	<polygon fill="#8BB7C6" points="316.711,151.304 319.49,150.841 325.9,236.591 323.52,236.591 	"/>
	<path fill="#9A6766" d="M315.109,185.174l1.602,17.457c0,0-3.189,0.318-4.141-1.904l-1.428-12.378
		C311.142,188.349,313.205,185.016,315.109,185.174z"/>
	<polygon fill="#9A6766" points="325.106,185.81 330.661,185.169 330.661,201.044 326.694,201.044 	"/>
	<polygon fill="#CFCECE" points="278.133,238.654 297.97,235.321 343.197,236.988 343.197,249.128 	"/>
	<polygon fill="#B5614B" points="342.483,218.659 388.901,219.849 388.901,256.428 343.197,249.128 	"/>
	<polygon fill="#844636" points="214.88,115.742 231.081,129.472 235.841,232.228 225.36,233.259 	"/>
</g>
</svg>
