<?xml version="1.0" encoding="utf-8"?>
<!-- Generator: Adobe Illustrator 16.0.0, SVG Export Plug-In . SVG Version: 6.00 Build 0)  -->
<!DOCTYPE svg PUBLIC "-//W3C//DTD SVG 1.1//EN" "http://www.w3.org/Graphics/SVG/1.1/DTD/svg11.dtd">
<svg version="1.1" id="Layer_1" xmlns="http://www.w3.org/2000/svg" xmlns:xlink="http://www.w3.org/1999/xlink" x="0px" y="0px"
	 width="684px" height="296.64px" viewBox="0 0 684 296.64" enable-background="new 0 0 684 296.64" xml:space="preserve">
<rect y="-0.125" fill="#ADC4B9" width="684" height="296.64"/>
<rect x="111" y="31" fill="#D1D2D1" width="387.333" height="2.333"/>
<rect x="111" y="33" fill="#A5A4A4" width="387.333" height="2.333"/>
<polygon fill="#D1D2D1" points="111,35.334 115.499,35.334 125.499,234.5 121,234.5 "/>
<polygon fill="#D1D2D1" points="493.499,35.334 498.333,35.334 488.333,234.5 483.499,234.5 "/>
<g>
	<polygon fill="#70A089" stroke="#694E32" stroke-width="5" stroke-miterlimit="10" points="148,56.8 472.8,62.4 456.8,231.2 
		165,231.2 	"/>
	<linearGradient id="SVGID_1_" gradientUnits="userSpaceOnUse" x1="309.8066" y1="137.8296" x2="310.4736" y2="213.8296">
		<stop  offset="0" style="stop-color:#2D6354"/>
		<stop  offset="1" style="stop-color:#6B9985"/>
	</linearGradient>
	<polygon fill="url(#SVGID_1_)" points="160,154.5 167.667,228.334 454.334,228.666 460.001,165.333 444.334,164 447.001,132 
		423.668,132 421.001,162.666 409.5,162 409.5,144 391,138 389.5,122 374,122 371,148.32 354.5,148.32 353.5,122 325,122 322.5,144 
		305.5,144 305,128.5 291.5,128 291,144 283.333,144 283.333,110 274.667,110 272.333,144 262.667,144 262.667,129 253.333,129 
		253.333,136 242.333,136 241.667,125 223.667,125 223.333,141.667 215.333,141.667 215,126.667 199,126 199.333,115 
		190.333,114.667 188.667,125.333 179.333,125.333 179.333,137.333 170.333,138.333 170.333,154 	"/>
	<linearGradient id="SVGID_2_" gradientUnits="userSpaceOnUse" x1="309.2285" y1="163.5352" x2="309.7094" y2="218.3284">
		<stop  offset="0" style="stop-color:#2D6354"/>
		<stop  offset="1" style="stop-color:#6B9985"/>
	</linearGradient>
	<polygon fill="url(#SVGID_2_)" points="160,169.333 186.333,169.333 191,153.667 215.667,153.667 215.667,164.334 223.667,164.334 
		223.667,144 233.667,144 233.667,176.334 242.333,176.334 242.333,165 253.667,165 253.667,185.667 263.667,185.667 263.667,153 
		275.667,153 275.667,169.333 297.667,169.333 297.667,181.667 305.667,182.334 305.667,164.834 324.333,164.834 324.333,189.667 
		337,189.667 337,158.334 357.666,159 357.666,176.334 395.666,179 395.666,193.667 416.333,193.667 416.333,168.834 
		438.333,169.333 441.666,181.667 458.656,180.363 454.334,228.666 167.667,228.334 	"/>
	<polygon fill="#7BA892" points="198.335,228.369 209.002,191.999 270.669,191.999 262.002,228.369 	"/>
	<polygon fill="#3E4C46" points="262.002,228.369 270.669,191.999 270.669,228.369 	"/>
	<polygon fill="#7BA892" points="307.669,228.369 324.002,192.999 404.875,192.999 414.336,228.369 	"/>
	<rect x="162.75" y="233.688" fill="#492D21" width="296.297" height="5.812"/>
</g>
<path fill="#ADC4B9" d="M337,99c0,0-1-20.333,13.333-20.333c0,0,13.614-7.667,20.474-1.333c0,0,20.545-13.333,32.369,0
	c0,0,14.585,0.667,8.871,10c0,0,10.058,0,8.506,7.333c0,0,11.36-3.667,14.904,4.333c0,0,25.117,1.667,11.497,7.667
	c0,0-13.868,6-23.744,0c0,0-13.21,4.333-21.543,0.667c0,0-17.332,10.667-22.666,2.667c0,0-12.39,10.666-19.028,1.333
	c0,0-18.309,6.334-17.974-5.333C342,106,332.666,109.333,337,99z"/>
<g>
	<polygon fill="#F7F7F7" points="493.001,33 473.833,33 462.5,245.282 483.166,252.607 	"/>
	<polygon fill="#F7F7F7" points="472.001,33 452.833,33 441.5,245.282 460.5,252.017 	"/>
	<polygon fill="#F7F7F7" points="451.001,33 431.833,33 420.5,245.282 439.5,252.017 	"/>
	<polygon fill="#F7F7F7" points="427.001,33 407.833,33 396.5,245.282 415.5,252.017 	"/>
</g>
<g>
	<path fill="#492D21" d="M435.458,229.724c0,0,14.5-8.501,32,0C467.458,229.724,451.458,238.223,435.458,229.724z"/>
	<path fill="#895D4D" d="M435.458,229.724l5.833,25.668h16.667l9.5-25.668C467.458,229.724,454.625,237.389,435.458,229.724z"/>
	<path fill="#B48454" d="M449.083,229.724c0,0,2.375,1.497,4.625-0.001V201.85h-4.625V229.724z"/>
	<path fill="#895F25" d="M451.396,201.85h2.312v12.75c0,0-1.188-0.875-1.156-3.875c0,0,0.031-4.5-1.094-4.75
		C451.458,205.975,450.083,204.975,451.396,201.85z"/>
	<path fill="#3A7657" d="M436.958,201.212c0,0-0.125,3.737,2.875,2.67c0,0,1.625,2.669,3.25,1.335c0,0,3.5,1.014,4.75,0.373
		c0,0,2.5,3.733,5.875,0.212c0,0,5.125,0.846,6.75-1.538c0,0,3.625-0.516,3.875-6.255c0,0,4.5,1.084,3.625-3.795
		c0,0,1.375-3.812-2.125-4.747c0,0-0.625-4.805-3.625-3.871c0,0-4-4.671-7.625-0.667c0,0-2.75-3.337-6.625-1.067
		c0,0-3.25-2.937-5.25,1.067c0,0-3.625-2.269-4.875,1.735c0,0-2.875,0.667-2.375,3.87c0,0-1.992,2.019-0.059,3.68
		c0,0-1.441,2.861,0.059,3.528C435.458,197.742,434.083,200.411,436.958,201.212z"/>
	<path fill="#21AF76" d="M438.822,183.384c0,0-4.194,1.263-2.87,4.31c0,0-1.766,0.21-0.772,2.943c0,0-2.318,1.155-0.993,3.994
		c0,0-0.078,4.062,2.114,3.99c0,0,1.749,2.947,3.516,0.845c0,0,1.545,2.983,3.643,0.756c0,0,2.649,2.292,4.525-0.23
		c0,0,1.766,1.261,2.87-0.841c0,0,3.312,0.21,4.085-1.472c0,0,3.201,0.21,3.422-1.682c0,0,3.311-2.284,0.882-3.718
		c0,0,1.33-3.282-1.435-2.741c0,0,0.773-4.05-1.546-3.631c0,0-1.103-2.628-4.525-1.261c0,0-2.98-2.418-3.974-1.263
		c0,0-3.532-1.888-4.305-0.312C443.459,183.071,441.141,180.337,438.822,183.384z"/>
</g>
<g>
	<g>
		<rect x="399.414" y="220.942" fill="#9A5DA0" width="30.892" height="44.782"/>
		<polygon fill="#BD88BC" points="399.414,265.725 393.195,257.639 393.195,211.51 419.732,211.51 430.306,220.942 399.414,220.942 
					"/>
		<rect x="399.414" y="233.484" fill="#655369" width="30.892" height="1.037"/>
		<rect x="399.414" y="249.656" fill="#655369" width="30.892" height="1.036"/>
		<polygon fill="#CDA3CB" points="393.195,211.51 399.414,220.942 430.306,220.942 419.732,211.51 		"/>
		<rect x="410.613" y="234.521" fill="#655369" width="7.98" height="3.214"/>
		<rect x="410.613" y="250.692" fill="#655369" width="7.98" height="3.214"/>
	</g>
	<ellipse fill="#FBFAFC" cx="414.411" cy="222.636" rx="0.615" ry="0.622"/>
</g>
<g>
	<polygon fill="#CED6DD" points="201.84,213.914 397.178,213.914 397.118,218.064 201.84,218.064 	"/>
	<g>
		<polygon fill="#E4ECF5" points="220.405,198.531 201.84,213.914 397.178,213.914 384.263,198.531 		"/>
		<polygon fill="#CED6DD" points="224.06,218.064 228.457,218.064 231.387,283.992 226.99,283.992 		"/>
		<polygon fill="#939DA5" points="231.387,283.992 245.547,269.342 245.547,218.064 228.089,218.064 		"/>
		<polygon fill="#CED6DD" points="369.587,218.064 374.958,218.064 372.027,283.992 366.657,283.992 		"/>
		<polygon fill="#939DA5" points="366.657,283.992 356.891,270.807 356.891,218.064 369.954,218.064 		"/>
		<polygon fill="#E4ECF5" points="228.089,218.064 369.954,218.064 367.341,270.317 230.562,265.447 		"/>
		<polygon fill="#3D4043" points="229.432,165.568 229.432,193.037 267.645,201.828 273.138,157.145 		"/>
		<path fill="#3D4043" d="M237.928,194.992l7.037,1.619v5.766h6.748c0,0,5.311,2.564,1.374,4.672c0,0-23.531,2.105-16.848-4.121
			c0,0,0.916-0.732,1.465-0.641L237.928,194.992z"/>
		<polygon fill="#595D61" points="273.138,157.145 270.443,157.665 264.897,200.729 267.645,201.828 		"/>
		<polygon fill="#595D61" points="270.575,207.391 309.031,207.391 304.636,201.828 275.336,201.828 		"/>
		<rect x="270.575" y="207.391" fill="#3D4043" width="38.457" height="1.885"/>
		<polygon fill="#3D4043" points="340.624,195.455 343.623,195.455 343.623,200.063 351.454,200.063 351.454,195.455 
			354.447,195.455 359.974,212.73 356.979,212.73 355.831,210.738 339.702,210.738 338.782,212.73 335.561,212.73 		"/>
		<polygon fill="#3C3E3F" points="338.095,195.455 357.21,195.455 357.21,197.76 364.122,197.76 362.047,193.152 357.899,191.137 
			337.113,191.137 333.81,193.152 331.702,197.76 337.924,197.76 		"/>
	</g>
</g>
<path fill="#ADC4B9" d="M155.667,114.667L160,154.5l10.333-0.5v-15.667l9-1v-12h9.333l1.667-10.667l9,0.333L199,126l16,0.667
	l0.333,15h8L223.667,125h18c0,0,18.236-2.333,9.618-13.333s0.821-27-19.898-23c0,0-21.788-12.667-26.754-3.333
	c0,0-13.782-9.333-21.541,3.667c0,0-15.159-13-18.459-2c0,0-10.179-3.012-11.3,5L155.667,114.667z"/>
<g>
	<polygon fill="#F7F7F7" points="115.499,33 134.667,33 146,245.855 125.333,253.2 	"/>
	<polygon fill="#F7F7F7" points="136.499,33 155.667,33 167,245.855 148,252.607 	"/>
	<polygon fill="#F7F7F7" points="157.499,33 176.667,33 188,245.855 169,252.607 	"/>
	<polygon fill="#F7F7F7" points="181.499,33 200.667,33 212,245.855 193,252.607 	"/>
</g>
<g>
	<path fill="#CED6DD" d="M164.633,234.318c0,0,17.417,12.857,33.731,0l-3.87,34.564c0,0-14.929,7.189-25.577-1.105L164.633,234.318z
		"/>
	<path fill="#939DA5" d="M164.633,234.318c0,0,16.588,12.857,33.731,0C198.365,234.318,180.672,217.728,164.633,234.318z"/>
	<path fill="#E4ECF5" d="M164.633,234.318c0,0,15.619,12.857,33.731,0l-0.32,2.856c0,0-16.712,12.915-33.045,0L164.633,234.318z"/>
	<path fill="#BAC1C6" d="M194.495,268.883c0,0-13.825,7.154-25.577-1.105l-0.329-2.573c0,0,13.25,8.278,26.319,0L194.495,268.883z"
		/>
	<path fill="#BAC1C6" d="M184.559,242.639c0,0,3.721-0.32,8.572-2.605l-1.519,26.92c0,0-4.131,1.781-7.054,1.528V242.639z"/>
	<path fill="#B797B7" d="M166.603,235.564c0,0,5.171,2.995,6.94,3.053c0,0,2.689-2.537,0-4.299s-4.939-2.076-4.956-0.831
		C168.571,234.735,165.766,232.212,166.603,235.564z"/>
	<path fill="#FFFFFF" d="M184.559,239.859c0,0-5.838,0.671-11.016-1.242c0,0-2.689-2.95,2.391-3.469c0,0,3.197-2.366,4.337-0.656
		c0,0,2.318-0.518,2.715,1.02c0,0,1.814-1.452,2.246,0.449C185.232,235.961,187.413,238.142,184.559,239.859z"/>
	<path fill="#76A58C" d="M193.131,237.391c0,0-4.752,2.063-8.572,2.469c0,0-3.3-1.721,0-4.184c0,0,0.19-3.082,2.816-1.805
		c0,0,3.803-1.764,3.94,1.001C191.315,234.872,194.116,233.895,193.131,237.391z"/>
</g>
<g>
	<rect x="406.557" y="200.686" fill="#509350" width="16.654" height="19.698"/>
	<polygon fill="#75AA75" points="406.557,200.686 423.211,200.686 414.794,183.315 400.289,183.315 	"/>
	<polygon fill="#416C40" points="400.289,183.315 400.289,215.012 406.557,220.384 406.557,200.686 	"/>
	<rect x="414.197" y="200.686" fill="#416C40" width="0.687" height="19.698"/>
	<polygon fill="#416C40" points="414.197,200.686 414.884,200.686 407.809,183.315 407.271,183.315 	"/>
	<rect x="408.05" y="205.224" fill="#FFFFFF" width="5.014" height="10.862"/>
	<rect x="415.989" y="205.104" fill="#FFFFFF" width="5.014" height="10.865"/>
	<polygon fill="#C6695A" points="404.686,195.501 404.686,187.135 406.557,187.135 406.557,200.686 	"/>
	<polygon fill="#883E39" points="404.686,187.135 404.686,195.501 401.668,187.135 	"/>
	<polygon fill="#FCE7E6" points="406.557,187.135 410.557,187.135 412.048,187.135 410.557,200.686 406.557,200.686 	"/>
	<polygon fill="#883E39" points="411.75,189.844 414.54,189.844 417.63,200.686 414.884,200.686 411.478,192.322 	"/>
	<polygon fill="#C6695A" points="414.54,189.844 417.63,200.686 415.989,200.686 413.182,189.844 	"/>
	<polygon fill="#687F58" points="409.365,187.135 408.187,184.242 416.048,183.971 420.554,200.686 417.63,200.686 414.54,189.844 
		411.749,189.844 411.989,187.253 	"/>
	<polygon fill="#789B5F" points="414.056,184.037 416.048,183.971 420.554,200.686 418.371,200.686 	"/>
</g>
</svg>
