<?xml version="1.0" encoding="utf-8"?>
<!-- Generator: Adobe Illustrator 16.0.0, SVG Export Plug-In . SVG Version: 6.00 Build 0)  -->
<!DOCTYPE svg PUBLIC "-//W3C//DTD SVG 1.1//EN" "http://www.w3.org/Graphics/SVG/1.1/DTD/svg11.dtd">
<svg version="1.1" id="Layer_1" xmlns="http://www.w3.org/2000/svg" xmlns:xlink="http://www.w3.org/1999/xlink" x="0px" y="0px"
	 width="684px" height="296.64px" viewBox="0 0 684 296.64" enable-background="new 0 0 684 296.64" xml:space="preserve">
<rect x="-80.999" y="-93" fill="#A7C5C5" width="846" height="495.333"/>
<g>
	<g id="ovan">
		<polygon fill="#B2ADA8" points="526.421,117.697 624.442,117.697 621.481,265.767 530.567,265.767 		"/>
		<polygon fill="#68635E" points="535.01,117.697 537.971,107.037 615.263,107.037 618.224,117.697 		"/>
		<path fill="#68635E" d="M539.33,134.803c0,0,0.741-3.35,4.908-3.191l64.065-0.149c0,0,3.928-0.341,4.419,3.341v48.109
			c0,0-0.246,2.946-4.665,3.437h-63.082c0,0-2.455,0.491-4.418-3.19L539.33,134.803z"/>
		<path fill="#423E38" d="M543.412,137.484c0,0,0.423-2.977,4.363-2.836l56.938-0.133c0,0,3.49-0.304,3.928,2.969v42.759
			c0,0-0.219,2.617-4.146,3.054H548.43c0,0-2.182,0.437-3.927-2.836L543.412,137.484z"/>
		<rect x="532.286" y="137.484" fill="#B2ADA8" width="83.335" height="4.581"/>
		<circle fill="#7C7772" cx="560.864" cy="123.74" r="3.927"/>
		<circle fill="#7C7772" cx="575.917" cy="123.74" r="3.927"/>
		<circle fill="#7C7772" cx="590.97" cy="123.74" r="3.927"/>
		<path fill="#68635E" d="M539.33,204.831c0,0-0.227-3.35,4.908-3.192l64.065-0.149c0,0,3.928-0.341,4.419,3.342v48.109
			c0,0-0.246,2.945-4.665,3.437h-63.082c0,0-2.455,0.49-4.418-3.191L539.33,204.831z"/>
		<path fill="#423E38" d="M543.412,207.513c0,0-0.191-2.864,4.363-2.837l56.938-0.133c0,0,3.49-0.303,3.928,2.97v42.758
			c0,0-0.219,2.618-4.146,3.055H548.43c0,0-2.182,0.436-3.927-2.837L543.412,207.513z"/>
		<rect x="532.286" y="207.513" fill="#B2ADA8" width="83.335" height="4.581"/>
		<circle fill="#7C7772" cx="560.864" cy="193.769" r="3.927"/>
		<circle fill="#7C7772" cx="575.917" cy="193.769" r="3.927"/>
		<circle fill="#7C7772" cx="590.97" cy="193.769" r="3.927"/>
		<rect x="539.33" y="265.767" fill="#B2ADA8" width="10.19" height="4.791"/>
		<rect x="606.677" y="265.767" fill="#B2ADA8" width="8.944" height="4.791"/>
	</g>
	<g>
		<g id="table">
			<polygon fill="#959595" points="170.41,290.358 193.996,290.358 193.996,280.021 468.148,280.021 468.148,290.358 
				494.813,290.358 496.863,216.468 496.863,206.128 490.368,201.872 168.7,201.872 165.282,204.609 			"/>
			<rect x="161.522" y="209.169" fill="#B9B8B9" width="340.127" height="6.689"/>
			<polygon fill="#BBBBBB" points="319.365,215.632 320.233,239.958 324.47,237.306 323.709,215.632 			"/>
			<path fill="#CBCBCA" d="M336.371,240.489c0,0,4.273-22.197-2.222-31.928l-12.477-1.217c0,0-1.539,1.217-1.624,2.053
				c0,0,2.137-0.456,2.82,3.649c0,0,2.905,20.372,0.513,31.016c0,0,0.342,1.673,2.991-3.269l3.76-0.229c0,0,0.854-0.229,1.282-1.673
				l1.282-0.075c0,0,0.854,3.117,1.88,4.257l1.111-0.076C335.688,242.998,336.018,242.616,336.371,240.489z"/>
			<polygon fill="#BBBBBB" points="459.518,215.858 460.389,239.958 464.642,237.331 463.879,215.858 			"/>
			<path fill="#CBCBCA" d="M476.523,240.489c0,0,4.273-22.197-2.221-31.928l-12.477-1.217c0,0-1.539,1.217-1.625,2.053
				c0,0,2.136-0.456,2.82,3.649c0,0,2.905,20.372,0.512,31.016c0,0,0.343,1.673,2.993-3.269l3.76-0.229c0,0,0.854-0.229,1.281-1.673
				l1.281-0.075c0,0,0.854,3.117,1.88,4.257l1.112-0.076C475.841,242.998,476.17,242.616,476.523,240.489z"/>
			<rect x="204.708" y="221.333" fill="#707171" width="101.639" height="52.909"/>
			
				<rect x="209.379" y="225.84" fill="none" stroke="#424342" stroke-width="4" stroke-miterlimit="10" width="92.296" height="44.753"/>
			<rect x="244.133" y="229.645" fill="#616262" width="20.738" height="2.636"/>
			<rect x="353.063" y="221.333" fill="#707171" width="101.642" height="52.909"/>
			
				<rect x="357.736" y="225.84" fill="none" stroke="#424342" stroke-width="4" stroke-miterlimit="10" width="92.295" height="44.753"/>
			<rect x="392.49" y="229.645" fill="#616262" width="20.737" height="2.636"/>
		</g>
		<rect x="193.028" y="198.021" fill="#4F504F" width="131.266" height="3.852"/>
		<rect x="339.333" y="198.021" fill="#4F504F" width="131.267" height="3.852"/>
		<g>
			<path fill="#CFCECE" d="M207.214,184.235h27.916v10.44c0,0-0.591,3.345-4.731,3.345h-18.808c0,0-3.431,0.001-3.786-3.953
				L207.214,184.235z"/>
			<path fill="#B2B2B2" d="M208.978,184.235h24.558v10.44c0,0-0.521,3.345-4.163,3.345h-16.545c0,0-3.019,0.001-3.33-3.953
				L208.978,184.235z"/>
			<path fill="#9C9C9C" d="M210.348,184.251h4.842l1.652,9.391c0,0,0.171,3.576,7.293,3.826c0,0-9.515,1.54-10.313-3.628
				L210.348,184.251z"/>
			<polygon fill="#4F504F" points="235.13,185.147 264.585,185.147 264.585,187.731 241.683,187.731 240.571,188.797 
				235.13,188.797 			"/>
		</g>
		<path fill="#CFCECE" d="M273.003,178.459h37.589v14.584c0,0-0.796,4.673-6.371,4.673h-25.324c0,0-4.619,0-5.098-5.522
			L273.003,178.459z"/>
		<path fill="#B2B2B2" d="M275.378,178.459h33.066v14.584c0,0-0.701,4.673-5.605,4.673h-22.278c0,0-4.063,0-4.484-5.522
			L275.378,178.459z"/>
		<path fill="#9C9C9C" d="M277.222,178.481h6.521l2.225,13.116c0,0,0.23,4.999,9.82,5.345c0,0-12.812,2.153-13.886-5.065
			L277.222,178.481z"/>
		<path fill="#B7B7B8" d="M271.679,176.633h39.568c0,0,1.88,0.989,0,1.826l-39.568,0.022
			C271.679,178.481,270.055,177.546,271.679,176.633z"/>
		<polygon fill="#A2A2A2" points="273.729,176.633 288.685,174.201 296.376,174.201 310.221,176.633 		"/>
		<polygon fill="#575757" points="310.592,180.435 317.998,180.435 317.998,182.183 310.592,184.235 		"/>
		<polygon fill="#575757" points="265.953,181.043 273.003,181.043 273.338,184.235 265.953,182.335 		"/>
		<path fill="#575757" d="M289.368,174.201v-1.318c0,0-1.367-1.114,0-2.128h4.33c0,0,1.71,1.014,0,1.723l0.114,1.724H289.368z"/>
		<g>
			<path fill="#CFCECE" d="M358.462,164.015h37.589v25.523c0,0-0.796,8.178-6.37,8.178h-25.325c0,0-4.619,0-5.098-9.665
				L358.462,164.015z"/>
			<path fill="#B2B2B2" d="M360.839,164.015h33.064v25.523c0,0-0.701,8.178-5.605,8.178h-22.276c0,0-4.063,0-4.483-9.665
				L360.839,164.015z"/>
			<path fill="#9C9C9C" d="M362.682,164.053h6.52l2.226,22.956c0,0,2.281,9.964,11.871,10.571c0,0-14.863,2.55-15.937-10.084
				L362.682,164.053z"/>
			<polygon fill="#575757" points="396.051,165.839 403.457,165.839 403.457,167.587 396.051,169.64 			"/>
			<polygon fill="#575757" points="351.412,166.446 358.462,166.446 358.797,169.64 351.412,167.74 			"/>
			<path fill="#878383" d="M390.297,164.015l4.356-11.023c0,0,2.196-2.356,1.397,3.649l2.107,0.076c0,0,0.854-6.69-3.247-7.374
				h-1.794c0,0-5.984,13.456-6.154,14.672H390.297z"/>
		</g>
		<g>
			<polygon fill="#7A7A7A" points="456.101,195.79 451.402,195.477 452.606,192.496 456.101,192.496 			"/>
			<path fill="#333333" d="M410.893,191.381h41.874c0,0-0.171,4.305-3.761,6.41l-34.183,0.229
				C414.823,198.021,411.063,197.008,410.893,191.381z"/>
			<rect x="456.101" y="192.496" fill="#4F504F" width="23.272" height="1.824"/>
		</g>
	</g>
	<g id="box">
		<polygon fill="#817C77" points="33.748,85.779 40.393,78.336 132.102,74.614 141.938,85.779 		"/>
		<path fill="#CAC5C0" d="M33.748,85.779c0,0-7.949-1.662-7.709,5.316l7.709,193.521l109.785,2.854l3.19-201.692H33.748z"/>
		<path fill="#C2BDB8" d="M46.241,85.779l10.633,17.677l41.203,92.031l42,91.785l-106.729-2.391L25.905,88.703
			c0,0,0.332-2.808,3.838-2.675L46.241,85.779z"/>
		<polygon fill="#B5AFAA" points="38.931,103.457 150.445,103.457 148.583,185.863 40.925,185.863 		"/>
		<polygon fill="#CCC7C2" points="66.444,107.444 66.444,108.507 140.21,110.899 138.881,179.614 129.843,181.343 142.469,181.343 
			146.723,107.444 		"/>
		<polygon fill="#96928D" points="38.931,103.457 34.678,105.849 36.804,187.856 144.995,187.856 148.583,185.863 40.925,185.863 		
			"/>
		<polygon fill="#B5AFAA" points="44.771,195.487 149.115,195.487 147.374,272.594 46.637,272.594 		"/>
		<polygon fill="#CCC7C2" points="70.516,199.217 70.516,200.214 139.54,202.452 138.295,266.747 129.838,268.366 141.652,268.366 
			145.633,199.217 		"/>
		<polygon fill="#96928D" points="44.771,195.487 40.792,197.726 42.782,274.46 144.017,274.46 147.374,272.594 46.637,272.594 		
			"/>
		<path fill="#B2ADA8" d="M26.033,87.507c0,0-2.387,0.532-2.387,7.044l5.316,192.92h114.571l-110.224-3.647L26.033,87.507z"/>
	</g>
	<g>
		<g>
			<path fill="#5B5B5C" d="M436.562,125.706c0,0-2.949,42.84-3.415,45.478c0,0,5.122,1.397,8.848-3.725l2.328-37.407
				C444.322,130.052,442.771,125.861,436.562,125.706z"/>
			<polygon fill="#7A7A7A" points="437.914,125.813 437.914,122.343 441.735,122.343 441.356,126.917 			"/>
			<polygon fill="#4F504F" points="437.914,122.343 439.824,95.957 441.735,95.957 440.907,122.343 			"/>
		</g>
		<g>
			<path fill="#3F4040" d="M463.042,176.616l-1.552-50.91c0,0,9.157,0.155,9.934,4.036l1.241,41.616
				C472.665,171.358,470.647,177.237,463.042,176.616z"/>
			<path fill="#7A7A7A" d="M463.348,125.83v-3.229h3.729l0.405,4.009C467.482,126.61,463.855,125.878,463.348,125.83z"/>
			<polygon fill="#4F504F" points="463.348,122.602 462.421,97.069 464.438,96.525 465.415,122.602 			"/>
		</g>
		<g>
			<path fill="#3F4040" d="M491.602,182.204l-1.552-57.739c0,0,9.157,0.155,9.934,4.035l1.241,48.446
				C501.225,176.946,499.207,182.825,491.602,182.204z"/>
			<path fill="#7A7A7A" d="M491.907,124.589v-3.229h3.729l0.404,4.009C496.041,125.369,492.414,124.636,491.907,124.589z"/>
			<polygon fill="#4F504F" points="491.907,121.36 490.98,95.827 492.998,95.284 493.975,121.36 			"/>
		</g>
		<g>
			<path fill="#3F4040" d="M505.881,182.204l-1.552-57.739c0,0,9.157,0.155,9.934,4.035l1.242,48.446
				C515.505,176.946,513.486,182.825,505.881,182.204z"/>
			<path fill="#7A7A7A" d="M506.187,124.589v-3.229h3.73l0.404,4.009C510.321,125.369,506.694,124.636,506.187,124.589z"/>
			<polygon fill="#4F504F" points="506.187,121.36 505.261,95.827 507.278,95.284 508.254,121.36 			"/>
		</g>
		<g>
			<path fill="#3F4040" d="M447.047,175.221l0.119-50.934c0,0,9.147,0.456,9.796,4.359l-0.125,41.635
				C456.837,170.281,454.627,176.091,447.047,175.221z"/>
			<path fill="#7A7A7A" d="M449.019,124.473l0.106-3.228l3.728,0.122l0.272,4.021C453.125,125.388,449.524,124.536,449.019,124.473z
				"/>
			<polygon fill="#4F504F" points="449.125,121.245 449.037,95.695 451.071,95.219 451.191,121.313 			"/>
		</g>
	</g>
	<g>
		<path fill="#D0D0D0" d="M148.954,126.688h14.388c0,0,2.354-0.32,1.926,5.243l0.052,21.292c0,0-6.679,2.675-16.366,2.889V126.688z"
			/>
		<path fill="#B2B2B2" d="M148.954,128.398h14.388c0,0,2.354-0.281,1.926,4.595l0.052,18.661c0,0-6.679,2.345-16.366,2.531V128.398z
			"/>
		<polygon fill="#959595" points="148.954,147.338 161.897,145.519 165.281,138.029 163.983,146.535 148.954,151.457 		"/>
		<polygon fill="#7A7A7A" points="150.956,126.684 150.956,120.937 154.086,120.937 154.487,123.264 154.969,126.684 		"/>
		<polygon fill="#4F504F" points="151.438,120.937 151.919,97.102 153.283,97.102 154.086,120.937 		"/>
		<path fill="#D0D0D0" d="M169.498,126.688h14.388c0,0,2.354-0.336,1.926,5.491l0.052,22.298c0,0-6.679,2.802-16.366,3.026V126.688z
			"/>
		<path fill="#B2B2B2" d="M169.498,128.479h14.388c0,0,2.354-0.295,1.926,4.813l0.052,19.542c0,0-6.679,2.455-16.366,2.651V128.479z
			"/>
		<polygon fill="#959595" points="169.498,148.314 182.44,146.409 185.825,138.565 184.527,147.474 169.498,152.628 		"/>
		<polygon fill="#7A7A7A" points="171.5,126.684 171.5,120.937 174.629,120.937 175.031,123.264 175.512,126.684 		"/>
		<polygon fill="#4F504F" points="171.981,120.937 172.463,97.102 173.827,97.102 174.629,120.937 		"/>
		<path fill="#D0D0D0" d="M188.757,126.688h14.388c0,0,2.354-0.37,1.926,6.044l0.052,24.544c0,0-6.679,3.084-16.366,3.33V126.688z"
			/>
		<path fill="#B2B2B2" d="M188.757,128.661h14.388c0,0,2.354-0.324,1.926,5.295l0.052,21.511c0,0-6.679,2.702-16.366,2.919V128.661z
			"/>
		<polygon fill="#959595" points="188.757,150.492 201.7,148.395 205.084,139.762 203.787,149.567 188.757,155.24 		"/>
		<polygon fill="#7A7A7A" points="190.76,126.684 190.76,120.937 193.889,120.937 194.291,123.264 194.772,126.684 		"/>
		<polygon fill="#4F504F" points="191.241,120.937 191.723,94.374 193.087,94.374 193.889,120.937 		"/>
		<path fill="#D0D0D0" d="M212.474,127.593l15.057-1.583c0,0,2.425-0.627,2.647,5.799l2.621,24.403c0,0-6.667,3.802-16.779,5.112
			L212.474,127.593z"/>
		<path fill="#B2B2B2" d="M212.68,129.554l15.057-1.582c0,0,2.429-0.582,2.57,5.055l2.303,21.388c0,0-6.707,3.422-16.821,4.703
			L212.68,129.554z"/>
		<polygon fill="#959595" points="214.963,151.267 228.289,147.757 230.928,138.798 230.596,148.692 215.459,155.988 		"/>
		<polygon fill="#7A7A7A" points="214.569,127.368 213.968,121.652 217.244,121.308 217.907,123.578 218.769,126.927 		"/>
		<polygon fill="#4F504F" points="214.472,121.6 212.198,95.129 213.626,94.979 217.244,121.308 		"/>
	</g>
	<g>
		<g>
			<rect x="74.915" y="210.833" fill="#8D8E8D" width="86.607" height="6.55"/>
			<polygon fill="#7F8080" points="74.915,217.383 81.174,217.383 81.174,291.472 77.39,291.472 			"/>
			<polygon fill="#7F8080" points="155.262,217.383 161.522,217.383 161.522,291.472 157.738,291.472 			"/>
			<polygon fill="#7F8080" points="85.832,217.383 90.635,217.383 88.234,288.707 85.832,288.707 			"/>
			<polygon fill="#7F8080" points="150.459,217.383 145.657,217.383 148.058,288.707 150.459,288.707 			"/>
			<rect x="81.174" y="249.114" fill="#8D8E8D" width="75.357" height="5.829"/>
		</g>
		<g>
			<path fill="#CFCECE" d="M86.776,192.932h30.158v13.857c0,0-0.639,4.439-5.111,4.439H91.504c0,0-3.706,0.001-4.09-5.246
				L86.776,192.932z"/>
			<path fill="#B2B2B2" d="M88.682,192.932h26.53v13.857c0,0-0.563,4.439-4.497,4.439H92.841c0,0-3.261,0.001-3.598-5.246
				L88.682,192.932z"/>
			<path fill="#9C9C9C" d="M90.161,192.953h5.232l1.785,12.463c0,0,0.185,4.749,7.879,5.079c0,0-10.279,2.045-11.141-4.813
				L90.161,192.953z"/>
			<polygon fill="#575757" points="116.935,194.809 122.876,194.809 122.876,196.471 116.935,198.42 			"/>
			<polygon fill="#575757" points="81.12,195.387 86.776,195.387 87.045,198.42 81.12,196.615 			"/>
		</g>
		<g>
			<path fill="#B2B3B3" d="M123.641,199.37h27.729c0,0,2.401,10.044-8.188,11.463l-13.319-0.053
				C129.863,210.78,123.75,208.649,123.641,199.37z"/>
			<path fill="#AAA8A8" d="M127.461,199.588h-2.401c0,0,0.654,9.717,6.877,11.245l5.337-0.126
				C137.274,210.707,129.536,208.867,127.461,199.588z"/>
			<path fill="#969696" d="M127.461,199.588h4.039c0,0,2.402,8.52,7.97,11.192C139.47,210.78,128.99,211.925,127.461,199.588z"/>
			<path fill="#EDEFF0" d="M143.946,210.833c0,0,8.733-0.765,7.424-11.245h2.074C153.444,199.588,154.839,212.36,143.946,210.833z"
				/>
			<path fill="#9D7C51" d="M142.636,199.297l12.626-9.57c0,0,0.292-1.564-1.346-1.236l-12.809,10.807H142.636z"/>
		</g>
		<g>
			<path fill="#B2B3B3" d="M128.602,236.545h12.729c0,0,1.103,5.435-3.759,6.203l-6.113-0.029
				C131.458,242.719,128.652,241.566,128.602,236.545z"/>
			<path fill="#AAA8A8" d="M130.356,236.663h-1.103c0,0,0.301,5.257,3.157,6.085l2.449-0.068
				C134.86,242.68,131.308,241.684,130.356,236.663z"/>
			<path fill="#969696" d="M130.356,236.663h1.854c0,0,1.103,4.609,3.658,6.056C135.868,242.719,131.057,243.338,130.356,236.663z"
				/>
			<path fill="#EDEFF0" d="M137.922,242.748c0,0,4.009-0.414,3.408-6.085h0.952C142.283,236.663,142.923,243.574,137.922,242.748z"
				/>
		</g>
		<g>
			<path fill="#B2B3B3" d="M128.602,239.602h12.729c0,0,1.103,5.435-3.759,6.203l-6.113-0.029
				C131.458,245.775,128.652,244.623,128.602,239.602z"/>
			<path fill="#AAA8A8" d="M130.356,239.72h-1.103c0,0,0.301,5.257,3.157,6.085l2.449-0.068
				C134.86,245.736,131.308,244.74,130.356,239.72z"/>
			<path fill="#969696" d="M130.356,239.72h1.854c0,0,1.103,4.61,3.658,6.056C135.868,245.775,131.057,246.395,130.356,239.72z"/>
			<path fill="#EDEFF0" d="M137.922,245.805c0,0,4.009-0.414,3.408-6.085h0.952C142.283,239.72,142.923,246.631,137.922,245.805z"/>
		</g>
		<g>
			<path fill="#B2B3B3" d="M127.944,242.273h14.525c0,0,1.259,6.202-4.289,7.078l-6.977-0.032
				C131.204,249.319,128.001,248.004,127.944,242.273z"/>
			<path fill="#AAA8A8" d="M129.946,242.408h-1.258c0,0,0.343,6,3.603,6.943l2.795-0.077
				C135.085,249.274,131.033,248.138,129.946,242.408z"/>
			<path fill="#969696" d="M129.946,242.408h2.115c0,0,1.259,5.261,4.175,6.911C136.236,249.319,130.747,250.026,129.946,242.408z"
				/>
			<path fill="#EDEFF0" d="M138.582,249.352c0,0,4.574-0.472,3.888-6.943h1.087C143.556,242.408,144.288,250.295,138.582,249.352z"
				/>
		</g>
	</g>
	<g>
		<polygon fill="#7F8080" points="139.575,92.249 523.595,90.429 523.595,96.194 139.575,98.015 		"/>
		<polygon fill="#AAA8A8" points="139.575,92.249 255.557,49.96 400.243,49.959 523.595,90.429 		"/>
		<rect x="261.181" y="30.497" fill="#B0B0B0" width="134.601" height="19.463"/>
		<polygon fill="#90908F" points="265.254,30.497 265.254,0 393.066,0 391.902,30.497 		"/>
		<ellipse fill="#8D8E8E" cx="266.224" cy="33.076" rx="0.97" ry="0.759"/>
		<ellipse fill="#8D8E8E" cx="274.758" cy="33.076" rx="0.97" ry="0.759"/>
		<ellipse fill="#8D8E8E" cx="283.292" cy="33.076" rx="0.97" ry="0.759"/>
		<ellipse fill="#8D8E8E" cx="291.825" cy="33.076" rx="0.97" ry="0.759"/>
		<ellipse fill="#8D8E8E" cx="300.359" cy="33.076" rx="0.97" ry="0.759"/>
		<ellipse fill="#8D8E8E" cx="308.893" cy="33.076" rx="0.97" ry="0.759"/>
		<ellipse fill="#8D8E8E" cx="317.427" cy="33.076" rx="0.97" ry="0.759"/>
		<ellipse fill="#8D8E8E" cx="325.96" cy="33.076" rx="0.97" ry="0.759"/>
		<ellipse fill="#8D8E8E" cx="334.494" cy="33.076" rx="0.97" ry="0.759"/>
		<ellipse fill="#8D8E8E" cx="343.027" cy="33.076" rx="0.97" ry="0.759"/>
		<ellipse fill="#8D8E8E" cx="351.562" cy="33.076" rx="0.97" ry="0.759"/>
		<ellipse fill="#8D8E8E" cx="360.096" cy="33.076" rx="0.97" ry="0.759"/>
		<ellipse fill="#8D8E8E" cx="368.629" cy="33.076" rx="0.969" ry="0.759"/>
		<ellipse fill="#8D8E8E" cx="377.163" cy="33.076" rx="0.97" ry="0.759"/>
		<ellipse fill="#8D8E8E" cx="385.697" cy="33.076" rx="0.97" ry="0.759"/>
		<ellipse fill="#8D8E8E" cx="394.231" cy="33.076" rx="0.969" ry="0.759"/>
		<ellipse fill="#8D8E8E" cx="394.231" cy="39.752" rx="0.969" ry="0.758"/>
		<ellipse fill="#8D8E8E" cx="394.231" cy="46.428" rx="0.969" ry="0.758"/>
		<ellipse fill="#8D8E8E" cx="385.697" cy="46.428" rx="0.97" ry="0.758"/>
		<ellipse fill="#8D8E8E" cx="377.163" cy="46.428" rx="0.97" ry="0.758"/>
		<ellipse fill="#8D8E8E" cx="368.629" cy="46.428" rx="0.969" ry="0.758"/>
		<ellipse fill="#8D8E8E" cx="360.096" cy="46.428" rx="0.97" ry="0.758"/>
		<ellipse fill="#8D8E8E" cx="351.562" cy="46.428" rx="0.97" ry="0.758"/>
		<ellipse fill="#8D8E8E" cx="343.027" cy="46.428" rx="0.97" ry="0.758"/>
		<ellipse fill="#8D8E8E" cx="334.494" cy="46.428" rx="0.97" ry="0.758"/>
		<ellipse fill="#8D8E8E" cx="325.96" cy="46.428" rx="0.97" ry="0.758"/>
		<ellipse fill="#8D8E8E" cx="317.427" cy="46.428" rx="0.97" ry="0.758"/>
		<ellipse fill="#8D8E8E" cx="308.893" cy="46.428" rx="0.97" ry="0.758"/>
		<ellipse fill="#8D8E8E" cx="300.359" cy="46.428" rx="0.97" ry="0.758"/>
		<ellipse fill="#8D8E8E" cx="291.825" cy="46.428" rx="0.97" ry="0.758"/>
		<ellipse fill="#8D8E8E" cx="283.292" cy="46.428" rx="0.97" ry="0.758"/>
		<ellipse fill="#8D8E8E" cx="274.758" cy="46.428" rx="0.97" ry="0.758"/>
		<ellipse fill="#8D8E8E" cx="266.224" cy="46.428" rx="0.97" ry="0.758"/>
		<ellipse fill="#8D8E8E" cx="266.224" cy="39.752" rx="0.97" ry="0.758"/>
		<polygon fill="#9F9E9E" points="239.524,56.442 420.801,90.916 523.595,90.429 400.114,49.96 256.074,49.96 		"/>
	</g>
</g>
</svg>
