<?xml version="1.0" encoding="utf-8"?>
<!-- Generator: Adobe Illustrator 16.0.0, SVG Export Plug-In . SVG Version: 6.00 Build 0)  -->
<!DOCTYPE svg PUBLIC "-//W3C//DTD SVG 1.1//EN" "http://www.w3.org/Graphics/SVG/1.1/DTD/svg11.dtd">
<svg version="1.1" id="Layer_1" xmlns="http://www.w3.org/2000/svg" xmlns:xlink="http://www.w3.org/1999/xlink" x="0px" y="0px"
	 width="684px" height="296.64px" viewBox="0 0 684 296.64" enable-background="new 0 0 684 296.64" xml:space="preserve">
<g>
	<rect x="-71.352" y="-110.062" fill="#BCCDB8" width="840.667" height="512.667"/>
	<g>
		<path fill="#456831" d="M544.789,98.712c0,0-3.935,37.264-10.486,49.061c0,0,3.182-0.748,5.242-2.995c0,0-4.304,19.1-8.425,23.594
			c0,0,8.054-2.809,10.112-4.869c0,0-2.622,8.052-7.679,13.857c0,0,5.991-2.434,8.238-6.741c0,0-6.741,20.6-14.606,32.208
			c0,0,7.677,2.061,13.107-4.869c0,0-2.811,11.983-15.543,21.533c0,0,3.557,1.313,12.921-8.051c0,0-0.753,11.797-11.988,24.531
			c0,0,2.063,1.872,10.301-3.371c0,0,0.56,4.494-5.434,12.173c0,0,8.986,3.368,18.723-3.558l65.541-0.938l-38.575-79.021
			c0,0-10.299-10.862-12.546-18.914c0,0,2.254,2.623,6.089,2.623C569.781,144.965,550.045,113.885,544.789,98.712z"/>
		<path fill="#456831" d="M623.156,86.448c0,0-12.078,34.831-27.245,58.987c0,0,3.651,0,8.988-3.933c0,0-5.618,17.415-14.045,25.561
			l9.831,78.086l24.156,7.022c0,0,24.438,11.374,34.269,9.478c0,0-19.662-9.478-19.943-12.006c0,0,18.819,12.359,41.01,5.618
			c0,0-14.044-12.921-14.044-14.606c0,0,13.763,5.618,20.785,4.775c0,0-24.718-18.819-25.561-28.089c0,0,12.359,7.022,19.662,7.584
			c0,0-23.595-14.887-28.37-23.313c0,0,12.641,8.988,21.067,3.933c0,0-26.966-28.37-30.056-37.358c0,0,8.427,8.146,15.729,9.831
			c0,0-18.257-13.763-15.729-16.853c0,0,8.988,4.494,15.449,5.337c0,0-17.696-22.752-17.415-27.809c0,0,5.056,3.652,8.707,3.933
			C650.402,142.625,625.966,108.919,623.156,86.448z"/>
		<path fill="#507B39" d="M582.99,128.3c0,0-4.214,24.718-23.595,45.223c0,0,5.898-0.28,9.27-2.527c0,0-9.831,16.291-15.729,21.066
			c0,0,5.056,2.527,13.763-3.371c0,0-7.584,10.112-13.763,14.045c0,0,7.303-1.686,12.92-7.022c0,0-16.853,23.875-25.279,29.493
			c0,0,8.146,5.056,17.977-2.81c0,0-17.415,17.978-24.718,18.819c0,0,4.494,3.09,18.538-6.46c0,0-10.954,16.854-21.066,23.595
			c0,0,9.27-0.843,15.449-3.371c0,0-5.337,7.865-12.078,11.517c0,0,20.224,4.913,33.987-4.848c0,0-8.427,9.061-15.729,9.903
			c0,0,17.414-0.143,33.145-9.903c0,0,10.393,7.095,19.381,7.938c0,0-5.618-4.356-6.461-7.938c0,0,5.057,6.252,28.932,3.724
			c0,0-9.831-10.111-12.358-14.044c0,0,8.988,2.247,16.291,1.124c0,0-20.224-18.819-22.471-28.089c0,0,7.022,2.809,12.078,1.404
			c0,0-14.045-16.854-14.045-21.066c0,0,7.865,3.37,9.27,3.651c0,0-11.517-9.55-13.482-12.64c0,0,6.741,2.809,8.707,2.809
			c0,0-14.044-19.662-14.325-24.999c0,0,4.775,2.528,7.022,2.81C604.618,176.332,583.552,133.918,582.99,128.3z"/>
	</g>
	<g>
		<path fill="#456831" d="M131.887,144.965c3.835,0,6.089-2.623,6.089-2.623c-2.247,8.052-12.546,18.914-12.546,18.914
			l-38.575,79.021l65.541,0.938c9.736,6.926,18.723,3.558,18.723,3.558c-5.993-7.679-5.434-12.173-5.434-12.173
			c8.238,5.243,10.301,3.371,10.301,3.371c-11.235-12.734-11.988-24.531-11.988-24.531c9.364,9.363,12.921,8.051,12.921,8.051
			c-12.732-9.55-15.543-21.533-15.543-21.533c5.431,6.93,13.107,4.869,13.107,4.869c-7.865-11.608-14.606-32.208-14.606-32.208
			c2.247,4.308,8.238,6.741,8.238,6.741c-5.057-5.806-7.679-13.857-7.679-13.857c2.059,2.061,10.112,4.869,10.112,4.869
			c-4.121-4.494-8.425-23.594-8.425-23.594c2.061,2.247,5.242,2.995,5.242,2.995c-6.552-11.797-10.486-49.061-10.486-49.061
			C151.623,113.885,131.887,144.965,131.887,144.965z"/>
		<path fill="#456831" d="M51.266,142.625c3.651-0.28,8.707-3.933,8.707-3.933c0.281,5.057-17.415,27.809-17.415,27.809
			c6.461-0.843,15.449-5.337,15.449-5.337c2.527,3.09-15.729,16.853-15.729,16.853c7.303-1.685,15.729-9.831,15.729-9.831
			c-3.09,8.988-30.056,37.358-30.056,37.358c8.427,5.056,21.067-3.933,21.067-3.933c-4.775,8.427-28.37,23.313-28.37,23.313
			c7.303-0.562,19.662-7.584,19.662-7.584c-0.843,9.27-25.561,28.089-25.561,28.089c7.022,0.843,20.785-4.775,20.785-4.775
			c0,1.686-14.044,14.606-14.044,14.606c22.19,6.741,41.01-5.618,41.01-5.618c-0.281,2.528-19.943,12.006-19.943,12.006
			c9.831,1.896,34.269-9.478,34.269-9.478l24.156-7.022l9.831-78.086c-8.427-8.146-14.045-25.561-14.045-25.561
			c5.337,3.933,8.988,3.933,8.988,3.933C90.59,121.278,78.512,86.448,78.512,86.448C75.702,108.919,51.266,142.625,51.266,142.625z"
			/>
		<path fill="#507B39" d="M97.05,176.332c2.247-0.281,7.022-2.81,7.022-2.81c-0.281,5.337-14.325,24.999-14.325,24.999
			c1.966,0,8.707-2.809,8.707-2.809c-1.966,3.09-13.482,12.64-13.482,12.64c1.404-0.281,9.27-3.651,9.27-3.651
			c0,4.213-14.045,21.066-14.045,21.066c5.056,1.404,12.078-1.404,12.078-1.404c-2.247,9.27-22.471,28.089-22.471,28.089
			c7.303,1.123,16.291-1.124,16.291-1.124c-2.527,3.933-12.358,14.044-12.358,14.044c23.875,2.528,28.932-3.724,28.932-3.724
			c-0.843,3.581-6.461,7.938-6.461,7.938c8.988-0.843,19.381-7.938,19.381-7.938c15.73,9.761,33.145,9.903,33.145,9.903
			c-7.303-0.843-15.729-9.903-15.729-9.903c13.764,9.761,33.987,4.848,33.987,4.848c-6.741-3.651-12.078-11.517-12.078-11.517
			c6.18,2.528,15.449,3.371,15.449,3.371c-10.112-6.741-21.066-23.595-21.066-23.595c14.044,9.55,18.538,6.46,18.538,6.46
			c-7.303-0.842-24.718-18.819-24.718-18.819c9.831,7.865,17.977,2.81,17.977,2.81c-8.427-5.618-25.279-29.493-25.279-29.493
			c5.617,5.337,12.92,7.022,12.92,7.022c-6.179-3.933-13.763-14.045-13.763-14.045c8.707,5.898,13.763,3.371,13.763,3.371
			c-5.898-4.775-15.729-21.066-15.729-21.066c3.371,2.247,9.27,2.527,9.27,2.527c-19.381-20.505-23.595-45.223-23.595-45.223
			C118.116,133.918,97.05,176.332,97.05,176.332z"/>
	</g>
	<g id="left">
		<rect x="402.5" y="101" fill="#9C6348" width="153.75" height="150.875"/>
		<rect x="407" y="97.999" fill="#8F7F78" width="156" height="6.001"/>
		<rect x="407" y="172.875" fill="#8F7F78" width="146.25" height="3.75"/>
		<polygon fill="#AA9085" points="407,169.834 407,172.875 553.25,172.875 549.168,169.834 		"/>
		<polygon fill="#6A544A" points="549,104 553.25,104 553.25,172.875 549.168,169.834 		"/>
		<g id="window_1">
			<g>
				<g>
					<polygon fill="#8F7F78" points="418.375,113.875 471.5,113.875 469.5,154.749 420.375,154.125 					"/>
					<path fill="#8AB3BE" d="M422.167,139.667l0.791,15.771l44.604,0.875v-16.454l-0.957-3.275c0,0-19.084-3.417-27.137,0
						C431.417,140,422.167,139.667,422.167,139.667z"/>
					<path fill="#6A99A5" d="M420.834,115.5h49.167l-1.334,23.896c0,0-8.166-3.408-12.333-3.929h-22.667c0,0-9.667-2.43-11.5-2.43
						L420.834,115.5z"/>
					<path fill="#AAC8D0" d="M422.167,132.333v7.625l12.458-1.25c0,0,5.375-3.208,18.042-2.708c0,0,13.001,2.167,14.834,4.833
						l1.166-2.396c0,0-4.666-5.437-27.666-3.604C441.001,134.833,429,135.167,422.167,132.333z"/>
					<polygon fill="#8F7F78" points="467.563,154.125 467.501,140.833 467.501,131.388 467.563,120.917 467.501,116.833 
						422.167,116.833 422.167,132.333 422.167,139.667 422.167,154.125 420.917,153.75 419.583,115 470.5,114.667 469.001,154.125 
											"/>
				</g>
				<polygon fill="#BFA294" points="420.417,154.125 417.417,156.75 472.167,156.75 469.25,154.125 				"/>
				<polygon fill="#A18273" points="417.417,156.75 472.167,156.75 470.5,161.834 417.417,161.834 				"/>
			</g>
			<rect x="422.083" y="128.583" fill="#6A544A" width="45.479" height="2.25"/>
			<rect x="444.5" y="116.833" fill="#6A544A" width="2.833" height="11.75"/>
		</g>
		<g id="window_1_1_">
			<g>
				<g>
					<polygon fill="#8F7F78" points="491.625,114.458 544.75,114.458 542.75,155.332 493.625,154.708 					"/>
					<path fill="#8AB3BE" d="M495.417,140.25l0.791,15.771l44.604,0.875v-16.454l-0.957-3.275c0,0-19.084-3.417-27.137,0
						C504.667,140.583,495.417,140.25,495.417,140.25z"/>
					<path fill="#6A99A5" d="M494.084,116.083h49.167l-1.334,23.896c0,0-8.166-3.408-12.333-3.929h-22.667c0,0-9.667-2.43-11.5-2.43
						L494.084,116.083z"/>
					<path fill="#AAC8D0" d="M495.417,132.917v7.625l12.458-1.25c0,0,5.375-3.208,18.042-2.708c0,0,13.001,2.167,14.834,4.833
						l1.166-2.396c0,0-4.666-5.437-27.666-3.604C514.251,135.417,502.25,135.75,495.417,132.917z"/>
					<polygon fill="#8F7F78" points="540.813,154.708 540.751,141.417 540.751,131.971 540.813,121.5 540.751,117.417 
						495.417,117.417 495.417,132.917 495.417,140.25 495.417,154.708 494.167,154.333 492.833,115.583 543.75,115.25 
						542.251,154.708 					"/>
				</g>
				<polygon fill="#BFA294" points="493.667,154.708 490.667,157.333 545.417,157.333 542.5,154.708 				"/>
				<polygon fill="#A18273" points="490.667,157.333 545.417,157.333 543.75,162.417 490.667,162.417 				"/>
			</g>
			<rect x="495.333" y="129.167" fill="#6A544A" width="45.479" height="2.25"/>
			<rect x="517.75" y="117.417" fill="#6A544A" width="2.833" height="11.75"/>
		</g>
		<g id="window_1_2_">
			<g>
				<g>
					<polygon fill="#8F7F78" points="491.333,187.458 544.458,187.458 542.458,228.332 493.333,227.708 					"/>
					<path fill="#8AB3BE" d="M495.125,213.25l0.791,15.771l44.604,0.875v-16.454l-0.957-3.275c0,0-19.084-3.416-27.137,0
						C504.375,213.583,495.125,213.25,495.125,213.25z"/>
					<path fill="#6A99A5" d="M493.792,189.083h49.167l-1.334,23.896c0,0-8.166-3.407-12.333-3.928h-22.667
						c0,0-9.667-2.431-11.5-2.431L493.792,189.083z"/>
					<path fill="#AAC8D0" d="M495.125,205.916v7.626l12.458-1.251c0,0,5.375-3.208,18.042-2.708c0,0,13.001,2.167,14.834,4.833
						l1.166-2.396c0,0-4.666-5.437-27.666-3.604C513.959,208.416,501.958,208.75,495.125,205.916z"/>
					<polygon fill="#8F7F78" points="540.521,227.708 540.459,214.416 540.459,204.971 540.521,194.5 540.459,190.416 
						495.125,190.416 495.125,205.916 495.125,213.25 495.125,227.708 493.875,227.333 492.541,188.583 543.458,188.25 
						541.959,227.708 					"/>
				</g>
				<polygon fill="#BFA294" points="493.375,227.708 490.375,230.333 545.125,230.333 542.208,227.708 				"/>
				<polygon fill="#A18273" points="490.375,230.333 545.125,230.333 543.458,235.417 490.375,235.417 				"/>
			</g>
			<rect x="495.041" y="202.166" fill="#6A544A" width="45.479" height="2.25"/>
			<rect x="517.458" y="190.416" fill="#6A544A" width="2.833" height="11.75"/>
		</g>
		<g id="window_1_3_">
			<g>
				<g>
					<polygon fill="#8F7F78" points="418.083,186.187 471.208,186.187 469.208,227.061 420.083,226.437 					"/>
					<path fill="#8AB3BE" d="M421.875,211.979l0.791,15.771l44.604,0.875V212.17l-0.957-3.275c0,0-19.084-3.416-27.137,0
						C431.125,212.312,421.875,211.979,421.875,211.979z"/>
					<path fill="#6A99A5" d="M420.542,187.812h49.167l-1.334,23.896c0,0-8.166-3.407-12.333-3.928h-22.667
						c0,0-9.667-2.431-11.5-2.431L420.542,187.812z"/>
					<path fill="#AAC8D0" d="M421.875,204.645v7.626l12.458-1.251c0,0,5.375-3.208,18.042-2.708c0,0,13.001,2.167,14.834,4.833
						l1.166-2.396c0,0-4.666-5.437-27.666-3.604C440.709,207.145,428.708,207.479,421.875,204.645z"/>
					<polygon fill="#8F7F78" points="467.271,226.437 467.209,213.145 467.209,203.699 467.271,193.229 467.209,189.145 
						421.875,189.145 421.875,204.645 421.875,211.979 421.875,226.437 420.625,226.062 419.291,187.312 470.208,186.979 
						468.709,226.437 					"/>
				</g>
				<polygon fill="#BFA294" points="420.125,226.437 417.125,229.062 471.875,229.062 468.958,226.437 				"/>
				<polygon fill="#A18273" points="417.125,229.062 471.875,229.062 470.208,234.146 417.125,234.146 				"/>
			</g>
			<rect x="421.791" y="200.895" fill="#6A544A" width="45.479" height="2.25"/>
			<rect x="444.208" y="189.145" fill="#6A544A" width="2.833" height="11.75"/>
		</g>
		<rect x="553.25" y="104" fill="#8F7F78" width="5" height="150.875"/>
		<polygon fill="#6A544A" points="553.25,254.875 549,252.75 549.375,176.625 553.25,176.625 		"/>
	</g>
	<g id="right">
		<rect x="144.25" y="101" fill="#9C6348" width="153.75" height="150.875"/>
		<rect x="137.5" y="97.999" fill="#8F7F78" width="156" height="6.001"/>
		<rect x="147.25" y="172.875" fill="#8F7F78" width="146.25" height="3.75"/>
		<polygon fill="#AA9085" points="293.5,169.834 293.5,172.875 147.25,172.875 151.332,169.834 		"/>
		<polygon fill="#6A544A" points="151.5,104 147.25,104 147.25,172.875 151.332,169.834 		"/>
		<g id="window_1_7_">
			<g>
				<g>
					<polygon fill="#8F7F78" points="282.125,113.875 229,113.875 231,154.749 280.125,154.125 					"/>
					<path fill="#8AB3BE" d="M278.333,139.667l-0.791,15.771l-44.604,0.875v-16.454l0.957-3.275c0,0,19.084-3.417,27.137,0
						C269.083,140,278.333,139.667,278.333,139.667z"/>
					<path fill="#6A99A5" d="M279.666,115.5h-49.167l1.334,23.896c0,0,8.166-3.408,12.333-3.929h22.667c0,0,9.667-2.43,11.5-2.43
						L279.666,115.5z"/>
					<path fill="#AAC8D0" d="M278.333,132.333v7.625l-12.458-1.25c0,0-5.375-3.208-18.042-2.708c0,0-13.001,2.167-14.834,4.833
						l-1.166-2.396c0,0,4.666-5.437,27.666-3.604C259.499,134.833,271.5,135.167,278.333,132.333z"/>
					<polygon fill="#8F7F78" points="232.938,154.125 232.999,140.833 232.999,131.388 232.938,120.917 232.999,116.833 
						278.333,116.833 278.333,132.333 278.333,139.667 278.333,154.125 279.583,153.75 280.917,115 230,114.667 231.499,154.125 
											"/>
				</g>
				<polygon fill="#BFA294" points="280.083,154.125 283.083,156.75 228.333,156.75 231.25,154.125 				"/>
				<polygon fill="#A18273" points="283.083,156.75 228.333,156.75 230,161.834 283.083,161.834 				"/>
			</g>
			<rect x="232.938" y="128.583" fill="#6A544A" width="45.479" height="2.25"/>
			<rect x="253.167" y="116.833" fill="#6A544A" width="2.833" height="11.75"/>
		</g>
		<g id="window_1_6_">
			<g>
				<g>
					<polygon fill="#8F7F78" points="208.875,114.458 155.75,114.458 157.75,155.332 206.875,154.708 					"/>
					<path fill="#8AB3BE" d="M205.083,140.25l-0.791,15.771l-44.604,0.875v-16.454l0.957-3.275c0,0,19.084-3.417,27.137,0
						C195.833,140.583,205.083,140.25,205.083,140.25z"/>
					<path fill="#6A99A5" d="M206.416,116.083h-49.167l1.334,23.896c0,0,8.166-3.408,12.333-3.929h22.667c0,0,9.667-2.43,11.5-2.43
						L206.416,116.083z"/>
					<path fill="#AAC8D0" d="M205.083,132.917v7.625l-12.458-1.25c0,0-5.375-3.208-18.042-2.708c0,0-13.001,2.167-14.834,4.833
						l-1.166-2.396c0,0,4.666-5.437,27.666-3.604C186.249,135.417,198.25,135.75,205.083,132.917z"/>
					<polygon fill="#8F7F78" points="159.688,154.708 159.749,141.417 159.749,131.971 159.688,121.5 159.749,117.417 
						205.083,117.417 205.083,132.917 205.083,140.25 205.083,154.708 206.333,154.333 207.667,115.583 156.75,115.25 
						158.249,154.708 					"/>
				</g>
				<polygon fill="#BFA294" points="206.833,154.708 209.833,157.333 155.083,157.333 158,154.708 				"/>
				<polygon fill="#A18273" points="209.833,157.333 155.083,157.333 156.75,162.417 209.833,162.417 				"/>
			</g>
			<rect x="159.688" y="129.167" fill="#6A544A" width="45.479" height="2.25"/>
			<rect x="179.917" y="117.417" fill="#6A544A" width="2.833" height="11.75"/>
		</g>
		<g id="window_1_5_">
			<g>
				<g>
					<polygon fill="#8F7F78" points="209.167,187.458 156.042,187.458 158.042,228.332 207.167,227.708 					"/>
					<path fill="#8AB3BE" d="M205.375,213.25l-0.791,15.771l-44.604,0.875v-16.454l0.957-3.275c0,0,19.084-3.416,27.137,0
						C196.125,213.583,205.375,213.25,205.375,213.25z"/>
					<path fill="#6A99A5" d="M206.708,189.083h-49.167l1.334,23.896c0,0,8.166-3.407,12.333-3.928h22.667
						c0,0,9.667-2.431,11.5-2.431L206.708,189.083z"/>
					<path fill="#AAC8D0" d="M205.375,205.916v7.626l-12.458-1.251c0,0-5.375-3.208-18.042-2.708c0,0-13.001,2.167-14.834,4.833
						l-1.166-2.396c0,0,4.666-5.437,27.666-3.604C186.541,208.416,198.542,208.75,205.375,205.916z"/>
					<polygon fill="#8F7F78" points="159.979,227.708 160.041,214.416 160.041,204.971 159.979,194.5 160.041,190.416 
						205.375,190.416 205.375,205.916 205.375,213.25 205.375,227.708 206.625,227.333 207.959,188.583 157.042,188.25 
						158.541,227.708 					"/>
				</g>
				<polygon fill="#BFA294" points="207.125,227.708 210.125,230.333 155.375,230.333 158.292,227.708 				"/>
				<polygon fill="#A18273" points="210.125,230.333 155.375,230.333 157.042,235.417 210.125,235.417 				"/>
			</g>
			<rect x="159.979" y="202.166" fill="#6A544A" width="45.479" height="2.25"/>
			<rect x="180.209" y="190.416" fill="#6A544A" width="2.833" height="11.75"/>
		</g>
		<g id="window_1_4_">
			<g>
				<g>
					<polygon fill="#8F7F78" points="282.417,186.187 229.292,186.187 231.292,227.061 280.417,226.437 					"/>
					<path fill="#8AB3BE" d="M278.625,211.979l-0.791,15.771l-44.604,0.875V212.17l0.957-3.275c0,0,19.084-3.416,27.137,0
						C269.375,212.312,278.625,211.979,278.625,211.979z"/>
					<path fill="#6A99A5" d="M279.958,187.812h-49.167l1.334,23.896c0,0,8.166-3.407,12.333-3.928h22.667
						c0,0,9.667-2.431,11.5-2.431L279.958,187.812z"/>
					<path fill="#AAC8D0" d="M278.625,204.645v7.626l-12.458-1.251c0,0-5.375-3.208-18.042-2.708c0,0-13.001,2.167-14.834,4.833
						l-1.166-2.396c0,0,4.666-5.437,27.666-3.604C259.791,207.145,271.792,207.479,278.625,204.645z"/>
					<polygon fill="#8F7F78" points="233.229,226.437 233.291,213.145 233.291,203.699 233.229,193.229 233.291,189.145 
						278.625,189.145 278.625,204.645 278.625,211.979 278.625,226.437 279.875,226.062 281.209,187.312 230.292,186.979 
						231.791,226.437 					"/>
				</g>
				<polygon fill="#BFA294" points="280.375,226.437 283.375,229.062 228.625,229.062 231.542,226.437 				"/>
				<polygon fill="#A18273" points="283.375,229.062 228.625,229.062 230.292,234.146 283.375,234.146 				"/>
			</g>
			<rect x="233.229" y="200.895" fill="#6A544A" width="45.479" height="2.25"/>
			<rect x="253.459" y="189.145" fill="#6A544A" width="2.833" height="11.75"/>
		</g>
		<rect x="142.25" y="104" fill="#8F7F78" width="5" height="150.875"/>
		<polygon fill="#6A544A" points="147.25,254.875 151.5,252.75 151.125,176.625 147.25,176.625 		"/>
	</g>
	<g>
		<rect x="297" y="61.5" fill="#9C6348" width="105.5" height="185.25"/>
		<polygon fill="#6A544A" points="301,244 303.167,242.5 303.333,66.833 396.5,66.833 396.5,242.5 399.433,244.831 398.334,64.667 
			301,64.667 301,172.334 		"/>
		<polygon fill="#AA9085" points="301,176.167 398.963,176.167 398.963,173.167 397,171.833 302.5,171.833 301,173.167 		"/>
		<rect x="301" y="176.167" fill="#806E65" width="97.963" height="5.666"/>
		<g>
			<polygon fill="#8F7F78" points="301,60 397.5,60 397.5,56.667 407,56.667 407,254 398.334,255.667 399,182.667 398.334,64.667 
				301,64.667 301,255.667 293.667,254 293.667,56.667 301.333,56.667 			"/>
			<path fill="#8F7F78" d="M320.667,160.999H385.5V95.333c0,0-4.666-15.833-31.666-16.333c0,0-20.167-2.333-33.167,16.667V160.999z"
				/>
			<polyline fill="#8AB3BE" points="326,131.375 326,154.832 380.334,154.832 380.819,131.016 360.5,122.375 336,122.375 			"/>
			<path fill="#6A99A5" d="M326,131.375c0,0,14.125-11.25,32.625-7.375c0,0,19.013,7.75,21.777,7.375s0.536-33.102,0.536-33.102
				l-4.604-8.607c0,0-2.057-7.651-22.438-7.831c-0.131-0.001-0.263-0.001-0.396-0.002c-20.75-0.083-26.333,11.29-28.25,16.166
				L326,131.375z"/>
			<polygon fill="#BFA294" points="323.833,157.794 326,154.832 380.334,154.832 383.167,157.794 			"/>
			<polygon fill="#81716A" points="323.333,157.794 326,154.832 326,97.999 323.333,97.999 			"/>
			<polygon fill="#81716A" points="380.5,97.999 383.167,99.333 383.167,157.794 380.334,154.832 			"/>
			<path fill="#6C574E" d="M323.333,97.999h2.917c0,0,3.75-8.166,6.417-9.999C332.667,88,324.083,93.748,323.333,97.999z"/>
			<path fill="#6C574E" d="M376.334,89.667c0,0,6.833,4.499,6.833,9.666s0,0.334,0,0.334l-2.667-1.667L376.334,89.667z"/>
			<rect x="351.334" y="81.833" fill="#6C574E" width="2.166" height="72.999"/>
			<polygon fill="#6C574E" points="326,110.625 326,112.75 380.334,112.75 380.463,110.625 			"/>
			<polygon fill="#6C574E" points="326,135.375 326,137.5 380.334,137.5 380.463,135.375 			"/>
			<path fill="#8F7F78" d="M320.625,96.75c0,0,4.787-17.875,32.894-17.75c0,0,23.606-2.989,31.856,16.693l-3.096,0.294
				c0,0-7.042-13.075-27.842-13.049c0,0-21.818-1.25-30.69,13.813H320.625z"/>
		</g>
		<rect x="314.5" y="196.25" fill="#806E65" width="71" height="47.875"/>
		<rect x="317.5" y="199.75" fill="#788046" width="65" height="43.25"/>
		<rect x="348.981" y="199.5" fill="#5D6239" width="1.894" height="43.5"/>
		<rect x="322.125" y="202.625" fill="#8AB3BE" width="23.625" height="23"/>
		<path fill="#6A99A5" d="M322.125,215.875c0,0,5.375-3.5,8.125-4.125h6.375l8.25,1.125l0.875-0.187v-10.063h-23.625V215.875z"/>
		<rect x="354.125" y="202.625" fill="#8AB3BE" width="23.625" height="23"/>
		<path fill="#6A99A5" d="M354.125,215.875c0,0,5.375-3.5,8.125-4.125h6.375l8.25,1.125l0.875-0.187v-10.063h-23.625V215.875z"/>
		<polygon fill="#AA9085" points="296.667,248.667 302.667,243 396.5,243 404.5,248.667 		"/>
		<rect x="296.667" y="248.667" fill="#806E65" width="107.833" height="14.5"/>
		<polygon fill="#987C6E" points="326.5,248.625 325.75,251.875 378.25,251.875 376.625,248.625 		"/>
		<polygon fill="#987C6E" points="325.75,254.875 322.125,258.5 381.875,258.5 377,254.875 		"/>
		<polygon fill="#987C6E" points="322.125,261.5 317,264.625 387.75,264.625 383.5,261.5 		"/>
		<rect x="317" y="264.625" fill="#806E65" width="70.75" height="3"/>
	</g>
	<g>
		<path fill="#4C5E2A" d="M178.47,259.708c0,0,3.753,4.263,9.407,2.085l2.039-0.662c0,0,1.978,0.028,2.41,0.245
			c0,0,0.819-1.051,1.931-1.221c0,0,1.128-0.263,3.738,0.834c0,0,3.753,1.359,5.376,1.359c0,0,8.588,0.942,9.175-3.15l0.062-1.452
			c0,0,1.563-0.921,1.229-2.119l-13.849-9.096l-9.284-3.584l-6.426,3.075l-1.962,5.869L178.47,259.708z"/>
		<path fill="#677C35" d="M176.292,256.603c0,0,0.185-3.753,3.059-4.495c0,0-1.946-4.958,2.965-5.515c0,0-0.695-3.429,3.383-3.799
			c0,0,1.668-0.696,2.827-2.133c0,0,1.993-0.602,3.383,1.066c0,0,7.415-2.085,9.824,4.681c0,0,3.012-0.417,4.541-0.324
			c0,0,2.271,0.602,1.993,4.263c0,0,2.456,0.695,2.687,1.251l-1.112,0.14l0.417,0.648l1.205-0.093c0,0,1.668,0.417,2.41,3.197
			c0,0-0.232,1.483-2.178,0.093l-0.417-0.463l-0.88,2.595l-1.251-0.741l-0.557,1.298h-2.456l-0.463-1.483l-0.417,0.139l-0.046-0.602
			c0,0-1.993,0.324-2.224,0.648l-0.186-0.648l-2.224,0.046l0.371-1.575h-1.622l2.27-3.65l-1.621-0.335l1.992-1.397l-1.946-2.125
			l-0.742,2.457l-0.417-0.332l-1.344,1.195l-1.622-2.208l-1.668,1.013c0,0-0.603-0.364-0.417-1.29l-1.112-0.14l0.556-1.668
			l-1.993-2.271c0,0,0.649,1.992,0.51,2.316c0,0-4.588-1.854-5.329-1.251l0.278,2.78l1.622,0.047l-1.251,1.476l1.251,2.417
			l2.502,3.197l-1.344-0.51c0,0,1.02,2.641,0.974,2.919l-0.695-0.37l0.649,1.205c0,0-2.085,1.668-2.966,1.714
			c0,0-0.973,0.927-0.695-1.992c0,0-2.364,1.808-2.781,2.456l-0.232-1.112l-2.873,1.112l0.139-1.205l-2.548,0.464
			c0,0-0.973-0.928-1.483-1.808l0.185-1.205L176.292,256.603z"/>
		<path fill="#3F4E22" d="M195.639,252.34c0,0,3.337-0.996,4.333-0.812c0,0-2.502,1.367-2.457,2.039c0,0-0.672,0.069-0.718,0.788
			c0,0-0.093,1.413,0.718,1.691c0,0-2.41-0.996-2.63-2.271c0,0-1.518,0.37-1.402,2.733c0,0-1.297-1.158-0.394-3.66
			c0,0-1.877-0.116-2.618,0.324c0,0,0.556-1.576,2.548-1.808c0,0-2.502-1.992-2.665-1.992
			C190.356,249.374,193.276,248.054,195.639,252.34z"/>
	</g>
	<g>
		<path fill="#4C5E2A" d="M140.47,264.708c0,0,3.753,4.263,9.407,2.085l2.039-0.662c0,0,1.978,0.028,2.41,0.245
			c0,0,0.819-1.051,1.931-1.221c0,0,1.128-0.263,3.738,0.834c0,0,3.753,1.359,5.376,1.359c0,0,8.588,0.942,9.175-3.15l0.062-1.452
			c0,0,1.563-0.921,1.229-2.119l-13.849-9.096l-9.284-3.584l-6.426,3.075l-1.962,5.869L140.47,264.708z"/>
		<path fill="#677C35" d="M138.292,261.603c0,0,0.185-3.753,3.059-4.495c0,0-1.946-4.958,2.965-5.515c0,0-0.695-3.429,3.383-3.799
			c0,0,1.668-0.696,2.827-2.133c0,0,1.993-0.602,3.383,1.066c0,0,7.415-2.085,9.824,4.681c0,0,3.012-0.417,4.541-0.324
			c0,0,2.271,0.602,1.993,4.263c0,0,2.456,0.695,2.687,1.251l-1.112,0.14l0.417,0.648l1.205-0.093c0,0,1.668,0.417,2.41,3.197
			c0,0-0.232,1.483-2.178,0.093l-0.417-0.463l-0.88,2.595l-1.251-0.741l-0.557,1.298h-2.456l-0.463-1.483l-0.417,0.139l-0.046-0.602
			c0,0-1.993,0.324-2.224,0.648l-0.186-0.648l-2.224,0.046l0.371-1.575h-1.622l2.27-3.65l-1.621-0.335l1.992-1.397l-1.946-2.125
			l-0.742,2.457l-0.417-0.332l-1.344,1.195l-1.622-2.208l-1.668,1.013c0,0-0.603-0.364-0.417-1.29l-1.112-0.14l0.556-1.668
			l-1.993-2.271c0,0,0.649,1.992,0.51,2.316c0,0-4.588-1.854-5.329-1.251l0.278,2.78l1.622,0.047l-1.251,1.476l1.251,2.417
			l2.502,3.197l-1.344-0.51c0,0,1.02,2.641,0.974,2.919l-0.695-0.37l0.649,1.205c0,0-2.085,1.668-2.966,1.714
			c0,0-0.973,0.927-0.695-1.992c0,0-2.364,1.808-2.781,2.456l-0.232-1.112l-2.873,1.112l0.139-1.205l-2.548,0.464
			c0,0-0.973-0.928-1.483-1.808l0.185-1.205L138.292,261.603z"/>
		<path fill="#3F4E22" d="M157.639,257.34c0,0,3.337-0.996,4.333-0.812c0,0-2.502,1.367-2.457,2.039c0,0-0.672,0.069-0.718,0.788
			c0,0-0.093,1.413,0.718,1.691c0,0-2.41-0.996-2.63-2.271c0,0-1.518,0.37-1.402,2.733c0,0-1.297-1.158-0.394-3.66
			c0,0-1.877-0.116-2.618,0.324c0,0,0.556-1.576,2.548-1.808c0,0-2.502-1.992-2.665-1.992
			C152.356,254.374,155.276,253.054,157.639,257.34z"/>
	</g>
	<g>
		<path fill="#4C5E2A" d="M251.184,259.709c0,0,3.753,4.263,9.407,2.085l2.039-0.662c0,0,1.978,0.028,2.41,0.245
			c0,0,0.819-1.051,1.931-1.221c0,0,1.128-0.263,3.738,0.834c0,0,3.753,1.359,5.376,1.359c0,0,8.588,0.942,9.175-3.15l0.062-1.452
			c0,0,1.563-0.921,1.229-2.119l-13.849-9.096l-9.284-3.584l-6.426,3.075l-1.962,5.869L251.184,259.709z"/>
		<path fill="#677C35" d="M249.005,256.604c0,0,0.185-3.753,3.059-4.495c0,0-1.946-4.958,2.965-5.515c0,0-0.695-3.429,3.383-3.799
			c0,0,1.668-0.696,2.827-2.133c0,0,1.993-0.602,3.383,1.066c0,0,7.415-2.085,9.824,4.681c0,0,3.012-0.417,4.541-0.324
			c0,0,2.271,0.602,1.993,4.263c0,0,2.456,0.695,2.687,1.251l-1.112,0.14l0.417,0.648l1.205-0.093c0,0,1.668,0.417,2.41,3.197
			c0,0-0.232,1.483-2.178,0.093l-0.417-0.463l-0.88,2.595l-1.251-0.741l-0.557,1.298h-2.456l-0.463-1.483l-0.417,0.139l-0.046-0.602
			c0,0-1.993,0.324-2.224,0.648l-0.186-0.648l-2.224,0.046l0.371-1.575h-1.622l2.27-3.65l-1.621-0.335l1.992-1.397l-1.946-2.125
			l-0.742,2.457l-0.417-0.332l-1.344,1.195l-1.622-2.208l-1.668,1.013c0,0-0.603-0.364-0.417-1.29l-1.112-0.14l0.556-1.668
			l-1.993-2.271c0,0,0.649,1.992,0.51,2.316c0,0-4.588-1.854-5.329-1.251l0.278,2.78l1.622,0.047l-1.251,1.476l1.251,2.417
			l2.502,3.197l-1.344-0.51c0,0,1.02,2.641,0.974,2.919l-0.695-0.37l0.649,1.205c0,0-2.085,1.668-2.966,1.714
			c0,0-0.973,0.927-0.695-1.992c0,0-2.364,1.808-2.781,2.456l-0.232-1.112l-2.873,1.112l0.139-1.205l-2.548,0.464
			c0,0-0.973-0.928-1.483-1.808l0.185-1.205L249.005,256.604z"/>
		<path fill="#3F4E22" d="M268.352,252.341c0,0,3.337-0.996,4.333-0.812c0,0-2.502,1.367-2.457,2.039c0,0-0.672,0.069-0.718,0.788
			c0,0-0.093,1.413,0.718,1.691c0,0-2.41-0.996-2.63-2.271c0,0-1.518,0.37-1.402,2.733c0,0-1.297-1.158-0.394-3.66
			c0,0-1.877-0.116-2.618,0.324c0,0,0.556-1.576,2.548-1.808c0,0-2.502-1.992-2.665-1.992
			C263.069,249.375,265.989,248.055,268.352,252.341z"/>
	</g>
	<g>
		<path fill="#4C5E2A" d="M216.184,259.709c0,0,3.753,4.263,9.407,2.085l2.039-0.662c0,0,1.978,0.028,2.41,0.245
			c0,0,0.819-1.051,1.931-1.221c0,0,1.128-0.263,3.738,0.834c0,0,3.753,1.359,5.376,1.359c0,0,8.588,0.942,9.175-3.15l0.062-1.452
			c0,0,1.563-0.921,1.229-2.119l-13.849-9.096l-9.284-3.584l-6.426,3.075l-1.962,5.869L216.184,259.709z"/>
		<path fill="#677C35" d="M214.005,256.604c0,0,0.185-3.753,3.059-4.495c0,0-1.946-4.958,2.965-5.515c0,0-0.695-3.429,3.383-3.799
			c0,0,1.668-0.696,2.827-2.133c0,0,1.993-0.602,3.383,1.066c0,0,7.415-2.085,9.824,4.681c0,0,3.012-0.417,4.541-0.324
			c0,0,2.271,0.602,1.993,4.263c0,0,2.456,0.695,2.687,1.251l-1.112,0.14l0.417,0.648l1.205-0.093c0,0,1.668,0.417,2.41,3.197
			c0,0-0.232,1.483-2.178,0.093l-0.417-0.463l-0.88,2.595l-1.251-0.741l-0.557,1.298h-2.456l-0.463-1.483l-0.417,0.139l-0.046-0.602
			c0,0-1.993,0.324-2.224,0.648l-0.186-0.648l-2.224,0.046l0.371-1.575h-1.622l2.27-3.65l-1.621-0.335l1.992-1.397l-1.946-2.125
			l-0.742,2.457l-0.417-0.332l-1.344,1.195l-1.622-2.208l-1.668,1.013c0,0-0.603-0.364-0.417-1.29l-1.112-0.14l0.556-1.668
			l-1.993-2.271c0,0,0.649,1.992,0.51,2.316c0,0-4.588-1.854-5.329-1.251l0.278,2.78l1.622,0.047l-1.251,1.476l1.251,2.417
			l2.502,3.197l-1.344-0.51c0,0,1.02,2.641,0.974,2.919l-0.695-0.37l0.649,1.205c0,0-2.085,1.668-2.966,1.714
			c0,0-0.973,0.927-0.695-1.992c0,0-2.364,1.808-2.781,2.456l-0.232-1.112l-2.873,1.112l0.139-1.205l-2.548,0.464
			c0,0-0.973-0.928-1.483-1.808l0.185-1.205L214.005,256.604z"/>
		<path fill="#3F4E22" d="M233.352,252.341c0,0,3.337-0.996,4.333-0.812c0,0-2.502,1.367-2.457,2.039c0,0-0.672,0.069-0.718,0.788
			c0,0-0.093,1.413,0.718,1.691c0,0-2.41-0.996-2.63-2.271c0,0-1.518,0.37-1.402,2.733c0,0-1.297-1.158-0.394-3.66
			c0,0-1.877-0.116-2.618,0.324c0,0,0.556-1.576,2.548-1.808c0,0-2.502-1.992-2.665-1.992
			C228.069,249.375,230.989,248.055,233.352,252.341z"/>
	</g>
	<g>
		<path fill="#4C5E2A" d="M496.762,259.709c0,0,3.753,4.263,9.406,2.085l2.039-0.662c0,0,1.977,0.028,2.409,0.245
			c0,0,0.819-1.051,1.931-1.221c0,0,1.129-0.263,3.738,0.834c0,0,3.754,1.359,5.376,1.359c0,0,8.588,0.942,9.175-3.15l0.063-1.452
			c0,0,1.563-0.921,1.229-2.119l-13.849-9.096l-9.284-3.584l-6.426,3.075l-1.961,5.869L496.762,259.709z"/>
		<path fill="#677C35" d="M494.583,256.604c0,0,0.185-3.753,3.059-4.495c0,0-1.946-4.958,2.966-5.515c0,0-0.695-3.429,3.383-3.799
			c0,0,1.668-0.696,2.826-2.133c0,0,1.993-0.602,3.383,1.066c0,0,7.415-2.085,9.824,4.681c0,0,3.012-0.417,4.541-0.324
			c0,0,2.271,0.602,1.994,4.263c0,0,2.455,0.695,2.687,1.251l-1.112,0.14l0.418,0.648l1.205-0.093c0,0,1.668,0.417,2.409,3.197
			c0,0-0.231,1.483-2.179,0.093l-0.416-0.463l-0.881,2.595l-1.251-0.741l-0.557,1.298h-2.456l-0.463-1.483l-0.418,0.139
			l-0.046-0.602c0,0-1.993,0.324-2.224,0.648l-0.186-0.648l-2.225,0.046l0.371-1.575h-1.622l2.271-3.65l-1.621-0.335l1.992-1.397
			l-1.947-2.125l-0.741,2.457l-0.417-0.332l-1.344,1.195l-1.622-2.208l-1.668,1.013c0,0-0.603-0.364-0.417-1.29l-1.112-0.14
			l0.556-1.668l-1.992-2.271c0,0,0.648,1.992,0.51,2.316c0,0-4.588-1.854-5.329-1.251l0.278,2.78l1.621,0.047l-1.25,1.476
			l1.25,2.417l2.503,3.197l-1.345-0.51c0,0,1.021,2.641,0.975,2.919l-0.695-0.37l0.648,1.205c0,0-2.086,1.668-2.966,1.714
			c0,0-0.974,0.927-0.694-1.992c0,0-2.364,1.808-2.781,2.456l-0.232-1.112l-2.873,1.112l0.14-1.205l-2.548,0.464
			c0,0-0.974-0.928-1.484-1.808l0.186-1.205L494.583,256.604z"/>
		<path fill="#3F4E22" d="M513.93,252.341c0,0,3.337-0.996,4.334-0.812c0,0-2.503,1.367-2.457,2.039c0,0-0.672,0.069-0.719,0.788
			c0,0-0.092,1.413,0.719,1.691c0,0-2.41-0.996-2.63-2.271c0,0-1.518,0.37-1.401,2.733c0,0-1.298-1.158-0.395-3.66
			c0,0-1.877-0.116-2.617,0.324c0,0,0.556-1.576,2.548-1.808c0,0-2.502-1.992-2.665-1.992
			C508.646,249.375,511.566,248.055,513.93,252.341z"/>
	</g>
	<g>
		<path fill="#4C5E2A" d="M459.762,259.709c0,0,3.753,4.263,9.406,2.085l2.039-0.662c0,0,1.977,0.028,2.409,0.245
			c0,0,0.819-1.051,1.931-1.221c0,0,1.129-0.263,3.738,0.834c0,0,3.754,1.359,5.376,1.359c0,0,8.588,0.942,9.175-3.15l0.063-1.452
			c0,0,1.563-0.921,1.229-2.119l-13.849-9.096l-9.284-3.584l-6.426,3.075l-1.961,5.869L459.762,259.709z"/>
		<path fill="#677C35" d="M457.583,256.604c0,0,0.185-3.753,3.059-4.495c0,0-1.946-4.958,2.966-5.515c0,0-0.695-3.429,3.383-3.799
			c0,0,1.668-0.696,2.826-2.133c0,0,1.993-0.602,3.383,1.066c0,0,7.415-2.085,9.824,4.681c0,0,3.012-0.417,4.541-0.324
			c0,0,2.271,0.602,1.994,4.263c0,0,2.455,0.695,2.687,1.251l-1.112,0.14l0.418,0.648l1.205-0.093c0,0,1.668,0.417,2.409,3.197
			c0,0-0.231,1.483-2.179,0.093l-0.416-0.463l-0.881,2.595l-1.251-0.741l-0.557,1.298h-2.456l-0.463-1.483l-0.418,0.139
			l-0.046-0.602c0,0-1.993,0.324-2.224,0.648l-0.186-0.648l-2.225,0.046l0.371-1.575h-1.622l2.271-3.65l-1.621-0.335l1.992-1.397
			l-1.947-2.125l-0.741,2.457l-0.417-0.332l-1.344,1.195l-1.622-2.208l-1.668,1.013c0,0-0.603-0.364-0.417-1.29l-1.112-0.14
			l0.556-1.668l-1.992-2.271c0,0,0.648,1.992,0.51,2.316c0,0-4.588-1.854-5.329-1.251l0.278,2.78l1.621,0.047l-1.25,1.476
			l1.25,2.417l2.503,3.197l-1.345-0.51c0,0,1.021,2.641,0.975,2.919l-0.695-0.37l0.648,1.205c0,0-2.086,1.668-2.966,1.714
			c0,0-0.974,0.927-0.694-1.992c0,0-2.364,1.808-2.781,2.456l-0.232-1.112l-2.873,1.112l0.14-1.205l-2.548,0.464
			c0,0-0.974-0.928-1.484-1.808l0.186-1.205L457.583,256.604z"/>
		<path fill="#3F4E22" d="M476.93,252.341c0,0,3.337-0.996,4.334-0.812c0,0-2.503,1.367-2.457,2.039c0,0-0.672,0.069-0.719,0.788
			c0,0-0.092,1.413,0.719,1.691c0,0-2.41-0.996-2.63-2.271c0,0-1.518,0.37-1.401,2.733c0,0-1.298-1.158-0.395-3.66
			c0,0-1.877-0.116-2.617,0.324c0,0,0.556-1.576,2.548-1.808c0,0-2.502-1.992-2.665-1.992
			C471.646,249.375,474.566,248.055,476.93,252.341z"/>
	</g>
	<g>
		<path fill="#4C5E2A" d="M418.762,259.709c0,0,3.753,4.263,9.406,2.085l2.039-0.662c0,0,1.977,0.028,2.409,0.245
			c0,0,0.819-1.051,1.931-1.221c0,0,1.129-0.263,3.738,0.834c0,0,3.754,1.359,5.376,1.359c0,0,8.588,0.942,9.175-3.15l0.063-1.452
			c0,0,1.563-0.921,1.229-2.119l-13.849-9.096l-9.284-3.584l-6.426,3.075l-1.961,5.869L418.762,259.709z"/>
		<path fill="#677C35" d="M416.583,256.604c0,0,0.185-3.753,3.059-4.495c0,0-1.946-4.958,2.966-5.515c0,0-0.695-3.429,3.383-3.799
			c0,0,1.668-0.696,2.826-2.133c0,0,1.993-0.602,3.383,1.066c0,0,7.415-2.085,9.824,4.681c0,0,3.012-0.417,4.541-0.324
			c0,0,2.271,0.602,1.994,4.263c0,0,2.455,0.695,2.687,1.251l-1.112,0.14l0.418,0.648l1.205-0.093c0,0,1.668,0.417,2.409,3.197
			c0,0-0.231,1.483-2.179,0.093l-0.416-0.463l-0.881,2.595l-1.251-0.741l-0.557,1.298h-2.456l-0.463-1.483l-0.418,0.139
			l-0.046-0.602c0,0-1.993,0.324-2.224,0.648l-0.186-0.648l-2.225,0.046l0.371-1.575h-1.622l2.271-3.65l-1.621-0.335l1.992-1.397
			l-1.947-2.125l-0.741,2.457l-0.417-0.332l-1.344,1.195l-1.622-2.208l-1.668,1.013c0,0-0.603-0.364-0.417-1.29l-1.112-0.14
			l0.556-1.668l-1.992-2.271c0,0,0.648,1.992,0.51,2.316c0,0-4.588-1.854-5.329-1.251l0.278,2.78l1.621,0.047l-1.25,1.476
			l1.25,2.417l2.503,3.197l-1.345-0.51c0,0,1.021,2.641,0.975,2.919l-0.695-0.37l0.648,1.205c0,0-2.086,1.668-2.966,1.714
			c0,0-0.974,0.927-0.694-1.992c0,0-2.364,1.808-2.781,2.456l-0.232-1.112l-2.873,1.112l0.14-1.205l-2.548,0.464
			c0,0-0.974-0.928-1.484-1.808l0.186-1.205L416.583,256.604z"/>
		<path fill="#3F4E22" d="M435.93,252.341c0,0,3.337-0.996,4.334-0.812c0,0-2.503,1.367-2.457,2.039c0,0-0.672,0.069-0.719,0.788
			c0,0-0.092,1.413,0.719,1.691c0,0-2.41-0.996-2.63-2.271c0,0-1.518,0.37-1.401,2.733c0,0-1.298-1.158-0.395-3.66
			c0,0-1.877-0.116-2.617,0.324c0,0,0.556-1.576,2.548-1.808c0,0-2.502-1.992-2.665-1.992
			C430.646,249.375,433.566,248.055,435.93,252.341z"/>
	</g>
	<g>
		<path fill="#4C5E2A" d="M529.801,265.719c0,0,3.753,4.263,9.406,2.085l2.039-0.662c0,0,1.977,0.028,2.409,0.245
			c0,0,0.819-1.051,1.931-1.221c0,0,1.129-0.263,3.738,0.834c0,0,3.754,1.359,5.376,1.359c0,0,8.588,0.942,9.175-3.15l0.063-1.452
			c0,0,1.563-0.921,1.229-2.119l-13.849-9.096l-9.284-3.584l-6.426,3.075l-1.961,5.869L529.801,265.719z"/>
		<path fill="#677C35" d="M527.622,262.613c0,0,0.185-3.753,3.059-4.495c0,0-1.946-4.958,2.966-5.515c0,0-0.695-3.429,3.383-3.799
			c0,0,1.668-0.696,2.826-2.133c0,0,1.993-0.602,3.383,1.066c0,0,7.415-2.085,9.824,4.681c0,0,3.012-0.417,4.541-0.324
			c0,0,2.271,0.602,1.994,4.263c0,0,2.455,0.695,2.687,1.251l-1.112,0.14l0.418,0.648l1.205-0.093c0,0,1.668,0.417,2.409,3.197
			c0,0-0.231,1.483-2.179,0.093l-0.416-0.463l-0.881,2.595l-1.251-0.741l-0.557,1.298h-2.456l-0.463-1.483l-0.418,0.139
			l-0.046-0.602c0,0-1.993,0.324-2.224,0.648l-0.186-0.648l-2.225,0.046l0.371-1.575h-1.622l2.271-3.65l-1.621-0.335l1.992-1.397
			l-1.947-2.125l-0.741,2.457l-0.417-0.332l-1.344,1.195l-1.622-2.208l-1.668,1.013c0,0-0.603-0.364-0.417-1.29l-1.112-0.14
			l0.556-1.668l-1.992-2.271c0,0,0.648,1.992,0.51,2.316c0,0-4.588-1.854-5.329-1.251l0.278,2.78l1.621,0.047l-1.25,1.476
			l1.25,2.417l2.503,3.197l-1.345-0.51c0,0,1.021,2.641,0.975,2.919l-0.695-0.37l0.648,1.205c0,0-2.086,1.668-2.966,1.714
			c0,0-0.974,0.927-0.694-1.992c0,0-2.364,1.808-2.781,2.456l-0.232-1.112l-2.873,1.112l0.14-1.205l-2.548,0.464
			c0,0-0.974-0.928-1.484-1.808l0.186-1.205L527.622,262.613z"/>
		<path fill="#3F4E22" d="M546.969,258.351c0,0,3.337-0.996,4.334-0.812c0,0-2.503,1.367-2.457,2.039c0,0-0.672,0.069-0.719,0.788
			c0,0-0.092,1.413,0.719,1.691c0,0-2.41-0.996-2.63-2.271c0,0-1.518,0.37-1.401,2.733c0,0-1.298-1.158-0.395-3.66
			c0,0-1.877-0.116-2.617,0.324c0,0,0.556-1.576,2.548-1.808c0,0-2.502-1.992-2.665-1.992
			C541.686,255.385,544.605,254.064,546.969,258.351z"/>
	</g>
</g>
</svg>
