<?xml version="1.0" encoding="utf-8"?>
<!-- Generator: Adobe Illustrator 16.0.0, SVG Export Plug-In . SVG Version: 6.00 Build 0)  -->
<!DOCTYPE svg PUBLIC "-//W3C//DTD SVG 1.1//EN" "http://www.w3.org/Graphics/SVG/1.1/DTD/svg11.dtd">
<svg version="1.1" id="Layer_1" xmlns="http://www.w3.org/2000/svg" xmlns:xlink="http://www.w3.org/1999/xlink" x="0px" y="0px"
	 width="684px" height="296.64px" viewBox="0 0 684 296.64" enable-background="new 0 0 684 296.64" xml:space="preserve">
<rect fill="#A7C5C5" width="684" height="296.64"/>
<g>
	<path fill="#E2C193" d="M188.242,167.88c0,0,2.073-6.187,5.75-1.05c0,0-0.29,4.792,0.868,6.168c0,0,1.641,4.267-0.355,6.811
		c0,0-6.529,6.743-8.873,6.676c0,0-1.104-1.928,1.236-4.267c0,0,1.169-3.646,0.344-5.022c0,0-1.238-0.688-0.894,3.647
		c0,0,0.206,2.888-1.583,1.236c0,0-1.439-5.643,0.896-9.494C185.632,172.585,187.794,168.897,188.242,167.88z"/>
	<path fill="#E2C193" d="M137.439,172.585c2.336,3.852,0.897,9.494,0.897,9.494c-1.789,1.651-1.583-1.236-1.583-1.236
		c0.344-4.335-0.894-3.647-0.894-3.647c-0.825,1.376,0.344,5.022,0.344,5.022c2.34,2.339,1.236,4.267,1.236,4.267
		c-2.343,0.067-8.873-6.676-8.873-6.676c-1.995-2.544-0.355-6.811-0.355-6.811c1.158-1.376,0.868-6.168,0.868-6.168
		c3.677-5.137,5.75,1.05,5.75,1.05C135.278,168.897,137.439,172.585,137.439,172.585z"/>
	<path fill="#161616" d="M142.736,277.804l1.96-7.834l4.167,7.167c0,0,6.188,2.979,0.813,9.354c0,0-4.938,2.063-5.125,3
		c0,0-10,2.625-8.75,0C135.8,289.491,142.726,281.056,142.736,277.804z"/>
	<path fill="#161616" d="M179.263,277.804l-2.244-9.125l-3.882,8.458c0,0-6.188,2.979-0.813,9.354c0,0,4.938,2.063,5.125,3
		c0,0,10,2.625,8.75,0C186.199,289.491,179.273,281.056,179.263,277.804z"/>
	<path fill="#676767" d="M143.613,164.055c0,0-2.25,6.124,1,10.249c0,0-2.433,100.499-1.758,102.833c0,0,2.342-7.334,6.008,0
		c0,0,3.167-79.666,8.667-96.666l8.5,0.333c0,0,7.775,80.999,7.108,96.333c0,0,2.06-5.999,5.56-1.666l-0.936-101.667
		c0,0,3.541-0.27,1.842-10.4L143.613,164.055z"/>
	<path fill="#F1E8DE" d="M153.612,92.387c0,0-5.532,4.125-8.641,4.271c0,0-11.275,5.812-11.942,16.812c0,0-4.289,37-3.895,52.333
		h-1.558v3.938h10.285l-0.125-4.125l-1.063-0.063l1.188-10.313c0,0,3.188,9.25,8.875,10.313c0,0,34.625,9.75,38.875-12l1.25,11.625
		l-1,0.5l-0.25,4.063h10v-5.063l-2-0.25c0,0,1.5-42.875-2.625-54.625c0,0-3.25-11.5-13.375-14.75c0,0-4.666-0.792-5.833-2.833
		L153.612,92.387z"/>
	<path fill="#E2C193" d="M136.696,59.804c0,0-10.333-19.667-9,1.333c0,0,1,9,6,9.667c0,0,0.917,17.375,22.667,19.625l4.125,5.75
		l7.5-6.25c0,0,18.125-3.125,17.875-19.5c0,0,6.625-0.375,7.75-17.875c0,0-2.375-11.625-9.5,7.375l-1-35.375
		c0,0-11.375-16.625-40.125-7C142.987,17.554,124.654,28.554,136.696,59.804z"/>
	<path fill="#625C40" d="M130.612,51.804c0,0,3.031,2.125,6.083,8c0,0-10.208-47,16.167-38.25c0,0,4,1.125,8.25-1.625
		c0,0,23.25-5,20.625,17.375c0,0-3.587,2.125,0.207,7.625v16.625h1.668c0,0,3.375-11.375,7.271-12.509
		c0,0,8.604-27.991-10.896-32.991c0,0-36.25-10-45.5,6.75C134.487,22.804,125.737,40.304,130.612,51.804z"/>
	<path fill="#C6D9DD" d="M156.362,90.429l-2.75,1.958c0,0,3.333,7.667,3.5,9l3.375-5.208l3.625,7.208l7.667-11.167l-3.792-2.292
		l-7.452,6.21L156.362,90.429z"/>
	<polygon fill="#626293" points="158.809,98.769 154.737,141.429 160.955,152.679 166.862,140.804 161.737,101.179 162.53,100.24 
		160.487,96.179 	"/>
	<polygon fill="#47476C" points="161.53,98.251 158.456,102.647 158.249,104.637 162.598,100.376 	"/>
	<polygon fill="#47476C" points="162.185,104.637 157.772,109.629 157.572,111.726 162.525,107.268 	"/>
	<polygon fill="#47476C" points="163.102,111.726 157.076,116.928 156.864,119.147 163.469,114.565 	"/>
	<polygon fill="#47476C" points="163.977,118.493 156.349,124.538 156.105,127.1 164.457,122.208 	"/>
	<polygon fill="#47476C" points="164.997,126.38 155.461,133.847 155.136,137.252 165.587,130.943 	"/>
	<polygon fill="#47476C" points="166.321,136.619 156.475,144.572 157.909,147.167 166.862,140.804 	"/>
	<path fill="#333333" d="M143.362,49.304c0,0,9.75-4,11.375-2c0,0,0.959-3-3.208-3.667
		C151.529,43.637,143.195,43.637,143.362,49.304z"/>
	<path fill="#333333" d="M175.696,49.304c0,0,2.045-6.833-12.228-5.667c0,0-1.894,2.333,0,4
		C163.469,47.637,172.862,46.637,175.696,49.304z"/>
	<ellipse fill="#FFFFFF" cx="149.029" cy="54.387" rx="3.833" ry="3.583"/>
	<ellipse fill="#333333" cx="149.029" cy="54.387" rx="2.035" ry="1.902"/>
	<ellipse fill="#FFFFFF" cx="168.029" cy="54.387" rx="3.833" ry="3.583"/>
	<ellipse fill="#333333" cx="168.029" cy="54.387" rx="2.035" ry="1.902"/>
	<path fill="#BFA47D" d="M157.196,53.304c0,0-15.167,15.75,4.5,12.583c0,0-22.915,6.167-5.041-12.583"/>
	<path fill="#4F3C29" d="M149.096,79.804c0,0,19.516,2.75,24.432-5C173.528,74.804,170.913,84.47,149.096,79.804z"/>
	<path fill="#B79C7D" d="M147.946,70.72c0,0-4.403,5.667-0.952,13.5C146.994,84.22,141.863,78.137,147.946,70.72z"/>
	<path fill="#B79C7D" d="M173.528,69.804c0,0,4.751,6.75,1.418,13.417C174.946,83.22,180.195,75.637,173.528,69.804z"/>
	<path fill="#676767" d="M149.836,95.054c0,0-10.748,52.44,1.051,71.44l-2.462-0.472c0,0-9.799-13.719-1.431-69.844L149.836,95.054z
		"/>
	<path fill="#676767" d="M175.644,165.615c0,0,6.058-7.559-0.424-71.184l1.547,0.443c0,0,7.893,57.304,0.096,70.304L175.644,165.615
		z"/>
</g>
<g>
	<path fill="#E2C193" d="M307,52.485c0,0-1.5,14.515,7.75,16.265c0,0-0.75,16.25,22.5,19.75c0,0,28,2.25,26.5-20.5
		c0,0,9.25,3.607,9.75-18.696c0,0-7.25-27.554-24-32.054C349.5,17.25,313.833,1.667,307,52.485z"/>
	<g>
		<path fill="#E2C193" d="M368.333,170.047c0,0,2.072-6.188,5.75-1.051c0,0-0.291,4.793,0.867,6.168c0,0,1.641,4.268-0.355,6.811
			c0,0-6.529,6.744-8.873,6.676c0,0-1.104-1.928,1.236-4.266c0,0,1.17-3.646,0.344-5.023c0,0-1.238-0.688-0.893,3.648
			c0,0,0.205,2.887-1.584,1.236c0,0-1.439-5.643,0.896-9.494C365.722,174.752,367.884,171.064,368.333,170.047z"/>
		<path fill="#E2C193" d="M317.993,174.752c2.336,3.852,0.896,9.494,0.896,9.494c-1.789,1.65-1.584-1.236-1.584-1.236
			c0.346-4.336-0.893-3.648-0.893-3.648c-0.826,1.377,0.344,5.023,0.344,5.023c2.34,2.338,1.236,4.266,1.236,4.266
			c-2.344,0.068-8.873-6.676-8.873-6.676c-1.996-2.543-0.355-6.811-0.355-6.811c1.158-1.375,0.867-6.168,0.867-6.168
			c3.678-5.137,5.75,1.051,5.75,1.051C315.831,171.064,317.993,174.752,317.993,174.752z"/>
		<path fill="#24366E" d="M337.148,90.389l-17.564,9.695c0,0-6.333,11-6.083,20c0,0-6.833,42.083-5.083,51.583h9.083
			c0,0,1.334-37.833,3.667-40.833l0.417,38.208c0,0,15.083,0.208,18.417-8.542c0,0,5.916,11.168,22.5,8.334
			c0,0-1.499-33.917-0.916-39c0,0,4.5,34.167,4,41.833h10c0,0-4.668-57.833-9.084-68.583c0,0-10.198-7.75-18.891-11.75
			L337.148,90.389z"/>
		<path fill="#676767" d="M341,43.637c0,0,7.25-3.492,9.5-6.314c0,0,3.5,0.887,4.5,3.157C355,40.48,344.25,47.274,341,43.637z"/>
		<path fill="#676767" d="M336.75,44.708c0,0-7.25-3.208-9.25-5.458l-2.25,4.253C325.25,43.503,336.25,48.916,336.75,44.708z"/>
		<ellipse fill="#333333" cx="347.125" cy="53.085" rx="2.375" ry="2.281"/>
		<ellipse fill="#333333" cx="330.125" cy="53.085" rx="2.375" ry="2.281"/>
		<path fill="#333333" d="M336.75,52.485c0,0-12.75,13.015,0,11.265C336.75,63.75,320.777,66.734,336.75,52.485z"/>
		<path fill="#232120" d="M338.819,66.013c0,0,4.14-4.664,8.146,0c0,0,2.757,5.715,6.567,5.254c0,0,3.613-1.313,1.119,0.985
			c0,0-8.936,2.168-15.832-3.875l-0.918-0.09v-2.273L338.819,66.013L338.819,66.013z"/>
		<path fill="#232120" d="M337.792,66.013c0,0-4.138-4.664-8.146,0c0,0-2.759,5.715-6.569,5.254c0,0-3.612-1.313-1.116,0.985
			c0,0,8.933,2.168,15.831-3.875l0.92-0.09v-2.273L337.792,66.013L337.792,66.013z"/>
		<path fill="#9B7F63" d="M329.167,77.083c0,0,16.167,1.346,20.333-4.452C349.5,72.631,345.75,80.333,329.167,77.083z"/>
		<path fill="#A2A2A2" d="M320.942,22.914c0,0,4.725-9.914,28.558-5.664c0,0,10.812,5.945,11.095,7.647
			c0,0-0.011-10.397-10.345-11.064C350.25,13.833,321.083-2.083,320.942,22.914z"/>
		<path fill="#CDCCCC" d="M349.5,17.25c0,0,12.125-6.875,11.75,16.625c0,0,1.508,7.5-5.871,13.125c0,0-9.879,5.833,0.621,12.083
			c0,0-1.334-2-1.417-3.333c0,0,7.668,6.92,12.584-2.665c0,0,5.667,4.301,5-0.6c0,0-3.75,1.456-2.667-1.681
			c0,0,16.5-2.387,10.5-16.72c0,0-11.167-7.5-12.75-18.833c0,0-1.917-6.417-12.25-2.833c0,0-17.083-26.333-43.333-1.667
			c0,0-6.417,6.084-6.167,17.167c0,0-12.583,8.5-2.917,16.25c0,0-2.167,1.416-4.25,0.541c0,0,12.25,18.459,27.833,5.709
			c0,0,0.75-9.083-4-17.583c0,0-4.333-13.917,3.083-19.583C325.25,13.25,339.667,4.917,349.5,17.25z"/>
		<path fill="#F4F3F2" d="M334.917,91.583c0,0,0.083,37.917,4.917,43.833c0,0,12.157-30.271,10.912-42.844L334.917,91.583z"/>
		<path fill="#E2C193" d="M337.25,88.5l3.333,5.25h1.381l4.286-3.917l0.466-1.943C346.716,87.89,338.333,87.333,337.25,88.5z"/>
		<path fill="#E1EFF1" d="M337.25,88.5l-0.5,9.25c0,0,1.833-3.417,2.583-3.667l2.25-0.333c0,0,2.166,5.083,2.25,6
			c0,0,6.667-8.417,2.417-9.917l-4.688,3.729l-1.077,0.033L337.25,88.5z"/>
		<path fill="#161616" d="M358.167,272.5l-4.125-7.821l-1.208,7.821c0,0-5.936,3.616-0.561,9.991c0,0,3.352,2.092,5.125,3
			c0,0,10,2.625,8.75,0C366.148,285.491,358.178,275.752,358.167,272.5z"/>
		<path fill="#161616" d="M323.46,272.5l1.95-6.353l2.924,6.353c0,0,7.146,5.085,1.771,11.46c0,0-3.292,2.697-5.125,3
			c0,0-10,2.625-8.75,0C316.229,286.96,323.449,275.752,323.46,272.5z"/>
		<path fill="#3F3B38" d="M323.616,168.708c0,0-0.741,2.292,1.009,4.417L323.46,272.5c0,0,2.374-5.333,4.874,0
			c0,0,6.833-93.001,8.333-94.334L345.5,178c0,0,8.001,88,7.334,94.5c0,0,2.5-5.166,5.333,0V169.28c0,0-13.167-2.28-18.167-8.78
			C340,160.5,331.232,169.041,323.616,168.708z"/>
		<path fill="#18244E" d="M331.813,93.75l-0.688,10.75h2.125c0,0-1.125,2.75-4.25,3.625c0,0,9.375,23.25,9.875,29.25
			c0,0,1,1.25,2.25-1.75l13-26.5c0,0-3-2.25-3.125-4.25l2.25,0.25c0,0-0.688-8,0.188-10.25c0,0-1.703-2.542-5.828-3.542
			c0,0-1.109,31.042-7.859,42.042c0,0-5.227-32.611-2.602-42.986C337.148,90.389,332.688,92.375,331.813,93.75z"/>
	</g>
</g>
<g>
	<path fill="#E2C193" d="M497.25,52.813c0,0-8.188-5.813-4.875,9.375c0,0,4.25,12.438,9,7.75c0,0,8.5,19.813,20.938,19.938h8.021
		c0,0,11.375-1.417,16.167-21c0,0,9.312,8.063,10.812-18.938c0,0-2.75-4.875-7.313,3.125l-1.813-28.188
		c0,0-12.313-11.938-36.938-5.375C511.25,19.5,489.563,16.813,497.25,52.813z"/>
	<path fill="#625C40" d="M499.084,55.667V31.833c0,0,3.75-6,9.75-5.833c0,0,15.251-11.583,38.417,3.25c0,0-3.418,6.917-0.584,12.417
		c0,0,2.501,2.25,2.834,12.667c0,0,0.874,0.917,1.749-1.833V23.938c0,0,2.063,0.375,2.625,1.188c0,0-0.5-3-2.438-4
		c0,0,3.063-1.063,4.75,0.438c0,0-27.938-32.688-51.75-9.5c0,0-17.125-0.938-10.938,16.75
		C493.5,28.813,493.793,52.833,499.084,55.667z"/>
	<path fill="#333333" d="M524.75,48.625c0,0,1.375-8.25,15.625-7.75c0,0,1.25,3,0,5C540.375,45.875,527,44.25,524.75,48.625z"/>
	<path fill="#333333" d="M518.25,48.625c0,0-2.334-5.375-10.75-4.875c0,0-2.125,2.875,0,4C507.5,47.75,514.75,46.875,518.25,48.625z
		"/>
	<ellipse fill="#F3F3F3" cx="513.5" cy="54" rx="3.875" ry="4"/>
	<ellipse fill="#333333" cx="513.5" cy="54" rx="1.728" ry="1.784"/>
	<ellipse fill="#F3F3F3" cx="532.5" cy="54" rx="3.875" ry="4"/>
	<ellipse fill="#333333" cx="532.5" cy="54" rx="1.728" ry="1.784"/>
	<path fill="#232120" d="M526,70.938c0,0,6.875,4.125,9.938,2.938c0,0,0.438,0.813-0.313,0.813c0,0-5.124,0.813-9.521-1.875
		L526,70.938z"/>
	<path fill="#232120" d="M523.772,70.938c0,0-6.875,4.125-9.938,2.938c0,0-0.438,0.813,0.313,0.813c0,0,5.124,0.813,9.521-1.875
		L523.772,70.938z"/>
	<path fill="#C3A780" d="M522.083,51.75c0,0-12.666,23.75,3.584,19c0,0-14.334,1.75-3.084-17.833L522.083,51.75z"/>
	<path fill="#775E4B" d="M514,78.938c0,0,19.5,2.105,24-4.135C538,74.803,535.625,82.438,514,78.938z"/>
	<path fill="#E2C193" d="M552.476,172.218c0,0,2.072-6.188,5.75-1.051c0,0-0.291,4.793,0.867,6.168c0,0,1.641,4.268-0.355,6.811
		c0,0-6.529,6.744-8.873,6.676c0,0-1.104-1.928,1.236-4.266c0,0,1.17-3.646,0.344-5.023c0,0-1.238-0.688-0.893,3.648
		c0,0,0.205,2.887-1.584,1.236c0,0-1.439-5.643,0.896-9.494C549.864,176.923,552.026,173.235,552.476,172.218z"/>
	<path fill="#E2C193" d="M502.136,176.923c2.336,3.852,0.896,9.494,0.896,9.494c-1.789,1.65-1.584-1.236-1.584-1.236
		c0.346-4.336-0.893-3.648-0.893-3.648c-0.826,1.377,0.344,5.023,0.344,5.023c2.34,2.338,1.236,4.266,1.236,4.266
		c-2.344,0.068-8.873-6.676-8.873-6.676c-1.996-2.543-0.355-6.811-0.355-6.811c1.158-1.375,0.867-6.168,0.867-6.168
		c3.678-5.137,5.75,1.051,5.75,1.051C499.974,173.235,502.136,176.923,502.136,176.923z"/>
	<path fill="#191819" d="M521.291,92.56l-17.564,9.695c0,0-6.334,11-6.084,20c0,0-6.833,42.084-5.083,51.584h9.083
		c0,0,1.334-37.834,3.667-40.834l0.417,38.209c0,0,15.082,0.207,18.416-8.543c0,0,5.916,11.168,22.5,8.334
		c0,0-1.499-33.917-0.916-39c0,0,4.5,34.166,4,41.834h10c0,0-4.668-57.834-9.084-68.584c0,0-10.198-7.75-18.891-11.75L521.291,92.56
		z"/>
	<path fill="#F4F3F2" d="M519.059,93.755c0,0,0.084,37.917,4.918,43.833c0,0,12.156-30.271,10.911-42.844L519.059,93.755z"/>
	<path fill="#E2C193" d="M521.393,90.671l3.334,5.25h1.381l4.285-3.917l0.466-2.235C530.858,89.77,519.059,85.875,521.393,90.671z"
		/>
	<path fill="#E1EFF1" d="M521.393,90.671l-0.5,9.25c0,0,1.832-3.417,2.583-3.667l2.251-0.333c0,0,2.165,5.083,2.249,6
		c0,0,6.667-8.417,2.417-9.917l-4.688,3.729l-1.077,0.033L521.393,90.671z"/>
	<path fill="#161616" d="M542.31,274.671l-4.125-7.82l-1.208,7.82c0,0-5.936,3.617-0.561,9.992c0,0,3.352,2.092,5.125,3
		c0,0,10,2.625,8.75,0C550.291,287.663,542.32,277.923,542.31,274.671z"/>
	<path fill="#161616" d="M507.603,274.671l1.95-6.352l2.924,6.352c0,0,7.145,5.086,1.77,11.461c0,0-3.291,2.697-5.125,3
		c0,0-10,2.625-8.75,0C500.371,289.132,507.592,277.923,507.603,274.671z"/>
	<path fill="#212221" d="M507.759,170.88c0,0-0.741,2.291,1.009,4.416l-1.165,99.375c0,0,2.374-5.332,4.874,0
		c0,0,6.833-93,8.333-94.334l8.833-0.166c0,0,8.001,88,7.334,94.5c0,0,2.5-5.166,5.333,0V171.452c0,0-13.167-2.281-18.167-8.781
		C524.143,162.671,515.375,171.212,507.759,170.88z"/>
	<path fill="#383838" d="M515.955,95.921l-0.688,10.75h2.125c0,0-1.125,2.75-4.25,3.625c0,0,9.375,23.25,9.875,29.25
		c0,0,1,1.25,2.25-1.75l13-26.5c0,0-3-2.25-3.125-4.25l2.25,0.25c0,0-0.688-8,0.188-10.25c0,0-1.703-2.542-5.828-3.542
		c0,0-1.109,31.042-7.859,42.042c0,0-5.227-32.611-2.602-42.986C521.291,92.56,516.83,94.546,515.955,95.921z"/>
	<path fill="#CCCC99" d="M522.447,97.354c0,0,0.907,4.953,4.983,2.808l-1.704-4.241C525.727,95.921,522.863,95.584,522.447,97.354z"
		/>
	<path fill="#CCCC99" d="M524.141,100.268l-2.115,21.484l1.867,13.794l4.224-11.85l-1.134-23.323
		C526.982,100.374,524.74,99.62,524.141,100.268z"/>
</g>
</svg>
