<?xml version="1.0" encoding="utf-8"?>
<!-- Generator: Adobe Illustrator 16.0.0, SVG Export Plug-In . SVG Version: 6.00 Build 0)  -->
<!DOCTYPE svg PUBLIC "-//W3C//DTD SVG 1.1//EN" "http://www.w3.org/Graphics/SVG/1.1/DTD/svg11.dtd">
<svg version="1.1" id="Layer_1" xmlns="http://www.w3.org/2000/svg" xmlns:xlink="http://www.w3.org/1999/xlink" x="0px" y="0px"
	 width="684px" height="296.64px" viewBox="0 0 684 296.64" enable-background="new 0 0 684 296.64" xml:space="preserve">
<rect x="-93.333" y="-86.432" fill="#A7C5C5" width="878.667" height="496.667"/>
<image display="none" overflow="visible" width="587" height="339" xlink:href="C:\Users\sudha\Desktop\The Video Maker from GoAnimate   Make a Video for YouTube .png"  transform="matrix(1 0 0 1 25.6128 -11.8535)">
</image>
<g>
	<path fill="#E2C193" d="M116.953,144.625c0,0-4.625,34.697-2.5,42.47c0,0-2.159,6.978-1.76,9.869c0,0-0.1,3.588,3.289,5.581
		l4.088,3.289c0,0,3.688,3.489,2.79-0.599c0,0-3.189-3.388-2.292-7.276c0,0,0.698-2.69,1.894,0.201c0,0-0.499,8.372,1.495,3.985
		c0,0,0.947-7.375-1.046-10.017c0,0-2.592-4.286-3.489-4.884l4.336-41.648L116.953,144.625z"/>
	<path fill="#E2C193" d="M173.372,143.459c0,0,4.625,34.697,2.5,42.47c0,0,2.159,6.978,1.76,9.869c0,0,0.1,3.588-3.289,5.581
		l-4.088,3.289c0,0-3.688,3.489-2.79-0.599c0,0,3.189-3.388,2.292-7.276c0,0-0.698-2.69-1.894,0.201c0,0,0.499,8.372-1.495,3.985
		c0,0-0.947-7.375,1.046-10.017c0,0,2.592-4.286,3.489-4.884l-3.894-41.711L173.372,143.459z"/>
	<path fill="#D3D3D3" d="M140.37,102.593c0,0-1.75,6.5-14.417,10c0,0-5.167,1.333-6.167,6.667l-4.667,36.166h-1.5v7.167h10
		l0.125-6.833l-1.063-0.125l2.313-10.063l0.563,21.938c0,0,2.063,4.5,4.563,5.625c0,0,17.625,1.875,31.25,0
		c0,0,4.875-4.125,5.375-6.75c0,0,0.5-12.5,0-14.875l1.227,4.125l-0.81,0.042l0.042,6.875h10.5v-6.917l-1.958-0.083l-4.875-36.667
		c0,0-1-5.875-6-7c0,0-12.625-5.375-15.063-10.313L140.37,102.593z"/>
	<path fill="#E2C193" d="M119.287,68.426c0,0-8.667-10.333-7,4.333c0,0,3.167,12.5,9.333,9.833c0,0,6.833,18.833,19.167,19.333
		v7.646l4.646,7.063c0,0,6.688-4.875,4.375-15.063c0,0,8.25,2.188,15.75-19.563c0,0,6.188,4.25,8.875-7.813
		c0,0,4.813-22.625-6.813-5l-2.313-28.25l-23.875-2.938l-22.063,3.563l-0.938,12.688l-0.188,9.688L119.287,68.426z"/>
	<path fill="#7E4937" d="M119.453,70.01l0.417-25.417c0,0,40.917-6,43.667,2.5c0,0-3,8.833,1.75,14.917l0.833,10.417l4.333-9.167
		c0,0,3.417-20.083,0-31.167c0,0-16.5-15.167-31.333-15.417c0,0,1.25,3.333,1.417,4.25c0,0-9-4.417-14.833-4.25
		c0,0,1.917,2.917,0.75,4.917c0,0-11.667-5.093-16-4.921c0,0-0.917,8.254,2.167,10.838c0,0-5.917-2.583-6-4
		c0,0-2.75,20.333,9.083,19C115.703,42.51,112.287,60.176,119.453,70.01z"/>
	<circle fill="none" stroke="#3F3D3C" stroke-miterlimit="10" cx="132.37" cy="69.385" r="8"/>
	<circle fill="none" stroke="#3F3D3C" stroke-miterlimit="10" cx="152.643" cy="69.385" r="8"/>
	<polygon fill="#3F3D3C" points="124.37,71.51 117.873,67.399 117.1,65.674 124.37,68.51 	"/>
	<polygon fill="#3F3D3C" points="166.553,71.51 160.643,71.51 160.643,68.51 167.971,68.51 	"/>
	<path fill="#3F3D3C" d="M138.37,59.51c0,0-8-1.375-10.625,1.875c0,0,2.625-5.375,10.625-3.625V59.51z"/>
	<path fill="#3F3D3C" d="M146.12,58.343l1.159,2.167c0,0,8.352-1.667,10.727,1.333C158.006,61.843,155.768,56.218,146.12,58.343z"/>
	<path fill="#AA9374" d="M141.37,70.01c0,0-2.938,7.958-5.875,10.208c0,0,2.125,4.375,5.875,3.042c0,0-4.62-1.777-5.083-2.708
		C136.287,80.552,140.995,74.135,141.37,70.01z"/>
	<path fill="#AA9374" d="M137.37,90.677c0,0,9.334-1.583,11.917,1.25C149.287,91.927,141.953,90.344,137.37,90.677z"/>
	<path fill="#3F3D3C" d="M140.37,69.385c0,0,2.212-1.375,4.273,0C144.643,69.385,142.703,66.343,140.37,69.385z"/>
	<ellipse fill="#FFFFFF" cx="151.12" cy="71.51" rx="3.667" ry="3.708"/>
	<ellipse fill="#737373" cx="151.12" cy="71.51" rx="1.845" ry="1.866"/>
	<ellipse fill="#FFFFFF" cx="133.057" cy="71.51" rx="3.667" ry="3.708"/>
	<ellipse fill="#737373" cx="133.853" cy="71.51" rx="1.845" ry="1.866"/>
	<path fill="#E1EFF1" d="M140.786,101.927v7.646l1.102,1.675c0,0-4.394,3.512-3.456,7.387c0,0-4.813-6.916,0.688-16.708H140.786z"/>
	<path fill="#E1EFF1" d="M149.807,101.572c0,0,1.373,7.259-0.97,10.672c0,0,3.533,0.891,3.158,5.016
		C151.995,117.26,157.12,104.51,149.807,101.572z"/>
	<polygon fill="#326370" points="140.199,112.977 143.747,119.51 146.703,119.51 150.275,112.977 151.289,114.51 146.703,122.01 
		143.747,121.51 139.186,114.468 	"/>
	<path fill="#468EA0" d="M144.453,119.51c0,0,1.083-0.75,2,0c0,0,1.542,23.438,5.104,31.063l-2.72,4.938l-5.09-4.5
		C143.747,151.01,144.607,124.106,144.453,119.51z"/>
	<path fill="#414141" d="M130.505,173.26c0,0-1.896,4.391,0.813,8.004l-1.459,82.188h4.426l6.967-76.768l6.969-0.389
		c0,0,6.451,49.547,6.709,77.674l4.258-0.771l-1.014-80.275c0,0,4.101-2.758,3.197-9.787L130.505,173.26z"/>
	<path fill="#161616" d="M159.424,260.63c0,0-1.383-2.621-3.199,0c0,0-4.318,4.854-2.174,6.996c0,0,3.395,3.939,4.645,3.939h6.788
		c0,0-2.948-5.727-4.913-6.887C160.57,264.679,160.008,261.364,159.424,260.63z"/>
	<path fill="#161616" d="M129.902,261.896c0,0,1.385-2.619,3.201,0c0,0,4.314,4.854,2.172,6.998c0,0-3.393,3.939-4.645,3.939h-6.786
		c0,0,2.946-5.727,4.911-6.887C128.756,265.946,129.32,262.632,129.902,261.896z"/>
</g>
<g>
	<path fill="#AC8150" d="M303.782,136.802c0,0-5.379,34.697-3.253,42.47c0,0-2.159,6.978-1.76,9.869c0,0-0.1,3.588,3.289,5.581
		l4.088,3.289c0,0,3.688,3.489,2.79-0.599c0,0-3.189-3.388-2.292-7.276c0,0,0.698-2.69,1.894,0.201c0,0-0.499,8.372,1.495,3.985
		c0,0,0.947-7.375-1.046-10.017c0,0-2.592-4.286-3.489-4.884l4.336-41.648L303.782,136.802z"/>
	<path fill="#AC8150" d="M356.411,136.802c0,0,4.625,34.697,2.499,42.47c0,0,2.159,6.978,1.761,9.869c0,0,0.1,3.588-3.289,5.581
		l-4.088,3.289c0,0-3.688,3.489-2.79-0.599c0,0,3.188-3.388,2.292-7.276c0,0-0.698-2.69-1.894,0.201c0,0,0.499,8.372-1.495,3.985
		c0,0-0.947-7.375,1.047-10.017c0,0,2.592-4.286,3.488-4.884l-4.336-41.648L356.411,136.802z"/>
	<path fill="#1D3754" d="M324.231,107.226c0,0-18.011,0.251-18.761,11.751c0,0-6.125,55.375-6.75,58.75h9c0,0,1.375-38,4.625-42.125
		c0,0,2.845,4,2.922,19.75s0,0.5,0,0.5s-6.931,6.5-1.239,11.75l-1.6,17.5l-0.953,84.167c0,0,3.338-3.193,5.838-0.526l8.114-85.474
		c0,0,3.667-4.833,7.333-0.5l5.167,87.833c0,0,3.73-5.964,6.397-4.131l1.437-52.202v-46.959c0,0,7.001-0.374,0-13.541
		c0,0-0.501-14.102,1.333-16.968c0,0,5.333,17.968,4.666,40.468l8.959-0.167c0,0-2.875-57.074-6.875-60.037
		c0,0-1.75-8.213-16.75-10.963L324.231,107.226z"/>
	<path fill="#161616" d="M312.053,265.716c0,0,1.385-2.619,3.201,0c0,0,4.314,4.854,2.172,6.998c0,0-3.393,3.939-4.645,3.939h-6.786
		c0,0,2.946-5.727,4.911-6.887C310.907,269.767,311.471,266.452,312.053,265.716z"/>
	<path fill="#161616" d="M343.966,265.716c0,0-1.385-2.619-3.201,0c0,0-4.314,4.854-2.172,6.998c0,0,3.393,3.939,4.645,3.939h6.785
		c0,0-2.945-5.727-4.91-6.887C345.112,269.767,344.548,266.452,343.966,265.716z"/>
	<path fill="#AC8150" d="M307.595,36.936l40.334,31.59c0,0,4,24.323-13.667,32.743l-0.333,9c0,0-5,4.167-9.667,0l-0.083-8.25
		c0,0-28.208-13.417-23.333-39.667L307.595,36.936z"/>
	<path fill="#443119" enable-background="new    " d="M309.783,71.712c0,0-2.056-3.736,0.61-6.57c0,0,6.291-5.708,11.083,2.792
		c0,0,0.5,1.869-0.828,4.192L309.783,71.712z"/>
	<ellipse fill="#E3E6F0" enable-background="new    " cx="315.267" cy="70.434" rx="5.625" ry="5.792"/>
	<ellipse fill="#8FA1C4" enable-background="new    " cx="315.75" cy="70.434" rx="2.273" ry="2.304"/>
	<ellipse fill="#314461" enable-background="new    " cx="315.281" cy="70.648" rx="1.253" ry="1.27"/>
	<path fill="#372117" enable-background="new    " d="M338.812,71.712c0,0,2.056-3.736-0.61-6.57c0,0-6.291-5.708-11.083,2.792
		c0,0-0.5,1.869,0.828,4.192L338.812,71.712z"/>
	<ellipse fill="#E3E6F0" enable-background="new    " cx="333.328" cy="70.434" rx="5.625" ry="5.792"/>
	<ellipse fill="#8FA1C4" enable-background="new    " cx="330.72" cy="70" rx="2.273" ry="2.304"/>
	<ellipse fill="#314461" enable-background="new    " cx="330.262" cy="70.434" rx="1.253" ry="1.27"/>
	<path fill="#432F2E" enable-background="new    " d="M319.643,88.392c0,0,11.834,1.583,12.5-4.25
		C332.143,84.142,333.06,91.809,319.643,88.392z"/>
	<path fill="#806145" d="M322.476,73.142l-3.188,6.75c0,0-0.625,1.938,1.125,1.938h4.875l-4.75-0.813c0,0-0.896-0.5-0.375-1.438
		L322.476,73.142z"/>
	<path fill="#341D17" d="M347.929,70.436c0,0-26.334-9.667-37.334-28.333c0,0-18,33,7,56.333c0,0,4.461,28-13.27,14.667
		c0,0,9.73,0.333,0-7.333c0,0-8.397-3.667-7.064-13.667c0,0-12-9-8.667-22.667c0,0,5.667-15.334,6.5-21.667
		c0,0,3.5-27.667,19.667-22.667c0,0,22.167-17.667,42.333,12.667c0,0,7.166,25.334,11.832,27.667c0,0,5.336,8-2.166,15.167
		c0,0-8.333,2.333-5.333,14.667c0,0,1.999,4.834-8.667,13.167c0,0-1.5,4.5,4.5,3.333c0,0,1.501-0.167,2.501-4.167
		c0,0,1.333,7.333-6.833,5.167c0,0-0.167,2.333,5.666,2.333c0,0-8,6.833-16.5-5l-1-12.333
		C341.095,97.769,350.095,85.436,347.929,70.436z"/>
	<path fill="#5A789B" d="M341.595,113.353l-3.625-0.625v-1.375l2.5-0.25l-6.208-9.833c0,0-0.204,19.208-4.873,26.833
		c0,0-5.575-22.625-5.21-26.083l-4.998,9.333l3.054,0.769v0.606l-4.211,1.375c0,0,11.026,12.25,10.986,17"/>
	<path fill="#E8E8E8" d="M325.548,111.213c0,0,3.299,2.541,8.173-0.785c0,0-0.788,12.008-4.332,17.674
		C329.389,128.103,326.146,114.266,325.548,111.213z"/>
	<rect x="337.428" y="126.269" fill="#E8E8E8" width="8" height="2.167"/>
	<rect x="314.428" y="126.269" fill="#E8E8E8" width="8" height="2.167"/>
</g>
<g>
	<path fill="#323232" d="M499.947,253.515c0,0,2.74,8.59,3.74,12.59c0,0,3.536-0.656,5.063,1.843l5.75-15.885
		C514.5,252.063,502.479,250.216,499.947,253.515z"/>
	<path fill="#323232" d="M472.122,253.482c0,0,2.712,13.182,5.378,14.465c0,0,2.034-2.533,4.309,0c0,0,4.635-11.249,4.461-14.427
		C486.27,253.521,474.727,250.896,472.122,253.482z"/>
	<g>
		<path fill="#EBC9B0" d="M467.567,140.197c0,0-5.379,34.697-3.252,42.47c0,0-2.159,6.978-1.761,9.869c0,0-0.1,3.588,3.289,5.581
			l4.088,3.289c0,0,3.688,3.489,2.79-0.599c0,0-3.189-3.388-2.293-7.276c0,0,0.699-2.69,1.895,0.201c0,0-0.499,8.372,1.494,3.985
			c0,0,0.947-7.375-1.046-10.017c0,0-2.592-4.286-3.489-4.884l4.337-41.648L467.567,140.197z"/>
		<path fill="#EBC9B0" d="M520.196,140.197c0,0,4.625,34.697,2.5,42.47c0,0,2.158,6.978,1.76,9.869c0,0,0.1,3.588-3.289,5.581
			l-4.088,3.289c0,0-3.688,3.489-2.789-0.599c0,0,3.188-3.388,2.291-7.276c0,0-0.697-2.69-1.893,0.201c0,0,0.498,8.372-1.496,3.985
			c0,0-0.947-7.375,1.047-10.017c0,0,2.592-4.286,3.488-4.884l-4.336-41.648L520.196,140.197z"/>
		<path fill="#1D3754" d="M488.017,110.622c0,0-18.012,0.251-18.762,11.751c0,0-6.125,55.375-6.75,58.75h9
			c0,0,1.375-38,4.625-42.125c0,0,2.846,4,2.923,19.75s0,0.5,0,0.5s-6.931,6.5-1.239,11.75l-1.6,17.5l-3.097,65.977
			c0,0,7.127-2.33,9.627,0.337l6.47-68.146c0,0,3.667-4.833,7.334-0.5l3.982,67.704c0,0,10.118-2.41,12.784-0.577l-3.767-35.627
			v-46.959c0,0,7-0.374,0-13.541c0,0-0.501-14.102,1.332-16.968c0,0,5.334,17.968,4.667,40.468l8.958-0.167
			c0,0-2.875-57.074-6.875-60.037c0,0-1.75-8.213-16.75-10.963L488.017,110.622z"/>
		<path fill="#161616" d="M477.5,267.947c0,0,2.313-3.03,4.309,0c0,0,1.546,6.018-0.597,8.162c0,0-3.393,3.939-4.645,3.939h-6.785
			c0,0,2.945-5.727,4.91-6.887C474.692,273.162,476.918,268.684,477.5,267.947z"/>
		<path fill="#161616" d="M508.75,267.947c0,0-2.5-4.468-5.063-1.843c0,0-3.452,7.86-1.31,10.005c0,0,3.393,3.939,4.645,3.939h6.786
			c0,0-2.011-5.564-3.976-6.725C509.833,273.324,509.332,268.684,508.75,267.947z"/>
		<path fill="#5A789B" d="M504.446,117.75l-3.625-0.625v-1.375l2.5-0.25l-6.207-9.833c0,0-0.205,19.208-4.873,26.833
			c0,0-3.163-23.661-3.273-26.833l-6.936,10.083l3.055,0.769v0.606l-4.212,1.375c0,0,11.026,12.25,10.986,17"/>
		<path fill="#E8E8E8" d="M489.613,113.824c0,0,2.262,2.981,7.137-0.344c0,0-0.966,13.354-4.509,19.021
			C492.241,132.5,489.75,117.136,489.613,113.824z"/>
		<rect x="501.214" y="129.665" fill="#E8E8E8" width="8" height="2.167"/>
		<rect x="478.214" y="129.665" fill="#E8E8E8" width="8" height="2.167"/>
	</g>
	<path fill="#EBC9B0" d="M470.333,63.994v14.736c0,0-5.5-15.5-6.833,0.833c0,0,2.651,12.667,8.242,8.833
		c0,0,2.86,16.938,17.226,17.271l0.646,8.157c0,0,2.804,4.156,7.137-0.344l0.417-7.583c0,0,15-1.167,15-18.333c0,0,6,5,9.333-11
		c0,0,0.499-11.667-5.667-4.5c0,0-2.846,5-2.923,7c0,0,1.401-13.24-2.826-17.185L470.333,63.994z"/>
	<path fill="#763635" d="M464.686,63.873c0,0-1.152,8.762,3.515,10.262c0,0,1.644,2.876,2.144,4.543l-0.011-14.684L464.686,63.873z"
		/>
	<path fill="#763635" d="M509.787,61.913c0,0,3.4,13.456,3.157,16.789c0,0,3.883-6.503,4.889-17.888
		C517.833,60.813,511.371,60.099,509.787,61.913z"/>
	<g>
		<polygon fill="#FFCD05" points="484.781,20.599 484.781,16.591 488.037,16.591 488.968,19.167 		"/>
		<path fill="#FFCD05" d="M458.732,63.602c0,0,32.794,2.361,66.053-4.508l-6.745-2.362c0,0,8.373-30.266-29.072-37.564
			c0,0-35.352,1.717-26.049,41L458.732,63.602z"/>
		<path fill="#FEE580" d="M477.804,23.246c0,0-22.095,5.367-14.652,36.708l-4.651,3.433c0,0,43.492,1.718,66.75-4.078
			c0,0-54.645,3.556-59.308,2.791c0,0-5.582-29.409,9.304-36.277c0,0-5.35,19.104-2.326,33.701c0,0,5.387,4.121,2.326-5.581
			C475.246,53.942,473.851,28.398,477.804,23.246z"/>
		<path fill="#888888" d="M509.869,48.604c0,0,5.78,1.875,8.843,3.938l-0.503,3.563l-11.101,0.375L509.869,48.604z"/>
		<path fill="#808080" d="M464.005,48.744c0,0-1.546,9.308,4.881,11.241s0,0.245,0,0.245s-4.136,2.313-7.886-1.375
			C461,58.854,455.697,50.008,464.005,48.744z"/>
		<path fill="#3F403F" d="M504.125,50.563h5.958c0,0-2.834,10.875-12.5,10.917c0,0-5.249-0.417-12.416-3.917
			c0,0-5.709-2.125-10.084,0.083c0,0-7.208,10.208-14.791,1.75c0,0-7.709-8.875,5.958-14.792c0,0,22.75-7.5,39.668-2.042
			c0,0,4.247,3.292,4.165,8H504.125c0,0,1.252-6.583-8.207-6.042c0,0-22.543-0.042-28.834,3.042c0,0-11.209,2.542-4.834,10.979
			c0,0,6.792,5.924,11.125-3.625c0,0,4.25-8.5,14.063,0.75c0,0,6.25,5.875,10.063,4.75C497.5,60.417,503.333,59.188,504.125,50.563z
			"/>
	</g>
	<path fill="#333333" d="M485.667,64.729c0,0-7.501-1.667-9.834,2c0,0-0.166,2.716,1.667,2.691
		C477.5,69.421,483.667,65.063,485.667,64.729z"/>
	<path fill="#333333" d="M493.5,64.352c0,0,8.999-2.955,12.833,1.711c0,0-0.5,2.5-1.5,2.667
		C504.833,68.729,497.833,63.807,493.5,64.352z"/>
	<ellipse fill="#FDFBFA" cx="482.417" cy="74.604" rx="3.25" ry="3.292"/>
	<ellipse fill="#333333" cx="482.417" cy="74.604" rx="1.542" ry="1.563"/>
	<ellipse fill="#FDFBFA" cx="498.417" cy="74.604" rx="3.25" ry="3.292"/>
	<ellipse fill="#333333" cx="498.417" cy="74.604" rx="1.542" ry="1.563"/>
	<path fill="#BEA28E" d="M488.125,82.542c0,0-7.125,8,2.563,6.688C490.688,89.229,483.625,89.667,488.125,82.542z"/>
	<path fill="#796052" d="M482.417,95.667c0,0,15.583,2.25,21.458-3.188C503.875,92.479,499.021,100.042,482.417,95.667z"/>
	<path fill="#1D3754" d="M509.548,171.495c0,0,5.452,64.067,4.952,80.567c0,0-5.5,7.5-15,1.167l-5.994-68.857
		c0,0-1.863-0.83-2.185,0.514L487,252.896c0,0-8.833,8.5-15.5-0.167l6.313-81.731L509.548,171.495z"/>
</g>
</svg>
