<?xml version="1.0" encoding="utf-8"?>
<!-- Generator: Adobe Illustrator 16.0.0, SVG Export Plug-In . SVG Version: 6.00 Build 0)  -->
<!DOCTYPE svg PUBLIC "-//W3C//DTD SVG 1.1//EN" "http://www.w3.org/Graphics/SVG/1.1/DTD/svg11.dtd">
<svg version="1.1" id="Layer_1" xmlns="http://www.w3.org/2000/svg" xmlns:xlink="http://www.w3.org/1999/xlink" x="0px" y="0px"
	 width="684px" height="296px" viewBox="0 0 684 296" enable-background="new 0 0 684 296" xml:space="preserve">
<rect fill="#B0BCAE" width="684" height="296"/>
<g>
	<path fill="#E2C193" d="M166.048,163.782c0,0,2.162-6.457,6-1.094c0,0-0.302,5.002,0.906,6.436c0,0,1.711,4.455-0.373,7.109
		c0,0-6.819,7.037-9.26,6.967c0,0-1.153-2.011,1.289-4.455c0,0,1.22-3.804,0.357-5.24c0,0-1.288-0.72-0.929,3.803
		c0,0,0.214,3.018-1.655,1.294c0,0-1.501-5.887,0.937-9.909C163.322,168.694,165.578,164.844,166.048,163.782z"/>
	<path fill="#E2C193" d="M121.224,169.222c2.438,4.021,0.937,9.909,0.937,9.909c-1.869,1.723-1.655-1.294-1.655-1.294
		c0.359-4.522-0.929-3.803-0.929-3.803c-0.862,1.437,0.358,5.239,0.358,5.239c2.442,2.445,1.289,4.455,1.289,4.455
		c-2.441,0.07-9.26-6.966-9.26-6.966c-2.084-2.655-0.374-7.11-0.374-7.11c1.208-1.433,0.906-6.435,0.906-6.435
		c3.839-5.364,6.001,1.094,6.001,1.094C118.967,165.373,121.223,169.223,121.224,169.222z"/>
	<path fill="#D3DADD" d="M123.646,95.086c0,0-4.07,1.4-4.778,6.236c0,0-7.431,46-6.605,61.806h7.431c0,0,1.418-40.339,3.953-43.523
		C123.646,119.604,128.66,105.363,123.646,95.086z"/>
	<path fill="#D3DADD" d="M161.33,95.086c0,0,6.605-1.902,9.318,30.416l2.123,37.626h-7.549c0,0-0.708-35.699-3.892-42.737
		C161.33,120.391,158.499,108.901,161.33,95.086z"/>
	<path fill="#414141" d="M124.826,157.363c0,0-0.908,4.23,1.049,8.241c0,0-1.565,67.702-0.629,91.292c0,0,3.887-0.235,5.006,2.831
		l7.017-89.405c0,0,6.133,1.651,9.2-0.235c0,0,7.549,60.39,6.369,89.641c0,0,1.651-3.066,5.897,0l-1.415-95.538
		c0,0,2.831-2.521,1.415-6.333C158.734,157.856,137.625,149.123,124.826,157.363z"/>
	<path fill="#171717" d="M153.238,257.403c0,0-5.229,5.378-1.494,8.963c0,0,3.883,4.032,6.124,3.883l8.214,0.006
		c0,0-7.467-10.162-8.214-12.852C157.869,257.403,155.717,253.454,153.238,257.403z"/>
	<path fill="#171717" d="M124.987,257.403c-0.747,2.689-8.213,12.852-8.213,12.852l8.213-0.006c2.241,0.149,6.124-3.883,6.124-3.883
		c3.735-3.585-1.494-8.963-1.494-8.963C127.139,253.454,124.987,257.403,124.987,257.403z"/>
	<path fill="#695175" d="M123.646,95.086c0,0,4.778,8.634,0,25.147l-3.048,35.856c0,0,25.634,9.122,41.99,0l-1.258-35.699
		c0,0-2.831-13.337,0-25.304l-8.493-0.801l-22.585-0.158L123.646,95.086z"/>
	<polygon fill="#828282" points="132.925,92.555 131.764,93.489 140.84,110.09 141.388,110.09 151.815,93.489 150.4,92.555 	"/>
	<polygon fill="#D3DADD" points="136.744,89.518 132.925,92.555 137.572,99.553 140.492,95.307 141.334,95.071 144.896,100.654 
		150.4,92.555 146.586,89.774 	"/>
	<polygon fill="#493851" points="131.764,93.489 130.251,94.127 140.84,112.763 141.334,112.763 152.837,94.285 151.815,93.489 
		141.388,110.09 140.84,110.09 	"/>
	<g>
		<path fill="#E2C193" d="M146.586,85.631c-0.002,0-3.485-2.326-7.601-0.03"/>
		<path fill="#E2C193" d="M146.017,85.76c0,0,12.09-0.589,15.982-19.874c0,0,6.075,5.484,9.26-7.845c0,0,3.303-20.936-6.429-6.369
			L162.412,25.9c0,0.001-17.928-21.642-44.584-1.532c0,0-3.067,26.106-1.18,28.15c0,0-8.197-8.749-6.546,5.112
			c0,0,1.71,12.974,9.141,8.374c0,0,5.544,18.459,18.165,19.756l-0.663,3.758l4.096,3.971h0.838l4.909-3.715L146.017,85.76z"/>
		<path fill="#3E3E3E" d="M116.766,52.558l2.005-27.482c0,0,24.887,6.369,40.103,5.426c0,0-2.123,3.185,0.472,8.315
			c0,0,3.42,5.604,2.831,13.742h2.595c0,0,3.774-12.974,2.831-31.846c0,0,0.236-0.472,0.151-1.062l-0.23-1.887
			c0,0-0.215-0.531-0.787-1.179c0,0-24.218-21.467-41.36-3.539h-6.763c0,0-6.92,5.111-7.549,7.155c0,0-0.943,1.416,2.674,1.416
			C113.738,21.615,112.087,54.877,116.766,52.558z"/>
		<path fill="#3E3E3E" d="M139.362,39.612c0,0,10.505-5.799,16.681,2.056l-1.574,4.403C154.469,46.07,147.215,38.345,139.362,39.612
			z"/>
		<path fill="#3E3E3E" d="M134.655,41.352c0,0-8.806-2.988-11.009,2.438l1.572,2.281C125.218,46.07,126.95,41.352,134.655,41.352z"
			/>
		<circle fill="#FFFFFF" cx="130.251" cy="51.524" r="3.539"/>
		<circle fill="#333333" cx="131.195" cy="51.524" r="1.73"/>
		<circle fill="#FFFFFF" cx="147.235" cy="51.524" r="3.539"/>
		<circle fill="#333333" cx="147.235" cy="51.524" r="1.73"/>
		<path fill="#938470" d="M138.02,49.794c0,0-11.395,21.989,3.314,17.153C141.334,66.947,129.551,70.858,138.02,49.794z"/>
		<path fill="#594638" d="M133.811,73.435c0,0,10.084,2.477,15.154-2.477C148.965,70.958,145.431,77.563,133.811,73.435z"/>
		<path fill="#594638" d="M146.312,68.894c0,0,2.241,2.359,4.778,3.303c0,0-2.831-0.59-5.014-3.303"/>
	</g>
</g>
<g>
	<path fill="#E4BB98" d="M350.379,121.861l2.707,36.708c-0.787,0.525-3.06,4.285-3.06,4.285c-1.749,2.316-0.919,8.785-0.919,8.785
		c1.748,3.85,1.312-3.496,1.312-3.496c1.05-2.535,1.662-0.176,1.662-0.176c0.786,3.412-2.012,6.383-2.012,6.383
		c-0.788,3.582,2.448,0.523,2.448,0.523l3.586-2.885c2.975-1.748,2.886-4.895,2.886-4.895c0.351-2.537-0.624-8.654-0.624-8.654
		c1.863-6.82-1.404-37.762-1.404-37.762L350.379,121.861z"/>
	<path fill="#E4BB98" d="M307.22,115.533c0,0-5.352,30.942-3.488,37.762c0,0-0.975,6.117-0.625,8.654c0,0-0.088,3.146,2.886,4.895
		l3.585,2.885c0,0,3.236,3.059,2.448-0.525c0,0-2.797-2.969-2.011-6.381c0,0,0.612-2.359,1.662,0.176c0,0-0.437,7.346,1.311,3.496
		c0,0,0.831-6.471-0.918-8.785c0,0-2.273-3.762-3.06-4.285l2.707-36.708L307.22,115.533z"/>
	<path fill="#E2C193" d="M314.819,233.398v21.396h4.973l1.269-21.543C321.061,233.252,316.629,231.965,314.819,233.398z"/>
	<path fill="#E2C193" d="M340.41,234.332l1.66,20.463h4.467v-19.711C346.537,235.084,341.893,233.006,340.41,234.332z"/>
	<path fill="#986828" d="M314.819,158.537v72.73h6.517c0,0,4.118-58.998,5.735-62.584h8.235c0,0,5.25,46.205,5.104,62.527
		l6.018,0.533v-69.443c0,0,1.768-0.988,1.876-5.477C348.304,156.824,326.996,147.31,314.819,158.537z"/>
	<path fill="#F0F3F4" d="M322.801,94.768l-13.669,3.372c0,0-5.588,33.721-5.588,41.221h7.353c0,0,1.618-25.439,3.97-28.454
		l-3.088,45.218l4.264,3.381c0,0,26.689,2.133,31.615-1.102l2.795-6.838l-1.802-7.28c0,0,0.185-18.013,0.772-19.41
		c0,0,1.984,6.985,1.984,15.219l7.721,0.147c0,0-0.883-36.321-5.735-41.615l-16.306-4.412L322.801,94.768z"/>
	<path fill="#C6D3DB" d="M322.801,94.768l2.712-4.067c0,0,1.668,0.262,3.93,3.515h2.813l3.872-2.797c0,0,1.311,0.922,0.87,3.349
		l-3.525,4.191l-1.658-0.938l-2.703,0.22l-2.536,2.316L322.801,94.768z"/>
	<path fill="#4E1B1A" d="M331.41,96.53c0,0,2.793-2.647,4.779-2.279c0,0,0.514,3.088-1.986,3.676c0,0,2.133,2.279,1.691,4.118
		c0,0-3.307,0.368-4.484-2.206l-1.471-0.147v-3.088L331.41,96.53z"/>
	<path fill="#4E1B1A" d="M328.586,96.53c0,0-2.793-2.647-4.779-2.279c0,0-0.514,3.088,1.985,3.676c0,0-2.132,2.279-1.691,4.118
		c0,0,3.308,0.368,4.485-2.206l1.471-0.147v-3.088L328.586,96.53z"/>
	<g>
		<path fill="#E2C193" d="M309.412,72.603c0,0,5.261,18.319,17.163,18.802l2.868,2.812h2.813c0,0,2.904-1.639,4.355-3.299
			c0,0,7.962,2.11,15.201-18.878c0,0,5.971,4.101,8.564-7.539c0,0,4.645-21.833-6.576-4.825l-2.23-27.26l-23.038-2.835
			l-21.291,3.438l-0.905,12.243l-0.182,9.349l1.006,4.323c0,0-8.363-9.971-6.753,4.18C300.408,63.113,303.462,75.176,309.412,72.603
			"/>
		<path fill="#333333" d="M307.321,60.461l0.401-24.527c0,0,39.484-5.79,42.139,2.413c0,0-2.896,8.523,1.688,14.393l0.804,10.053
			l4.181-8.846c0,0,3.296-19.379,0-30.075c0,0-15.923-14.635-30.236-14.876c0,0,1.206,3.217,1.368,4.101
			c0,0-8.685-4.262-14.315-4.101c0,0,1.851,2.815,0.723,4.745c0,0-11.256-4.914-15.438-4.749c0,0-0.884,7.965,2.092,10.459
			c0,0-5.711-2.493-5.79-3.86c0,0-2.654,19.62,8.763,18.333C303.703,33.924,300.408,50.972,307.321,60.461z"/>
		<path fill="#403E3E" d="M325.576,50.329c0,0-7.72-1.327-10.253,1.81c0,0,2.533-5.187,10.253-3.499V50.329z"/>
		<path fill="#403E3E" d="M333.053,49.203l1.119,2.091c0,0,8.061-1.608,10.352,1.287C344.523,52.581,342.363,47.151,333.053,49.203z
			"/>
		<path fill="#AA9376" d="M328.47,60.461c0,0-2.834,7.679-5.669,9.85c0,0,2.05,4.222,5.669,2.936c0,0-4.458-1.715-4.904-2.613
			C323.566,70.634,328.108,64.441,328.47,60.461z"/>
		<path fill="#333333" d="M335.676,58.16c0,0,4.551-2.394,6.48,2.301C342.156,60.461,336.792,59.125,335.676,58.16z"/>
		<path fill="#333333" d="M324.788,58.16c0,0-4.553-2.394-6.483,2.301C318.305,60.461,323.669,59.125,324.788,58.16z"/>
		<path fill="#785F4C" d="M324.788,80.353c0,0,11.819,3.377,17.368-2.894C342.156,77.459,337.09,86.144,324.788,80.353z"/>
	</g>
	<path fill="#797979" d="M320.455,95.172l-6.838,1.691c0,0,1.838,13.087-0.515,18.087l-0.809,38.087l9.264,9.264l7.941-9.043
		l1.268,0.072l7.996,8.014l11.617-9.631c0,0-2.646-13.823-0.955-26.836c0,0-5.871-8.992,0.085-27.3l-8.487-2.296
		c0,0-10.09,36.801-10.256,37.168h-1.562L320.455,95.172z"/>
	<polygon fill="#D9DDDD" points="302.478,139.213 312.293,139.213 311.521,144.949 301.265,144.949 	"/>
	<rect x="350.894" y="140.096" fill="#D9DDDD" width="10.437" height="6.287"/>
	<polygon fill="#CCB27F" points="313.947,231.027 321.999,231.027 321.723,233.398 313.947,233.398 	"/>
	<polygon fill="#CCB27F" points="339.534,231.027 348.304,231.744 347.641,235.219 339.534,234.227 	"/>
	<path fill="#323232" d="M341.406,254.795h6.652v5.162c0,0,13.678,6.73,4.561,10.719c0,0-5.001,1.633-8.53-5.572
		c0,0-0.735-4.281-3.234-4.281L341.406,254.795z"/>
	<path fill="#323232" d="M320.075,254.795h-6.653v5.162c0,0-13.676,6.73-4.56,10.719c0,0,5.001,1.633,8.53-5.572
		c0,0,0.735-4.281,3.235-4.281L320.075,254.795z"/>
</g>
<g>
	<path fill="#414141" d="M498.874,154.107c0,0-0.305,5.729,1.479,9.381c0,0-1.426,70.249-0.574,91.732c0,0,3.54-0.215,4.56,2.577
		l6.39-90.013c0,0,5.586,1.503,8.379-0.215c0,0,6.874,63.589,5.8,90.228c0,0,1.504-2.792,5.371,0l-1.289-95.599
		c0,0,2.938-2.914,1.649-6.385C530.638,155.814,510.529,146.604,498.874,154.107z"/>
	<path fill="#171717" d="M525.272,255.682c0,0-4.762,4.897-1.361,8.162c0,0,3.536,3.672,5.577,3.536l7.48,0.005
		c0,0-6.801-9.254-7.48-11.703C529.488,255.682,527.529,252.085,525.272,255.682z"/>
	<path fill="#171717" d="M499.544,255.682c-0.68,2.449-7.479,11.703-7.479,11.703l7.479-0.005c2.041,0.136,5.577-3.536,5.577-3.536
		c3.401-3.265-1.36-8.162-1.36-8.162C501.503,252.085,499.544,255.682,499.544,255.682z"/>
	<path fill="#E2C193" d="M537.699,164.492c0,0,1.969-5.882,5.465-0.997c0,0-0.274,4.555,0.826,5.86c0,0,1.558,4.057-0.341,6.476
		c0,0-6.21,6.407-8.432,6.344c0,0-1.051-1.831,1.173-4.059c0,0,1.111-3.462,0.325-4.771c0,0-1.173-0.654-0.846,3.465
		c0,0,0.195,2.747-1.507,1.178c0,0-1.366-5.362,0.854-9.024C535.218,168.965,537.271,165.459,537.699,164.492z"/>
	<path fill="#E2C193" d="M495.253,169.895c2.22,3.662,0.854,9.024,0.854,9.024c-1.701,1.569-1.507-1.179-1.507-1.179
		c0.327-4.118-0.846-3.464-0.846-3.464c-0.786,1.31,0.325,4.771,0.325,4.771c2.224,2.228,1.174,4.059,1.174,4.059
		c-2.223,0.063-8.433-6.344-8.433-6.344c-1.898-2.419-0.341-6.476-0.341-6.476c1.102-1.306,0.826-5.86,0.826-5.86
		c3.496-4.885,5.465,0.996,5.465,0.996C493.198,166.39,495.253,169.896,495.253,169.895z"/>
	<path fill="#3C3C3C" d="M526.317,85.632c0,0,2.562,2.988,5.462,2.881c0,0-0.645-0.752-0.752-2.148c0,0,1.611-0.945,4.082,0.709
		c0,0-0.859-3.287,0-4.146c0,0,4.511,0.644,5.263,2.041c0,0-3.544-5.156-3.222-6.552c0,0,6.223,0.645,6.603,1.396
		c0,0-4.025-4.189-3.703-5.693c0,0,1.826-0.752,3.008,0c0,0-2.242-3.527-1.622-4.896C541.436,69.223,530.953,68.358,526.317,85.632z
		"/>
	<path fill="#3C3C3C" d="M496.522,77.831c0,0,1.156,3.593,0,6.708c0,0,1.521-2.394,2.922-2.271c0,0,2.903,2.378,2.581,7.857
		c0,0,5.392-0.51,6.81,0.023C508.835,90.148,504.445,75.743,496.522,77.831z"/>
	<path fill="#E2C193" d="M493.97,72.616c0,0,5.979,15.755,17.508,18.404h7.734c0,0,13.91-8.575,15.683-17.867
		c0,0,6.391,2.363,8.593-10.688c0,0,1.719-7.841-3.599-7.841c0,0-3.92-31.848-28.572-27.874c0,0-12.782,0.591-18.26,9.077
		c0,0-4.512,15.844-0.806,24.115c0,0-3.545-4.297-5.801-1.504c0,0-2.632,5.532,0,9.345C486.45,67.782,488.169,76.697,493.97,72.616z
		"/>
	<path fill="#3C3C3C" d="M493.433,64.237c0,0-0.322-11.923,1.719-15.79c0,0,2.255-4.833,0-12.353h6.552
		c0,0,13.427,12.138,31.15,15.36l1.074,13.803h0.645c0,0,1.987-11.654,8.593-9.292c0,0-0.215-1.665,2.686-1.933v-1.611
		c0,0-1.021-0.967-4.243-0.752c0,0,0.322-0.645,3.33-0.994c0,0-2.739-4.699-5.049-5.075c0,0,9.329-22.825-30.129-29.986h-3.58
		c0,0-7.806,6.445-7.734,11.099c0,0-10.957-5.729-9.381,9.524c0,0,0.503,13.247-4.296,15.682c0,0,2.363,0.931,3.438,1.647
		c0,0-2.077,2.004-2.937,2.076c0,0,7.161,2.148,7.448,8.808L493.433,64.237z"/>
	<path fill="#333333" d="M515.774,51.24c0,0,13.534-4.404,12.03,4.404c0,0-7.304-3.007-11.386-2.148L515.774,51.24z"/>
	<path fill="#333333" d="M509.866,51.67c0,0-10.634-3.867-10.419,2.792h1.504c0,0,5.264-2.578,8.915-1.181V51.67z"/>
	<ellipse fill="#FFFFFF" cx="520.662" cy="59.35" rx="3.491" ry="3.168"/>
	<ellipse fill="#333333" cx="520.662" cy="59.35" rx="1.821" ry="1.652"/>
	<ellipse fill="#FFFFFF" cx="504.335" cy="59.35" rx="3.491" ry="3.168"/>
	<ellipse fill="#333333" cx="504.335" cy="59.35" rx="1.821" ry="1.652"/>
	<path fill="#B29777" d="M509.866,65.258c0,0-6.193,4.852,0.537,7C510.403,72.258,505.392,69.5,509.866,65.258z"/>
	<path fill="#513D2D" d="M507.826,80.636c0,0,11.852,1.074,12.836-3.223l1.187,0.859C521.849,78.273,518.639,83.572,507.826,80.636z
		"/>
	<path fill="#513D2D" d="M519.427,75.337c0,0,0.609,4.131,4.727,3.509C524.153,78.846,521.79,79.168,519.427,75.337z"/>
	<path fill="#E2C193" d="M511.478,91.02c0,0-0.859,4.798-1.074,5.335v6.337h10.259l-0.698-6.337l-0.752-5.335
		C519.212,91.02,515.989,88.908,511.478,91.02z"/>
	<path fill="#A03E24" d="M510.977,93.719c0,0-0.144,0.739-0.573,2.528c0,0,3.867,3.581,3.581,6.087h2.65c0,0,0.357-6.23,3.365-6.302
		c0,0-0.267-1.317-0.573-2.148v-1.34c0,0,4.082,0.902,3.151,3.842l10.92,4.157l0.269,19.818l1.269,32.923c0,0-15.767,12.46-38.513,0
		l1.313-32.01l0.752-22.235l8.057-2.578C506.645,96.462,508.095,93.964,510.977,93.719z"/>
	<path fill="#D8B98C" d="M533.605,120.2c0,0-15.629-19.227-9.52-23.054c0,0-4.283-1.222,12.098,3.343c0,0,8.264,37.971,7.569,55.479
		h-7.497C536.256,155.969,535.252,122.241,533.605,120.2z"/>
	<path fill="#D8B98C" d="M496.89,119.589c0,0,15.629-19.228,9.52-23.054c0,0,4.283-1.222-12.098,3.343c0,0-8.264,37.971-7.569,55.48
		h7.497C494.239,155.358,495.243,121.629,496.89,119.589z"/>
	<polygon fill="#A03E24" points="536.256,155.969 536.256,164.24 543.794,164.24 543.753,155.969 	"/>
	<polygon fill="#A03E24" points="486.742,155.358 494.239,155.358 493.755,164.24 486.701,164.24 	"/>
	<polygon fill="#D8B98C" points="524.261,136.527 524.261,133.842 525.656,133.842 531.887,143.938 530.598,145.979 	"/>
	<polygon fill="#D8B98C" points="505.355,136.527 505.355,133.842 503.959,133.842 497.729,143.938 499.018,145.979 	"/>
</g>
</svg>
