<?xml version="1.0" encoding="utf-8"?>
<!-- Generator: Adobe Illustrator 16.0.0, SVG Export Plug-In . SVG Version: 6.00 Build 0)  -->
<!DOCTYPE svg PUBLIC "-//W3C//DTD SVG 1.1//EN" "http://www.w3.org/Graphics/SVG/1.1/DTD/svg11.dtd">
<svg version="1.1" id="Layer_1" xmlns="http://www.w3.org/2000/svg" xmlns:xlink="http://www.w3.org/1999/xlink" x="0px" y="0px"
	 width="684px" height="296.64px" viewBox="0 0 684 296.64" enable-background="new 0 0 684 296.64" xml:space="preserve">
<rect x="-39.667" y="-58.333" fill="#A7C5C5" width="762" height="418.667"/>
<g>
	<g>
		<path fill="#CE9D7D" enable-background="new    " d="M107.287,174.819c0,0-2.32-6.922-6.434-1.175c0,0,0.324,5.363-0.971,6.902
			c0,0-1.834,4.773,0.398,7.622c0,0,7.308,7.545,9.929,7.468c0,0,1.235-2.156-1.383-4.773c0,0-1.309-4.08-0.385-5.62
			c0,0,1.386-0.77,1,4.081c0,0-0.23,3.233,1.771,1.386c0,0,1.61-6.313-1.004-10.625C110.208,180.085,107.79,175.957,107.287,174.819
			z"/>
		<path fill="#CE9D7D" enable-background="new    " d="M150.359,174.819c0,0,2.32-6.922,6.434-1.175c0,0-0.324,5.363,0.971,6.902
			c0,0,1.834,4.773-0.398,7.622c0,0-7.308,7.545-9.929,7.468c0,0-1.235-2.156,1.383-4.773c0,0,1.309-4.08,0.385-5.62
			c0,0-1.386-0.77-1,4.081c0,0,0.23,3.233-1.771,1.386c0,0-1.61-6.313,1.004-10.625
			C147.438,180.085,149.856,175.957,150.359,174.819z"/>
		<path fill="#161616" d="M117.5,260.75v2.334c0,0-0.417,6.251-3.25,7.917c0,0-5.5,2.5-5.917,1c0,0,0.25-3.688,1.5-5.386
			c0,0,2.568-2.621,2.667-5.865C112.5,260.75,115.5,256.916,117.5,260.75z"/>
		<path fill="#161616" d="M139.5,259.5l-0.833,2.834c0,0,0.417,6.251,3.25,7.917c0,0,5.5,2.5,5.917,1c0,0-0.25-3.688-1.5-5.386
			c0,0-2.861-1.871-2.959-5.115C143.375,260.75,141.5,255.666,139.5,259.5z"/>
		<path fill="#161B45" d="M122.375,106.875l-13.75,6.75c0,0-2,2.25-2.125,5.75c0,0-6.875,42.75-6.375,54.625h7.125
			c0,0,2.724-30.75,3.987-35.125l1.388-0.375c0,0-0.375,19.75,0.875,24.25l1,11.25c0,0-1.5,71.5-2,86.75c0,0,2.875-3,5,0l7.063-80.5
			l8,0.063L139.5,259.5c0,0,3.5-0.25,3.875,1.25V174.5c0,0,4.5,1.375,4.25-29l0.625,0.125l2.125,28.25l7.125,0.375
			c0,0-2.125-47.625-5.75-57.125c0,0-2.25-8.375-16.5-10.875L122.375,106.875z"/>
		<path fill="#10152D" d="M123.563,103.313c0,0-3.438,4.188,1.25,10.875l4.188-4.313l3.438,4.313c0,0,5.813-7.188,1.188-10.875
			H123.563z"/>
		<path fill="#101327" d="M127.45,111.472c0,0,0.738,0.841,1.196,1.049h0.604c0,0,1.127-0.556,1.23-0.789l-1.48-1.857
			L127.45,111.472z"/>
		<g>
			<path fill="#333333" d="M101.943,57.797v12.202L109.5,80.5h30.833l11-0.833L154.5,72.5l-1.012-4.25
				c0,0,3.698-16.201-1.229-17.475L104.5,52L101.943,57.797z"/>
			<path fill="#E2C193" d="M105.667,75.167c0,0-3.333-10.833-6.5-1.167c0,0,2.333,17.333,7.833,10.833
				c0,0,5.833,17.166,17.333,17.833c0,0,1.073,2.865,1.073,3.771c0,0,3.625,4.344,7.094-0.156v-3.938c0,0,9.667,0.823,13.667-17.01
				c0,0,8.667,5.417,10.417-15.833c0,0-3.667-5.833-8.833,6.583l0.5-17.708H106L105.667,75.167z"/>
			<path fill="#050506" d="M100.125,54.375c0,0,3.875-5.5,14.125-3.875l31.625,0.5c0,0,5.125,1.75,6.25,3.375
				c0,0,1.125,2.25-3.125,4h-45.625C103.375,58.375,98.625,57,100.125,54.375z"/>
			<path fill="#161B45" d="M101.298,53.182c0,0,0.452-5.932-7.548-6.682c0,0-7.125-0.75-1.125-9.125c0,0,9.5-11.25,16.75-12.125
				h37.375c0,0,12.75,7.682,15.875,13.966c0,0,1.531,2.597-0.219,5.003c0,0-11.232,3.871-11.054,9.404
				S101.298,53.182,101.298,53.182z"/>
			<path fill="#333333" d="M121.5,62.875c0,0-7.688,0.813-8.063,4.313c0,0-1.688-0.938-1.688-2.75
				C111.75,64.438,114.188,60.5,121.5,62.875z"/>
			<path fill="#333333" d="M126.733,61.563c0,0,9.767,0.313,13.517,5.625c0,0,0.25-4.625-3.188-7.25
				C137.063,59.938,130.279,56.813,126.733,61.563z"/>
			<path fill="#333333" d="M130.25,73.167c0,0,3.667-0.417,7.167,3.25C137.417,76.417,137,68.083,130.25,73.167z"/>
			<path fill="#333333" d="M114.25,76.417c0,0,5.167-2.144,6-2.447C120.25,73.97,117.667,68.75,114.25,76.417z"/>
			<path fill="#C1A37C" d="M124.917,70.667c0,0-11.25,20.583,3.167,15.5C128.083,86.167,116.084,88.667,124.917,70.667z"/>
			<path fill="#775E4B" d="M118,93.417c0,0,17.417,1.417,20.083-3.75C138.083,89.667,136.167,97,118,93.417z"/>
		</g>
		<path fill="#101327" d="M128.083,112.112l-2.75,35.804c0,0,1.343,6.167,3.546,7.417c0,0,4.537-4.083,4.704-6.083l-3.585-37.138
			H128.083z"/>
		<rect x="125.531" y="130.333" fill="#87754A" width="4.949" height="2"/>
		<polygon fill="#353535" points="109.438,138.5 109.438,153.313 111.313,153.313 111.313,165.375 112.563,165.375 112.563,174.438 
			107.375,176.313 107.375,177.313 106.5,177.313 106.5,176.375 105.438,176.25 105.438,153.313 108.406,153.344 108.406,138.5 		
			"/>
		<polygon fill="#484849" points="108.313,154.375 110.438,154.375 110.438,163.313 105.625,163.313 105.625,155.333 
			108.25,155.333 		"/>
		<polygon fill="#302F2F" points="112.563,163.313 125.333,163.313 126.333,173.084 112.563,173.084 		"/>
		<polygon fill="#232323" points="125.762,167.499 119.833,169.75 118.25,169.75 112.563,166.5 118.25,168.584 119.917,168.584 		
			"/>
		<polygon fill="#20201F" points="144.333,174.584 146.583,176 154.583,166.5 153.333,157.906 146.417,157.906 145.25,164.25 
			145.25,172.333 		"/>
		<polygon fill="#302F2F" points="132.5,163.667 132.5,174.584 145.25,174.584 145.25,164.25 		"/>
		<path fill="#232323" d="M133,165.584l5.333,2.614h2.333l4.167-3.114c0,0-3.583,4.666-5,5.333
			C139.833,170.417,134.667,167.584,133,165.584z"/>
		<path fill="#9B7D3D" d="M153.216,123.318c0,0-6.769,0.599,0.981,7.015l0.132,1c0,0-10.299-6.188-1.299-9.021L153.216,123.318z"/>
		<path fill="#C6C6C5" d="M153.43,124.699c0,0,0.294,1.905,0.534,3.813l0.072,0.543c0,0-5.599-3.364-0.706-4.904L153.43,124.699z"/>
		<path fill="#9B7D3D" d="M105.893,123.318c0,0,6.677,0.599-1.073,7.015l-0.148,1c0,0,10.406-6.188,1.406-9.021L105.893,123.318z"/>
		<path fill="#C6C6C5" d="M105.658,124.699c0,0-0.294,1.905-0.534,3.813l-0.125,0.61c0,0,5.652-3.43,0.759-4.97L105.658,124.699z"/>
		<polygon fill="#A16C31" points="125.762,166.188 132.5,166.188 132.5,170.417 126.061,170.417 		"/>
		<polygon fill="#11131F" points="130.063,166.953 130.063,167.5 128.006,167.5 128.006,168.813 130.063,168.813 130.063,169.5 
			127.375,169.5 127.063,166.953 		"/>
		<path fill="#9B7D3D" d="M132.583,109.167c0,0-1.292,1.083-0.875,1.833c0,0,0.375,0.625,1.125,0
			C132.833,111,133.417,109.167,132.583,109.167z"/>
		<path fill="#9B7D3D" d="M124.865,109.667c0,0,1.292,1.083,0.875,1.833c0,0-0.375,0.625-1.125,0
			C124.615,111.5,124.032,109.667,124.865,109.667z"/>
	</g>
	<path fill="#0E1438" d="M94.417,45c0,0,7.083,2.75,9.75,2c0,0,4.25-3.916,12.583-3.083s0,0.333,0,0.333s25.167-1,30.583,1.667
		c0,0,3.583,1,4,2.417c0,0,0.417-3.117,4.5-2.267c0,0,11.583-2.733-0.667-8.15c0,0-3,4.333-4.917,5.75c0,0-2.75-0.583,2.167-7.25
		c0,0,0.5-6.417-6.083,3.5c0,0,0.333,2.208-11.75,1.438c0,0-0.25-7.271,0.5-9.021c0,0-1.333-1.75-2,0.417c0,0-0.5,4.417-1.25,5.583
		l-4.23-7c0,0-1.521,0.25,0.396,4.5c0,0,2.333,5.333-1.667,4.417L118,36.583c0,0-5.75,8.333-9.333,5.083l-5.583-6.75
		c0,0-2.583-1.5-1,2.417c0,0,3.417,6.75-0.333,3.333c0,0-2.417-5.75-4.417-2.333c0,0-2.167,2.833-4.333,2.25v2.583
		C93,43.167,94.667,43.333,94.417,45z"/>
	<path fill="#9B7D3D" d="M128.976,45.769c0,0,0.161,0.143,0.352,0.375c0.44,0.523,1.057,1.5,0.188,2.311
		c0.055-0.053,0.881-0.913-0.326-2.204c-1.146-1.333-1.229-3.126,0.628-2.114c0,0-0.448-0.529-1.279-0.414
		c0,0,0.686-0.345,1.643,0.368c0,0-0.996-0.827-0.993-2.206c0,0-1.099,1.195-2.676-0.138c0,0,0.435,0.736,1.398,0.805
		c0,0-1.072,0.128-1.905-1.004l0,0l0,0l0,0l0,0c-0.818,1.132-1.892,1.004-1.892,1.004c0.962-0.069,1.387-0.805,1.387-0.805
		c-1.56,1.333-2.674,0.138-2.674,0.138c0.021,1.379-0.964,2.206-0.964,2.206c0.949-0.712,1.639-0.368,1.639-0.368
		c-0.833-0.115-1.273,0.414-1.273,0.414c1.844-1.012,1.784,0.781,0.655,2.114c-1.19,1.291-0.352,2.151-0.297,2.204
		c-0.879-0.811-0.275-1.787,0.159-2.311c0.188-0.232,0.347-0.375,0.347-0.375c-2.121,1.724-1.236,3.08,0.547,3.631
		c1.419,0.425,2.157,0.973,2.426,1.202l0,0l0,0l0,0l0,0c0.266-0.229,0.997-0.777,2.411-1.202
		C130.252,48.848,131.119,47.492,128.976,45.769z M126.002,42.023v-0.006c0.001,0.001,0.002,0.002,0.002,0.003
		c0.001,0,0.001-0.002,0.002-0.003v0.006c0.559,0.774,1.764,0.816,1.764,0.816c-1.024,0.148-1.722-0.577-1.767-0.625
		c-0.045,0.047-0.743,0.772-1.767,0.625C124.238,42.839,125.443,42.797,126.002,42.023z M127.812,49.323
		c-1.028,0.31-1.56,0.708-1.753,0.875l0,0l0,0h0l0,0c-0.195-0.167-0.732-0.565-1.764-0.875c-0.512-0.158-0.921-0.407-1.135-0.728
		c0.039,0.028,0.08,0.055,0.122,0.081c0.235,0.177,0.546,0.32,0.903,0.425c1.097,0.309,1.667,0.707,1.875,0.874l0,0l0,0l0,0l0,0
		c0.206-0.167,0.771-0.565,1.863-0.874c0.352-0.103,0.657-0.244,0.889-0.419c0.042-0.026,0.083-0.052,0.121-0.08
		C128.722,48.92,128.318,49.167,127.812,49.323z"/>
</g>
<g id="Regal_Vector_Pack_10" display="none">
</g>
<g>
	<g>
		<g>
			<path fill="#CE9D7D" enable-background="new    " d="M229.152,170.491c0,0-2.32-6.922-6.434-1.174c0,0,0.324,5.363-0.971,6.902
				c0,0-1.834,4.773,0.398,7.621c0,0,7.308,7.545,9.929,7.469c0,0,1.235-2.156-1.383-4.773c0,0-1.309-4.08-0.385-5.621
				c0,0,1.386-0.77,1,4.082c0,0-0.23,3.232,1.771,1.385c0,0,1.61-6.313-1.004-10.625
				C232.074,175.757,229.655,171.63,229.152,170.491z"/>
			<path fill="#CE9D7D" enable-background="new    " d="M272.224,170.491c0,0,2.32-6.922,6.435-1.174c0,0-0.324,5.363,0.972,6.902
				c0,0,1.834,4.773-0.398,7.621c0,0-7.308,7.545-9.929,7.469c0,0-1.235-2.156,1.383-4.773c0,0,1.309-4.08,0.385-5.621
				c0,0-1.386-0.77-1.001,4.082c0,0,0.23,3.232-1.771,1.385c0,0-1.61-6.313,1.004-10.625
				C269.303,175.757,271.722,171.63,272.224,170.491z"/>
			<path fill="#161616" d="M239.366,256.423v2.334c0,0-0.417,6.25-3.25,7.916c0,0-5.5,2.5-5.917,1c0,0,0.25-3.688,1.5-5.385
				c0,0,2.568-2.621,2.667-5.865C234.366,256.423,237.366,252.589,239.366,256.423z"/>
			<path fill="#161616" d="M261.366,255.173l-0.833,2.834c0,0,0.417,6.25,3.25,7.916c0,0,5.5,2.5,5.917,1c0,0-0.25-3.688-1.5-5.385
				c0,0-2.861-1.871-2.959-5.115C265.241,256.423,263.366,251.339,261.366,255.173z"/>
			<path fill="#161B45" d="M244.241,102.547l-13.75,6.75c0,0-2,2.25-2.125,5.75c0,0-6.875,42.75-6.375,54.625h7.125
				c0,0,2.724-30.75,3.987-35.125l1.388-0.375c0,0-0.375,19.75,0.875,24.25l1,11.25c0,0-1.5,71.5-2,86.75c0,0,2.875-3,5,0
				l7.063-80.5l8,0.063l6.938,79.188c0,0,3.5-0.25,3.875,1.25v-86.25c0,0,4.5,1.375,4.25-29l0.625,0.125l2.125,28.25l7.125,0.375
				c0,0-2.125-47.625-5.75-57.125c0,0-2.25-8.375-16.5-10.875L244.241,102.547z"/>
			<path fill="#10152D" d="M245.428,98.985c0,0-3.438,4.188,1.25,10.875l4.188-4.313l3.438,4.313c0,0,5.813-7.188,1.188-10.875
				H245.428z"/>
			<path fill="#101327" d="M249.315,107.144c0,0,0.738,0.841,1.196,1.049h0.604c0,0,1.127-0.556,1.23-0.789l-1.48-1.857
				L249.315,107.144z"/>
			<path fill="#101327" d="M249.949,107.785l-2.75,35.804c0,0,1.343,6.167,3.546,7.417c0,0,4.537-4.083,4.704-6.083l-3.585-37.138
				H249.949z"/>
			<rect x="247.397" y="126.006" fill="#87754A" width="4.949" height="2"/>
			<polygon fill="#353535" points="231.303,134.172 231.303,148.985 233.178,148.985 233.178,161.048 234.428,161.048 
				234.428,170.11 229.241,171.985 229.241,172.985 228.366,172.985 228.366,172.048 227.303,171.923 227.303,148.985 
				230.272,149.016 230.272,134.172 			"/>
			<polygon fill="#484849" points="230.178,150.047 232.303,150.047 232.303,158.985 227.491,158.985 227.491,151.006 
				230.116,151.006 			"/>
			<polygon fill="#302F2F" points="234.428,158.985 247.199,158.985 248.199,168.757 234.428,168.757 			"/>
			<polygon fill="#232323" points="247.627,163.171 241.699,165.423 240.116,165.423 234.428,162.173 240.116,164.257 
				241.782,164.257 			"/>
			<polygon fill="#20201F" points="266.199,170.257 268.449,171.673 276.449,162.173 275.199,153.578 268.282,153.578 
				267.116,159.923 267.116,168.005 			"/>
			<polygon fill="#302F2F" points="254.366,159.339 254.366,170.257 267.116,170.257 267.116,159.923 			"/>
			<path fill="#232323" d="M254.866,161.257l5.333,2.613h2.333l4.167-3.113c0,0-3.583,4.666-5,5.332
				C261.699,166.089,256.532,163.257,254.866,161.257z"/>
			<path fill="#9B7D3D" d="M275.082,118.991c0,0-6.768,0.599,0.982,7.015l0.132,1c0,0-10.299-6.188-1.299-9.021L275.082,118.991z"/>
			<path fill="#C6C6C5" d="M275.296,120.372c0,0,0.294,1.905,0.533,3.813l0.072,0.543c0,0-5.6-3.364-0.707-4.904L275.296,120.372z"
				/>
			<path fill="#9B7D3D" d="M227.759,118.991c0,0,6.677,0.599-1.073,7.015l-0.148,1c0,0,10.406-6.188,1.406-9.021L227.759,118.991z"
				/>
			<path fill="#C6C6C5" d="M227.524,120.372c0,0-0.294,1.905-0.534,3.813l-0.125,0.61c0,0,5.652-3.43,0.759-4.97L227.524,120.372z"
				/>
			<polygon fill="#A16C31" points="247.627,161.86 254.366,161.86 254.366,166.089 247.926,166.089 			"/>
			<polygon fill="#11131F" points="251.928,162.626 251.928,163.173 249.872,163.173 249.872,164.485 251.928,164.485 
				251.928,165.173 249.241,165.173 248.928,162.626 			"/>
			<path fill="#9B7D3D" d="M254.449,104.839c0,0-1.292,1.083-0.875,1.833c0,0,0.375,0.625,1.125,0
				C254.699,106.672,255.283,104.839,254.449,104.839z"/>
			<path fill="#9B7D3D" d="M246.731,105.339c0,0,1.292,1.083,0.875,1.833c0,0-0.375,0.625-1.125,0
				C246.481,107.172,245.897,105.339,246.731,105.339z"/>
		</g>
	</g>
	<g>
		<path fill="#CDCCCC" enable-background="new    " d="M252.095,168.888c0,0,1.781,0.701,3.031,0"/>
		<line fill="#CDCCCC" enable-background="new    " x1="254.376" y1="101.066" x2="252.479" y2="101.066"/>
		<path fill="#372117" enable-background="new    " d="M226.147,63.585c0,0-5.42,5.061-2.721,8.373l0.328,3.26h-4.879
			c0,0,0.07,9.536,9.191,8.794c0,0,1.059-0.289,1.84,0.204c0,0,1.406,2.18-4.969,1.93c0,0,1.686,5.329,10.874,4.915l30.226,0.023
			c0,0,4.235,0.746,3.901-2.875c0,0,7.063,1.134,7.875-4.839c0,0-2.244,0.809-3.342-0.645l0.805-1.001c0,0,1.6,0.86,2.537,0.422
			s0-0.188,0-0.188s2.5-2,2.313-5.625c0,0-2.094,0.239-2.328-0.255l-6.025-12.492H226.147z"/>
		<path fill="#AC8151" enable-background="new    " d="M229.501,66.339v4.806c0,0-3.125-5.625-6-1.625c0,0-1,8.125,3.875,13.75
			c0,0,1.125,2.375,4.375,0c0,0,5.063,14.921,17.25,17.796h6.906c0,0,10.844-6.796,14.469-18.671c0,0,2.75,1.75,4.5,0
			c0,0,5.5-8.53,3.875-16.453c0,0-5.625-1.547-7,7.453l-1.5,0.25c0,0,0.5-8.625-20.125-6.625c0,0,0.565-0.965-3.813-1.078
			L229.501,66.339z"/>
		<path fill="#443119" enable-background="new    " d="M235.183,73.84c0,0-2.056-3.736,0.61-6.57c0,0,6.291-5.708,11.083,2.792
			c0,0,0.5,1.869-0.828,4.192L235.183,73.84z"/>
		<ellipse fill="#E3E6F0" enable-background="new    " cx="240.667" cy="72.562" rx="5.625" ry="5.792"/>
		<ellipse fill="#8FA1C4" enable-background="new    " cx="241.149" cy="72.562" rx="2.273" ry="2.304"/>
		<ellipse fill="#314461" enable-background="new    " cx="240.681" cy="72.776" rx="1.253" ry="1.27"/>
		<path fill="#372117" enable-background="new    " d="M264.212,73.84c0,0,2.056-3.736-0.61-6.57c0,0-6.291-5.708-11.083,2.792
			c0,0-0.5,1.869,0.828,4.192L264.212,73.84z"/>
		<ellipse fill="#E3E6F0" enable-background="new    " cx="258.728" cy="72.562" rx="5.625" ry="5.792"/>
		<ellipse fill="#8FA1C4" enable-background="new    " cx="256.12" cy="72.128" rx="2.273" ry="2.304"/>
		<ellipse fill="#314461" enable-background="new    " cx="255.662" cy="72.562" rx="1.253" ry="1.27"/>
		<path fill="#432F2E" enable-background="new    " d="M245.043,90.52c0,0,11.834,1.583,12.5-4.25
			C257.543,86.27,258.46,93.937,245.043,90.52z"/>
		<path fill="#806145" d="M247.876,75.27l-3.188,6.75c0,0-0.625,1.938,1.125,1.938h4.875l-4.75-0.813c0,0-0.896-0.5-0.375-1.438
			L247.876,75.27z"/>
	</g>
	<g>
		<path fill="#050506" d="M222.897,59.585c0,0,3.875-5.5,14.125-3.875l31.625,0.5c0,0,5.125,1.75,6.25,3.375c0,0,1.125,2.25-3.125,4
			h-45.625C226.147,63.585,221.397,62.21,222.897,59.585z"/>
		<path fill="#161B45" d="M224.071,58.392c0,0,0.452-5.932-7.548-6.682c0,0-7.125-0.75-1.125-9.125c0,0,9.5-11.25,16.75-12.125
			h37.375c0,0,12.75,7.682,15.875,13.966c0,0,1.531,2.597-0.219,5.003c0,0-11.232,3.871-11.055,9.404
			C274.304,64.366,224.071,58.392,224.071,58.392z"/>
		<path fill="#0E1438" d="M217.189,50.21c0,0,7.083,2.75,9.75,2c0,0,4.25-3.916,12.583-3.083s0,0.333,0,0.333s25.167-1,30.583,1.667
			c0,0,3.583,1,4,2.417c0,0,0.417-3.117,4.5-2.267c0,0,11.583-2.733-0.667-8.15c0,0-3,4.333-4.916,5.75c0,0-2.75-0.583,2.166-7.25
			c0,0,0.5-6.417-6.083,3.5c0,0,0.333,2.208-11.75,1.438c0,0-0.25-7.271,0.5-9.021c0,0-1.333-1.75-2,0.417c0,0-0.5,4.417-1.25,5.583
			l-4.23-7c0,0-1.521,0.25,0.396,4.5c0,0,2.333,5.333-1.667,4.417l-8.333-3.667c0,0-5.75,8.333-9.333,5.083l-5.583-6.75
			c0,0-2.583-1.5-1,2.417c0,0,3.417,6.75-0.333,3.333c0,0-2.417-5.75-4.417-2.333c0,0-2.167,2.833-4.333,2.25v2.583
			C215.772,48.377,217.439,48.543,217.189,50.21z"/>
		<path fill="#9B7D3D" d="M251.748,50.979c0,0,0.161,0.143,0.352,0.375c0.44,0.523,1.057,1.5,0.188,2.311
			c0.055-0.053,0.881-0.913-0.326-2.204c-1.146-1.333-1.229-3.126,0.628-2.114c0,0-0.448-0.529-1.279-0.414
			c0,0,0.686-0.345,1.643,0.368c0,0-0.996-0.827-0.993-2.206c0,0-1.099,1.195-2.676-0.138c0,0,0.435,0.736,1.398,0.805
			c0,0-1.072,0.128-1.905-1.004l0,0l0,0l0,0l0,0c-0.818,1.132-1.892,1.004-1.892,1.004c0.962-0.069,1.387-0.805,1.387-0.805
			c-1.56,1.333-2.674,0.138-2.674,0.138c0.021,1.379-0.964,2.206-0.964,2.206c0.949-0.712,1.639-0.368,1.639-0.368
			c-0.833-0.115-1.273,0.414-1.273,0.414c1.844-1.012,1.784,0.781,0.655,2.114c-1.19,1.291-0.352,2.151-0.297,2.204
			c-0.879-0.811-0.275-1.787,0.159-2.311c0.188-0.232,0.347-0.375,0.347-0.375c-2.121,1.724-1.236,3.08,0.547,3.631
			c1.419,0.425,2.157,0.973,2.426,1.202l0,0l0,0l0,0l0,0c0.266-0.229,0.997-0.777,2.411-1.202
			C253.024,54.058,253.892,52.702,251.748,50.979z M248.774,47.233v-0.006c0.001,0.001,0.002,0.002,0.002,0.003
			c0.001,0,0.001-0.002,0.002-0.003v0.006c0.559,0.774,1.764,0.816,1.764,0.816c-1.024,0.148-1.722-0.577-1.767-0.625
			c-0.045,0.047-0.743,0.772-1.767,0.625C247.01,48.049,248.215,48.007,248.774,47.233z M250.584,54.533
			c-1.028,0.31-1.56,0.708-1.753,0.875l0,0l0,0h0l0,0c-0.195-0.167-0.732-0.565-1.764-0.875c-0.512-0.158-0.921-0.407-1.135-0.728
			c0.039,0.028,0.08,0.055,0.122,0.081c0.235,0.177,0.546,0.32,0.903,0.425c1.097,0.309,1.667,0.707,1.875,0.874l0,0l0,0l0,0l0,0
			c0.206-0.167,0.771-0.565,1.863-0.874c0.352-0.103,0.657-0.244,0.889-0.419c0.042-0.026,0.083-0.052,0.121-0.08
			C251.495,54.13,251.09,54.376,250.584,54.533z"/>
	</g>
</g>
<g>
	<g>
		<g>
			<g>
				<g>
					<path fill="#CE9D7D" enable-background="new    " d="M341.844,176.309c0,0-2.32-6.922-6.434-1.174c0,0,0.324,5.363-0.972,6.902
						c0,0-1.835,4.773,0.397,7.621c0,0,7.309,7.545,9.93,7.469c0,0,1.234-2.156-1.383-4.773c0,0-1.309-4.08-0.385-5.621
						c0,0,1.385-0.77,1,4.082c0,0-0.23,3.232,1.771,1.385c0,0,1.61-6.313-1.004-10.625
						C344.766,181.574,342.347,177.447,341.844,176.309z"/>
					<path fill="#CE9D7D" enable-background="new    " d="M384.916,176.309c0,0,2.32-6.922,6.434-1.174c0,0-0.324,5.363,0.973,6.902
						c0,0,1.834,4.773-0.398,7.621c0,0-7.309,7.545-9.93,7.469c0,0-1.234-2.156,1.383-4.773c0,0,1.309-4.08,0.385-5.621
						c0,0-1.385-0.77-1,4.082c0,0,0.23,3.232-1.771,1.385c0,0-1.61-6.313,1.004-10.625
						C381.994,181.574,384.414,177.447,384.916,176.309z"/>
					<path fill="#161616" d="M352.057,262.24v2.334c0,0-0.416,6.25-3.25,7.916c0,0-5.499,2.5-5.916,1c0,0,0.25-3.688,1.5-5.385
						c0,0,2.568-2.621,2.666-5.865C347.057,262.24,350.057,258.406,352.057,262.24z"/>
					<path fill="#161616" d="M374.057,260.99l-0.832,2.834c0,0,0.416,6.25,3.25,7.916c0,0,5.5,2.5,5.916,1c0,0-0.25-3.688-1.5-5.385
						c0,0-2.86-1.871-2.959-5.115C377.932,262.24,376.057,257.156,374.057,260.99z"/>
					<path fill="#161B45" d="M356.932,108.366l-13.75,6.75c0,0-2,2.25-2.125,5.75c0,0-6.875,42.75-6.375,54.625h7.125
						c0,0,2.725-30.75,3.987-35.125l1.388-0.375c0,0-0.375,19.75,0.875,24.25l1,11.25c0,0-1.5,71.5-2,86.75c0,0,2.875-3,5,0
						l7.063-80.5l8,0.063l6.938,79.188c0,0,3.5-0.25,3.875,1.25v-86.25c0,0,4.5,1.375,4.25-29l0.625,0.125l2.125,28.25l7.125,0.375
						c0,0-2.125-47.625-5.75-57.125c0,0-2.25-8.375-16.5-10.875L356.932,108.366z"/>
					<path fill="#10152D" d="M358.119,104.803c0,0-3.438,4.188,1.25,10.875l4.188-4.313l3.438,4.313c0,0,5.813-7.188,1.188-10.875
						H358.119z"/>
					<path fill="#101327" d="M362.007,112.962c0,0,0.738,0.841,1.196,1.049h0.604c0,0,1.128-0.556,1.23-0.789l-1.48-1.857
						L362.007,112.962z"/>
					<path fill="#101327" d="M362.641,113.603l-2.75,35.803c0,0,1.343,6.168,3.547,7.418c0,0,4.537-4.084,4.703-6.084l-3.586-37.137
						H362.641z"/>
					<rect x="360.088" y="131.824" fill="#87754A" width="4.949" height="2"/>
					<polygon fill="#353535" points="343.994,139.991 343.994,154.803 345.869,154.803 345.869,166.865 347.119,166.865 
						347.119,175.928 341.932,177.803 341.932,178.803 341.057,178.803 341.057,177.865 339.994,177.74 339.994,154.803 
						342.963,154.834 342.963,139.991 					"/>
					<polygon fill="#484849" points="342.869,155.865 344.994,155.865 344.994,164.803 340.182,164.803 340.182,156.824 
						342.807,156.824 					"/>
					<polygon fill="#302F2F" points="347.119,164.803 359.891,164.803 360.891,174.574 347.119,174.574 					"/>
					<polygon fill="#232323" points="360.318,168.988 354.391,171.24 352.807,171.24 347.119,167.99 352.807,170.074 
						354.474,170.074 					"/>
					<polygon fill="#20201F" points="378.891,176.074 381.141,177.49 389.141,167.99 387.891,159.396 380.974,159.396 
						379.807,165.74 379.807,173.822 					"/>
					<polygon fill="#302F2F" points="367.057,165.156 367.057,176.074 379.807,176.074 379.807,165.74 					"/>
					<path fill="#232323" d="M367.557,167.074l5.334,2.613h2.333l4.167-3.113c0,0-3.583,4.666-5,5.332
						C374.391,171.906,369.224,169.074,367.557,167.074z"/>
					<path fill="#9B7D3D" d="M387.773,124.809c0,0-6.769,0.599,0.982,7.015l0.131,1c0,0-10.299-6.188-1.299-9.021L387.773,124.809z"
						/>
					<path fill="#C6C6C5" d="M387.988,126.19c0,0,0.293,1.905,0.533,3.813l0.072,0.543c0,0-5.6-3.364-0.707-4.904L387.988,126.19z"
						/>
					<path fill="#9B7D3D" d="M340.45,124.809c0,0,6.677,0.599-1.073,7.015l-0.148,1c0,0,10.406-6.188,1.406-9.021L340.45,124.809z"
						/>
					<path fill="#C6C6C5" d="M340.215,126.19c0,0-0.294,1.905-0.533,3.813l-0.125,0.61c0,0,5.652-3.43,0.76-4.97L340.215,126.19z"/>
					<polygon fill="#A16C31" points="360.318,167.678 367.057,167.678 367.057,171.906 360.617,171.906 					"/>
					<polygon fill="#11131F" points="364.619,168.443 364.619,168.99 362.563,168.99 362.563,170.303 364.619,170.303 
						364.619,170.99 361.932,170.99 361.619,168.443 					"/>
					<path fill="#9B7D3D" d="M367.141,110.657c0,0-1.291,1.083-0.875,1.833c0,0,0.375,0.625,1.125,0
						C367.391,112.491,367.975,110.657,367.141,110.657z"/>
					<path fill="#9B7D3D" d="M359.422,111.157c0,0,1.292,1.083,0.875,1.833c0,0-0.375,0.625-1.125,0
						C359.172,112.991,358.589,111.157,359.422,111.157z"/>
				</g>
			</g>
			<g>
				<path fill="#CDCCCC" enable-background="new    " d="M364.786,174.705c0,0,1.781,0.701,3.031,0"/>
				<line fill="#CDCCCC" enable-background="new    " x1="367.067" y1="106.884" x2="365.17" y2="106.884"/>
			</g>
		</g>
		<path fill="#333333" d="M335.328,60.553l0.824,7.795l7.718,8.539l40,0.875l5.958-11.5V54.887
			C389.828,54.887,338.661,46.97,335.328,60.553z"/>
		<path fill="#8D6850" d="M384.995,59.387c0,0-1.5,12.875-0.875,13.875c0,0,5.625-14.125,8.375-4.875c0,0-0.055,16.375-8.527,16
			c0,0,0.902,14.625-15.348,16.875c0,0-1.625,1.875-1,4.375c0,0-4.5,6-8.5,0v-4.25c0,0-16-1.583-18.375-17.542
			c0,0-4.5,4.917-7.875-8.708c0,0-0.875-12.75,6.125-4.125V59.387C338.995,59.387,360.62,48.512,384.995,59.387z"/>
		<path fill="#131313" d="M333.828,56.086c0,0-4.667-28.2,21-29.2c0,0,31-5.801,34,14.6l1,13.4l-4.5,0.5l-0.333,4
			c0,0-33.168-8-49.667,1.167C335.328,60.553,327.328,61.453,333.828,56.086z"/>
		<path fill="#262626" d="M336.662,53.387c0,0-5-24,16.333-25.167c0,0,20.001-0.5,26.667,5.333c0,0-0.166,9.167-2.5,9.5
			c0,0,4.207-0.375,3.666,1c0,0-7.084,2.417-8.25,2.375l13.167-1.667c0,0-4.5,4.125-6.75,4.125c0,0-2.5,1.375-0.125,3
			C378.87,51.887,347.704,51.387,336.662,53.387z"/>
		<path fill="#333333" d="M356.87,65.012c0,0-1.5-5.929-10.375-4.402c0,0-1.75,2.402,0.75,2.652
			C347.245,63.262,354.495,61.762,356.87,65.012z"/>
		<path fill="#333333" d="M362.745,64.012c0,0,2-7.75,14-5.625c0,0,1.875,2.972,0,4.298
			C376.745,62.685,369.62,58.137,362.745,64.012z"/>
		<ellipse fill="#FFFFFF" cx="351.933" cy="69.949" rx="3.063" ry="2.962"/>
		<ellipse fill="#333333" cx="351.933" cy="69.949" rx="1.609" ry="1.557"/>
		<ellipse fill="#FFFFFF" cx="368.933" cy="69.949" rx="3.063" ry="2.962"/>
		<ellipse fill="#333333" cx="368.933" cy="69.949" rx="1.609" ry="1.557"/>
		<path fill="#333333" d="M351.933,88.512c0,0,7.688-6.375,21.563-0.75C373.495,87.762,359.495,84.262,351.933,88.512z"/>
		<path fill="#333333" d="M357.995,92.512c0,0,3.75-2.125,8.75,0C366.745,92.512,359.87,91.887,357.995,92.512z"/>
		<text transform="matrix(1 0 0 1 347.7871 46.7617)" fill="#E6C65C" font-family="'Georgia-BoldItalic'" font-size="12">FBI</text>
	</g>
	<path fill="#131313" d="M351.933,110.82l2.072,8.637h19.49l1.875-10.267l2.844,1.212c0,0,5.646,42.304,3.619,50.804
		c0,0-32.526,2.667-34.245,0c0,0-0.725-15.933-0.406-21.216l1.688-27.778L351.933,110.82z"/>
	<text transform="matrix(1 0 0 1 354.0049 136.2129)" fill="#E6C65C" font-family="'Georgia-BoldItalic'" font-size="12">FBI</text>
</g>
<g>
	<g>
		<g>
			<g>
				<g>
					<g>
						<path fill="#CE9D7D" enable-background="new    " d="M471.528,177.168c0,0-2.32-6.922-6.434-1.174
							c0,0,0.324,5.363-0.972,6.902c0,0-1.835,4.773,0.397,7.621c0,0,7.309,7.545,9.93,7.469c0,0,1.234-2.156-1.383-4.773
							c0,0-1.309-4.08-0.385-5.621c0,0,1.385-0.77,1,4.082c0,0-0.23,3.232,1.771,1.385c0,0,1.61-6.313-1.004-10.625
							C474.45,182.434,472.031,178.307,471.528,177.168z"/>
						<path fill="#CE9D7D" enable-background="new    " d="M514.601,177.168c0,0,2.32-6.922,6.434-1.174
							c0,0-0.324,5.363,0.973,6.902c0,0,1.834,4.773-0.398,7.621c0,0-7.309,7.545-9.93,7.469c0,0-1.234-2.156,1.383-4.773
							c0,0,1.309-4.08,0.385-5.621c0,0-1.385-0.77-1,4.082c0,0,0.23,3.232-1.771,1.385c0,0-1.61-6.313,1.004-10.625
							C511.679,182.434,514.099,178.307,514.601,177.168z"/>
						<path fill="#161616" d="M481.741,263.1v2.334c0,0-0.416,6.25-3.25,7.916c0,0-5.499,2.5-5.916,1c0,0,0.25-3.688,1.5-5.385
							c0,0,2.568-2.621,2.666-5.865C476.741,263.1,479.741,259.266,481.741,263.1z"/>
						<path fill="#161616" d="M503.741,261.85l-0.832,2.834c0,0,0.416,6.25,3.25,7.916c0,0,5.5,2.5,5.916,1
							c0,0-0.25-3.688-1.5-5.385c0,0-2.86-1.871-2.959-5.115C507.616,263.1,505.741,258.016,503.741,261.85z"/>
						<path fill="#161B45" d="M486.616,109.225l-13.75,6.75c0,0-2,2.25-2.125,5.75c0,0-6.875,42.75-6.375,54.625h7.125
							c0,0,2.725-30.75,3.987-35.125l1.388-0.375c0,0-0.375,19.75,0.875,24.25l1,11.25c0,0-1.5,71.5-2,86.75c0,0,2.875-3,5,0
							l7.063-80.5l8,0.063l6.938,79.188c0,0,3.5-0.25,3.875,1.25v-86.25c0,0,4.5,1.375,4.25-29l0.625,0.125l2.125,28.25l7.125,0.375
							c0,0-2.125-47.625-5.75-57.125c0,0-2.25-8.375-16.5-10.875L486.616,109.225z"/>
						<path fill="#10152D" d="M487.804,105.663c0,0-3.438,4.188,1.25,10.875l4.188-4.313l3.438,4.313c0,0,5.813-7.188,1.188-10.875
							H487.804z"/>
						<path fill="#101327" d="M491.691,113.822c0,0,0.738,0.841,1.196,1.049h0.604c0,0,1.128-0.556,1.23-0.789l-1.48-1.857
							L491.691,113.822z"/>
						<path fill="#101327" d="M492.325,114.462l-2.75,35.803c0,0,1.343,6.168,3.547,7.418c0,0,4.537-4.084,4.703-6.084
							l-3.586-37.137H492.325z"/>
						<rect x="489.772" y="132.684" fill="#87754A" width="4.949" height="2"/>
						<polygon fill="#353535" points="473.679,140.85 473.679,155.662 475.554,155.662 475.554,167.725 476.804,167.725 
							476.804,176.787 471.616,178.662 471.616,179.662 470.741,179.662 470.741,178.725 469.679,178.6 469.679,155.662 
							472.647,155.693 472.647,140.85 						"/>
						<polygon fill="#484849" points="472.554,156.725 474.679,156.725 474.679,165.662 469.866,165.662 469.866,157.684 
							472.491,157.684 						"/>
						<polygon fill="#302F2F" points="476.804,165.662 489.575,165.662 490.575,175.434 476.804,175.434 						"/>
						<polygon fill="#232323" points="490.003,169.848 484.075,172.1 482.491,172.1 476.804,168.85 482.491,170.934 
							484.158,170.934 						"/>
						<polygon fill="#20201F" points="508.575,176.934 510.825,178.35 518.825,168.85 517.575,160.256 510.658,160.256 
							509.491,166.6 509.491,174.682 						"/>
						<polygon fill="#302F2F" points="496.741,166.016 496.741,176.934 509.491,176.934 509.491,166.6 						"/>
						<path fill="#232323" d="M497.241,167.934l5.334,2.613h2.333l4.167-3.113c0,0-3.583,4.666-5,5.332
							C504.075,172.766,498.908,169.934,497.241,167.934z"/>
						<path fill="#9B7D3D" d="M517.458,125.668c0,0-6.769,0.599,0.982,7.015l0.131,1c0,0-10.299-6.188-1.299-9.021L517.458,125.668z
							"/>
						<path fill="#C6C6C5" d="M517.673,127.049c0,0,0.293,1.905,0.533,3.813l0.072,0.543c0,0-5.6-3.364-0.707-4.904L517.673,127.049
							z"/>
						<path fill="#9B7D3D" d="M470.135,125.668c0,0,6.677,0.599-1.073,7.015l-0.148,1c0,0,10.406-6.188,1.406-9.021L470.135,125.668
							z"/>
						<path fill="#C6C6C5" d="M469.899,127.049c0,0-0.294,1.905-0.533,3.813l-0.125,0.61c0,0,5.652-3.43,0.76-4.97L469.899,127.049z
							"/>
						<polygon fill="#A16C31" points="490.003,168.537 496.741,168.537 496.741,172.766 490.302,172.766 						"/>
						<polygon fill="#11131F" points="494.304,169.303 494.304,169.85 492.247,169.85 492.247,171.162 494.304,171.162 
							494.304,171.85 491.616,171.85 491.304,169.303 						"/>
						<path fill="#9B7D3D" d="M496.825,111.517c0,0-1.291,1.083-0.875,1.833c0,0,0.375,0.625,1.125,0
							C497.075,113.35,497.659,111.517,496.825,111.517z"/>
						<path fill="#9B7D3D" d="M489.106,112.017c0,0,1.292,1.083,0.875,1.833c0,0-0.375,0.625-1.125,0
							C488.856,113.85,488.273,112.017,489.106,112.017z"/>
					</g>
				</g>
				<g>
					<path fill="#CDCCCC" enable-background="new    " d="M494.471,175.564c0,0,1.781,0.701,3.031,0"/>
					<line fill="#CDCCCC" enable-background="new    " x1="496.752" y1="107.744" x2="494.854" y2="107.744"/>
				</g>
			</g>
			<path fill="#131313" d="M464.513,70.946c0,0-4.667-28.2,21-29.2c0,0,31-5.801,34,14.6l1,13.4l-4.5,0.5l-2.024,4.637
				c0,0-31.477-8.638-47.976,0.529C466.013,75.413,458.013,76.312,464.513,70.946z"/>
			<path fill="#262626" d="M467.347,68.246c0,0-5-24,16.333-25.167c0,0,20.001-0.5,26.667,5.333c0,0-0.166,9.167-2.5,9.5
				c0,0,4.207-0.375,3.666,1c0,0-7.084,2.417-8.25,2.375l13.167-1.667c0,0-4.5,4.125-6.75,4.125c0,0-2.5,1.375-0.125,3
				C509.555,66.746,478.389,66.246,467.347,68.246z"/>
			<text transform="matrix(1 0 0 1 478.4717 61.6211)" fill="#E6C65C" font-family="'Georgia-BoldItalic'" font-size="12">FBI</text>
		</g>
		<path fill="#131313" d="M481.617,111.679l2.072,8.637h19.49l1.875-10.267l2.844,1.212c0,0,5.646,42.304,3.619,50.804
			c0,0-32.526,2.668-34.245,0c0,0-0.725-15.932-0.406-21.216l1.688-27.778L481.617,111.679z"/>
		<text transform="matrix(1 0 0 1 483.6895 137.0723)" fill="#E6C65C" font-family="'Georgia-BoldItalic'" font-size="12">FBI</text>
	</g>
	<g>
		<g>
			<path fill="#372117" enable-background="new    " d="M466.3,70.607c0,0-5.42,5.061-2.721,8.373l0.328,3.26h-4.879
				c0,0,0.07,9.536,9.191,8.794c0,0,1.059-0.289,1.84,0.204c0,0,1.406,2.18-4.969,1.93c0,0,1.686,5.329,10.874,4.915l30.226,0.023
				c0,0,4.235,0.746,3.901-2.875c0,0,7.063,1.134,7.875-4.839c0,0-2.244,0.809-3.342-0.645l0.805-1.001c0,0,1.6,0.86,2.537,0.422
				s0-0.188,0-0.188s2.5-2,2.313-5.625c0,0-2.094,0.239-2.328-0.255l-6.025-12.492H466.3z"/>
			<path fill="#AC8151" enable-background="new    " d="M469.653,73.361v4.806c0,0-3.125-5.625-6-1.625c0,0-1,8.125,3.875,13.75
				c0,0,1.125,2.375,4.375,0c0,0,5.063,14.921,17.25,17.796h6.906c0,0,10.844-6.796,14.47-18.671c0,0,2.75,1.75,4.5,0
				c0,0,5.5-8.53,3.875-16.453c0,0-5.625-1.547-7,7.453l-1.5,0.25c0,0,0.5-8.625-20.126-6.625c0,0,0.565-0.965-3.813-1.078
				L469.653,73.361z"/>
			<path fill="#443119" enable-background="new    " d="M475.335,80.862c0,0-2.056-3.736,0.61-6.57c0,0,6.291-5.708,11.083,2.792
				c0,0,0.5,1.869-0.828,4.192L475.335,80.862z"/>
			<ellipse fill="#E3E6F0" enable-background="new    " cx="480.819" cy="79.584" rx="5.625" ry="5.792"/>
			<ellipse fill="#8FA1C4" enable-background="new    " cx="481.302" cy="79.583" rx="2.273" ry="2.304"/>
			<ellipse fill="#314461" enable-background="new    " cx="480.833" cy="79.798" rx="1.253" ry="1.27"/>
			<path fill="#372117" enable-background="new    " d="M504.364,80.862c0,0,2.056-3.736-0.61-6.57c0,0-6.291-5.708-11.083,2.792
				c0,0-0.5,1.869,0.828,4.192L504.364,80.862z"/>
			<ellipse fill="#E3E6F0" enable-background="new    " cx="498.88" cy="79.584" rx="5.625" ry="5.792"/>
			<ellipse fill="#8FA1C4" enable-background="new    " cx="496.272" cy="79.15" rx="2.273" ry="2.304"/>
			<ellipse fill="#314461" enable-background="new    " cx="495.814" cy="79.583" rx="1.253" ry="1.27"/>
		</g>
		<path fill="#432F2E" enable-background="new    " d="M485.195,97.542c0,0,11.834,1.583,12.5-4.25
			C497.695,93.292,498.612,100.958,485.195,97.542z"/>
		<path fill="#806145" d="M488.028,82.292l-3.188,6.75c0,0-0.625,1.938,1.125,1.938h4.875l-4.75-0.813c0,0-0.896-0.5-0.375-1.438
			L488.028,82.292z"/>
	</g>
	<path fill="#372117" enable-background="new    " d="M519.203,69.892c0,0-0.073,3.262-0.08,4.506l-5.135,0.485l1.626-4.992H519.203
		z"/>
</g>
</svg>
