<?xml version="1.0" encoding="utf-8"?>
<!-- Generator: Adobe Illustrator 16.0.0, SVG Export Plug-In . SVG Version: 6.00 Build 0)  -->
<!DOCTYPE svg PUBLIC "-//W3C//DTD SVG 1.1//EN" "http://www.w3.org/Graphics/SVG/1.1/DTD/svg11.dtd">
<svg version="1.1" id="Layer_1" xmlns="http://www.w3.org/2000/svg" xmlns:xlink="http://www.w3.org/1999/xlink" x="0px" y="0px"
	 width="684px" height="296.64px" viewBox="0 0 684 296.64" enable-background="new 0 0 684 296.64" xml:space="preserve">
<rect x="-170.333" y="-103.432" fill="#A7C5C5" width="878.667" height="496.667"/>
<g>
	<path fill="#414141" d="M112.511,160.359c0,0-1.798,4.162,0.771,7.586l-1.383,77.924h4.196l6.606-72.785l6.606-0.367
		c0,0,6.117,46.975,6.36,73.641l4.037-0.732l-0.979-77.557c0,0,1.835-1.842,0.979-8.506L112.511,160.359z"/>
	<path fill="#161616" d="M139.889,241.729c0,0-1.311-2.486-3.033,0c0,0-4.092,4.6-2.061,6.633c0,0,3.218,3.734,4.403,3.734h6.436
		c0,0-2.795-5.43-4.658-6.529C140.976,245.566,140.443,242.422,139.889,241.729z"/>
	<path fill="#161616" d="M112.449,244.35c0,0,1.312-2.482,3.034,0c0,0,4.091,4.602,2.06,6.635c0,0-3.217,3.734-4.404,3.734h-6.434
		c0,0,2.793-5.43,4.656-6.527C111.362,248.191,111.896,245.047,112.449,244.35z"/>
	<path fill="#8D6850" d="M105.762,162.377c0,0-1.887-5.635-5.235-0.955c0,0,0.264,4.363-0.791,5.615c0,0-1.493,3.885,0.324,6.201
		c0,0,5.946,6.139,8.079,6.076c0,0,1.005-1.754-1.125-3.885c0,0-1.065-3.318-0.313-4.572c0,0,1.127-0.627,0.814,3.32
		c0,0-0.188,2.631,1.441,1.129c0,0,1.311-5.137-0.817-8.646C108.139,166.66,106.171,163.301,105.762,162.377z"/>
	<path fill="#8D6850" d="M147.828,162.377c0,0,1.888-5.635,5.235-0.955c0,0-0.264,4.363,0.791,5.615c0,0,1.493,3.885-0.324,6.201
		c0,0-5.946,6.139-8.08,6.076c0,0-1.005-1.754,1.125-3.885c0,0,1.065-3.318,0.314-4.572c0,0-1.128-0.627-0.815,3.32
		c0,0,0.188,2.631-1.441,1.129c0,0-1.311-5.137,0.817-8.646C145.451,166.66,147.418,163.301,147.828,162.377z"/>
	<g>
		<path fill="#341D17" d="M101.411,57.926c0,0,1.323,14.785,4.684,18.756c0,0,1.112-9.452-2.044-19.691L101.411,57.926z"/>
		<path fill="#341D17" d="M144.032,56.598c0,0-0.978,2.877-2.199,2.877l1.12,19.278c0,0,6.38-14.741,6.38-20.522L144.032,56.598z"/>
		<ellipse fill="#2E2E2E" cx="124.813" cy="117.46" rx="1.308" ry="1.375"/>
		<ellipse fill="#2E2E2E" cx="133.773" cy="117.46" rx="1.308" ry="1.375"/>
		<path fill="#E7E7E6" d="M120.753,96.097l-0.854,4.175c0,0-10.996,3.873-12.453,4.785c0,0-3.689,2.237-4.362,9.259
			c0,0-5.045,37.758-3.985,43.985h6.677c0,0,0.874-22.125,2.199-23.714c0,0,1.59,10.864-0.794,29.146c0,0,0.729,3.975,10.699,3.711
			l0.496,1.191c0,0,23.715,1.855,26.895-3.379l-0.33-25.105c0,0,2.121,13.249,1.986,18.15l6.361,0.066
			c0,0-2.586-40.408-4.307-45.376c0,0,0.596-8.082-8.811-10.069l-9.803-3.842l-0.797-3.251L120.753,96.097z"/>
		<ellipse fill="#2E2E2E" cx="124.813" cy="125.606" rx="1.308" ry="1.374"/>
		<ellipse fill="#2E2E2E" cx="133.773" cy="125.606" rx="1.308" ry="1.374"/>
		<path fill="#8D6850" d="M104.05,56.992c0,0,22.979-8.782,39.982-0.394c0,0-3.167,9.342-0.672,21c0,0,1.967-9.571,5.972-10.895
			c0,0,6.144-2.647,1.765,11.506c0,0-5.396,9.978-7.432,3.971c0,0-2.647,13.644-13.644,16.495l-1.834,2.3l-1.862,4.96
			c0,0-2.076,0.356-4.836-1.557l0.844-5.712c0,0-7.441,1.434-15.556-15.875c0,0-3.126,4.786-7.301-7.738
			c0,0-2.138-9.062,4.684-5.702L104.05,56.992z"/>
		<path fill="#2E2E2E" d="M120.3,98.314l-0.164,0.8c0,0,1.331,1.367,1.353,5.264l1.934,1.475l1.23-0.803
			c0,0-0.539,0.087-2.203-2.096l-0.117-4.289L120.3,98.314z"/>
		<path fill="#2E2E2E" d="M129.75,98.401l-2.468,2.192c0,0-1.292,5.341-2.627,4.457l-6.227,4.064l-0.547,58.328l0.496,1.191
			l1.557-58.658l6.393-4.041l1.862-4.96l2.166-1.819l-0.178-0.727L129.75,98.401z"/>
		<ellipse fill="#2E2E2E" cx="124.813" cy="133.751" rx="1.308" ry="1.375"/>
		<ellipse fill="#2E2E2E" cx="133.773" cy="133.751" rx="1.308" ry="1.375"/>
		<ellipse fill="#2E2E2E" cx="124.813" cy="143.526" rx="1.308" ry="1.375"/>
		<ellipse fill="#2E2E2E" cx="133.773" cy="143.526" rx="1.308" ry="1.375"/>
		<path fill="#2E2E2E" d="M99.159,158.137c0,0,0.012,3.564,1.03,3.869h6.211v-3.156L99.159,158.137z"/>
		<path fill="#2E2E2E" d="M154.56,157.629c0,0-0.012,3.563-1.03,3.867h-6.211v-3.154L154.56,157.629z"/>
		<path fill="#EAEAEA" d="M100.681,58.23c0,0,21.009-9.583,48.652,0V25.366c0,0-23.078-21.077-46.904-1.833L100.681,58.23z"/>
		<path fill="#E8E8E8" d="M101.411,48.988c0,0,22.807-11.404,48.262,0l-0.34-23.622c0,0-26.132-22.502-46.904-1.833L101.411,48.988z
			"/>
		<path fill="#E1E2E2" d="M112.407,16.769l-2.541,29.24l-8.72,2.979l1.282-25.455C102.429,23.533,109.353,17.379,112.407,16.769z"/>
		<path fill="#E1E2E2" d="M124.625,14.865v29.067c0,0,7.942-0.035,14.662,1.594l-1.629-27.084
			C137.658,18.442,134.196,15.272,124.625,14.865z"/>
		<ellipse fill="#FFFFFF" cx="131.651" cy="70.37" rx="2.851" ry="2.953"/>
		<ellipse fill="#FFFFFF" cx="116.174" cy="70.37" rx="2.851" ry="2.953"/>
		<ellipse fill="#676767" cx="130.429" cy="70.37" rx="1.106" ry="1.145"/>
		<ellipse fill="#676767" cx="116.854" cy="70.37" rx="1.106" ry="1.145"/>
		<path fill="#333333" d="M119.025,61.41c0,0-4.786,1.324-5.702,4.276c0,0-4.684,0.407-1.425-2.953
			C111.898,62.733,115.563,60.188,119.025,61.41z"/>
		<path fill="#333333" d="M124.625,61.078c0,0,8.146-0.687,11.709,4.099c0,0,0.712-2.708,2.138-2.067
			C138.473,63.11,132.466,55.553,124.625,61.078z"/>
		<path fill="#232120" d="M126.204,83.962c0,0,3.208-3.615,6.313,0c0,0,2.138,4.429,5.091,4.072c0,0,2.8-1.018,0.866,0.764
			c0,0-6.924,1.68-12.269-3.003l-0.712-0.071v-1.761H126.204z"/>
		<path fill="#232120" d="M125.408,83.962c0,0-3.207-3.615-6.313,0c0,0-2.138,4.429-5.091,4.072c0,0-2.8-1.018-0.865,0.764
			c0,0,6.923,1.68,12.269-3.003l0.713-0.071v-1.761H125.408z"/>
	</g>
</g>
<g>
	<path fill="#E2C193" d="M303.152,157.766c0,0-1.392-4.153-3.861-0.703c0,0,0.194,3.217-0.583,4.141c0,0-1.101,2.865,0.239,4.574
		c0,0,4.385,4.527,5.958,4.48c0,0,0.741-1.293-0.83-2.865c0,0-0.786-2.445-0.231-3.371c0,0,0.832-0.461,0.601,2.449
		c0,0-0.139,1.939,1.063,0.83c0,0,0.967-3.787-0.602-6.375C304.905,160.926,303.454,158.449,303.152,157.766z"/>
	<path fill="#E2C193" d="M346.824,157.264c0,0,1.393-4.155,3.863-0.707c0,0-0.195,3.221,0.582,4.143c0,0,1.1,2.865-0.238,4.572
		c0,0-4.387,4.529-5.961,4.484c0,0-0.74-1.295,0.832-2.865c0,0,0.785-2.449,0.23-3.375c0,0-0.832-0.461-0.602,2.449
		c0,0,0.139,1.941-1.063,0.834c0,0-0.967-3.789,0.602-6.377C345.07,160.422,346.523,157.943,346.824,157.264z"/>
	<path fill="#414141" d="M310.523,158.879c0,0-1.896,4.391,0.813,8.004l-1.459,82.188h4.426l6.967-76.768l6.969-0.389
		c0,0,6.451,49.547,6.709,77.674l4.258-0.771l-1.033-81.805c0,0,1.938-1.941,1.033-8.971L310.523,158.879z"/>
	<path fill="#161616" d="M339.4,244.703c0,0-1.383-2.621-3.199,0c0,0-4.318,4.854-2.174,6.996c0,0,3.395,3.939,4.645,3.939h6.788
		c0,0-2.948-5.727-4.913-6.887C340.546,248.752,339.984,245.438,339.4,244.703z"/>
	<path fill="#161616" d="M310.457,247.469c0,0,1.385-2.619,3.201,0c0,0,4.314,4.854,2.172,6.998c0,0-3.393,3.939-4.645,3.939h-6.786
		c0,0,2.946-5.727,4.911-6.887C309.31,251.52,309.875,248.205,310.457,247.469z"/>
	<path fill="#E7E7E6" d="M319.562,94.677l-0.854,4.175c0,0-10.996,3.873-12.453,4.785c0,0-3.689,2.237-4.362,9.259
		c0,0-5.045,37.758-3.985,43.985h6.677c0,0,0.874-22.125,2.199-23.714c0,0,1.59,10.864-0.794,29.146c0,0,0.729,3.975,10.699,3.711
		l0.496,1.191c0,0,23.715,1.855,26.895-3.379l-0.33-25.105c0,0,2.121,13.249,1.986,18.15l6.361,0.066c0,0-2.586-40.408-4.307-45.376
		c0,0,0.596-8.082-8.811-10.069l-9.803-3.842l-0.797-3.251L319.562,94.677z"/>
	<path fill="#E2C193" d="M299.201,62.981c0,0-3.677-1.888-2.583,6.26c0,0,1.987,12.818,7.452,8.148c0,0,5.068,15.601,17.19,17.687
		c0,0-0.1,5.962,0,6.459c0.1,0.497,2.881,4.645,3.316,0.012c0.418-4.452-0.137-4.484-0.137-4.484s2.662-1.888,3.516-2.683
		c0,0,8.408,1.49,14.471-16.892c0,0,6.293,3.478,8.215-7.717c0,0,4.123-15.105-3.934-7.619l-8.381-16.222
		c0,0-14.529-9.347-35.489-0.338L299.201,62.981z"/>
	<path fill="#F1F0F0" d="M346.102,47.381c0,0-24.444-5.962-46.901-0.894l1.391-19.277c0,0,18.582-10.93,43.621,0
		C344.213,27.21,346.002,39.63,346.102,47.381z"/>
	<path fill="#341D17" d="M302.837,45.763c0,0,3.934,2.91,0,7.58c0,0-0.318,13.415,1.749,19.178c0,0-2.802-8.844-5.385-9.539V46.487
		C299.201,46.487,301.674,45.934,302.837,45.763z"/>
	<path fill="#341D17" d="M338.326,45.93c0,0-1.201,2.909-1.83,3.471c0,0,6.193-0.364,6.459,21.496c0,0,1.358-8.148,3.743-8.479
		c0,0,0.463-13.182-0.596-15.037C346.102,47.381,339.693,45.87,338.326,45.93z"/>
	<path fill="#DCDBDB" d="M333.259,45.263c0,0-0.328-18.212-2.072-22.058c0,0-5.705-0.854-8.535-0.756c0,0,2.021,14.97,1.096,22.087
		C323.748,44.537,332.513,45.177,333.259,45.263z"/>
	<path fill="#DCDBDB" d="M300.592,27.21c0,0,3.592-1.752,5.51-2.35c0,0-1.265,17.327,0.373,20.355c0,0-5.783,0.841-7.273,1.272
		C299.201,46.487,300.028,28.17,300.592,27.21z"/>
	<path fill="#333333" d="M324.041,59.142c0,0,1.789-4.209,4.771-5.5c0,0,4.736-1.391,7.684,0c0,0,2.318,1.59,0,3.875
		C336.496,57.516,331.197,54.209,324.041,59.142z"/>
	<path fill="#333333" d="M316.689,64.074"/>
	<path fill="#333333" d="M318.708,59.57c0,0-2.186-5.054-9.34-3.487c0,0-1.523,1.173,0,2.33
		C309.369,58.413,316.324,57.516,318.708,59.57z"/>
	<ellipse fill="#F3F3F3" cx="313.128" cy="65.531" rx="3.561" ry="3.445"/>
	<ellipse fill="#333333" cx="313.128" cy="65.531" rx="2.385" ry="2.307"/>
	<ellipse fill="#F3F3F3" cx="331.412" cy="65.531" rx="3.561" ry="3.445"/>
	<ellipse fill="#333333" cx="331.411" cy="65.531" rx="2.384" ry="2.307"/>
	<path fill="#BBA17A" d="M321.558,68.976c0,0-6.824,11.327,1.986,8.412c0,0-1.92,2.782-5.631,0.861
		C317.914,78.25,316.06,73.746,321.558,68.976z"/>
	<path fill="#ECECEC" stroke="#726142" stroke-width="0.5" stroke-miterlimit="10" d="M315.513,85.073c0,0,12.105-0.53,15.898-4.704
		C331.412,80.369,329.341,94.148,315.513,85.073z"/>
	<path fill="#2E2E2E" d="M327.955,94.381l-3.516,2.683c0,0,0.359,7.452-0.977,6.567l-6.227,4.064l-0.547,58.328l0.496,1.191
		l1.557-58.658l6.393-4.041l0.795-7.088l2.629-2.292l-0.178-0.727L327.955,94.381z"/>
	<path fill="#2E2E2E" d="M319.562,94.677l-0.338,1.649c0,0,1.406-0.919,1.074,6.633l1.934,1.475l1.23-0.803
		c0,0-0.539,0.087-2.203-2.096v-6.459L319.562,94.677z"/>
	<ellipse fill="#2E2E2E" cx="321.995" cy="113.667" rx="0.964" ry="1.014"/>
	<ellipse fill="#2E2E2E" cx="331.534" cy="113.667" rx="0.964" ry="1.014"/>
	<ellipse fill="#2E2E2E" cx="321.995" cy="122.412" rx="0.964" ry="1.014"/>
	<ellipse fill="#2E2E2E" cx="331.534" cy="122.412" rx="0.964" ry="1.014"/>
	<ellipse fill="#2E2E2E" cx="321.2" cy="131.156" rx="0.964" ry="1.014"/>
	<ellipse fill="#2E2E2E" cx="330.739" cy="131.156" rx="0.964" ry="1.014"/>
	<ellipse fill="#2E2E2E" cx="321.2" cy="142.285" rx="0.964" ry="1.014"/>
	<ellipse fill="#2E2E2E" cx="330.739" cy="142.285" rx="0.964" ry="1.014"/>
</g>
<g>
	<g>
		<path fill="#E2C193" d="M497.329,153.248c0,0-1.413-4.215-3.917-0.715c0,0,0.197,3.264-0.591,4.201c0,0-1.117,2.906,0.242,4.639
			c0,0,4.448,4.592,6.045,4.547c0,0,0.751-1.314-0.843-2.908c0,0-0.797-2.482-0.234-3.42c0,0,0.843-0.469,0.609,2.484
			c0,0-0.141,1.969,1.078,0.844c0,0,0.98-3.844-0.61-6.467C499.108,156.453,497.635,153.939,497.329,153.248z"/>
		<path fill="#E2C193" d="M541.627,152.736c0,0,1.413-4.214,3.918-0.715c0,0-0.198,3.266,0.592,4.199c0,0,1.116,2.906-0.243,4.641
			c0,0-4.448,4.592-6.044,4.547c0,0-0.752-1.314,0.843-2.906c0,0,0.796-2.484,0.233-3.422c0,0-0.844-0.469-0.609,2.484
			c0,0,0.141,1.967-1.078,0.844c0,0-0.979-3.844,0.611-6.469C539.85,155.939,541.322,153.428,541.627,152.736z"/>
		<path fill="#414141" d="M504.806,154.377c0,0-1.924,4.453,0.824,8.117l-1.479,83.367h4.489l7.066-77.869l7.068-0.393
			c0,0,6.544,50.256,6.806,78.785l4.319-0.781l-1.049-82.979c0,0,1.966-1.971,1.049-9.1L504.806,154.377z"/>
		<path fill="#161616" d="M534.097,241.432c0,0-1.402-2.66-3.245,0c0,0-4.379,4.922-2.205,7.096c0,0,3.443,3.996,4.712,3.996h6.884
			c0,0-2.989-5.809-4.982-6.984C535.26,245.539,534.689,242.176,534.097,241.432z"/>
		<path fill="#161616" d="M504.738,244.236c0,0,1.405-2.656,3.247,0c0,0,4.377,4.922,2.203,7.098c0,0-3.441,3.996-4.711,3.996
			h-6.883c0,0,2.988-5.809,4.98-6.984C503.575,248.346,504.148,244.982,504.738,244.236z"/>
		<path fill="#E7E7E6" d="M513.975,89.252l-0.866,4.235c0,0-11.153,3.929-12.632,4.854c0,0-3.742,2.269-4.424,9.392
			c0,0-5.117,38.299-4.042,44.615h6.772c0,0,0.888-22.441,2.23-24.054c0,0,1.613,11.02-0.806,29.565c0,0,0.739,4.031,10.853,3.762
			l0.503,1.209c0,0,24.055,1.883,27.28-3.426l-0.335-25.466c0,0,2.15,13.438,2.017,18.409l6.45,0.07c0,0-2.621-40.99-4.367-46.029
			c0,0,0.604-8.198-8.938-10.213l-9.945-3.897l-1.038-3.313L513.975,89.252z"/>
		<path fill="#E2C193" d="M513.975,89.252l1.309,8.178l2.678,1.719l1.253-0.356l0.205-4.406l0.841-3.043l1.458-1.109l0.97-1.27
			C522.688,88.965,514.885,88.397,513.975,89.252z"/>
		<path fill="#2E2E2E" d="M522.095,89.252l-3.173,2.421c0,0,0.363,7.559-0.991,6.662l-6.315,4.123l-0.555,59.164l0.503,1.209
			l1.58-59.499l6.483-4.099l0.807-7.19l2.52-2.229l-0.266-0.849L522.095,89.252z"/>
		<path fill="#2E2E2E" d="M513.975,89.252l-0.342,1.673c0,0,1.426-0.932,1.089,6.728l1.961,1.496l1.248-0.814
			c0,0-0.547,0.088-2.234-2.126v-6.552L513.975,89.252z"/>
		<ellipse fill="#2E2E2E" cx="516.442" cy="108.515" rx="0.978" ry="1.029"/>
		<ellipse fill="#2E2E2E" cx="526.118" cy="108.515" rx="0.978" ry="1.029"/>
		<ellipse fill="#2E2E2E" cx="516.442" cy="117.385" rx="0.978" ry="1.028"/>
		<ellipse fill="#2E2E2E" cx="526.118" cy="117.385" rx="0.978" ry="1.028"/>
		<ellipse fill="#2E2E2E" cx="515.636" cy="126.254" rx="0.978" ry="1.028"/>
		<ellipse fill="#2E2E2E" cx="525.312" cy="126.254" rx="0.978" ry="1.028"/>
		<ellipse fill="#2E2E2E" cx="515.636" cy="137.543" rx="0.978" ry="1.028"/>
		<ellipse fill="#2E2E2E" cx="525.312" cy="137.543" rx="0.978" ry="1.028"/>
	</g>
	<path fill="#372117" enable-background="new    " d="M494.52,46.321c0,0-6.757,9.709-4.019,13.069l0.333,3.306h-4.949
		c0,0,0.071,9.672,9.323,8.92c0,0,1.074-0.293,1.866,0.207c0,0,1.427,2.211-5.04,1.957c0,0,1.71,5.406,11.03,4.985l30.659,0.023
		c0,0,4.296,0.757,3.957-2.916c0,0,7.164,1.15,7.988-4.909c0,0-2.276,0.821-3.39-0.654l0.816-1.016c0,0,1.622,0.873,2.573,0.429
		s0-0.19,0-0.19s2.536-2.028,2.346-5.706c0,0-2.124,0.243-2.361-0.259l-6.76-20.785L494.52,46.321z"/>
	<path fill="#E2C193" d="M497.849,48.918l-1.187,9.647c0,0-3.17-5.706-6.086-1.648c0,0-1.015,8.242,3.931,13.947
		c0,0,1.142,2.409,4.438,0c0,0,2.668,15.472,15.03,18.388l8.713-0.288c0,0,11.76-6.942,15.438-18.988c0,0,2.789,1.775,4.564,0
		c0,0,6.983-9.939,5.335-17.975c0,0-7.908-0.507-8.505,8.846l-1.521,0.253c0,0,0.227-12.976-19.479-8.353
		c0,0-0.361,0.654-7.687-0.943L497.849,48.918z"/>
	<path fill="#F1F0F0" d="M540.743,48.789c0,0-24.795-6.047-47.573-0.907l1.41-19.553c0,0,18.848-11.087,44.247,0
		C538.827,28.329,540.642,40.928,540.743,48.789z"/>
	<path fill="#DCDBDB" d="M527.717,46.641c0,0-0.332-18.473-2.102-22.374c0,0-5.787-0.866-8.66-0.767c0,0,2.052,15.185,1.113,22.404
		C518.068,45.904,526.96,46.554,527.717,46.641z"/>
	<path fill="#DCDBDB" d="M494.58,28.329c0,0,3.644-1.777,5.589-2.384c0,0-1.282,17.576,0.378,20.647c0,0-5.865,0.853-7.377,1.29
		C493.17,47.882,494.009,29.303,494.58,28.329z"/>
	<path fill="#443119" enable-background="new    " d="M502.232,62.843c0,0-2.085-3.79,0.619-6.665c0,0,6.381-5.79,11.242,2.832
		c0,0,0.507,1.896-0.84,4.252L502.232,62.843z"/>
	<ellipse fill="#E3E6F0" enable-background="new    " cx="507.795" cy="61.547" rx="5.706" ry="5.875"/>
	<ellipse fill="#8FA1C4" enable-background="new    " cx="508.285" cy="61.546" rx="2.306" ry="2.337"/>
	<ellipse fill="#314461" enable-background="new    " cx="507.809" cy="61.764" rx="1.271" ry="1.288"/>
	<path fill="#372117" enable-background="new    " d="M531.678,62.843c0,0,2.086-3.79-0.619-6.665c0,0-6.381-5.79-11.241,2.832
		c0,0-0.508,1.896,0.84,4.252L531.678,62.843z"/>
	<ellipse fill="#E3E6F0" enable-background="new    " cx="526.115" cy="61.547" rx="5.706" ry="5.875"/>
	<ellipse fill="#8FA1C4" enable-background="new    " cx="523.47" cy="61.106" rx="2.306" ry="2.337"/>
	<ellipse fill="#314461" enable-background="new    " cx="523.005" cy="61.546" rx="1.271" ry="1.288"/>
	<path fill="#432F2E" enable-background="new    " d="M512.234,79.763c0,0,12.004,1.605,12.679-4.311
		C524.913,75.452,525.844,83.228,512.234,79.763z"/>
	<path fill="#806145" d="M515.107,64.294l-3.232,6.847c0,0-0.635,1.965,1.141,1.965h4.945l-4.818-0.824c0,0-0.908-0.507-0.381-1.458
		L515.107,64.294z"/>
</g>
<path fill="#2E2E2E" d="M352.811,153.255c0,0-0.013,3.563-1.031,3.867h-6.211v-3.154L352.811,153.255z"/>
<path fill="#2E2E2E" d="M547.61,148.698c0,0-0.013,3.563-1.031,3.867h-6.211v-3.154L547.61,148.698z"/>
<path fill="#2E2E2E" d="M491.029,148.528c0,0,0.014,3.563,1.116,3.867h6.72v-3.154L491.029,148.528z"/>
<path fill="#2E2E2E" d="M297.443,153.255c0,0,0.013,3.563,1.031,3.867h6.211v-3.154L297.443,153.255z"/>
</svg>
