<?xml version="1.0" encoding="utf-8"?>
<!-- Generator: Adobe Illustrator 16.0.0, SVG Export Plug-In . SVG Version: 6.00 Build 0)  -->
<!DOCTYPE svg PUBLIC "-//W3C//DTD SVG 1.1//EN" "http://www.w3.org/Graphics/SVG/1.1/DTD/svg11.dtd">
<svg version="1.1" id="Layer_1" xmlns="http://www.w3.org/2000/svg" xmlns:xlink="http://www.w3.org/1999/xlink" x="0px" y="0px"
	 width="684px" height="296.641px" viewBox="0 0 684 296.641" enable-background="new 0 0 684 296.641" xml:space="preserve">
<rect y="0" display="none" fill="#A7C5C5" width="684" height="296.641"/>
<g>
	<path fill="#414141" d="M134.312,161.142c0,0-4.187,11.822,1.063,13.572l-2.645,105c0,0,3.645-4.25,6.395,0l7.596-98l9.654,0.25
		c0,0,5.25,12.5,8.75,97.75c0,0,3.5-3.25,5.5,0l-1.5-106.25c0,0,3.5-2.896,1.5-12.322
		C170.625,161.142,142.749,156.318,134.312,161.142z"/>
	<path fill="#8B6643" d="M179.856,174.722c0,0,2.291-6.844,6.36-1.16c0,0-0.321,5.301,0.959,6.82c0,0,1.813,4.722-0.395,7.534
		c0,0-7.224,7.458-9.813,7.384c0,0-1.222-2.132,1.366-4.721c0,0,1.293-4.032,0.38-5.555c0,0-1.367-0.762-0.987,4.032
		c0,0,0.228,3.196-1.753,1.369c0,0-1.591-6.238,0.994-10.502C176.967,179.927,179.358,175.848,179.856,174.722z"/>
	<path fill="#8B6643" d="M129.158,180.677c2.585,4.264,0.994,10.503,0.994,10.503c-1.98,1.826-1.753-1.37-1.753-1.37
		c0.38-4.794-0.987-4.032-0.987-4.032c-0.913,1.521,0.38,5.555,0.38,5.555c2.588,2.589,1.366,4.721,1.366,4.721
		c-2.59,0.074-9.813-7.384-9.813-7.384c-2.207-2.813-0.395-7.534-0.395-7.534c1.28-1.521,0.959-6.82,0.959-6.82
		c4.069-5.684,6.36,1.16,6.36,1.16C126.767,176.598,129.158,180.677,129.158,180.677z"/>
	<path fill="#161616" d="M131.729,280.965c0,0-4.355,8.25-8.355,13.75c0,0,10.5,2,16.5-6.875c0,0,1.974-6.595-0.999-8.481
		C138.876,279.357,134.812,273.152,131.729,280.965z"/>
	<path fill="#161616" d="M171.262,280.965c0,0,4.355,8.25,8.355,13.75c0,0-10.5,2-16.5-6.875c0,0-1.223-6.236,1.75-8.125
		C164.867,279.715,169.407,273.965,171.262,280.965z"/>
	<path fill="#333333" d="M146.542,91.215l-16.667,8.333c0,0-3.125-1.458-8.875,35.792l-2.75,39.375h8.875c0,0,2.5-40.5,4.625-43.75
		l-1.113,39.438c0,0,27.613,4.875,42.613,0l-0.125-39.188h1.625l4.125,43.5h8.25c0,0-0.875-36.375-3.75-48.625
		c0,0-3.875-24.603-8-27.051l-17.218-8.354L146.542,91.215z"/>
	<path fill="#232323" d="M163.189,93.127l1.811,11.54L160.687,110l3.646,5.283c0,0-13.667,24.55-14.167,27.717l-12.73-30.167
		l4.25-3.667l-4.25-6.5l5.58-9.688L163.189,93.127z"/>
	<path fill="#EAEAEA" d="M143.017,92.978c0,0,2.691,28.653,7.214,46.903c0,0,10.896-38.908,12.959-46.754l-5.033-2.441
		l-11.455,0.371L143.017,92.978z"/>
	<path fill="#8B6643" d="M126.125,55.465c0,0-14-40.5,17.25-46.5c0,0,18.25-2,29.25,7.5c0,0,8,17,2.5,39c0,0,5.75-17,11-7.25
		c0,0-1.25,23.875-11.75,17.625c0,0-3.875,14.25-17.25,20.125c0,0-17,8.25-29.5-19.75c0,0-8.625,5.375-11-14.875
		C116.625,51.34,119.875,40.09,126.125,55.465z"/>
	<path fill="#56402A" d="M122.125,48.715c0,0,3.109,4.578,3.949,6.625c0,0-3.324-19,1.801-26.25V18.215c0,0,26,7,42.375,0
		c0,0-0.125,6.875-2.25,10.125c0,0,9.083,2.833,6.833,26.833l0.479,0.958c0,0,2.875-7.51,4.379-9.267c0,0,7.6-36.149-17.566-43.649
		c0,0-23.667-8.333-38.833,14.5C123.291,17.715,118.958,33.881,122.125,48.715z"/>
	<path fill="#333333" d="M133.125,45.298c0,0,1.417-9.667,12.833-5.417v3C145.958,42.882,137.875,39.965,133.125,45.298z"/>
	<path fill="#333333" d="M153.958,39.965v2.667c0,0,11.833,0.417,12.833,3C166.791,45.632,166.198,36.402,153.958,39.965z"/>
	<ellipse fill="#F2F2F2" cx="139.562" cy="50.246" rx="3.688" ry="3.656"/>
	<ellipse fill="#333333" cx="139.562" cy="50.246" rx="2.125" ry="2.107"/>
	<ellipse fill="#F2F2F2" cx="158.562" cy="50.246" rx="3.688" ry="3.656"/>
	<ellipse fill="#333333" cx="158.562" cy="50.246" rx="2.125" ry="2.107"/>
	<path fill="#6B533C" d="M148.562,48.402c0,0-13.813,25.938,3.375,18.75C151.937,67.152,137.25,72.902,148.562,48.402z"/>
	<path fill="#543D33" d="M144.25,74.777c0,0,10.938,3.25,15.125-2.875l1,0.688C160.375,72.59,155.062,80.84,144.25,74.777z"/>
	<path fill="#51342A" d="M156.875,68.715c0,0,1.75,4.688,6.188,4.938C163.062,73.652,159.125,72.465,156.875,68.715z"/>
	<path fill="#8B6643" d="M146.11,86.324c0,0,5.139,5.702,5.264,6.327H154l3.125-2.979v-3.708
		C157.125,85.965,150.471,83.892,146.11,86.324z"/>
	<path fill="#E1EFF1" d="M148.61,89.155l-2.068,2.061l0.417,6.25l4.417-4.813C151.375,92.652,149.099,89.717,148.61,89.155z"/>
	<path fill="#E1EFF1" d="M153.458,92.652l3.667-2.979l2.167,2.125l-3.333,7.75C155.958,99.548,154.375,95.256,153.458,92.652z"/>
	<path fill="#5E8BC8" d="M148.159,96.156c0,0,2.934,5.497,6.715,1.309l-1.417-4.813h-2.083L148.159,96.156z"/>
	<path fill="#5E8BC8" d="M150.23,98.465l-3.51,24.334l3.56,17.229l5.01-17.979l-2.44-23.148
		C152.851,98.899,153.003,96.048,150.23,98.465z"/>
</g>
<g>
	<g>
		<path fill="#414141" d="M327.147,159.49c0,0-4.187,11.821,1.063,13.571l-2.645,105c0,0,3.645-4.25,6.395,0l7.596-98l9.654,0.25
			c0,0,5.25,12.5,8.75,97.75c0,0,3.5-3.25,5.5,0l-1.5-106.25c0,0,3.5-2.896,1.5-12.321
			C363.461,159.49,335.584,154.666,327.147,159.49z"/>
		<path fill="#E2C193" d="M372.691,173.07c0,0,2.291-6.844,6.359-1.159c0,0-0.32,5.301,0.96,6.819c0,0,1.813,4.722-0.396,7.535
			c0,0-7.227,7.457-9.813,7.383c0,0-1.222-2.131,1.366-4.722c0,0,1.293-4.03,0.379-5.553c0,0-1.365-0.763-0.984,4.03
			c0,0,0.227,3.197-1.754,1.371c0,0-1.591-6.239,0.993-10.502C369.803,178.275,372.193,174.195,372.691,173.07z"/>
		<path fill="#E2C193" d="M321.994,179.025c2.585,4.263,0.994,10.502,0.994,10.502c-1.98,1.826-1.753-1.37-1.753-1.37
			c0.38-4.794-0.987-4.031-0.987-4.031c-0.913,1.521,0.38,5.553,0.38,5.553c2.588,2.591,1.366,4.722,1.366,4.722
			c-2.59,0.074-9.813-7.383-9.813-7.383c-2.207-2.813-0.395-7.535-0.395-7.535c1.28-1.521,0.959-6.819,0.959-6.819
			c4.069-5.685,6.36,1.159,6.36,1.159C319.603,174.945,321.994,179.025,321.994,179.025z"/>
		<path fill="#161616" d="M324.565,279.313c0,0-4.355,8.25-8.355,13.75c0,0,10.5,2,16.5-6.875c0,0,1.974-6.595-0.999-8.481
			C331.712,277.705,327.648,271.5,324.565,279.313z"/>
		<path fill="#161616" d="M364.098,279.313c0,0,4.355,8.25,8.355,13.75c0,0-10.5,2-16.5-6.875c0,0-1.223-6.235,1.75-8.125
			C357.703,278.063,362.242,272.313,364.098,279.313z"/>
		<path fill="#333333" d="M339.377,89.563l-16.667,8.333c0,0-3.125-1.458-8.875,35.792l-2.75,39.375h8.875c0,0,2.5-40.5,4.625-43.75
			l-1.112,38.34c0,0,28.027,5.042,43.027,0.167l-0.54-38.257h1.625l4.125,43.5h8.25c0,0-0.875-36.375-3.75-48.625
			c0,0-3.875-24.603-8-27.051l-17.219-8.354L339.377,89.563z"/>
		<path fill="#232323" d="M356.025,91.475l1.811,11.54l-4.313,5.333l3.646,5.282c0,0-13.667,24.551-14.167,27.718l-12.73-30.167
			l4.25-3.667l-4.25-6.5l5.58-9.688L356.025,91.475z"/>
		<path fill="#E5E5E5" d="M335.853,91.326c0,0,2.691,28.653,7.213,46.903c0,0,10.896-38.909,12.959-46.754l-5.032-2.441
			l-11.455,0.37L335.853,91.326z"/>
		<path fill="#E2C193" d="M341.877,87.848c0,0,2.178,6.095,2.303,6.72l1.344-2.845l2.351-2.006l2.058-1.837
			C349.93,87.88,346.238,85.415,341.877,87.848z"/>
		<path fill="#E1EFF1" d="M341.446,87.503l-2.068,2.061l0.417,6.25L344.211,91C344.211,91,341.935,88.065,341.446,87.503z"/>
		<path fill="#E1EFF1" d="M346.294,91l3.55-3.043l2.283,2.188l-3.333,7.75C348.794,97.896,347.211,93.604,346.294,91z"/>
		<path fill="#959335" d="M340.995,94.504c0,0,2.935,5.498,6.716,1.31L346.294,91h-2.083L340.995,94.504z"/>
		<path fill="#959335" d="M343.066,96.813l-3.51,24.334l3.561,17.229l5.01-17.979l-2.439-23.148
			C345.688,97.248,345.839,94.396,343.066,96.813z"/>
	</g>
	<path fill="#E2C193" d="M319.453,22.954c0,0-3.25,27.667-1.25,29.833c0,0-8.688-9.271-6.938,5.417c0,0,1.813,13.75,9.688,8.875
		c0,0,5.875,19.563,19.25,20.938h9.125c0,0,12.813-0.625,16.938-21.063c0,0,6.438,5.813,9.813-8.313c0,0,3.5-22.188-6.813-6.75
		l-2.563-27.313C366.703,24.579,347.703,1.643,319.453,22.954z"/>
	<path fill="#3D3D3D" d="M318.328,52.829l2.125-29.125c0,0,26.375,6.75,42.5,5.75c0,0-2.25,3.375,0.5,8.813
		c0,0,3.625,5.938,3,14.563h2.75c0,0,4-13.75,3-33.75c0,0,0.25-0.5,0.16-1.125l-0.244-2c0,0-0.229-0.563-0.834-1.25
		c0,0-25.666-22.75-43.833-3.75h-7.167c0,0-7.334,5.417-8,7.583c0,0-0.999,1.5,2.834,1.5
		C315.12,20.037,313.37,55.287,318.328,52.829z"/>
	<path fill="#3D3D3D" d="M342.275,39.11c0,0,11.133-6.146,17.678,2.179l-1.668,4.666C358.285,45.954,350.598,37.767,342.275,39.11z"
		/>
	<path fill="#3D3D3D" d="M337.287,40.954c0,0-9.333-3.167-11.667,2.583l1.666,2.417C327.286,45.954,329.121,40.954,337.287,40.954z"
		/>
	<circle fill="#FFFFFF" cx="332.62" cy="51.735" r="3.75"/>
	<circle fill="#333333" cx="333.62" cy="51.735" r="1.834"/>
	<circle fill="#FFFFFF" cx="350.619" cy="51.735" r="3.75"/>
	<circle fill="#333333" cx="350.619" cy="51.735" r="1.834"/>
	<path fill="#93846F" d="M340.853,49.901c0,0-12.076,23.304,3.512,18.179C344.365,68.079,331.878,72.224,340.853,49.901z"/>
	<path fill="#584537" d="M336.392,74.954c0,0,10.688,2.625,16.061-2.625C352.453,72.329,348.707,79.329,336.392,74.954z"/>
	<path fill="#584537" d="M349.641,70.143c0,0,2.375,2.5,5.063,3.5c0,0-3-0.625-5.313-3.5"/>
</g>
<g>
	<g>
		<g>
			<path fill="#414141" d="M528.143,158.233c0,0-4.187,11.822,1.063,13.572l-2.646,105c0,0,3.646-4.25,6.396,0l7.597-98l9.653,0.25
				c0,0,5.25,12.5,8.75,97.75c0,0,3.5-3.25,5.5,0l-1.5-106.25c0,0,3.5-2.896,1.5-12.322
				C564.456,158.233,536.58,153.408,528.143,158.233z"/>
			<path fill="#E2C193" d="M573.688,171.813c0,0,2.291-6.845,6.36-1.16c0,0-0.321,5.302,0.959,6.82c0,0,1.813,4.721-0.395,7.534
				c0,0-7.226,7.457-9.813,7.384c0,0-1.222-2.132,1.366-4.722c0,0,1.293-4.03,0.38-5.553c0,0-1.367-0.763-0.987,4.03
				c0,0,0.229,3.197-1.753,1.371c0,0-1.591-6.24,0.994-10.502C570.799,177.019,573.189,172.938,573.688,171.813z"/>
			<path fill="#E2C193" d="M522.989,177.769c2.585,4.263,0.994,10.502,0.994,10.502c-1.98,1.826-1.753-1.371-1.753-1.371
				c0.38-4.793-0.987-4.03-0.987-4.03c-0.913,1.521,0.38,5.553,0.38,5.553c2.588,2.59,1.366,4.722,1.366,4.722
				c-2.59,0.073-9.813-7.384-9.813-7.384c-2.207-2.813-0.395-7.534-0.395-7.534c1.28-1.521,0.959-6.82,0.959-6.82
				c4.067-5.685,6.358,1.16,6.358,1.16C520.599,173.688,522.989,177.769,522.989,177.769z"/>
			<path fill="#161616" d="M525.561,278.056c0,0-4.354,8.25-8.354,13.75c0,0,10.5,2,16.5-6.875c0,0,1.974-6.595-0.999-8.481
				C532.707,276.448,528.644,270.243,525.561,278.056z"/>
			<path fill="#161616" d="M565.094,278.056c0,0,4.354,8.25,8.354,13.75c0,0-10.5,2-16.5-6.875c0,0-1.225-6.236,1.75-8.125
				C558.698,276.806,563.238,271.056,565.094,278.056z"/>
			<path fill="#333333" d="M540.373,88.306l-16.667,8.333c0,0-3.125-1.458-8.875,35.792l-2.75,39.375h8.875
				c0,0,2.5-40.5,4.625-43.75l-1.113,38.931c0,0,27.365,2.875,42.365-2l0.123-36.681h1.625l4.125,43.5h8.25
				c0,0-0.875-36.375-3.75-48.625c0,0-3.875-24.603-8-27.052l-17.218-8.354L540.373,88.306z"/>
			<path fill="#232323" d="M557.021,90.218l1.811,11.54l-4.313,5.333l3.646,5.283c0,0-13.667,24.55-14.167,27.717l-12.729-30.167
				l4.25-3.667l-4.25-6.5l5.579-9.688L557.021,90.218z"/>
			<path fill="#E5E5E5" d="M536.848,90.068c0,0,2.691,28.654,7.217,46.904c0,0,10.896-38.909,12.959-46.755l-5.033-2.441
				l-11.455,0.371L536.848,90.068z"/>
			<path fill="#E2C193" d="M542.873,86.59c0,0,2.178,6.096,2.303,6.721l1.343-2.846l2.353-2.005l2.057-1.837
				C550.926,86.623,547.234,84.158,542.873,86.59z"/>
			<path fill="#E1EFF1" d="M542.441,86.246l-2.068,2.061l0.416,6.25l4.417-4.813C545.206,89.743,542.93,86.808,542.441,86.246z"/>
			<path fill="#E1EFF1" d="M547.289,89.743l3.551-3.043l2.283,2.188l-3.334,7.75C549.789,96.639,548.206,92.347,547.289,89.743z"/>
		</g>
	</g>
	<path fill="#E2C193" d="M521.469,56.327c0,0-9.666-47.667,16-38.667c0,0,25.334-8.333,29.668,7.667v31
		c0,0,6.396-14.438,11.521-9.563c0,0,0.688,23.188-10.563,18.813c0,0-1.375,20.5-16.75,20.625h-9.5c0,0-15,0.125-20.625-19.625
		c0,0-6.5,3.375-8.25-15C512.969,51.577,516.094,41.827,521.469,56.327z"/>
	<path fill="#54443B" d="M515.938,48.372c0,0-4.094-35.67,19.156-38.795c0,0,29.5-3.625,38.125,9.5c0,0,6.75,2.25,2.5,27.125
		c0,0-4.813-0.375-7.25,11h-1.75c0,0-0.125-18.5-1.875-22.25c0,0,4.875-15.625-6.125-18.25c0,0-11.5-2.25-17,1.5l-6.375,0.125
		c0,0-4.625-3.125-10.25,1c0,0-7.875,4-2.75,37l-1.5-0.125C520.844,56.202,518.438,48.76,515.938,48.372z"/>
	<path fill="#333333" d="M544.219,39.327c0,0,7.693-7.778,17,1.5l-1.75,4.25C559.469,45.077,554.719,37.327,544.219,39.327z"/>
	<path fill="#333333" d="M538.094,39.452c0,0-8.125-1.5-11.375,2.625l1.375,3C528.094,45.077,531.381,40.09,538.094,39.452z"/>
	<ellipse fill="#FFFFFF" cx="553.094" cy="50.327" rx="3.375" ry="3.125"/>
	<ellipse fill="#333333" cx="553.094" cy="50.327" rx="1.875" ry="1.736"/>
	<ellipse fill="#FFFFFF" cx="535.094" cy="50.327" rx="3.375" ry="3.125"/>
	<ellipse fill="#333333" cx="536.094" cy="50.327" rx="1.875" ry="1.736"/>
	<path fill="#553E34" d="M535.094,75.202c0,0,17,2.25,19.875-1.75C554.969,73.452,553.219,78.452,535.094,75.202z"/>
	<path fill="#A88B65" d="M554.594,68.327c0,0,0.313,9.188,3.375,10.313C557.969,78.639,555.281,75.702,554.594,68.327z"/>
	<path fill="#A88B65" d="M533.156,79.202c0,0,2.688-3.125,2.938-9.313C536.094,69.889,534.906,76.327,533.156,79.202z"/>
	<path fill="#A88B65" d="M543.781,48.014c0,0-12.063,25.438,2.938,18.5C546.719,66.514,533.031,74.764,543.781,48.014z"/>
	<path fill="#4E1B1A" d="M547.418,89.845c0,0,3.166-3,5.416-2.583c0,0,0.583,3.5-2.25,4.167c0,0,2.417,2.583,1.917,4.667
		c0,0-3.749,0.417-5.083-2.5l-1.667-0.167v-3.5L547.418,89.845z"/>
	<path fill="#4E1B1A" d="M544.217,89.845c0,0-3.166-3-5.416-2.583c0,0-0.583,3.5,2.25,4.167c0,0-2.417,2.583-1.917,4.667
		c0,0,3.749,0.417,5.083-2.5l1.667-0.167v-3.5L544.217,89.845z"/>
</g>
</svg>
