<?xml version="1.0" encoding="utf-8"?>
<!-- Generator: Adobe Illustrator 16.0.0, SVG Export Plug-In . SVG Version: 6.00 Build 0)  -->
<!DOCTYPE svg PUBLIC "-//W3C//DTD SVG 1.1//EN" "http://www.w3.org/Graphics/SVG/1.1/DTD/svg11.dtd">
<svg version="1.1" id="Layer_1" xmlns="http://www.w3.org/2000/svg" xmlns:xlink="http://www.w3.org/1999/xlink" x="0px" y="0px"
	 width="684px" height="296.64px" viewBox="0 0 684 296.64" enable-background="new 0 0 684 296.64" xml:space="preserve">
<rect y="0.54" fill="#A7C5C5" width="684" height="296.1"/>
<g>
	<path fill="#E5BC98" d="M128.357,140.022l3.843,43.351c-0.931,0.622-3.623,5.075-3.623,5.075
		c-2.071,2.743-1.087,10.403-1.087,10.403c2.07,4.559,1.553-4.139,1.553-4.139c1.243-3.002,1.967-0.209,1.967-0.209
		c0.931,4.04-2.381,7.558-2.381,7.558c-0.932,4.244,2.899,0.621,2.899,0.621l4.246-3.418c3.521-2.068,3.417-5.796,3.417-5.796
		c0.415-3.001-1.83-10.25-1.83-10.25c2.208-8.075-2.594-44.112-2.594-44.112L128.357,140.022z"/>
	<path fill="#E5BC98" d="M75.858,138.245c0,0-4.801,36.038-2.594,44.113c0,0-2.245,7.248-1.83,10.25c0,0-0.104,3.727,3.417,5.796
		l4.246,3.418c0,0,3.831,3.623,2.899-0.622c0,0-3.313-3.517-2.382-7.558c0,0,0.725-2.792,1.967,0.21c0,0-0.518,8.697,1.553,4.139
		c0,0,0.984-7.66-1.087-10.403c0,0-2.691-4.454-3.622-5.075l3.843-43.351L75.858,138.245z"/>
	<path fill="#414141" d="M112.347,203.502c0,0,5.696,62.6,4.905,73.204c0,0,2.216-4.115,4.907,0v-73.705
		C122.159,203.001,113.141,201.523,112.347,203.502z"/>
	<path fill="#161616" d="M117.252,276.706c0,0-5.541,5.698-1.583,9.497c0,0,4.115,4.274,6.49,4.116l8.705,0.005
		c0,0-7.914-10.769-8.705-13.618C122.159,276.706,119.879,272.52,117.252,276.706z"/>
	<path fill="#414141" d="M96.991,204.293c0,0-5.696,62.6-4.905,73.205c0,0-2.215-4.116-4.906,0v-74.235
		C87.18,203.263,96.197,202.314,96.991,204.293z"/>
	<path fill="#161616" d="M92.086,277.498c0,0,5.541,5.697,1.583,9.496c0,0-4.116,4.274-6.49,4.116l-8.706,0.005
		c0,0,7.914-10.769,8.706-13.617C87.18,277.498,89.459,273.311,92.086,277.498z"/>
	<path fill="#E5E5E5" d="M97.941,95.378c0,0-10.604,4.528-14.72,5.715c0,0-5.541,1.028-5.856,15.432c0,0-5.381,44.003-4.432,48.118
		h7.756c0,0,0.633-22.634,3.324-27.224c0,0-0.475,56.031-2.849,64.895c0,0,18.066,3.009,22.171,1.267l2.202-12.188l2.969,12.188
		c0,0,17.452-0.157,22.042-1.899c0,0-5.857-53.974-3.799-62.046c0,0,3.799,20.734,3.799,26.116l7.119-0.632
		c0,0-1.579-40.521-5.219-51.917c0,0-0.158-11.34-6.964-12.872c0,0-13.803-6.012-14.008-6.676
		C111.475,93.655,100.87,91.483,97.941,95.378z"/>
	<polygon fill="#C5DBD9" points="93.452,97.137 102.769,132.434 104.589,132.434 115.061,95.544 111.377,93.296 98.654,94.683 	"/>
	<path fill="#E5BC98" d="M77.681,55.508c0,0-6.647-10.209-7.241,3.087c0,0,2.73,18.4,9.616,11.277c0,0,9.972,28.016,31.814,19.706
		c0,0,8.429-1.781,14.602-19.706c0,0,6.41,5.817,9.141-7.598c0,0,5.936-13.771-2.374-13.533c0,0-3.443,3.917-6.411,6.292
		c0,0,3.562-30.153-9.972-33.477c0,0-29.678-7.716-39.412,2.73C77.444,24.288,74.951,48.148,77.681,55.508z"/>
	<path fill="#6B543B" d="M77.681,55.508c0,0,1.543-27.066,2.256-29.678c0,0,34.07,7.716,42.854,6.292c0,0-0.475,9.022,2.612,13.533
		v9.853h3.799l2.968-33.833c0,0,1.068-3.68-0.712-5.698c0,0-15.907-7.479-19.231-9.497c0,0-14.008-4.867-25.048,7.36
		c0,0-10.803-1.306-15.907,8.31c0,0,0.95,1.187,3.324-0.356l0.273,30.633C74.868,52.428,76.852,54.261,77.681,55.508z"/>
	<path fill="#333333" d="M104.114,47.832c0,0,1.425-8.705,15.67-7.281v5.698C119.784,46.249,109.18,43.241,104.114,47.832z"/>
	<path fill="#333333" d="M97.309,47.832c0,0,0-5.064-10.763-4.432v3.799C86.545,47.199,94.776,45.774,97.309,47.832z"/>
	<path fill="#333333" d="M107.913,54.796c0,0,6.965-3.482,8.072,3.957C115.985,58.753,109.654,54.796,107.913,54.796z"/>
	<path fill="#333333" d="M88.287,58.753c0,0,2.215-6.354,6.964-2.385C95.25,56.368,89.711,57.17,88.287,58.753z"/>
	<path fill="#B6967D" d="M100.949,53.055c0,0-10.605,21.526,3.166,17.411v1.266C104.114,71.732,88.128,75.848,100.949,53.055z"/>
	<path fill="#543D33" d="M93.51,73.632c0,0,0.158,6.015-1.741,8.864C91.769,82.496,94.618,80.28,93.51,73.632z"/>
	<path fill="#543D33" d="M93.452,79.326c0,0,18.735,1.231,19.764-2.014C113.216,77.312,110.647,82.844,93.452,79.326z"/>
	<path fill="#543D33" d="M112.266,72.682c0,0,0.08,7.875,3.958,10.447C116.224,83.129,112.979,80.557,112.266,72.682z"/>
	<path fill="#E5BC98" d="M100.042,90.691l1.312,3.784l0.871,1.543l1.829,0.445l2.653,0.148l2.226-1.929l1.039-2.374v-1.365
		l0.02-0.731C109.991,90.213,100.679,89.446,100.042,90.691z"/>
	<path fill="#69C9CA" d="M104.053,95.378h1.486l0.767,3.672c0,0-0.639,1.301-1.707,1.153c0,0-2.375,0.624-3.102-0.89l0.313-2.018
		l1.009-1.306L104.053,95.378z"/>
	<path fill="#E1EFF1" d="M100.042,90.691c0,0-1.388,2.33-1.388,3.992c0,0,0.957,4.749,1.388,5.382l1.837-0.95l2.174-3.737
		C104.053,95.378,100.956,92.477,100.042,90.691z"/>
	<path fill="#E1EFF1" d="M105.539,95.378c0,0,3.442-4.096,4.452-5.166c0,0,1.326,2.571,1.484,3.442c0,0-2.77,6.727-4.432,7.439
		C107.043,101.094,105.46,97.181,105.539,95.378z"/>
	<path fill="#69C9CA" d="M102.848,100.331l-3.067,20.783l3.067,11.478h2.168l2.67-11.07l-2.67-21.19
		C105.017,100.331,103.798,99.33,102.848,100.331z"/>
	<polygon fill="#E5E5E5" points="70.954,164.574 82.034,164.574 80.926,169.393 71.508,169.393 	"/>
	<polygon fill="#E5E5E5" points="129.281,164.96 139.807,164.96 138.699,169.393 129.281,169.393 	"/>
</g>
<g>
	<g>
		<path fill="#323232" d="M269.045,277.218c0,0,2.665,1.358,5.3,0.29c0,0,0.816,5.336,1.758,6.027c0,0,11.927,7.405,4.269,10.67
			c0,0-5.398,1.066-7.156-3.2c0,0-3.39-6.593-6.277-5.839C266.938,285.166,267.727,280.669,269.045,277.218z"/>
		<path fill="#E5BC98" d="M250.045,212.005c0,0-4.268,56.465-4.268,67.009c0,0-2.009,0.755-5.273-1.506
			c0,0,1.106-65.799,0.925-66.469C241.429,211.039,247.472,209.864,250.045,212.005z"/>
		<path fill="#323232" d="M245.804,277.218c0,0-2.665,1.358-5.301,0.29c0,0-0.816,5.336-1.758,6.027c0,0-11.927,7.405-4.269,10.67
			c0,0,5.398,1.066,7.156-3.2c0,0,3.389-6.593,6.277-5.839C247.91,285.166,247.123,280.669,245.804,277.218z"/>
		<path fill="#E5BC98" d="M264.805,212.531c0,0,4.268,55.938,4.268,66.482c0,0,2.009,0.755,5.272-1.506
			c0,0-0.488-64.888-0.307-65.556C274.038,211.952,267.378,210.391,264.805,212.531z"/>
		<path fill="#E5BC98" d="M278.515,137.734l4.064,45.848c-0.984,0.656-3.831,5.366-3.831,5.366c-2.19,2.902-1.15,11.003-1.15,11.003
			c2.189,4.821,1.642-4.377,1.642-4.377c1.315-3.176,2.081-0.222,2.081-0.222c0.985,4.274-2.519,7.992-2.519,7.992
			c-0.985,4.489,3.066,0.657,3.066,0.657l4.491-3.613c3.724-2.189,3.614-6.13,3.614-6.13c0.438-3.175-1.935-10.841-1.935-10.841
			c2.334-8.54-2.744-46.652-2.744-46.652L278.515,137.734z"/>
		<path fill="#E5BC98" d="M231.225,136.766c0,0-5.078,38.112-2.744,46.652c0,0-2.374,7.666-1.935,10.841c0,0-0.11,3.94,3.614,6.13
			l4.49,3.613c0,0,4.052,3.832,3.066-0.657c0,0-3.504-3.718-2.52-7.992c0,0,0.767-2.954,2.081,0.222c0,0-0.547,9.198,1.642,4.377
			c0,0,1.041-8.101-1.149-11.003c0,0-2.846-4.71-3.832-5.366l4.065-45.848L231.225,136.766z"/>
		<path fill="#E5E5E5" d="M248.023,106.641l-10.965,5.146c0,0-3.264-0.501-10.419,23.352c0,0,13.56,4.018,15.442,4.771
			c0,0,1.883,7.171,2.008,11.37c0,0-8.034,17.883-7.658,20.645c0,0-0.063,32.862,3.453,39.264c0,0,29.942,3.297,37.851-0.22
			c0,0,9.291-37.161-6.402-59.132c0,0-0.753-9.917,1.004-11.926l16.824-4.394c0,0-5.524-22.348-10.169-24.481l-11.927-4.436
			C267.064,106.599,252.709,103.377,248.023,106.641z"/>
		<path fill="#E5BC98" d="M231.409,66.843c0,0-5.272-14.312,4.018-24.858c0,0,22.097-22.347,42.937,7.031c0,0,4.771,10.797,0,23.1
			c0,0,4.017-17.826,10.798-8.537c0,0-1.257,19.083-10.045,18.079c0,0-3.264,18.581-15.818,19.585c0,0-22.095,6.277-30.884-19.836
			c0,0-7.783,2.82-7.533-13.53C224.88,67.876,225.634,58.809,231.409,66.843z"/>
		<path fill="#6B441D" d="M226.137,97.476l13.057-3.515c0,0-5.524-7.533-6.528-11.802l-0.754-13.935c0,0,0.251-23.979,3.014-25.863
			c0,0,11.801,11.048,39.295,12.304c0,0-1.256,12.303,3.138,18.455l1.507,0.376l-0.628,7.91c0,0-0.606,6.573-3.452,11.721
			c0,0,9.729,2.216,10.859,5.48c0,0,25.737-60.89-20.966-78.592c0,0-20.59-6.026-29.503,11.927c0,0-12.679-0.879-13.182,17.702
			C221.993,49.644,218.98,71.865,226.137,97.476z"/>
		<path fill="#E5BC98" d="M279.832,67.121c0,0,4.473-12.163,9.329-3.039c0,0-0.39,19.712-10.936,17.452
			C278.225,81.534,278.036,69.909,279.832,67.121z"/>
		<path fill="#E5BC98" d="M231.409,66.843c0,0-5.619-8.62-6.534,1.59c0,0-0.747,15.568,7.79,13.727
			C232.665,82.16,233.501,70.525,231.409,66.843z"/>
		<path fill="#CCCCCC" d="M235.175,31.942c0,0-5.523-13.434-6.214-15.945c0,0,24.104-26.427,63.023-4.332l-7.428,22.991
			C284.557,34.656,251.681,13.818,235.175,31.942z"/>
		<path fill="#E5BC98" d="M253.934,101.661c0,0,0.089,1.936-0.973,2.846l-4.938,2.134c0,0,0.622,11.048,8.994,16.028h0.882
			c0,0,6.444-4.771,9.165-16.07c0,0-2.972-1.087-4.059-2.134l-0.021-3.144C262.984,101.321,257.157,100.188,253.934,101.661z"/>
	</g>
	<path fill="#865050" d="M255.849,60.688c0,0,5.692-7.319,12.387-3.135C268.236,57.553,260.39,56.416,255.849,60.688z"/>
	<path fill="#865050" d="M250.367,61.131c0,0-5.524-9.069-12.178-2.306c0,0,8.537-2.088,12.178,2.558"/>
	<path fill="#2B1A19" d="M259.029,69.479c0,0,0.754-5.147,11.801-2.762c0,0-8.788,0.502-9.416,2.762H259.029z"/>
	<path fill="#2B1A19" d="M251.036,69.479c0,0-3.264-5.649-11.214-1.883C239.821,67.597,246.81,66.551,251.036,69.479z"/>
	<path fill="#9C7C65" d="M252.626,74.46c0,0-8.621,6.402,2.26,8.83C254.886,83.29,246.057,81.742,252.626,74.46z"/>
	<path fill="#543D33" d="M245.68,90.613c0,0,17.785,1.046,19.25-2.176C264.93,88.437,264.805,93.877,245.68,90.613z"/>
</g>
<g>
	<path fill="#E5BC98" d="M443.087,128.967l3.905,44.046c-0.946,0.631-3.681,5.156-3.681,5.156c-2.104,2.787-1.104,10.57-1.104,10.57
		c2.104,4.631,1.577-4.205,1.577-4.205c1.263-3.051,1.999-0.213,1.999-0.213c0.946,4.105-2.42,7.678-2.42,7.678
		c-0.947,4.314,2.945,0.633,2.945,0.633l4.314-3.473c3.578-2.104,3.472-5.891,3.472-5.891c0.422-3.049-0.752-10.41-0.752-10.41
		c2.242-8.205-1.689-45.433-1.689-45.433L443.087,128.967z"/>
	<path fill="#E5BC98" d="M392.754,127.427c0,0-3.932,37.228-1.689,45.433c0,0-1.174,7.361-0.753,10.41c0,0-0.105,3.787,3.473,5.891
		l4.314,3.473c0,0,3.893,3.682,2.945-0.633c0,0-3.366-3.572-2.42-7.678c0,0,0.736-2.838,1.999,0.213c0,0-0.526,8.836,1.577,4.205
		c0,0,1-7.783-1.104-10.57c0,0-2.734-4.525-3.681-5.156l3.905-44.046L392.754,127.427z"/>
	<path fill="#E5BC98" d="M431.552,225.688c0,0,1.206,46.801,3.256,49.936c0,0,2.292-3.016,4.704,0l-1.085-49.936
		C438.427,225.688,434.205,223.518,431.552,225.688z"/>
	<path fill="#161616" d="M434.808,275.623c0,0,0.241,2.775-1.326,3.619c0,0-3.137,2.773-0.724,6.15c0,0,8.322,10.254,15.438,4.826
		c0,0,1.869-1.479-5.76-8.746c0,0-3.045-3.316-2.925-5.85C439.512,275.623,436.828,271.674,434.808,275.623z"/>
	<path fill="#E5BC98" d="M411.491,225.688c0,0-1.206,46.801-3.257,49.936c0,0-2.291-3.016-4.704,0l1.086-49.936
		C404.616,225.688,408.838,223.518,411.491,225.688z"/>
	<path fill="#161616" d="M408.234,275.623c0,0-0.241,2.775,1.327,3.619c0,0,3.136,2.773,0.724,6.15c0,0-8.322,10.254-15.438,4.826
		c0,0-1.87-1.479,5.759-8.746c0,0,3.046-3.316,2.925-5.85C403.53,275.623,406.215,271.674,408.234,275.623z"/>
	<path fill="#210E3E" d="M401.896,165.016c0,0-2.75,55.125-3.232,60.271h15.68c0,0,6.272-34.658,5.549-45.836l3.136,0.162
		c0,0,5.065,42.135,5.789,46.074h15.601c0,0-2.294-54.441-3.68-61.275C440.738,164.412,415.101,159.744,401.896,165.016z"/>
	<path fill="#392568" d="M414.314,96.162l-14.043,5.694c0,0-2.572,1.447-4.262,7.317l-5.789,19.057l12.048,2.011
		c0,0-2.318,33.049-2.318,34.497c0,0,29.27,4.662,45.271-1.77l-2.01-32.646l10.936-2.976l-6.03-21.792c0,0-0.724-2.975-5.95-4.261
		l-11.579-5.388C430.588,95.906,418.306,92.719,414.314,96.162z"/>
	<path fill="#E5BC98" d="M394.16,29.407c0,0,28.947-17.208,51.945,0c0,0,2.574,12.866,0.805,19.138l-0.322,3.538
		c0,0,7.238-6.111,7.56,1.287c0,0-0.643,20.907-10.614,16.886c0,0-7.077,21.711-17.048,20.424c0,0-15.6,8.845-29.108-19.459
		c0,0-6.271,4.985-9.327-10.454c0,0-2.091-12.383,6.271-6.111C394.321,54.655,391.587,32.141,394.16,29.407z"/>
	<path fill="#695831" d="M398.503,61.893c0,0-2.896-22.354-0.965-30.396c0,0,30.073-2.412,33.772-1.93c0,0,7.236,3.216,10.614,3.216
		c0,0-0.254,11.787,1.126,15.278c0,0,0.482,8.443,1.607,10.614c0,0,2.252-9.972,7.559-8.363c0,0,0.321-26.053,3.378-26.536
		c0,0-6.111-4.986-10.132-2.734c0,0,1.125-20.424-20.425-14.634c0,0-35.219,21.229-38.918,12.544c0,0-5.63,7.398,4.02,12.866
		c0,0,2.412,20.424,3.056,21.872C393.195,53.69,396.733,62.053,398.503,61.893z"/>
	<path fill="#333333" d="M420.041,42.956c0,0,9.091-7.042,16.335,2.051l-0.604,4.221C435.772,49.228,427.227,41.629,420.041,42.956z
		"/>
	<path fill="#333333" d="M413.338,43.317c0,0-8.442-2.653-11.579,3.619l3.016,2.292C404.774,49.228,405.98,45.006,413.338,43.317z"
		/>
	<ellipse fill="#333333" cx="410.041" cy="56.344" rx="2.613" ry="2.734"/>
	<ellipse fill="#333333" cx="427.41" cy="56.344" rx="2.613" ry="2.734"/>
	<path fill="#BB9C83" d="M417.801,53.61c0,0-13.589,23.962,3.137,18.333C420.938,71.944,408.071,75.965,417.801,53.61z"/>
	<path fill="#4F3D31" d="M409.6,80.286c0,0,21.529,1.568,23.882-4.764C433.481,75.522,433.421,83.604,409.6,80.286z"/>
	<path fill="#2B1B54" d="M418.404,111.104l1.729,1.528c0,0,2.479-8.043,4.376-8.163c0,0-1.806-4.076-2.97-4.1
		C421.54,100.369,418.389,110.621,418.404,111.104z"/>
	<path fill="#D9B391" d="M417.305,91.63c0,0-1.274,7.444-0.923,8.987c0,0,1.826,8.888,2.128,9.537l3.03-10.147
		c0,0,0.752,0.465,1.793-0.604c0,0,1.532-1.675,2.697-4.613c0,0,0.54-1.209,0.947-2.344v-1.721
		C426.978,90.724,418.376,89.571,417.305,91.63z"/>
	<path fill="#5F4387" d="M415.82,91.237c0,0-4.696,13.595-3.228,18.781c0,0,2.332-8.288,3.228-9.391c0,0,2.343,7.34,2.584,10.476
		c0,0,2.292-7.599,3.136-10.735c0,0,4.945,5.911,4.945,8.926c0,0,8.895-15.641,0.492-18.57c0,0-2.945,10.65-5.438,9.283l-3.03,9.951
		l-2.201-9.665l0.996-8.663C417.305,91.63,417.217,90.91,415.82,91.237z"/>
</g>
<g>
	<path fill="#E5BC98" d="M592.926,138.832l4.047,45.647c-0.98,0.654-3.814,5.344-3.814,5.344
		c-2.181,2.889-1.145,10.955-1.145,10.955c2.18,4.801,1.635-4.357,1.635-4.357c1.309-3.162,2.071-0.221,2.071-0.221
		c0.98,4.254-2.508,7.957-2.508,7.957c-0.981,4.471,3.053,0.654,3.053,0.654l4.471-3.598c3.708-2.18,3.599-6.104,3.599-6.104
		c0.437-3.16-1.927-10.793-1.927-10.793c2.324-8.504-3.661-46.45-3.661-46.45L592.926,138.832z"/>
	<path fill="#E5BC98" d="M544.947,140.783c0,0-5.056,37.946-2.731,46.45c0,0-2.363,7.633-1.927,10.793c0,0-0.109,3.924,3.599,6.104
		l4.471,3.598c0,0,4.034,3.816,3.053-0.654c0,0-3.488-3.703-2.508-7.957c0,0,0.763-2.941,2.071,0.221c0,0-0.545,9.158,1.635,4.357
		c0,0,1.036-8.066-1.145-10.955c0,0-2.834-4.689-3.814-5.344l4.047-45.647L544.947,140.783z"/>
	<path fill="#414141" d="M564.6,213.678c0,0-4.25,56.219-4.25,66.719c0,0-2,0.75-5.25-1.5c0,0,1.102-65.514,0.922-66.18
		C556.021,212.717,562.037,211.547,564.6,213.678z"/>
	<path fill="#323232" d="M560.377,278.607c0,0-2.652,1.352-5.277,0.289c0,0-0.813,5.313-1.75,6c0,0-11.875,7.375-4.25,10.625
		c0,0,5.375,1.063,7.125-3.188c0,0,3.375-6.563,6.25-5.813C562.475,286.521,561.689,282.045,560.377,278.607z"/>
	<path fill="#414141" d="M579.295,214.203c0,0,4.25,55.693,4.25,66.193c0,0,2,0.75,5.25-1.5c0,0-0.486-64.605-0.306-65.271
		C588.489,213.625,581.857,212.07,579.295,214.203z"/>
	<path fill="#323232" d="M583.518,278.607c0,0,2.652,1.352,5.277,0.289c0,0,0.813,5.313,1.75,6c0,0,11.875,7.375,4.25,10.625
		c0,0-5.375,1.063-7.125-3.188c0,0-3.375-6.563-6.25-5.813C581.42,286.521,582.205,282.045,583.518,278.607z"/>
	<path fill="#333333" d="M577.708,108.019c0,0,11.894,5.681,14.977,7.014c0,0,5.167-1.25,7.417,29.25l4,35.334h-8.834
		c0,0-1.5-34.834-5.5-42.501c0,0-4.666,7.583-4.583,9.167l0.083,7.667c0,0,7.333,7.668,7.75,25.668c0,0,2.084,12.248-1.083,33.082
		c0,0-22.583,3.584-36.5,0c0,0-12.016-38.543,3.083-57.846c0,0-1.416-14.321-4.416-16.987c0,0-6,33.417-5,41.917l-8.917,0.084
		c0,0,4.666-51.083,7.333-57.667c0,0,0.167-6.333,4.917-7.25l12.342-6.565C564.776,108.386,572.731,104.92,577.708,108.019z"/>
	<path fill="#E5BC98" d="M554.521,95.283c0,0,15.912,21.136,32.037-0.526c0,0,4.195-4.498,5.504-7.111
		c0,0,12.934-25.863,0.871-39.926c0,0-23.063-18.625-42.188-5.313c0,0-6.859,5.668-4.938,16.25
		C545.809,58.658,540.484,84.658,554.521,95.283z"/>
	<path fill="#DDC66F" d="M554.521,29.365c0,0,2.912-27.002,20.412-25.792c0,0,20.654-0.836,15.904,24.664
		C590.838,28.237,572.396,15.615,554.521,29.365z"/>
	<path fill="#E8D175" d="M550.559,33.533c0,0,17.125-23.625,43.25-3.125c0,0,13.75,11.75,6.75,34.25c0,0-5.125-4.375-6.5,2
		c0,0,0.625-7.375-5.125-9.25c0,0-25.375-6.375-27.875-10.375c0,0,4.5,7.875,6.5,8.375c0,0-11-1.491-16.125-11.058
		c0,0-3.875,12.308-3.125,25.433c0,0-8.375-6.875-6.75-21.625C541.559,48.158,542.809,32.658,550.559,33.533z"/>
	<path fill="#333333" d="M593.184,66.783c0,0,3.125-7.375,8.125-1.625c0,0,9.75,8.125,0.875,17.75c0,0-8.125,9-12.375,2.875
		C589.809,85.783,593.434,70.158,593.184,66.783z"/>
	<path fill="#333333" d="M545.934,62.965c0,0,2.446,18.887,2.875,22.318c0.031,0.25,0,0.625,0,0.625s-6.75,1.906-10.875-6.984
		c0,0-2.625-4.391,0-10.391C537.934,68.533,540.434,63.272,545.934,62.965z"/>
	<path fill="#676767" d="M541.579,64.434c0,0,1.604-17.901,5.729-22.026c0,0-3.23,18.668-2.865,20.771L541.579,64.434z"/>
	<path fill="#433118" d="M571.947,64.434c0,0,4.736-8.526,14.611-6.276C586.559,58.158,578.503,56.877,571.947,64.434z"/>
	<path fill="#433118" d="M563.767,63.783c0,0-2.981-7.589-15.032-6.003C548.734,57.78,557.35,57.491,563.767,63.783z"/>
	<g>
		<path fill="#443119" d="M552.407,74.073c0,0-2.055-3.736,0.611-6.57c0,0,6.291-5.708,11.082,2.792c0,0,0.5,1.869-0.828,4.192
			L552.407,74.073z"/>
		<ellipse fill="#E3E6F0" cx="557.892" cy="72.795" rx="5.625" ry="5.792"/>
		<ellipse fill="#8FA1C4" cx="558.374" cy="72.795" rx="2.273" ry="2.304"/>
		<ellipse fill="#314461" cx="557.905" cy="73.009" rx="1.254" ry="1.27"/>
	</g>
	<g>
		<path fill="#372117" d="M584.437,74.073c0,0,2.057-3.736-0.609-6.57c0,0-6.291-5.708-11.084,2.792c0,0-0.5,1.869,0.828,4.192
			L584.437,74.073z"/>
		<ellipse fill="#E3E6F0" cx="578.952" cy="72.795" rx="5.625" ry="5.792"/>
		<ellipse fill="#8FA1C4" cx="576.345" cy="72.361" rx="2.273" ry="2.304"/>
		<ellipse fill="#314461" cx="575.888" cy="72.795" rx="1.252" ry="1.27"/>
	</g>
	<path fill="#694E36" d="M568.425,75.1c0,0-11.959,14.792,1.457,10.917C569.882,86.017,559.259,88.87,568.425,75.1z"/>
	<path fill="#542525" d="M562.684,92.783c0,0,9.542,5.584,16.875-3.958C579.559,88.825,573.559,98.908,562.684,92.783z"/>
	<path fill="#333333" d="M548.822,86.08c0,0,4.193,9.953,14.694,9.703c0,0,14.294-1.708,10.21,3.917c0,0-5,2.5-9.792-1.917
		c0,0-9.574,1.238-16.287-11.714C547.647,86.068,547.793,85.168,548.822,86.08z"/>
	<path fill="#282827" d="M561.054,116.112c0,0-1.62,4.858-2.808,5.983c0,0,3.438,1.688,4.125,2.563h-5.25
		c0,0,12.188,14.188,12.313,16.125h0.875c0,0,7.313-13,11.75-13v-0.688c0,0-3.375-2.125-4.625-2.688c0,0,3.063-2.25,4.625-2.063
		c0,0-2.02-4.553-1.666-6.308c0,0-3.365-3.755-4.271-0.286l-6.531,20.844l-3.906-21.5
		C565.684,115.095,562.861,112.566,561.054,116.112z"/>
	<path fill="#F3F3F3" d="M567.507,105.449c0,0-7.041,6.751-8.349,12.417c0,0,4.858-5.917,6.525,0c0,0-1.269,12.083,4.199,20
		c0,0,5.621-12.417,6.461-22.75c0,0,1.423-1.167,6.673,2.583c0,0-5.891-11.522-7.761-13.178c0,0-0.455-0.24,0.631,5.095
		c0,0-5.146,8.525-5.57,15.971l-1.847-0.266c0,0-0.162-10.913-2.786-13.83C565.684,111.491,568.204,110.448,567.507,105.449z"/>
	<path fill="#E5BC98" d="M567.517,104.522c0,0,0.167,5.093-1.833,6.76c0,0,3.167,12.333,2.75,14.5h1.833
		c0,0,3.24-12.917,5.62-15.833l-0.709-6.103C575.178,103.846,569.767,102.179,567.517,104.522z"/>
</g>
</svg>
