<?xml version="1.0" encoding="utf-8"?>
<!-- Generator: Adobe Illustrator 16.0.0, SVG Export Plug-In . SVG Version: 6.00 Build 0)  -->
<!DOCTYPE svg PUBLIC "-//W3C//DTD SVG 1.1//EN" "http://www.w3.org/Graphics/SVG/1.1/DTD/svg11.dtd">
<svg version="1.1" id="Layer_1" xmlns="http://www.w3.org/2000/svg" xmlns:xlink="http://www.w3.org/1999/xlink" x="0px" y="0px"
	 width="684px" height="296.641px" viewBox="0 0 684 296.641" enable-background="new 0 0 684 296.641" xml:space="preserve">
<rect y="0" fill="#A7C5C5" width="684" height="296.641"/>
<g>
	<path fill="#414141" d="M132.457,161.913c0,0-3.944,11.138,1.001,12.787l-2.491,98.913c0,0,3.434-4.003,6.024,0l7.156-92.319
		l9.094,0.235c0,0,4.945,11.775,8.242,92.084c0,0,3.297-3.063,5.182,0l-1.414-100.091c0,0,3.297-2.729,1.414-11.609
		C166.665,161.913,140.404,157.369,132.457,161.913z"/>
	<path fill="#161616" d="M130.024,274.792c0,0-4.102,7.771-7.871,12.951c0,0,9.892,1.885,15.544-6.476c0,0,1.859-6.214-0.941-7.99
		C136.756,273.277,132.928,267.431,130.024,274.792z"/>
	<path fill="#161616" d="M167.265,274.792c0,0,4.102,7.771,7.871,12.951c0,0-9.892,1.885-15.544-6.476c0,0-1.151-5.874,1.649-7.654
		C161.241,273.613,165.517,268.196,167.265,274.792z"/>
	<path fill="#E5BC98" d="M123.068,128.491c0,0-3.704,35.069-1.591,42.799c0,0-1.106,6.935-0.71,9.809c0,0-0.099,3.565,3.271,5.548
		l4.065,3.271c0,0,3.667,3.467,2.775-0.595c0,0-3.171-3.366-2.28-7.233c0,0,0.694-2.674,1.883,0.2c0,0-0.496,8.324,1.486,3.961
		c0,0,0.942-7.332-1.04-9.957c0,0-2.576-4.263-3.468-4.856l3.68-41.494L123.068,128.491z"/>
	<path fill="#E5BC98" d="M171.425,129.942l3.679,41.494c-0.892,0.595-3.468,4.856-3.468,4.856c-1.982,2.625-1.041,9.957-1.041,9.957
		c1.981,4.363,1.486-3.961,1.486-3.961c1.19-2.874,1.884-0.2,1.884-0.2c0.891,3.867-2.28,7.233-2.28,7.233
		c-0.893,4.062,2.775,0.595,2.775,0.595l4.064-3.271c3.371-1.981,3.271-5.548,3.271-5.548c0.397-2.874-0.708-9.809-0.708-9.809
		c2.112-7.729-1.592-42.799-1.592-42.799L171.425,129.942z"/>
	<path fill="#E5BC98" d="M124.852,34.448c0,0,36.896-10.677,47.101,0c0,0,5.181,1.255,1.1,25.435c0,0,3.827-13.797,8.89-6.497
		c0,0,0.883,22.669-11.363,18.43c0,0-4.828,20.018-15.779,19.899c0,0-16.604,8.125-28.732-18.958c0,0-7.301,4.828-9.303-13.658
		c0,0-0.118-8.715,6.595-2.355C123.36,56.742,121.162,42.769,124.852,34.448z"/>
	<path fill="#695831" d="M126.892,63.69V34.134c0,0,41.803-5.77,43.451,2.12c0,0-1.766,8.479,0,12.835c0,0,3.277,7.105,2.571,11.815
		c0,0,3.67-10.873,7.085-8.753c0,0-1.06-15.779,2.944-26.023c0,0-5.535-4.356-9.539-2.943c0,0-2.119-20.253-20.018-12.835
		c0,0-31.441,17.897-38.624,11.304c0,0-2.355,9.185,4.121,11.658C118.885,33.31,120.533,58.744,126.892,63.69z"/>
	<path fill="#333333" d="M148.645,51.208c0,0,3.094-9.656,16.518-7.301v5.417C165.162,49.324,154.264,46.263,148.645,51.208z"/>
	<path fill="#333333" d="M143.378,51.208c0,0-0.235-5.181-11.187-5.063v4.355C132.191,50.501,139.375,49.088,143.378,51.208z"/>
	<ellipse fill="#333333" cx="155.684" cy="57.272" rx="2.767" ry="2.65"/>
	<ellipse fill="#333333" cx="138.727" cy="57.272" rx="2.767" ry="2.65"/>
	<path fill="#997A62" d="M146.675,54.623c0,0-11.722,24.61,1.97,18.37C148.645,72.993,136.666,78.645,146.675,54.623z"/>
	<path fill="#665040" d="M137.785,81.941c0,0,21.843-0.706,23.021-4.356C160.806,77.585,159.863,84.179,137.785,81.941z"/>
	<path fill="#1F93AB" d="M131.014,102.667c0,0-4.357,1.001-5.063,5.917l-6.595,19.282l11.658,3.005V102.667z"/>
	<path fill="#1F93AB" d="M170.298,102.41c0,0,4.357,1.258,5.063,6.174l6.595,19.282l-11.658,3.005V102.41z"/>
	<path fill="#3DB5C1" d="M144.768,95.892l-13.754,6.774c0,0-0.236,4.239-2.708,9.715c0,0,1.236,7.064,2.473,8.772l-1.531,42.627
		c0,0,19.43,5.298,44.04-1.059l-1.883-32.737c0,0,0.039-10.676,0.431-16.721l1.021-3.258l-2.277-7.459l-11.422-5.66L144.768,95.892z
		"/>
	<path fill="#E5BC98" d="M154.8,91.715l0.294,4.71c0,0-1.972,8.155-7.654,14.131c0,0-0.984-5.056-3.002-8.654
		c0,0-0.368-7.272,1.781-9.583C146.218,92.319,151.621,89.184,154.8,91.715z"/>
	<path fill="#31949E" d="M147.028,115.267h3.062c0,0,0.824-9.539,2.002-10.422l-2.179-2.943
		C149.913,101.902,146.911,109.203,147.028,115.267z"/>
	<path fill="#65C3CD" d="M149.913,101.902c0,0,3.297-5.3,5.181-5.477c0,0-0.103-3.459-0.667-4.551c0,0,4.435-2.237,4.729,5.014
		c0,0,0.177,9.724-3.768,13.551c0,0-1.4-3.835-3.409-5.744L149.913,101.902z"/>
	<path fill="#65C3CD" d="M140.493,110.085l1.825-0.294c0,0,0.353-6.947,2.119-7.889c0,0,0.088-7.949,1.549-9.301
		C145.987,92.601,142.259,91.421,140.493,110.085z"/>
</g>
<g>
	<g>
		<path fill="#E5BC98" d="M370.626,126.043l3.792,42.781c-0.919,0.613-3.574,5.01-3.574,5.01
			c-2.044,2.706-1.072,10.268-1.072,10.268c2.043,4.499,1.533-4.084,1.533-4.084c1.225-2.965,1.94-0.207,1.94-0.207
			c0.919,3.986-2.351,7.458-2.351,7.458c-0.92,4.189,2.859,0.611,2.859,0.611l4.189-3.371c3.476-2.043,3.373-5.721,3.373-5.721
			c0.408-2.961-1.806-10.116-1.806-10.116c2.177-7.97-3.432-43.533-3.432-43.533L370.626,126.043z"/>
		<path fill="#E5BC98" d="M325.66,127.872c0,0-4.738,35.563-2.56,43.534c0,0-2.214,7.154-1.806,10.116c0,0-0.102,3.678,3.373,5.72
			l4.19,3.373c0,0,3.781,3.576,2.861-0.614c0,0-3.27-3.471-2.351-7.458c0,0,0.715-2.756,1.941,0.207c0,0-0.511,8.584,1.532,4.085
			c0,0,0.971-7.56-1.073-10.268c0,0-2.656-4.396-3.575-5.009l3.793-42.782L325.66,127.872z"/>
		<path fill="#E5BC98" d="M344.078,196.191c0,0-3.983,71.432-3.983,81.271c0,0-1.874,0.704-4.92-1.404c0,0,1.033-80.145,0.865-80.77
			C336.04,195.29,341.677,194.193,344.078,196.191z"/>
		<path fill="#323232" d="M340.121,275.788c0,0-2.486,1.267-4.946,0.271c0,0-0.761,4.979-1.64,5.623c0,0-11.129,6.91-3.983,9.958
			c0,0,5.038,0.995,6.678-2.988c0,0,3.163-6.149,5.857-5.446C342.087,283.205,341.351,279.009,340.121,275.788z"/>
		<path fill="#E5BC98" d="M357.852,196.684c0,0,3.982,70.938,3.982,80.779c0,0,1.875,0.704,4.921-1.404
			c0,0-0.456-79.293-0.287-79.917C366.468,196.142,360.252,194.685,357.852,196.684z"/>
		<path fill="#323232" d="M361.809,275.788c0,0,2.486,1.267,4.946,0.271c0,0,0.761,4.979,1.64,5.623c0,0,11.131,6.91,3.983,9.958
			c0,0-5.037,0.995-6.678-2.988c0,0-3.163-6.149-5.857-5.446C359.843,283.205,360.579,279.009,361.809,275.788z"/>
		<g>
			<path fill="#A74337" d="M331.325,167.064c0,0-9.476,18.218-19.472,25.403c0,0,6.561,7.498,7.498,9.373l4.334-0.732l2.578,6.941
				l4.1-2.108l3.397,4.101l4.1-1.757l4.217,3.514l2.578-2.576l6.209,2.576l3.396-3.396l5.391,2.459l3.162-4.92l6.093,2.461
				l1.875-5.155l5.623,1.758l1.522-5.976l5.975-4.248c0,0-12.887-17.541-14.526-26.68
				C369.374,168.102,340.774,161.323,331.325,167.064z"/>
			<path fill="#632822" d="M319.351,201.842l4.452-0.732c0,0,11.021-25.3,11.373-34.439
				C335.175,166.669,325.442,187.05,319.351,201.842z"/>
			<path fill="#632822" d="M326.263,208.051l3.866-1.875c0,0,9.813-28.604,11.922-37.625
				C342.05,168.551,326.965,205.708,326.263,208.051z"/>
			<path fill="#632822" d="M333.76,210.042l4.452-1.991c0,0,6.326-35.984,6.911-39.5
				C345.123,168.551,335.693,205.941,333.76,210.042z"/>
			<path fill="#632822" d="M342.078,211.799l3.279-2.929c0,0,2.149-35.628,1.799-41.134
				C347.154,167.736,342.429,208.168,342.078,211.799z"/>
			<path fill="#632822" d="M350.864,211.799l3.28-3.279c0,0-3.223-35.867-3.223-39.969
				C350.923,168.551,349.341,201.373,350.864,211.799z"/>
			<path fill="#632822" d="M359.65,210.861l3.162-4.92c0,0-6.852-29.751-7.203-36.896
				C355.609,169.045,357.425,208.051,359.65,210.861z"/>
			<path fill="#632822" d="M359.357,169.438c0,0,5.213,30.88,9.547,38.964l1.875-5.155c0,0-9.137-28.106-10.66-33.85
				L359.357,169.438z"/>
			<path fill="#632822" d="M376.402,205.005l1.522-5.976c0,0-12.417-26.371-13.354-30.238
				C364.57,168.791,368.789,193.524,376.402,205.005z"/>
		</g>
		<path fill="#333333" d="M356.363,97.165c0,0,11.146,5.324,14.037,6.574c0,0,4.842-1.171,6.951,27.413l3.748,33.116h-8.279
			c0,0-1.405-32.646-5.154-39.832c0,0-4.373,7.105-4.295,8.59l0.076,7.186c0,0,1.68,4.291,6.68,17.008c0,0,1.889,5.716,0.986,12.171
			c0,0-28.449,0.639-41.492-2.722c0,0,2.655-10.607,8.757-25.609c0,0-1.327-13.422-4.139-15.921c0,0-5.623,31.318-4.686,39.284
			l-8.357,0.078c0,0,4.374-47.874,6.873-54.044c0,0,0.157-5.936,4.608-6.794l11.567-6.153
			C344.244,97.509,351.699,94.26,356.363,97.165z"/>
		<path fill="#E5BC98" d="M334.633,85.229c0,0,14.913,19.809,30.025-0.493c0,0,3.933-4.215,5.158-6.665
			c0,0,12.121-24.239,0.815-37.418c0,0-21.614-17.456-39.538-4.979c0,0-6.429,5.313-4.628,15.23
			C326.467,50.904,321.478,75.271,334.633,85.229z"/>
		<path fill="#433118" d="M350.965,56.317c0,0,4.439-7.991,13.693-5.882C364.658,50.435,357.109,49.235,350.965,56.317z"/>
		<path fill="#433118" d="M343.298,55.707c0,0-2.794-7.111-14.088-5.625C329.209,50.081,337.284,49.81,343.298,55.707z"/>
		<g>
			<path fill="#443119" d="M332.652,65.351c0,0-1.926-3.501,0.573-6.158c0,0,5.896-5.351,10.386,2.617c0,0,0.469,1.751-0.775,3.929
				L332.652,65.351z"/>
			<ellipse fill="#E3E6F0" cx="337.792" cy="64.153" rx="5.272" ry="5.428"/>
			<ellipse fill="#8FA1C4" cx="338.244" cy="64.154" rx="2.13" ry="2.159"/>
			<ellipse fill="#314461" cx="337.805" cy="64.354" rx="1.175" ry="1.19"/>
		</g>
		<g>
			<path fill="#372117" d="M362.67,65.351c0,0,1.928-3.501-0.57-6.158c0,0-5.896-5.351-10.389,2.617c0,0-0.469,1.751,0.775,3.929
				L362.67,65.351z"/>
			<ellipse fill="#E3E6F0" cx="357.529" cy="64.153" rx="5.271" ry="5.428"/>
			<ellipse fill="#8FA1C4" cx="355.086" cy="63.747" rx="2.131" ry="2.159"/>
			<ellipse fill="#314461" cx="354.657" cy="64.154" rx="1.174" ry="1.19"/>
		</g>
		<path fill="#694E36" d="M347.663,66.313c0,0-11.208,13.862,1.364,10.231C349.027,76.545,339.073,79.218,347.663,66.313z"/>
		<path fill="#542525" d="M342.283,82.885c0,0,8.941,5.233,15.814-3.709C358.1,79.176,352.475,88.626,342.283,82.885z"/>
		<path fill="#282827" d="M340.755,104.75c0,0-1.518,4.554-2.631,5.607c0,0,3.222,1.582,3.866,2.401h-4.92
			c0,0,11.422,13.297,11.54,15.112h0.82c0,0,6.854-12.184,11.012-12.184v-0.645c0,0-3.164-1.992-4.334-2.519
			c0,0,2.871-2.108,4.334-1.934c0,0-1.894-4.268-1.563-5.911c0,0-3.152-3.521-4.003-0.27l-6.12,19.535l-3.662-20.15
			C345.094,103.797,342.45,101.427,340.755,104.75z"/>
		<path fill="#F3F3F3" d="M346.805,94.756c0,0-6.601,6.327-7.826,11.639c0,0,4.553-5.545,6.115,0c0,0-1.188,11.324,3.936,18.744
			c0,0,5.27-11.638,6.057-21.321c0,0,1.334-1.094,6.254,2.421c0,0-5.521-10.799-7.271-12.351c0,0-0.428-0.226,0.591,4.774
			c0,0-4.824,7.989-5.222,14.968l-1.729-0.249c0,0-0.151-10.228-2.612-12.961C345.094,100.419,347.457,99.442,346.805,94.756z"/>
		<path fill="#E5BC98" d="M346.813,93.888c0,0,0.156,4.772-1.719,6.335c0,0,2.969,11.559,2.578,13.59h1.719
			c0,0,3.036-12.106,5.268-14.839l-0.665-5.721C353.992,93.254,348.921,91.691,346.813,93.888z"/>
	</g>
	<path fill="#E5BC98" d="M370.027,64.313c0,0,8.67-17.643,11.013-8.796c0,0,1.405,18.491-9.373,18.94
		C371.667,74.458,367.6,68.713,370.027,64.313z"/>
	<path fill="#302C43" d="M327.117,41.956c0,0,2.695,13.238,10.309,13.238c0,0-4.452-4.803-4.1-6.619c0,0,6.209,11.071,20.619,6.619
		c0,0-6.678-4.687-6.678-6.562c0,0,13.264,11.79,23.063,10.278c0.162-0.025,0.322-0.054,0.482-0.086c0,0-0.352,7.165-1.055,9.323
		c0,0,5.389-14.829,11.364-9.908c0,0-0.202,15.952-9.636,15.952c0,0-6.338,10.809-9.594,13.829c0,0,5.64-0.091,7.045-2.283
		c0,0-0.469,2.493,0.117,4.368c0,0,24.953-10.427,17.807-46.743c0,0-5.389-35.379-45.571-31.045c0,0-11.012,1.406-14.996,12.418
		c0,0-7.732-0.349-10.426,13.005c0,0-7.091,35.085,19.151,47.972c0,0-8.527-12.854-8.996-17.194
		C326.027,68.517,329.577,52.968,327.117,41.956z"/>
</g>
<g>
	<g>
		<g>
			<path fill="#E5BC98" d="M590.095,121.154l4.264,48.089c-1.032,0.688-4.02,5.629-4.02,5.629
				c-2.297,3.043-1.205,11.541-1.205,11.541c2.296,5.059,1.722-4.591,1.722-4.591c1.38-3.331,2.184-0.232,2.184-0.232
				c1.032,4.481-2.644,8.384-2.644,8.384c-1.032,4.71,3.217,0.688,3.217,0.688l4.71-3.79c3.905-2.297,3.791-6.43,3.791-6.43
				c0.46-3.329-2.029-11.37-2.029-11.37c2.448-8.959-3.857-48.935-3.857-48.935L590.095,121.154z"/>
			<path fill="#E5BC98" d="M539.551,123.21c0,0-5.326,39.977-2.877,48.935c0,0-2.49,8.041-2.03,11.37c0,0-0.114,4.134,3.791,6.43
				l4.71,3.79c0,0,4.25,4.021,3.217-0.689c0,0-3.676-3.899-2.643-8.382c0,0,0.805-3.099,2.183,0.232c0,0-0.574,9.646,1.723,4.59
				c0,0,1.091-8.497-1.206-11.54c0,0-2.985-4.94-4.019-5.63l4.264-48.088L539.551,123.21z"/>
			<path fill="#E5BC98" d="M558.332,200.217c0,0-2.556,64.277-2.556,75.34c0,0-2.106,0.79-5.53-1.58c0,0,1.16-74.283,0.971-74.985
				C551.217,198.99,555.633,197.973,558.332,200.217z"/>
			<path fill="#323232" d="M555.806,273.671c0,0-2.794,1.425-5.56,0.306c0,0-0.855,5.597-1.844,6.319c0,0-12.511,7.771-4.478,11.193
				c0,0,5.662,1.119,7.506-3.357c0,0,3.556-6.914,6.584-6.124C558.016,282.008,557.188,277.292,555.806,273.671z"/>
			<path fill="#E5BC98" d="M575.734,200.557c0,0,4.478,63.938,4.478,74.999c0,0,2.107,0.79,5.531-1.58
				c0,0-0.513-73.326-0.322-74.028C585.421,199.947,578.435,198.31,575.734,200.557z"/>
			<path fill="#323232" d="M580.184,273.671c0,0,2.795,1.425,5.561,0.306c0,0,0.854,5.597,1.843,6.319c0,0,12.51,7.771,4.479,11.193
				c0,0-5.662,1.119-7.507-3.357c0,0-3.556-6.914-6.584-6.124C577.974,282.008,578.801,277.292,580.184,273.671z"/>
			<path fill="#264159" d="M548.491,163.784c0,0-0.527,3.572,2.105,5.868l-2.148,80.516h8.295l6.232-72.688l8.954,0.263
				l6.368,71.642l7.326,0.784v-78.22c0,0,0.791-3.16,1.581-8.164C587.206,163.784,554.549,160.36,548.491,163.784z"/>
			<polygon fill="#929FAB" points="547.613,250.168 548.315,255.26 557.796,254.12 557.796,249.203 			"/>
			<polygon fill="#929FAB" points="587.82,250.168 587.118,255.26 577.637,254.12 577.637,249.203 			"/>
			<path fill="#401022" d="M574.063,88.694c0,0,12.529,5.984,15.776,7.389c0,0,5.443-1.316,7.814,30.813l4.213,37.224h-9.306
				c0,0-1.58-36.696-5.795-44.773c0,0-4.916,7.988-4.827,9.656l0.087,8.077c0,0,1.888,4.823,7.508,19.119
				c0,0,2.121,6.424,1.107,13.679c0,0-31.979,0.719-46.639-3.058c0,0,2.984-11.926,9.843-28.788c0,0-1.491-15.088-4.651-17.896
				c0,0-6.32,35.205-5.268,44.16l-9.395,0.088c0,0,4.916-53.814,7.726-60.75c0,0,0.176-6.672,5.181-7.638l13.002-6.916
				C560.44,89.081,568.82,85.43,574.063,88.694z"/>
			<path fill="#220C14" d="M556.519,97.22c0,0-1.706,5.117-2.958,6.303c0,0,3.621,1.777,4.347,2.7h-5.53
				c0,0,12.839,14.945,12.971,16.986h0.922c0,0,7.703-13.694,12.379-13.694v-0.725c0,0-3.557-2.239-4.872-2.832
				c0,0,3.226-2.37,4.872-2.172c0,0-2.129-4.796-1.756-6.645c0,0-3.546-3.956-4.5-0.302l-6.881,21.958l-4.115-22.648
				C561.396,96.149,558.423,93.485,556.519,97.22z"/>
			<path fill="#BC8B41" d="M563.316,85.987c0,0-7.417,7.112-8.795,13.081c0,0,5.117-6.233,6.873,0c0,0-1.336,12.729,4.425,21.069
				c0,0,5.922-13.08,6.807-23.967c0,0,1.499-1.229,7.029,2.722c0,0-6.205-12.139-8.177-13.884c0,0-1.836-0.228-0.691,5.394
				c0,0-4.064,8.956-4.511,16.799l-1.945-0.28c0,0,0.684-11.57-2.08-14.644C562.251,92.278,564.051,91.254,563.316,85.987z"/>
		</g>
	</g>
	<g>
		<path fill="#E2C193" d="M533.762,59.435c0,0-4.563-10.71,1.934-10.447l8.867-24.58c0,0,28.617-12.466,43.63,2.81
			c0,0,12.379,14.715,11.413,20.745c0,0-1.055,24.466-7.111,28.942l-18.622,8.008c0,0-7.715,2.965-11.732,2.242
			c0,0-13.188,1.251-28.377-24.823C533.763,62.332,533.466,59.848,533.762,59.435z"/>
		<path fill="#46331D" d="M548.04,55.517c0,0-2.196-3.992,0.651-7.021c0,0,6.724-6.1,11.844,2.982c0,0,0.533,1.997-0.885,4.479
			L548.04,55.517z"/>
		<ellipse fill="#E3E6EE" cx="553.9" cy="54.151" rx="6.011" ry="6.189"/>
		<ellipse fill="#8FA1C4" cx="554.417" cy="54.15" rx="2.429" ry="2.462"/>
		<ellipse fill="#344663" cx="553.915" cy="54.381" rx="1.339" ry="1.357"/>
		<path fill="#372117" d="M579.06,55.517c0,0,2.197-3.992-0.651-7.021c0,0-6.723-6.1-11.841,2.982c0,0-0.536,1.997,0.886,4.479
			L579.06,55.517z"/>
		<ellipse fill="#E3E6EE" cx="573.201" cy="54.151" rx="6.01" ry="6.189"/>
		<ellipse fill="#8FA1C4" cx="570.413" cy="53.688" rx="2.43" ry="2.462"/>
		<ellipse fill="#344663" cx="569.924" cy="54.15" rx="1.338" ry="1.357"/>
		<path fill="#543C31" d="M560.634,44.885c0,0-8.845-8.652-15.283-1.054C545.351,43.832,552.596,39.681,560.634,44.885z"/>
		<path fill="#543C31" d="M565.893,44.622c0,0,8.847-8.653,15.283-1.054C581.176,43.568,573.931,39.417,565.893,44.622z"/>
		<path fill="#773736" d="M551.32,25.11c0,0-4.565,12.992-8.604,15.274c0,0,2.635,13.52-3.336,18.086c0,0,0.703-11.765-3.687-9.481
			c0,0-11.852-34.5,15.101-39.417c0,0,10.534-15.714,33.534,0c0,0,22.648,13.432,16.68,36.432c0,0-3.337,10.096,3.16,15.013
			c0,0,0.789,7.9-5.97,11.676c0,0-1.403,5.707,4.039,7.287c0,0,0.592,3.227-5.598,3.028c0,0,2.567,8.033-3.027,9.549
			c0,0,1.315,7.9-3.755,1.646c0,0-1.251,6.783-11.785,5.794c0,0,11.062-5.267-2.634-7.572c0,0,3.227-3.358,3.62-5.07
			c0,0-5.397,0-5.267-3.16c0,0,14.616-9.613,15.012-17.25c0,0,9.797,3.226,9.48-20.017c0,0-5.003-9.086-12.202,16.899
			c0,0,2.634-20.279-5.706-18.699c0,0-10.447,1.404-17.382-10.798C562.996,34.328,555.841,24.233,551.32,25.11z"/>
		<path fill="#773736" d="M533.762,59.435c0,0-5.267,7.243,6.321,14.09c0,0-0.79,6.716,5.268,4.873c0,0,0.922,3.818-2.896,3.687
			c0,0,2.106,6.321,7.77,6.453c0,0,3.028,6.452-2.238,6.32c0,0,9.48,7.11,13.827-5.004l0.328-2.567c0,0-16.328-3.951-19.226-21.136
			C542.914,66.151,535.276,70.827,533.762,59.435z"/>
		<path fill="#AD9272" d="M560.634,58.58c0,0-7.448,6.782,2.1,8.494C562.732,67.073,554.793,64.95,560.634,58.58z"/>
		<path fill="#5D2F2C" d="M557.867,73.592c0,0,12.042,3.754,16.782-4.279C574.649,69.312,570.318,78.596,557.867,73.592z"/>
		<path fill="#E2C193" d="M562.14,87.287c0,0-0.12,18.633,3.792,24.953c0,0,4.995-12.808,5.047-26.354
			C570.977,85.885,564.576,85.18,562.14,87.287z"/>
	</g>
</g>
</svg>
