<?xml version="1.0" encoding="utf-8"?>
<!-- Generator: Adobe Illustrator 16.0.0, SVG Export Plug-In . SVG Version: 6.00 Build 0)  -->
<!DOCTYPE svg PUBLIC "-//W3C//DTD SVG 1.1//EN" "http://www.w3.org/Graphics/SVG/1.1/DTD/svg11.dtd">
<svg version="1.1" id="Layer_1" xmlns="http://www.w3.org/2000/svg" xmlns:xlink="http://www.w3.org/1999/xlink" x="0px" y="0px"
	 width="684px" height="296.641px" viewBox="0 0 684 296.641" enable-background="new 0 0 684 296.641" xml:space="preserve">
<rect y="0" display="none" fill="#A7C5C5" width="684" height="296.641"/>
<g>
	<path fill="#EBD3B0" d="M160.998,200.469c0,0,5.752,52.406,4.627,65.031h5v-66.084
		C170.625,199.416,163.245,198.063,160.998,200.469z"/>
	<path fill="#EBD3B0" d="M138.607,200.414c0,0,7.016-0.742,9.517,0.547c0,0-6.519,53.164-4.759,64.539h-5.24L138.607,200.414z"/>
	<path fill="#323232" d="M136.875,264.625c0,0,6,0.5,7.125,0v4.125c0,0,1.375,2.125,0,3.25c0,0-3.639,0.375-3.257,3.125
		c0,0-6.458,11.875-11.851,3.875c0,0-0.143-4.625,6.982-7.375L136.875,264.625z"/>
	<path fill="#323232" d="M164.875,264.625h7v5.25c0,0,11.625,7.125,6,10c0,0-7,1.896-10-6.678c0,0-2.625,0.178-3-1.447V264.625z"/>
	<path fill="#EBD3B0" d="M136.667,85c0,0,8.583,10.25,14.333,10.375v3.25l-3.188,1.813c0,0-1.25,6.75,6,6.063
		c0,0,7,1.438,9.25-6.125l-4.125-2.125v-3.938c0,0,11.247-4.289,12.592-11.551c0,0,18.97-56.596-26.113-54.929
		c0,0-24.083,0.583-19.5,34C125.917,61.833,132.167,81.833,136.667,85z"/>
	<path fill="#3C2723" d="M150.25,56c0,0-8.916-6.5-14.833-1.083C135.417,54.917,139.833,48.167,150.25,56z"/>
	<path fill="#3C2723" d="M154,55.25c0,0,7.708-5.083,14.208-1.5C168.208,53.75,162.042,48.917,154,55.25z"/>
	<path fill="#2E2E30" d="M136.667,85c0,0-14.667-36,4.333-48.667c0,0,6,10.5,16.167,15c0,0-2.5-1.167-2-4.333
		c0,0,16.667,11.5,17.333,15.333c0,0,1.667,12.333-1.667,20.5c0,0,8.666-0.333,12.833-9.333c0,0,1.167,2.333,3.333,2.333
		c0,0-3.167-4.5-1.667-7.833c0,0,2.542-7.125,1.667-15.5c0,0,3.125,9.125,3.375,11.875c0,0,0.875-11.875-5-19.375
		c0,0,5.375,1.125,7.25,3.25c0,0-10.125-12.625-10.5-13.125c0,0,5-1,7.125,0c0,0-8.417-5.208-11-12.875
		c0,0-11.083-12.833-26.333-4.75c0,0,3.25-5.917,8.833-5.25c0,0-12.25,0.917-17,6.75c0,0,4.083-5.271,6.5-6.802
		c0,0-7.75,2.635-11,8.969c0,0-9.333-7.833-11.417-8.5c0,0,7.833,7.834,8.25,9.917c0,0-8.667-0.75-12.917,9.333
		c0,0-5.833,11.5-6.667,12.333c0,0,4.583-2.5,6.417-4.833c0,0-8.667,15.167-10,15.75c0,0,4.333-1.667,7-4.667
		c0,0-2.416,17.25,1.167,20.75c0,0,0.916,4.083,2.833,5c0,0-1.416-4.167-0.833-6.5C123.083,69.75,124.167,80.167,136.667,85z"/>
	<path fill="#45321B" d="M137.318,67.059c0,0-1.96-3.562,0.581-6.265c0,0,5.998-5.441,10.566,2.661c0,0,0.477,1.783-0.789,3.998
		L137.318,67.059z"/>
	<ellipse fill="#E3E6EF" cx="142.546" cy="65.841" rx="5.363" ry="5.522"/>
	<ellipse fill="#8FA1C4" cx="143.007" cy="65.84" rx="2.167" ry="2.197"/>
	<ellipse fill="#334562" cx="142.559" cy="66.045" rx="1.195" ry="1.21"/>
	<path fill="#372117" d="M166.863,66.404c0,0,1.961-3.563-0.582-6.264c0,0-5.997-5.442-10.564,2.66c0,0-0.479,1.782,0.789,3.997
		L166.863,66.404z"/>
	<ellipse fill="#E3E6EF" cx="161.634" cy="65.186" rx="5.363" ry="5.522"/>
	<ellipse fill="#8FA1C4" cx="159.148" cy="64.772" rx="2.168" ry="2.197"/>
	<ellipse fill="#334562" cx="158.711" cy="65.185" rx="1.194" ry="1.211"/>
	<path fill="#432F2F" d="M147.649,88.104c0,0,11.283,1.508,11.917-4.054C159.567,84.051,160.441,91.361,147.649,88.104z"/>
	<path fill="#432F2F" d="M150.792,74.347l-3.038,6.436c0,0-0.597,1.847,1.072,1.847h4.648l-4.528-0.774c0,0-0.853-0.478-0.358-1.371
		L150.792,74.347z"/>
	<path fill="#EBD3B0" d="M186.647,176.408c0,0,1.877-5.601,5.205-0.95c0,0-0.264,4.336,0.784,5.584c0,0,1.485,3.861-0.32,6.163
		c0,0-5.912,6.104-8.032,6.043c0,0-0.998-1.745,1.118-3.86c0,0,1.059-3.304,0.313-4.548c0,0-1.122-0.622-0.81,3.302
		c0,0,0.186,2.614-1.432,1.118c0,0-1.304-5.106,0.811-8.594C184.284,180.666,186.24,177.328,186.647,176.408z"/>
	<path fill="#EBD3B0" d="M128.2,181.631c2.521,4.154,0.967,10.244,0.967,10.244c-1.929,1.781-1.707-1.334-1.707-1.334
		c0.372-4.678-0.965-3.935-0.965-3.935c-0.889,1.482,0.372,5.419,0.372,5.419c2.524,2.522,1.333,4.604,1.333,4.604
		c-2.527,0.072-9.574-7.203-9.574-7.203c-2.152-2.744-0.382-7.349-0.382-7.349c1.25-1.485,0.936-6.654,0.936-6.654
		c3.968-5.545,6.205,1.132,6.205,1.132C125.869,177.653,128.2,181.631,128.2,181.631z"/>
	<path fill="#BEC9D9" d="M133.061,105.536c0,0-7.95-0.939-8.303,16.096c0,0-6.579,48.876-5.875,55.455c0,0,5.757,1.293,8.107,0.588
		c0,0,3.414-37.126,5.995-37.009l48.514,8.693c0,0,2.238,27.092,4.236,28.526c0,0,3.99-1.03,5.862-0.889
		c0.203,0.017,0.381,0.045,0.525,0.09c1.483,0.472-2.863-50.167-5.213-56.276c0,0,0.274-16.253-7.794-15.587L133.061,105.536z"/>
	<path fill="#D3DDEC" d="M145.811,100.227l-13.785,5.64c0,0-2.82,9.242-3.133,11.905c0,0,6.892,52.305,0,80.658
		c0,0,14.882,6.108,51.852-0.625c0,0,0.599-73.885,1.41-77.997c0,0,0.47-2.82,0-5.64l-4.073-8.616l-14.294-5.443L145.811,100.227z"
		/>
</g>
<g>
	<g>
		<path fill="#E2C193" d="M473.214,150.401c0,0-5.057,37.947-2.732,46.45c0,0-2.362,7.632-1.927,10.793c0,0-0.109,3.924,3.599,6.103
			l4.471,3.599c0,0,4.034,3.814,3.052-0.655c0,0-3.488-3.703-2.507-7.958c0,0,0.763-2.94,2.071,0.221c0,0-0.545,9.158,1.635,4.358
			c0,0,1.036-8.066-1.145-10.955c0,0-2.834-4.688-3.814-5.343l4.742-45.549L473.214,150.401z"/>
		<path fill="#E2C193" d="M534.919,149.126c0,0,5.06,37.947,2.734,46.45c0,0,2.36,7.632,1.924,10.793c0,0,0.111,3.926-3.599,6.104
			l-4.471,3.598c0,0-4.033,3.818-3.051-0.655c0,0,3.488-3.703,2.506-7.958c0,0-0.762-2.939-2.068,0.222c0,0,0.543,9.157-1.637,4.357
			c0,0-1.037-8.065,1.146-10.955c0,0,2.834-4.688,3.813-5.343l-4.26-45.617L534.919,149.126z"/>
		<path fill="#326997" d="M498.825,104.432c0,0-1.914,7.108-15.769,10.937c0,0-5.651,1.458-6.746,7.292l-5.104,39.554h-1.641v7.841
			h10.938l0.137-7.476l-1.163-0.137l2.53-11.005l0.615,23.993c0,0,2.256,4.922,4.99,6.151c0,0,19.274,2.051,34.178,0
			c0,0,5.332-4.512,5.879-7.383c0,0,0.547-13.672,0-16.27l1.344,4.512l-0.887,0.047l0.045,7.52h11.484v-7.565l-2.142-0.09
			l-5.332-40.103c0,0-1.094-6.426-6.563-7.656c0,0-13.81-5.879-16.477-11.277L498.825,104.432z"/>
		<path fill="#E2C193" d="M475.767,67.064c0,0-9.479-11.302-7.653,4.737c0,0,3.461,13.672,10.205,10.756
			c0,0,7.475,20.597,20.965,21.144v8.363l5.081,7.725c0,0,7.313-5.332,4.782-16.474c0,0,9.023,2.392,17.229-21.396
			c0,0,6.768,4.647,9.707-8.545c0,0,5.264-24.745-7.453-5.469L526.1,37.009l-26.11-3.214l-24.131,3.897l-1.026,13.876l-0.206,10.597
			L475.767,67.064z"/>
		<path fill="#333333" d="M475.948,68.796l0.455-27.799c0,0,44.752-6.563,47.76,2.734c0,0-3.281,9.66,1.914,16.313l0.91,11.394
			l4.739-10.025c0,0,3.736-21.965,0-34.087c0,0-18.047-16.588-34.27-16.861c0,0,1.367,3.646,1.551,4.648
			c0,0-9.844-4.831-16.225-4.648c0,0,2.098,3.19,0.819,5.378c0,0-12.758-5.569-17.498-5.383c0,0-1.002,9.027,2.371,11.854
			c0,0-6.473-2.825-6.563-4.375c0,0-3.008,22.237,9.932,20.779C471.847,38.719,468.112,58.041,475.948,68.796z"/>
		<path fill="#3F3D3D" d="M496.638,57.312c0,0-8.75-1.504-11.621,2.051c0,0,2.871-5.879,11.621-3.965V57.312z"/>
		<path fill="#3F3D3D" d="M505.112,56.036l1.269,2.37c0,0,9.136-1.823,11.733,1.458C518.114,59.864,515.665,53.711,505.112,56.036z"
			/>
		<path fill="#AA9375" d="M499.919,68.796c0,0-3.213,8.703-6.426,11.164c0,0,2.324,4.785,6.426,3.327c0,0-5.053-1.943-5.559-2.962
			C494.36,80.326,499.509,73.307,499.919,68.796z"/>
		<path fill="#E1EFF0" d="M499.28,103.704v8.362l1.204,1.832c0,0-4.805,3.841-3.778,8.079c0,0-5.264-7.564,0.752-18.273H499.28z"/>
		<path fill="#E1EFF0" d="M509.146,103.316c0,0,1.502,7.938-1.062,11.671c0,0,3.863,0.975,3.453,5.486
			C511.538,120.473,517.144,106.528,509.146,103.316z"/>
		<polygon fill="#346471" points="498.64,115.79 502.519,122.933 505.751,122.933 509.658,115.79 510.767,117.465 505.751,125.667 
			502.519,125.121 497.53,117.419 		"/>
		<path fill="#232323" d="M503.292,122.933c0,0,1.182-0.819,2.186,0c0,0,1.687,25.635,5.582,33.974l-2.975,5.4l-5.566-4.923
			C502.519,157.385,503.459,127.96,503.292,122.933z"/>
		<path fill="#424242" d="M488.034,181.72c0,0-2.072,4.803,0.89,8.756l-1.596,89.887h4.843l7.619-83.959l7.621-0.427
			c0,0,7.057,54.188,7.338,84.951l4.656-0.844l-1.107-87.798c0,0,4.483-3.016,3.496-10.702L488.034,181.72z"/>
		<path fill="#171717" d="M519.665,277.275c0,0-1.514-2.867-3.5,0c0,0-4.723,5.31-2.377,7.65c0,0,3.713,4.309,5.08,4.309h7.424
			c0,0-3.225-6.266-5.373-7.531C520.918,281.705,520.304,278.079,519.665,277.275z"/>
		<path fill="#171717" d="M487.377,278.66c0,0,1.515-2.864,3.5,0c0,0,4.718,5.308,2.375,7.654c0,0-3.712,4.308-5.081,4.308h-7.42
			c0,0,3.221-6.265,5.369-7.531C486.124,283.091,486.74,279.465,487.377,278.66z"/>
	</g>
	<path fill="#333333" d="M508.085,66.188c0,0,5.158-2.713,7.346,2.607C515.431,68.796,509.351,67.282,508.085,66.188z"/>
	<path fill="#333333" d="M495.745,66.188c0,0-5.16-2.713-7.348,2.607C488.397,68.796,494.478,67.282,495.745,66.188z"/>
	<path fill="#775E4B" d="M495.745,91.342c0,0,13.396,3.828,19.686-3.279C515.431,88.062,509.688,97.905,495.745,91.342z"/>
</g>
<g>
	<path fill="#E2C193" d="M350.826,126.093c0,0,5.807,37.464,3.547,45.719c0,0,2.293,7.411,1.869,10.481c0,0,0.107,3.813-3.492,5.929
		l-4.34,3.492c0,0-3.918,3.707-2.965-0.635c0,0,3.387-3.598,2.434-7.729c0,0-0.74-2.858-2.01,0.213c0,0,0.529,8.893-1.59,4.232
		c0,0-1.004-7.833,1.113-10.638c0,0,2.752-4.554,3.702-5.188l-4.926-44.314L350.826,126.093z"/>
	<path fill="#E2C193" d="M305.094,127.343l-5.055,44.941c0.951,0.635,3.702,5.188,3.702,5.188
		c2.119,2.805,1.115,10.638,1.115,10.638c-2.119,4.659-1.59-4.233-1.59-4.233c-1.271-3.07-2.011-0.213-2.011-0.213
		c-0.952,4.131,2.435,7.729,2.435,7.729c0.952,4.342-2.965,0.635-2.965,0.635l-4.34-3.493c-3.6-2.116-3.493-5.928-3.493-5.928
		c-0.425-3.071,1.87-10.482,1.87-10.482c-2.26-8.255,3.625-47.25,3.625-47.25L305.094,127.343z"/>
	<path fill="#7CCECF" d="M305.551,158.656c0,0-0.522,10.703,1.827,12.896l-1.877,98.223c0,0,2.817-2.507,5.167,0l7.833-92.896
		c0,0,7.206,0.313,9.869-0.782c0,0,6.735,73.781,7.205,93.678c0,0,2.664-4.073,5.327,0l-0.626-100.962c0,0,3.289-2.221,0.626-10.156
		C338.239,150.719,306.464,156.802,305.551,158.656z"/>
	<path fill="#161616" d="M341.027,269.106c0,0,6.815,12.141,8.811,13.785c0,0-5.287,4.111-9.869,0c0,0-4.935-2.351-5.757-4.816
		c0,0-0.901-6.658,1.487-8.969C335.7,269.106,338.266,264.332,341.027,269.106z"/>
	<path fill="#161616" d="M305.552,267.94c0,0-6.357,12.141-8.354,13.785c0,0,5.287,4.111,9.869,0c0,0,4.935-2.351,5.757-4.816
		c0,0,0.901-6.658-1.488-8.969C311.335,267.94,308.312,263.166,305.552,267.94z"/>
	<path fill="#A1DADC" d="M317.56,96.818l-14.005,5.732c0,0-7.167,11.5-8.667,22.833l10.667,2.75l-2.667,29.917
		c0,0,18.249,4.667,41.833,0l-1-29.917l8.834-2l-5.916-21c0,0-4.846-4.285-16.173-8.268L317.56,96.818z"/>
	<path fill="#E2C193" d="M298.887,63.678c0,0-8.668-10.333-7,4.332c0,0,3.166,12.5,9.332,9.833c0,0,4.479,18.508,16.813,19.008
		l2.355,7.973l4.646,7.063c0,0,3.136-5.191,5.433-15.021c0,0,7.192,2.146,14.693-19.606c0,0,6.188,4.25,8.875-7.813
		c0,0,4.813-22.625-6.813-5l-2.313-28.25l-23.875-2.938l-22.063,3.563l-0.938,12.688l-0.188,9.688L298.887,63.678z"/>
	<path fill="#333333" d="M299.053,65.262l0.416-25.417c0,0,40.918-6,43.667,2.5c0,0-3,8.833,1.75,14.917l0.832,10.417l4.334-9.167
		c0,0,3.416-20.083,0-31.167c0,0-16.5-15.167-31.333-15.417c0,0,1.25,3.332,1.418,4.25c0,0-9-4.418-14.834-4.25
		c0,0,1.918,2.917,0.75,4.917c0,0-11.666-5.094-16-4.922c0,0-0.916,8.255,2.168,10.839c0,0-5.918-2.583-6-4
		c0,0-2.75,20.333,9.082,19C295.303,37.762,291.887,55.428,299.053,65.262z"/>
	<path fill="#3F3D3D" d="M317.969,54.762c0,0-8-1.375-10.625,1.875c0,0,2.625-5.375,10.625-3.625V54.762z"/>
	<path fill="#3F3D3D" d="M325.719,53.595l1.159,2.167c0,0,8.353-1.667,10.728,1.333C337.606,57.095,335.368,51.47,325.719,53.595z"
		/>
	<path fill="#AA9375" d="M320.969,65.262c0,0-2.938,7.958-5.875,10.208c0,0,2.125,4.375,5.875,3.042c0,0-4.619-1.776-5.082-2.708
		C315.887,75.804,320.594,69.387,320.969,65.262z"/>
	<path fill="#333333" d="M328.436,62.877c0,0,4.717-2.479,6.717,2.386C335.153,65.262,329.594,63.877,328.436,62.877z"/>
	<path fill="#333333" d="M317.153,62.877c0,0-4.717-2.479-6.717,2.386C310.436,65.262,315.995,63.877,317.153,62.877z"/>
	<path fill="#775E4B" d="M317.153,85.877c0,0,12.25,3.5,18-3C335.153,82.877,329.903,91.877,317.153,85.877z"/>
</g>
</svg>
