<?xml version="1.0" encoding="utf-8"?>
<!-- Generator: Adobe Illustrator 16.0.0, SVG Export Plug-In . SVG Version: 6.00 Build 0)  -->
<!DOCTYPE svg PUBLIC "-//W3C//DTD SVG 1.1//EN" "http://www.w3.org/Graphics/SVG/1.1/DTD/svg11.dtd">
<svg version="1.1" id="Layer_1" xmlns="http://www.w3.org/2000/svg" xmlns:xlink="http://www.w3.org/1999/xlink" x="0px" y="0px"
	 width="636px" height="400px" viewBox="0 0 636 400" enable-background="new 0 0 636 400" xml:space="preserve">
<rect x="-35.25" y="-51.5" fill="#68755E" width="792" height="477"/>
<g id="bero">
	<path fill="#A5856D" d="M96.383,51v13h154V51c0,0-45-19-77-19C173.383,32,101.383,41,96.383,51z"/>
	<polygon fill="#A5856D" points="240.383,225 106.383,225 96.383,64 250.383,64 	"/>
	<rect x="230.758" y="225" fill="#A5856D" width="9.5" height="18"/>
	<rect x="106.383" y="225" fill="#A5856D" width="9.5" height="18"/>
	<polygon fill="#6D5546" points="243.011,182.695 103.755,182.695 103.896,184.958 242.87,184.958 	"/>
	<polygon fill="#6D5546" points="250.405,61.444 96.324,61.444 96.602,63.707 250.441,63.707 	"/>
	<polygon fill="#6D5546" points="242.143,196.667 104.623,196.667 104.764,198.93 242.002,198.93 	"/>
	<rect x="172.633" y="61.5" fill="#6D5546" width="1.5" height="121.195"/>
	<polygon fill="#6D5546" points="165.883,176.667 112.258,176.144 104.623,70.333 165.883,70.333 	"/>
	<polygon fill="#755F50" points="161.758,172.786 115.354,172.302 108.748,74.25 161.758,74.25 	"/>
	<polygon fill="#6D5546" points="178.998,176.685 232.623,176.161 240.258,70.351 178.998,70.351 	"/>
	<polygon fill="#755F50" points="183.123,172.804 229.526,172.319 236.133,74.268 183.123,74.268 	"/>
</g>
<g id="lamp">
	<ellipse fill="#7F7F7F" cx="523.417" cy="220.904" rx="26.75" ry="11.348"/>
	<path fill="#DDD326" d="M554.842,91.364c0.264,1.883-13.988,4.769-31.83,6.447c-17.843,1.677-32.521,1.51-32.783-0.373
		c-0.264-1.884,13.988-4.771,31.83-6.447C539.901,89.313,554.579,89.48,554.842,91.364z"/>
	<rect x="522.535" y="93.418" fill="#7F7F7F" width="1.764" height="125.401"/>
	<polygon fill="#BCB873" points="500.159,58.83 490.229,97.438 554.842,91.364 533.248,54.149 	"/>
</g>
<g id="bed">
	<polyline fill="#9E817A" points="568.721,110.168 559.152,112.637 559.152,167.068 565.745,176.579 568.721,173.36 	"/>
	<path fill="#A86FA1" d="M204.102,192.221c0,0-0.029,4.692,8.95,4.692c8.98,0,351.209,0,351.209,0s4.444,2.964,4.444-2.964
		c0,0,9.19-24.659-11.097-27.126c0,0-30.267-5.396-40.906-5.148c0,0-74.5-1.719-132.702,3.959c0,0-102.103-4.203-164.697,7.882
		c0,0-9.271,2.766-10.906,4.393C208.396,177.908,204.102,185.482,204.102,192.221z"/>
	<rect x="205.392" y="197.703" fill="#AF907B" width="363.329" height="3.075"/>
	<rect x="205.392" y="194.628" fill="#AFA39C" width="363.329" height="3.075"/>
	<polyline fill="#9E817A" points="197.458,181.294 204.102,176.579 210.446,176.579 207.399,181.294 	"/>
	<rect x="207.399" y="200.778" fill="#8E6F66" width="361.322" height="24.809"/>
	<rect x="197.458" y="181.294" fill="#8E6F66" width="9.941" height="78.453"/>
	<rect x="568.721" y="110.168" fill="#8E6F66" width="11.088" height="149.579"/>
	<polygon fill="#765D57" points="207.399,259.747 210.335,255.753 210.335,231.303 563.988,231.303 566.295,256.122 
		568.721,259.747 568.721,225.587 207.399,225.587 	"/>
	<path fill="#80527C" d="M207.399,184.402l19.416-5.416l21.094-1.581l23.401-2.595l37.278-2.947c0,0,26.004,1.197,26.992,0.726
		c0.989-0.473,41.529-0.742,41.529-0.742l35.237,0.237l21.425-1.48l33.647-2.089h33.617l40.209,2.965l19.447,5.555l8.026,2.51v8.234
		l-0.776,6.297H207.399V184.402z"/>
</g>
<g id="photos">
	<g>
		<rect x="321.8" y="58.549" fill="#1B1B1C" width="56.315" height="59.6"/>
		<rect x="325.175" y="58.549" fill="#434343" width="53.651" height="59.6"/>
		<rect x="328.817" y="62.576" fill="#D8D8D8" width="46.811" height="51.868"/>
		<rect x="335.568" y="72.724" fill="#BCE2E1" width="31.178" height="31.25"/>
		<path fill="#969262" d="M335.568,90.765c0,0,4.53-2.095,8.616-0.807c4.088,1.289,10.127,0.483,11.371-1.61
			c1.242-2.095,7.104-2.416,7.815,0.16c0.71,2.577,3.376-3.383,3.376-3.383v18.848h-31.178V90.765z"/>
		<ellipse fill="#C39648" cx="342.852" cy="78.684" rx="2.576" ry="2.094"/>
	</g>
	<g>
		<rect x="420.392" y="51.229" fill="#1B1B1C" width="32.803" height="38.943"/>
		<rect x="422.356" y="51.229" fill="#434343" width="31.251" height="38.943"/>
		<rect x="424.479" y="53.86" fill="#D8D8D8" width="27.267" height="33.891"/>
		<rect x="428.41" y="60.491" fill="#959999" width="18.16" height="20.419"/>
		<ellipse fill="#D2D6D6" cx="437.103" cy="64.964" rx="1.953" ry="2.053"/>
		<path fill="#D2D6D6" d="M439.056,72.079c0,1.097-0.874,1.986-1.952,1.986l0,0c-1.078,0-1.953-0.89-1.953-1.986v-3.075
			c0-1.097,0.875-1.986,1.953-1.986l0,0c1.078,0,1.952,0.89,1.952,1.986V72.079z"/>
	</g>
	<g>
		<rect x="389.251" y="98.676" fill="#1B1B1C" width="32.802" height="38.944"/>
		<rect x="391.216" y="98.676" fill="#434343" width="31.251" height="38.944"/>
		<rect x="393.338" y="101.308" fill="#D8D8D8" width="27.266" height="33.891"/>
		<rect x="397.27" y="107.938" fill="#959999" width="18.16" height="20.419"/>
		<ellipse fill="#D2D6D6" cx="405.962" cy="112.412" rx="1.953" ry="2.053"/>
		<path fill="#D2D6D6" d="M407.915,119.526c0,1.097-0.874,1.986-1.952,1.986l0,0c-1.079,0-1.954-0.89-1.954-1.986v-3.075
			c0-1.097,0.875-1.987,1.954-1.987l0,0c1.078,0,1.952,0.891,1.952,1.987V119.526z"/>
	</g>
</g>
</svg>
