<?xml version="1.0" encoding="utf-8"?>
<!-- Generator: Adobe Illustrator 16.0.0, SVG Export Plug-In . SVG Version: 6.00 Build 0)  -->
<!DOCTYPE svg PUBLIC "-//W3C//DTD SVG 1.1//EN" "http://www.w3.org/Graphics/SVG/1.1/DTD/svg11.dtd">
<svg version="1.1" id="Layer_1" xmlns="http://www.w3.org/2000/svg" xmlns:xlink="http://www.w3.org/1999/xlink" x="0px" y="0px"
	 width="684px" height="296.64px" viewBox="0 0 684 296.64" enable-background="new 0 0 684 296.64" xml:space="preserve">
<rect x="-36.984" y="-57" fill="#A3C1C1" width="742.5" height="382"/>
<g>
	<polygon fill="#BA9C78" points="221.715,26.546 453,26.546 436.975,132.425 231.549,132.425 	"/>
	<polygon fill="#5A9E59" points="230.316,32.01 444.398,32.01 432.352,126.842 238.384,126.842 	"/>
	<polygon fill="#456645" points="240.119,126.842 232.942,33.794 444.117,34.22 444.398,32.01 230.316,32.01 238.384,126.842 	"/>
	<polygon fill="#C1B195" points="231.549,132.425 223.314,138.883 445.51,138.775 436.975,132.425 	"/>
	<polygon fill="#A89576" points="223.314,138.883 223.314,141.333 445.51,141 445.51,138.775 	"/>
	<g>
		<path fill="#C6B3C2" d="M246.35,133.046c0,0-0.854,3.739,1.643,4.568c0,0,6.825,2.469,14.414,0c0,0,2.486-0.693,2.142-4.568
			H246.35z"/>
		<ellipse fill="#DBCDD7" cx="255.449" cy="133.046" rx="9.099" ry="2.953"/>
		<path fill="#AE94AC" d="M257.36,135.934c0,0,0.667,1.493,0.094,2.683c0,0,3.622-0.428,4.867-0.975c0,0,2.567-0.634,2.228-4.596
			C264.549,133.046,262.742,135.719,257.36,135.934z"/>
	</g>
	<g>
		<polygon fill="#DDE050" points="325.604,137.124 271.692,137.124 276.707,133.046 319.895,133.046 		"/>
		<polygon fill="#C1C153" points="325.709,137.749 271.551,137.713 271.692,137.124 325.604,137.124 		"/>
	</g>
	<polygon fill="#D3D3D3" points="391.273,136.264 361.688,136.264 361.688,132.186 390.928,130.328 	"/>
	<polygon fill="#D3D3D3" points="419.354,136.874 401.496,136.874 401.496,133.296 419.354,134.359 	"/>
</g>
<g id="hanging_frame">
	<g id="photos">
		<g>
			<rect x="500.371" y="51.776" fill="#1B1B1C" width="53.662" height="54.133"/>
			<rect x="503.417" y="54.359" fill="#444444" width="48.417" height="48.699"/>
			<rect x="506.704" y="57.65" fill="#D8D9D8" width="42.244" height="42.382"/>
			<rect x="512.796" y="65.942" fill="#BDE2E1" width="28.137" height="25.535"/>
			<path fill="#969262" d="M512.796,80.684c0,0,4.089-1.711,7.775-0.659c3.689,1.053,9.139,0.395,10.262-1.316
				c1.121-1.712,6.411-1.974,7.053,0.131c0.641,2.105,3.047-2.764,3.047-2.764v15.4h-28.137V80.684z"/>
			<ellipse fill="#C39648" cx="519.369" cy="70.812" rx="2.325" ry="1.711"/>
		</g>
	</g>
	<polygon fill="#EEED8E" points="505.376,51.776 525.004,35.434 529.141,35.434 548.948,51.776 547.114,51.844 528.163,35.911 
		525.455,36.115 506.704,51.776 	"/>
	<ellipse fill="#A43B36" cx="526.864" cy="34.479" rx="3.502" ry="3.186"/>
</g>
<g id="table">
	<polygon fill="#A88A73" points="426.412,168.138 242.412,168.392 253.973,156.068 413.889,156.068 	"/>
	<polygon fill="#755F51" points="242.412,168.392 242.412,170.924 426.412,170.924 426.412,168.138 	"/>
	<polygon fill="#755F51" points="245.837,215.639 242.947,215.639 242.412,170.924 254.187,170.924 	"/>
	<polygon fill="#755F51" points="425.663,215.639 422.773,215.639 413.461,170.924 426.412,170.924 	"/>
	<polygon fill="#A58576" points="422.009,211.968 246.523,211.968 249,170.924 419.937,170.867 	"/>
	<polygon fill="#755F51" points="422.773,215.639 417.742,211.968 422.009,211.886 	"/>
	<polygon fill="#755F51" points="245.837,215.639 250.734,211.968 246.399,211.968 	"/>
</g>
<g id="dustbin">
	<path fill="#CED6DD" d="M207.164,178.24c0,0,17.417,12.856,33.73,0l-3.869,34.563c0,0-14.93,7.189-25.577-1.104L207.164,178.24z"/>
	<path fill="#949DA5" d="M207.164,178.24c0,0,16.588,12.856,33.73,0C240.896,178.24,223.203,161.65,207.164,178.24z"/>
	<path fill="#E4EBF5" d="M207.164,178.24c0,0,15.619,12.856,33.73,0l-0.319,2.855c0,0-16.712,12.915-33.045,0L207.164,178.24z"/>
	<path fill="#BAC1C6" d="M237.026,212.805c0,0-13.825,7.154-25.577-1.104l-0.329-2.573c0,0,13.25,8.278,26.319,0L237.026,212.805z"
		/>
	<path fill="#BAC1C6" d="M227.089,186.562c0,0,3.721-0.32,8.572-2.605l-1.52,26.92c0,0-4.131,1.781-7.053,1.528V186.562
		L227.089,186.562z"/>
	<path fill="#B797B7" d="M209.134,179.486c0,0,5.17,2.995,6.94,3.053c0,0,2.689-2.537,0-4.299s-4.939-2.076-4.956-0.831
		C211.102,178.657,208.297,176.134,209.134,179.486z"/>
	<path fill="#FFFFFF" d="M227.089,183.781c0,0-5.838,0.671-11.016-1.242c0,0-2.689-2.95,2.391-3.469c0,0,3.197-2.366,4.338-0.656
		c0,0,2.317-0.518,2.715,1.021c0,0,1.813-1.452,2.246,0.448C227.763,179.883,229.944,182.064,227.089,183.781z"/>
	<path fill="#76A58C" d="M235.662,181.313c0,0-4.752,2.063-8.572,2.469c0,0-3.3-1.721,0-4.185c0,0,0.19-3.082,2.816-1.805
		c0,0,3.803-1.764,3.939,1.001C233.845,178.794,236.647,177.817,235.662,181.313z"/>
</g>
<g id="book">
	<g id="book1_1_">
		<path fill="#CCC770" d="M260.932,150.69c0,0-2.308,2.311-0.52,4.308l23.299-0.99l15.462-0.005l0.262-0.645l-15.616,0.303
			c0,0-1.81-1.85-0.36-4.313l15.064-0.748v-0.705l-16.689-0.063L260.932,150.69z"/>
		<path fill="#D8D8D8" d="M298.523,148.6c0,0-0.597,1.175,0,2.466l-0.813,0.51h0.813c0,0,0.524,1.451,0.912,1.783l-15.725,0.323
			c0,0-1.684-2.069-0.251-4.334L298.523,148.6z"/>
		<polyline fill="#9F9B5B" points="298.536,148.6 298.51,148.72 283.323,149.526 283.455,149.314 		"/>
		<polygon fill="#9F9B5B" points="283.389,153.178 299.279,153.178 299.436,153.358 283.711,153.682 		"/>
	</g>
	<g id="book1">
		<path fill="#A64847" d="M255.777,155.23c0,0-1.584,4.167,0,6.529l24.209,3.888l20.606-4.443l0.233-0.763l-20.455,4.234
			c0,0-2.682-4.653-0.6-9.283l20.246-0.578v-0.834h-20.174L255.777,155.23z"/>
		<path fill="#D8D8D8" d="M300.016,154.814c0,0-0.529,1.389,0,2.917l-0.721,0.601h0.721c0,0,0.465,1.717,0.809,2.109l-20.455,4.234
			c0,0-2.786-4.584-0.6-9.283L300.016,154.814z"/>
		<polyline fill="#85403E" points="300.016,154.814 299.993,154.956 279.666,155.624 279.783,155.374 		"/>
		<polygon fill="#883C3D" points="280.255,164.542 300.687,160.229 300.825,160.441 280.37,164.676 		"/>
		<path fill="#85403E" d="M255.436,161.112l23.085,2.869c0,0,0.648,1.32,1.465,1.666c0.816,0.348-24.209-3.888-24.209-3.888
			L255.436,161.112z"/>
	</g>
</g>
<g id="opened_book">
	<path fill="#ACA85F" d="M314.5,162.74v1.889c0,0,14.351-2.436,20.221,0h2.509c0,0,15.928-1.987,20.773,0v-1.889
		c0,0-11.766-3.278-20.773,0h-2.358C334.872,162.74,329.502,158.896,314.5,162.74z"/>
	<path fill="#CCC770" d="M314.5,162.74c0,0,13.447-3.622,20.372,0h2.358c0,0,13.247-2.294,20.773,0l-7.075-7.891
		c0,0-9.433-1.771-13.798,0.221h-1.857c0,0-13.547-2.214-15.956-1.106L314.5,162.74z"/>
</g>
<g id="CALENDER">
	<g id="calender">
		<rect x="500.369" y="118.356" fill="#7F7F7F" width="51.75" height="5.25"/>
		<rect x="500.369" y="123.605" fill="#7F7F7F" width="51.75" height="29.43"/>
		<rect x="501.202" y="117.273" fill="#8C3837" width="51.75" height="5.25"/>
		<rect x="501.202" y="122.521" fill="#EFEFEF" width="51.75" height="29.432"/>
	</g>
	<text transform="matrix(1.0998 0 0 1 512.4688 121.9966)" fill="#C9C9C9" font-family="'MyriadPro-Regular'" font-size="6">CALENDER</text>
	<text transform="matrix(1 0 0 1 510.3691 128.3564)" font-family="'MyriadPro-Regular'" font-size="3">S</text>
	<text transform="matrix(1 0 0 1 515.2021 128.3564)" font-family="'MyriadPro-Regular'" font-size="3">M</text>
	<text transform="matrix(1 0 0 1 520.3691 128.3564)" font-family="'MyriadPro-Regular'" font-size="3"> T</text>
	<text transform="matrix(1 0 0 1 525.4941 128.3564)" font-family="'MyriadPro-Regular'" font-size="3"> W</text>
	<text transform="matrix(1 0 0 1 531.9102 128.3564)" font-family="'MyriadPro-Regular'" font-size="3"> T</text>
	<text transform="matrix(1 0 0 1 536.9102 128.3564)" font-family="'MyriadPro-Regular'" font-size="3"> F</text>
	<text transform="matrix(1 0 0 1 541.2441 128.3564)" font-family="'MyriadPro-Regular'" font-size="3">  S</text>
	<text transform="matrix(1 0 0 1 509.2852 134.106)"><tspan x="0" y="0" font-family="'MyriadPro-Regular'" font-size="3">           </tspan><tspan x="6.996" y="0" font-family="'MyriadPro-Regular'" font-size="2">1         2           3           4         5         6     </tspan><tspan x="0" y="2.4" font-family="'MyriadPro-Regular'" font-size="2">   7            8        9         10         11       12     13</tspan><tspan x="0" y="4.8" font-family="'MyriadPro-Regular'" font-size="2"> 14          15     16         17         18      19     20</tspan><tspan x="0" y="7.2" font-family="'MyriadPro-Regular'" font-size="2"> 21          21     22         23         24      25     26</tspan><tspan x="0" y="9.6" font-family="'MyriadPro-Regular'" font-size="2"> 27          28     29         30         31</tspan></text>
</g>
</svg>
