<?xml version="1.0" encoding="utf-8"?>
<!-- Generator: Adobe Illustrator 16.0.0, SVG Export Plug-In . SVG Version: 6.00 Build 0)  -->
<!DOCTYPE svg PUBLIC "-//W3C//DTD SVG 1.1//EN" "http://www.w3.org/Graphics/SVG/1.1/DTD/svg11.dtd">
<svg version="1.1" id="Layer_1" xmlns="http://www.w3.org/2000/svg" xmlns:xlink="http://www.w3.org/1999/xlink" x="0px" y="0px"
	 width="684px" height="296.64px" viewBox="0 0 684 296.64" enable-background="new 0 0 684 296.64" xml:space="preserve">
<rect x="-81" y="-163" fill="#BDA887" width="913" height="618"/>
<g>
	<g>
		<rect x="286.334" y="41.28" fill="#D7CECE" width="62.333" height="131.405"/>
		<rect x="291.855" y="53.681" fill="#A99794" width="51.243" height="109.364"/>
		<rect x="294.383" y="56.816" fill="#37636C" width="45.861" height="14.975"/>
		<rect x="294.383" y="71.791" fill="#477C88" width="45.861" height="27.329"/>
		<rect x="294.383" y="99.12" fill="#65999F" width="45.861" height="4.493"/>
		<rect x="294.383" y="108.667" fill="#65999F" width="45.861" height="50.54"/>
		<path fill="#72834B" d="M294.383,137.681c0,0,5.055-5.803,8.237-1.311c0,0,1.099,2.035,1.169,3.721c0,0,1.124,2.527,2.597,0
			c0,0-2.176-4.844,2.106-4.634c0,0,6.037-1.354,8.072,2.482c0,0,1.123,1.379,2.808-1.078l3.966-0.034c0,0,2.141,0.877,1.825,2.702
			l3.475,0.035c0,0,2.316-2.878,3.825-2.878c0,0,3.159-0.211,3.826,1.684l3.791,0.035v20.743h-45.697V137.681z"/>
		<polygon fill="#D8D8D8" points="291.855,163.045 294.383,159.148 340.244,159.207 343.099,163.045 		"/>
		<polygon fill="#D7CECE" points="316.564,53.681 316.564,159.148 319.092,159.113 319.092,53.681 		"/>
		<rect x="291.855" y="104.221" fill="#D7CECE" width="51.243" height="4.446"/>
		<path fill="#4B4141" d="M345.344,97.903c0,0-1.965,13.337,0,19.514C345.344,117.417,348.152,103.8,345.344,97.903z"/>
		<rect x="286.334" y="172.685" fill="#A99794" width="62.333" height="3.37"/>
	</g>
	<g>
		<rect x="348.667" y="41.28" fill="#D7CECE" width="62.333" height="131.405"/>
		<rect x="354.235" y="53.681" fill="#A99794" width="51.243" height="109.364"/>
		<rect x="357.091" y="56.816" fill="#37636C" width="45.86" height="14.975"/>
		<rect x="357.091" y="71.791" fill="#477C88" width="45.86" height="27.329"/>
		<rect x="357.091" y="99.12" fill="#65999F" width="45.86" height="4.493"/>
		<rect x="357.091" y="108.667" fill="#65999F" width="45.86" height="50.54"/>
		<path fill="#72834B" d="M402.951,137.681c0,0-5.055-5.803-8.236-1.311c0,0-1.1,2.035-1.17,3.721c0,0-1.123,2.527-2.597,0
			c0,0,2.176-4.844-2.106-4.634c0,0-6.036-1.354-8.072,2.482c0,0-1.123,1.379-2.808-1.078l-3.966-0.034c0,0-2.142,0.877-1.826,2.702
			l-3.474,0.035c0,0-2.316-2.878-3.826-2.878c0,0-3.158-0.211-3.825,1.684l-3.791,0.035v20.743h45.697V137.681z"/>
		<polygon fill="#D8D8D8" points="405.479,163.045 402.951,159.148 357.091,159.207 354.235,163.045 		"/>
		<polygon fill="#D7CECE" points="380.77,53.681 380.77,159.148 378.243,159.113 378.243,53.681 		"/>
		<rect x="354.235" y="104.221" fill="#D7CECE" width="51.243" height="4.446"/>
		<path fill="#4B4141" d="M351.99,97.903c0,0,1.965,13.337,0,19.514C351.99,117.417,349.183,103.8,351.99,97.903z"/>
		<rect x="348.667" y="172.685" fill="#A99794" width="62.333" height="3.37"/>
	</g>
</g>
<g id="table">
	<polygon fill="#6A523D" points="275.473,267.347 279.709,262.807 278.611,247.415 272.491,247.415 	"/>
	<polygon fill="#947152" points="263.624,247.415 265.429,267.347 275.473,267.347 272.491,247.415 	"/>
	<polygon fill="#947152" points="416.873,271.309 427.113,271.309 428.996,251.064 420.64,245.885 	"/>
	<polygon fill="#6A523D" points="412.871,266.601 416.873,271.309 420.64,245.885 413.813,245.297 	"/>
	<path fill="#339999" d="M253.501,190.29c0,0-1.099,38.292-4.708,48.493c0,0-2.197,11.457,2.354,15.537c0,0,3.453,1.727,5.336,0
		c0,0,2.981,0.157,6.905-5.336c0,0,14.282,2.981,27.464-0.313c0,0,2.04-3.767,4.237,0.157c0,0,2.197,4.551,4.081-0.785
		c0,0,1.413-0.942,2.982,0.314c0,0,41.118-5.022,65.756,0.784l1.805-0.079c0,0,6.827,3.453,10.516-0.392
		c0,0,3.531-2.668,6.042,0.157c0,0,21.971,6.198,38.214,0.234c0,0,0.707,8.397,7.69,11.929c0,0,8.553,5.885,12.398-3.531
		c0,0,1.373-4.866-1.334-15.459c0,0-7.887-44.609-5.886-48.847L253.501,190.29z"/>
	<path fill="#256C6D" d="M254.62,255.073c0,0,4.649,0.346,5.238-40.968c0,0,1.53,31.819,3.531,34.879
		C263.388,248.984,260.152,255.309,254.62,255.073z"/>
	<path fill="#256C6D" d="M272.451,190.447h3.531c0,0-6.121-1.884-2.354,36.605C273.628,227.053,269.744,204.453,272.451,190.447z"/>
	<path fill="#256C6D" d="M291.284,248.045c0,0,5.885-43.944,6.12-52.302c0,0-1.844,48.611-2.315,53.085
		C295.089,248.828,293.814,246.096,291.284,248.045z"/>
	<path fill="#256C6D" d="M299.17,248.043c0,0,1.589-23.815,1.413-27.582c0,0,1.04,25.954,1.569,27.896
		C302.152,248.357,300.789,247.099,299.17,248.043z"/>
	<path fill="#256C6D" d="M367.908,249.142c0,0-4.315-25.109-2.511-35.311c0,0,1.648,31.387,4.315,35.231L367.908,249.142z"/>
	<path fill="#256C6D" d="M380.081,248.817c0,0,4.934-39.852,5.247-43.775c0,0-0.972,39.586,0.833,43.667
		C386.161,248.709,383.681,245.996,380.081,248.817z"/>
	<path fill="#256C6D" d="M424.327,249.377c0,0,5.414-37.352,6.199-45.12c0,0-1.883,46.455,1.805,56.734
		C432.331,260.991,426.348,259.038,424.327,249.377z"/>
	<polygon fill="#59A6AE" points="253.501,190.761 261.505,163.925 430.213,163.925 437.354,193.625 	"/>
</g>
<g id="chair_1_">
	<path fill="#B08776" d="M451.313,211.211c0,0-2.486,1.475-4.158,1.956l3.566,33.572l2.351-0.164L451.313,211.211z"/>
	<path fill="#B08776" d="M492.67,209.729c0,0-2.487,1.475-4.158,1.955l3.566,33.571l2.352-0.162L492.67,209.729z"/>
	<path fill="#82645A" d="M445.426,207.969c0,9.932,14.945,13.178,33.381,13.178s33.381-1.615,33.381-13.178
		c0-5.042-14.945-6.694-33.381-6.694C460.372,201.274,445.426,202.928,445.426,207.969z"/>
	<path fill="#82645A" d="M466.982,217.723c0,0-2.486,1.477-4.157,1.957l3.565,33.572l2.351-0.164L466.982,217.723z"/>
	<ellipse fill="#B08776" cx="478.807" cy="207.968" rx="33.381" ry="9.128"/>
	<path fill="#B08776" d="M506.688,206.588c0,0,0.832-58.853,3.328-72.59l-21.502,1.78c0,0,4.712,56.858,6.874,64.269
		C497.074,205.825,506.688,206.588,506.688,206.588z"/>
	<path fill="#82645A" d="M506.132,206.588c0,0,2.035-67.652,3.884-72.59l1.616,0.808l-3.419,71.782H506.132z"/>
	<path fill="#82645A" d="M504.617,217.789c0,0-2.587,1.299-4.291,1.663l1.093,33.732h2.356L504.617,217.789z"/>
</g>
<g id="chair_2_">
	<path fill="#B08776" d="M236.541,251.79l2.351,0.164l3.566-33.572c-1.672-0.481-4.158-1.956-4.158-1.956L236.541,251.79z"/>
	<path fill="#B08776" d="M195.184,250.309l2.352,0.162l3.566-33.571c-1.671-0.48-4.158-1.955-4.158-1.955L195.184,250.309z"/>
	<path fill="#82645A" d="M210.807,206.489c-18.436,0-33.381,1.652-33.381,6.694c0,11.563,14.945,13.178,33.381,13.178
		s33.381-3.246,33.381-13.178C244.188,208.143,229.241,206.489,210.807,206.489z"/>
	<path fill="#82645A" d="M220.872,258.303l2.351,0.164l3.565-33.572c-1.671-0.48-4.157-1.957-4.157-1.957L220.872,258.303z"/>
	<ellipse fill="#B08776" cx="210.807" cy="213.184" rx="33.381" ry="9.128"/>
	<path fill="#B08776" d="M194.226,205.262c2.162-7.411,6.874-64.269,6.874-64.269l-21.502-1.78
		c2.496,13.737,3.328,72.59,3.328,72.59S192.539,211.04,194.226,205.262z"/>
	<path fill="#82645A" d="M181.4,211.803l-3.419-71.782l1.616-0.808c1.849,4.938,3.884,72.59,3.884,72.59H181.4z"/>
	<path fill="#82645A" d="M185.838,258.399h2.356l1.093-33.732c-1.704-0.364-4.291-1.663-4.291-1.663L185.838,258.399z"/>
</g>
<g id="cuboard">
	<path fill="#B08C7D" d="M44.654,55.619c0,0,47.426-27.125,104.911,0.66v2.455L44.654,57.776V55.619z"/>
	<path fill="#9F7360" d="M44.654,57.654c0,0,47.426-27.784,104.911,0v1.08L44.654,59.812V57.654z"/>
	<polygon fill="#9F7360" points="44.654,59.812 50.163,221.25 141.182,221.25 149.565,58.734 	"/>
	<g>
		<polygon fill="#574945" points="53.101,72.428 86.93,71.426 87.312,142.141 55.672,144.004 		"/>
		<polygon fill="#72625B" points="53.875,91.187 86.93,91.187 86.93,94.54 53.875,95.618 		"/>
		<rect x="53.875" y="117.894" fill="#72625B" width="33.653" height="2.875"/>
		<polygon fill="#815D4F" points="51.121,69.872 88.367,69.033 88.367,144.004 86.331,140.411 85.972,72.865 53.996,73.584 		"/>
		<polygon fill="#A67E6D" points="51.121,69.872 53.875,145.798 88.367,144.004 86.331,140.411 56.151,142.325 53.996,73.584 		"/>
		<polygon fill="#72625B" points="62.02,91.187 62.02,86.037 67.888,79.45 71.241,79.45 77.229,86.995 77.828,91.187 		"/>
		<path fill="#635551" d="M62.499,106.519v7.782c0,0-0.359,3.593,3.114,3.593h5.629v-3.952l-3.354-0.12l-0.479-7.303H62.499z"/>
		<polygon fill="#635551" points="62.488,130.825 64.762,141.779 79.279,140.858 79.279,127.352 75.074,127.352 75.552,134.565 
			69.325,134.565 67.528,130.585 		"/>
	</g>
	<g>
		<polygon fill="#574945" points="106.955,69.498 139.295,69.498 135.738,140.399 105.253,141.24 		"/>
		<polygon fill="#815D4F" points="105.253,67.591 140.823,67.591 137.11,143.4 135.194,139.208 137.829,70.585 107.769,70.411 		"/>
		<polygon fill="#A67E6D" points="107.769,70.411 106.241,139.213 135.194,139.208 137.11,143.4 103.637,143.4 105.253,67.591 		"/>
		<polygon fill="#72625B" points="107.338,89.814 137.128,88.823 137.11,93.135 107.236,94.395 		"/>
		<polyline fill="#635551" points="114.419,89.579 114.419,80.56 119.625,88.823 126.721,77.506 128.158,88.823 114.419,89.992 		
			"/>
		<polygon fill="#72625B" points="106.706,118.286 135.997,118.286 135.911,120.532 106.656,120.532 		"/>
		<polygon fill="#635551" points="116.661,118.286 117.649,101.758 123.038,101.758 122.589,118.286 		"/>
		<polygon fill="#635551" points="116.122,139.212 116.122,132.747 119.176,129.692 119.176,123.495 123.038,123.495 
			123.038,130.052 126.9,133.195 126.9,139.212 		"/>
	</g>
	<polygon fill="#815D4F" points="44.654,59.812 44.654,61.368 94.595,61.368 93.756,152.508 47.858,153.695 47.915,155.377 
		144.685,153.348 144.779,151.52 95.673,152.148 97.11,61.249 149.565,60.351 149.565,58.734 	"/>
	<polygon fill="#815D4F" points="143.406,178.137 48.846,178.137 48.846,176.578 143.458,176.578 	"/>
	<polygon fill="#815D4F" points="142.362,198.377 49.382,198.377 49.317,196.459 142.461,196.459 	"/>
	<ellipse fill="#4B4141" cx="95.553" cy="165.621" rx="3.952" ry="4.131"/>
	<ellipse fill="#4B4141" cx="95.553" cy="188.346" rx="3.952" ry="4.131"/>
	<ellipse fill="#4B4141" cx="96.152" cy="209.543" rx="3.952" ry="4.133"/>
	<path fill="#9F7360" d="M51.121,221.25c0,0,3.833,23.492,5.809,25.029h7.725c0,0,3.343-13.412,2.21-25.029H51.121z"/>
	<path fill="#815D4F" d="M66.865,221.25c0,0,0.621,7.813-0.062,11.557c0,0-3.347-11.373-12-11.557H66.865z"/>
	<path fill="#9F7360" d="M126.361,221.25c0,0-1.078,19.82,2.964,22.695h7.186c0,0,4.042-3.623,4.222-22.695H126.361z"/>
	<path fill="#815D4F" d="M129.774,221.25c0,0,10.309,7.564,10.039,12.863c0,0,0.684-1.516,0.998-12.863H129.774z"/>
</g>
<g id="cuboard_1_">
	<path fill="#B08C7D" d="M547.959,58.92c0,0,47.426-27.125,104.911,0.66v2.455l-104.911-0.958V58.92z"/>
	<path fill="#9F7360" d="M547.959,60.956c0,0,47.426-27.784,104.911,0v1.08l-104.911,1.078V60.956z"/>
	<polygon fill="#9F7360" points="547.959,63.113 553.468,224.552 644.486,224.552 652.87,62.036 	"/>
	<g>
		<polygon fill="#574945" points="556.405,75.73 590.234,74.728 590.616,145.443 558.977,147.306 		"/>
		<polygon fill="#72625B" points="557.18,94.489 590.234,94.489 590.234,97.842 557.18,98.92 		"/>
		<rect x="557.18" y="121.195" fill="#72625B" width="33.654" height="2.875"/>
		<polygon fill="#815D4F" points="554.426,73.173 591.672,72.335 591.672,147.306 589.636,143.713 589.276,76.167 557.301,76.886 		
			"/>
		<polygon fill="#A67E6D" points="554.426,73.173 557.18,149.1 591.672,147.306 589.636,143.713 559.455,145.626 557.301,76.886 		
			"/>
		<polygon fill="#72625B" points="565.324,94.489 565.324,89.339 571.192,82.752 574.546,82.752 580.533,90.297 581.133,94.489 		
			"/>
		<path fill="#635551" d="M565.803,109.82v7.782c0,0-0.358,3.593,3.114,3.593h5.629v-3.952l-3.354-0.12l-0.479-7.303H565.803z"/>
		<polygon fill="#635551" points="565.793,134.127 568.066,145.081 582.584,144.16 582.584,130.654 578.379,130.654 
			578.857,137.867 572.63,137.867 570.833,133.887 		"/>
	</g>
	<g>
		<polygon fill="#574945" points="610.26,72.8 642.6,72.8 639.043,143.701 608.559,144.542 		"/>
		<polygon fill="#815D4F" points="608.559,70.893 644.127,70.893 640.414,146.702 638.498,142.51 641.133,73.887 611.073,73.712 		
			"/>
		<polygon fill="#A67E6D" points="611.073,73.712 609.546,142.515 638.498,142.51 640.414,146.702 606.941,146.702 608.559,70.893 
					"/>
		<polygon fill="#72625B" points="610.643,93.116 640.434,92.125 640.414,96.437 610.541,97.697 		"/>
		<polyline fill="#635551" points="617.725,92.881 617.725,83.862 622.93,92.125 630.025,80.808 631.463,92.125 617.725,93.293 		
			"/>
		<polygon fill="#72625B" points="610.011,121.587 639.302,121.587 639.215,123.833 609.961,123.833 		"/>
		<polygon fill="#635551" points="619.965,121.587 620.953,105.06 626.343,105.06 625.894,121.587 		"/>
		<polygon fill="#635551" points="619.426,142.514 619.426,136.048 622.48,132.994 622.48,126.796 626.343,126.796 626.343,133.354 
			630.205,136.497 630.205,142.514 		"/>
	</g>
	<polygon fill="#815D4F" points="547.959,63.113 547.959,64.67 597.899,64.67 597.061,155.81 551.162,156.997 551.22,158.679 
		647.989,156.649 648.084,154.821 598.978,155.45 600.414,64.55 652.87,63.652 652.87,62.036 	"/>
	<polygon fill="#815D4F" points="646.711,181.438 552.15,181.438 552.15,179.88 646.762,179.88 	"/>
	<polygon fill="#815D4F" points="645.666,201.679 552.688,201.679 552.622,199.761 645.766,199.761 	"/>
	<ellipse fill="#4B4141" cx="598.857" cy="168.923" rx="3.952" ry="4.131"/>
	<ellipse fill="#4B4141" cx="598.857" cy="191.647" rx="3.952" ry="4.131"/>
	<ellipse fill="#4B4141" cx="599.456" cy="212.845" rx="3.952" ry="4.133"/>
	<path fill="#9F7360" d="M554.426,224.552c0,0,3.832,23.492,5.809,25.029h7.725c0,0,3.343-13.412,2.211-25.029H554.426z"/>
	<path fill="#815D4F" d="M570.17,224.552c0,0,0.62,7.813-0.063,11.557c0,0-3.346-11.373-11.999-11.557H570.17z"/>
	<path fill="#9F7360" d="M629.666,224.552c0,0-1.078,19.82,2.965,22.695h7.186c0,0,4.041-3.623,4.221-22.695H629.666z"/>
	<path fill="#815D4F" d="M633.079,224.552c0,0,10.309,7.564,10.039,12.863c0,0,0.684-1.516,0.998-12.863H633.079z"/>
</g>
<g id="light">
	<path fill="#785548" d="M345.484,56.412c0,0,4.015,2.399,7.156-0.218c0,0,0.042,8.726,2.202,12.521h-11.125
		C343.718,68.715,346.423,59.03,345.484,56.412z"/>
	<g>
		<path fill="#989898" d="M312.698,68.715c0,0-0.393-8.508,5.104-10.079c0,0,4.319-1.57,6.806,3.567c0,0,7.002,18.225,19.109,6.511
			h4.188c0,0-4.711,5.89-8.311,6.937c0,0-10.602,1.898-12.893-3.141c0,0-4.188-9.097-5.497-9.621c0,0-2.094-1.309-3.599,0.523
			c0,0-1.767,1.963-1.506,5.301H312.698z"/>
		<polygon fill="#785548" points="312.698,68.715 311.454,70.352 317.606,70.352 316.362,68.715 		"/>
		<path fill="#FFCC67" d="M311.454,70.352c0,0-5.628,2.356-6.086,14.921h17.211c0,0,0.563-10.571-4.581-14.921H311.454z"/>
		<path fill="#FFE1A4" d="M312.691,70.352c0,0-3.659,3.973-3.201,5.651c0,0,0.59,8.419,8.116,3.118c0,0,1.898-3.73-1.047-6.675
			c0,0-0.917-1.44-0.786-2.094H312.691z"/>
	</g>
	<g>
		<path fill="#989898" d="M385.863,68.715c0,0,0.393-8.508-5.104-10.079c0,0-4.319-1.57-6.807,3.567c0,0-7.003,18.225-19.109,6.511
			h-4.188c0,0,4.713,5.89,8.312,6.937c0,0,10.603,1.898,12.892-3.141c0,0,4.188-9.097,5.497-9.621c0,0,2.094-1.309,3.6,0.523
			c0,0,1.768,1.963,1.506,5.301H385.863z"/>
		<polygon fill="#785548" points="385.863,68.715 387.106,70.352 380.954,70.352 382.198,68.715 		"/>
		<path fill="#FFCC67" d="M387.106,70.352c0,0,5.628,2.356,6.087,14.921H375.98c0,0-0.563-10.571,4.581-14.921H387.106z"/>
		<path fill="#FFE1A4" d="M385.869,70.352c0,0,3.658,3.973,3.201,5.651c0,0-0.589,8.419-8.116,3.118c0,0-1.896-3.73,1.048-6.675
			c0,0,0.916-1.44,0.786-2.094H385.869z"/>
	</g>
	<polygon fill="#785548" points="347.138,68.715 345.354,70.81 353.469,70.81 352.028,68.715 	"/>
	<path fill="#FFCC67" d="M346.061,70.81c0,0-5.223,2.749-5.157,14.463h17.343c0,0-2.029-12.369-5.235-14.463H346.061z"/>
	<path fill="#FFE1A4" d="M347.055,70.81v1.636c0,0-2.813,2.341-2.879,3.167c0,0-1.833,4.46,4.058,5.261c0,0,3.795,0.604,5.235-2.538
		c0,0,1.309-3.207-1.963-5.759V70.81H347.055z"/>
	<path fill="#989898" d="M341.515,49.301h15.097c0,0-1.44,2.312-1.528,4.057c0,0-2.221,3.417-3.999,3.738
		c0,0-5.469,1.789-8.565-3.897C342.519,53.198,342.736,50.217,341.515,49.301z"/>
	<polygon fill="#D6D6D6" points="342.431,51.046 355.694,51.046 355.111,53.053 342.431,53.053 	"/>
	<rect x="347.382" fill="#3A2F29" width="2.749" height="49.301"/>
</g>
<g>
	<path fill="#999965" d="M343.962,178.149c0,0,1.239,1.338,9.445,0.801c0,0,1.919,0.153,1.804-2.454c0,0,2.147-14.624-4.754-17.012
		l0.422,0.769h-0.959L343.962,178.149z"/>
	<path fill="#ACAC82" d="M347.661,160.271c0,0-6.338,0.664-4.191,17.688c0,0,5.418,2.198,8.946-0.512c0,0,2.249-2.301,0.307-10.173
		l-2.697-7.003H347.661z"/>
	<path fill="#4C8854" d="M343.872,145.555c0,0,3.991,3.762,3.155,7.431l1.242,7.286h2.715c0,0-1.093-0.934-0.441-3.33
		c0,0,0.786-4.563,2.148-5.617c0,0-2.441,0.395-3.7,2.559c-0.014,0.022-0.026,0.046-0.039,0.068l-0.207-0.092
		c0,0-0.388-5.429-3.866-8.841L343.872,145.555z"/>
	<path fill="#80AB75" d="M342.204,150.941c0,0,5.776,0.294,5.457,9.33h0.831c0,0,0.096-11.765-7.227-10.729L342.204,150.941z"/>
	<path fill="#D36D5F" d="M340.46,148.22v0.69c0,0,2.083,1.975,2.565,3.317c0,0,0.962,2.42-1.185,2.647c0,0-1.534,0.228-2.454-0.214
		c0,0-0.882-0.088-1.38,0.272c0,0-1.878,1.454-2.434-0.215c0,0-1.055-1.61-1.266-1.974c0,0-0.345-0.71,0.537-1.112
		c0,0,0.115-1.036-0.728-1.343c0,0-0.422-2.319,2.262-1.878l1.093,0.422c0,0-0.019-0.863,0.633-1.035
		C338.102,147.798,340.218,147.292,340.46,148.22z"/>
	<path fill="#673366" d="M339.303,139.414l-2.3,2.326c0,0-0.383,1.329,0.23,1.917c0,0,1.584,2.301,3.144,2.454
		c0,0,1.378,0.633,3.017-0.153l2.709-1.713c0,0,0.357-0.679-0.358-1.362l-4.958-3.469
		C340.786,139.414,339.736,138.977,339.303,139.414z"/>
	<path fill="#375B3F" d="M349.146,153.635c0,0-0.082-4.853,4.368-8.617l0.334,0.658c0,0-3.542,5.67-3.611,6.784L349.146,153.635z"/>
	<path fill="#D36D5F" d="M353.514,145.018c0,0-0.076-0.416-0.434-0.722c0,0-1.405-0.153-0.689-2.428c0,0-0.442-2.224,3.241-1.278
		c0,0,3.711,0.179,3.89,1.789c0,0,0.92,2.403-1.585,2.862c0,0-1.623,0.307-2,0.716c0,0-1.898,0.096-2.089-0.282L353.514,145.018z"/>
	<path fill="#4C8854" d="M350.695,156.176c0,0,3.867-3.449,10.155,3.326c0,0-4.447-1.889-5.879-1.199c0,0-4.031,1.376-4.453,1.199
		C350.519,159.502,349.741,157.832,350.695,156.176z"/>
</g>
</svg>
