<?xml version="1.0" encoding="utf-8"?>
<!-- Generator: Adobe Illustrator 16.0.0, SVG Export Plug-In . SVG Version: 6.00 Build 0)  -->
<!DOCTYPE svg PUBLIC "-//W3C//DTD SVG 1.1//EN" "http://www.w3.org/Graphics/SVG/1.1/DTD/svg11.dtd">
<svg version="1.1" id="Layer_1" xmlns="http://www.w3.org/2000/svg" xmlns:xlink="http://www.w3.org/1999/xlink" x="0px" y="0px"
	 width="684px" height="296.641px" viewBox="0 0 684 296.641" enable-background="new 0 0 684 296.641" xml:space="preserve">
<rect x="1" y="-0.125" fill="#ACC3B8" width="684" height="296.64"/>
<g>
	<polygon fill="#415F82" stroke="#6F829E" stroke-width="5" stroke-miterlimit="10" points="251.02,59.208 160.62,51.628 
		171.82,206.242 251.02,198.662 	"/>
	<polygon fill="#B5CEE9" points="157.933,48.917 152.964,48.917 164.714,208.949 169.526,208.949 	"/>
	<polygon fill="#E4EDF6" points="163.359,54.333 248.443,61.584 248.443,90.667 165.771,87.35 	"/>
</g>
<g>
	<rect x="255.759" y="59.4" fill="#415F82" stroke="#7E95B7" stroke-width="5" stroke-miterlimit="10" width="212" height="140"/>
	<polygon fill="#B5CEE9" points="531.036,43.875 526.067,43.875 517.922,224.125 522.734,224.125 	"/>
	<polygon fill="#415F82" stroke="#6F829E" stroke-width="5" stroke-miterlimit="10" points="472.26,198.775 472.26,58.775 
		523.385,47.042 515.859,220.375 	"/>
	<polygon fill="#E4EDF6" points="474.989,60.917 520.656,50.25 519.027,87.917 474.989,84.25 	"/>
</g>
<g>
	<polygon fill="#CED6DD" points="213.331,176.207 408.669,176.207 408.609,180.358 213.331,180.358 	"/>
	<g>
		<polygon fill="#E4EDF6" points="231.896,160.824 213.331,176.207 408.669,176.207 395.754,160.824 		"/>
		<polygon fill="#CED6DD" points="235.551,180.358 239.948,180.358 242.878,246.285 238.481,246.285 		"/>
		<polygon fill="#929DA5" points="242.878,246.285 257.039,231.635 257.039,180.358 239.58,180.358 		"/>
		<polygon fill="#CED6DD" points="381.078,180.358 386.449,180.358 383.519,246.285 378.148,246.285 		"/>
		<polygon fill="#929DA5" points="378.148,246.285 368.382,233.1 368.382,180.358 381.445,180.358 		"/>
		<polygon fill="#E4EDF6" points="239.58,180.358 381.445,180.358 378.832,232.611 242.054,227.74 		"/>
		<polygon fill="#3C3F42" points="240.923,127.862 240.923,155.33 279.136,164.121 284.629,119.438 		"/>
		<path fill="#3C3F42" d="M249.419,157.285l7.037,1.619v5.766h6.748c0,0,5.311,2.564,1.374,4.672c0,0-23.531,2.105-16.848-4.121
			c0,0,0.916-0.732,1.465-0.641L249.419,157.285z"/>
		<polygon fill="#585C60" points="284.629,119.438 281.934,119.958 276.389,163.022 279.136,164.121 		"/>
		<polygon fill="#585C60" points="282.066,169.684 320.522,169.684 316.127,164.121 286.827,164.121 		"/>
		<rect x="282.066" y="169.684" fill="#3C3F42" width="38.457" height="1.885"/>
		<polygon fill="#3C3F42" points="352.115,157.748 355.114,157.748 355.114,162.357 362.945,162.357 362.945,157.748 
			365.938,157.748 371.465,175.024 368.471,175.024 367.322,173.031 351.193,173.031 350.273,175.024 347.052,175.024 		"/>
		<polygon fill="#3B3D3F" points="349.586,157.748 368.701,157.748 368.701,160.053 375.613,160.053 373.538,155.446 
			369.391,153.43 348.604,153.43 345.301,155.446 343.193,160.053 349.415,160.053 		"/>
	</g>
</g>
<g>
	<g>
		<rect x="437.501" y="173.303" fill="#995CA0" width="24.834" height="36"/>
		<polygon fill="#BE87C6" points="437.501,209.303 432.502,202.803 432.502,165.72 453.835,165.72 462.335,173.303 437.501,173.303 
					"/>
		<rect x="437.501" y="183.386" fill="#645268" width="24.834" height="0.833"/>
		<rect x="437.501" y="196.386" fill="#645268" width="24.834" height="0.833"/>
		<polygon fill="#D6A1E2" points="432.502,165.72 437.501,173.303 462.335,173.303 453.835,165.72 		"/>
		<rect x="446.504" y="184.219" fill="#645268" width="6.416" height="2.584"/>
		<rect x="446.504" y="197.219" fill="#645268" width="6.416" height="2.584"/>
	</g>
	<ellipse fill="#FCFAFC" cx="449.557" cy="174.664" rx="0.495" ry="0.5"/>
</g>
<g>
	<path fill="#CED6DD" d="M457.208,196.122c0,0,11.278,8.325,21.842,0l-2.506,22.381c0,0-9.667,4.655-16.562-0.716L457.208,196.122z"
		/>
	<path fill="#929DA5" d="M457.208,196.122c0,0,10.741,8.325,21.842,0C479.05,196.122,467.594,185.379,457.208,196.122z"/>
	<path fill="#E4EDF6" d="M457.208,196.122c0,0,10.113,8.325,21.842,0l-0.207,1.85c0,0-10.821,8.362-21.397,0L457.208,196.122z"/>
	<path fill="#B9C1C6" d="M476.544,218.503c0,0-8.952,4.633-16.562-0.716l-0.213-1.666c0,0,8.58,5.36,17.042,0L476.544,218.503z"/>
	<path fill="#B9C1C6" d="M470.11,201.51c0,0,2.409-0.208,5.551-1.688l-0.983,17.432c0,0-2.675,1.153-4.567,0.989V201.51z"/>
	<path fill="#B797B7" d="M458.483,196.929c0,0,3.349,1.939,4.494,1.977c0,0,1.741-1.643,0-2.783s-3.198-1.345-3.209-0.538
		C459.758,196.392,457.941,194.758,458.483,196.929z"/>
	<path fill="#FFFFFF" d="M470.11,199.71c0,0-3.78,0.435-7.133-0.805c0,0-1.741-1.91,1.548-2.246c0,0,2.07-1.532,2.809-0.425
		c0,0,1.501-0.335,1.758,0.66c0,0,1.175-0.94,1.454,0.291C470.546,197.186,471.958,198.598,470.11,199.71z"/>
	<path fill="#76A58C" d="M475.661,198.112c0,0-3.077,1.336-5.551,1.599c0,0-2.137-1.114,0-2.709c0,0,0.123-1.996,1.823-1.169
		c0,0,2.463-1.142,2.552,0.648C474.485,196.481,476.299,195.848,475.661,198.112z"/>
</g>
<g>
	<rect x="444.239" y="156.321" fill="#509350" width="11.625" height="13.75"/>
	<polygon fill="#75AA75" points="444.239,156.321 455.864,156.321 449.989,144.195 439.864,144.195 	"/>
	<polygon fill="#3F6B3F" points="439.864,144.195 439.864,166.321 444.239,170.071 444.239,156.321 	"/>
	<rect x="449.572" y="156.321" fill="#3F6B3F" width="0.479" height="13.75"/>
	<polygon fill="#3F6B3F" points="449.572,156.321 450.052,156.321 445.113,144.195 444.738,144.195 	"/>
	<rect x="445.281" y="159.489" fill="#FFFFFF" width="3.5" height="7.582"/>
	<rect x="450.823" y="159.405" fill="#FFFFFF" width="3.5" height="7.584"/>
	<polygon fill="#C66959" points="442.933,152.701 442.933,146.861 444.239,146.861 444.239,156.321 	"/>
	<polygon fill="#873D38" points="442.933,146.861 442.933,152.701 440.826,146.861 	"/>
	<polygon fill="#FCE7E6" points="444.239,146.861 447.031,146.861 448.072,146.861 447.031,156.321 444.239,156.321 	"/>
	<polygon fill="#873D38" points="447.864,148.752 449.812,148.752 451.969,156.321 450.052,156.321 447.674,150.483 	"/>
	<polygon fill="#C66959" points="449.812,148.752 451.969,156.321 450.823,156.321 448.863,148.752 	"/>
	<polygon fill="#677F57" points="446.199,146.861 445.377,144.842 450.864,144.652 454.01,156.321 451.969,156.321 449.812,148.752 
		447.863,148.752 448.031,146.943 	"/>
	<polygon fill="#779B5F" points="449.474,144.699 450.864,144.652 454.01,156.321 452.486,156.321 	"/>
</g>
<g>
	<path fill="#474040" d="M300,87.071c0,0-7.625,17.625,0,26.375h29.25c0,0-6.125-15.125,0.5-30.125L300,87.071z"/>
	<path fill="#FCFCFC" d="M300,87.071l29.75-3.75c0,0-8.25,17.75,2.5,28l-30.956,1C301.294,112.321,293.25,103.571,300,87.071z"/>
	<ellipse fill="#EE2C24" cx="312.875" cy="85.758" rx="1.125" ry="1.312"/>
	<path fill="#CEC8C8" d="M302,90.667l20.5-2.972c0,0-2,6.75,0,8.75L302,97.821C302,97.821,300.585,94.695,302,90.667z"/>
	<polygon fill="#EE2C24" points="303.25,96.862 304.208,94.362 308.583,94.362 311.542,90.862 317,91.612 319.083,88.862 
		317.208,91.945 311.75,91.362 308.708,94.82 304.5,94.862 	"/>
	<g>
		<polygon fill="#4C4848" points="304.875,100.539 320.416,99.112 320.416,99.529 304.875,100.821 		"/>
		<polygon fill="#4C4848" points="304.595,102.248 320.137,100.821 320.137,101.238 304.595,102.529 		"/>
		<polygon fill="#4C4848" points="304.595,104.168 320.137,102.741 320.137,103.158 304.595,104.449 		"/>
		<polygon fill="#4C4848" points="304.387,105.877 319.928,104.449 319.928,104.866 304.387,106.158 		"/>
	</g>
</g>
</svg>
