<?xml version="1.0" encoding="utf-8"?>
<!-- Generator: Adobe Illustrator 16.0.0, SVG Export Plug-In . SVG Version: 6.00 Build 0)  -->
<!DOCTYPE svg PUBLIC "-//W3C//DTD SVG 1.1//EN" "http://www.w3.org/Graphics/SVG/1.1/DTD/svg11.dtd">
<svg version="1.1" id="Layer_1" xmlns="http://www.w3.org/2000/svg" xmlns:xlink="http://www.w3.org/1999/xlink" x="0px" y="0px"
	 width="684px" height="296.64px" viewBox="0 0 684 296.64" enable-background="new 0 0 684 296.64" xml:space="preserve">
<rect fill="#A7C5C5" width="684" height="296.64"/>
<g>
	<polygon fill="#544039" points="412.791,135.261 421.335,135.261 440.661,186.322 440.661,262.202 412.791,262.202 	"/>
	<polygon fill="#615849" points="421.063,135.397 423.505,134.854 445.682,185.984 445.816,262.475 439.646,262.475 
		440.527,186.527 	"/>
	<polygon fill="#468C45" points="430.082,149.501 454.494,149.501 454.494,147.568 449.611,137.906 425.403,138.516 	"/>
	<polygon fill="#F8EF65" points="477.177,137.906 449.611,137.906 454.494,147.568 454.494,149.501 482.364,149.501 
		482.364,147.467 	"/>
	<polygon fill="#407EBE" points="497.113,137.906 503.521,147.772 503.521,149.501 482.364,149.501 482.364,147.467 
		477.177,137.906 	"/>
	<polygon fill="#346734" points="429.065,147.772 454.188,147.772 452.969,145.534 428.252,145.534 	"/>
	<polygon fill="#346734" points="427.336,143.602 452.256,143.602 450.832,141.262 426.319,141.262 	"/>
	<polygon fill="#346734" points="450.324,139.94 425.912,139.94 424.793,138.109 449.51,138.109 	"/>
	<rect x="454.291" y="147.976" fill="#FFDA8C" width="27.768" height="1.424"/>
	<polygon fill="#FFDA8C" points="453.273,145.331 452.562,143.805 479.923,143.805 480.432,145.331 	"/>
	<polygon fill="#FFDA8C" points="451.138,141.364 450.324,140.144 477.787,140.144 478.397,141.364 	"/>
	<polygon fill="#336699" points="482.567,147.67 503.317,147.67 501.894,145.534 481.347,145.534 	"/>
	<polygon fill="#336699" points="479.923,143.602 500.571,143.602 498.943,141.059 479.109,141.059 	"/>
	<polygon fill="#336699" points="477.889,139.533 498.028,139.533 496.706,137.397 477.177,137.397 	"/>
	<polygon fill="#FFFFFF" points="430.22,149.637 504.404,149.501 504.404,155.332 432.458,155.332 	"/>
	<polygon fill="#989898" points="432.523,155.4 504.437,155.4 511.963,169.438 438.524,169.438 	"/>
	<polygon fill="#B8453D" points="467.209,169.438 441.271,169.438 439.644,159.266 463.953,159.266 	"/>
	<polygon fill="#6EC497" points="468.022,158.554 484.297,158.554 488.365,169.438 471.074,169.438 	"/>
	<polygon fill="#F79768" points="491.926,169.438 487.653,157.537 503.623,157.537 509.014,169.438 	"/>
	<polygon fill="#38AC73" points="467.768,158.809 467.209,160.232 469.955,169.438 471.074,169.438 	"/>
	<polygon fill="#DC8754" points="487.826,158.02 487.094,159.825 490.654,169.438 491.926,169.438 	"/>
	<polygon fill="#822F2C" points="439.749,159.926 439.033,161.249 440.355,169.438 441.271,169.438 	"/>
	<polygon fill="#FFFFFF" points="438.524,169.438 515.727,169.438 515.727,175.846 441.271,175.846 	"/>
	<polygon fill="#544039" points="441.271,175.846 445.849,186.017 445.849,193.85 511.048,194.154 517.253,223.448 521.626,223.448 
		518.575,228.127 511.76,228.127 518.88,255.591 522.847,255.591 522.847,189.78 515.727,175.846 	"/>
	<polygon fill="#43342E" points="497.927,175.846 498.334,194.095 445.849,193.85 445.849,185.61 441.271,175.846 	"/>
	<polygon fill="#989898" points="445.849,193.85 511.048,194.154 517.253,223.448 521.626,223.448 518.575,228.127 445.849,228.127 
			"/>
	<polygon fill="#F79768" points="445.543,222.635 458.767,222.635 454.799,197.002 445.543,197.002 	"/>
	<polygon fill="#CFE295" points="460.292,197.002 482.059,197.409 485.822,223.347 464.36,223.347 	"/>
	<polygon fill="#774343" points="488.467,197.002 508.302,197.002 514.506,223.347 492.942,223.347 	"/>
	<polygon fill="#FCF9CE" points="491.315,198.935 506.166,198.935 512.472,223.347 495.282,223.347 	"/>
	<polygon fill="#70C16C" points="459.986,196.596 464.259,223.144 462.631,221.923 458.868,196.596 	"/>
	<polygon fill="#676767" points="445.645,228.127 511.76,228.127 518.88,255.591 445.645,255.591 	"/>
	<polygon fill="#774343" points="491.111,231.179 509.318,231.179 515.422,255.591 495.485,255.591 	"/>
	<polygon fill="#774343" points="491.417,231.28 489.993,232.807 493.756,255.591 495.791,255.591 	"/>
	<polygon fill="#CCCC99" points="468.124,255.591 491.01,255.591 487.145,231.382 466.191,231.382 	"/>
	<polygon fill="#BFBE7E" points="465.887,231.586 464.157,232.807 465.887,255.591 468.022,255.591 	"/>
	<polygon fill="#9A6766" points="445.746,232.196 461.309,232.196 463.852,255.591 445.746,255.591 	"/>
	<polygon fill="#989898" points="445.543,255.591 445.543,260.27 520.304,260.27 522.847,255.591 	"/>
	<polygon fill="#615849" points="495.791,260.27 528.746,262.304 529.561,189.577 500.571,136.075 494.57,136.075 494.57,137.092 
		496.909,137.193 503.521,147.874 503.317,149.399 504.335,149.501 504.437,155.4 511.963,169.438 515.727,169.438 515.727,175.846 
		522.847,189.78 522.847,255.591 520.406,260.168 	"/>
	<polygon fill="#615849" points="494.57,137.092 425.099,138.211 424.284,137.092 494.57,136.075 	"/>
</g>
<g>
	<polygon fill="#A5AE82" points="378.932,106.667 386.935,100.835 385.171,125.518 378.118,128.773 	"/>
	<polygon fill="#B2BD97" points="377.983,128.502 378.797,106.803 387.205,100.835 336.754,102.191 327.125,105.175 
		327.125,127.688 	"/>
	<rect x="329.16" y="107.209" fill="#333333" width="47.467" height="19.123"/>
	<polygon fill="#A7AA6B" points="356.19,128.638 362.658,128.638 362.658,135.961 376.085,135.961 376.384,139.88 375.271,140.843 
		326.448,137.86 335.941,134.741 356.19,135.69 	"/>
	<polygon fill="#909358" points="326.312,137.452 350.316,139.215 335.941,161.854 309.902,161.051 	"/>
	<polygon fill="#AFB68F" points="336.077,161.854 350.452,139.351 375.136,140.707 361.709,163.492 	"/>
	<polygon fill="#903630" points="341.501,159.423 341.501,157.66 352.351,141.656 367.812,142.741 370.253,144.233 358.997,160.237 
			"/>
	<polygon fill="#B8453D" points="341.196,157.219 347.909,157.219 350.909,153.201 344.501,153.201 	"/>
	<polygon fill="#B8453D" points="350.96,157.931 357.063,157.931 360.623,153.506 353.961,153.506 	"/>
	<polygon fill="#B8453D" points="356.19,150.912 362.302,150.912 365.506,146.539 359.098,146.539 	"/>
	<polygon fill="#B8453D" points="346.078,150.912 352.334,150.912 355.741,146.335 349.384,146.081 	"/>
	<polygon fill="#B8453D" points="360.369,144.504 361.996,142.47 368.15,142.775 367.184,144.504 	"/>
	<polygon fill="#B8453D" points="351.011,143.996 357.165,143.996 358.64,142.317 352.334,141.911 	"/>
	<polygon fill="#903630" points="316.276,158.609 316.276,156.846 327.125,140.843 342.586,141.928 345.027,143.42 333.771,159.423 
			"/>
	<polygon fill="#B8453D" points="315.97,156.405 322.684,156.405 325.684,152.388 319.276,152.388 	"/>
	<polygon fill="#B8453D" points="325.735,157.117 331.838,157.117 335.398,152.692 328.735,152.692 	"/>
	<polygon fill="#B8453D" points="330.965,150.099 337.076,150.099 340.28,145.725 333.872,145.725 	"/>
	<polygon fill="#B8453D" points="320.853,150.099 327.108,150.099 330.516,145.521 324.158,145.267 	"/>
	<polygon fill="#B8453D" points="335.144,143.69 336.771,141.656 342.925,141.961 341.958,143.69 	"/>
	<polygon fill="#B8453D" points="325.786,143.182 331.939,143.182 333.415,141.504 327.108,141.097 	"/>
	<polygon fill="#333333" points="377.305,133.112 399.58,133.112 399.58,160.575 379.848,160.575 	"/>
	<rect x="379.645" y="134.333" width="18.105" height="6.001"/>
	<rect x="380.152" y="142.368" fill="#FFCD33" width="17.699" height="2.747"/>
	<polygon fill="#676767" points="377.508,133.214 379.848,160.575 399.58,160.575 399.479,162.406 399.479,163.729 379.034,163.729 
		375.982,136.266 	"/>
	<rect x="385.544" y="163.729" fill="#515252" width="6.306" height="6.207"/>
	<path fill="#953838" d="M402.259,154.134c0,0,0.271-3.798,5.696-4.476c0,0,12.75-1.085,13.291,3.255l-1.577,17.224h-15.597
		l-0.186-3.119L402.259,154.134z"/>
	<path fill="#953838" d="M402.531,154.404v1.764c0,0-3.662-0.407,0,5.967l0.812,0.58l0.586,3.896c0,0-4.382-0.679-5.195-6.104
		C398.733,160.508,396.428,152.37,402.531,154.404z"/>
	<polygon fill="#574E39" points="433.181,170.272 214.56,168.103 217.001,176.512 433.181,177.596 	"/>
	<polygon fill="#9C926B" points="229.461,176.574 417.449,177.325 417.449,262.225 122.88,262.225 122.88,211.713 229.41,211.909 	
		"/>
	<polygon fill="#574E39" points="229.41,207.501 229.41,211.909 115.489,211.704 114.133,206.754 	"/>
	<polygon fill="#808958" points="361.709,163.492 361.709,169.562 379.645,169.8 379.034,163.729 376.384,139.724 375.136,140.707 	
		"/>
	<polygon fill="#A7AA6B" points="361.709,163.492 336.077,161.854 309.902,161.051 309.902,169.049 361.709,169.562 	"/>
	<rect x="383.271" y="163.729" fill="#333333" width="2.272" height="6.071"/>
	<path fill="#682327" d="M405.887,152.285c0,0,5.137-2.746,12.104,0c0,0-6.612,1.831-12.104,0.204"/>
</g>
<g>
	<path fill="#634D25" d="M445.849-9.926c0,0-33.249,21.544-94.824,27.396l-48.275,6.916c0,0-33.251,9.073-51.601,9.575
		c0,0-113.31,29.258-146.292,10.107c0,0,20.508,8.906,59.847,2.128l86.445-15.694c0,0,33.696-2.227,51.301-8.778
		c0,0,106.425-18.767,120.915-25.402c0.197-0.09,0.378-0.179,0.541-0.265c12.102-6.384,14.097-7.979,14.097-7.979l7.847,1.463
		V-9.926z"/>
	<polygon fill="#CB8167" points="302.449,18.002 421.681,-1.148 421.681,60.294 302.749,69.071 	"/>
	<polygon fill="#CB8167" points="164.704,46.197 166.299,80.243 251.148,76.253 251.148,31.302 	"/>
	<polygon fill="#E0E0E0" points="188.642,51.25 215.506,44.069 212.581,62.421 231.731,58.432 201.941,73.593 178.8,66.146 
		195.292,65.879 	"/>
	<polygon fill="#E0E0E0" points="342.846,26.514 374.299,17.47 370.574,39.547 393.184,35.291 358.074,53.378 329.613,44.866 
		348.764,43.271 	"/>
</g>
</svg>
