<?xml version="1.0" encoding="utf-8"?>
<!-- Generator: Adobe Illustrator 16.0.0, SVG Export Plug-In . SVG Version: 6.00 Build 0)  -->
<!DOCTYPE svg PUBLIC "-//W3C//DTD SVG 1.1//EN" "http://www.w3.org/Graphics/SVG/1.1/DTD/svg11.dtd">
<svg version="1.1" id="Layer_1" xmlns="http://www.w3.org/2000/svg" xmlns:xlink="http://www.w3.org/1999/xlink" x="0px" y="0px"
	 width="684px" height="296.641px" viewBox="0 0 684 296.641" enable-background="new 0 0 684 296.641" xml:space="preserve">
<rect x="-103.501" y="-99.847" fill="#A7C5C5" enable-background="new    " width="857.333" height="481.333"/>
<g>
	<path fill="#CE9D7D" d="M143.598,169.076c0,0-2.073-6.187-5.75-1.05c0,0,0.29,4.792-0.868,6.168c0,0-1.64,4.267,0.355,6.811
		c0,0,6.53,6.743,8.873,6.676c0,0,1.104-1.928-1.236-4.267c0,0-1.169-3.646-0.344-5.022c0,0,1.238-0.688,0.894,3.647
		c0,0-0.206,2.888,1.583,1.236c0,0,1.439-5.643-0.897-9.494C146.209,173.781,144.048,170.094,143.598,169.076z"/>
	<path fill="#CE9D7D" d="M196.88,169.076c0,0,2.073-6.187,5.75-1.05c0,0-0.29,4.792,0.868,6.168c0,0,1.64,4.267-0.355,6.811
		c0,0-6.53,6.743-8.873,6.676c0,0-1.104-1.928,1.236-4.267c0,0,1.169-3.646,0.344-5.022c0,0-1.238-0.688-0.894,3.647
		c0,0,0.206,2.888-1.583,1.236c0,0-1.439-5.643,0.897-9.494C194.27,173.781,196.431,170.094,196.88,169.076z"/>
	<path fill="#DEDDDD" d="M140.479,126.787c0,0-3.854,31.963-3.354,37.463h-1.75c0,0,0.25,3.431,1.25,4.276h8.875l0.75-3.776
		l-0.833-0.416c0,0,3.323-34.379,5.1-36.4L140.479,126.787z"/>
	<path fill="#DEDDDD" d="M191.603,130.199c0,0-0.094-7.114,8.491-5.105c0,0,4.323,14.406,3.323,39.073h2.167
		c0,0-0.5,4.139-1.333,4.359h-9.167l0.333-3.109l1.25-0.167C196.667,165.25,193.705,138.231,191.603,130.199z"/>
	<path fill="#5A789B" d="M152.5,162.75c0,0-2.75,5.25,0,10.5l-1.125,102.5c0,0,3.75,2.75,5.875,1.625c0,0,4.375-91.5,7.625-95.625
		l9.875-0.5c0,0,9.875,78.75,7.625,95c0,0,3.125,2.875,6.125-0.625l-0.875-104.5c0,0,1.125-3.125,0.25-8.375H152.5z"/>
	<path fill="#ABB6C4" d="M161,93.375l-11.066,5c0,0-7.492,3-11.088,23.125l11.077,4.25l1.702,6.25c0,0,1.75,1.375,2.75,3
		l-5.75,28.75c0,0,19.471,10.75,44.548,0L189.25,142c0,0-1.375-6,0.25-8.125c0,0,2.846-4.125,3.673-8V124l9.327-2.625L197,103.5
		c0,0-0.779-3.84-3.827-4.356l-14.792-7.271L161,93.375z"/>
	<path fill="#DEDDDD" d="M165.752,92.964l9.079-0.786c0,0-0.644,18.822-4.644,25.26C170.188,117.438,165.38,93.615,165.752,92.964z"
		/>
	<path fill="#EBD3B0" d="M152.75,23.375c0,0-26.435,24.124-6.405,47.438c0,0,10.905,16.063,18.905,16.813V97
		c0,0,5.25,5.5,9.75-1.125V86.75c0,0,7.27,0.041,15.51-13.667C190.51,73.083,208.125,5,152.75,23.375z"/>
	<path fill="#8C6F4D" d="M169.933,45.85c0,0,8.289-9.917,16.206-5.708C186.138,40.142,178.769,37.684,169.933,45.85z"/>
	<path fill="#CC992F" d="M152,9.75c0,0-7.5-11.25-20.75,27.25c0,0-4.25,16,5.5,27.5c0,0-0.667-4.5-0.167-6
		c0,0,3.583,11.333,10.75,15.5c0,0-12.583-35.416,6.417-48.667c0,0,7.417,11,18.417,14.917c0,0-2.25-2.5-2.083-5.5
		c0,0,2.083,6.333,11.5,10.25c0,0,10.917,3.417,7.917,18.917L187.333,74c0,0,10.833-1.667,14.583-12.417
		c0,0,1.083,0.917,1.083,2.917c0,0,20.417-47.75-27.083-62.833C175.917,1.667,159.917-2,152,9.75z"/>
	<path fill="#443119" d="M150.69,55.35c0,0-2.056-3.735,0.61-6.57c0,0,6.291-5.708,11.083,2.792c0,0,0.5,1.869-0.828,4.192
		L150.69,55.35z"/>
	<ellipse fill="#E3E6F0" cx="156.175" cy="54.072" rx="5.625" ry="5.792"/>
	<ellipse fill="#8FA1C4" cx="156.657" cy="54.071" rx="2.273" ry="2.304"/>
	<ellipse fill="#314461" cx="156.188" cy="54.286" rx="1.253" ry="1.27"/>
	<path fill="#372117" d="M183.854,55.35c0,0,2.056-3.735-0.61-6.57c0,0-6.291-5.708-11.083,2.792c0,0-0.5,1.869,0.828,4.192
		L183.854,55.35z"/>
	<ellipse fill="#E3E6F0" cx="178.369" cy="54.072" rx="5.625" ry="5.792"/>
	<ellipse fill="#8FA1C4" cx="175.762" cy="53.638" rx="2.273" ry="2.304"/>
	<ellipse fill="#314461" cx="175.304" cy="54.071" rx="1.253" ry="1.27"/>
	<path fill="#432F2E" d="M161.8,76.455c0,0,11.834,1.583,12.5-4.25C174.3,72.205,175.217,79.872,161.8,76.455z"/>
	<path fill="#806145" d="M165.668,58.705l-3.188,6.75c0,0-0.625,1.938,1.125,1.938h4.875l-4.75-0.813c0,0-0.896-0.5-0.375-1.438
		L165.668,58.705z"/>
	<path fill="#8C6F4D" d="M162.372,43.833c0,0-8.289-9.917-16.206-5.708C146.167,38.125,153.536,35.667,162.372,43.833z"/>
	<path fill="#5A789B" d="M182.469,100.415l-3.625-0.625v-1.375l3.625-0.354L175,86.75c0,0-0.144,23.063-4.813,30.688
		c0,0-5.302-26.354-4.938-29.813l-6.625,11.519l4.483,0.042v0.605l-4.483,1.71c0,0,11.227,14,11.188,18.75"/>
	<path fill="#5A789B" d="M138.846,121.5h-1.721v4.875c0,0,11.196,1.253,13.598,2.313l-0.8-2.938L138.846,121.5z"/>
	<polygon fill="#5A789B" points="193.054,123.958 204.131,120.958 203.506,124.553 193.054,126.708 	"/>
	<path fill="#323232" d="M157.25,277.375v3.125c0,0,2,1.5,0,3.75c0,0-3.25,1.375-3.875,4.375c0,0-5.75,9.542-11.32,3.695
		c-0.06-0.063-0.12-0.129-0.18-0.195c0,0-1.75-4.5,5.125-7.75c0,0,2.083-0.708,2.5-2.25l1.875-6.375
		C151.375,275.75,155.458,277.75,157.25,277.375z"/>
	<path fill="#323232" d="M182.375,276.25l-0.478,4c0,0-2,1.5,0,3.75c0,0,3.25,1.375,3.875,4.375c0,0,5.75,9.542,11.32,3.695
		c0.06-0.063,0.12-0.129,0.18-0.195c0,0,1.75-4.5-5.125-7.75c0,0-2.083-0.708-2.5-2.25l-1.147-6.25
		C188.5,275.625,184.167,276.625,182.375,276.25z"/>
</g>
<g>
	<path fill="#333333" enable-background="new    " d="M330.766,253.071l0.151,17.084c0,0-1.666,3.749-1.083,6.083
		c0,0-7.833,3.083-7.833,9c0,0,4.209,7.583,12.021-4.25c0,0,0.478-3.083,2.895-3.833c0,0,0.667-4.691-0.833-6.721L338,253.071
		H330.766z"/>
	<path fill="#333333" enable-background="new    " d="M366.166,253.238v16.917c0,0,1.666,3.749,1.083,6.083c0,0,7.833,3.083,7.833,9
		c0,0-4.209,7.583-12.021-4.25c0,0-0.478-3.083-2.895-3.833c0,0-0.667-4.691,0.833-6.721l-1.917-17.196H366.166z"/>
	<path fill="#476B8F" d="M331.75,165.988c0,0-1.875,6.708,0,11.458l-0.833,69.875H338c0,0,3.375-61,6-66.625l9.062,0.25
		c0,0,6.438,60.75,5.813,66.375H365v-73.875c0,0,2.258-3.067,1.09-7.444C366.09,166.001,342.5,161.03,331.75,165.988z"/>
	<path fill="#6699CC" d="M341.421,99.221c0,0-19.956,2.021-21.204,23.021l8.918,0.667v7.5c0,0,3.545,6.333,4.939,7
		c0,0-6.606,18.499-7.106,26.333c0,0,22.667,12.5,43.5,0c0,0-3.333-17.5-7.583-25.333c0,0,5.75-5.833,6.083-14.333l9.333-2.167
		c0,0-1.626-21.667-20.229-21.5L341.421,99.221z"/>
	<path fill="#996666" d="M364.913,47.861c0,0,2.503,14.042,5.17,16.126c0,0,3.959-9.792,8.042-8.708c0,0,5.375,10.25-8.208,19
		l-4.084,7.875c0,0,14.5,3.583,18-11.333c0,0-3.487-2.019-4.333-3.75c0,0,4.991-4.698-0.588-17.141c0,0-34.262-14.251-60.336,0.612
		c0,0-3.076,6.903-4.076,11.362c0,0-1.917,7.083,3.917,9.917c0,0-1,6.75-3.25,6.333c0,0,6.871,7.431,14.667,5.08
		c0.167-0.05,0.333-0.104,0.5-0.164l-6-32.833C324.333,50.237,347.159,40.151,364.913,47.861z"/>
	<path fill="#E4CCAB" d="M344,105.487l4.75,14.333l5.084-16.5c0,0,0.583-5.292-0.5-10c0,0,12.499-5.807,17.666-19.319
		c0,0,9.168,4.486,9.334-18.181c0,0-3.5-7.167-10.167,7.833l0.083-14.583c0,0-23.295-11.358-48.439,0.654l2.355,13.43
		c0,0-7.083-13.333-8.083-1.583c0,0-0.834,12.25,8.583,14.917c0,0,11.718,15.992,20.164,17.931c0.113,0.025,0.227,0.049,0.337,0.069
		C345.167,94.487,342.917,99.195,344,105.487z"/>
	<path fill="#336699" d="M314.5,51.767l3.167-3.114c0,0-5.834-34.833,26.333-36.5c0,0,36.833-5.333,34.5,34l3.834,4.5
		C382.334,50.654,345.166,41.631,314.5,51.767z"/>
	<path fill="#5B84AD" d="M320.583,47.487c0,0,29.917-9.25,55.667-0.833c0,0,0.5-32.25-23.833-32.917
		C352.417,13.737,316.417,9.487,320.583,47.487z"/>
	<path fill="#996666" d="M348.249,53.237c0,0,5.251-6,11.251-2C359.5,51.237,355.914,44.487,348.249,53.237z"/>
	<path fill="#996666" d="M342,54.237c0,0-6.667-10.25-12.083-1.917C329.917,52.32,335.75,48.487,342,54.237z"/>
	<path fill="#333333" d="M351.167,60.154c0,0,3.771,4.229,11.75,0"/>
	<path fill="#333333" d="M340.125,60.616c0,0-3.688,5.078-10.958,0H340.125z"/>
	<path fill="#C3AF92" d="M344.167,67.32c0,0-7.751,6.75,1.916,8.667C346.083,75.987,334.501,75.404,344.167,67.32z"/>
	<path fill="#293D52" d="M345.167,94.487c0,0-6.167,3.083-5.167,16.833c0,0,1.25-3.125,3.75-5.375c0,0,4.375,11.75,5,13.875
		c0,0,4.172-13.858,5.25-15.375c0,0,3.75,5.625,3.75,6.875c0,0,2.209-12.75-4.416-18c0,0,0.697,8,0.166,11.031l-4.801,15.302
		L344,105.487C344,105.487,344.016,96.398,345.167,94.487z"/>
	<path fill="#476B8F" enable-background="new    " d="M334.105,101.463c0,0-4.605,27.357-2.355,33.107c0,0,1.5,2,1.333,3.833
		c0,0-5.334,23.333-5.417,25.667c0,0,2.417,1.584,4.083,1.917c0,0,5-24.333,5.417-27.333c0,0-2.434-20.405,1.899-38.905
		C339.066,99.749,335.794,100.713,334.105,101.463z"/>
	<path fill="#476B8F" d="M341.083,109.237c0,0-0.075,51.998-2.242,58.831c0,0,1.992,0.836,6.159,1.086
		c0,0,1.764-50.893,1.299-56.738l-2.549-6.471C343.75,105.945,341.353,108.309,341.083,109.237z"/>
	<path fill="#476B8F" d="M353.062,106.57v62.696c0,0,5.73,0.013,6.98-1.07l-2.938-58.593l-3.12-5.297L353.062,106.57z"/>
	<path fill="#476B8F" enable-background="new    " d="M361.667,100.669c0,0,1.917,28.902,0,37.652c0,0,3.981,26.597,3.648,28.014
		c0,0,3.986-1.01,5.152-2.593c0,0-3.551-20.088-7.468-25.421l3.297-4.639c0,0,2.293-23.272-0.54-31.856L361.667,100.669z"/>
	<path fill="#476B8F" d="M325.444,107.889c0,0-0.281,12.086,0.135,14.753c0,0,1.079,0.163,2.106,0.158c0,0,0.709-17.257,2.292-19.09
		C329.978,103.71,327.702,105.102,325.444,107.889z"/>
	<path fill="#476B8F" d="M370.335,104.7c0,0,2.201,16.692,2.267,18.531l2.422-0.562c0,0,0.009-11.398-1.549-14.416
		C373.475,108.254,371.274,105.226,370.335,104.7z"/>
	<rect x="329.063" y="247.321" fill="#232323" enable-background="new    " width="9.875" height="5.75"/>
	<rect x="356.958" y="247.321" fill="#232323" width="10.125" height="5.917"/>
	<path fill="#E4CCAB" d="M322.168,122.387c0,0-5.773,39.242-3.371,48.025c0,0-2.438,7.885-1.988,11.152c0,0-0.112,4.055,3.717,6.307
		l4.619,3.717c0,0,4.167,3.943,3.151-0.676c0,0-3.604-3.828-2.59-8.223c0,0,0.789-3.041,2.14,0.227c0,0-0.563,9.461,1.689,4.504
		c0,0,1.07-8.334-1.183-11.317c0,0-2.93-4.845-3.942-5.521l4.724-47.674L322.168,122.387z"/>
	<path fill="#E4CCAB" d="M375.911,122.464c0,0,5.989,39.413,3.585,48.196c0,0,2.441,7.885,1.99,11.152c0,0,0.113,4.055-3.717,6.307
		l-4.617,3.717c0,0-4.168,3.943-3.154-0.676c0,0,3.604-3.828,2.59-8.223c0,0-0.787-3.041-2.139,0.227c0,0,0.563,9.461-1.691,4.504
		c0,0-1.068-8.334,1.186-11.317c0,0,2.928-4.845,3.939-5.521l-4.915-46.754L375.911,122.464z"/>
	<path fill="#336699" d="M344.444,12.099c0,0,3.556-3.847,7.098,0"/>
	<path fill="#855050" enable-background="new    " d="M340.875,82.821c0,0,12.625,1.5,15.5-4
		C356.375,78.821,354,82.946,340.875,82.821z"/>
	<path fill="#855050" d="M353.375,75.696c0,0,2,4,5.5,4.25C358.875,79.946,353.875,77.821,353.375,75.696z"/>
</g>
<g>
	<path fill="#CE9D7D" d="M497.773,44.203c0,0-0.648,38.993,19.727,40.618c0,0,20.887-1,29.193-13.625s3.861-25.828,3.771-27.539
		C550.465,43.656,514.172,30.71,497.773,44.203z"/>
	<path fill="#BB8F72" enable-background="new    " d="M522.917,52.488c0,0-11.832,23.878,2.834,18.189
		C525.751,70.677,513.5,74.154,522.917,52.488z"/>
	<path fill="#333333" enable-background="new    " d="M508.977,252.104l0.15,17.084c0,0-1.666,3.749-1.082,6.083
		c0,0-7.834,3.083-7.834,9c0,0,4.209,7.583,12.021-4.25c0,0,0.479-3.083,2.895-3.833c0,0,0.668-4.691-0.832-6.721l1.916-17.363
		H508.977z"/>
	<path fill="#333333" enable-background="new    " d="M544.377,252.271v16.917c0,0,1.666,3.749,1.083,6.083c0,0,7.833,3.083,7.833,9
		c0,0-4.209,7.583-12.021-4.25c0,0-0.478-3.083-2.895-3.833c0,0-0.667-4.691,0.833-6.721l-1.917-17.196H544.377z"/>
	<path fill="#5D6031" enable-background="new    " d="M504.097,161.488c0,0,0.987,9.501,5.864,14.991l-0.834,69.875h7.084
		c0,0,3.375-61,6-66.625l9.062,0.25c0,0,6.438,60.75,5.813,66.375h6.125v-70.865c0,0,6.65-6.479,6.122-15.29
		C549.333,160.198,514.847,156.53,504.097,161.488z"/>
	<rect x="507.273" y="246.354" fill="#232323" enable-background="new    " width="9.875" height="5.75"/>
	<rect x="535.169" y="246.354" fill="#232323" width="10.125" height="5.917"/>
	<path fill="#E4CCAB" d="M499.781,118.387c0,0-5.773,39.242-3.371,48.025c0,0-2.438,7.885-1.988,11.152c0,0-0.111,4.055,3.717,6.307
		l4.619,3.717c0,0,4.168,3.943,3.152-0.676c0,0-3.604-3.828-2.59-8.223c0,0,0.789-3.041,2.139,0.227c0,0-0.563,9.461,1.689,4.504
		c0,0,1.07-8.334-1.182-11.317c0,0-2.93-4.845-3.943-5.521l4.725-47.674L499.781,118.387z"/>
	<path fill="#E4CCAB" d="M553.524,118.464c0,0,5.989,39.413,3.585,48.196c0,0,2.441,7.885,1.99,11.152c0,0,0.113,4.055-3.717,6.307
		l-4.617,3.717c0,0-4.168,3.943-3.154-0.676c0,0,3.604-3.828,2.59-8.223c0,0-0.787-3.041-2.139,0.227c0,0,0.563,9.461-1.691,4.504
		c0,0-1.068-8.334,1.186-11.317c0,0,2.928-4.845,3.939-5.521l-4.915-46.754L553.524,118.464z"/>
	<path fill="#48332B" enable-background="new    " d="M504.097,158.909v2.578c0,0,17.402,17.755,45.236-1.289l0.528-3.015
		C549.861,157.184,528.86,169.164,504.097,158.909z"/>
	<rect x="520" y="162.821" fill="#BCA43C" enable-background="new    " width="8.833" height="6.334"/>
	<path fill="#A33D3C" enable-background="new    " d="M516.501,91.987c0,0-2.876,4.771-10.563,6.333c0,0-8.688,7.25-9.25,20.063
		l7.146,1.188c0,0,0.083,7.083-2,12c0,0-3,21.75,1.75,26.917c0,0,24.001,20.999,47.167-2.167c0,0,5.584-11.833-1.083-28.667
		c0,0-2.25-4.417-1.75-7.667l8.916-1.75c0,0-5.368-13.417-5.101-16.917c0,0-5.841-6.083-14.828-9.333H516.501z"/>
	<polygon fill="#CE9D7D" points="522.079,95.099 526.396,108.615 527.244,108.565 532.936,93.562 532.25,88.904 521.583,88.904 	"/>
	<path fill="#411818" enable-background="new    " d="M517.584,93.183v10.637c0,0,2.54-4.324,5.249-6.208
		c0,0,3.916,11.541,3.75,12.791c0,0,5.645-15.896,6.697-16.448c0,0,1.886,4.864,2.053,9.281c0,0,2.161-5.09,1.414-12.753
		l-3.888,2.961l-6.192,14.792l-4.325-13.244L517.584,93.183z"/>
	<path fill="#996666" enable-background="new    " d="M494.909,44.916l0.258,7.071l3.167,18.5c0,0-2.666,9.167,1.667,6.167
		c0,0-3.166,10,3,3.167c0,0-0.5,5.833,2.333,4.5c0,0-3.333,10.167,3.167,3.333c0,0-2.666,13.333,3.5,4.333c0,0,1.834,5,4.5,0
		c0,0,5.246,6.834,7.623,0.667c0,0,3.877,12,7.71-1.333c0,0,2.5,7.667,4.5-1.5c0,0,7.834,13.333,5.667-4.667
		c0,0,5.832,3.5,3.666-3.667c0,0,6.667,7,2.667-5.5c0,0,5.833,7.5,2.333-5.667c0,0,5.58-18.989,4.684-25.938l-9.851-1.609
		l0.167,21.213c0,0-3.167,8.955-7.204,6.718c-0.208-0.115-0.417-0.259-0.629-0.436c0,0-5.417-2.865-14.25,1.135
		c0,0-9.333-3.5-13,1.667c0,0-5.166-0.333-8.083-6.667c0,0-0.297-14.524-3.337-22.512C499.164,43.892,496.242,40.862,494.909,44.916
		z"/>
	<path fill="#333333" enable-background="new    " d="M517.584,44.071c0,0-7.333-1.083-9.833,4.833
		C507.751,48.904,507.751,38.237,517.584,44.071z"/>
	<path fill="#333333" d="M527.332,41.493c0,0,7.501,1.078,11.085,6.828C538.417,48.321,545.413,40.332,527.332,41.493z"/>
	<path fill="#3C3C3C" enable-background="new    " d="M490.375,46.267l3.167-3.114c0,0-5.834-34.833,26.333-36.5
		c0,0,36.833-5.333,34.5,34l3.834,4.5C558.209,45.154,521.041,36.131,490.375,46.267z"/>
	<path fill="#545454" enable-background="new    " d="M496.458,41.987c0,0,29.917-9.25,55.667-0.833c0,0,0.5-32.25-23.833-32.917
		C528.292,8.237,492.292,3.987,496.458,41.987z"/>
	<path fill="#CE9D7D" enable-background="new    " d="M501.625,62.821c0,0-5-17.125-9-8c0,0-1.125,19.5,9,15.25
		C501.625,70.071,504.625,66.196,501.625,62.821z"/>
	<path fill="#CE9D7D" enable-background="new    " d="M547.625,63.196c0,0,0.75-15.375,9.625-13.5c0,0,4.002,8.875-5.124,20.125
		C552.126,69.821,544,72.821,547.625,63.196z"/>
	<path fill="#333333" d="M517.584,58.155c0,0-4.804-3.685-10.167-1.417C507.417,56.738,512.167,52.905,517.584,58.155z"/>
	<path fill="#333333" d="M529.751,57.155c0,0,4.249-2.25,9.166,0C538.917,57.155,533.335,52.988,529.751,57.155z"/>
	<path fill="#65463F" enable-background="new    " d="M514.084,79.071c0,0,21.499,2.5,23.833-4.333
		C537.917,74.738,531.084,81.405,514.084,79.071z"/>
	<path fill="#3C3C3C" d="M522.375,6.449c0,0,1.371-1.817,3.376-0.039"/>
</g>
</svg>
