<?xml version="1.0" encoding="utf-8"?>
<!-- Generator: Adobe Illustrator 16.0.0, SVG Export Plug-In . SVG Version: 6.00 Build 0)  -->
<!DOCTYPE svg PUBLIC "-//W3C//DTD SVG 1.1//EN" "http://www.w3.org/Graphics/SVG/1.1/DTD/svg11.dtd">
<svg version="1.1" id="Layer_1" xmlns="http://www.w3.org/2000/svg" xmlns:xlink="http://www.w3.org/1999/xlink" x="0px" y="0px"
	 width="684px" height="296.64px" viewBox="0 0 684 296.64" enable-background="new 0 0 684 296.64" xml:space="preserve">
<rect fill="#A7C5C5" width="684" height="296.64"/>
<g>
	<path fill="#161616" d="M153.814,273.866c0,0-6.348,12.011-9.481,13.76c0,0,4.387,1.934,11.279,0.967c0,0,6.579-3.447,7.049-5.483
		c0,0,1.88-4.388-2.82-9.243C159.842,273.866,156.516,269.076,153.814,273.866z"/>
	<path fill="#E2C193" d="M204.997,172.801c0,0,1.466-7.677,6.389-0.798c0,0-0.049,6.302,1.501,8.145c0,0,2.195,5.712-0.475,9.118
		c0,0-8.745,9.028-11.88,8.938c0,0-1.479-2.581,1.654-5.712c0,0,1.565-4.885,0.462-6.725c0,0-1.658-0.922-1.198,4.882
		c0,0,0.275,3.867-2.119,1.655c0,0-1.927-7.554,1.201-12.711C200.532,179.594,204.395,174.164,204.997,172.801z"/>
	<path fill="#E2C193" d="M149.634,179.594c3.128,5.157,1.201,12.711,1.201,12.711c-2.395,2.212-2.119-1.655-2.119-1.655
		c0.46-5.804-1.198-4.882-1.198-4.882c-1.104,1.84,0.462,6.725,0.462,6.725c3.133,3.131,1.654,5.712,1.654,5.712
		c-3.135,0.09-11.88-8.938-11.88-8.938c-2.67-3.406-0.475-9.118-0.475-9.118c1.551-1.843,1.163-8.259,1.163-8.259
		c4.922-6.878,7.698,1.405,7.698,1.405C146.742,174.657,149.634,179.594,149.634,179.594z"/>
	<path fill="#161616" d="M194.645,273.866c0,0,6.348,12.011,9.48,13.76c0,0-4.386,1.934-11.279,0.967c0,0-6.58-3.447-7.049-5.483
		c0,0-1.88-4.388,2.82-9.243C188.617,273.866,191.942,269.076,194.645,273.866z"/>
	<path fill="#A5B4C9" d="M154.101,163.289c0,0-1.308,7.813,1.668,11.104l-1.955,99.474c0,0,2.738-3.76,6.028,0l9.086-93.678
		l10.182-0.157c0,0,9.506,47.506,9.036,94.345c0,0,3.653-4.808,6.629-0.264l-1.41-102.07c0,0,2.783-3.892,0.53-9.465
		C193.896,162.577,168.724,152.029,154.101,163.289z"/>
	<path fill="#BEC9D9" d="M152.322,100.452c0,0-7.95-0.94-8.303,16.096c0,0-6.579,48.876-5.874,55.455c0,0,5.757,1.292,8.106,0.588
		c0,0,3.414-37.127,5.995-37.01l48.514,8.693c0,0,2.239,27.092,4.236,28.526c0,0,3.991-1.032,5.862-0.889
		c0.203,0.016,0.381,0.045,0.526,0.091c1.483,0.47-2.864-50.168-5.214-56.277c0,0,0.275-16.253-7.793-15.587L152.322,100.452z"/>
	<path fill="#D3DDEC" d="M166.108,94.813l-13.786,5.64c0,0-2.82,9.242-3.133,11.905c0,0,6.892,21.305,0,49.659
		c0,0,14.882,6.108,51.852-0.627c0,0-1.253-43.862,1.41-46.996c0,0,0.47-2.82,0-5.639l-4.073-8.616l-14.295-5.444L166.108,94.813z"
		/>
	<path fill="#E2C193" d="M138.915,51.23c0,0-5.821,4.106-0.534,14.21c0,0,5.052,8.459,8.342,4.23c0,0,8.342,19.15,22.91,20.09v3.76
		l-3.524,1.292c0,0-1.41,6.697,7.108,7.284l1.234,8.342l1.175-9.164c0,0,6.579,1.645,8.459-6.58l-4.464-1.527l-0.353-3.407
		c0,0,11.279,0.47,19.738-21.03c0,0,7.754,5.522,11.866-11.279c0,0,2.467-10.339-3.407-8.929l-14.686-27.492l-37.714-5.052
		l-5.757,14.569l-7.754,12.219L138.915,51.23z"/>
	<path fill="#341D17" d="M145.743,60.506c0,0,1.488-7.754,0-14.687c0,0,12.023-9.046,14.49-18.798c0,0,9.282,2.232,13.276-1.175
		h9.164c0,0,2.232,12.454,16.096,17.33l0.47,17.33c0,0,5.287-13.276,8.224-11.984v-2.702c0,0,7.285,2.467,10.574-4.935
		c0,0-4.229,3.172-7.049,0c0,0,2.82-2.937,4.112-1.997c0,0-9.634-4.7-10.809-11.044c0,0,1.645,1.88,4.229,2.115
		c0,0-15.391-18.329-16.918-20.561c0,0-7.049-6.932-19.503,2.35c0,0-3.877,1.41-7.284-2.937c0,0-15.626-5.287-24.203,12.219
		c0,0-2.467,8.929-5.757,10.457c0,0,0.823,0.705,2.938,0.235c0,0-4.582,7.402-6.462,7.52c0,0,3.995-0.118,6.109-0.823
		c0,0,0,4.935-9.047,5.875C128.394,44.292,146.292,54.044,145.743,60.506z"/>
	<path fill="#333333" d="M175.924,44.292c0,0,9.844-4.465,14.465,2.506c0,0,0.705,1.88-1.019,1.88c0,0-10.208-3.212-13.446-1.88
		V44.292z"/>
	<path fill="#333333" d="M166.813,43.979c0,0,1.802,0.784,0,2.664c0,0-10.887-0.471-12.375,2.036
		C154.438,48.678,150.207,41.942,166.813,43.979z"/>
	<ellipse fill="#333333" cx="161.448" cy="54.475" rx="2.781" ry="2.82"/>
	<ellipse fill="#333333" cx="180.873" cy="54.475" rx="2.781" ry="2.82"/>
	<path fill="#A08467" d="M170.807,51.655c0,0-14.138,23.106,2.409,18.015C173.216,69.67,155.925,76.798,170.807,51.655z"/>
	<path fill="#542525" d="M164.765,77.894c0,0,12.388,3.525,18.889-3.838C183.653,74.056,178.146,83.376,164.765,77.894z"/>
</g>
<g>
	<path fill="#161616" d="M324.558,273.866c0,0-6.348,12.012-9.481,13.761c0,0,4.387,1.934,11.279,0.966c0,0,6.579-3.447,7.049-5.483
		c0,0,1.88-4.388-2.82-9.243C330.586,273.866,327.26,269.076,324.558,273.866z"/>
	<path fill="#161616" d="M365.388,273.866c0,0,6.349,12.012,9.482,13.761c0,0-4.388,1.934-11.279,0.966c0,0-6.579-3.447-7.05-5.483
		c0,0-1.88-4.388,2.82-9.243C359.361,273.866,362.687,269.076,365.388,273.866z"/>
	<path fill="#8B6643" d="M376.272,173.314c0,0,2.08-6.207,5.769-1.053c0,0-0.292,4.806,0.869,6.188c0,0,1.646,4.279-0.354,6.831
		c0,0-6.552,6.764-8.901,6.696c0,0-1.106-1.934,1.239-4.278c0,0,1.173-3.66,0.347-5.039c0,0-1.243-0.689-0.897,3.658
		c0,0,0.206,2.897-1.587,1.24c0,0-1.445-5.66,0.898-9.523C373.654,178.034,375.821,174.335,376.272,173.314z"/>
	<path fill="#8B6643" d="M319.475,178.689c2.651,4.37,1.018,10.773,1.018,10.773c-2.029,1.874-1.795-1.402-1.795-1.402
		c0.391-4.919-1.015-4.138-1.015-4.138c-0.936,1.56,0.391,5.699,0.391,5.699c2.655,2.653,1.402,4.841,1.402,4.841
		c-2.657,0.076-10.069-7.575-10.069-7.575c-2.263-2.888-0.402-7.729-0.402-7.729c1.315-1.563,0.985-6.999,0.985-6.999
		c4.173-5.831,6.525,1.19,6.525,1.19C317.024,174.506,319.475,178.689,319.475,178.689z"/>
	<path fill="#7CCECF" d="M324.845,163.29c0,0-1.308,7.813,1.668,11.104l-1.955,99.473c0,0,2.738-3.76,6.028,0l9.085-93.678
		l10.182-0.156c0,0,9.26,47.794,8.79,94.632c0,0,3.899-5.096,6.876-0.552l-1.41-102.069c0,0,2.783-3.892,0.529-9.465
		C364.639,162.578,339.468,152.029,324.845,163.29z"/>
	<path fill="#96D2D2" d="M323.066,100.452c0,0-7.95-0.94-8.303,16.096c0,0-6.579,48.876-5.875,55.455c0,0,5.757,1.292,8.107,0.588
		c0,0,3.414-37.127,5.995-37.01l48.514,8.693c0,0,2.238,27.092,4.236,28.527c0,0,3.99-1.032,5.862-0.889
		c0.203,0.015,0.381,0.044,0.525,0.09c1.483,0.47-2.863-50.168-5.213-56.277c0,0,0.274-16.253-7.794-15.587L323.066,100.452z"/>
	<path fill="#A1DADC" d="M336.852,94.813l-13.785,5.64c0,0-2.82,9.242-3.133,11.905c0,0,6.892,21.305,0,49.659
		c0,0,14.882,6.109,51.852-0.626c0,0-1.253-43.863,1.41-46.997c0,0,0.47-2.82,0-5.639l-4.073-8.616l-14.294-5.444L336.852,94.813z"
		/>
	<path fill="#8B6643" d="M321.076,70.727c0,0,11.866,17.506,19.855,19.386v3.29l-3.055,1.762c0,0,0.646,11.279,12.454,5.169
		c0,0,3.29-3.055,3.349-5.698l-4.348-1.998v-3.701c0,0,7.695-2.585,13.101-11.22c0,0,3.524-4.406,4.816-7.46
		c0,0,9.242-3.554,9.242-15.235c0,0-5.306-8.851-9.535-0.45c0,0-1.895,2.996-3.937,3.192l5.346-23.282l-17.799-8.518l-21.619-3.172
		l-8.577,1.586l-4.641,15.156l2.526,7.46l1.586,8.225c0,0-0.764-8.988-7.519-2.585C312.323,52.634,310.854,70.492,321.076,70.727z"
		/>
	<path fill="#341D17" d="M321.193,69.905l6.291,8.679c0,0-12.341,1.517-16.336-4.08c0,0,3.851-3.634,3.512-7.376
		c0,0-7.8-3.038-3.512-13.201c0,0,4.523-5.522-0.411-13.1c0,0-3.349-25.671,13.217-21.442c0,0,10.868-29.49,45.938,0.118
		c0,0,5.405,3.995,4.876,16.918c0,0,11.279,2.761,1.821,26.376c0,0,2.938,3.642,4.817,2.173c0,0-4.523,15.744-18.975,12.748
		c0,0,4.19-5.854,4.974-8.205c0,0,8.536-2.35,9.085-14.491c0,0-5.718-8.302-9.398-0.078c0,0-2.271,2.742-4.073,2.819
		c0,0-2.585-12.846-2.507-17.467c0,0-27.021-2.506-37.361-12.454c0,0-3.211,24.281-3.368,28.824c0,0-0.705-8.224-5.64-5.482
		c0,0-5.354,9.45,3.795,18.206C317.939,69.391,318.55,70.198,321.193,69.905z"/>
	<path fill="#45321B" d="M327.324,56.054c0,0-1.96-3.561,0.581-6.264c0,0,5.998-5.442,10.566,2.661c0,0,0.477,1.783-0.789,3.998
		L327.324,56.054z"/>
	<ellipse fill="#E3E6EF" cx="332.552" cy="54.836" rx="5.363" ry="5.522"/>
	<ellipse fill="#8FA1C4" cx="333.013" cy="54.835" rx="2.167" ry="2.197"/>
	<ellipse fill="#334562" cx="332.565" cy="55.041" rx="1.195" ry="1.21"/>
	<path fill="#372117" d="M356.869,55.399c0,0,1.961-3.562-0.582-6.264c0,0-5.997-5.442-10.564,2.661c0,0-0.479,1.782,0.789,3.997
		L356.869,55.399z"/>
	<ellipse fill="#E3E6EF" cx="351.641" cy="54.181" rx="5.363" ry="5.522"/>
	<ellipse fill="#8FA1C4" cx="349.154" cy="53.767" rx="2.168" ry="2.197"/>
	<ellipse fill="#334562" cx="348.718" cy="54.18" rx="1.194" ry="1.211"/>
	<path fill="#432F2F" d="M337.656,77.1c0,0,11.283,1.508,11.917-4.053C349.573,73.047,350.447,80.356,337.656,77.1z"/>
	<path fill="#432F2F" d="M340.798,63.343l-3.038,6.436c0,0-0.597,1.847,1.072,1.847h4.648l-4.528-0.775c0,0-0.853-0.477-0.358-1.371
		L340.798,63.343z"/>
	<path fill="#251111" d="M339.932,48.659c0,0-8.791-5.148-14.508-1.312C325.423,47.348,329.063,38.223,339.932,48.659z"/>
	<path fill="#251111" d="M344.613,47.348c0,0,12.454-4.074,15.039-0.471C359.652,46.877,355.658,39.908,344.613,47.348z"/>
</g>
<g>
	<path fill="#E2C193" d="M456.909,49.605c0,0-8.592-3.042-2.248,14.738c0,0,3.289,7.597,7.128,3.211c0,0,9.242,20.521,19.973,19.66
		c0,0,17.546,6.345,25.77-20.756c0,0,3.526,4.308,6.972-1.958c0,0,4.934-9.791,4.15-16.448c0,0-6.716-5.853-9.888,7.912
		c0,0,3.76-28.062-1.763-37.285c0,0-27.747-15.665-45.605,0C461.397,18.679,456.103,42.386,456.909,49.605z"/>
	<path fill="#CC992F" d="M461.241,55.964c0,0-3.525-23.186,1.88-25.065V20.559c0,0,23.968,6.032,39.006-0.783
		c0,0,1.174,3.76-0.392,9.085v1.724c0,0,5.796,2.115,5.326,12.845l0.027,12.533h2.01c0,0,0.626-5.719,2.74-6.659
		c0,0,6.894-32.428-11.199-40.965c0,0-29.451-15.665-43.472,15.431c0,0-1.88,21.931,0,26.709l2.115,4.856L461.241,55.964z"/>
	<path fill="#E2C193" d="M514.758,124.146c0,0,5.63,37.045,3.37,45.3c0,0,2.294,7.411,1.87,10.482c0,0,0.106,3.812-3.493,5.928
		l-4.34,3.493c0,0-3.917,3.707-2.965-0.635c0,0,3.387-3.598,2.435-7.729c0,0-0.74-2.858-2.011,0.213c0,0,0.529,8.893-1.59,4.233
		c0,0-1.004-7.833,1.114-10.638c0,0,2.752-4.554,3.703-5.188l-4.619-43.945L514.758,124.146z"/>
	<path fill="#E2C193" d="M465.413,126.289l-4.619,43.945c0.951,0.635,3.702,5.188,3.702,5.188
		c2.119,2.805,1.115,10.638,1.115,10.638c-2.119,4.659-1.59-4.233-1.59-4.233c-1.271-3.071-2.011-0.213-2.011-0.213
		c-0.952,4.131,2.435,7.729,2.435,7.729c0.952,4.342-2.965,0.635-2.965,0.635l-4.34-3.493c-3.6-2.116-3.493-5.928-3.493-5.928
		c-0.425-3.071,1.87-10.482,1.87-10.482c-2.26-8.255,3.373-45.927,3.373-45.927L465.413,126.289z"/>
	<path fill="#7CCECF" d="M467.716,159.771c0,0-0.522,10.703,1.827,12.896l-1.877,98.222c0,0,2.817-2.507,5.167,0l7.833-92.895
		c0,0,7.206,0.313,9.869-0.783c0,0,6.735,73.782,7.205,93.678c0,0,2.664-4.073,5.327,0l-0.627-100.962c0,0,3.289-2.22,0.627-10.156
		C500.404,151.834,468.629,157.918,467.716,159.771z"/>
	<path fill="#161616" d="M503.067,270.89c0,0,6.814,12.141,8.812,13.785c0,0-5.287,4.112-9.869,0c0,0-4.935-2.35-5.757-4.816
		c0,0-0.901-6.658,1.487-8.969C497.74,270.89,500.307,266.115,503.067,270.89z"/>
	<path fill="#161616" d="M467.666,270.89c0,0-6.357,12.141-8.354,13.785c0,0,5.287,4.112,9.869,0c0,0,4.935-2.35,5.757-4.816
		c0,0,0.901-6.658-1.488-8.969C473.449,270.89,470.426,266.115,467.666,270.89z"/>
	<path fill="#A1DADC" d="M454.976,123.167l6.267-21.018c0,0,1.253-3.733,4.699-3.89l12.062-5.796h16.762l14.413,5.953
		c0,0,2.192,0.626,3.133,5.482l5.639,19.269l-9.086,2.663l0.314,32.897c0,0-25.065,6.579-45.116,0l2.507-31.67L454.976,123.167z"/>
	<path fill="#AEE2FA" d="M472.369,101.935c0,0-1.808,13.947,12.684,14.809c0,0,12.258,1.483,15.842-7.404
		c0,0,1.838-10.528-0.267-11.783C500.628,97.557,494.933,108.823,472.369,101.935z"/>
	<path fill="#EBF6F4" d="M481.831,87.86c0,0-10.075,6.806-10.457,11.74c0,0-0.578,5.316,12.268,5.316c0,0,13.237,1.489,17.153-3.603
		c0,0,1.861-9.598-10.534-13.454l0.059,2.782c0,0,8.812,6.403,8.048,8.694c0,0-9.321,8.479-23.811,1.038
		c0,0,4.309-8.772,7.206-9.477L481.831,87.86z"/>
	<path fill="#A7DCDD" d="M492.494,90.974v-0.94c0,0,7.831,4.779,6.97,8.146l-1.645-1.567L492.494,90.974z"/>
	<path fill="#A7DCDD" d="M480.745,90.034c0,0-8.303,7.911-8.459,9.165l1.801,0.313c0,0,5.797-8.616,6.658-8.851V90.034z"/>
	<path fill="#E2C193" d="M479.609,92.463l1.625-1.449l0.527-3.799c0,0,7.881-0.771,8.382,0l0.176,3.427l2.35,1.821
		C492.669,92.463,480.736,92.375,479.609,92.463z"/>
	<path fill="#333333" d="M483.799,39.828c0,0,7.743-7.416,17.096,2.036l-2.214,3.768C498.681,45.631,491.945,37.948,483.799,39.828z
		"/>
	<path fill="#333333" d="M477.846,41.346c0,0-4.726-4.08-11.997,1.195l2.755,3.09C468.604,45.631,473.771,39.889,477.846,41.346z"/>
	<ellipse fill="#333333" cx="474.68" cy="52.096" rx="2.382" ry="2.085"/>
	<ellipse fill="#333333" cx="491.598" cy="52.096" rx="2.382" ry="2.085"/>
	<path fill="#B49A75" d="M481.919,50.01c0,0-15.228,16.17,4.213,13.333C486.132,63.343,464.374,67.869,481.919,50.01z"/>
	<path fill="#543D33" d="M473.93,76.367c0,0,21.03,1.116,23.674-4.289C497.604,72.078,494.079,79.774,473.93,76.367z"/>
</g>
</svg>
