<?xml version="1.0" encoding="utf-8"?>
<!-- Generator: Adobe Illustrator 16.0.0, SVG Export Plug-In . SVG Version: 6.00 Build 0)  -->
<!DOCTYPE svg PUBLIC "-//W3C//DTD SVG 1.1//EN" "http://www.w3.org/Graphics/SVG/1.1/DTD/svg11.dtd">
<svg version="1.1" id="Layer_1" xmlns="http://www.w3.org/2000/svg" xmlns:xlink="http://www.w3.org/1999/xlink" x="0px" y="0px"
	 width="684px" height="296.64px" viewBox="0 0 684 296.64" enable-background="new 0 0 684 296.64" xml:space="preserve">
<rect fill="#A7C5C5" width="684" height="296.64"/>
<g>
	<g>
		<path fill="#E5BC98" d="M537.449,143.362c0,0-4.459,33.468-2.409,40.969c0,0-2.084,6.73-1.7,9.52c0,0-0.097,3.461,3.175,5.38
			l3.943,3.176c0,0,3.558,3.363,2.691-0.579c0,0-3.077-3.266-2.211-7.018c0,0,0.673-2.594,1.826,0.194c0,0-0.48,8.077,1.442,3.843
			c0,0,0.914-7.114-1.009-9.661c0,0-2.5-4.135-3.365-4.712l4.183-40.173L537.449,143.362z"/>
		<path fill="#E5BC98" d="M591.872,142.237c0,0,4.463,33.468,2.412,40.969c0,0,2.082,6.73,1.697,9.52c0,0,0.097,3.463-3.175,5.382
			l-3.942,3.174c0,0-3.558,3.367-2.69-0.579c0,0,3.075-3.266,2.209-7.019c0,0-0.671-2.592-1.823,0.196c0,0,0.479,8.077-1.444,3.843
			c0,0-0.914-7.113,1.011-9.662c0,0,2.499-4.135,3.364-4.711l-3.758-40.235L591.872,142.237z"/>
		<path fill="#EAEAEA" d="M560.038,102.818c0,0-1.688,6.27-13.907,9.646c0,0-4.984,1.285-5.95,6.431l-4.501,34.885h-1.447v6.915
			h9.648l0.119-6.593l-1.025-0.121l2.231-9.706l0.543,21.163c0,0,1.989,4.34,4.401,5.424c0,0,16.999,1.809,30.144,0
			c0,0,4.703-3.979,5.185-6.513c0,0,0.483-12.057,0-14.348l1.187,3.979l-0.783,0.041l0.04,6.632h10.129v-6.673l-1.889-0.078
			l-4.702-35.37c0,0-0.965-5.667-5.788-6.752c0,0-12.182-5.185-14.532-9.946L560.038,102.818z"/>
		<path fill="#C7DFE0" d="M560.44,102.176v7.375l1.062,1.616c0,0-4.237,3.387-3.332,7.125c0,0-4.643-6.671,0.663-16.117H560.44z"/>
		<path fill="#C7DFE0" d="M569.141,101.834c0,0,1.326,7-0.935,10.294c0,0,3.407,0.859,3.045,4.839
			C571.251,116.967,576.195,104.667,569.141,101.834z"/>
		<path fill="#E5BC98" d="M539.701,69.86c0,0-8.359-9.968-6.749,4.179c0,0,3.051,12.058,9,9.487c0,0,6.592,18.165,18.49,18.647
			v7.376l4.481,6.813c0,0,6.449-4.703,4.217-14.53c0,0,7.96,2.109,15.196-18.871c0,0,5.969,4.099,8.562-7.537
			c0,0,4.642-21.825-6.574-4.823l-2.23-27.25l-23.028-2.834l-21.282,3.438l-0.905,12.238l-0.184,9.347L539.701,69.86z"/>
		<path fill="#333333" d="M539.861,71.388l0.401-24.518c0,0,39.471-5.788,42.124,2.412c0,0-2.894,8.521,1.688,14.389l0.803,10.048
			l4.18-8.842c0,0,3.296-19.373,0-30.063c0,0-15.916-14.63-30.226-14.872c0,0,1.207,3.216,1.368,4.1c0,0-8.682-4.261-14.309-4.1
			c0,0,1.849,2.813,0.723,4.743c0,0-11.253-4.912-15.435-4.747c0,0-0.883,7.961,2.092,10.455c0,0-5.709-2.492-5.787-3.858
			c0,0-2.653,19.612,8.76,18.327C536.245,44.861,532.95,61.902,539.861,71.388z"/>
		<path fill="#403E3E" d="M558.108,61.26c0,0-7.717-1.326-10.249,1.809c0,0,2.532-5.185,10.249-3.497V61.26z"/>
		<path fill="#403E3E" d="M565.584,60.134l1.119,2.09c0,0,8.057-1.607,10.348,1.286C577.051,63.51,574.891,58.083,565.584,60.134z"
			/>
		<path fill="#AA9376" d="M561.003,71.388c0,0-2.833,7.676-5.667,9.847c0,0,2.05,4.22,5.667,2.934c0,0-4.457-1.714-4.902-2.612
			C556.101,81.558,560.642,75.367,561.003,71.388z"/>
		<path fill="#434343" d="M550.521,170.985c0,0-1.828,4.236,0.784,7.723l-1.407,95.154h4.271l6.721-89.927l6.722-0.377
			c0,0,6.224,63.668,6.473,90.801l4.106-0.743l-0.978-93.311c0,0,3.955-2.661,3.084-9.44L550.521,170.985z"/>
		<path fill="#181818" d="M578.419,271.138c0,0-1.336-2.529-3.088,0c0,0-4.165,4.683-2.095,6.748c0,0,3.273,3.8,4.48,3.8h6.547
			c0,0-2.844-5.525-4.739-6.643C579.523,275.045,578.982,271.847,578.419,271.138z"/>
		<path fill="#181818" d="M549.941,272.36c0,0,1.336-2.527,3.087,0c0,0,4.161,4.68,2.096,6.75c0,0-3.275,3.799-4.482,3.799h-6.544
			c0,0,2.841-5.524,4.735-6.642C548.837,276.268,549.38,273.069,549.941,272.36z"/>
	</g>
	<path fill="#333333" d="M568.206,69.088c0,0,4.549-2.392,6.479,2.3C574.685,71.388,569.321,70.053,568.206,69.088z"/>
	<path fill="#333333" d="M557.322,69.088c0,0-4.552-2.392-6.481,2.3C550.841,71.388,556.203,70.053,557.322,69.088z"/>
	<path fill="#785F4C" d="M557.322,91.273c0,0,11.814,3.376,17.362-2.893C574.685,88.38,569.619,97.062,557.322,91.273z"/>
</g>
<g>
	<g>
		<path fill="#E5BC98" d="M385.802,171.065c0,0-2.295-6.841-6.361-1.159c0,0,0.32,5.302-0.96,6.823c0,0-1.813,4.717,0.393,7.535
			c0,0,7.225,7.457,9.816,7.38c0,0,1.219-2.132-1.369-4.718c0,0-1.293-4.033-0.379-5.557c0,0,1.369-0.759,0.988,4.036
			c0,0-0.228,3.194,1.75,1.369c0,0,1.594-6.242-0.99-10.503C388.689,176.271,386.297,172.192,385.802,171.065z"/>
		<path fill="#E5BC98" d="M429.981,172.632c0,0,2.291-6.843,6.36-1.16c0,0-0.321,5.301,0.959,6.821c0,0,1.813,4.721-0.395,7.534
			c0,0-7.224,7.458-9.813,7.384c0,0-1.222-2.132,1.366-4.721c0,0,1.293-4.032,0.38-5.554c0,0-1.367-0.762-0.987,4.032
			c0,0,0.228,3.197-1.753,1.37c0,0-1.591-6.239,0.994-10.502C427.093,177.837,429.483,173.758,429.981,172.632z"/>
		<path fill="#E5BC98" d="M413.239,203.353c0,0,4.908,62.063,4.563,65.945c0,0,2.512-1.941,4.111,0l-0.873-66.763
			C421.041,202.535,415.867,200.994,413.239,203.353z"/>
		<path fill="#161616" d="M417.803,269.298c0,0-0.798,3.653-2.397,5.25c0,0-1.369,3.539,2.397,5.709c0,0,5.822,3.425,11.531,1.598
			c0,0-3.767-5.364-5.48-8.676c0,0-1.916-2.169-1.939-3.881C421.914,269.298,420.2,266.673,417.803,269.298z"/>
		<path fill="#E5BC98" d="M401.708,202.744c0,0-4.907,62.063-4.565,65.943c0,0-2.511-1.941-4.108,0l0.871-66.762
			C393.905,201.926,399.08,200.384,401.708,202.744z"/>
		<path fill="#161616" d="M397.143,268.688c0,0,0.8,3.652,2.397,5.25c0,0,1.37,3.539-2.397,5.709c0,0-5.822,3.425-11.528,1.599
			c0,0,3.767-5.366,5.479-8.677c0,0,1.916-2.169,1.941-3.881C393.034,268.688,394.746,266.063,397.143,268.688z"/>
		<path fill="#333333" d="M388.95,163.59c0,0-1.854,30.25,3.396,38.242c0,0,16.326,3.652,32.308,0c0,0,4.85-23.869,1.027-38.242
			C425.681,163.59,395.372,161.42,388.95,163.59z"/>
		<path fill="#D3D5CD" d="M403.428,95.59c0,0-13.099,5.793-15.99,8.414c0,0-9.437,50.186-8.598,59.773l-0.055,8.448h8.196
			c0,0,0.38-44.597,4.489-48.174c0,0,3.653,9.666,3.959,13.775c0,0-7.078,21.616-6.851,25.571c0,0,20.32,10.96,38.206-0.989
			c0,0-5.557-21.156-6.851-24.886c0,0,1.065-12.633,4.111-14.231c0,0,5.097,26.863,5.022,48.934h8.143
			c0,0-4.415-58.894-8.068-68.222c0,0-11.792-5.678-15.142-6.818C414.001,97.186,406.202,94.33,403.428,95.59z"/>
		<path fill="#A8ABA4" d="M410.792,95.575c0,0,5.329,0.457,4.264,11.111c0,0,1.217,2.893,1.977,4.567l-4.565,1.978l2.589,3.044
			c-7.479,16.332-7.384,15.907-8.524,19.056h-1.391c0,0-6.563-16.449-8.22-20.331c0,0,2.228-1.427,2.685-1.883l-3.711-2.397
			c0,0,4.537-11.532,8.704-15.451L410.792,95.575z"/>
		<path fill="#E5BC98" d="M428.948,71.561c0,0-6.393,18.037-14.154,19.863c0,0-9.019,0.8-13.927,0c0,0-9.134-2.397-16.439-19.178
			c0,0-5.821,6.051-9.476-10.845c0,0-0.569-14.155,7.65-2.168c0,0-9.59-34.932,18.721-35.046c0,0,30.594-1.711,27.625,16.896
			c0,0-0.57,14.041-2.281,18.607c0,0,12.784-15.411,13.126-4.68C439.793,55.009,437.511,77.954,428.948,71.561z"/>
		<path fill="#7E4A36" d="M374.269,75.557c0,0,3.302-3.41,4.048-4.788c0,0-8.975-6.514-3.372-15.418c0,0,2.731-4.452,0-7.991
			c0,0-8.21-25.571,11.425-25c0,0,21.004-33.105,50.229,6.507c0,0,2.283,5.593,0.684,9.932c0,0,10.731,7.648,1.828,26.941
			c0,0,3.425,2.74,5.137,2.511c0,0-5.233,15.078-19.283,12.219c0,0,3.244-5.541,3.814-9.08c0,0,5.766,6.336,10.104-10.046
			c0,0,3.425-12.785-4.452-9.474c0,0-4.109,8.619-8.276,8.562c0,0-3.311-10.674-2.227-17.866c0,0-23.858,1.313-37.272-11.758
			c0,0-3.823,22.489-3.538,29.681c0,0-3.082-7.363-6.791-5.479c0,0-6.337,13.128,8.504,17.465c0,0,2.271,5.564,3.961,7.975
			c1.692,2.412,0,0,0,0S377.351,81.436,374.269,75.557z"/>
		<path fill="#FFFFFF" d="M405.573,101.042c0,0-10.144,13.078,0,30.849c0,0,9.935-19.978,4.597-30.849
			C410.17,101.042,408.185,97.288,405.573,101.042z"/>
		<path fill="#E5BC98" d="M403.949,91.779l0.881,10.381c0,0,3.621,2.516,5.823,0l1.697-5.927v-4.636
			C412.351,91.598,407.031,88.824,403.949,91.779z"/>
	</g>
	<path fill="#865050" d="M407.031,50.899c0,0,6.278-7.42,12.33-1.94C419.361,48.958,413.31,47.132,407.031,50.899z"/>
	<path fill="#865050" d="M400.41,50.899c0,0-7.42-7.953-10.845-1.979C389.565,48.92,394.131,46.903,400.41,50.899z"/>
	<path fill="#2B1A19" d="M409.889,60.282c0,0,0.688-4.701,10.777-2.522c0,0-8.025,0.458-8.6,2.522H409.889z"/>
	<path fill="#2B1A19" d="M400.933,60.567c0,0-2.979-5.16-10.24-1.72C390.692,58.848,397.074,57.893,400.933,60.567z"/>
	<path fill="#B18E72" d="M403.035,64.712c0,0-9.817,8.048,1.883,9.247C404.918,73.958,396.015,72.132,403.035,64.712z"/>
	<path fill="#B18E72" d="M397.1,75.957c0,0-0.343,5.707-2.112,8.846C394.987,84.803,397.728,83.205,397.1,75.957z"/>
	<path fill="#705847" d="M396.818,81.521c0,0,17.557,1.227,19.156-2.483l0.417,0.855C416.392,79.894,411.949,84.176,396.818,81.521z
		"/>
	<path fill="#B18E72" d="M414.966,74.301c0,0,0.057,7.135,4.108,10.502c0,0-3.652-4.68-4.108-10.844"/>
</g>
<g>
	<g>
		<path fill="#E5BC98" d="M241.081,46.89c0,0-6.463,0.709-1.948,12.042c0,0,2.922,6.906,5.224,6.109c0,0,1.151,17.178,23.198,20.099
			c0,0,27.98,0.797,28.865-20.719c0,0,3.541,2.744,7.083-10.713c0,0,3.188-10.36-3.63-11.334c0,0-0.443-34.531-22.932-32.938
			c0,0-30.37,1.329-34.885,19.037L241.081,46.89z"/>
		<path fill="#DBDAD9" d="M241.081,46.89V33.609c0,0-3.719-4.074-6.198-4.428c0,0,8.677-5.135,10.979-13.635
			c0,0,11.865-13.282,39.667-7.969c0,0,15.828,6.338,16.025,19.03v16.875c0,0-6.31,0.864-7.372,13.813h-2.855l-0.131-23.11
			c0,0,3.652-17.863-8.699-20.387c0,0-27.603-8.7-35.993,13.879c0,0-4.317,4.982,1.395,26.297l-2.458,0.333
			C245.442,54.307,244.357,46.714,241.081,46.89z"/>
	</g>
	<polygon fill="#676767" points="254.75,37.886 257.654,34.675 266.98,41.096 263.158,42.472 	"/>
	<polygon fill="#676767" points="270.803,39.414 281.352,33.452 285.174,36.433 276.612,40.332 	"/>
	<path fill="#333333" d="M254.75,53.174c0,0,0.611-6.421,6.115-3.516C260.865,49.658,255.896,51.569,254.75,53.174z"/>
	<path fill="#333333" d="M273.555,48.903c0,0,7.185-5.667,8.103,4.271C281.657,53.174,276.612,47.69,273.555,48.903z"/>
	<path fill="#C19E80" d="M267.592,46.294c0,0-11.925,23.239,3.21,17.123C270.803,63.417,252.457,72.132,267.592,46.294z"/>
	<path fill="#C19E80" d="M260.063,68.023c0,0,0.401,5.389-1.892,8.027C258.17,76.05,261.094,74.903,260.063,68.023z"/>
	<path fill="#543D33" d="M260.121,72.714c0,0,17.6,1.1,19.09-2.512c0,0-0.867,5.635-19.296,3.391L260.121,72.714z"/>
	<path fill="#C19E80" d="M277.979,65.529c0,0,0.86,6.736,4.415,10.835C282.393,76.365,278.81,69.686,277.979,65.529z"/>
	<path fill="#E5BC98" d="M243.632,131.406c0,0-4.639,34.809-2.507,42.609c0,0-2.167,7-1.767,9.9c0,0-0.101,3.6,3.301,5.598
		l4.101,3.302c0,0,3.701,3.499,2.799-0.602c0,0-3.2-3.397-2.299-7.3c0,0,0.7-2.698,1.9,0.203c0,0-0.5,8.4,1.5,3.997
		c0,0,0.951-7.399-1.05-10.05c0,0-2.6-4.3-3.499-4.899l4.35-41.783L243.632,131.406z"/>
	<path fill="#E5BC98" d="M294.887,132.956l4.35,41.783c-0.899,0.6-3.499,4.899-3.499,4.899c-2,2.65-1.05,10.05-1.05,10.05
		c1.999,4.403,1.5-3.997,1.5-3.997c1.2-2.901,1.9-0.203,1.9-0.203c0.9,3.902-2.3,7.3-2.3,7.3c-0.901,4.101,2.8,0.602,2.8,0.602
		l4.101-3.302c3.401-1.998,3.301-5.597,3.301-5.597c0.4-2.901-1.767-9.901-1.767-9.901c2.132-7.801-2.507-42.609-2.507-42.609
		L294.887,132.956z"/>
	<path fill="#434343" d="M256.596,155.811c0,0-4.522,3.62-1.693,11.493l1.046,104.678h4.442l6.989-95.363l6.991-0.393
		c0,0,6.473,68.054,6.731,96.273l4.271-0.773l2.935-103.352c0,0,3.211-6.728-0.743-12.689L256.596,155.811z"/>
	<path fill="#181818" d="M285.611,269.148c0,0-1.389-2.63-3.21,0c0,0-4.332,4.87-2.181,7.019c0,0,3.406,3.952,4.66,3.952h6.81
		c0,0-2.958-5.748-4.929-6.908C286.761,273.212,286.197,269.885,285.611,269.148z"/>
	<path fill="#181818" d="M255.993,270.419c0,0,1.389-2.628,3.21,0c0,0,4.328,4.868,2.179,7.021c0,0-3.405,3.95-4.661,3.95h-6.806
		c0,0,2.954-5.745,4.925-6.908C254.844,274.482,255.409,271.157,255.993,270.419z"/>
	<path fill="#996632" d="M267.187,88.491l-14.463,8.026c0,0-4.357,0.917-5.848,10.09c0,0-4.281,18.347-4.586,26.603
		c0,0-2.141,29.66-1.605,35.699h6.421c0,0,3.746-33.406,4.815-41.738c0,0,1.147,19.512,1.548,28.914c0,0,15.25,4.701,38.527,0
		c0,0-0.057-29.984,0.401-29.984c0,0,5.619,27.711,5.963,42.809h6.421c0,0,0.573-23.889-2.064-37.649c0,0-3.784-25.914-5.045-30.157
		c0,0-0.115-2.752-3.899-4.357l-16.516-8.256C277.257,88.491,269.846,87.014,267.187,88.491z"/>
	<path fill="#F1E3AE" d="M262.808,90.921l6.198,42.748l1.797,0.573l11.951-43.003C282.754,91.238,271.385,83.445,262.808,90.921z"/>
	<path fill="#483B26" d="M270.889,91.128l-3.502,2.093c0,0,2.279,4.787,5.977,2.694l0.975-1.849
		C274.338,94.066,271.797,91.185,270.889,91.128z"/>
	<path fill="#E7CE6F" d="M268.218,87.344c0,0-1.964,5.848-0.474,8.255c0,0,2.161-4.472,3.145-4.472c0,0,2.933,0.803,3.965,6.88
		c0,0,6.421-8.853,1.491-9.873C276.345,88.135,270.928,85.624,268.218,87.344z"/>
	<path fill="#E5BC98" d="M268.218,85.143v2.202l2.671,3.784h1.671l3.784-2.993v-3.855C276.345,84.279,272.82,81.909,268.218,85.143z
		"/>
	<path fill="#483B26" d="M270.179,95.94l-2.993,25.498l1.819,12.231l1.797,0.573l3.943-14.189l-3.002-23.664
		C271.744,96.388,270.655,95.38,270.179,95.94z"/>
</g>
<g>
	<g>
		<g>
			<g>
				<path fill="#E5BC98" d="M91.432,141.742c0,0-4.391,32.952-2.373,40.337c0,0-2.051,6.626-1.673,9.372
					c0,0-0.095,3.407,3.125,5.298l3.882,3.126c0,0,3.503,3.313,2.65-0.569c0,0-3.029-3.216-2.177-6.91c0,0,0.662-2.554,1.798,0.191
					c0,0-0.473,7.953,1.419,3.784c0,0,0.9-7.005-0.994-9.513c0,0-2.461-4.07-3.313-4.639l4.118-39.554L91.432,141.742z"/>
				<path fill="#E5BC98" d="M145.015,140.635c0,0,4.394,32.952,2.375,40.337c0,0,2.049,6.626,1.67,9.372c0,0,0.097,3.409-3.125,5.3
					l-3.882,3.124c0,0-3.502,3.315-2.649-0.569c0,0,3.029-3.216,2.176-6.91c0,0-0.661-2.553-1.796,0.191
					c0,0,0.472,7.953-1.421,3.784c0,0-0.9-7.003,0.995-9.513c0,0,2.461-4.07,3.312-4.639l-3.699-39.613L145.015,140.635z"/>
				<path fill="#DCD9CD" d="M113.672,101.825c0,0-1.662,6.172-13.693,9.497c0,0-4.907,1.266-5.858,6.332l-4.432,34.348l-0.348,4.336
					L86.8,178.18l8.186,0.157l1.158-20.552l0.728-5.586l2.197-9.557l0.534,20.836c0,0,1.959,4.273,4.333,5.341
					c0,0,16.737,1.78,29.679,0c0,0,4.63-3.918,5.105-6.411c0,0,0.475-11.872,0-14.128l1.167,3.918l0.507,5.188l0.181,19.937
					l8.532,1.014l-1.331-21.782l-0.507-4.434l-4.63-34.824c0,0-0.95-5.58-5.699-6.648c0,0-11.992-5.105-14.308-9.793
					L113.672,101.825z"/>
				<path fill="#C7C4B9" d="M114.067,101.192v7.262l1.045,1.591c0,0-4.172,3.335-3.281,7.016c0,0-4.571-6.569,0.653-15.868H114.067z
					"/>
				<path fill="#C7C4B9" d="M122.635,100.855c0,0,1.304,6.893-0.922,10.135c0,0,3.355,0.846,2.999,4.764
					C124.711,115.754,129.579,103.645,122.635,100.855z"/>
				<path fill="#E5BC98" d="M93.649,69.375c0,0-8.231-9.814-6.646,4.113c0,0,3.005,11.873,8.862,9.34c0,0,6.491,17.885,18.205,18.36
					v7.262l4.412,6.708c0,0,6.35-4.63,4.153-14.305c0,0,7.835,2.077,14.96-18.58c0,0,5.877,4.036,8.429-7.42
					c0,0,4.571-21.488-6.472-4.749l-2.196-26.83l-22.673-2.791L93.729,43.87l-0.891,12.049l-0.179,9.202L93.649,69.375z"/>
				<path fill="#333333" d="M93.807,70.879l0.395-24.14c0,0,38.861-5.699,41.473,2.375c0,0-2.85,8.389,1.662,14.166l0.79,9.894
					l5.691-8.482c2.473-22.793-4.524-18.405-8.164-30.214c0,0-1.843-9.305-15.93-9.542c0,0-6.053-1.542-5.894-0.672
					c0,0-1.563,1.155-7.104,1.313c0,0-5.163-2.58-6.273-0.68c0,0-1.17,1.278-5.287,1.44c0,0-7.65,0.856-4.722,3.311
					c0,0,12.941,5.308,12.863,3.962c0,0-7.815,7.237-13.064,11.152C90.245,44.761,87.002,61.54,93.807,70.879z"/>
				<path fill="#403E3E" d="M111.772,60.907c0,0-7.598-1.306-10.091,1.781c0,0,2.493-5.105,10.091-3.443V60.907z"/>
				<path fill="#403E3E" d="M119.131,59.799l1.102,2.058c0,0,7.934-1.583,10.189,1.266
					C130.422,63.123,128.295,57.779,119.131,59.799z"/>
				<path fill="#AA9376" d="M114.622,70.879c0,0-2.79,7.558-5.58,9.694c0,0,2.018,4.155,5.58,2.889c0,0-4.387-1.688-4.827-2.572
					C109.795,80.891,114.266,74.796,114.622,70.879z"/>
				<path fill="#434343" d="M104.301,168.939c0,0-1.799,4.171,0.773,7.604l-1.386,93.686h4.205l6.616-88.538l6.618-0.371
					c0,0,6.127,62.685,6.372,89.398l4.043-0.732l-0.961-91.87c0,0,3.893-2.619,3.036-9.294L104.301,168.939z"/>
				<path fill="#181818" d="M131.769,267.547c0,0-1.314-2.49-3.039,0c0,0-4.101,4.609-2.064,6.644c0,0,3.224,3.741,4.411,3.741
					h6.447c0,0-2.8-5.441-4.666-6.54C132.856,271.394,132.323,268.244,131.769,267.547z"/>
				<path fill="#181818" d="M103.731,268.749c0,0,1.315-2.488,3.039,0c0,0,4.097,4.608,2.063,6.646c0,0-3.224,3.74-4.412,3.74
					h-6.443c0,0,2.797-5.439,4.662-6.54C102.643,272.596,103.178,269.448,103.731,268.749z"/>
			</g>
			<path fill="#333333" d="M121.713,68.615c0,0,4.479-2.356,6.379,2.264C128.092,70.879,122.812,69.564,121.713,68.615z"/>
			<path fill="#333333" d="M110.998,68.615c0,0-4.481-2.356-6.38,2.264C104.617,70.879,109.896,69.564,110.998,68.615z"/>
			<path fill="#785F4C" d="M110.998,90.457c0,0,11.632,3.324,17.094-2.848C128.092,87.609,123.104,96.156,110.998,90.457z"/>
		</g>
		<polygon fill="#353635" points="135.171,155.146 135.171,163.236 136.195,163.236 136.195,169.823 136.877,169.823 
			136.877,174.773 134.044,175.797 134.044,176.343 133.566,176.343 133.566,175.83 132.986,175.763 132.986,163.236 
			134.607,163.253 134.607,155.146 		"/>
		<polygon fill="#274072" points="113.804,111.579 117.172,117.782 119.979,117.782 123.372,111.579 124.334,113.034 
			119.979,120.156 117.172,119.682 112.84,112.994 		"/>
		<path fill="#274072" d="M117.843,117.782c0,0,1.026-0.711,1.898,0c0,0,1.464,22.261,4.847,29.502l-2.583,4.689l-4.833-4.275
			C117.172,147.699,117.988,122.147,117.843,117.782z"/>
		<polygon fill="#C7C4B9" points="98.298,112.034 99.074,108.305 106.926,105.466 106.926,109.337 		"/>
		<polygon fill="#C7C4B9" points="138.522,112.034 137.746,108.305 129.286,104.706 129.938,108.37 		"/>
		<path fill="#D1CEC3" stroke="#C6C3B9" stroke-width="0.4" stroke-miterlimit="10" d="M102.158,131.843v7.119
			c0,0,5.606,1.845,9.405-0.76l0.716-7.08L102.158,131.843z"/>
		<path fill="#D1CEC3" stroke="#C6C3B9" stroke-width="0.4" stroke-miterlimit="10" d="M101.577,128.325h10.638
			c0,0,0.651,4.885-2.171,5.21c0,0-4.559,0.868-6.296,0C103.748,133.535,101.468,132.884,101.577,128.325z"/>
		<path fill="#D1CEC3" stroke="#C6C3B9" stroke-width="0.4" stroke-miterlimit="10" d="M135.624,131.541v7.119
			c0,0-5.605,1.845-9.405-0.76l-0.716-7.08L135.624,131.541z"/>
		<path fill="#D1CEC3" stroke="#C6C3B9" stroke-width="0.4" stroke-miterlimit="10" d="M136.206,128.022h-10.638
			c0,0-0.651,4.885,2.171,5.21c0,0,4.559,0.868,6.296,0C134.035,133.233,136.314,132.582,136.206,128.022z"/>
		
			<ellipse fill="#18244D" stroke="#AD7F2C" stroke-width="0.5" stroke-miterlimit="10" cx="130.856" cy="122.3" rx="3.011" ry="2.144"/>
	</g>
	<g>
		<path fill="#18244D" d="M85.62,49.022c0,0,47.76-3.618,51.089-4.052c0,0-20.624-7.67-44.142-3.184L85.62,49.022z"/>
		<path fill="#0A0C11" d="M92.567,41.786l0.724-5.934c0,0,38.642-3.908,48.484,2.967v7.309
			C141.775,46.128,111.671,39.036,92.567,41.786z"/>
		<path fill="#18244D" d="M93.291,35.853l-9.408-13.315c0,0,39.366-4.125,65.555,4.826c0.164,0.056,0.301,0.159,0.441,0.24
			l-8.104,11.723C141.775,39.326,137.288,32.958,93.291,35.853z"/>
		<path fill="#5D6583" d="M83.883,22.538c0,0,25.183-14.184,65.996,5.065C149.879,27.603,127.085,21.235,83.883,22.538z"/>
	</g>
</g>
</svg>
