<?xml version="1.0" encoding="utf-8"?>
<!-- Generator: Adobe Illustrator 16.0.0, SVG Export Plug-In . SVG Version: 6.00 Build 0)  -->
<!DOCTYPE svg PUBLIC "-//W3C//DTD SVG 1.1//EN" "http://www.w3.org/Graphics/SVG/1.1/DTD/svg11.dtd">
<svg version="1.1" id="Layer_1" xmlns="http://www.w3.org/2000/svg" xmlns:xlink="http://www.w3.org/1999/xlink" x="0px" y="0px"
	 width="100px" height="296.641px" viewBox="0 0 100 296.641" enable-background="new 0 0 100 296.641" xml:space="preserve">
<g id="waalk2">
	<path fill="#D4DEEC" d="M40.754,101.445l-10.625,3.75c0,0-2.75,44.374,2.25,60.874c0,0,23.5,3.5,39.5,0c0,0-2-32.999,0-49.999
		c0,0-0.25-7-5.25-9.75l-8-3.125c0,0,0.131,3.672-4.5,4v7.25l-2.375-6.625C51.754,107.82,43.629,107.32,40.754,101.445z"/>
	<g>
		<path fill="#E2C193" d="M31.129,61.82c0,0-8.25-20.875-16.25-6.875l1.916,4.893c0,0,4.584,20.232,14.334,12.982
			c0,0,4.875,12,14.625,19l-2.625,8.375l-2.375,1.25c0,0,3.375,6,11,6.375l2.375,6.625v-7.25c0,0,4.625-0.375,4.5-4l-5-2.5
			l-0.25-5.625c0,0,17.689,2.497,23.25-28.25c0,0,1.396-7.505,1.447-16.188L73.129,28.82l-13.875-2.5l-12.776,1.625
			C46.478,27.945,28.504,38.57,31.129,61.82z"/>
		<path display="none" fill="#542626" d="M49.396,77.057c6.502,7.361,18.891,3.838,18.891,3.838
			C54.9,86.376,49.397,77.057,49.396,77.057z"/>
		<path fill="#333333" d="M55.439,49.979c0,0,1.806,0.784,0,2.664c0,0-10.888-0.473-12.375,2.036
			C43.065,54.679,38.836,47.942,55.439,49.979z"/>
		<path fill="#A08468" d="M60.395,75.67c16.549,5.09,2.408-18.015,2.408-18.015C77.686,82.798,60.395,75.67,60.395,75.67z"/>
		<ellipse fill="#333333" cx="69.502" cy="60.475" rx="2.78" ry="2.82"/>
		<ellipse fill="#333333" cx="50.502" cy="60.475" rx="2.78" ry="2.82"/>
		<path fill="#341D17" d="M49.666,33.25c0,0,16.713-2,21.713,0c0,0,3.25,29.062,18.25,15.531c0,0-5.75-1.531-6.75-5.031
			c0,0,3-0.271,4.5-1.383c0,0-5-3.117-5.917-6.45c0,0,1.416,0.417,2.083,0.083c0,0-10.25-30.5-25.25-20.5
			c0,0-25.666-21-37.666,20.333c0,0-2,6.5-11.5,6.667c0,0,2.667,7.5,6.5,9.167c0,0-1.834,1.245-4.667,0.706c0,0,1,3.628,5.833,7.461
			c0,0-2.333-6.833,2.167-7.333c0,0,9.5-0.333,10.667,11.667c0,0,2.667,0.667,3.667-3l1-10.833
			C34.296,50.333,46.703,47.833,49.666,33.25z"/>
		<path fill="#333333" d="M62.553,50.292c0,0,9.846-4.465,14.467,2.506c0,0,0.705,1.882-1.021,1.882c0,0-10.208-3.214-13.446-1.882
			V50.292L62.553,50.292z"/>
	</g>
	<path fill="#A6B5CA" d="M32.379,166.069c0,0,27,3.5,39.5,0c0,0-1.25,8-2.5,10.75l3.875,37.875c0,0,1.25,10.5-2.75,11.125
		l-38.125,38.625c0,0-1.125-3-4.625-3.625l36.625-40.875l-7.125-37.625c0,0-3.424,1.125-7.587,0c0,0,2.038,89.5,0,96.75
		c0,0-4.288-1.5-5.038,1.25l-7.366-97.727C37.263,182.594,34.062,174.514,32.379,166.069z"/>
	<path fill="#191918" d="M26.168,262.5l-2.109,4.604l4.461,3.449c0,0,0.588-0.551,1.631,1.563c0,0,3.504,5.104,11.193,6.303
		c0,0,3.676,0.188,1.434-2.152c0,0-9.955-8.918-11.075-13.651C31.701,262.615,29.539,257.924,26.168,262.5z"/>
	<g>
		<path fill="#E2C193" d="M58.105,179.897c4.315,4.213,4.338,12.015,4.338,12.015c-1.769,2.735-2.467-1.072-2.467-1.072
			c-1.004-5.736-2.379-4.43-2.379-4.43c-0.609,2.059,2.127,6.395,2.127,6.395c3.814,2.25,3.026,5.119,3.026,5.119
			c-3.013,0.869-13.733-5.689-13.733-5.689c-3.437-2.631-2.736-8.711-2.736-8.711c1.041-2.17-0.938-8.287-0.938-8.287
			c3.049-7.889,7.806-0.561,7.806-0.561C54.07,175.84,58.105,179.897,58.105,179.897z"/>
		<path fill="#BEC9D9" d="M38.573,111.194c0,0-1.565-11.074-11.219-4.458c0,0-3.546,4.271-0.635,8.558
			c0,0,12.478,51.388,19.104,62.068l7.704-2.237c0,0-9.104-24.222-11.604-37.917L38.573,111.194z"/>
	</g>
	<path fill="#191918" d="M44.86,281.071l0.963,4.98l5.636,0.215c0,0,0.157-0.789,2.232,0.324c0,0,5.816,2.119,12.771-1.377
		c0,0,3.104-1.979-0.085-2.584c0,0-13.282-1.479-16.95-4.678C49.433,277.951,44.946,275.391,44.86,281.071z"/>
	<g>
		<path fill="#542727" d="M55.531,80.843c0,0,4.059,1.275,10.447,0.895C65.977,81.737,59.861,91.19,55.531,80.843z"/>
		<path fill="#FFFFFF" d="M55.531,80.843c0,0,4.059,1.275,10.447,0.895C65.977,81.737,60.203,83.305,55.531,80.843z"/>
	</g>
</g>
</svg>
