<?xml version="1.0" encoding="utf-8"?>
<!-- Generator: Adobe Illustrator 16.0.0, SVG Export Plug-In . SVG Version: 6.00 Build 0)  -->
<!DOCTYPE svg PUBLIC "-//W3C//DTD SVG 1.1//EN" "http://www.w3.org/Graphics/SVG/1.1/DTD/svg11.dtd">
<svg version="1.1" id="Layer_1" xmlns="http://www.w3.org/2000/svg" xmlns:xlink="http://www.w3.org/1999/xlink" x="0px" y="0px"
	 width="600px" height="600px" viewBox="0 0 600 600" enable-background="new 0 0 600 600" xml:space="preserve">
<g id="_x31_">
	<path fill="#B3B3B3" d="M49.667,289.667c0,0-0.667-85.666,66.667-159.333l70.417,71.417c0,0-34,35.333-36,87.917H49.667z"/>
	<path fill="#E6E6E6" d="M130,116.667L201.333,187c0,0,45.333-39.333,88.667-35.167v-101.5C290,50.333,200.333,50,130,116.667z"/>
	<path fill="#F2F2F2" d="M310,150.667v-99c0,0,84-4.917,159.5,64.333l-71,71C398.5,187,360.25,151.834,310,150.667z"/>
	<path fill="#808080" d="M413.333,201.333l70.334-71c0,0,62.666,60.333,66.333,159H449C449,289.333,450.666,244,413.333,201.333z"/>
	<path fill="#808080" d="M413.333,399c0,0,35-38.666,36-89.333H550c0,0,1,88.666-66,159.333L413.333,399z"/>
	<path fill="#808080" d="M310.333,449.333c0,0,44.668,1.668,88.334-36.666l70.666,71c0,0-63.333,64.334-159,65V449.333z"/>
	<path fill="#808080" d="M130.5,484l70.25-71.333c0,0,38.75,35.708,89.125,36.333v99.667C289.875,548.667,202.5,550.25,130.5,484z"
		/>
	<path fill="#808080" d="M49.667,309.5H150.5c0,0,1,53.25,36.25,89L116,469C116,469,55.333,415,49.667,309.5z"/>
</g>
<g id="_x32_" display="none">
	<path display="inline" fill="#808080" d="M49.667,289.667c0,0-0.667-85.666,66.667-159.333l70.417,71.417c0,0-34,35.333-36,87.917
		H49.667z"/>
	<path display="inline" fill="#B3B3B3" d="M130,116.667L201.333,187c0,0,45.333-39.333,88.667-35.167v-101.5
		C290,50.333,200.333,50,130,116.667z"/>
	<path display="inline" fill="#E6E6E6" d="M310,150.667v-99c0,0,84-4.917,159.5,64.333l-71,71C398.5,187,360.25,151.834,310,150.667
		z"/>
	<path display="inline" fill="#F2F2F2" d="M413.333,201.333l70.334-71c0,0,62.666,60.333,66.333,159H449
		C449,289.333,450.666,244,413.333,201.333z"/>
	<path display="inline" fill="#808080" d="M413.333,399c0,0,35-38.666,36-89.333H550c0,0,1,88.666-66,159.333L413.333,399z"/>
	<path display="inline" fill="#808080" d="M310.333,449.333c0,0,44.668,1.668,88.334-36.666l70.666,71c0,0-63.333,64.334-159,65
		V449.333z"/>
	<path display="inline" fill="#808080" d="M130.5,484l70.25-71.333c0,0,38.75,35.708,89.125,36.333v99.667
		C289.875,548.667,202.5,550.25,130.5,484z"/>
	<path display="inline" fill="#808080" d="M49.667,309.5H150.5c0,0,1,53.25,36.25,89L116,469C116,469,55.333,415,49.667,309.5z"/>
</g>
<g id="_x33_" display="none">
	<path display="inline" fill="#808080" d="M49.667,289.667c0,0-0.667-85.666,66.667-159.333l70.417,71.417c0,0-34,35.333-36,87.917
		H49.667z"/>
	<path display="inline" fill="#808080" d="M130,116.667L201.333,187c0,0,45.333-39.333,88.667-35.167v-101.5
		C290,50.333,200.333,50,130,116.667z"/>
	<path display="inline" fill="#B3B3B3" d="M310,150.667v-99c0,0,84-4.917,159.5,64.333l-71,71C398.5,187,360.25,151.834,310,150.667
		z"/>
	<path display="inline" fill="#E6E6E6" d="M413.333,201.333l70.334-71c0,0,62.666,60.333,66.333,159H449
		C449,289.333,450.666,244,413.333,201.333z"/>
	<path display="inline" fill="#F2F2F2" d="M413.333,399c0,0,35-38.666,36-89.333H550c0,0,1,88.666-66,159.333L413.333,399z"/>
	<path display="inline" fill="#808080" d="M310.333,449.333c0,0,44.668,1.668,88.334-36.666l70.666,71c0,0-63.333,64.334-159,65
		V449.333z"/>
	<path display="inline" fill="#808080" d="M130.5,484l70.25-71.333c0,0,38.75,35.708,89.125,36.333v99.667
		C289.875,548.667,202.5,550.25,130.5,484z"/>
	<path display="inline" fill="#808080" d="M49.667,309.5H150.5c0,0,1,53.25,36.25,89L116,469C116,469,55.333,415,49.667,309.5z"/>
</g>
<g id="_x34_" display="none">
	<path display="inline" fill="#808080" d="M49.667,289.667c0,0-0.667-85.666,66.667-159.333l70.417,71.417c0,0-34,35.333-36,87.917
		H49.667z"/>
	<path display="inline" fill="#808080" d="M130,116.667L201.333,187c0,0,45.333-39.333,88.667-35.167v-101.5
		C290,50.333,200.333,50,130,116.667z"/>
	<path display="inline" fill="#808080" d="M310,150.667v-99c0,0,84-4.917,159.5,64.333l-71,71C398.5,187,360.25,151.834,310,150.667
		z"/>
	<path display="inline" fill="#808080" d="M413.333,201.333l70.334-71c0,0,62.666,60.333,66.333,159H449
		C449,289.333,450.666,244,413.333,201.333z"/>
	<path display="inline" fill="#E6E6E6" d="M413.333,399c0,0,35-38.666,36-89.333H550c0,0,1,88.666-66,159.333L413.333,399z"/>
	<path display="inline" fill="#F2F2F2" d="M310.333,449.333c0,0,44.668,1.668,88.334-36.666l70.666,71c0,0-63.333,64.334-159,65
		V449.333z"/>
	<path display="inline" fill="#808080" d="M130.5,484l70.25-71.333c0,0,38.75,35.708,89.125,36.333v99.667
		C289.875,548.667,202.5,550.25,130.5,484z"/>
	<path display="inline" fill="#808080" d="M49.667,309.5H150.5c0,0,1,53.25,36.25,89L116,469C116,469,55.333,415,49.667,309.5z"/>
</g>
<g id="_x35_" display="none">
	<path display="inline" fill="#808080" d="M49.667,289.667c0,0-0.667-85.666,66.667-159.333l70.417,71.417c0,0-34,35.333-36,87.917
		H49.667z"/>
	<path display="inline" fill="#808080" d="M130,116.667L201.333,187c0,0,45.333-39.333,88.667-35.167v-101.5
		C290,50.333,200.333,50,130,116.667z"/>
	<path display="inline" fill="#808080" d="M310,150.667v-99c0,0,84-4.917,159.5,64.333l-71,71C398.5,187,360.25,151.834,310,150.667
		z"/>
	<path display="inline" fill="#808080" d="M413.333,201.333l70.334-71c0,0,62.666,60.333,66.333,159H449
		C449,289.333,450.666,244,413.333,201.333z"/>
	<path display="inline" fill="#B3B3B3" d="M413.333,399c0,0,35-38.666,36-89.333H550c0,0,1,88.666-66,159.333L413.333,399z"/>
	<path display="inline" fill="#E6E6E6" d="M310.333,449.333c0,0,44.668,1.668,88.334-36.666l70.666,71c0,0-63.333,64.334-159,65
		V449.333z"/>
	<path display="inline" fill="#F2F2F2" d="M130.5,484l70.25-71.333c0,0,38.75,35.708,89.125,36.333v99.667
		C289.875,548.667,202.5,550.25,130.5,484z"/>
	<path display="inline" fill="#808080" d="M49.667,309.5H150.5c0,0,1,53.25,36.25,89L116,469C116,469,55.333,415,49.667,309.5z"/>
</g>
<g id="_x36_" display="none">
	<path display="inline" fill="#808080" d="M49.667,289.667c0,0-0.667-85.666,66.667-159.333l70.417,71.417c0,0-34,35.333-36,87.917
		H49.667z"/>
	<path display="inline" fill="#808080" d="M130,116.667L201.333,187c0,0,45.333-39.333,88.667-35.167v-101.5
		C290,50.333,200.333,50,130,116.667z"/>
	<path display="inline" fill="#808080" d="M310,150.667v-99c0,0,84-4.917,159.5,64.333l-71,71C398.5,187,360.25,151.834,310,150.667
		z"/>
	<path display="inline" fill="#808080" d="M413.333,201.333l70.334-71c0,0,62.666,60.333,66.333,159H449
		C449,289.333,450.666,244,413.333,201.333z"/>
	<path display="inline" fill="#808080" d="M413.333,399c0,0,35-38.666,36-89.333H550c0,0,1,88.666-66,159.333L413.333,399z"/>
	<path display="inline" fill="#B3B3B3" d="M310.333,449.333c0,0,44.668,1.668,88.334-36.666l70.666,71c0,0-63.333,64.334-159,65
		V449.333z"/>
	<path display="inline" fill="#E6E6E6" d="M130.5,484l70.25-71.333c0,0,38.75,35.708,89.125,36.333v99.667
		C289.875,548.667,202.5,550.25,130.5,484z"/>
	<path display="inline" fill="#F2F2F2" d="M49.667,309.5H150.5c0,0,1,53.25,36.25,89L116,469C116,469,55.333,415,49.667,309.5z"/>
</g>
<g id="_x37_" display="none">
	<path display="inline" fill="#F2F2F2" d="M49.667,289.667c0,0-0.667-85.666,66.667-159.333l70.417,71.417c0,0-34,35.333-36,87.917
		H49.667z"/>
	<path display="inline" fill="#808080" d="M130,116.667L201.333,187c0,0,45.333-39.333,88.667-35.167v-101.5
		C290,50.333,200.333,50,130,116.667z"/>
	<path display="inline" fill="#808080" d="M310,150.667v-99c0,0,84-4.917,159.5,64.333l-71,71C398.5,187,360.25,151.834,310,150.667
		z"/>
	<path display="inline" fill="#808080" d="M413.333,201.333l70.334-71c0,0,62.666,60.333,66.333,159H449
		C449,289.333,450.666,244,413.333,201.333z"/>
	<path display="inline" fill="#808080" d="M413.333,399c0,0,35-38.666,36-89.333H550c0,0,1,88.666-66,159.333L413.333,399z"/>
	<path display="inline" fill="#808080" d="M310.333,449.333c0,0,44.668,1.668,88.334-36.666l70.666,71c0,0-63.333,64.334-159,65
		V449.333z"/>
	<path display="inline" fill="#B3B3B3" d="M130.5,484l70.25-71.333c0,0,38.75,35.708,89.125,36.333v99.667
		C289.875,548.667,202.5,550.25,130.5,484z"/>
	<path display="inline" fill="#E6E6E6" d="M49.667,309.5H150.5c0,0,1,53.25,36.25,89L116,469C116,469,55.333,415,49.667,309.5z"/>
</g>
<g id="_x38_" display="none">
	<path display="inline" fill="#E6E6E6" d="M49.667,289.667c0,0-0.667-85.666,66.667-159.333l70.417,71.417c0,0-34,35.333-36,87.917
		H49.667z"/>
	<path display="inline" fill="#F2F2F2" d="M130,116.667L201.333,187c0,0,45.333-39.333,88.667-35.167v-101.5
		C290,50.333,200.333,50,130,116.667z"/>
	<path display="inline" fill="#808080" d="M310,150.667v-99c0,0,84-4.917,159.5,64.333l-71,71C398.5,187,360.25,151.834,310,150.667
		z"/>
	<path display="inline" fill="#808080" d="M413.333,201.333l70.334-71c0,0,62.666,60.333,66.333,159H449
		C449,289.333,450.666,244,413.333,201.333z"/>
	<path display="inline" fill="#808080" d="M413.333,399c0,0,35-38.666,36-89.333H550c0,0,1,88.666-66,159.333L413.333,399z"/>
	<path display="inline" fill="#808080" d="M310.333,449.333c0,0,44.668,1.668,88.334-36.666l70.666,71c0,0-63.333,64.334-159,65
		V449.333z"/>
	<path display="inline" fill="#808080" d="M130.5,484l70.25-71.333c0,0,38.75,35.708,89.125,36.333v99.667
		C289.875,548.667,202.5,550.25,130.5,484z"/>
	<path display="inline" fill="#B3B3B3" d="M49.667,309.5H150.5c0,0,1,53.25,36.25,89L116,469C116,469,55.333,415,49.667,309.5z"/>
</g>
</svg>
