<?xml version="1.0" encoding="utf-8"?>
<!-- Generator: Adobe Illustrator 16.0.0, SVG Export Plug-In . SVG Version: 6.00 Build 0)  -->
<!DOCTYPE svg PUBLIC "-//W3C//DTD SVG 1.1//EN" "http://www.w3.org/Graphics/SVG/1.1/DTD/svg11.dtd">
<svg version="1.1" id="Layer_1" xmlns="http://www.w3.org/2000/svg" xmlns:xlink="http://www.w3.org/1999/xlink" x="0px" y="0px"
	 width="684px" height="296px" viewBox="0 0 684 296" enable-background="new 0 0 684 296" xml:space="preserve">
<rect fill="#A7C5C5" width="684" height="296"/>
<g>
	<path fill="#818268" d="M166.75,180.751c0,0,2.375,0.874,2.625,4.624l0.875,25.375c0,0-2.748,2.381-3.375,2.378L166.75,180.751z"/>
	<path fill="#818268" d="M131.833,180.751c0,0-3.083-0.626-3.208,9.624l-1.065,20.25c0,0,1.891,1.881,3.565,2.503L131.833,180.751z"
		/>
	<path fill="#E2C193" d="M120.511,115.013c0,0-5.937,37.899-3.694,46.104c0,0-1.174,7.361-0.752,10.41c0,0-0.105,3.787,3.473,5.891
		l4.313,3.473c0,0,3.894,3.682,2.945-0.633c0,0-3.366-3.572-2.42-7.678c0,0,0.736-2.838,1.999,0.213c0,0-0.526,8.836,1.577,4.205
		c0,0,1-7.783-1.104-10.57c0,0-2.733-4.525-3.681-5.156l5.022-43.98L120.511,115.013z"/>
	<path fill="#E2C193" d="M170.25,116.607l5.022,43.98c-0.947,0.631-3.681,5.156-3.681,5.156c-2.104,2.787-1.104,10.57-1.104,10.57
		c2.104,4.631,1.577-4.205,1.577-4.205c1.263-3.051,1.999-0.213,1.999-0.213c0.946,4.105-2.42,7.678-2.42,7.678
		c-0.948,4.314,2.945,0.633,2.945,0.633l4.313-3.473c3.578-2.104,3.473-5.891,3.473-5.891c0.422-3.049-0.752-10.41-0.752-10.41
		c2.242-8.205-3.694-46.104-3.694-46.104L170.25,116.607z"/>
	<path fill="#6F7253" d="M131.375,164.599L129.902,270.5c0,0,7.348,4,9.598,3.5l4.958-94.5l8.068-0.5c0,0,7.96,73.086,4.842,95.043
		h11.046L167,164.599C167,164.599,150.001,145.947,131.375,164.599z"/>
	<path fill="#CDC28B" d="M141.322,96.625c0,0-17.946-7.084-22.113,24.042l12.667,0.833l-3.5,42.375c0,0,20,6,43.5-1.125v-41.5
		l7.292-0.333c0,0-2.334-20.084-13.167-22.167l-9-5.25L141.322,96.625z"/>
	<path fill="#3B3E46" d="M130.417,143.833h-2.333c0,0-4.578-42.445,13.336-52.889c0,0,16.748-5.027,23.414,6.556
		s9.167,35.667,6.25,46.333h-1.833c0,0-2.571-43.018-12.119-48.092l-15.926,1.175C141.206,96.917,133.584,91.917,130.417,143.833z"
		/>
	<g>
		<path fill="#7E4937" d="M159.697,86.788c0,0,2.562,2.988,5.462,2.881c0,0-0.645-0.752-0.752-2.148c0,0,1.611-0.945,4.082,0.709
			c0,0-0.859-3.287,0-4.146c0,0,4.511,0.644,5.263,2.041c0,0-3.544-5.156-3.222-6.552c0,0,6.223,0.645,6.603,1.396
			c0,0-4.025-4.189-3.703-5.693c0,0,1.826-0.752,3.008,0c0,0-2.242-3.527-1.622-4.896C174.815,70.379,164.333,69.514,159.697,86.788
			z"/>
		<path fill="#7E4937" d="M129.902,78.987c0,0,1.156,3.593,0,6.708c0,0,1.521-2.394,2.922-2.271c0,0,2.903,2.378,2.581,7.857
			c0,0,5.392-0.51,6.81,0.023C142.214,91.304,137.825,76.898,129.902,78.987z"/>
		<path fill="#E2C193" d="M152.591,92.175c0,0,13.91-8.575,15.683-17.867c0,0,6.391,2.363,8.593-10.688c0,0,1.719-7.841-3.599-7.841
			c0,0-3.92-31.848-28.572-27.874c0,0-12.782,0.591-18.26,9.077c0,0-4.512,15.844-0.806,24.115c0,0-3.545-4.297-5.801-1.504
			c0,0-2.632,5.532,0,9.345c0,0,1.719,8.915,7.52,4.833c0,0,5.979,15.755,17.508,18.404"/>
		<path fill="#7E4937" d="M126.812,65.393c0,0-0.322-11.923,1.719-15.79c0,0,2.255-4.833,0-12.353h6.552
			c0,0,13.427,12.138,31.15,15.36l1.074,13.803h0.645c0,0,1.987-11.654,8.593-9.292c0,0-0.215-1.665,2.686-1.933v-1.611
			c0,0-1.021-0.967-4.243-0.752c0,0,0.322-0.645,3.33-0.994c0,0-2.739-4.699-5.049-5.075c0,0,9.329-22.825-30.129-29.986h-3.58
			c0,0-7.806,6.445-7.734,11.099c0,0-10.957-5.729-9.381,9.524c0,0,0.503,13.247-4.296,15.682c0,0,2.363,0.931,3.438,1.647
			c0,0-2.077,2.004-2.937,2.076c0,0,7.161,2.148,7.448,8.808L126.812,65.393z"/>
		<path fill="#333333" d="M149.154,52.396c0,0,13.534-4.404,12.03,4.404c0,0-7.304-3.007-11.386-2.148L149.154,52.396z"/>
		<path fill="#333333" d="M143.246,52.826c0,0-10.634-3.867-10.419,2.792h1.504c0,0,5.264-2.578,8.915-1.181V52.826z"/>
		<ellipse fill="#333333" cx="154.042" cy="60.506" rx="1.821" ry="1.652"/>
		<ellipse fill="#333333" cx="137.714" cy="60.506" rx="1.821" ry="1.652"/>
		<path fill="#513D2D" d="M141.206,81.792c0,0,11.852,1.074,12.836-3.223l1.187,0.859C155.228,79.429,152.018,84.728,141.206,81.792
			z"/>
		<path fill="#513D2D" d="M152.806,76.493c0,0,0.609,4.131,4.727,3.509C157.533,80.001,155.169,80.324,152.806,76.493z"/>
		<path fill="#E2C193" d="M153.625,91.5c0,0-4.751-1.562-9.263,0.55c0,0-4.039,7.575,4.362,18.45c0,0,4.609-8.5,5.317-13.125
			C154.042,97.375,154.778,93.141,153.625,91.5z"/>
		<path fill="#BBA17A" d="M146.997,60.506c0,0-4.333,9.775-7.5,11.108c0,0-0.333,4.5,7.5,3.833c0,0-4.5-0.833-5.833-3.5
			C141.163,71.947,146.997,66.731,146.997,60.506z"/>
	</g>
	<path fill="#D6D4BB" d="M153.625,91.5c0,0,0.839,7.637-1.099,10.887c0,0,3.099,3.925,3.099,6.425c0,0,4.57-13.568-1.09-17.94
		L153.625,91.5z"/>
	<path fill="#D6D4BB" d="M144.362,92.05c0,0-0.97,8.758,0.097,10.991c0,0-2.146,4.646-2.583,6.833c0,0-1.446-11.962,0.339-17.7
		C142.214,92.175,143.161,91.288,144.362,92.05z"/>
	<path fill="#323232" d="M130.579,270.857v5.518c0,0-12.079,7.75-7.079,11.125c0,0,8,3.625,10.5-6.75c0,0,2.5-2.25,3.75-1.875
		v-4.832C137.75,274.043,134.158,269.965,130.579,270.857z"/>
	<path fill="#323232" d="M160.625,274.043v4.832c0,0,2.875,0.75,3.25,3.5c0,0,3.375,9.875,11.375,4.5c0,0,3.125-2.5-5.625-8.75
		c0,0-1.438-1.063-2.375-1.063l0.063-3.02C167.313,274.043,162.938,272.461,160.625,274.043z"/>
</g>
<g>
	<path fill="#E2C193" d="M264.333,221.667l-1,52c0,0,3-1.667,4.167,0.333l3-52.333C270.5,221.667,267.5,219.5,264.333,221.667z"/>
	<path fill="#171717" d="M263.031,273.495c-0.747,2.689-8.214,12.852-8.214,12.852l8.214-0.006c2.241,0.149,6.124-3.883,6.124-3.883
		c3.735-3.585-1.494-8.963-1.494-8.963C265.182,269.546,263.031,273.495,263.031,273.495z"/>
	<path fill="#E2C193" d="M294.983,221.667l1,52c0,0-3-1.667-4.167,0.333l-3-52.333C288.816,221.667,291.816,219.5,294.983,221.667z"
		/>
	<path fill="#171717" d="M291.655,273.495c0,0-5.229,5.378-1.494,8.963c0,0,3.883,4.032,6.124,3.883l8.214,0.006
		c0,0-7.467-10.162-8.214-12.852C296.286,273.495,294.134,269.546,291.655,273.495z"/>
	<path fill="#363895" d="M261.202,170.061l-2.613,51.606h14.244l5.333-42h2.786l5.714,42H300.5l-2-51.606
		C298.5,170.061,275.218,161.888,261.202,170.061z"/>
	<g>
		<path fill="#E2C193" d="M251.541,120.74c0,0-5.937,37.899-3.694,46.104c0,0-1.174,7.361-0.752,10.41c0,0-0.105,3.787,3.473,5.891
			l4.313,3.473c0,0,3.894,3.682,2.945-0.633c0,0-3.366-3.572-2.42-7.678c0,0,0.736-2.838,1.999,0.213c0,0-0.526,8.836,1.577,4.205
			c0,0,1-7.783-1.104-10.57c0,0-2.733-4.525-3.681-5.156l5.022-43.98L251.541,120.74z"/>
		<path fill="#E2C193" d="M301.28,122.334l5.022,43.98c-0.947,0.631-3.681,5.156-3.681,5.156c-2.104,2.787-1.104,10.57-1.104,10.57
			c2.104,4.631,1.577-4.205,1.577-4.205c1.263-3.051,1.999-0.213,1.999-0.213c0.946,4.105-2.42,7.678-2.42,7.678
			c-0.948,4.314,2.945,0.633,2.945,0.633l4.313-3.473c3.578-2.104,3.473-5.891,3.473-5.891c0.422-3.049-0.752-10.41-0.752-10.41
			c2.242-8.205-3.694-46.104-3.694-46.104L301.28,122.334z"/>
		<path fill="#989898" d="M272.352,102.352c0,0-17.946-7.084-22.113,24.042l12.667,0.833l-3.5,42.375c0,0,20,6,43.5-1.125v-41.5
			l7.292-0.333c0,0-2.334-20.084-13.167-22.167l-9-5.25L272.352,102.352z"/>
		<path fill="#3B3E46" d="M261.447,149.561h-2.333c0,0-4.578-42.445,13.336-52.889c0,0,16.748-5.027,23.414,6.556
			s9.167,35.667,6.25,46.333h-1.833c0,0-2.571-43.018-12.119-48.092l-15.926,1.175C272.235,102.644,264.614,97.644,261.447,149.561z
			"/>
		<path fill="#E2C193" d="M284.429,96.949c0,0-4.429-1.592-8.94,0.52c0,0-4.135,7.884,4.266,18.759c0,0,4.609-8.5,5.317-13.125
			C285.071,103.102,285.582,98.589,284.429,96.949z"/>
		<path fill="#D6D4BB" d="M284.429,96.949c0,0,1.065,7.916-0.873,11.166c0,0,3.099,3.925,3.099,6.425c0,0,4.376-13.661-1.284-18.033
			L284.429,96.949z"/>
		<path fill="#D6D4BB" d="M275.557,97.437c0,0-1.135,9.099-0.068,11.332c0,0-2.146,4.646-2.583,6.833c0,0-1.446-11.962,0.339-17.7
			C273.244,97.902,274.356,96.674,275.557,97.437z"/>
	</g>
	<g>
		<path fill="#A6802D" d="M249.25,45c0,0,6-15.25,6.5-20.75c0,0,1.25-11.459,13.75-7.479c0,0,11.25,3.229,16,1.729
			c0,0,8.5-3.5,13.5,5.5c0,0,7.5,13.25,7,18.75C306,42.75,283.75,61.25,249.25,45z"/>
		<path fill="#E2C193" d="M257.875,80c0,0,15.75,30.5,33.125,12.125c0,0,6.75-4.5,9-12.125c0,0,7.49,3.904,9.5-13.375
			c0,0,2.375-9.75-6.5-2.5l0.25-6.751l-50.023-0.635l2.148,11.136c0,0-3.625-9.875-7.125-1.25
			C248.25,66.625,248.75,86.25,257.875,80z"/>
		<path fill="#3C3C3C" d="M254.496,56.818c0,0,2.129,10.432,2.004,13.057h-1c0,0-0.625-5.25-3.125-5.875l-0.875-7.372
			L254.496,56.818z"/>
		<path fill="#3C3C3C" d="M297,57.893c0,0,1.375,5.732,1.25,12.607h2c0,0,2.375-3.214,3.25-12.607
			C303.5,57.893,299,56.411,297,57.893z"/>
		<path fill="#D0A12C" d="M238.25,55.618c0,0,55.5,5.118,78.5,0L306,42.75c0,0-22.75,8-56.75,2.25L238.25,55.618z"/>
		<path fill="#3C3C3C" d="M262.25,57.893c0,0,9.25-0.893,10.75,1.982c0,0-8.625-2.238-10.75-1.057V57.893z"/>
		<path fill="#3C3C3C" d="M289.875,58.393c0,0-9.25-0.893-10.75,1.982c0,0,8.625-2.238,10.75-1.057V58.393z"/>
		<ellipse fill="#F3F3F3" cx="265.875" cy="64.938" rx="3.625" ry="3.438"/>
		<ellipse fill="#3F4040" cx="265.875" cy="64.938" rx="1.625" ry="1.541"/>
		<ellipse fill="#F3F3F3" cx="282.875" cy="64.938" rx="3.625" ry="3.438"/>
		<ellipse fill="#3F4040" cx="282.875" cy="64.938" rx="1.625" ry="1.541"/>
		<path fill="#C7AC87" d="M275.375,63.251c0,0-13.977,18.749,2.262,14.624C277.637,77.875,263.75,80.753,275.375,63.251z"/>
		<path fill="#675238" d="M270.625,87.5c0,0,14,1.25,15.875-3.375C286.5,84.125,286.375,91,270.625,87.5z"/>
	</g>
</g>
<g>
	<path fill="#161616" d="M407.65,251.541l6.313,2.126V269c0,0,3.713,3,0,8.25l-4.713,4l-11,2.333l9.375-13.833L407.65,251.541z"/>
	<path fill="#161616" d="M443.5,252.046l-6.313,1.621V269c0,0-3.713,3,0,8.25l4.713,4l9.767,1.583l-8.142-13.083L443.5,252.046z"/>
	<path fill="#CC3433" d="M410.338,162.58c0,0-2.422,80.753-2.713,89.753l6.338,1.334c0,0,4.59-69.072,7.98-81.703h8.682
		c0,0,6.709,56.037,6.709,81.703h6.166v-93.062C443.5,160.605,416.009,157.827,410.338,162.58z"/>
	<path fill="#E9E9E9" d="M404.167,156.667l0.628,5.243c0,0,34.518,3.468,41.768-0.098l0.759-5.146
		C447.321,156.667,429.792,164.089,404.167,156.667z"/>
	<path fill="#1D2A57" d="M447.321,93.167c0,0,5.345,1.666,6.512,9.333l5.334,57.797h-7.792c0,0-2.232-32.667-4.054-33.565V93.167z"
		/>
	<path fill="#1D2A57" d="M404.875,93.167c0,0-5.542,2.167-5.542,9.833l-4.833,57.297h7.667c0,0,0.177-24.961,2.255-26.462
		L404.875,93.167z"/>
	<path fill="#24366E" d="M411.418,90.493l-6.543,2.674l-0.708,63.5c0,0,20.976,8.167,43.154,0v-63.5l-7.564-4.544
		C439.757,88.623,418.015,82.986,411.418,90.493z"/>
	<path fill="#18244E" d="M418.662,80.782c0,0-8.662,10.218-10.412,15.843h6.875l-7.5,4.25c0,0,18.25,12.875,18.125,14.875
		c0,0,15.25-10.625,17.75-13.5l-5.5-3.984h5.5c0,0-4.484-15.742-10.867-18.066L418.662,80.782z"/>
	<path fill="#E9E9E9" d="M421.943,99.959c0,0,3.057,8.666,4.682,10.041c0,0,2.83-3.693,4-11.722L421.943,99.959z"/>
	<path fill="#CEB287" d="M420.612,81.702c0,0-4.987,16.673,6.263,23.048c0,0,8.176-7.527,3.463-23.514
		C430.338,81.236,424.85,78.028,420.612,81.702z"/>
	<g>
		<path fill="#E2C193" d="M397.25,21.75c0,0,14.334-24.25,50-3.5c1.299,0.756,0.051,3.753,0.051,3.753L447.5,42.75
			c0,0,6.973-12.5,9.861,0c0,0-2.861,17-9.361,12.25c0,0-1.75,25-16.25,25.25c0,0-13.75,13.036-30.75-22.357c0,0-4.25,5-9.25-7.572
			c0,0-1.25-11.321,6.25-7.571C398,42.75,394.25,29.25,397.25,21.75z"/>
		<path fill="#FCF9CE" d="M385,42.667c0,0,15.834,15.696,28.667-20.735c0,0,6.833,2.402,6.833,3.569c0,0,8.5-6.167,10.167-6.167
			c0,0,11.667,36.612,33,20.473c0,0-2,1.027-5-1.64c0,0,1.833,0,2.5-1.667c0,0-8.667-6.5-9.5-10c0,0,1.334,1.5,4.167,0.833
			c0,0-11.5-9.333-14.834-20.333c0,0-7.334-5.833-18.5,2.833c0,0-7.999-7.667-18.166-1.667c0,0-4.666,2-13,20.833
			c0,0-2.166,3.333,1.5,0.833c0,0-1.167,4.333-4.667,6.5c0,0,1.999,1.5,4.833,0.333C393,36.667,394.166,41,385,42.667z"/>
		<path fill="#251111" d="M425.75,38.375c0,0,9.656-7.75,15.828,0c0,0-6.953-2.875-13.578,0H425.75z"/>
		<path fill="#251111" d="M421.5,39.875c0,0-10.375-9-16.625-1.5C404.875,38.375,410.25,35.625,421.5,39.875z"/>
		<ellipse fill="#F3F3F3" cx="431.963" cy="46.03" rx="3.625" ry="3.438"/>
		<ellipse fill="#3F4040" cx="431.963" cy="46.03" rx="1.625" ry="1.541"/>
		<ellipse fill="#F3F3F3" cx="413.963" cy="46.03" rx="3.625" ry="3.438"/>
		<ellipse fill="#3F4040" cx="413.963" cy="46.03" rx="1.625" ry="1.541"/>
		<path fill="#C3A780" d="M422.625,44.813c0,0-3.625,8.688-7.5,10.938c0,0,2.875,4.563,8.188,4.063v-0.75
			c0,0-6.151-0.899-6.188-2.938C417.125,56.125,424.438,49.5,422.625,44.813z"/>
		<path fill="#FCF9CE" d="M397.189,45.317c0,0,3.186,4.183,3.123,7.496h0.75c0,0,0.803-6.701-0.88-9.069
			C400.183,43.743,398.129,43.509,397.189,45.317z"/>
		<path fill="#FCF9CE" d="M447.321,42.592v10.22h1.116c0,0,1.688-7.346,2.938-9.079C451.375,43.733,449.643,42.06,447.321,42.592z"
			/>
		<path fill="#251111" d="M417.188,68.063c0,0,13.813,1.688,15.125-2.938l0.938,0.813C433.25,65.938,427.813,72,417.188,68.063z"/>
		<path fill="#251111" d="M430.338,61.813c0,0,0.787,4.875,5.912,5.063C436.25,66.875,432.613,65.875,430.338,61.813z"/>
	</g>
	<path fill="#E2C193" d="M453.244,164.834c0,0,1.188-5.188,5.027,0.176c0,0-0.303,5.002,0.905,6.436c0,0,1.712,4.455-0.373,7.109
		c0,0-6.819,7.037-9.26,6.967c0,0-1.153-2.011,1.289-4.455c0,0,1.22-3.804,0.357-5.24c0,0-1.288-0.72-0.929,3.803
		c0,0,0.214,3.018-1.654,1.294c0,0-1.502-5.887,0.937-9.909C449.545,171.016,452.774,165.896,453.244,164.834z"/>
	<path fill="#E2C193" d="M403.48,172.968c2.438,4.022,0.937,9.909,0.937,9.909c-1.868,1.724-1.654-1.294-1.654-1.294
		c0.359-4.522-0.929-3.803-0.929-3.803c-0.862,1.437,0.357,5.24,0.357,5.24c2.442,2.444,1.289,4.455,1.289,4.455
		c-2.44,0.07-9.26-6.967-9.26-6.967c-2.085-2.654-0.373-7.109-0.373-7.109c1.208-1.434,1.652-7.399,1.652-7.399
		c3.84-5.363,5.254,2.058,5.254,2.058C401.224,169.119,403.479,172.97,403.48,172.968z"/>
	<polygon fill="#1D2A57" points="395.5,160.297 395.5,166 399.688,166 400.667,160.297 	"/>
	<rect x="453.244" y="160.297" fill="#1D2A57" width="5.089" height="4.537"/>
</g>
<g>
	<g>
		<path fill="#909882" d="M529.5,42.488c0,0-13-41.988,33-39.988c0,0,32-2.081,29.5,19.959l0.14,17.416l4.86,6.351l-4.25,18.899
			l-4.5,2.133l-0.75,12.941c0,0-8.75,6.801-21.25,8.301c0,0-14.5,4.25-33-7.25V67.258L529,66.875l-4.25-20.649L529.5,42.488z"/>
		<polygon fill="#838C72" points="533.25,67.258 528.75,65.125 524.5,46.029 530.25,41 		"/>
		<polygon fill="#838C72" points="587.5,67.258 592,66.875 597,46.226 590.75,41 		"/>
		<path fill="#838C72" d="M537.674,59.503L537.5,19.75c0,0,20.5-18.25,44.75-2.25v41.811v3.031l-4.749,20.117
			c0,0-16.517,12.803-34.517,1.208l-4.445-20.411L537.674,59.503z"/>
		<path fill="#5E6750" d="M533.006,65.125l6.182-2.375l3.813,21c0,0,19.375,9.125,34.375-1.5l5-20.375l5.543,2.005l0.313,15.745
			c0,0-23.98,20.375-54.98,1.625L533.006,65.125z"/>
		<path fill="#525A45" d="M533.006,65.125c0,0,27.113-11.751,54.866-0.875l0.358-2.893c0,0-29.779-12.375-55.654,0L533.006,65.125z"
			/>
		<ellipse fill="#525A45" cx="545.375" cy="39" rx="7.875" ry="8"/>
		<ellipse fill="#E8DF5B" cx="545.375" cy="39" rx="4.625" ry="4.698"/>
		<ellipse fill="#525A45" cx="574.375" cy="39" rx="7.875" ry="8"/>
		<ellipse fill="#E8DF5B" cx="574.375" cy="39" rx="4.625" ry="4.698"/>
		<path fill="#768164" d="M582.25,59.311l5.98,2.046l4.02-19.103c0,0,2.125-31.379-5-33.254l-5,8.5V59.311z"/>
	</g>
	<path fill="#768164" d="M556.125,89.268V96h11v-7.387C567.125,88.613,558.625,87.785,556.125,89.268z"/>
	<path fill="#768163" d="M546.032,95.338c0,0,9.97-6.21,29.719-1.086c0,0,8.593,4.594,9.608,10.609l4.766,41.265l-7.875,0.375
		v-5.125l-2.563,0.125l-0.02,5.833h-37.5l0.082-6.083c0,0-5.125,0.75-1.563-9.375l-1.26,0.375c0,0-1.803,12.5-1.928,14.25h-7.125
		c0,0-0.064-30.936,4.31-42.047C534.685,104.453,539.142,97.691,546.032,95.338z"/>
	<path fill="#818B70" d="M537.5,127.25c0,0-0.25-17.375,1.188-19.25c0,0-0.688-13.291,16.563-14.833h11.875
		c0,0,19.375-0.417,14.125,14.208c0,0,0.899,16.959,0,19.875l-7.625,8.5h-29.25L537.5,127.25z"/>
	<ellipse fill="#909882" cx="540.688" cy="100.271" rx="7.438" ry="7.104"/>
	<ellipse fill="#9DA690" cx="538.688" cy="99.271" rx="4.857" ry="4.64"/>
	<ellipse fill="#909882" cx="579.688" cy="100.271" rx="7.438" ry="7.104"/>
	<ellipse fill="#9DA690" cx="581.688" cy="99.271" rx="4.857" ry="4.64"/>
	<path fill="#969F8B" d="M530.375,146.5h7.125c0,0,2.25,8,0,14.375l-2.25,5.625l-6.375,0.75
		C528.875,167.25,527.375,153.25,530.375,146.5z"/>
	<path fill="#969F8B" d="M582.25,146.5l7.875-0.375c0,0,2.375,13.25,0.75,20h-7.125C583.75,166.125,580.25,157.25,582.25,146.5z"/>
	<path fill="#757959" d="M534.713,166.563v3.812c0,0,4.912,4.125,5.037,6.25v11.25c0,0-2.342,1.054-2.519-7.125
		c0,0-1.856,0.125-0.481,6.188c0,0,5.813,6.625,1,6.25c0,0-9.563-5.75-10.063-9.438c0,0-1.188-3.313,0-8.625
		c0,0,1.313-6.447,1.188-7.875C528.875,167.25,533.863,165.877,534.713,166.563z"/>
	<path fill="#757959" d="M584.197,166.001v3.812c0,0-4.912,4.125-5.037,6.25v11.25c0,0,2.342,1.054,2.519-7.125
		c0,0,1.856,0.125,0.481,6.188c0,0-5.813,6.625-1,6.25c0,0,9.563-5.75,10.063-9.438c0,0,1.188-3.313,0-8.625
		c0,0-1.224-7.01-1.098-8.438C590.125,166.125,585.047,165.314,584.197,166.001z"/>
	<path fill="#768164" d="M542.583,152.917v78.458c0,0,2.585,2.126,5.418,1.792l7.166-63.5l7.667,0.5l6.167,63.036h5.333v-69.78
		c0,0,3.833-3.089,1.833-10.506C576.167,152.917,552.332,150.167,542.583,152.917z"/>
	<rect x="539.75" y="147.333" fill="#818B70" width="40.833" height="5.583"/>
	<path fill="#909882" d="M542.583,231.375c0,0-7.104,13.292-2.603,32.792c0,0,4.993-2.5,7.659,0c0,0,4.194-20.833,0.361-31
		C548.001,233.167,544.832,230.583,542.583,231.375z"/>
	<path fill="#909882" d="M574.36,231.375c0,0,7.34,13.292,2.839,32.792c0,0-4.993-2.5-7.659,0c0,0-4.431-20.833-0.598-31
		C568.942,233.167,572.111,230.583,574.36,231.375z"/>
	<path fill="#768163" d="M540.5,262.625c0,0-2.965,9.75-7.045,12.25c0,0,4.17,2.875,10.67,0c0,0,7.125-4.125,3.875-9.375
		c0,0-1-4.625-2.75-5.125C545.25,260.375,543.25,258.625,540.5,262.625z"/>
	<path fill="#768163" d="M576.68,262.625c0,0,2.965,9.75,7.045,12.25c0,0-4.17,2.875-10.67,0c0,0-7.125-4.125-3.875-9.375
		c0,0,1-4.625,2.75-5.125C571.93,260.375,573.93,258.625,576.68,262.625z"/>
	<polygon fill="#606851" points="537.5,127.25 544.375,135.75 573.625,135.75 581.25,127.25 577.625,139 540.688,139 	"/>
	<ellipse fill="#E8DF5B" cx="561.618" cy="110" rx="7.385" ry="7.501"/>
</g>
</svg>
