<?xml version="1.0" encoding="utf-8"?>
<!-- Generator: Adobe Illustrator 16.0.0, SVG Export Plug-In . SVG Version: 6.00 Build 0)  -->
<!DOCTYPE svg PUBLIC "-//W3C//DTD SVG 1.1//EN" "http://www.w3.org/Graphics/SVG/1.1/DTD/svg11.dtd">
<svg version="1.1" id="Layer_1" xmlns="http://www.w3.org/2000/svg" xmlns:xlink="http://www.w3.org/1999/xlink" x="0px" y="0px"
	 width="684px" height="296.64px" viewBox="0 0 684 296.64" enable-background="new 0 0 684 296.64" xml:space="preserve">
<image display="none" overflow="visible" width="574" height="344" xlink:href="C:\Users\sudha\Desktop\The Video Maker from GoAnimate   Make a Video for YouTube .png"  transform="matrix(1 0 0 1 77.6875 -23.5337)">
</image>
<g>
	<path fill="#E2C193" d="M220.833,63.333c0,0-6.083,0.667-1.833,11.333c0,0,2.75,6.5,4.917,5.75c0,0,1.083,16.167,21.833,18.917
		c0,0,26.334,0.75,27.167-19.5c0,0,3.333,2.583,6.667-10.083c0,0,3-9.75-3.417-10.667c0,0-0.417-32.5-21.583-31
		c0,0-28.583,1.25-32.833,17.917L220.833,63.333z"/>
	<path fill="#676767" d="M255.667,205.581c0,0,6,39.779,5.667,65.419h4.833c0,0-1.667-64.795,0-66.73
		C266.167,204.27,257.167,204.495,255.667,205.581z"/>
	<path fill="#676767" d="M233.316,204.621c0,0-1.184,63.545,0,66.379l3.517,0.834c0,0,5-66.198,6.167-66.253
		C243,205.581,234.966,203.575,233.316,204.621z"/>
	<path fill="#999965" d="M220.833,63.333v-12.5c0,0-3.5-3.834-5.833-4.167c0,0,8.167-4.833,10.333-12.833
		c0,0,11.167-12.5,37.333-7.5c0,0,14.896,5.965,15.083,17.91v15.882c0,0-5.938,0.813-6.938,13h-2.688L268,51.375
		c0,0,3.438-16.813-8.188-19.188c0,0-25.979-8.188-33.875,13.063c0,0-4.063,4.688,1.313,24.75l-2.313,0.313
		C224.938,70.313,223.917,63.167,220.833,63.333z"/>
	<path fill="#808080" d="M252.25,52.583c0,0,6.5-0.75,7.917,3.833C260.167,56.417,257.25,52.917,252.25,52.583z"/>
	<path fill="#808080" d="M240.75,53.417c0,0-7-1.083-6.917,3.667C233.833,57.083,235.083,54.083,240.75,53.417z"/>
	<circle fill="#FFFFFF" cx="238.227" cy="64.563" r="3.477"/>
	<circle fill="#FFFFFF" cx="255.727" cy="64.804" r="3.477"/>
	<ellipse fill="none" stroke="#2D2D2D" stroke-miterlimit="10" cx="235.833" cy="67.667" rx="7.583" ry="7.75"/>
	<ellipse fill="none" stroke="#2D2D2D" stroke-miterlimit="10" cx="259.105" cy="67.667" rx="7.583" ry="7.75"/>
	<circle fill="#333333" cx="238.541" cy="64.412" r="1.728"/>
	<circle fill="#333333" cx="255.166" cy="64.804" r="1.728"/>
	<path fill="#2D2D2D" d="M243.917,67.167c0,0,3.583-3.833,7.25,0.5l0.229-1.292c0,0-3.771-3.646-7.979-0.438L243.917,67.167z"/>
	<polygon fill="#2D2D2D" points="266.958,66.792 271.875,67.333 271.331,69.387 266.813,69.833 	"/>
	<polygon fill="#2D2D2D" points="224.15,67.07 224.734,69.234 228.063,69.563 227.984,66.906 	"/>
	<path fill="#CCAF86" d="M243.417,71.563c0,0-6.167,12.063,4.896,9.25C248.313,80.813,239.271,82.063,243.417,71.563z"/>
	<path fill="#CCAF86" d="M236.813,80.75c0,0-3.334,5.813-0.979,12.375C235.833,93.125,231.223,86.254,236.813,80.75z"/>
	<path fill="#CCAF86" d="M261.25,80.125c0,0,3.75,4.75,0.813,11.688C262.063,91.813,266.489,85.506,261.25,80.125z"/>
	<path fill="#543D33" d="M237.688,88.375c0,0,19.125,2.375,23.063-4.125C260.75,84.25,259.625,91.625,237.688,88.375z"/>
	<path fill="#E4CDAC" d="M222.907,130.895c0,0-5.773,39.242-3.371,48.025c0,0-2.438,7.885-1.988,11.152c0,0-0.111,4.055,3.717,6.307
		l4.619,3.717c0,0,4.168,3.943,3.152-0.676c0,0-3.604-3.828-2.59-8.223c0,0,0.789-3.041,2.139,0.227c0,0-0.563,9.461,1.689,4.504
		c0,0,1.07-8.334-1.182-11.317c0,0-2.93-4.845-3.943-5.521l5.38-47.569L222.907,130.895z"/>
	<path fill="#E4CDAC" d="M278.638,130.971c0,0,5.989,39.413,3.585,48.196c0,0,2.441,7.885,1.99,11.152c0,0,0.113,4.055-3.717,6.307
		l-4.617,3.717c0,0-4.168,3.943-3.154-0.676c0,0,3.604-3.828,2.59-8.223c0,0-0.787-3.041-2.139,0.227c0,0,0.563,9.461-1.691,4.504
		c0,0-1.068-8.334,1.186-11.317c0,0,2.928-4.845,3.939-5.521l-4.915-46.754L278.638,130.971z"/>
	<path fill="#821D18" d="M242.715,104.157c0,0-12.778,4.155-14.403,6.28c0,0-6.188,8-8.438,22.688l10.188,2.375
		c0,0-9.938,16.5-1.063,27.375l42,3.375c0,0,10.125-15.625,1.875-31.625l7.409-1.5c0,0-4.534-17.375-6.284-19.125
		c0,0,0.568-5.347-15.763-10.362"/>
	<path fill="#E2C193" d="M244.446,99.139l-1.321,8.153c0,0,3.063,3.771,3.75,7.958l0.594-0.281l0.594-4.344
		c0,0,0.875-3.83,2.688-2.243c0,0,5.688-2.413,4.188-8.569l-0.688-0.476l-0.101-0.839C254.149,98.498,245.188,98.637,244.446,99.139
		z"/>
	<path fill="#9B4946" d="M244.446,99.139c0,0-4.821,12.486-3.696,16.986c0,0,1.875-7.375,3.625-6.375l3.031,7.875
		c0,0,0.656-8.538,1.813-9.144c0,0,4.906,4.894,5.031,7.644c0,0,9-17.826,0-16.788c0,0,1,6.413-3.5,8.038c0,0-3.188-1-3.344,7.25
		l-3.031-6.166C244.375,108.459,243.979,101.521,244.446,99.139z"/>
	<path fill="#EDEDED" d="M241.856,104.443c0,0-4.403,15.224-3.629,18.224c0,0,19.44,1.333,23.773,0c0,0-1.426-14.864-3.011-18.794
		c0,0,0.573,0.002,1.765,0.585c0,0,14.246,47.042,12.746,98.542c0,0-23.5,5.334-45.667,0.667c0,0-1.421-79.578,12.144-98.578
		C239.977,105.089,240.813,104.656,241.856,104.443z"/>
	<path fill="#323232" d="M233.316,271c0,0,1.891-1.625,3.663,0.291l0.916,3.959c0,0,1.355,2.582-1.895,4.166
		c0,0-1.416,6.001-5.333,6.834c0,0-12.083,2.334-4.5-6.75C226.167,279.5,232.733,278.417,233.316,271z"/>
	<path fill="#323232" d="M266.167,271c0,0-3.062-1.916-4.833,0l-0.136,4.25c0,0-1.355,2.582,1.895,4.166
		c0,0,1.416,6.001,5.333,6.834c0,0,12.083,2.334,4.5-6.75C272.925,279.5,266.75,278.417,266.167,271z"/>
</g>
<g>
	<path fill="#676767" d="M474.052,200.309c0,0,6,39.779,5.667,65.419h4.833c0,0-1.667-64.795,0-66.73
		C484.552,198.997,475.552,199.223,474.052,200.309z"/>
	<path fill="#676767" d="M451.701,199.349c0,0-1.184,63.545,0,66.379l3.518,0.834c0,0,5-66.198,6.166-66.253
		C461.385,200.309,453.351,198.303,451.701,199.349z"/>
	<path fill="#323232" d="M451.701,265.728c0,0,1.891-1.625,3.663,0.291l0.915,3.959c0,0,1.355,2.582-1.895,4.166
		c0,0-1.416,6.001-5.333,6.834c0,0-12.083,2.334-4.5-6.75C444.552,274.228,451.118,273.145,451.701,265.728z"/>
	<path fill="#323232" d="M484.552,265.728c0,0-3.062-1.916-4.833,0l-0.137,4.25c0,0-1.355,2.582,1.895,4.166
		c0,0,1.416,6.001,5.334,6.834c0,0,12.082,2.334,4.5-6.75C491.311,274.228,485.135,273.145,484.552,265.728z"/>
	<path fill="#E4CDAC" d="M439.957,129.133c0,0-5.773,39.242-3.371,48.025c0,0-2.438,7.885-1.988,11.152c0,0-0.111,4.055,3.717,6.307
		l4.619,3.717c0,0,4.168,3.943,3.152-0.676c0,0-3.604-3.828-2.59-8.223c0,0,0.789-3.041,2.139,0.227c0,0-0.563,9.461,1.689,4.504
		c0,0,1.07-8.334-1.182-11.317c0,0-2.93-4.845-3.943-5.521l5.381-47.568L439.957,129.133z"/>
	<path fill="#E4CDAC" d="M495.688,129.209c0,0,5.989,39.413,3.585,48.196c0,0,2.441,7.885,1.99,11.152c0,0,0.113,4.055-3.717,6.307
		l-4.617,3.717c0,0-4.168,3.943-3.154-0.676c0,0,3.604-3.828,2.59-8.223c0,0-0.787-3.041-2.139,0.227c0,0,0.563,9.461-1.691,4.504
		c0,0-1.068-8.334,1.186-11.317c0,0,2.928-4.845,3.939-5.521l-4.915-46.754L495.688,129.209z"/>
	<path fill="#E2C193" d="M442.502,52.523c0,0,26.103-14.46,47.936-1.96L494,56.5c0,0,7.834-2.167,3.334,10.5c0,0-4.166,14.667-9,8.5
		c0,0-0.439,18.667-16.887,19.5c0,0-20.03,3.917-26.697-18.667c0,0-6.167,2.25-7.917-12.083c0,0,0.209-9.417,5.417-3.333
		L442.502,52.523z"/>
	<path fill="#996632" d="M439.236,58.871l0.347-6.348c0,0,5.667-6.606,6.667,17.311l-1.667,0.5
		C444.583,70.333,442.953,58.813,439.236,58.871z"/>
	<path fill="#996632" d="M486,51.771V69.25h1.416c0,0,3.115-13.563,7.899-12.888L495.5,54.5C495.5,54.5,491,52.354,486,51.771z"/>
	<path fill="#6799CB" d="M437.5,48.583V27.5c0,0,6.417-9.833,24.75-10.417h7.333c0,0,17.917,1.417,26.75,11.667v19.833
		c0,0,3.084,4.25-0.833,5.917c0,0-35.25-12.75-56.917,0C438.583,54.5,432.417,54.083,437.5,48.583z"/>
	<path fill="#E5E5E5" d="M439.333,26.667c0,0,26-22.917,54,2.083v18.667c0,0-30.167-9.583-54,0V26.667z"/>
	<rect x="462.469" y="15.344" fill="#6799CB" width="6.969" height="1.728"/>
	<path fill="#333333" d="M460.313,51.625c0,0-6.563,0.438-9.688,4.563C450.625,56.188,451.063,47.5,460.313,51.625z"/>
	<path fill="#333333" d="M466.563,49.563c0,0,10.25,1.813,13.875,6.125C480.438,55.688,483.875,47.313,466.563,49.563z"/>
	<ellipse fill="#FFFFFF" cx="455.75" cy="61.188" rx="3.375" ry="3.212"/>
	<ellipse fill="#333333" cx="455.75" cy="61.188" rx="1.765" ry="1.679"/>
	<ellipse fill="#FFFFFF" cx="473.75" cy="61.188" rx="3.375" ry="3.212"/>
	<ellipse fill="#333333" cx="473.75" cy="61.188" rx="1.765" ry="1.679"/>
	<path fill="#B49A75" d="M464.563,61.188c0,0-14.875,12.5,2.813,11.188c0,0,1.25,1.125-1.625,1.125
		C465.75,73.5,448,73.313,464.563,61.188z"/>
	<path fill="#422E2D" d="M460.625,83.438c0,0,12.152,1.125,13.014-2.563C473.639,80.875,472.313,87.125,460.625,83.438z"/>
	<path fill="#422E2D" d="M471.985,77.375c0,0-0.173,4.438,5.577,4.75C477.563,82.125,472.908,81.125,471.985,77.375z"/>
	<path fill="#821D18" d="M457.515,101.375l-8.89,3.506c0,0-4.125,0.369-10.25,23.119l11.34,3.428h37.651l10.12-3.178l-5.236-19.125
		c0,0-3.682-5.607-13.528-8.679l-11.805-5.559L457.515,101.375z"/>
	<path fill="#E2C193" d="M463.698,94.887l-1.511,8.394l2.563,11.594c0,0,2.228-10,3.03-10.458c0,0,5.824-4.813,4.938-8.885
		l-0.136-0.644H463.698z"/>
	<path fill="#EDEDED" d="M461.164,98.857c0,0-1.945,1.034-3.649,2.518c0,0-9.39,35.625-9.765,38.25l-1.875,58.875
		c0,0,35.25,4.375,45.375-1.125l-2.875-61c0,0-5.979-32.792-10.167-36.167c0,0-2.146-1.396-2.174-1.028
		c0,0,4.966,13.194,3.341,18.569c0,0-13,4-22.625,0.625C456.75,118.375,457.175,104.013,461.164,98.857z"/>
	<path fill="#9B4946" d="M463.656,95.344c0,0-4.573,4.156-4.531,16.49c0,0,0.813-5.167,3.344-7L465,117.167
		c0,0,1.727-11.5,2.78-11.833c0,0,1.845-0.833,3.813,6.073c0,0,8.938-16.75,1.125-15.875c0,0-1.328,5.672-4.938,8.031
		c0,0-2.718,6.469-2.812,10.75c0,0-0.969-9.469-2.438-10.281c0,0-0.313-4.531,1.156-5.438L463.656,95.344z"/>
</g>
</svg>
