<?xml version="1.0" encoding="utf-8"?>
<!-- Generator: Adobe Illustrator 16.0.0, SVG Export Plug-In . SVG Version: 6.00 Build 0)  -->
<!DOCTYPE svg PUBLIC "-//W3C//DTD SVG 1.1//EN" "http://www.w3.org/Graphics/SVG/1.1/DTD/svg11.dtd">
<svg version="1.1" id="Layer_1" xmlns="http://www.w3.org/2000/svg" xmlns:xlink="http://www.w3.org/1999/xlink" x="0px" y="0px"
	 width="684px" height="296.64px" viewBox="0 0 684 296.64" enable-background="new 0 0 684 296.64" xml:space="preserve">
<rect fill="#A7C5C5" width="684" height="296.64"/>
<g>
	<path fill="#E2C193" d="M89.506,181.406c0,0-2.512-7.492-6.965-1.27c0,0,0.352,5.805-1.051,7.471c0,0-1.986,5.166,0.431,8.25
		c0,0,7.909,8.166,10.747,8.082c0,0,1.336-2.334-1.497-5.166c0,0-1.417-4.416-0.417-6.084c0,0,1.5-0.832,1.084,4.418
		c0,0-0.25,3.5,1.916,1.5c0,0,1.744-6.834-1.086-11.5C92.668,187.105,90.05,182.639,89.506,181.406z"/>
	<path fill="#E2C193" d="M137.883,183.121c0,0,2.51-7.492,6.964-1.271c0,0-0.351,5.805,1.052,7.471c0,0,1.984,5.168-0.432,8.25
		c0,0-7.91,8.166-10.746,8.084c0,0-1.338-2.334,1.496-5.168c0,0,1.416-4.416,0.416-6.082c0,0-1.499-0.834-1.082,4.416
		c0,0,0.249,3.5-1.918,1.5c0,0-1.742-6.832,1.088-11.5C134.721,188.82,137.338,184.354,137.883,183.121z"/>
	<path fill="#E2C193" d="M119.551,212.76c0,0,5.373,61.959,4.998,66.209c0,0,2.75-2.125,4.5,0l-0.956-67.104
		C128.093,211.865,122.428,210.178,119.551,212.76z"/>
	<path fill="#161616" d="M124.549,278.969c0,0-0.875,4-2.625,5.75c0,0-1.5,3.875,2.625,6.25c0,0,6.375,3.75,12.625,1.75
		c0,0-4.125-5.875-6-9.5c0,0-2.098-2.375-2.125-4.25C129.049,278.969,127.174,276.094,124.549,278.969z"/>
	<path fill="#E2C193" d="M106.924,212.094c0,0-5.373,61.957-4.998,66.207c0,0-2.75-2.125-4.5,0l0.956-67.104
		C98.381,211.197,104.047,209.51,106.924,212.094z"/>
	<path fill="#161616" d="M101.926,278.301c0,0,0.875,4,2.625,5.75c0,0,1.5,3.875-2.625,6.25c0,0-6.375,3.75-12.625,1.75
		c0,0,4.125-5.875,6-9.5c0,0,2.098-2.375,2.125-4.25C97.426,278.301,99.301,275.426,101.926,278.301z"/>
	<path fill="#014864" d="M92.956,173.219c0,0-2.032,29.125,3.718,37.875c0,0,17.875,4,35.375,0c0,0,5.31-22.135,1.125-37.875
		C133.174,173.219,99.987,170.844,92.956,173.219z"/>
	<path fill="#005C8A" d="M108.808,105.76c0,0-14.342,6.344-17.509,9.213c0,0-10.333,47.952-9.417,58.452l-0.058,9.25h8.974
		c0,0,0.417-41.832,4.917-45.749c0,0,4,10.583,4.333,15.083c0,0-7.75,16.668-7.5,21c0,0,22.25,12,41.833-1.084
		c0,0-6.083-16.166-7.5-20.249c0,0,1.167-13.833,4.5-15.583c0,0,5.583,22.417,5.5,46.583h8.917c0,0-4.833-57.488-8.833-67.702
		c0,0-12.912-6.217-16.581-7.465C120.385,107.508,111.845,104.38,108.808,105.76z"/>
	<path fill="#CBB7CB" d="M109.424,106.968c0,0,7.083,0.875,8.625-1.208c0,0,1.51,14.125-0.433,16.5c0,0-6.052,8.708-6.393,10.25
		c0,0-3.299-10.917-7.216-14.333C104.007,118.177,107.049,107.926,109.424,106.968z"/>
	<path fill="#F4F4F4" d="M117.564,104.593c0,0,3.469-0.166,6.719,14.917c0,0-4.5,0.167-5.917,1.417c0,0,1.167,2.333,2,2.667
		c0,0-4.75,1.417-9.417,9.917c0,0,1.979-13,6.615-12.917V104.593z"/>
	<path fill="#F4F4F4" d="M110.019,104.593c0,0-8.554,7.75-9.304,13.667c0,0,0.934,2.25,5.05,2.917c0,0-2.8,1.583-3.05,2.417
		c0,0,8.438,5.75,8.5,9.833c0,0,0.5-10.209-6.437-15.792c0,0,3.299-7.263,5.1-10.034L110.019,104.593z"/>
	<path fill="#E2C193" d="M110.423,102.683c0,0-1.376,5.161,0,5.911c0,0,6.657,2.09,7.079-2.955l0.328-2.865
		C117.83,102.773,111.453,101.366,110.423,102.683z"/>
	<path fill="#E2C193" d="M85.38,67.556c0,0-7.248-5.546-4.415,8.454c0,0,5,13.833,8.333,7.833c0,0,9.167,20.5,20.5,18.833
		l10.5,0.096c0,0,8.952-3.966,12.833-19.263c0,0,7.667,5.167,10.5-11c0,0,3.574-12.866-5.463-7.6c0,0,2.405-9.401-8.816-19.567
		c0,0-18.721-11.667-41.721,2C87.632,47.343,81.295,53.269,85.38,67.556z"/>
	<path fill="#433118" d="M104.799,61.968c0,0-4.635-6.747-14-5v2.355C90.799,59.324,97.049,56.343,104.799,61.968z"/>
	<path fill="#433118" d="M112.132,61.968c0,0,4.635-6.747,14-5v2.355C126.132,59.324,119.882,56.343,112.132,61.968z"/>
	<g>
		<path fill="#443119" d="M93.565,72.399c0,0-2.056-3.736,0.61-6.57c0,0,6.291-5.708,11.083,2.792c0,0,0.5,1.869-0.828,4.192
			L93.565,72.399z"/>
		<ellipse fill="#E3E6F0" cx="99.049" cy="71.121" rx="5.625" ry="5.792"/>
		<ellipse fill="#8FA1C4" cx="99.532" cy="71.122" rx="2.272" ry="2.304"/>
		<ellipse fill="#314461" cx="99.063" cy="71.335" rx="1.253" ry="1.27"/>
	</g>
	<g>
		<path fill="#372117" d="M125.594,72.399c0,0,2.056-3.736-0.61-6.57c0,0-6.291-5.708-11.083,2.792c0,0-0.5,1.869,0.828,4.192
			L125.594,72.399z"/>
		<ellipse fill="#E3E6F0" cx="120.11" cy="71.121" rx="5.625" ry="5.792"/>
		<ellipse fill="#8FA1C4" cx="117.502" cy="70.688" rx="2.272" ry="2.304"/>
		<ellipse fill="#314461" cx="117.044" cy="71.122" rx="1.253" ry="1.27"/>
	</g>
	<path fill="#CC992F" d="M95.799,25.51c0,0-31,11-7.333,47.167c0,0-1-20,5.167-25.5c0,0,21.667,17.833,26.167,18.333
		c0,0-4-10.666-5.167-11.833c0,0,8.609,11,14.721,13.667c0,0-1.388-6-2.388-7.667c0,0,7.167,5.166,6.667,16.333
		c0,0,5.041-9.5,7.187-21.5c0,0,8.146-2.667,6.646-16.5c0,0-0.667-7.833-6.667-10.333C140.799,27.677,106.465,22.177,95.799,25.51z"
		/>
	<path fill="#005C8A" d="M95.799,25.51c0,0-11.167,17.5,41.5,14.333c0,0,3.833-4.5,3.5-12.167c0,0-0.666-18.833-10.333-24
		C130.466,3.677,107.799-1.156,95.799,25.51z"/>
	<path fill="#02486D" d="M106.966,12.843c0,0-8,8.5,2.5,9c0,0,13.833-3.166,19.833-11.833c0,0,1.333-8.167-9.167-4.667
		C120.132,5.343,112.466,7.176,106.966,12.843z"/>
	<path fill="#968169" d="M110.674,73.426c0,0-11.959,14.792,1.458,10.917C112.132,84.343,101.509,87.196,110.674,73.426z"/>
	<path fill="#5C2E2B" d="M104.799,91.843c0,0,10,4,16.25-4.125C121.049,87.718,115.799,98.968,104.799,91.843z"/>
	<path fill="#F08AB9" d="M110.799,120.843c0,0-6.458,3-5.917-6.167c0,0,3.482-5.292,4.929-5.958c0,0,4.488-0.583,4.988,1.167
		c0,0,3.521,6.292,3.031,10.792C117.83,120.677,112.174,125.135,110.799,120.843z"/>
	<path fill="#D672A7" d="M112.546,108.682c0,0-6.285,6.656-5.452,12.323c0,0,3.767,1.182,4.747-1.495
		C111.841,119.51,111.342,110.361,112.546,108.682z"/>
</g>
<g>
	<g>
		<path fill="#8B6643" d="M244.833,171.963c0,0-2.512-7.492-6.965-1.27c0,0,0.352,5.805-1.051,7.471c0,0-1.986,5.166,0.431,8.25
			c0,0,7.909,8.166,10.747,8.082c0,0,1.336-2.334-1.497-5.166c0,0-1.417-4.416-0.417-6.084c0,0,1.5-0.832,1.084,4.418
			c0,0-0.25,3.5,1.916,1.5c0,0,1.744-6.834-1.086-11.5C247.995,177.662,245.376,173.195,244.833,171.963z"/>
		<path fill="#8B6643" d="M293.209,173.678c0,0,2.51-7.492,6.965-1.271c0,0-0.352,5.805,1.051,7.471c0,0,1.984,5.168-0.432,8.25
			c0,0-7.91,8.166-10.746,8.084c0,0-1.338-2.334,1.496-5.168c0,0,1.416-4.416,0.416-6.082c0,0-1.498-0.834-1.082,4.416
			c0,0,0.25,3.5-1.918,1.5c0,0-1.742-6.832,1.088-11.5C290.047,179.377,292.665,174.91,293.209,173.678z"/>
		<path fill="#8B6643" d="M274.877,203.316c0,0,5.373,61.959,4.998,66.209c0,0,2.75-2.125,4.5,0l-0.955-67.104
			C283.42,202.422,277.754,200.734,274.877,203.316z"/>
		<path fill="#161616" d="M279.875,269.525c0,0-0.875,4-2.625,5.75c0,0-1.5,3.875,2.625,6.25c0,0,6.375,3.75,12.625,1.75
			c0,0-4.125-5.875-6-9.5c0,0-2.098-2.375-2.125-4.25C284.375,269.525,282.5,266.65,279.875,269.525z"/>
		<path fill="#8B6643" d="M262.25,202.65c0,0-5.373,61.957-4.998,66.207c0,0-2.75-2.125-4.5,0l0.955-67.104
			C253.708,201.754,259.374,200.066,262.25,202.65z"/>
		<path fill="#161616" d="M257.252,268.857c0,0,0.875,4,2.625,5.75c0,0,1.5,3.875-2.625,6.25c0,0-6.375,3.75-12.625,1.75
			c0,0,4.125-5.875,6-9.5c0,0,2.098-2.375,2.125-4.25C252.752,268.857,254.627,265.982,257.252,268.857z"/>
		<path fill="#542C51" d="M248.282,163.775c0,0-2.031,29.125,3.719,37.875c0,0,17.875,4,35.375,0c0,0,5.311-22.135,1.125-37.875
			C288.5,163.775,255.314,161.4,248.282,163.775z"/>
		<path fill="#997098" d="M264.134,96.317c0,0-14.343,6.344-17.509,9.213c0,0-10.333,47.953-9.416,58.452l-0.059,9.25h8.975
			c0,0,0.417-41.832,4.917-45.749c0,0,3.999,10.583,4.333,15.083c0,0-7.75,16.668-7.5,21c0,0,22.25,12,41.834-1.084
			c0,0-6.084-16.166-7.5-20.249c0,0,1.166-13.833,4.5-15.583c0,0,5.583,22.416,5.5,46.583h8.916c0,0-4.833-57.488-8.833-67.702
			c0,0-12.912-6.217-16.581-7.465C275.711,98.065,267.172,94.937,264.134,96.317z"/>
		<path fill="#4C384C" d="M272.199,96.301c0,0,5.834,0.5,4.667,12.167c0,0,1.333,3.167,2.166,5l-5,2.167l2.834,3.333
			c-8.188,17.882-8.084,17.417-9.334,20.866h-1.521c0,0-7.188-18.012-9-22.262c0,0,2.438-1.563,2.938-2.063l-4.063-2.625
			c0,0,4.969-12.627,9.531-16.919L272.199,96.301z"/>
		<path fill="#F0DCCA" d="M266.484,102.288c0,0-11.107,14.32,0,33.778c0,0,10.879-21.875,5.033-33.778
			C271.517,102.288,269.342,98.176,266.484,102.288z"/>
		<path fill="#8B6643" d="M240.708,58.113c0,0-7.248-5.546-4.415,8.454c0,0,4.124,13.958,7.458,7.958
			c0,0,10.041,20.375,21.375,18.708l10.5,0.096c0,0,8.951-3.966,12.834-19.263c0,0,7.666,5.167,10.5-11c0,0,3.574-12.866-5.463-7.6
			c0,0,2.404-9.401-8.816-19.567c0,0-18.721-11.667-41.721,2C242.959,37.9,236.622,43.826,240.708,58.113z"/>
		<path fill="#433118" d="M260.125,52.525c0,0-4.635-6.747-14-5v2.355C246.125,49.88,252.375,46.9,260.125,52.525z"/>
		<path fill="#433118" d="M267.458,52.525c0,0,4.635-6.747,14-5v2.355C281.458,49.88,275.208,46.9,267.458,52.525z"/>
		<g>
			<path fill="#443119" d="M248.891,62.956c0,0-2.055-3.736,0.611-6.57c0,0,6.291-5.708,11.082,2.792c0,0,0.5,1.869-0.828,4.192
				L248.891,62.956z"/>
			<ellipse fill="#E3E6F0" cx="254.375" cy="61.678" rx="5.625" ry="5.792"/>
			<ellipse fill="#8FA1C4" cx="254.858" cy="61.678" rx="2.273" ry="2.304"/>
			<ellipse fill="#314461" cx="254.389" cy="61.892" rx="1.254" ry="1.27"/>
		</g>
		<g>
			<path fill="#372117" d="M280.92,62.956c0,0,2.057-3.736-0.609-6.57c0,0-6.291-5.708-11.084,2.792c0,0-0.5,1.869,0.828,4.192
				L280.92,62.956z"/>
			<ellipse fill="#E3E6F0" cx="275.436" cy="61.678" rx="5.625" ry="5.792"/>
			<ellipse fill="#8FA1C4" cx="272.829" cy="61.244" rx="2.273" ry="2.304"/>
			<ellipse fill="#314461" cx="272.372" cy="61.678" rx="1.252" ry="1.27"/>
		</g>
		<path fill="#694E36" d="M266,63.982c0,0-11.959,14.792,1.458,10.917C267.458,74.9,256.835,77.752,266,63.982z"/>
		<path fill="#5C2E2B" d="M260.125,82.4c0,0,10,4,16.25-4.125C276.375,78.275,271.125,89.525,260.125,82.4z"/>
		<path fill="#341D17" d="M244.846,36.832c0,0,11.224,6.91,31.057,9.243c0,0,12,0.833,11.333,10.333l0.026,10.443
			c0,0,4.626-11.344,10.626-1.158c0,0,1.738,5.788-9.429,8.373c0,0-4.344,15.347-15.428,19.264c0,0,28.356,11.05,31.606-23.117
			c0,0-1.251-21.75-5.833-26.917c0,0-17.584-55.083-55.25-17.25c0,0-14.25-6.667-6,35.917c0,0,3.593,33.92,28.194,31.275
			c0,0-17.825-8.942-20.575-17.692C245.174,75.547,237.596,68.249,244.846,36.832z"/>
	</g>
	<path fill="#8B6643" d="M236.733,57.451c0,0-7.607,10.019,4.458,18.367c0,0,3.524,1.061,3.354-1.116s-2.69-18.816-2.69-18.816
		S238.09,54.501,236.733,57.451z"/>
	<path fill="#8B6643" d="M262.92,109.667c0,0,5.137,6.934,10.296,0l-0.653-13.366l0.594-3.062h-7.407c0,0-1.491,7.844-0.593,10.536
		C265.157,103.775,263.544,107.354,262.92,109.667z"/>
</g>
<g>
	<g>
		<g>
			<path fill="#E5BC98" d="M387.981,63.769l40.575-2.973l3.759,16.389l2.839-5.062c0,0,5.828-3.688,4.995,2.729
				c0,0-0.25,10.083-4.667,14.083c0,0-3.167,2.25-5.917,1.25c0,0-2.083,12-11,18h-14.917c0,0-12.083-10-14.333-17.917
				c0,0-2.833,2.5-4.917-0.667c0,0-4.334-4.583-3.667-10.833c0,0-1-5.667,2.583-4.833L387.981,63.769z"/>
			<path fill="#333333" d="M391.689,69.169l2.875,2.125c0,0,2.25-5.125,8.625-3.75c0,0-0.25-1.875,0-2.625
				C403.189,64.919,394.189,63.294,391.689,69.169z"/>
			<path fill="#333333" d="M423.815,67.478l-2.489,1.583c0,0-3.402-4.392-9.777-3.017c0,0,0.25-1.875,0-2.625
				C411.549,63.419,419.69,62.311,423.815,67.478z"/>
			<path fill="#333333" d="M382.564,65.143l0.75,8.793c0,0,4,1.5,4.625,6.875V65.143l40.643-2.44c0,0-0.018,7.983,2.482,10.608
				v5.125l1.625-0.125c0,0,1-5.233,2.875-6.556c0,0,1.557-5.829,1.216-10.263L382.564,65.143z"/>
			<g id="cap">
				<path fill="#333333" d="M373.564,64.686c0,0,35.25,2.75,71-5.25l-7.25-2.75c0,0,9-35.25-31.25-43.75c0,0-38,2-28,47.75
					L373.564,64.686z"/>
				<path fill="#707172" d="M394.064,17.686c0,0-23.75,6.25-15.75,42.75l-5,4c0,0,46.75,2,71.75-4.75c0,0-58.738,4.141-63.75,3.25
					c0,0-6-34.25,10-42.25c0,0-5.75,22.25-2.5,39.25c0,0,5.79,4.799,2.5-6.5C391.314,53.436,389.814,23.686,394.064,17.686z"/>
				<path fill="#F7EC3A" d="M393.689,27.186c0,0,3.25,2.125,5.25-1.25c0,0,6.875-6.5,13.875,0l2.125,1.91
					c0,0,0.125,2.84-2.375,0.965c0,0-1.875-2.75-6-3.25c0,0-6.339,0.755-10.875,5.375C395.689,30.936,391.689,30.936,393.689,27.186
					z"/>
				<polygon fill="#F7EC3A" points="397.439,35.436 397.439,39.311 408.314,37.374 408.314,43.186 397.439,44.936 397.439,55.311 
					416.314,55.311 416.314,50.311 400.689,52.061 400.564,47.186 413.564,46.061 413.689,33.061 				"/>
				<polygon fill="#333333" points="401.564,14.603 401.564,9.936 405.064,9.936 406.064,12.936 				"/>
			</g>
			<path fill="#916C58" d="M399.502,98.422c0,0,14.729,1.667,21.063-4.333C420.564,94.089,420.939,101.922,399.502,98.422z"/>
		</g>
		<path fill="#E5BC98" d="M388.27,185.309c0,0-2.512-7.492-6.964-1.271c0,0,0.351,5.805-1.052,7.471c0,0-1.984,5.166,0.432,8.25
			c0,0,7.91,8.166,10.747,8.082c0,0,1.337-2.334-1.497-5.166c0,0-1.417-4.416-0.417-6.084c0,0,1.5-0.832,1.083,4.418
			c0,0-0.25,3.5,1.917,1.5c0,0,1.743-6.834-1.087-11.5C391.432,191.006,388.813,186.539,388.27,185.309z"/>
		<g>
			<path fill="#FFCC67" d="M402.314,108.185h18.25v6.32l12.5,4.25c0,0,12.333,47.5,7.167,67.5c0,0-3.667-6-6.167,0.75l-3-1.875
				c0,0,0.5-24.75-0.75-28c0,0,0.25,11.625-1.875,16.75c0,0-19.375,5.875-36.375-0.25c0,0,0.75-18.125,1.125-20.25
				c0,0-2,10.625-2.875,30.625c0,0-0.146,1.416-1.365,2.633c0,0-4.177-7.758-7.427-0.508c0,0-0.506,2.25-0.92-1.5
				c0,0,2.211-53.125,8.336-65l13-5.125L402.314,108.185z"/>
			<path fill="#F8ED39" d="M385.51,132.096c0,0,6.68,0.284,7.68,2.284c0,0,22.25,0.25,37.75,1.125c0,0,1.652-4.718,5.152-3.593
				l1.207,5.995c0,0-7.234,7.598-15.984,6.973c0,0-20.625,1.5-28.125-2.5c0,0-7.977-2.88-8.852-2.755L385.51,132.096z"/>
			<path fill="#F8ED39" d="M392.75,159.246h37.567c0,0-0.253,9.791-0.97,11.449c0,0-22.949,4.357-37.158,0
				C392.19,170.695,391.852,166.154,392.75,159.246z"/>
			<path fill="#F8ED39" d="M431.147,170.836c0,0,6.151-4.416,10.284-0.582c0,0,0.091,2.586,0.061,4.25c0,0-7.814-0.498-10.33,0.668
				C431.162,175.172,431.183,173.584,431.147,170.836z"/>
			<path fill="#F8ED39" d="M381.225,173.184c0,0,7.02-1.58,9.68,0.58l0.407-5.074c0,0-6.75-1.568-9.79,0L381.225,173.184z"/>
		</g>
		<path fill="#CDCCCC" d="M410.418,108.185l-0.385,68.065c0,0,1.781,0.762,3.031,0l-0.75-68.065H410.418z"/>
		<path fill="#E5BC98" d="M433.48,186.641c0,0,2.511-7.492,6.964-1.271c0,0-0.351,5.805,1.052,7.471c0,0,1.984,5.168-0.432,8.25
			c0,0-7.91,8.166-10.747,8.084c0,0-1.337-2.334,1.497-5.168c0,0,1.417-4.416,0.417-6.082c0,0-1.5-0.834-1.083,4.416
			c0,0,0.25,3.5-1.917,1.5c0,0-1.743-6.832,1.087-11.5C430.317,192.34,432.936,187.871,433.48,186.641z"/>
		<path fill="#FBB267" d="M410.818,188.256c0,0-5.396,58.24-6.583,67.49c-0.06,0.465-0.146,0.803-0.146,1.01
			c-0.025,6.5-13.775,9.75-15.775,0c0,0,3.721-78.074,4.734-82.787c0,0,23.789,4.5,35.391-0.088l3.958,82.209
			c0,0-0.414,3.045-3.333,6.105h-10.5c0,0-2.333-1.107-3-5.939L410.818,188.256z"/>
		<polygon fill="#F8ED39" points="389.189,232.143 406.571,233.09 405.586,243.09 388.314,243.09 		"/>
		<polygon fill="#F8ED39" points="413.947,233.09 431.291,233.09 431.789,243.445 414.689,243.73 		"/>
		<path fill="#333332" d="M389.694,259.99c0,0-2.004,7.766,2.433,15.6c0,0-7.729,5.334-7.563,8.666c0,0,3.126,4,7.563,1.166
			c0,0,4.771-7.334,6.438-7.5c0,0-0.777-12.658,1.445-15.912C400.01,262.01,392.324,260.559,389.694,259.99z"/>
		<path fill="#333332" d="M418.564,262.195v15.895c0,0,2,1.75,4.305,3c0,0,2.195,4.695,4.029,5.35c0,0,5,1.15,6.667-1.35
			c0,0,2.667-4.334-6.167-8.666c0,0-0.697-5.955,1.667-14.229H418.564z"/>
	</g>
	<path fill="#333333" d="M402.815,74.646c0,0-3.25-1.5-4.625,1.75l1.218,0.281C399.408,76.677,400.628,74.646,402.815,74.646z"/>
	<path fill="#333333" d="M411.357,73.046c0,0,5.667-5.657,7.167,4.134C418.524,77.18,414.69,72.787,411.357,73.046z"/>
	<path fill="#937663" d="M406.064,75.488c0,0-6.667,14.448,3.125,11.948C409.189,87.436,401.147,88.874,406.064,75.488z"/>
</g>
<g>
	<path fill="#84D0D2" d="M533.909,163.514c0,0-0.521,10.703,1.828,12.896l-1.877,98.223c0,0,2.816-2.508,5.166,0l7.833-92.896
		c0,0,7.206,0.313,9.869-0.781c0,0,6.735,73.779,7.205,93.678c0,0,2.663-4.074,5.327,0l-0.627-100.963c0,0,3.289-2.221,0.627-10.156
		C566.599,155.576,534.823,161.66,533.909,163.514z"/>
	<path fill="#181818" d="M569.387,273.963c0,0,6.814,12.141,8.812,13.785c0,0-5.287,4.111-9.869,0c0,0-4.936-2.352-5.757-4.816
		c0,0-0.901-6.658,1.486-8.969C564.06,273.963,566.625,269.189,569.387,273.963z"/>
	<path fill="#181818" d="M533.911,272.797c0,0-6.356,12.141-8.354,13.785c0,0,5.286,4.111,9.868,0c0,0,4.936-2.352,5.758-4.816
		c0,0,0.9-6.658-1.488-8.969C539.694,272.797,536.672,268.023,533.911,272.797z"/>
	<g>
		<path fill="#E5BC98" d="M526.791,60.396c0,0-3-24,0-34c0,0,23.333-16.333,45.333,0c0,0,4.667,19,2.667,34
			c0,0,5.833-15.5,9.667-4.833c0,0-1.5,19.833-10.667,17c0,0-2.167,19.5-17.667,21.167h-9.167c0,0-15.333-2.833-20.333-20
			c0,0-5.667,2.167-8.833-10.333C517.791,63.396,515.958,45.23,526.791,60.396z"/>
		<path fill="#635B42" d="M527.125,60.729c0,0-4.167-2.5-5.667-7.667c0,0-2.5-7.833-1.833-19.667c0,0-0.5-0.5-2.333,1.167
			c0,0,0.833-6.833,3.5-8.5c0,0-4-2.333-5.333,0c0,0,2.833-4.667,5.833-5.167c0,0-1.167-1.833-2.167-2c0,0,6.5-3.5,9.333-2.5
			c0,0-1.333-2.667-3.167-2.5c0,0,7.833-1,10.5,1c0,0,8.333-5,11.667-5.333l1.333,1.5c0,0,20.333,0.167,21.167,4
			c0,0,4.167-0.333,6.167,1.833c0,0-2.333,0-3,1c0,0,8,2.666,9,4.833c0,0-2-0.167-2.667,1c0,0,4.667,4,5,6.667
			c0,0-1.833,0.667-2.167,1.5c0,0,2.167,4.833,2.167,6.833c0,0-1.833-1.833-2.667-1.167c0,0-2.261,14.468-2.261,15.135
			c0,0-1.656,0.469-4.739,7.698l-1.833-12.5c0,0-3.667-4.5-1.667-20.667c0,0-14.5-5.833-21.333-2.333c0,0-6,2.166-9.333-0.667
			c0,0-10.333-1.833-13,2.333c0,0,2.338,18.36-1.5,23.5L527.125,60.729z"/>
		<path fill="#E5BC98" d="M579.526,119.892c0,0,5.289,39.702,2.887,48.485c0,0,2.439,7.885,1.988,11.152
			c0,0,0.113,4.055-3.717,6.307l-4.617,3.717c0,0-4.168,3.943-3.153-0.676c0,0,3.604-3.828,2.59-8.223c0,0-0.786-3.041-2.139,0.227
			c0,0,0.563,9.461-1.69,4.504c0,0-1.068-8.334,1.186-11.316c0,0,2.928-4.846,3.939-5.521l-4.423-46.611L579.526,119.892z"/>
		<path fill="#E5BC98" d="M532.253,118.936l-4.423,46.611c1.013,0.676,3.94,5.521,3.94,5.521c2.252,2.982,1.185,11.316,1.185,11.316
			c-2.254,4.957-1.69-4.504-1.69-4.504c-1.353-3.268-2.139-0.227-2.139-0.227c-1.016,4.395,2.59,8.223,2.59,8.223
			c1.014,4.619-3.154,0.676-3.154,0.676l-4.617-3.717c-3.829-2.252-3.717-6.307-3.717-6.307c-0.451-3.27,1.989-11.152,1.989-11.152
			c-2.403-8.783,2.886-48.485,2.886-48.485L532.253,118.936z"/>
		<path fill="#A1DADC" d="M543.963,99.089c0,0-13.476,3.375-15.476,4.125l-6.625,17.75l12.533,0.935l-2.793,44.178
			c0,0,16.945,5.574,41.07-0.176l-0.561-43.688l9.781-1.25l-6.031-17.875l-16.938-4"/>
		<path fill="#AB8F70" d="M518.625,77.563"/>
	</g>
	<polygon fill="#E5BC98" points="546.544,93.604 546.544,98.27 543.877,99.104 552.877,119.77 559.877,98.604 555.877,98.104 
		555.544,93.604 	"/>
	<path fill="#333333" d="M549.667,43.818c0,0,7.693-7.778,17,1.5l-1.75,4.25C564.917,49.568,560.167,41.818,549.667,43.818z"/>
	<path fill="#333333" d="M543.542,43.943c0,0-8.125-1.5-11.375,2.625l1.375,3C533.542,49.568,536.829,44.582,543.542,43.943z"/>
	<ellipse fill="#FFFFFF" cx="558.542" cy="54.818" rx="3.375" ry="3.125"/>
	<ellipse fill="#333333" cx="558.542" cy="54.818" rx="1.875" ry="1.736"/>
	<ellipse fill="#FFFFFF" cx="540.542" cy="54.818" rx="3.375" ry="3.125"/>
	<ellipse fill="#333333" cx="541.542" cy="54.818" rx="1.875" ry="1.736"/>
	<path fill="#553E34" d="M540.542,79.693c0,0,17,2.25,19.875-1.75C560.417,77.943,558.667,82.943,540.542,79.693z"/>
	<path fill="#A88B65" d="M560.042,72.818c0,0,0.313,9.188,3.375,10.313C563.417,83.13,560.729,80.193,560.042,72.818z"/>
	<path fill="#A88B65" d="M538.604,83.693c0,0,2.688-3.125,2.938-9.313C541.542,74.38,540.354,80.818,538.604,83.693z"/>
	<path fill="#AA8A72" d="M548.583,57.943c0,0-9,9.244,0,9.744C548.583,67.687,534.93,69.199,548.583,57.943z"/>
</g>
</svg>
