<?xml version="1.0" encoding="utf-8"?>
<!-- Generator: Adobe Illustrator 16.0.0, SVG Export Plug-In . SVG Version: 6.00 Build 0)  -->
<!DOCTYPE svg PUBLIC "-//W3C//DTD SVG 1.1//EN" "http://www.w3.org/Graphics/SVG/1.1/DTD/svg11.dtd">
<svg version="1.1" id="Layer_1" xmlns="http://www.w3.org/2000/svg" xmlns:xlink="http://www.w3.org/1999/xlink" x="0px" y="0px"
	 width="684px" height="296.64px" viewBox="0 0 684 296.64" enable-background="new 0 0 684 296.64" xml:space="preserve">
<rect x="-4.332" fill="#A7C5C5" width="688.332" height="296.64"/>
<g>
	<path fill="#213970" d="M306.482,170.767c0,0-1.374,5.562,0.626,8.437l-1.086,68.125l6.086,0.625c0,0,4.375-60.875,6.125-62.625
		l8.75,0.25c0,0,3,26.375,4.75,62.375h7.25v-77.187l-0.75-8.063h-17h-15.5L306.482,170.767z"/>
	<path fill="#E2C193" d="M346.143,178.413c0,0,2.047-5.639,5.68-0.958c0,0-0.287,4.368,0.857,5.624c0,0,1.619,3.889-0.352,6.209
		c0,0-6.451,6.145-8.764,6.084c0,0-1.091-1.758,1.221-3.89c0,0,1.154-3.324,0.338-4.579c0,0-1.221-0.626-0.881,3.325
		c0,0,0.203,2.634-1.565,1.128c0,0-1.421-5.142,0.887-8.653C343.564,182.703,345.699,179.341,346.143,178.413z"/>
	<path fill="#E2C193" d="M302.223,181.87c2.309,3.512,0.888,8.653,0.888,8.653c-1.768,1.506-1.564-1.128-1.564-1.128
		c0.34-3.951-0.882-3.325-0.882-3.325c-0.815,1.255,0.339,4.579,0.339,4.579c2.312,2.132,1.22,3.89,1.22,3.89
		c-2.313,0.061-8.763-6.084-8.763-6.084c-1.971-2.32-0.353-6.209-0.353-6.209c1.145-1.256,0.858-5.624,0.858-5.624
		c3.632-4.681,5.679,0.958,5.679,0.958C300.089,178.508,302.223,181.87,302.223,181.87z"/>
	<path fill="#C3D82E" d="M332.289,100.935l7.496,3.268l-3.748,5c0,0,8.946,3.5,9.696,4.375c0,0,8.5,47.5,7.75,64h-8.5
		c0,0-1.75-37-3.625-41.375c0,0,0.75,27.125,1,34.375l-15.375,0.25l-4.115-5h-0.902l-4.857,5.125l-14.25-0.25
		c0,0,2-29.25,2.375-33.375c0,0-3.75,20.125-3.625,40.25h-9.125c0,0,5.5-59.625,8.125-63.125c0,0,0.75-2.625,10.875-5.25l-4.875-6
		l5.289-2.555L332.289,100.935z"/>
	<path fill="#333333" d="M292.19,59.28c0,0,0.146,8.549,2.209,8.799c0,0,4.084,3.041,4.021,7.041l0.417-15.673
		C298.837,59.447,293.815,58.524,292.19,59.28z"/>
	<path fill="#333333" d="M339.785,57.241c0,0,3.385,14.212,3.198,17.275c0,0,0.937-3.65,3.875-8.638c0,0,1.994-4.431,2.217-10.021
		C349.074,55.856,340.711,55.528,339.785,57.241z"/>
	<path fill="#E2C193" d="M298.275,59.447v13.506c0,0-5.667-11.333-6.833,0c0,0,3.333,16.167,8.333,11.833c0,0,5.5,16.833,17,17
		c0,0,10.271,1.271,13.396,0c0,0,8.813-1.708,12.5-17.271c0,0,8.25,3.125,9.812-15.125c0,0,0.438-8.438-5.938-3.188
		c0,0-3.313,5.313-3.5,8.563c0,0-1.57-16.037-3.314-17.519C339.731,57.247,302.629,57.754,298.275,59.447z"/>
	<path fill="#333333" d="M314.671,60.936c0,0-5.313,0.125-7.813,3.75c0,0-2.999-0.613-2.125-3c0,0,4.877-3.085,9.938-2.542V60.936z"
		/>
	<path fill="#333333" d="M326.059,59.436c0,0,5.313,0.125,7.813,3.75c0,0,3-0.613,2.125-3c0,0-4.876-3.085-9.938-2.542V59.436z"/>
	<g>
		<polygon fill="#EAE8DF" points="313.678,16.053 313.678,12.044 316.934,12.044 317.865,14.62 		"/>
		<path fill="#EAE8DF" d="M287.629,59.056c0,0,32.794,2.36,66.052-4.509l-6.744-2.361c0,0,8.373-30.267-29.073-37.564
			c0,0-35.352,1.717-26.049,41L287.629,59.056z"/>
		<path fill="#D8D8D8" d="M306.701,18.699c0,0-22.095,5.367-14.651,36.708l-4.651,3.434c0,0,43.492,1.718,66.75-4.078
			c0,0-54.645,3.556-59.308,2.791c0,0-5.582-29.409,9.304-36.277c0,0-5.351,19.104-2.326,33.701c0,0,5.387,4.121,2.326-5.581
			C304.143,49.396,302.748,23.852,306.701,18.699z"/>
		<path fill="#888888" d="M338.766,44.058c0,0,5.781,1.875,8.843,3.938l-0.504,3.563l-11.1,0.375L338.766,44.058z"/>
		<path fill="#818181" d="M292.902,44.197c0,0-1.546,9.308,4.881,11.241c6.428,1.933,0,0.245,0,0.245s-4.136,2.313-7.886-1.375
			C289.897,54.308,284.594,45.461,292.902,44.197z"/>
		<path fill="#404140" d="M333.022,46.017h5.958c0,0-2.834,10.875-12.5,10.917c0,0-5.249-0.417-12.416-3.917
			c0,0-5.709-2.125-10.084,0.083c0,0-7.208,10.208-14.791,1.75c0,0-7.709-8.875,5.958-14.792c0,0,22.75-7.5,39.668-2.042
			c0,0,4.247,3.292,4.165,8L333.022,46.017c0-0.001,1.252-6.584-8.207-6.043c0,0-22.543-0.042-28.834,3.042
			c0,0-11.209,2.542-4.834,10.979c0,0,6.792,5.924,11.125-3.625c0,0,4.25-8.5,14.063,0.75c0,0,6.25,5.875,10.063,4.75
			C326.397,55.87,332.23,54.642,333.022,46.017z"/>
	</g>
	<path fill="#E2C193" d="M318.122,101.935c0,0-3.89,14.878,3.843,24.019c0,0,4.143-3.107,6.143-8.991c0,0,1.25-7.384,1.25-12.259
		l-0.625-2.352L318.122,101.935z"/>
	<path fill="#213970" d="M318.122,101.935c0,0-1.264,8.019,0.611,11.019c0,0,3.34,8,3.232,11.5c0,0,2.643-6.102,3.893-11.051
		c0,0,3.273-5.408,0.898-11.051h5.977c0,0-1.125,21.977-10.25,29.227c0,0-7.337-10.125-9.481-27.875
		C313.002,103.703,312.747,102.583,318.122,101.935z"/>
	<path fill="#E6E6E5" d="M305.733,137.828c0,0,26.125-3.375,34.875-3.5v4.5l-34.875,1.75V137.828z"/>
	<path fill="#E6E6E5" d="M308.483,110.328l3.125-0.75c0,0,3.982,22.348,2.866,27.174l-3.495,0.421
		C310.979,137.173,308.858,111.953,308.483,110.328z"/>
	<path fill="#E6E6E5" d="M333.858,109.578c0,0,1.295-0.5,2.147,0.625l0.723,24.303l-2.87,0.215V109.578z"/>
	<polygon fill="#E6E6E5" points="304.108,153.828 340.608,153.828 341.608,158.203 304.108,158.703 	"/>
	<rect x="303.483" y="246.953" fill="#232323" width="11.625" height="7.125"/>
	<path fill="#333333" d="M305.733,254.078v18c0,0,3-3.875,5-0.875l2.125-17.125H305.733z"/>
	<polygon fill="#161616" points="329.858,246.953 340.858,246.953 340.858,254.078 329.858,253.453 	"/>
	<path fill="#333333" d="M331.588,253.552l2.02,17.526c0,0,2.75-3.625,5.375-0.375l0.75-17.151H331.588z"/>
	<path fill="#161616" d="M333.608,271.078c0,0-5.625,9.75,0.625,10.625c0,0,3.375,4.125,10.25,1.625c0,0-5.74-8.64-5.5-12.625
		C338.983,270.703,336.108,266.641,333.608,271.078z"/>
	<path fill="#171717" d="M305.065,271.126c0,0-6.357,12.141-8.354,13.785c0,0,5.286,4.111,9.868,0c0,0,4.936-2.351,5.758-4.816
		c0,0,0.9-6.658-1.488-8.969C310.848,271.126,307.826,266.352,305.065,271.126z"/>
	<path fill="#333333" d="M314.671,70.203c0,1.243-1.007,2.25-2.25,2.25h-0.549c-1.243,0-2.25-1.007-2.25-2.25l0,0
		c0-1.243,1.007-2.25,2.25-2.25h0.549C313.664,67.953,314.671,68.96,314.671,70.203L314.671,70.203z"/>
	<path fill="#333333" d="M330.296,70.203c0,1.243-1.007,2.25-2.25,2.25h-0.549c-1.243,0-2.25-1.007-2.25-2.25l0,0
		c0-1.243,1.007-2.25,2.25-2.25h0.549C329.289,67.953,330.296,68.96,330.296,70.203L330.296,70.203z"/>
	<path fill="#BDA586" d="M319.378,75.12c0,0-8.396,11.958,2.354,8.958C321.733,84.078,313.274,86.287,319.378,75.12z"/>
	<path fill="#9B7F63" d="M312.147,87.828c0,0,0.365,5.625-2.524,8c0,0,1.968-2.875,2.539-8.5"/>
	<path fill="#9B7F63" d="M329.358,85.703c0,0,0.667,8.75,3.375,10.125C332.733,95.828,330.108,92.037,329.358,85.703z"/>
	<path fill="#543D33" d="M311.514,92.84c0,0,16.238,1.799,18.5-2.669C330.014,90.171,328.337,96.477,311.514,92.84z"/>
</g>
<g>
	<path fill="#213970" d="M482.565,169.695c0,0-1.374,5.563,0.626,8.438l-1.086,68.125l6.086,0.625c0,0,4.375-60.875,6.125-62.625
		l8.75,0.25c0,0,3,26.375,4.75,62.375h7.25v-77.188l-0.75-8.063h-17h-15.5L482.565,169.695z"/>
	<path fill="#E2C193" d="M522.227,177.342c0,0,2.047-5.639,5.679-0.957c0,0-0.286,4.367,0.858,5.623c0,0,1.618,3.889-0.353,6.209
		c0,0-6.45,6.145-8.763,6.084c0,0-1.092-1.758,1.22-3.889c0,0,1.154-3.324,0.339-4.58c0,0-1.222-0.625-0.882,3.326
		c0,0,0.203,2.633-1.564,1.127c0,0-1.421-5.141,0.888-8.652C519.648,181.633,521.782,178.27,522.227,177.342z"/>
	<path fill="#E2C193" d="M478.307,180.799c2.309,3.512,0.888,8.654,0.888,8.654c-1.768,1.506-1.564-1.129-1.564-1.129
		c0.34-3.951-0.882-3.324-0.882-3.324c-0.815,1.254,0.339,4.578,0.339,4.578c2.312,2.133,1.22,3.891,1.22,3.891
		c-2.313,0.061-8.763-6.084-8.763-6.084c-1.971-2.32-0.353-6.209-0.353-6.209c1.145-1.256,0.858-5.625,0.858-5.625
		c3.632-4.68,5.679,0.959,5.679,0.959C476.173,177.438,478.307,180.799,478.307,180.799z"/>
	<path fill="#213970" d="M508.372,99.864l7.496,3.268l-3.748,5c0,0,8.946,3.5,9.696,4.375c0,0,8.5,47.5,7.75,64h-8.5
		c0,0-1.75-37-3.625-41.375c0,0,0.75,27.125,1,34.375l-15.375,0.25l-4.115-5h-0.902l-4.857,5.125l-14.25-0.25
		c0,0,2-29.25,2.375-33.375c0,0-3.75,20.125-3.625,40.25h-9.125c0,0,5.5-59.625,8.125-63.125c0,0,0.969-2.641,10.875-5.25l-4.875-6
		l5.289-2.555L508.372,99.864z"/>
	<path fill="#333333" d="M468.273,58.209c0,0,0.146,8.549,2.209,8.799c0,0,4.084,3.041,4.021,7.041l0.417-15.673
		C474.921,58.376,469.898,57.454,468.273,58.209z"/>
	<path fill="#333333" d="M515.868,56.17c0,0,3.386,14.212,3.198,17.275c0,0,0.938-3.65,3.875-8.638c0,0,1.994-4.431,2.216-10.021
		C525.157,54.786,516.795,54.458,515.868,56.17z"/>
	<path fill="#E2C193" d="M474.358,58.376v13.506c0,0-5.667-11.333-6.833,0c0,0,3.333,16.167,8.333,11.833c0,0,5.5,16.833,17,17
		c0,0,10.271,1.271,13.396,0c0,0,8.813-1.708,12.5-17.271c0,0,8.25,3.125,9.813-15.125c0,0,0.438-8.438-5.938-3.188
		c0,0-3.313,5.313-3.5,8.563c0,0-1.57-16.037-3.314-17.519C515.814,56.176,478.713,56.683,474.358,58.376z"/>
	<path fill="#333333" d="M490.755,59.865c0,0-5.313,0.125-7.813,3.75c0,0-2.999-0.613-2.125-3c0,0,4.877-3.085,9.938-2.542V59.865z"
		/>
	<path fill="#333333" d="M502.143,58.365c0,0,5.313,0.125,7.813,3.75c0,0,3-0.613,2.125-3c0,0-4.877-3.085-9.938-2.542V58.365z"/>
	<g>
		<polygon fill="#DD982F" points="489.762,14.982 489.762,10.973 493.018,10.973 493.948,13.549 		"/>
		<path fill="#DD982F" d="M463.713,57.985c0,0,32.794,2.36,66.053-4.509l-6.745-2.361c0,0,8.373-30.267-29.072-37.564
			c0,0-35.352,1.717-26.049,41L463.713,57.985z"/>
		<path fill="#EBC389" d="M482.784,17.628c0,0-22.095,5.367-14.651,36.708l-4.651,3.434c0,0,43.492,1.718,66.75-4.078
			c0,0-54.645,3.556-59.308,2.791c0,0-5.582-29.409,9.304-36.277c0,0-5.351,19.104-2.326,33.701c0,0,5.387,4.121,2.326-5.581
			C480.227,48.325,478.831,22.781,482.784,17.628z"/>
		<path fill="#888888" d="M514.85,42.987c0,0,5.78,1.875,8.843,3.938l-0.503,3.563l-11.101,0.375L514.85,42.987z"/>
		<path fill="#818181" d="M468.985,43.126c0,0-1.546,9.308,4.881,11.241c6.428,1.933,0,0.245,0,0.245s-4.136,2.313-7.886-1.375
			C465.98,53.237,460.678,44.39,468.985,43.126z"/>
		<path fill="#404140" d="M509.105,44.946h5.958c0,0-2.834,10.875-12.5,10.917c0,0-5.249-0.417-12.416-3.917
			c0,0-5.709-2.125-10.084,0.083c0,0-7.208,10.208-14.791,1.75c0,0-7.709-8.875,5.958-14.792c0,0,22.75-7.5,39.668-2.042
			c0,0,4.247,3.292,4.165,8L509.105,44.946c0-0.001,1.252-6.584-8.207-6.043c0,0-22.543-0.042-28.834,3.042
			c0,0-11.209,2.542-4.834,10.979c0,0,6.792,5.924,11.125-3.625c0,0,4.25-8.5,14.063,0.75c0,0,6.25,5.875,10.063,4.75
			C502.48,54.799,508.313,53.571,509.105,44.946z"/>
	</g>
	<path fill="#E2C193" d="M494.205,100.864c0,0-3.889,14.878,3.844,24.019c0,0,4.143-3.107,6.143-8.991c0,0,1.25-7.384,1.25-12.259
		l-0.625-2.352L494.205,100.864z"/>
	<path fill="#213970" d="M494.205,100.864c0,0-1.264,8.019,0.611,11.019c0,0,3.34,8,3.232,11.5c0,0,2.643-6.102,3.893-11.051
		c0,0,3.273-5.408,0.898-11.051h5.977c0,0-1.125,21.977-10.25,29.227c0,0-7.337-10.125-9.48-27.875
		C489.086,102.632,488.83,101.512,494.205,100.864z"/>
	<path fill="#C3D82E" d="M516.691,109.994c0,0-1.563,19.889,0.75,25.139l1,34.375l-15.375,0.25l-4.115-5
		c0,0-3.59-24.5,13.169-56.625L516.691,109.994z"/>
	<path fill="#C3D82E" d="M482.067,109.871c0,0,1.437,20.012-0.876,25.262l-2.25,34.5l16.625,0.125l2.482-5
		c0,0,1.633-25.25-10.482-56.625L482.067,109.871z"/>
	<path fill="#E6E6E5" d="M481.076,136.904c0,0,5.531-1.655,14.281-1.78l0.674,3.67l-15.137,0.898L481.076,136.904z"/>
	<path fill="#E6E6E5" d="M517.481,136.49c0,0-6.887-1.679-15.637-1.804l-0.871,3.658l16.582,0.91L517.481,136.49z"/>
	<path fill="#E6E6E5" d="M484.489,109.105l2.908-0.919c0,0,4.276,22.669,3.16,27.496l-3.495,0.421
		C487.063,136.102,484.864,110.73,484.489,109.105z"/>
	<path fill="#E6E6E5" d="M512.88,108.507c0,0,0.853,0.16,1.836,0.682l-1.984,26.414l-3.121-0.413L512.88,108.507z"/>
	<polygon fill="#E6E6E5" points="480.042,152.758 497.77,152.758 498.037,157.391 479.724,157.633 	"/>
	<polygon fill="#E6E6E5" points="517.943,152.898 498.835,152.898 498.628,157.531 518.085,157.773 	"/>
	<rect x="479.566" y="245.883" fill="#232323" width="11.625" height="7.125"/>
	<path fill="#333333" d="M481.816,253.008v18c0,0,3-3.875,5-0.875l2.125-17.125H481.816z"/>
	<polygon fill="#161616" points="505.941,245.883 516.941,245.883 516.941,253.008 505.941,252.383 	"/>
	<path fill="#333333" d="M507.672,252.48l2.02,17.527c0,0,2.75-3.625,5.375-0.375l0.75-17.152H507.672z"/>
	<path fill="#161616" d="M509.691,270.008c0,0-5.625,9.75,0.625,10.625c0,0,3.375,4.125,10.25,1.625c0,0-5.74-8.641-5.5-12.625
		C515.066,269.633,512.191,265.57,509.691,270.008z"/>
	<path fill="#171717" d="M481.148,270.055c0,0-6.357,12.141-8.354,13.785c0,0,5.286,4.111,9.868,0c0,0,4.936-2.35,5.758-4.816
		c0,0,0.9-6.658-1.488-8.969C486.932,270.055,483.909,265.281,481.148,270.055z"/>
	<path fill="#333333" d="M490.755,69.132c0,1.243-1.007,2.25-2.25,2.25h-0.549c-1.243,0-2.25-1.007-2.25-2.25l0,0
		c0-1.243,1.007-2.25,2.25-2.25h0.549C489.748,66.882,490.755,67.89,490.755,69.132L490.755,69.132z"/>
	<path fill="#333333" d="M506.38,69.132c0,1.243-1.007,2.25-2.25,2.25h-0.549c-1.243,0-2.25-1.007-2.25-2.25l0,0
		c0-1.243,1.007-2.25,2.25-2.25h0.549C505.373,66.882,506.38,67.89,506.38,69.132L506.38,69.132z"/>
	<path fill="#BDA586" d="M495.079,70.716c0,0-10.513,13.833,2.737,12.292C497.816,83.007,486.191,83.445,495.079,70.716z"/>
	<path fill="#543D33" d="M487.598,91.769c0,0,16.238,1.799,18.5-2.669C506.098,89.1,504.42,95.406,487.598,91.769z"/>
</g>
<g>
	<g>
		<path fill="#213970" d="M121.603,171.532c0,0-1.374,5.563,0.626,8.438l-1.086,68.125l6.086,0.625c0,0,4.375-60.875,6.125-62.625
			l8.75,0.25c0,0,3,26.375,4.75,62.375h7.25v-77.188l-0.75-8.063h-17h-15.5L121.603,171.532z"/>
		<path fill="#E2C193" d="M161.264,179.179c0,0,2.047-5.639,5.679-0.957c0,0-0.286,4.367,0.858,5.623c0,0,1.618,3.889-0.353,6.209
			c0,0-6.45,6.145-8.763,6.084c0,0-1.092-1.758,1.22-3.889c0,0,1.154-3.324,0.339-4.58c0,0-1.222-0.625-0.882,3.326
			c0,0,0.203,2.633-1.564,1.127c0,0-1.421-5.141,0.888-8.652C158.686,183.47,160.82,180.106,161.264,179.179z"/>
		<path fill="#E2C193" d="M117.344,182.636c2.309,3.512,0.888,8.654,0.888,8.654c-1.768,1.506-1.564-1.129-1.564-1.129
			c0.34-3.951-0.882-3.324-0.882-3.324c-0.815,1.254,0.339,4.578,0.339,4.578c2.312,2.133,1.22,3.891,1.22,3.891
			c-2.313,0.061-8.763-6.084-8.763-6.084c-1.971-2.32-0.353-6.209-0.353-6.209c1.145-1.256,0.858-5.625,0.858-5.625
			c3.632-4.68,5.679,0.959,5.679,0.959C115.21,179.274,117.344,182.636,117.344,182.636z"/>
		<path fill="#213970" d="M147.41,101.701l7.496,3.268l-3.748,5c0,0,8.946,3.5,9.696,4.375c0,0,8.5,47.5,7.75,64h-8.5
			c0,0-1.75-37-3.625-41.375c0,0,0.75,27.125,1,34.375l-15.375,0.25l-4.115-5h-0.902l-4.857,5.125l-14.25-0.25
			c0,0,2-29.25,2.375-33.375c0,0-3.75,20.125-3.625,40.25h-9.125c0,0,5.5-59.625,8.125-63.125c0,0,0.969-2.641,10.875-5.25l-4.875-6
			l5.289-2.555L147.41,101.701z"/>
		<path fill="#333333" d="M107.311,60.046c0,0,0.146,8.549,2.209,8.799c0,0,4.084,3.041,4.021,7.041l0.417-15.673
			C113.958,60.213,108.936,59.291,107.311,60.046z"/>
		<path fill="#333333" d="M154.906,58.007c0,0,3.386,14.212,3.198,17.275c0,0,0.938-3.65,3.875-8.638c0,0,1.994-4.431,2.216-10.021
			C164.195,56.623,155.833,56.294,154.906,58.007z"/>
		<path fill="#E2C193" d="M113.396,60.213v13.506c0,0-5.667-11.333-6.833,0c0,0,3.333,16.167,8.333,11.833c0,0,5.5,16.833,17,17
			c0,0,10.271,1.271,13.396,0c0,0,8.813-1.708,12.5-17.271c0,0,8.25,3.125,9.813-15.125c0,0,0.438-8.438-5.938-3.188
			c0,0-3.313,5.313-3.5,8.563c0,0-1.57-16.037-3.314-17.519C154.852,58.013,117.75,58.52,113.396,60.213z"/>
		<path fill="#333333" d="M129.792,61.702c0,0-5.313,0.125-7.813,3.75c0,0-2.999-0.613-2.125-3c0,0,4.877-3.085,9.938-2.542V61.702z
			"/>
		<path fill="#333333" d="M141.18,60.202c0,0,5.313,0.125,7.813,3.75c0,0,3-0.613,2.125-3c0,0-4.877-3.085-9.938-2.542V60.202z"/>
		<g>
			<polygon fill="#DD982F" points="128.799,16.819 128.799,12.81 132.055,12.81 132.986,15.386 			"/>
			<path fill="#DD982F" d="M102.75,59.822c0,0,32.794,2.36,66.053-4.509l-6.745-2.361c0,0,8.373-30.267-29.072-37.564
				c0,0-35.352,1.717-26.049,41L102.75,59.822z"/>
			<path fill="#EBC389" d="M121.822,19.465c0,0-22.095,5.367-14.651,36.708l-4.651,3.434c0,0,43.492,1.718,66.75-4.078
				c0,0-54.645,3.556-59.308,2.791c0,0-5.582-29.409,9.304-36.277c0,0-5.351,19.104-2.326,33.701c0,0,5.387,4.121,2.326-5.581
				C119.264,50.162,117.869,24.618,121.822,19.465z"/>
		</g>
		<path fill="#E2C193" d="M133.243,102.701c0,0-3.889,14.878,3.844,24.019c0,0,4.143-3.107,6.143-8.991c0,0,1.25-7.384,1.25-12.259
			l-0.625-2.352L133.243,102.701z"/>
		<path fill="#213970" d="M133.243,102.701c0,0-1.264,8.019,0.611,11.019c0,0,3.34,8,3.232,11.5c0,0,2.643-6.102,3.893-11.051
			c0,0,3.273-5.408,0.898-11.051h5.977c0,0-1.125,21.977-10.25,29.227c0,0-7.337-10.125-9.48-27.875
			C128.124,104.469,127.868,103.349,133.243,102.701z"/>
		<rect x="118.604" y="247.72" fill="#232323" width="11.625" height="7.125"/>
		<path fill="#333333" d="M120.854,254.845v18c0,0,3-3.875,5-0.875l2.125-17.125H120.854z"/>
		<polygon fill="#161616" points="144.979,247.72 155.979,247.72 155.979,254.845 144.979,254.22 		"/>
		<path fill="#333333" d="M146.709,254.317l2.02,17.527c0,0,2.75-3.625,5.375-0.375l0.75-17.152H146.709z"/>
		<path fill="#161616" d="M148.729,271.845c0,0-5.625,9.75,0.625,10.625c0,0,3.375,4.125,10.25,1.625c0,0-5.74-8.641-5.5-12.625
			C154.104,271.47,151.229,267.407,148.729,271.845z"/>
		<path fill="#171717" d="M120.186,271.892c0,0-6.357,12.141-8.354,13.785c0,0,5.286,4.111,9.868,0c0,0,4.936-2.35,5.758-4.816
			c0,0,0.9-6.658-1.488-8.969C125.969,271.892,122.947,267.118,120.186,271.892z"/>
		<path fill="#BDA586" d="M134.121,68.965c0,0-10.517,17.421,2.733,15.879C136.854,84.844,125.809,85.465,134.121,68.965z"/>
		<path fill="#543D33" d="M126.635,93.606c0,0,16.238,1.799,18.5-2.669C145.135,90.937,143.458,97.243,126.635,93.606z"/>
	</g>
	<path fill="#F15623" d="M154.104,111.154c0,0-4.846,33.16,2.71,37.798v2.763c0,0-12.215-2.585-4.848-41.425L154.104,111.154z"/>
	<path fill="#F15623" d="M122.34,111.271c0,0,4.759,33.078-2.797,37.715l-0.199,2.807c0,0,12.612-2.417,5.245-41.257L122.34,111.271
		z"/>
	<polygon fill="#F15623" points="125.809,134.84 150.434,134.84 150.871,137.902 125.809,137.652 	"/>
	<polygon fill="#F15623" points="118.833,159.09 157.105,159.09 157.15,160.622 118.749,160.307 	"/>
	<rect x="141.871" y="133.84" fill="none" stroke="#D8D8D8" stroke-miterlimit="10" width="2.608" height="5"/>
	
		<rect x="150.179" y="120.168" transform="matrix(-0.0614 0.9981 -0.9981 -0.0614 282.9138 -21.3237)" fill="none" stroke="#D8D8D8" stroke-miterlimit="10" width="2.608" height="4.382"/>
	
		<rect x="123.49" y="119.234" transform="matrix(0.1835 0.983 -0.983 0.1835 221.2574 -23.5315)" fill="none" stroke="#D8D8D8" stroke-miterlimit="10" width="2.608" height="4.382"/>
	<path fill="#333333" d="M122.934,71.104c0,0,1.375-7.25,5.75-2.875C128.684,68.229,124.184,68.479,122.934,71.104z"/>
	<path fill="#333333" d="M146.746,69.957c0,0-1.375-7.25-5.75-2.875C140.996,67.082,145.496,67.332,146.746,69.957z"/>
</g>
</svg>
