<?xml version="1.0" encoding="utf-8"?>
<!-- Generator: Adobe Illustrator 16.0.0, SVG Export Plug-In . SVG Version: 6.00 Build 0)  -->
<!DOCTYPE svg PUBLIC "-//W3C//DTD SVG 1.1//EN" "http://www.w3.org/Graphics/SVG/1.1/DTD/svg11.dtd">
<svg version="1.1" id="Layer_1" xmlns="http://www.w3.org/2000/svg" xmlns:xlink="http://www.w3.org/1999/xlink" x="0px" y="0px"
	 width="684px" height="296px" viewBox="0 0 684 296" enable-background="new 0 0 684 296" xml:space="preserve">
<rect fill="#A7C5C5" width="684" height="296"/>
<g>
	<g>
		<g>
			<path fill="#E4BB98" d="M564.215,132.645l3.721,41.974c-0.901,0.601-3.508,4.912-3.508,4.912
				c-2.006,2.657-1.053,10.074-1.053,10.074c2.005,4.416,1.503-4.007,1.503-4.007c1.204-2.907,1.906-0.203,1.906-0.203
				c0.9,3.912-2.308,7.318-2.308,7.318c-0.9,4.11,2.808,0.601,2.808,0.601l4.111-3.308c3.408-2.006,3.31-5.612,3.31-5.612
				c0.4-2.906-1.771-9.925-1.771-9.925c2.137-7.819-3.367-42.712-3.367-42.712L564.215,132.645z"/>
			<path fill="#E4BB98" d="M520.098,134.439c0,0-4.649,34.894-2.512,42.712c0,0-2.174,7.019-1.771,9.924c0,0-0.1,3.608,3.309,5.612
				l4.111,3.309c0,0,3.709,3.509,2.807-0.602c0,0-3.208-3.403-2.306-7.316c0,0,0.702-2.705,1.905,0.203c0,0-0.502,8.42,1.503,4.006
				c0,0,0.952-7.416-1.053-10.072c0,0-2.605-4.313-3.508-4.914l3.723-41.973L520.098,134.439z"/>
			<path fill="#E4BB98" d="M536.49,201.654c0,0-2.231,56.104-2.231,65.76c0,0-1.838,0.689-4.826-1.379
				c0,0,1.012-64.838,0.848-65.451C530.28,200.583,534.134,199.696,536.49,201.654z"/>
			<path fill="#333332" d="M534.285,265.768c0,0-2.438,1.244-4.853,0.268c0,0-0.747,4.885-1.61,5.516c0,0-10.919,6.782-3.907,9.771
				c0,0,4.942,0.977,6.551-2.932c0,0,3.104-6.034,5.747-5.345C536.214,273.045,535.491,268.929,534.285,265.768z"/>
			<path fill="#E4BB98" d="M551.68,201.951c0,0,3.908,55.809,3.908,65.463c0,0,1.839,0.689,4.828-1.379
				c0,0-0.447-64.002-0.282-64.615C560.134,201.419,554.037,199.99,551.68,201.951z"/>
			<path fill="#333332" d="M555.563,265.768c0,0,2.438,1.244,4.853,0.268c0,0,0.746,4.885,1.609,5.516c0,0,10.919,6.782,3.908,9.771
				c0,0-4.941,0.977-6.552-2.932c0,0-3.104-6.034-5.747-5.345C553.634,273.045,554.356,268.929,555.563,265.768z"/>
			<path fill="#27425A" d="M527.901,169.854c0,0-0.461,3.118,1.837,5.122l-1.875,70.276h7.24l5.439-63.444l7.815,0.229l5.559,62.532
				l6.395,0.685v-68.273c0,0,0.69-2.758,1.381-7.126C561.693,169.854,533.188,166.865,527.901,169.854z"/>
			<polygon fill="#939FAB" points="527.135,245.253 527.748,249.698 536.022,248.703 536.022,244.412 			"/>
			<polygon fill="#939FAB" points="562.229,245.253 561.616,249.698 553.341,248.703 553.341,244.412 			"/>
			<path fill="#C23E41" d="M550.221,104.313c0,0,10.936,5.223,13.771,6.449c0,0,4.75-1.149,6.821,26.896l3.676,32.49h-8.122
				c0,0-1.38-32.03-5.058-39.08c0,0-4.291,6.972-4.214,8.428l0.076,7.05c0,0,1.647,4.21,6.554,16.688c0,0,1.851,5.607,0.966,11.939
				c0,0-27.912,0.628-40.708-2.668c0,0,2.605-10.41,8.591-25.128c0,0-1.302-13.169-4.06-15.621c0,0-5.518,30.728-4.598,38.544
				l-8.2,0.076c0,0,4.291-46.971,6.743-53.024c0,0,0.153-5.824,4.522-6.667l11.348-6.037
				C538.33,104.65,545.645,101.464,550.221,104.313z"/>
			<path fill="#C23E41" d="M540.841,101.95c0,0-6.475,6.208-7.677,11.418c0,0,4.467-5.441,6,0c0,0-1.167,11.11,3.861,18.39
				c0,0,5.169-11.417,5.941-20.919c0,0,1.309-1.072,6.135,2.376c0,0-5.415-10.595-7.137-12.119c0,0-1.603-0.198-0.604,4.708
				c0,0-3.548,7.817-3.937,14.662l-1.698-0.244c0,0,0.597-10.099-1.815-12.782C539.911,107.441,541.482,106.546,540.841,101.95z"/>
		</g>
	</g>
	<g>
		<path fill="#E2C193" d="M515.045,78.774c0,0-3.984-9.348,1.687-9.118l7.739-21.455c0,0,24.979-10.881,38.083,2.453
			c0,0,10.805,12.844,9.962,18.107c0,0-0.921,21.355-6.207,25.262l-16.255,6.99c0,0-6.733,2.588-10.24,1.957
			c0,0-11.511,1.092-24.769-21.667C515.045,81.302,514.786,79.135,515.045,78.774z"/>
		<path fill="#47341E" d="M527.507,75.354c0,0-1.917-3.485,0.568-6.129c0,0,5.869-5.324,10.338,2.603c0,0,0.466,1.744-0.772,3.91
			L527.507,75.354z"/>
		<ellipse fill="#E3E6ED" cx="532.622" cy="74.161" rx="5.246" ry="5.402"/>
		<ellipse fill="#8FA1C4" cx="533.073" cy="74.161" rx="2.12" ry="2.149"/>
		<ellipse fill="#364764" cx="532.635" cy="74.363" rx="1.169" ry="1.185"/>
		<path fill="#372117" d="M554.582,75.354c0,0,1.918-3.485-0.568-6.129c0,0-5.868-5.324-10.335,2.603c0,0-0.468,1.744,0.773,3.91
			L554.582,75.354z"/>
		<ellipse fill="#E3E6ED" cx="549.468" cy="74.161" rx="5.246" ry="5.402"/>
		<ellipse fill="#8FA1C4" cx="547.035" cy="73.758" rx="2.12" ry="2.149"/>
		<ellipse fill="#364764" cx="546.607" cy="74.16" rx="1.169" ry="1.184"/>
		<path fill="#553D32" d="M538.499,66.074c0,0-7.72-7.552-13.34-0.92C525.159,65.155,531.483,61.532,538.499,66.074z"/>
		<path fill="#553D32" d="M543.09,65.844c0,0,7.721-7.553,13.339-0.92C556.429,64.924,550.105,61.301,543.09,65.844z"/>
		<path fill="#53433A" d="M530.37,48.813c0,0-3.984,11.34-7.511,13.333c0,0,2.3,11.8-2.911,15.786c0,0,0.613-10.269-3.219-8.276
			c0,0-10.344-30.113,13.182-34.405c0,0,9.193-13.716,29.27,0c0,0,19.769,11.724,14.559,31.799c0,0-2.912,8.812,2.759,13.104
			c0,0,0.688,6.896-5.211,10.191c0,0-1.226,4.981,3.525,6.361c0,0,0.517,2.816-4.886,2.643c0,0,2.241,7.012-2.643,8.335
			c0,0,1.148,6.896-3.276,1.436c0,0-1.093,5.92-10.288,5.057c0,0,9.655-4.596-2.299-6.609c0,0,2.816-2.932,3.16-4.426
			c0,0-4.711,0-4.598-2.758c0,0,12.758-8.391,13.104-15.056c0,0,8.551,2.815,8.274-17.472c0,0-4.367-7.93-10.65,14.75
			c0,0,2.299-17.701-4.981-16.321c0,0-9.118,1.226-15.171-9.425C540.562,56.859,534.315,48.048,530.37,48.813z"/>
		<path fill="#53433A" d="M515.045,78.774c0,0-4.598,6.322,5.517,12.299c0,0-0.689,5.861,4.598,4.253c0,0,0.805,3.333-2.528,3.217
			c0,0,1.839,5.518,6.782,5.632c0,0,2.644,5.632-1.954,5.517c0,0,8.275,6.207,12.069-4.367l0.286-2.241
			c0,0-14.252-3.449-16.78-18.448C523.033,84.636,516.366,88.717,515.045,78.774z"/>
		<path fill="#AD9272" d="M538.499,78.027c0,0-6.501,5.92,1.833,7.415C540.331,85.441,533.401,83.588,538.499,78.027z"/>
		<path fill="#5E302D" d="M536.084,91.13c0,0,10.512,3.276,14.648-3.735C550.732,87.395,546.953,95.499,536.084,91.13z"/>
		<path fill="#E2C193" d="M539.813,103.084c0,0-0.104,16.264,3.31,21.78c0,0,4.36-11.18,4.405-23.003
			C547.527,101.861,541.94,101.246,539.813,103.084z"/>
	</g>
</g>
<g>
	<path fill="#E2C193" d="M437.795,175.741c0,0,3.315,13.706,1.919,18.051c0,0-7.14,7.759-9.467,9.001c0,0-4.501,3.881-2.639-1.24
		c0,0,4.035-3.57,2.482-10.243c0,0-2.639,0.829-1.707,4.345c0,0-3.259,11.951-1.862-6.983c0,0,2.328-5.587,4.656-8.381l1.34-4.549
		C432.518,175.741,434.652,174.034,437.795,175.741z"/>
	<path fill="#E2C193" d="M382.11,175.552c0,0-3.315,13.705-1.919,18.051c0,0,7.14,7.758,9.467,9c0,0,4.501,3.882,2.639-1.24
		c0,0-4.035-3.57-2.482-10.243c0,0,2.639,0.83,1.706,4.346c0,0,3.26,11.95,1.863-6.984c0,0-2.328-5.587-4.656-8.381l-1.34-4.548
		C387.388,175.552,385.253,173.844,382.11,175.552z"/>
	<path fill="#751113" d="M394.784,179.635l-1.396,79.815h4.501l7.604-72.942h7.294c0,0,6.983,57.422,6.983,72.942h4.346v-79.522
		C424.116,179.928,406.27,168.57,394.784,179.635z"/>
	<path fill="#E9E9E9" d="M390.794,174.537v4.366c0,0,24.869,5.281,36.115,0v-3.887C426.909,175.017,397.358,171.257,390.794,174.537
		z"/>
	<path fill="#212221" d="M387.955,177.816c0,0-0.31-19.243,2.483-23.899l-1.246,20.175c0,0,19.87,6.208,38.804,0.621l-1.241-29.797
		c0,0,4.966,12.416,4.966,32.901h6.519c0,0-0.62-45.937-4.967-54.007c0,0-1.552-7.45-12.726-9.312c0,0-2.295-7.013-8.031-7.323
		c0,0,3.53,16.325-2.678,25.792c0,0-9.156-12.881-5.587-24.676c0,0-2.173-3.259-7.915,7.139c0,0-11.019,2.949-11.019,11.174
		c0,0-5.587,37.401-3.88,51.214H387.955z"/>
	<path fill="#E9E9E9" d="M404.049,119.638c0,0,3.403,12.212,5.789,13.328c0,0,3.564-4.169,3.878-14.326
		C413.716,118.64,405.694,116.612,404.049,119.638z"/>
	<path fill="#D5BFA0" d="M404.18,108.544c0,0-3.628,11.579,5.496,20.192c0,0,3.145-5.294,4.04-10.097c0,0,0.914-8.243-1.19-11.12
		C412.525,107.52,409.942,105.085,404.18,108.544z"/>
	<path fill="#EBD3B0" d="M389.042,91.528c0,0,4.119,12.089,14.383,16.293c0,0,4.396,5.119,8.587,0c0,0,13.502-7.603,15.364-16.293
		c0,0,7.139,6.519,9.622-9.777c0,0,1.242-5.586,2.018-6.828c0,0-2.019-3.88-6.829-1.397c0,0-4.811,2.483-4.345,7.604
		c0,0,13.643-40.972-18.166-36.626c0,0-24.824-6.207-24.824,11.33l-0.775,19.089c0,0-6.053-2.328-7.915-0.466
		c0,0,0.775,19.089,9.622,19.555C385.783,94.011,388.732,94.321,389.042,91.528z"/>
	<path fill="#BBBC88" d="M382.834,75.388l2.639,1.397V64.524c0,0,4.967-4.19,0-8.846l1.552-5.276l15.054,3.569l6.053-0.311
		c0,0,12.881-4.966,16.141-4.5c0,0,2.639,4.966-2.948,11.64c0,0,7.604,0.466,6.828,20.176c0,0,0.311-5.742,4.656-7.45
		c0,0,4.035-27.47-17.071-35.229c0,0-21.263-4.345-31.506,11.64C384.23,49.936,379.885,66.697,382.834,75.388z"/>
	<path fill="#B4487C" d="M401.457,53.971h6.519l-3.259-44.23l-7.915,7.604C396.802,17.344,397.577,46.832,401.457,53.971z"/>
	<path fill="#DF5B9C" d="M404.717,9.74c0,0,10.554,4.656,10.554,13.191v15.985c0,0-4.036-1.396-7.295,15.054L404.717,9.74z"/>
	<path fill="#865050" d="M407.976,71.042c0,0,7.141-7.76,11.485-1.086C419.461,69.956,414.96,67.628,407.976,71.042z"/>
	<path fill="#865050" d="M402.389,71.818c0,0-5.433-8.536-10.709-1.397C391.68,70.421,397.111,67.628,402.389,71.818z"/>
	<ellipse fill="#F3F3F3" cx="398.586" cy="76.241" rx="3.802" ry="3.647"/>
	<ellipse fill="#333333" cx="398.587" cy="76.241" rx="1.892" ry="1.814"/>
	<ellipse fill="#F3F3F3" cx="414.417" cy="76.241" rx="3.802" ry="3.647"/>
	<ellipse fill="#333333" cx="414.417" cy="76.241" rx="1.891" ry="1.814"/>
	<path fill="#C9B597" d="M405.338,75.931c0,0-12.843,14.162,3.569,11.64C408.907,87.57,395.405,88.036,405.338,75.931z"/>
	<path fill="#4F3A24" d="M398.082,98.085c0,0,17.924,2.715,21.262-3.531C419.344,94.554,417.792,102.547,398.082,98.085z"/>
	<path fill="#655150" d="M378.334,93.623"/>
	<polygon fill="#161616" points="418.528,259.45 425.358,259.45 424.854,270.566 420.256,270.566 	"/>
	<polygon fill="#161616" points="392.379,259.159 398.896,259.159 397.85,270.566 392.379,270.566 	"/>
	<path fill="#323232" d="M391.331,270.566v4.423c0,0-7.915,4.016-6.46,9.079c0,0,2.561,4.771,7.508,0.232
		c0,0,3.491-3.725,3.608-6.519c0,0,2.153-0.116,2.909-0.931v-6.46L391.331,270.566z"/>
	<path fill="#323232" d="M426.095,270.566v4.423c0,0,7.915,4.016,6.46,9.079c0,0-2.561,4.771-7.508,0.232
		c0,0-3.492-3.725-3.608-6.519c0,0-2.153-0.116-2.91-0.931v-6.46L426.095,270.566z"/>
</g>
<g>
	<path fill="#630D0D" d="M257.999,161.111c0,0-0.698,56.658-1.472,102.512h4.337c0,0,6.971-80.037,8.21-83.161h6.7
		c0,0,6.777,65.966,6.855,83.161h5.344l0.697-100.886C288.671,162.737,272.792,154.023,257.999,161.111z"/>
	<g>
		<path fill="#E2C193" d="M258.003,94.178c0,0,13.861,18.411,27.908-0.458c0,0,3.655-3.917,4.794-6.195
			c0,0,11.266-22.529,0.758-34.778c0,0-20.089-16.225-36.749-4.628c0,0-5.975,4.938-4.301,14.156
			C250.414,62.274,245.777,84.922,258.003,94.178z"/>
		<path fill="#44321A" d="M273.184,67.305c0,0,4.126-7.428,12.728-5.467C285.911,61.838,278.895,60.723,273.184,67.305z"/>
		<path fill="#44321A" d="M266.057,66.738c0,0-2.597-6.61-13.094-5.229C252.962,61.509,260.468,61.257,266.057,66.738z"/>
		<g>
			<path fill="#45321B" d="M256.162,75.702c0,0-1.79-3.254,0.533-5.724c0,0,5.48-4.973,9.653,2.433c0,0,0.436,1.627-0.721,3.651
				L256.162,75.702z"/>
			<ellipse fill="#E3E6EF" cx="260.94" cy="74.588" rx="4.9" ry="5.045"/>
			<ellipse fill="#8FA1C4" cx="261.36" cy="74.589" rx="1.979" ry="2.007"/>
			<ellipse fill="#334562" cx="260.952" cy="74.775" rx="1.092" ry="1.106"/>
		</g>
		<g>
			<path fill="#372117" d="M284.063,75.702c0,0,1.792-3.254-0.53-5.724c0,0-5.48-4.973-9.656,2.433c0,0-0.436,1.627,0.721,3.651
				L284.063,75.702z"/>
			<ellipse fill="#E3E6EF" cx="279.285" cy="74.588" rx="4.9" ry="5.045"/>
			<ellipse fill="#8FA1C4" cx="277.014" cy="74.21" rx="1.981" ry="2.007"/>
			<ellipse fill="#334562" cx="276.615" cy="74.589" rx="1.091" ry="1.106"/>
		</g>
		<path fill="#6A4F37" d="M270.115,76.596c0,0-10.417,12.884,1.268,9.509C271.383,86.105,262.131,88.59,270.115,76.596z"/>
		<path fill="#542626" d="M265.114,91.999c0,0,8.311,4.864,14.699-3.447C279.815,88.551,274.587,97.334,265.114,91.999z"/>
		<path fill="#E2C193" d="M290.901,74.737c0,0,8.914-16.222,11.092-7.999c0,0,1.581,24.009-10.767,18.579
			C291.227,85.316,288.645,78.826,290.901,74.737z"/>
	</g>
	<path fill="#2E2A41" d="M291.625,85.481c0,0-4.349,11.919-6.673,14.903c0,0,3.892-3.406,5.229-7.066c0,0-1.51,12.083-2.672,13.768
		c0,0,7.087-5.46,8.017-15.626c0,0,1.452,5.287,0,9.004c0,0,4.822-5.112,5.054-15.453c0,0,1.104,8.714,3.485,10.515
		c0,0-1.394-11.792-0.755-14.581c0,0,0.174,7.668,4.299,9.12c0,0-2.266-7.377-2.208-13.477c0,0,1.336,7.436,4.183,8.133
		c0,0-1.278-4.822-3.485-37.063c0,0-20.603-43.665-56.542-13.458c0,0-12.857,11.928-9.759,33.615c0,0,4.182,15.646,4.027,21.533
		c0,0,0.93,0.31,1.394-6.816c0,0,2.634,12.857,2.634,18.279l1.084,0.929c0,0,1.865-19.674,0.625-28.659c0,0,3.125,0.769,1.73-19.989
		c0,0,2.446,7.442,16.698,14.878c0,0-8.055-9.14-9.914-11.463c0,0,19.983,19.054,28.039,21.842c0,0-18.28-17.815-19.054-23.082
		c0,0,26.68,26.41,26.68,28.889c0,0,5.542-0.385,5.697-17.27l2.324,0.155c0,0-1.675,11.645-3.099,15.181
		C298.662,82.223,297.435,87.346,291.625,85.481z"/>
	<path fill="#E2C193" d="M242.895,69.543c0,0-4.028-3.81-2.169,4.667c0,0,1.394,7.857,4.183,8.478
		C244.909,82.688,243.05,71.425,242.895,69.543z"/>
	<path fill="#E2C193" d="M269.549,101.938v2.515l-10.169,4.57l-6.803,3.795c0,0-1.327,0.388-3.026,12.161
		c0,0-6.54,36.481-4.913,54.025h4.913c0,0,2.755-26.024,3.336-30.788c0,0,2.904-15.917,3.137-18.822c0,0-0.813,6.39,1.975,8.249
		c0,0,2.789,6.39,1.626,12.78l-1.859,6.391l0.232,4.299c0,0,9.527,10.921,30.672,1.626v-5.112c0,0-1.046-6.157-2.672-8.364
		c0,0-0.581-7.668,0.232-10.341c0,0,2.904-1.51,2.44-7.784c0,0,2.091,6.39,3.95,22.423c0,0,2,19.52,3.324,21.843l4.693-0.232
		c0,0-0.349-28.929-2.091-37.178l-3.718-21.726c0,0,0.697-3.021-8.365-6.39l-10.921-5.46l0.036-2.65
		C275.578,101.764,272.565,98.066,269.549,101.938z"/>
	<path fill="#ECECEC" d="M267.225,125.778l4.57,3.615c0,0,1.365,0.319,1.772,0l4.939-4.681c0,0,8.208,2.081,6.58,11.803
		c-0.018,0.104-0.036,0.209-0.056,0.314c-1.859,9.992-2.788,17.504-2.788,17.504l-5.98,1.24h-9.82l-3.563-16.886l0.394-10.999
		L267.225,125.778z"/>
	<path fill="#2A2A2A" d="M268.898,104.745c0,0-3.231,28.366-1.14,34.988c0,0,2.556,25.792,2.905,28l-12.78-10.572
		c0,0,2.227-7.636,2.223-11.154c0-0.165-0.005-0.32-0.016-0.465c-0.232-3.253-2.556-9.643-4.183-11.618
		c0,0-0.581-6.274,3.718-11.851c0,0,1.162-12.315,0.349-13.477L268.898,104.745z"/>
	<path fill="#2A2A2A" d="M276.499,104.835c0,0,2.18,15.729,1.832,18.168c0,0,1.626,11.27-1.975,26.025l-0.581,18.705l12.896-10.108
		l-0.029-3.194c0,0-1.672-4.012-2.834-9.472c0,0,0.777-5.372,3.676-11.267c0,0-3.137-11.27-3.137-16.847l-0.32-7.145
		C286.027,109.7,280.153,106.723,276.499,104.835z"/>
	<path fill="#323232" d="M254.165,262.867v4.415c0,0-7.9,4.009-6.448,9.063c0,0,2.556,4.764,7.494,0.232
		c0,0,3.486-3.718,3.602-6.506c0,0,2.149-0.116,2.904-0.93v-6.448L254.165,262.867z"/>
	<path fill="#323232" d="M289.134,262.867v4.415c0,0,7.9,4.009,6.448,9.063c0,0-2.556,4.764-7.494,0.232
		c0,0-3.485-3.718-3.602-6.506c0,0-2.149-0.116-2.905-0.93v-6.448L289.134,262.867z"/>
	<path fill="#E2C193" d="M300.689,173.652c0,0,3.309,13.681,1.915,18.018c0,0-7.126,7.744-9.45,8.983c0,0-4.492,3.874-2.633-1.237
		c0,0,4.027-3.563,2.478-10.225c0,0-2.634,0.828-1.704,4.337c0,0-3.253,11.929-1.859-6.971c0,0,2.323-5.577,4.647-8.365l1.337-4.54
		C295.42,173.652,297.552,171.947,300.689,173.652z"/>
	<path fill="#E2C193" d="M244.638,173.639c0,0-3.666,13.703-2.271,18.04c0,0,7.126,7.744,9.45,8.984c0,0,4.492,3.874,2.633-1.238
		c0,0-4.027-3.563-2.478-10.224c0,0,2.634,0.827,1.704,4.336c0,0,3.253,11.929,1.859-6.971c0,0-2.324-5.576-4.647-8.365l-1.337-4.54
		C249.549,173.661,247.774,171.934,244.638,173.639z"/>
	<path fill="#8A2B77" d="M285.96,40.552c0,0,8.521,8.366,10.534,17.815C296.494,58.367,288.284,46.903,285.96,40.552z"/>
	<path fill="#8A2B77" d="M273.722,36.215c0,0,15.335,24.646,17.504,34.475C291.227,70.69,286.58,43.805,273.722,36.215z"/>
	<path fill="#8A2B77" d="M269.075,43.031c0,0,15.026,15.181,18.744,26.334l2.158,6.516c0,0-17.648-29.441-21.212-32.85"/>
	<path fill="#8A2B77" d="M255.985,44.89c0,0,11.386,13.787,14.716,19.054C270.701,63.944,260.09,55.734,255.985,44.89z"/>
	<path fill="#8A2B77" d="M251.647,45.587c0,0,1.549,4.182,4.337,7.048C255.985,52.635,254.281,47.213,251.647,45.587z"/>
</g>
<g>
	<g>
		<path fill="#E2C193" d="M116.422,88.915c0,0,14.913,19.809,30.025-0.493c0,0,3.933-4.215,5.158-6.665
			c0,0,12.121-24.239,0.815-37.418c0,0-21.614-17.456-39.538-4.979c0,0-6.429,5.313-4.628,15.23
			C108.256,54.59,103.267,78.957,116.422,88.915z"/>
		<path fill="#44321A" d="M132.754,60.003c0,0,4.439-7.991,13.693-5.882C146.447,54.121,138.898,52.921,132.754,60.003z"/>
		<path fill="#44321A" d="M125.087,59.393c0,0-2.794-7.111-14.088-5.625C110.998,53.767,119.073,53.496,125.087,59.393z"/>
		<g>
			<path fill="#45321B" d="M114.441,69.037c0,0-1.926-3.501,0.573-6.158c0,0,5.896-5.351,10.386,2.617c0,0,0.469,1.751-0.775,3.929
				L114.441,69.037z"/>
			<ellipse fill="#E3E6EF" cx="119.581" cy="67.839" rx="5.272" ry="5.428"/>
			<ellipse fill="#8FA1C4" cx="120.033" cy="67.84" rx="2.13" ry="2.159"/>
			<ellipse fill="#334562" cx="119.594" cy="68.04" rx="1.175" ry="1.19"/>
		</g>
		<g>
			<path fill="#372117" d="M144.459,69.037c0,0,1.928-3.501-0.57-6.158c0,0-5.896-5.351-10.389,2.617c0,0-0.469,1.751,0.775,3.929
				L144.459,69.037z"/>
			<ellipse fill="#E3E6EF" cx="139.318" cy="67.839" rx="5.271" ry="5.428"/>
			<ellipse fill="#8FA1C4" cx="136.875" cy="67.433" rx="2.131" ry="2.159"/>
			<ellipse fill="#334562" cx="136.446" cy="67.839" rx="1.174" ry="1.19"/>
		</g>
		<path fill="#6A4F37" d="M129.452,69.999c0,0-11.208,13.862,1.364,10.231C130.816,80.23,120.862,82.903,129.452,69.999z"/>
		<path fill="#542626" d="M124.072,86.571c0,0,8.941,5.233,15.814-3.709C139.889,82.861,134.264,92.312,124.072,86.571z"/>
		<path fill="#E2C193" d="M151.816,67.999c0,0,8.67-17.643,11.013-8.796c0,0,1.405,18.491-9.373,18.94
			C153.456,78.144,149.389,72.398,151.816,67.999z"/>
		<path fill="#E2C193" d="M107.328,65.273c0,0-5.203-9.977-7.328,0c0,0-2.399,15.389,9.175,12.871
			C109.175,78.144,108.701,67.413,107.328,65.273z"/>
	</g>
	<path fill="#CD6632" d="M111.25,72c0,0-9.5-17-10.5-25.125c0,0-2.875-20.5,11.625-21.125c0,0,14.625-22.375,43.625,0
		c0,0,13.5,10.125,3.375,32.875c0,0-4.625,3.25-5.125,7.125l-0.875-10.125c0,0-10,2-27.875-6.125c0,0,1.5,3.25,3.75,5.25
		c0,0-10.875-4.5-15.75-13.25c0,0-0.625,6.25-3.625,8.125C109.875,49.625,111,65.625,111.25,72z"/>
	<path fill="#E2C193" d="M115.908,242.252v26.396h4.973l1.269-26.543C122.15,242.105,117.718,240.818,115.908,242.252z"/>
	<path fill="#E2C193" d="M141.499,243.186l1.66,25.463h4.467v-24.711C147.626,243.938,142.981,241.859,141.499,243.186z"/>
	<path fill="#986828" d="M115.908,165.812v74.31h6.517c0,0,4.118-58.998,5.735-62.584h8.235c0,0,5.25,46.205,5.104,62.527
		l6.018,0.533v-69.443c0,0,1.768-0.988,1.876-5.477C149.393,165.678,128.084,154.583,115.908,165.812z"/>
	<polygon fill="#CCB27F" points="115.036,239.881 123.087,239.881 122.812,242.252 115.036,242.252 	"/>
	<polygon fill="#CCB27F" points="140.623,239.881 149.393,240.598 148.729,244.072 140.623,243.08 	"/>
	<path fill="#323232" d="M142.495,268.648h6.652v5.162c0,0,13.678,6.73,4.561,10.719c0,0-5.001,1.633-8.53-5.572
		c0,0-0.735-4.281-3.234-4.281L142.495,268.648z"/>
	<path fill="#323232" d="M121.164,268.648h-6.653v5.162c0,0-13.676,6.73-4.56,10.719c0,0,5.001,1.633,8.53-5.572
		c0,0,0.735-4.281,3.235-4.281L121.164,268.648z"/>
	<path fill="#E2C193" d="M152.135,125.18l5.022,43.981c-0.947,0.631-3.681,5.155-3.681,5.155c-2.104,2.787-1.104,10.57-1.104,10.57
		c2.104,4.631,1.577-4.205,1.577-4.205c1.263-3.051,1.999-0.213,1.999-0.213c0.946,4.106-2.42,7.678-2.42,7.678
		c-0.948,4.315,2.945,0.633,2.945,0.633l4.313-3.473c3.578-2.104,3.473-5.891,3.473-5.891c0.422-3.049-0.752-10.41-0.752-10.41
		c2.242-8.205-3.694-46.104-3.694-46.104L152.135,125.18z"/>
	<path fill="#E2C193" d="M106.63,121.622c0,0-5.937,37.899-3.694,46.104c0,0-1.174,7.361-0.752,10.41c0,0-0.105,3.787,3.473,5.891
		l4.313,3.473c0,0,3.894,3.683,2.945-0.633c0,0-3.366-3.571-2.42-7.678c0,0,0.736-2.838,1.999,0.213c0,0-0.526,8.836,1.577,4.205
		c0,0,1-7.783-1.104-10.57c0,0-2.733-4.524-3.681-5.155l5.022-43.981L106.63,121.622z"/>
	<path fill="#E2C193" d="M128.625,97.216c0,0-4.313,4.057-1.938,9.014c0,0,3.383,8.333,4.129,10.333h2.121l3.625-3.188l1.375-4.375
		l1.375-6.813l-0.813-3.063c0,0-1.146-2.134-1.625-2.578C136.875,96.547,132.116,93.964,128.625,97.216z"/>
	<path fill="#A43F3D" d="M128.625,108.125c0,0,3.57,3.375,3.66,7.125c0,0,0.391-6.04,2.459-9.02l5.143-5.798L155,106.75l6.5,17
		l-9,1.875l2,39.25c0,0-18,6.625-42.375,0l1.607-40l-10.107-0.5L111,106.75c0,0,10.676-2.735,13.852-5.383
		C124.852,101.367,128,105.375,128.625,108.125z"/>
	<path fill="#4D545F" d="M124.852,115.25l3.773-7.125c0,0-1.875-8.193,0-10.909C128.625,97.216,122.203,96.375,124.852,115.25z"/>
	<path fill="#4D545F" d="M134.744,106.23c0,0,4.832,5.645,4.856,7.145c0,0,3.274-14.28-2.726-16.828
		C136.875,96.547,138.363,104.335,134.744,106.23z"/>
</g>
</svg>
