<?xml version="1.0" encoding="utf-8"?>
<!-- Generator: Adobe Illustrator 16.0.0, SVG Export Plug-In . SVG Version: 6.00 Build 0)  -->
<!DOCTYPE svg PUBLIC "-//W3C//DTD SVG 1.1//EN" "http://www.w3.org/Graphics/SVG/1.1/DTD/svg11.dtd">
<svg version="1.1" id="Layer_1" xmlns="http://www.w3.org/2000/svg" xmlns:xlink="http://www.w3.org/1999/xlink" x="0px" y="0px"
	 width="684px" height="296.641px" viewBox="0 0 684 296.641" enable-background="new 0 0 684 296.641" xml:space="preserve">
<rect x="-150.5" y="-141.18" fill="#B39E82" enable-background="new    " width="1063" height="596"/>
<g>
	<g>
		<path fill="#CE9D7D" d="M151.917,70.833l40.575-2.972l3.759,16.388l2.839-5.061c0,0,5.828-3.689,4.995,2.728
			c0,0-0.25,10.083-4.667,14.083c0,0-3.167,2.25-5.917,1.25c0,0-2.083,12-11,18h-14.917c0,0-12.083-10-14.333-17.917
			c0,0-2.833,2.5-4.917-0.667c0,0-4.334-4.583-3.667-10.833c0,0-1-5.667,2.583-4.833L151.917,70.833z"/>
		<path fill="#333333" d="M146.5,72.207L147.25,81c0,0,4,1.5,4.625,6.875V72.207l40.642-2.44c0,0-0.017,7.983,2.483,10.608V85.5
			l1.625-0.125c0,0,1-5.233,2.875-6.555c0,0,1.557-5.83,1.216-10.263L146.5,72.207z"/>
		<g id="cap">
			<path fill="#333333" d="M137.5,71.75c0,0,35.25,2.75,71-5.25l-7.25-2.75c0,0,9-35.25-31.25-43.75c0,0-38,2-28,47.75L137.5,71.75z
				"/>
			<path fill="#6F7071" d="M158,24.75c0,0-23.75,6.25-15.75,42.75l-5,4c0,0,46.75,2,71.75-4.75c0,0-58.738,4.141-63.75,3.25
				c0,0-6-34.25,10-42.25c0,0-5.75,22.25-2.5,39.25c0,0,5.79,4.799,2.5-6.5C155.25,60.5,153.75,30.75,158,24.75z"/>
			<path fill="#F8ED37" d="M157.625,34.25c0,0,3.25,2.125,5.25-1.25c0,0,6.875-6.5,13.875,0l2.125,1.91c0,0,0.125,2.84-2.375,0.965
				c0,0-1.875-2.75-6-3.25c0,0-6.339,0.755-10.875,5.375C159.625,38,155.625,38,157.625,34.25z"/>
			<polygon fill="#F8ED37" points="161.375,42.5 161.375,46.375 172.25,44.438 172.25,50.25 161.375,52 161.375,62.375 
				180.25,62.375 180.25,57.375 164.625,59.125 164.5,54.25 177.5,53.125 177.625,40.125 			"/>
			<polygon fill="#333333" points="165.5,21.667 165.5,17 169,17 170,20 			"/>
		</g>
		<path fill="#333333" d="M173.125,78.216c0,0,4.727-11.878,15.25-5.341v1.689C188.375,74.564,174.75,74.183,173.125,78.216z"/>
		<path fill="#333333" d="M168.5,78.216c0,0-0.875-5.841-10.125-5.091v3.25C158.375,76.375,164.875,74.308,168.5,78.216z"/>
		<path fill="#333333" d="M157.125,83.063h10.063v0.875h-2c0,0-2,2.563-3.813,0.25l-4.25-0.079V83.063L157.125,83.063z"/>
		<path fill="#333333" d="M178.188,83.063v1.046H181c0,0,2.063,1.982,3.938,0h3.125v-1.046H178.188z"/>
		<path fill="#916C57" enable-background="new    " d="M169.813,89.82c0,0-2.521,2.667,0,5.167
			C169.813,94.987,165.792,93.487,169.813,89.82z"/>
		<path fill="#916C57" enable-background="new    " d="M163.438,105.487c0,0,14.729,1.667,21.063-4.333
			C184.5,101.154,184.875,108.987,163.438,105.487z"/>
	</g>
	<path fill="#CE9D7D" enable-background="new    " d="M152.205,192.372c0,0-2.511-7.492-6.964-1.271c0,0,0.351,5.805-1.051,7.471
		c0,0-1.985,5.167,0.431,8.25c0,0,7.91,8.166,10.747,8.083c0,0,1.337-2.334-1.497-5.167c0,0-1.417-4.416-0.417-6.083
		c0,0,1.5-0.833,1.083,4.417c0,0-0.25,3.5,1.917,1.5c0,0,1.743-6.833-1.087-11.5C155.367,198.071,152.749,193.603,152.205,192.372z"
		/>
	<g>
		<path fill="#FFCC66" enable-background="new    " d="M166.25,115.249h18.25v6.321l12.5,4.25c0,0,12.333,47.5,7.167,67.5
			c0,0-3.667-6-6.167,0.75l-3-1.875c0,0,0.5-24.75-0.75-28c0,0,0.25,11.625-1.875,16.75c0,0-19.375,5.875-36.375-0.25
			c0,0,0.75-18.125,1.125-20.25c0,0-2,10.625-2.875,30.625c0,0-0.146,1.417-1.365,2.632c0,0-4.177-7.757-7.427-0.507
			c0,0-0.506,2.25-0.92-1.5c0,0,2.211-53.125,8.336-65l13-5.125L166.25,115.249z"/>
		<path fill="#FFFF33" enable-background="new    " d="M149.446,139.16c0,0,6.679,0.285,7.679,2.285c0,0,22.25,0.25,37.75,1.125
			c0,0,1.652-4.718,5.152-3.593l1.207,5.995c0,0-7.234,7.598-15.984,6.973c0,0-20.625,1.5-28.125-2.5c0,0-7.976-2.88-8.851-2.755
			L149.446,139.16z"/>
		<path fill="#FFFF33" d="M156.685,166.311h37.568c0,0-0.253,9.79-0.97,11.449c0,0-22.949,4.356-37.158,0
			C156.126,177.76,155.787,173.219,156.685,166.311z"/>
		<path fill="#FFFF33" d="M195.083,177.901c0,0,6.151-4.417,10.284-0.583c0,0,0.091,2.587,0.061,4.251c0,0-7.815-0.499-10.33,0.667
			C195.098,182.236,195.118,180.648,195.083,177.901z"/>
		<path fill="#FFFF33" d="M145.16,180.247c0,0,7.02-1.58,9.68,0.58l0.407-5.074c0,0-6.75-1.567-9.79,0L145.16,180.247z"/>
	</g>
	<path fill="#CCCCCC" enable-background="new    " d="M174.353,115.249l-0.384,68.066c0,0,1.781,0.761,3.031,0l-0.75-68.066H174.353
		z"/>
	<path fill="#CE9D7D" enable-background="new    " d="M197.416,193.705c0,0,2.511-7.492,6.964-1.271c0,0-0.351,5.805,1.051,7.471
		c0,0,1.985,5.167-0.431,8.25c0,0-7.91,8.166-10.747,8.083c0,0-1.337-2.334,1.497-5.167c0,0,1.417-4.416,0.417-6.083
		c0,0-1.5-0.833-1.083,4.417c0,0,0.25,3.5-1.917,1.5c0,0-1.743-6.833,1.087-11.5C194.253,199.404,196.871,194.936,197.416,193.705z"
		/>
	<path fill="#FFB366" enable-background="new    " d="M174.754,195.32c0,0-5.396,58.241-6.583,67.49
		c-0.06,0.466-0.145,0.804-0.146,1.01c-0.025,6.5-13.775,9.75-15.775,0c0,0,3.72-78.074,4.735-82.787c0,0,23.788,4.499,35.39-0.088
		l3.958,82.209c0,0-0.414,3.045-3.333,6.105h-10.5c0,0-2.333-1.106-3-5.939L174.754,195.32z"/>
	<polygon fill="#FFFF33" points="153.125,239.206 170.507,240.154 169.521,250.154 152.25,250.154 	"/>
	<polygon fill="#FFFF33" points="177.883,240.154 195.226,240.154 195.725,250.509 178.625,250.794 	"/>
	<path fill="#323232" enable-background="new    " d="M153.63,267.054c0,0-2.004,7.767,2.433,15.6c0,0-7.73,5.334-7.563,8.667
		c0,0,3.126,3.999,7.563,1.166c0,0,4.77-7.334,6.437-7.5c0,0-0.777-12.66,1.445-15.913
		C163.945,269.074,156.26,267.622,153.63,267.054z"/>
	<path fill="#323232" enable-background="new    " d="M182.5,269.26v15.895c0,0,2,1.749,4.304,3c0,0,2.196,4.695,4.03,5.348
		c0,0,5,1.152,6.667-1.348c0,0,2.667-4.334-6.167-8.667c0,0-0.698-5.955,1.667-14.228H182.5z"/>
</g>
<g>
	<path fill="#E2C294" d="M306.667,70.108l40.575-2.972l3.759,16.388l2.839-5.061c0,0,5.828-3.689,4.995,2.728
		c0,0-0.25,10.083-4.667,14.083c0,0-3.167,2.25-5.917,1.25c0,0-4.083,12-13,18h-10.917c0,0-14.083-10-16.333-17.917
		c0,0-2.833,2.5-4.917-0.667c0,0-4.334-4.583-3.667-10.833c0,0-1-5.667,2.583-4.833L306.667,70.108z"/>
	<path fill="#333333" d="M301.25,71.482l0.75,8.793c0,0,4,1.5,4.625,6.875V71.482l40.643-2.44c0,0-0.018,7.983,2.482,10.608v5.125
		l1.625-0.125c0,0,1-5.233,2.875-6.555c0,0,1.557-5.83,1.216-10.263L301.25,71.482z"/>
	<path fill="#333333" d="M292.25,71.025c0,0,35.25,2.75,71-5.25l-7.25-2.75c0,0,9-35.25-31.25-43.75c0,0-38,2-28,47.75
		L292.25,71.025z"/>
	<path fill="#6F7071" d="M312.75,24.025c0,0-23.75,6.25-15.75,42.75l-5,4c0,0,46.75,2,71.75-4.75c0,0-58.738,4.141-63.75,3.25
		c0,0-6-34.25,10-42.25c0,0-5.75,22.25-2.5,39.25c0,0,5.79,4.799,2.5-6.5C310,59.775,308.5,30.025,312.75,24.025z"/>
	<path fill="#F8ED37" d="M312.375,33.525c0,0,3.25,2.125,5.25-1.25c0,0,6.875-6.5,13.875,0l2.125,1.91c0,0,0.125,2.84-2.375,0.965
		c0,0-1.875-2.75-6-3.25c0,0-6.339,0.755-10.875,5.375C314.375,37.275,310.375,37.275,312.375,33.525z"/>
	<polygon fill="#F8ED37" points="316.125,41.775 316.125,45.65 327,43.714 327,49.525 316.125,51.275 316.125,61.65 335,61.65 
		335,56.65 319.375,58.4 319.25,53.525 332.25,52.4 332.375,39.4 	"/>
	<polygon fill="#333333" points="320.25,20.942 320.25,16.275 323.75,16.275 324.75,19.275 	"/>
	<path fill="#333333" d="M327.875,77.491c0,0,4.727-11.878,15.25-5.341v1.689C343.125,73.84,329.5,73.459,327.875,77.491z"/>
	<path fill="#333333" d="M323.25,77.491c0,0-0.875-5.841-10.125-5.091v3.25C313.125,75.65,319.625,73.584,323.25,77.491z"/>
	<path fill="#916C57" enable-background="new    " d="M324.563,89.095c0,0-2.521,2.667,0,5.167
		C324.563,94.262,320.541,92.762,324.563,89.095z"/>
	<path fill="#CE9D7D" enable-background="new    " d="M306.955,191.647c0,0-2.512-7.492-6.965-1.271c0,0,0.352,5.805-1.051,7.471
		c0,0-1.986,5.167,0.431,8.25c0,0,7.909,8.166,10.747,8.083c0,0,1.336-2.334-1.497-5.167c0,0-1.417-4.416-0.417-6.083
		c0,0,1.5-0.833,1.084,4.417c0,0-0.25,3.5,1.916,1.5c0,0,1.744-6.833-1.086-11.5C310.117,197.346,307.499,192.879,306.955,191.647z"
		/>
	<g>
		<path fill="#FFCC66" enable-background="new    " d="M321,114.524h18.25v6.321l12.5,4.25c0,0,12.333,47.5,7.166,67.5
			c0,0-3.666-6-6.166,0.75l-3-1.875c0,0,0.5-24.75-0.75-28c0,0,0.25,11.625-1.875,16.75c0,0-19.375,5.875-36.375-0.25
			c0,0,0.75-18.125,1.125-20.25c0,0-2,10.625-2.875,30.625c0,0-0.146,1.417-1.365,2.632c0,0-4.176-7.757-7.426-0.507
			c0,0-0.507,2.25-0.92-1.5c0,0,2.211-53.125,8.336-65l13-5.125L321,114.524z"/>
		<path fill="#FFFF33" enable-background="new    " d="M304.196,138.435c0,0,6.679,0.285,7.679,2.285c0,0,22.25,0.25,37.75,1.125
			c0,0,1.652-4.718,5.152-3.593l1.207,5.995c0,0-7.234,7.598-15.984,6.973c0,0-20.625,1.5-28.125-2.5c0,0-7.977-2.88-8.852-2.755
			L304.196,138.435z"/>
		<path fill="#FFFF33" d="M311.436,165.587h37.568c0,0-0.254,9.79-0.971,11.449c0,0-22.948,4.356-37.157,0
			C310.876,177.036,310.537,172.494,311.436,165.587z"/>
		<path fill="#FFFF33" d="M349.834,177.177c0,0,6.15-4.417,10.283-0.583c0,0,0.091,2.587,0.061,4.251c0,0-7.814-0.499-10.33,0.667
			C349.848,181.511,349.868,179.924,349.834,177.177z"/>
		<path fill="#FFFF33" d="M299.91,179.522c0,0,7.02-1.58,9.68,0.58l0.406-5.074c0,0-6.75-1.567-9.789,0L299.91,179.522z"/>
	</g>
	<path fill="#CCCCCC" enable-background="new    " d="M329.103,114.524l-0.384,68.066c0,0,1.781,0.761,3.031,0L331,114.524H329.103z
		"/>
	<path fill="#CE9D7D" enable-background="new    " d="M352.166,192.98c0,0,2.51-7.492,6.964-1.271c0,0-0.351,5.805,1.052,7.471
		c0,0,1.984,5.167-0.432,8.25c0,0-7.91,8.166-10.746,8.083c0,0-1.338-2.334,1.496-5.167c0,0,1.416-4.416,0.416-6.083
		c0,0-1.499-0.833-1.082,4.417c0,0,0.249,3.5-1.918,1.5c0,0-1.742-6.833,1.088-11.5C349.004,198.679,351.621,194.212,352.166,192.98
		z"/>
	<path fill="#FFB366" enable-background="new    " d="M329.504,194.595c0,0-5.396,58.241-6.582,67.49
		c-0.061,0.466-0.146,0.804-0.146,1.01c-0.025,6.5-13.775,9.75-15.775,0c0,0,3.72-78.074,4.734-82.787
		c0,0,23.789,4.499,35.391-0.088l3.959,82.209c0,0-0.414,3.045-3.334,6.105h-10.5c0,0-2.334-1.106-3-5.939L329.504,194.595z"/>
	<polygon fill="#FFFF33" points="307.875,238.481 325.258,239.429 324.271,249.429 307,249.429 	"/>
	<polygon fill="#FFFF33" points="332.633,239.429 349.977,239.429 350.475,249.784 333.375,250.069 	"/>
	<path fill="#323232" enable-background="new    " d="M308.38,266.33c0,0-2.004,7.767,2.433,15.6c0,0-7.729,5.334-7.563,8.667
		c0,0,3.126,3.999,7.563,1.166c0,0,4.771-7.334,6.438-7.5c0,0-0.777-12.66,1.445-15.913
		C318.695,268.349,311.01,266.897,308.38,266.33z"/>
	<path fill="#323232" enable-background="new    " d="M337.25,268.535v15.895c0,0,2,1.749,4.304,3c0,0,2.196,4.695,4.03,5.348
		c0,0,4.999,1.152,6.666-1.348c0,0,2.667-4.334-6.166-8.667c0,0-0.699-5.955,1.666-14.228H337.25z"/>
	<ellipse fill="#333333" cx="318.75" cy="80.758" rx="1.125" ry="0.938"/>
	<ellipse fill="#333333" cx="334.75" cy="80.758" rx="1.125" ry="0.938"/>
	<rect x="323.775" y="103.57" fill="#916C57" width="6.327" height="0.625"/>
</g>
<g>
	<polygon fill="#333333" points="479.75,38.744 479.75,34.437 483.25,34.437 484.25,37.206 	"/>
	<path fill="#AC8151" enable-background="new    " d="M466.455,196.297c0,0-2.512-6.915-6.965-1.174c0,0,0.352,5.357-1.051,6.896
		c0,0-1.986,4.769,0.431,7.614c0,0,7.909,7.537,10.747,7.46c0,0,1.336-2.153-1.497-4.769c0,0-1.417-4.075-0.417-5.613
		c0,0,1.5-0.771,1.084,4.075c0,0-0.25,3.23,1.916,1.385c0,0,1.744-6.306-1.086-10.615
		C469.617,201.555,466.999,197.434,466.455,196.297z"/>
	<g>
		<path fill="#FFCC66" enable-background="new    " d="M480.5,120.116h18.25v10.834l12.5,3.922c0,0,12.333,43.84,7.166,62.299
			c0,0-3.666-5.537-6.166,0.692l-3-1.73c0,0,0.5-22.844-0.75-25.843c0,0,0.25,10.729-1.875,15.459c0,0-19.375,5.423-36.375-0.23
			c0,0,0.75-16.729,1.125-18.69c0,0-2,9.808-2.875,28.266c0,0-0.146,1.308-1.365,2.43c0,0-4.176-7.159-7.426-0.468
			c0,0-0.507,2.076-0.92-1.385c0,0,2.211-49.032,8.336-59.992l13-4.729L480.5,120.116z"/>
		<path fill="#FFFF33" enable-background="new    " d="M463.696,147.184c0,0,6.679,0.264,7.679,2.109c0,0,22.25,0.231,37.75,1.038
			c0,0,1.652-4.354,5.152-3.315l1.207,5.532c0,0-7.234,7.013-15.984,6.436c0,0-20.625,1.385-28.125-2.307
			c0,0-7.977-2.659-8.852-2.544L463.696,147.184z"/>
		<path fill="#FFFF33" d="M470.936,172.244h37.568c0,0-0.254,9.036-0.971,10.566c0,0-22.948,4.021-37.157,0
			C470.376,182.81,470.037,178.62,470.936,172.244z"/>
		<path fill="#FFFF33" d="M509.334,182.941c0,0,6.15-4.077,10.283-0.539c0,0,0.091,2.388,0.061,3.925c0,0-7.814-0.461-10.33,0.615
			C509.348,186.942,509.368,185.476,509.334,182.941z"/>
		<path fill="#FFFF33" d="M459.41,185.105c0,0,7.02-1.458,9.68,0.536l0.406-4.684c0,0-6.75-1.446-9.789,0L459.41,185.105z"/>
	</g>
	<path fill="#CCCCCC" enable-background="new    " d="M488.603,120.116l-0.384,67.822c0,0,1.781,0.701,3.031,0l-0.75-67.822H488.603
		z"/>
	<path fill="#AC8151" enable-background="new    " d="M511.666,197.527c0,0,2.51-6.914,6.964-1.174c0,0-0.351,5.356,1.052,6.895
		c0,0,1.984,4.77-0.432,7.615c0,0-7.91,7.535-10.746,7.46c0,0-1.338-2.155,1.496-4.769c0,0,1.416-4.076,0.416-5.615
		c0,0-1.499-0.768-1.082,4.077c0,0,0.249,3.23-1.918,1.384c0,0-1.742-6.306,1.088-10.613
		C508.504,202.787,511.121,198.664,511.666,197.527z"/>
	<path fill="#FFB366" enable-background="new    " d="M489.004,199.017c0,0-5.396,53.754-6.582,62.29
		c-0.061,0.43-0.146,0.742-0.146,0.933c-0.025,5.999-13.775,8.999-15.775,0c0,0,3.72-72.06,4.734-76.409
		c0,0,23.789,4.153,35.391-0.081l3.959,75.875c0,0-0.414,2.811-3.334,5.635h-10.5c0,0-2.334-1.021-3-5.481L489.004,199.017z"/>
	<polygon fill="#FFFF33" points="467.375,239.522 484.758,240.397 483.771,249.627 466.5,249.627 	"/>
	<polygon fill="#FFFF33" points="492.133,240.397 509.477,240.397 509.975,249.953 492.875,250.216 	"/>
	<path fill="#323232" enable-background="new    " d="M467.88,265.225c0,0-2.004,7.168,2.433,14.397c0,0-7.729,4.922-7.563,7.998
		c0,0,3.126,3.692,7.563,1.077c0,0,4.771-6.769,6.438-6.922c0,0-0.777-11.685,1.445-14.688
		C478.195,267.088,470.51,265.749,467.88,265.225z"/>
	<path fill="#323232" enable-background="new    " d="M496.75,267.26v14.67c0,0,2,1.614,4.304,2.77c0,0,2.196,4.333,4.03,4.937
		c0,0,4.999,1.063,6.666-1.245c0,0,2.667-4-6.166-7.999c0,0-0.699-5.496,1.666-13.132H496.75z"/>
	<path fill="#372117" enable-background="new    " d="M457.871,85.251c0,0-1.02,2.445,1.68,5.757l0.328,3.26H455
		c0,0,0.07,9.536,9.191,8.794c0,0,1.059-0.289,1.84,0.204c0,0,1.406,2.18-4.969,1.93c0,0,1.686,5.329,10.874,4.915l30.226,0.023
		c0,0,4.234,0.746,3.9-2.875c0,0,7.063,1.134,7.875-4.839c0,0-2.244,0.809-3.341-0.645l0.805-1.001c0,0,1.599,0.86,2.536,0.422
		s0-0.188,0-0.188s2.5-2,2.313-5.625c0,0-2.094,0.239-2.328-0.255l0.016-12.62L457.871,85.251z"/>
	<path fill="#AC8151" enable-background="new    " d="M465.625,85.389v4.806c0,0-3.125-5.625-6-1.625c0,0-1,8.125,3.875,13.75
		c0,0,1.125,2.375,4.375,0c0,0,5.063,14.921,17.25,17.796h6.906c0,0,10.844-6.796,14.469-18.671c0,0,2.75,1.75,4.5,0
		c0,0,5.5-8.53,3.875-16.453c0,0-5.625-1.547-7,7.453l-1.5,0.25c0,0,0.5-8.625-20.125-6.625c0,0,0.565-0.965-3.813-1.078
		L465.625,85.389z"/>
	<path fill="#433015" enable-background="new    " d="M471.307,92.89c0,0-2.056-3.736,0.61-6.57c0,0,6.291-5.708,11.083,2.792
		c0,0,0.5,1.869-0.828,4.192L471.307,92.89z"/>
	<ellipse fill="#E3E7F0" enable-background="new    " cx="476.791" cy="91.612" rx="5.625" ry="5.792"/>
	<ellipse fill="#8FA1C4" enable-background="new    " cx="477.273" cy="91.612" rx="2.273" ry="2.304"/>
	<ellipse fill="#304360" enable-background="new    " cx="476.805" cy="91.826" rx="1.253" ry="1.27"/>
	<path fill="#372117" enable-background="new    " d="M500.336,92.89c0,0,2.056-3.736-0.61-6.57c0,0-6.291-5.708-11.083,2.792
		c0,0-0.5,1.869,0.828,4.192L500.336,92.89z"/>
	<ellipse fill="#E3E7F0" enable-background="new    " cx="494.852" cy="91.612" rx="5.625" ry="5.792"/>
	<ellipse fill="#8FA1C4" enable-background="new    " cx="492.244" cy="91.178" rx="2.273" ry="2.304"/>
	<ellipse fill="#304360" enable-background="new    " cx="491.786" cy="91.612" rx="1.253" ry="1.27"/>
	<g id="cap_1_">
		<path fill="#333333" d="M451.75,84.968c0,0,35.25,2.539,71-4.845l-7.25-2.539c0,0,9-32.533-31.25-40.378c0,0-38,1.846-28,44.071
			L451.75,84.968z"/>
		<path fill="#6F7071" d="M472.25,41.59c0,0-23.75,5.769-15.75,39.457l-5,3.691c0,0,46.75,1.846,71.75-4.383
			c0,0-58.738,3.821-63.75,2.999c0,0-6-31.611,10-38.994c0,0-5.75,20.536-2.5,36.226c0,0,5.79,4.429,2.5-5.999
			C469.5,74.585,468,47.128,472.25,41.59z"/>
		<path fill="#F8ED37" d="M471.875,50.357c0,0,3.25,1.962,5.25-1.153c0,0,6.875-6,13.875,0l2.125,1.763c0,0,0.125,2.622-2.375,0.89
			c0,0-1.875-2.537-6-3c0,0-6.339,0.698-10.875,4.962C473.875,53.819,469.875,53.819,471.875,50.357z"/>
		<polygon fill="#F8ED37" points="475.625,57.972 475.625,61.549 486.5,59.761 486.5,65.125 475.625,66.74 475.625,76.315 
			494.5,76.315 494.5,71.701 478.875,73.316 478.75,68.817 491.75,67.778 491.875,55.78 		"/>
	</g>
	<path fill="#422E2D" enable-background="new    " d="M481.167,109.57c0,0,11.834,1.583,12.5-4.25
		C493.667,105.32,494.584,112.987,481.167,109.57z"/>
	<path fill="#7F6044" d="M484,94.32l-3.188,6.75c0,0-0.625,1.938,1.125,1.938h4.875l-4.75-0.813c0,0-0.896-0.5-0.375-1.438
		L484,94.32z"/>
</g>
</svg>
