<?xml version="1.0" encoding="utf-8"?>
<!-- Generator: Adobe Illustrator 16.0.0, SVG Export Plug-In . SVG Version: 6.00 Build 0)  -->
<!DOCTYPE svg PUBLIC "-//W3C//DTD SVG 1.1//EN" "http://www.w3.org/Graphics/SVG/1.1/DTD/svg11.dtd">
<svg version="1.1" id="Layer_1" xmlns="http://www.w3.org/2000/svg" xmlns:xlink="http://www.w3.org/1999/xlink" x="0px" y="0px"
	 width="684px" height="296.64px" viewBox="0 0 684 296.64" enable-background="new 0 0 684 296.64" xml:space="preserve">
<rect x="-46.333" y="-68.333" fill="#A6C4C4" width="808.667" height="439.333"/>
<g>
	<path fill="#161616" d="M228.041,271.762c0,0,1.787-3.385,4.133,0c0,0,5.576,6.27,2.807,9.037c0,0-4.384,5.09-5.999,5.09h-8.768
		c0,0,3.807-7.396,6.345-8.896C226.559,276.992,227.286,272.711,228.041,271.762z"/>
	<path fill="#161616" d="M262.305,271.762c0,0-1.787-3.385-4.133,0c0,0-5.576,6.27-2.807,9.037c0,0,4.384,5.09,5.999,5.09h8.768
		c0,0-3.807-7.396-6.345-8.896C263.787,276.992,263.059,272.711,262.305,271.762z"/>
	<path fill="#414141" d="M228.329,165.246c0,0-1.186,6.377,1.252,9.223c0,0-4.29,87.141-1.541,97.293c0,0,1.749-1.115,4.133,0
		l8.614-90.756l8.922,0.307c0,0,9.076,75.682,7.845,91.373c0,0,1.538-1.809,4.153-1.23v-96.986c0,0,2-5.256,1.077-9.088
		L228.329,165.246z"/>
	<path fill="#5A4B3F" d="M241.718,97.175c0,0-13.313,6.15-14.621,6.919c0,0-6.999,0.693-7.614,16.998l-4.153,53.376h5.769
		c0,0,2.23-29.38,4.538-34.302l1.154,26.072l39.302,0.154l0.539-26.072c0,0,4.46,23.381,4.229,34.148h5.846
		c0,0,1.23-35.687-5-59.145c0,0,0.23-9.922-5.076-10.922l-16.045-7.227H241.718z"/>
	<g>
		<path fill="#625A41" d="M216.406,57.409c0,0-2.461-16.072-1.846-20.609c0,0-2.384,0.153-3.692,0.923c0,0,3.922-7.922,5.538-8.691
			c0,0-2.461-1.461-5.538,1.154c0,0-0.23-3.502,6.115-6.579l-4.346-0.77c0,0,7.96-3.73,11.268-2.423l-3.23-2.019
			c0,0,6.807-1.442,9.576,0.404H234c0,0,4.211-5.538,8.595-5.422l-0.404,2.307c0,0,4.73-2.365,9.114-1.327l-0.635,1.558
			c0,0,8.941-0.552,12.841,0.126c0.087,0.015,0.172,0.031,0.254,0.047v3.634c0,0,2.826-0.635,5.364,1.211l-0.865,1.557
			c0,0,6.345,1.673,7.326,5.076c0,0-2.365-0.923-3.865-0.058c0,0,6.129,4.326,5.516,7.038l-2.632-0.865c0,0,2.077,4.441,1.961,6.922
			l-2.884-1.211c0,0,3.186,10.427,2.073,14.85c-0.026,0.104-0.055,0.205-0.086,0.303c-1.352,4.229-12.716,12.189-12.716,12.189
			l-38.879-4.038l-6.807-2.48L216.406,57.409z"/>
		<path fill="#E2C193" d="M221.56,75.176c0,0,1.846,15.998,20.305,18.151l-0.385,10.153c0,0,5.076,9.076,9.922-0.769l-1.385-9.384
			c0,0,16.844-0.384,17.075-18.151l3.692-0.385c0,0,11.614-17.536,3.691-20.997c0,0-4.999,1.538-5.538,5.23
			c0,0-4.769-9.306-5.23-11.921V32.49c0,0,0.231-3.538-6.845-4.692c0,0-9.384-2.153-12.537,1H234.25c0,0-6-2.999-12.152,0.769
			c0,0,2.231,22.689-1.23,27.842c0,0,0.308,4.384-4.461,0c0,0-5.306-0.922-2.845,9.076C213.561,66.485,215.791,77.33,221.56,75.176z
			"/>
		<path fill="#242424" d="M219.483,51.948h49.608v8.685c0,0-2,8.082-7.307,9.697h-36.764c0,0-5.538-2.23-5.538-7.383V51.948z"/>
		<path fill="#E2C193" d="M244.94,57.65l15.075-1.087c0,0-1.385,6.076-4.23,7.691c0,0-3.604,1.231-6.686-0.384
			C249.1,63.87,245.017,61.506,244.94,57.65z"/>
		<path fill="#FFFFFF" d="M256.531,56.814c0,2.873-2.2,5.618-5.168,5.618c-2.967,0-5.356-1.986-5.356-4.859"/>
		<ellipse fill="#333333" cx="250.44" cy="58.947" rx="1.34" ry="1.297"/>
		<path fill="#E2C193" d="M241.172,57.261l-15.075-1.087c0,0,1.385,6.076,4.23,7.691c0,0,3.604,1.23,6.686-0.384
			C237.013,63.481,241.095,61.117,241.172,57.261z"/>
		<path fill="#FFFFFF" d="M229.582,56.426c0,2.873,2.2,5.617,5.168,5.617c2.967,0,5.356-1.986,5.356-4.859"/>
		<ellipse fill="#333333" cx="235.672" cy="58.558" rx="1.34" ry="1.297"/>
		<path fill="#333333" d="M230.943,51.948c0,0,0.615-4.307,6.538-2.461c0,0-7.076-4.383-10.768,2.461H230.943z"/>
		<path fill="#333333" d="M260.016,52.198c0,0-4.384-11.249-15.979-5.019c0,0,10.844,0.98,10.729,5.019H260.016z"/>
		<path fill="#9B8870" d="M237.48,70.33c0,0,0.73,7.922,6.557,4.615C244.037,74.945,237.788,80.021,237.48,70.33z"/>
		<path fill="#7D6752" d="M234.332,83.482c0,0,16.146,1.735,19.454-2.341c0,0-2.585,5.987-19.742,3.68L234.332,83.482z"/>
		<path fill="#7D6752" d="M232.096,86.943c0,0,2.572-3.384,2.748-7.614C234.844,79.329,235.48,85.174,232.096,86.943z"/>
		<path fill="#7D6752" d="M252.863,76.714c0,0,0.462,5.769,3.077,10.229C255.939,86.943,253.093,80.021,252.863,76.714z"/>
	</g>
	<path fill="#362D25" d="M239.557,98.787c0,0-1.385,8.537,3.999,11.152c0,0,5.23,0.615,6.46,0c0,0,3.846-2.308,3.461-11.152
		l-2.904-1.683l0.789,5.346c0,0-4.038,10.259-9.883,1.029l0.242-6.375L239.557,98.787z"/>
	<polygon fill="#362D25" points="226.097,149.945 266.279,149.945 266.349,146.547 225.955,147.374 	"/>
	<polygon fill="#362D25" points="226.518,160.098 266.279,160.098 266.349,156.699 226.408,157.619 	"/>
	<polygon fill="#362D25" points="225.636,140.167 266.63,140.32 265.399,136.552 225.636,135.822 	"/>
	<polygon fill="#362D25" points="225.636,130.014 266.63,130.168 265.399,126.399 225.636,125.67 	"/>
	<polygon fill="#362D25" points="225.636,119.861 266.63,120.016 265.399,116.247 225.636,115.518 	"/>
	<path fill="#E2C193" d="M270.069,175.77c0,0,2.317-6.916,6.428-1.174c0,0-0.324,5.357,0.97,6.895c0,0,1.833,4.77-0.398,7.613
		c0,0-7.3,7.537-9.918,7.461c0,0-1.234-2.154,1.381-4.77c0,0,1.307-4.074,0.384-5.613c0,0-1.384-0.77-1,4.076
		c0,0,0.23,3.23-1.77,1.385c0,0-1.609-6.307,1.003-10.613C267.15,181.029,269.566,176.904,270.069,175.77z"/>
	<path fill="#E2C193" d="M221.686,175.77c0,0-2.317-6.916-6.428-1.174c0,0,0.324,5.357-0.97,6.895c0,0-1.833,4.77,0.397,7.613
		c0,0,7.3,7.537,9.919,7.461c0,0,1.234-2.154-1.381-4.77c0,0-1.308-4.074-0.385-5.613c0,0,1.384-0.77,1,4.076
		c0,0-0.23,3.23,1.769,1.385c0,0,1.609-6.307-1.003-10.613C224.604,181.029,222.188,176.904,221.686,175.77z"/>
</g>
<g>
	<path fill="#261E1E" d="M400.116,85.527c0,0-4.355-1.863-2.179,1.291c0,0-6.607,0.667-2.102-4.623c0,0,2.929-0.531,0-1.897
		c0,0-2.027-2.501-3.379,1.897c0,0-5.481-0.609-2.178-3.975c0,0,3.994-2.029,7.048-0.883c0,0-0.064-1.362-0.74-1.666
		c0,0-4.956-1.018-6.833,1.272c0,0-5.032,0.6-2.629-1.84c0,0,3.854,0.478,3.354-3.479c0,0-3.228-2.453-4.004-2.304
		c0,0,2.243-1.167,2.986-0.227s13.283,6.986,11.856,15.733L400.116,85.527z"/>
	<path fill="#261E1E" d="M403.802,86.564c0,0-4.355-1.863-2.177,1.291c0,0-6.607,0.667-2.104-4.623c0,0,2.929-0.531,0-1.897
		c0,0-2.026-2.501-3.378,1.897c0,0-5.482-0.609-2.179-3.975c0,0,3.996-2.029,7.048-0.883c0,0-0.064-1.362-0.74-1.666
		c0,0-4.956-1.017-6.833,1.273c0,0-5.03,0.6-2.628-1.84c0,0,3.854,0.478,3.353-3.479c0,0-3.227-2.453-4.003-2.304
		c0,0,2.242-1.168,2.985-0.227c0.744,0.94,13.283,6.986,11.857,15.733L403.802,86.564z"/>
	<path fill="#261E1E" d="M437.516,87.176c0,0,4.839,0.204,3.206-1.879c0,0-0.876-0.507-1.959,0L437.516,87.176z"/>
	<path fill="#261E1E" d="M440.737,81.727c0,0,1.843-0.119,1.955,0.726c0,0,2.027,0.817,2.056-0.479c0,0-1.858-0.141-1.296-1.408
		c0,0,1.83-1.042-0.112-1.661c0,0-1.31-0.306-1.096-1.133L440.737,81.727z"/>
	<path fill="#261E1E" d="M438.374,85.138c0,0,1.842-0.119,1.954,0.726c0,0,2.027,0.817,2.057-0.479c0,0-1.859-0.141-1.296-1.408
		c0,0,1.831-1.042-0.112-1.662c0,0-1.31-0.306-1.096-1.133L438.374,85.138z"/>
	<path fill="#261E1E" d="M444.577,74.684c0,0,2.209-0.068,1.645,0.833c0,0-2.481,0.3,0.093,1.614c0,0-0.655,2.817,3.625,2.741
		c0,0,0.337-1.088-1.165-0.92c0,0-2.103-0.475-0.694-1.673c0,0,5.105-0.654-0.244-1.837c0,0-1.471-0.8-0.669-2.39L444.577,74.684z"
		/>
	<path fill="#261E1E" d="M440.379,75.994c0,0,2.208-0.069,1.646,0.833c0,0-2.482,0.3,0.092,1.614c0,0-0.655,2.816,3.625,2.741
		c0,0,0.338-1.089-1.165-0.92c0,0-2.103-0.475-0.694-1.674c0,0,5.105-0.654-0.245-1.837c0,0-1.469-0.8-0.668-2.39L440.379,75.994z"
		/>
	<path fill="#261E1E" d="M447.614,71.567c0,0,3.864,0.284,1.066,3.645c0,0-0.752,1.032-0.938,0c0,0,1.333-1.033,0.656-1.934
		c0,0-0.663-0.163-1.57,0.106L447.614,71.567z"/>
	<path fill="#E2C193" d="M396.737,75.667c0,0-6.082,0.451-7.659-8.222c0,0-1.641-5.276-0.45-7.321l12.502-20.612l41.787,3.942
		l3.042,11.601c0,0,3.604,0,4.167,0.789c0.563,0.789,0.563,0.789,0.563,0.789s2.478,7.321-3.83,16.895c0,0-3.378,2.591-3.942,0.226
		c0,0-13.403-3.042-21.851-6.533C421.066,67.219,396.174,65.417,396.737,75.667z"/>
	<path fill="#333333" d="M413.502,54.454c0,0-3.851-8.336-10.908-1.877l0.45,1.048C403.044,53.625,408.639,48.897,413.502,54.454z"
		/>
	<path fill="#333333" d="M419.189,54.454c0,0,8.109-13.817,15.168-3.004C434.357,51.45,422.944,47.621,419.189,54.454z"/>
	<path fill="#261E1E" d="M393.734,58.809c0,0,3.948,8.3,4.203,10.663c0,0-2.817-11.72-1.634-15.847L393.734,58.809z"/>
	<path fill="#261E1E" d="M410.963,40.888c0,0,7.925,5.512,9.952,5.137c0,0-0.635-3.898-2.982-5.216
		C417.933,40.809,411.552,40.741,410.963,40.888z"/>
	<path fill="#261E1E" d="M420.192,41.802c0,0,4.811,5.773,11.236,8.447c0,0,1.668,0.499,0.496-2.266
		C430.752,45.217,423.374,41.84,420.192,41.802z"/>
	<path fill="#261E1E" d="M440.78,55.768c0,0-3.104,7.762-0.565,13.704c0,0,2.702-6.307,3.379-10.663
		C444.269,54.454,440.78,55.768,440.78,55.768z"/>
	<path fill="#585442" d="M443.594,58.809c0,0-14.719-17.421-27.935-17.721c0,0-13.215-2.703-21.925,17.721
		c0,0-3.418-3.642-5.106,1.314c0,0-9.688-23.991,8.334-39.31c0,0,22.076-25.68,46.632,6.083c0,0,7.389,12.315,5.586,28.083
		C449.18,54.979,444.269,57.608,443.594,58.809z"/>
	<path fill="#332518" d="M428.959,98.907l10.129,5.247c0,0,6.156-2.694,11.264,23.737l-9.462,2.703c0,0-0.149,26.132,2.027,31.388
		c0,0-34.015,6.307-41.975,0.752l0.751-32.59l-10.514-1.502c0,0,6.157-17.871,6.309-18.923c0,0-1.75-5.128,14.143-9.922
		L428.959,98.907z"/>
	<path fill="#362D25" d="M442.917,60.01"/>
	<path fill="#585858" d="M396.737,75.667c0,0,7.367,23.203,22.943,29.173c0,0,22.561-16.145,23.236-31.087l-21.851-6.533
		C421.066,67.219,397.188,64.854,396.737,75.667z"/>
	<path fill="#5C5147" d="M412.732,100.732c0,0-2.478,9.888,0,12.441c0,0,0.248-7.693,2.639-10.53L412.732,100.732z"/>
	<path fill="#5C5147" d="M420.731,104.055c0,0,3.319,6.247,4.221,7.204c0,0,4.653-5.667,3.932-14.209L420.731,104.055z"/>
	<path fill="#D7B88C" d="M415.371,102.644c0,0,0.458,7.602,2.598,9.911c0,0,2.251-4.245,2.224-8.092L415.371,102.644z"/>
	<path fill="#E2C193" d="M394.004,129.046c0,0-5.227,39.208-2.824,47.991c0,0-2.439,7.885-1.989,11.152c0,0-0.112,4.055,3.717,6.307
		l4.619,3.717c0,0,4.167,3.943,3.152-0.676c0,0-3.604-3.828-2.59-8.223c0,0,0.789-3.041,2.14,0.227c0,0-0.563,9.461,1.689,4.504
		c0,0,1.07-8.334-1.183-11.318c0,0-2.929-4.844-3.942-5.52l4.9-47.063L394.004,129.046z"/>
	<path fill="#E2C193" d="M448.04,128.552c0,0,5.289,39.702,2.886,48.485c0,0,2.44,7.885,1.989,11.152c0,0,0.113,4.055-3.717,6.307
		l-4.617,3.717c0,0-4.168,3.943-3.154-0.676c0,0,3.604-3.828,2.59-8.223c0,0-0.787-3.041-2.139,0.227c0,0,0.563,9.461-1.69,4.504
		c0,0-1.069-8.334,1.184-11.318c0,0,2.928-4.844,3.941-5.52l-4.423-46.612L448.04,128.552z"/>
	<path fill="#414141" d="M403.601,163.932c0,0-2.207,5.109,0.946,9.314l-1.697,95.664h5.151l8.109-89.355l8.11-0.451
		c0,0,7.51,57.67,7.809,90.408l4.956-0.9l-1.201-95.215c0,0,2.253-2.26,1.201-10.441L403.601,163.932z"/>
	<path fill="#161616" d="M437.213,269.357c0,0-1.609-3.051-3.724,0c0,0-5.024,5.648-2.529,8.143c0,0,3.95,4.586,5.405,4.586h7.9
		c0,0-3.431-6.666-5.718-8.016C438.548,274.07,437.893,270.211,437.213,269.357z"/>
	<path fill="#161616" d="M402.9,268.104c0,0,1.61-3.049,3.725,0c0,0,5.023,5.648,2.529,8.145c0,0-3.95,4.586-5.406,4.586h-7.899
		c0,0,3.43-6.666,5.717-8.016C401.565,272.818,402.222,268.959,402.9,268.104z"/>
	<circle fill="#333333" cx="409.653" cy="60.536" r="2.403"/>
	<circle fill="#333333" cx="425.947" cy="60.536" r="2.403"/>
	<path fill="#B79F80" d="M417.293,58.434c0,0-3.947,5.331-2.762,8.579C414.531,67.012,411.268,64.122,417.293,58.434z"/>
	<path fill="#514B3B" d="M418.063,24.643c0,0,3.304-1.953,6.007,0.3c0,0,1.002,7.509,8.273,7.209c7.271-0.301,0,0.225,0,0.225
		s-2.267,4.354-6.396,1.727C425.946,34.104,415.51,25.845,418.063,24.643z"/>
	<path fill="#514B3B" d="M425.121,20.213c0,0-6.608-0.601-3.98-4.581c0,0,2.404-3.83,6.608-0.3c0,0,3.379,1.878,4.205,4.881
		c0,0,4.28,2.178,1.576,5.181c0,0-5.181,3.686-5.632-1.536C427.898,23.858,424.069,22.015,425.121,20.213z"/>
	<path fill="#514B3B" d="M403.646,33.128l0.375,3.53h5.632C409.652,36.658,408.15,31.851,403.646,33.128z"/>
	<path fill="#3A372C" d="M398.465,27.872c0,0,5.406-0.751,5.856,0.977C404.321,28.848,402.97,27.572,398.465,27.872z"/>
	<path fill="#3A372C" d="M434.882,29.403c0,0,3.306,1.021,3.005,6.428C437.887,35.831,439.613,30.258,434.882,29.403z"/>
	<path fill="#3A372C" d="M438.195,30.903c0,0,1.761,0.545,1.602,3.427C439.797,34.331,440.716,31.359,438.195,30.903z"/>
	<path fill="#3A372C" d="M440.565,31.974c0,0,1.762,0.544,1.602,3.427C442.167,35.4,443.087,32.429,440.565,31.974z"/>
	<path fill="#3A372C" d="M388.927,43.888c0,0-3.229,4.734,0,8.401C388.927,52.289,387.05,47.363,388.927,43.888z"/>
	<path fill="#3A372C" d="M390.505,45.067c0,0-2.104,1.051,0,4.355C390.505,49.422,389.002,46.344,390.505,45.067z"/>
</g>
</svg>
