<?xml version="1.0" encoding="utf-8"?>
<!-- Generator: Adobe Illustrator 16.0.0, SVG Export Plug-In . SVG Version: 6.00 Build 0)  -->
<!DOCTYPE svg PUBLIC "-//W3C//DTD SVG 1.1//EN" "http://www.w3.org/Graphics/SVG/1.1/DTD/svg11.dtd">
<svg version="1.1" id="Layer_1" xmlns="http://www.w3.org/2000/svg" xmlns:xlink="http://www.w3.org/1999/xlink" x="0px" y="0px"
	 width="88px" height="278.571px" viewBox="0 0 88 278.571" enable-background="new 0 0 88 278.571" xml:space="preserve">
<g id="cool">
	<g id="speaking1">
		<g id="action5_5_">
			<g id="action3_4_">
				<g>
					<path fill="#181818" d="M61.913,258.273c0,0,6.078,11.498,9.074,13.17c0,0-4.199,1.854-10.797,0.926
						c0,0-6.299-3.299-6.746-5.248c0,0-1.801-4.196,2.699-8.846C56.143,258.273,59.325,253.689,61.913,258.273z"/>
					<path fill="#A7B5CA" d="M26.104,152.43c0,0-1.252,7.479,1.596,10.629l-9.419,49.361l1.547,45.855c0,0,2.621-3.6,5.771,0
						l2.499-43.855l12.197-45.814l9.746-0.15c0,0,6.1,45.474,5.648,90.31c0,0,3.496-4.604,6.346-0.254l1.65-97.703
						c0,0,2.664-3.726,0.508-9.06C64.196,151.746,40.102,141.652,26.104,152.43z"/>
					<path fill="#D5DFEC" d="M37.598,86.885l-10.245,5.008c0,0-4.053,5.907-4.352,8.456c0,0,4.999,23.723-1.598,50.864
						c0,0,14.245,5.846,49.631-0.602c0,0-2.487-41.763,0.06-44.763c0,0,1.24-2.167,2.109-6.541l-3.062-8.196l-15.338-4.34
						L37.598,86.885z"/>
					<path fill="#E2C193" d="M11.568,45.167c0,0-5.573,3.929-0.511,13.602c0,0,4.836,8.097,7.985,4.049
						c0,0,7.984,18.331,21.929,19.23v3.599l-3.373,1.237c0,0-1.35,6.41,6.803,6.972l1.182,7.984l1.125-8.771
						c0,0,6.298,1.574,8.099-6.299l-4.273-1.462l-0.338-3.261c0,0,10.797,0.45,18.895-20.129c0,0,7.422,5.285,11.359-10.796
						c0,0,2.359-9.897-3.264-8.547L63.128,16.26l-36.1-4.836l-5.51,13.945l-7.422,11.697L11.568,45.167z"/>
					<path fill="#341D17" d="M18.104,54.046c0,0,1.424-7.423,0-14.058c0,0,11.51-8.659,13.87-17.994c0,0,8.886,2.136,12.708-1.124
						h8.771c0,0,2.137,11.92,15.408,16.587l0.449,16.589c0,0,5.061-12.708,7.871-11.471v-2.586c0,0,6.973,2.361,10.12-4.725
						c0,0-4.047,3.038-6.745,0c0,0,2.698-2.811,3.936-1.91c0,0-9.221-4.5-10.346-10.572c0,0,1.571,1.8,4.047,2.024
						c0,0-14.731-17.544-16.193-19.681c0,0-6.748-6.636-18.668,2.249c0,0-3.711,1.35-6.973-2.811c0,0-14.957-5.061-23.167,11.696
						c0,0-2.361,8.546-5.51,10.009c0,0,0.788,0.675,2.812,0.225c0,0-4.386,7.084-6.186,7.198c0,0,3.824-0.114,5.848-0.788
						c0,0,0,4.724-8.66,5.623C1.498,38.524,18.63,47.859,18.104,54.046z"/>
					<path fill="#333333" d="M46.993,38.524c0,0,9.422-4.274,13.846,2.398c0,0,0.676,1.8-0.975,1.8c0,0-9.771-3.074-12.871-1.8
						V38.524L46.993,38.524z"/>
					<path fill="#333333" d="M38.271,38.226c0,0,1.725,0.75,0,2.55c0,0-10.422-0.452-11.846,1.949
						C26.426,42.724,22.376,36.275,38.271,38.226z"/>
					<ellipse fill="#333333" cx="33.138" cy="48.273" rx="2.662" ry="2.699"/>
					<ellipse fill="#333333" cx="51.729" cy="48.273" rx="2.662" ry="2.699"/>
					<path fill="#A08469" d="M42.096,45.574c0,0-13.533,22.117,2.306,17.244C44.4,62.816,27.851,69.64,42.096,45.574z"/>
					<path fill="#542727" d="M36.313,70.688c0,0,11.856,3.374,18.081-3.674C54.391,67.015,49.12,75.936,36.313,70.688z"/>
				</g>
			</g>
		</g>
		<g>
			<path fill="#E2C293" d="M26.104,117.486c0,0-3.201,0.401-4.404-2.806c0,0-0.401-3.207,3.073-3.073c0,0,2.183,0.357,2.762,1.381
				C28.112,114.012,27.671,117.637,26.104,117.486z"/>
			<path fill="#BEC9D9" d="M59.958,94.994c0,0,3.563-7.482,11.224-3.385c0,0,3.92,4.098,1.604,8.729l-14.609,27.793
				c0,0-3.207,5.701-8.552,1.781L26.287,118.51c0,0-0.891-3.385,1.247-5.523l22.275,7.304c0,0,1.953,1.069,3.021-3.385
				L59.958,94.994z"/>
		</g>
		<g>
			<path fill="#BEC9D9" d="M28.78,91.297c0,0-2.672-0.401-5.612,7.75l-11.491,21.78c0,0-2.138,7.883,8.552,5.479l30.867-7.216
				c0,0-0.298-6.013-1.285-6.948l-25.08,4.143c0,0-0.505-14.03,1.372-17.104C26.104,99.18,28.247,94.236,28.78,91.297z"/>
			<path fill="#DFC6A4" d="M50.264,113.04c0,0,8.848-1.166,13.125-0.899c0,0,3.606-1.069,5.745,3.207c0,0,4.409,7.215,0,6.013
				c0,0-1.87-0.401-1.87,3.207c0,0-0.668,2.004-3.342-2.405c0,0-8.063-4.364-12.826-4.097
				C51.096,118.064,50.192,114.606,50.264,113.04z"/>
		</g>
		<path fill="#171617" d="M4.417,269.682c0,0-1.375-2,2.375-2.875c0,0,11.375-6.961,13.375-10.043c0,0,4.625-0.793,5.5,0
			c0,0,2.875,6.543,0.75,7.668c0,0-8.818,5.035-11.299,4.91C15.118,269.342,8.042,271.557,4.417,269.682z"/>
	</g>
</g>
</svg>
