<?xml version="1.0" encoding="utf-8"?>
<!-- Generator: Adobe Illustrator 16.0.0, SVG Export Plug-In . SVG Version: 6.00 Build 0)  -->
<!DOCTYPE svg PUBLIC "-//W3C//DTD SVG 1.1//EN" "http://www.w3.org/Graphics/SVG/1.1/DTD/svg11.dtd">
<svg version="1.1" id="Layer_1" xmlns="http://www.w3.org/2000/svg" xmlns:xlink="http://www.w3.org/1999/xlink" x="0px" y="0px"
	 width="100px" height="296.641px" viewBox="0 0 100 296.641" enable-background="new 0 0 100 296.641" xml:space="preserve">
<g id="walk0">
	<g>
		<path fill="#E2C193" d="M59.438,178.545c0,0,2.775-8.281,7.697-1.403c0,0-0.388,6.416,1.163,8.259c0,0,2.195,5.712-0.475,9.118
			c0,0-8.745,9.027-11.88,8.938c0,0-1.479-2.581,1.654-5.712c0,0,1.563-4.889,0.461-6.729c0,0-1.658-0.922-1.197,4.882
			c0,0,0.275,3.867-2.119,1.655c0,0-1.928-7.556,1.201-12.713C55.943,184.844,58.834,179.907,59.438,178.545z"/>
		<path fill="#BEC9D9" d="M57.703,113.438c0,0-1.25-11.118,9.75-7.118c0,0,4.5,3.25,2.75,8.125c0,0,0.75,52.875-3,64.875
			l-8.021-0.241c0,0,2.771-25.729,1.771-39.615L57.703,113.438z"/>
	</g>
	<path fill="#A6B5CA" d="M32.31,166.07c0,0,27,3.5,39.5,0c0,0-1.25,8-2.5,10.75l3.875,37.875c0,0,0.75,8.854,0.25,11.125
		l3.875,54.625c0,0-2.125,1-5.625,0.375l-7.375-60.875l-7.125-37.625c0,0-3.424,1.125-7.588,0c0,0,0.948,19.813,1.213,42.041
		c0.006,0.611-0.166,2.085-0.459,2.625c-12.125,22.334-18.64,40.834-20.919,44.085c0,0-2.908-5.109-5.241-4.775l16.417-38.415
		l-3.412-45.283C37.193,182.594,33.993,174.515,32.31,166.07z"/>
	<path fill="#D4DEEC" d="M40.686,101.445l-10.625,3.75c0,0-2.75,44.375,2.25,60.875c0,0,23.5,3.5,39.5,0c0,0-2-33,0-50
		c0,0-0.25-7-5.25-9.75l-8-3.125c0,0,0.131,3.672-4.5,4v7.25l-2.375-6.625C51.686,107.82,43.561,107.32,40.686,101.445z"/>
	<g>
		<path fill="#E2C193" d="M57.203,180.274c4.316,4.213,4.337,12.014,4.337,12.014c-1.767,2.736-2.465-1.073-2.465-1.073
			c-1.003-5.735-2.378-4.429-2.378-4.429c-0.61,2.058,2.126,6.396,2.126,6.396c3.815,2.25,3.028,5.118,3.028,5.118
			c-3.016,0.87-13.735-5.688-13.735-5.688c-3.437-2.632-2.736-8.711-2.736-8.711c1.042-2.171-0.937-8.287-0.937-8.287
			c3.05-7.889,7.806-0.563,7.806-0.563C53.169,176.216,57.203,180.274,57.203,180.274z"/>
		<path fill="#BEC9D9" d="M37.67,111.569c0,0-1.566-11.074-11.219-4.458c0,0-3.546,4.271-0.634,8.558
			c0,0,12.476,51.388,19.103,62.067l7.706-2.236c0,0-9.106-24.223-11.606-37.918L37.67,111.569z"/>
	</g>
	<g>
		<path fill="#E2C193" d="M31.06,61.82c0,0-8.25-20.875-16.25-6.875l1.916,4.893c0,0,4.584,20.232,14.334,12.982
			c0,0,4.875,12,14.625,19l-2.625,8.375l-2.375,1.25c0,0,3.232,6.293,11,6.375l2.375,6.625v-7.25c0,0,4.625-0.375,4.5-4l-5-2.5
			l-0.25-5.625c0,0,17.688,2.497,23.25-28.25c0,0,1.396-7.505,1.445-16.188L73.061,28.82l-13.875-2.5L46.41,27.945
			C46.409,27.945,28.435,38.57,31.06,61.82z"/>
		<path fill="#542626" d="M49.325,77.057c6.502,7.361,18.889,3.838,18.889,3.838C54.833,86.376,49.327,77.057,49.325,77.057z"/>
		<path fill="#333333" d="M55.373,49.979c0,0,1.802,0.784,0,2.664c0,0-10.887-0.473-12.375,2.036
			C42.998,54.679,38.768,47.942,55.373,49.979z"/>
		<path fill="#A08468" d="M60.325,75.67c16.547,5.09,2.409-18.015,2.409-18.015C77.616,82.798,60.325,75.67,60.325,75.67z"/>
		<ellipse fill="#333333" cx="69.434" cy="60.475" rx="2.78" ry="2.82"/>
		<ellipse fill="#333333" cx="50.434" cy="60.475" rx="2.78" ry="2.82"/>
		<path fill="#341D17" d="M49.598,33.25c0,0,16.712-2,21.712,0c0,0,3.25,29.062,18.25,15.531c0,0-5.75-1.531-6.75-5.031
			c0,0,3-0.271,4.5-1.383c0,0-5-3.117-5.918-6.45c0,0,1.416,0.417,2.084,0.083c0,0-10.25-30.5-25.25-20.5
			c0,0-25.667-21-37.667,20.333c0,0-2,6.5-11.5,6.667c0,0,2.667,7.5,6.5,9.167c0,0-1.834,1.245-4.667,0.706c0,0,1,3.628,5.833,7.461
			c0,0-2.333-6.833,2.167-7.333c0,0,9.5-0.333,10.667,11.667c0,0,2.667,0.667,3.667-3l1-10.833
			C34.227,50.333,46.634,47.833,49.598,33.25z"/>
		<path fill="#333333" d="M62.482,50.292c0,0,9.845-4.465,14.466,2.506c0,0,0.704,1.882-1.019,1.882c0,0-10.209-3.214-13.447-1.882
			V50.292z"/>
	</g>
	<path fill="#191918" d="M23.099,267.5l-2.109,4.604l4.461,3.449c0,0,0.587-0.551,1.63,1.563c0,0,3.504,5.104,11.194,6.303
		c0,0,3.675,0.188,1.434-2.153c0,0-9.955-8.918-11.078-13.65C28.631,267.615,26.47,262.925,23.099,267.5z"/>
	<path fill="#191918" d="M70.792,281.072l0.962,4.979l5.635,0.215c0,0,0.158-0.789,2.234,0.324c0,0,5.818,2.12,12.773-1.376
		c0,0,3.103-1.979-0.086-2.585c0,0-13.283-1.479-16.949-4.678C75.363,277.951,70.877,275.391,70.792,281.072z"/>
</g>
</svg>
