<?xml version="1.0" encoding="utf-8"?>
<!-- Generator: Adobe Illustrator 16.0.0, SVG Export Plug-In . SVG Version: 6.00 Build 0)  -->
<!DOCTYPE svg PUBLIC "-//W3C//DTD SVG 1.1//EN" "http://www.w3.org/Graphics/SVG/1.1/DTD/svg11.dtd">
<svg version="1.1" id="Layer_1" xmlns="http://www.w3.org/2000/svg" xmlns:xlink="http://www.w3.org/1999/xlink" x="0px" y="0px"
	 width="100px" height="296.641px" viewBox="0 0 100 296.641" enable-background="new 0 0 100 296.641" xml:space="preserve">
<g id="walk1">
	<g>
		<path fill="#E2C193" d="M83.04,176.993c0,0-0.332-8.729,6.704-4.035c0,0,1.906,6.139,4.01,7.313c0,0,4.072,4.566,2.779,8.697
			c0,0-4.986,11.537-7.951,12.562c0,0-2.295-1.891-0.473-5.928c0,0-0.264-5.124-1.947-6.453c0,0-1.876-0.273,0.607,4.99
			c0,0,1.625,3.521-1.396,2.297c0,0-4.477-6.385-3.373-12.313C82,184.121,82.959,178.481,83.04,176.993z"/>
		<path fill="#BEC9D9" d="M58.391,116.709c0,0-5.101-9.958,6.604-10.107c0,0,5.356,1.449,5.444,6.627c0,0,19.4,49.192,20.141,61.742
			l-7.592,2.609c0,0-6.506-25.045-12.354-37.686L58.391,116.709z"/>
	</g>
	<path fill="#D4DEEC" d="M40.625,101.445L30,105.195c0,0-2.75,44.375,2.25,60.875c0,0,23.5,3.5,39.5,0c0,0-2-33,0-50
		c0,0-0.25-7-5.25-9.75l-8-3.125c0,0,0.131,3.672-4.5,4v7.25l-2.375-6.625C51.625,107.82,43.5,107.32,40.625,101.445z"/>
	<g>
		<path fill="#E2C193" d="M28.61,184.491c2.226,5.604-0.933,12.731-0.933,12.731c-2.729,1.782-1.813-1.98-1.813-1.98
			c1.42-5.647-0.368-5.018-0.368-5.018c-1.396,1.63-0.665,6.708-0.665,6.708c2.568,3.609,0.68,5.907,0.68,5.907
			c-3.105-0.433-10.226-10.79-10.226-10.79c-2.065-3.804,1.049-9.07,1.049-9.07c1.836-1.559,2.522-7.946,2.522-7.946
			c5.998-5.966,7.356,2.665,7.356,2.665C26.58,179.142,28.61,184.491,28.61,184.491z"/>
		<path fill="#BEC9D9" d="M38.764,113.789c0,0,3.084-10.755-8.43-8.646c0,0-4.978,2.456-4.063,7.558c0,0-9.543,52.013-7.842,64.469
			l7.95,1.095c0,0,1.55-25.829,4.849-39.354L38.764,113.789z"/>
	</g>
	<g>
		<path fill="#E2C193" d="M31,61.82c0,0-8.25-20.875-16.25-6.875l1.916,4.893c0,0,4.584,20.232,14.334,12.982
			c0,0,4.875,12,14.625,19L43,100.195l-2.375,1.25c0,0,3.375,6,11,6.375L54,114.445v-7.25c0,0,4.625-0.375,4.5-4l-5-2.5l-0.25-5.625
			c0,0,17.691,2.497,23.25-28.25c0,0,1.396-7.505,1.448-16.188L73,28.82l-13.875-2.5L46.35,27.945
			C46.35,27.945,28.375,38.57,31,61.82z"/>
		<path display="none" fill="#542626" d="M49.266,77.057c6.501,7.361,18.888,3.838,18.888,3.838
			C54.773,86.376,49.268,77.057,49.266,77.057z"/>
		<path fill="#333333" d="M55.313,49.979c0,0,1.806,0.784,0,2.664c0,0-10.887-0.473-12.373,2.036
			C42.938,54.679,38.707,47.942,55.313,49.979z"/>
		<path fill="#A08468" d="M60.266,75.67c16.547,5.09,2.408-18.015,2.408-18.015C77.557,82.798,60.266,75.67,60.266,75.67z"/>
		<ellipse fill="#333333" cx="69.373" cy="60.475" rx="2.781" ry="2.82"/>
		<ellipse fill="#333333" cx="50.373" cy="60.475" rx="2.781" ry="2.82"/>
		<path fill="#341D17" d="M49.537,33.25c0,0,16.713-2,21.713,0c0,0,3.25,29.062,18.25,15.531c0,0-5.75-1.531-6.75-5.031
			c0,0,3-0.271,4.5-1.383c0,0-5-3.117-5.917-6.45c0,0,1.416,0.417,2.083,0.083c0,0-10.25-30.5-25.25-20.5
			c0,0-25.666-21-37.666,20.333c0,0-2,6.5-11.5,6.667c0,0,2.667,7.5,6.5,9.167c0,0-1.834,1.245-4.667,0.706c0,0,1,3.628,5.833,7.461
			c0,0-2.333-6.833,2.167-7.333c0,0,9.5-0.333,10.667,11.667c0,0,2.667,0.667,3.667-3l1-10.833
			C34.167,50.333,46.574,47.833,49.537,33.25z"/>
		<path fill="#333333" d="M62.424,50.292c0,0,9.844-4.465,14.465,2.506c0,0,0.705,1.882-1.019,1.882c0,0-10.208-3.214-13.446-1.882
			V50.292L62.424,50.292z"/>
	</g>
	<path fill="#A6B5CA" d="M32.25,166.07c0,0,27,3.5,39.5,0c0,0-1.25,8-2.5,10.75l-1.125,37.875c0,0-0.789,6.456-0.75,11.125
		l-2.125,53.625c-5.125,0-5.993-0.513-6.625-0.625l-0.375-53.875l-1.125-42.625c0,0,4.576,1.125,0.413,0
		c0,0,8.628,24.666,12.708,40.875c0.172,0.688,0.279,1.466,0.025,2.125c-1.271,3.333-29.676,34.987-30.733,38.75
		c0,0-1.372-0.583-4.038-2.75l24.84-36.188l-23.206-42.535C37.134,182.594,33.934,174.515,32.25,166.07z"/>
	<path fill="#191918" d="M33.039,262.5l-2.108,4.604l4.461,3.449c0,0,0.586-0.551,1.629,1.563c0,0,3.504,5.104,11.194,6.303
		c0,0,3.676,0.188,1.435-2.153c0,0-9.955-8.918-11.078-13.65C38.57,262.615,36.41,257.925,33.039,262.5z"/>
	<path fill="#191918" d="M58.732,281.072l0.963,4.979l5.635,0.215c0,0,0.158-0.789,2.234,0.324c0,0,5.815,2.12,12.771-1.376
		c0,0,3.104-1.979-0.085-2.585c0,0-13.283-1.479-16.95-4.678C63.303,277.951,58.818,275.391,58.732,281.072z"/>
	<g>
		<path fill="#542727" d="M49.967,77.615c0,0,9.988,7.227,18.249,2.731C68.211,80.348,58.957,93.152,49.967,77.615z"/>
		<path fill="#FFFFFF" d="M49.967,77.615c0,0,9.988,7.227,18.249,2.731C68.211,80.348,59.336,87.538,49.967,77.615z"/>
	</g>
</g>
</svg>
