<?xml version="1.0" encoding="utf-8"?>
<!-- Generator: Adobe Illustrator 16.0.0, SVG Export Plug-In . SVG Version: 6.00 Build 0)  -->
<!DOCTYPE svg PUBLIC "-//W3C//DTD SVG 1.1//EN" "http://www.w3.org/Graphics/SVG/1.1/DTD/svg11.dtd">
<svg version="1.1" id="Layer_1" xmlns="http://www.w3.org/2000/svg" xmlns:xlink="http://www.w3.org/1999/xlink" x="0px" y="0px"
	 width="684px" height="296.64px" viewBox="0 0 684 296.64" enable-background="new 0 0 684 296.64" xml:space="preserve">
<rect x="-107.667" y="-84.333" fill="#A7C5C5" width="827.333" height="423.333"/>
<g>
	<path fill="#333333" d="M227.279,63.493v8.992c0,0,5.173,10.141,25.842,9.351l29.026-4.405v-8.893v-5.044H227.279z"/>
	<path fill="#D0AC66" d="M250.472,110.861l-13.276,6.212c0,0-4.856,1.807-5.195,6.777l-5.195,16.603l9.826,2.485
		c0,0-2.598,20.896-0.226,25.978c0,0,0.452,12.197,4.066,15.359l-1.242,90.693c0,0,1.694-3.162,4.292,0l7.454-84.932
		c0,0,5.76,1.354,8.358-0.453l7.454,85.385c0,0,2.259-3.387,4.518,0.564l-0.791-92.311c0,0,11.859-14.533,4.97-40.962l9.374-1.694
		l-5.421-19.426c0,0-1.129-2.937-4.744-4.518l-15.756-5.76H250.472z"/>
	<path fill="#CE9D7D" d="M229.553,140.754c0,0-4.851,28.462-2.274,46.231l-2.092,9.939c0,0-0.452,3.766,3.012,6.928
		c0,0,5.12,4.668,6.626,5.422c0,0,4.066,0.602,0-4.82c0,0-0.904-4.064-0.301-6.023c0,0,0.978,0.709,1.205,4.217
		c0,0,1.694,4.273,1.412-3.238c0,0,1.863-6.268-5.195-11.633c0,0,2.993-22.42,2.654-26.146l2.764-18.862L229.553,140.754z"/>
	<path fill="#CE9D7D" d="M282.185,140.754c0,0,3.138,26.796,0.562,44.565l2.092,9.939c0,0,0.452,3.764-3.011,6.926
		c0,0-5.121,4.67-6.626,5.422c0,0-4.066,0.602,0-4.818c0,0,0.904-4.064,0.301-6.023c0,0-0.978,0.709-1.205,4.215
		c0,0-1.694,4.275-1.412-3.236c0,0-1.864-6.268,5.195-11.633c0,0-2.993-22.42-2.654-26.146l0.207-18.306L282.185,140.754z"/>
	<path fill="#A68952" d="M253.032,126.147l6.564-3.916l-1.882-3.765c0,0,3.162,0.753,4.141,2.71l1.198-8.811
		c0,0-1.951-5.646-4.172-6.474c-2.221-0.828-8.409,1.282-8.409,1.282l-2.561,4.885l-2.997,7.913l4.668-2.41l-0.301,3.012
		l4.704,2.108L253.032,126.147z"/>
	<path fill="#CE9D7D" d="M231.066,65.13v9.815c0,0-7.763-7.68-6.859,3.388c0,0,4.066,15.36,9.713,9.261
		c0,0,4.292,13.892,17.167,19.878v7.229h6.777c0,0,1.694-2.372,1.016-8.81c0,0,10.165-2.937,15.925-17.732
		c0,0,8.81,4.405,10.052-16.49c0,0-3.727-8.958-8.922,5.385l1.046-11.822L231.066,65.13z"/>
	<path fill="#2C2614" stroke="#CFA342" stroke-miterlimit="10" d="M237.482,68.338c0,0-8.286,3.501-6.653,11.633
		c0,0,2.843,12.593,15.544,2.88c0,0,5.988-4.594,4.416-12.575C250.789,70.277,243.288,65.854,237.482,68.338z"/>
	<path fill="#2C2614" stroke="#CFA342" stroke-miterlimit="10" d="M268.582,68.338c0,0,8.286,3.501,6.653,11.633
		c0,0-2.843,12.593-15.544,2.88c0,0-5.988-4.594-4.415-12.575C255.275,70.277,262.775,65.854,268.582,68.338z"/>
	<rect x="251.052" y="72.065" fill="#CFA342" width="3.96" height="0.904"/>
	<path fill="#574024" d="M218.41,51.303c0,0-12.349-11.445-6.626,1.506c0,0,12.348,14.457,40.66,17.468
		c0,0,39.417-3.689,44.838-19.388c0,0,1.242-5.647-0.564-6.551c0,0-2.146-0.791-2.711,5.083c0,0-5.873,4.744-9.939,4.518
		c0,0-11.242-0.679-24.17,7.455c0,0-6.551,1.807-10.617,0.452s-16.339-6.174-23.605-8.358L218.41,51.303z"/>
	<path fill="#6D502E" d="M224.924,53.26l0.752-11.294c0,0,10.391-19.426,20.443-24.283h13.101l7.002,8.357
		c0,0,6.099-0.339,6.777,1.355c0,0,10.608,15.483,9.483,26.546C282.482,53.943,252.973,78.673,224.924,53.26z"/>
	<path fill="#574024" d="M245.441,21.297c0,0-4.744,14.118-10.278,16.377c0,0-4.066,1.694-1.92-3.163
		C233.243,34.512,238.1,25.928,245.441,21.297z"/>
	<path fill="#574024" d="M257.978,21.297c0,0,4.292,14.344,13.327,14.796C271.305,36.093,275.258,28.865,257.978,21.297z"/>
	<path fill="#A47D64" d="M250.335,81.722c0,0-6.955,8.583,2.697,8.132C253.032,89.854,245.566,89.008,250.335,81.722z"/>
	<path fill="#654942" d="M247.911,95.501c0,0,10.782,2.56,13.492-2.711C261.403,92.791,258.588,100.771,247.911,95.501z"/>
	<path fill="#654942" d="M259.596,91.134c0,0,3.237,3.087,4.518,3.539"/>
	<polygon fill="#EED18B" points="251.281,56.649 246.538,56.649 249.813,53.486 247.554,49.533 251.959,50.663 253.766,45.806 
		255.234,50.324 259.526,50.437 256.815,53.938 259.526,58.004 255.347,56.649 253.032,60.376 	"/>
	<polygon fill="#EED18B" points="267.565,129.728 266.204,129.728 267.144,128.82 266.496,127.686 267.759,128.01 268.278,126.616 
		268.699,127.913 269.931,127.945 269.153,128.95 269.931,130.117 268.732,129.728 268.067,130.797 	"/>
	<polygon fill="#C6C6C5" points="251.088,114.702 254.496,119.106 257.865,114.702 	"/>
	<rect x="253.936" y="124.641" fill="#A68952" width="0.713" height="24.621"/>
	<polygon fill="#A68952" points="240.833,131.568 247.022,131.568 246.269,134.58 243.928,134.58 242.956,135.483 241.601,134.73 
		239.492,134.429 	"/>
	<polygon fill="#A68952" points="264.114,131.568 272.021,131.568 272.021,134.881 269.159,134.881 268.067,136.236 266.75,134.73 
		264.114,135.483 	"/>
	<path fill="#353535" d="M228.161,148.02c0,0-4.066,0.113-3.389,2.71c0,0,2.372,0.113,3.389,2.484c0,0,5.083,8.02,7.115,9.263
		v-4.519c0,0-5.365-4.97-6.268-7.115l-0.731-1.144L228.161,148.02z"/>
	<rect x="234.41" y="168.688" fill="#382B1E" width="9.036" height="10.844"/>
	<polygon fill="#3F3327" points="240.321,171.55 237.874,173.396 235.013,173.396 235.013,173.733 237.798,173.733 240.321,171.851 
			"/>
	<polygon fill="#473626" points="243.445,172.491 257.714,172.491 257.714,182.167 243.445,182.317 	"/>
	<polygon fill="#392B1D" points="244.236,174.11 250.862,177.499 252.368,177.499 256.66,174.11 256.66,174.638 252.406,178.063 
		250.899,178.063 244.236,174.675 	"/>
	<rect x="257.714" y="174.11" fill="#8E5F29" width="1.995" height="4.555"/>
	<rect x="259.709" y="175.024" fill="#48332B" width="7.191" height="2.738"/>
	<polygon fill="#0F0E0F" points="274.361,161.93 274.361,158.862 275.54,158.862 276.105,160.67 286.044,160.396 286.044,164.792 
		282.754,166.421 	"/>
	<polygon fill="#20201F" points="265.206,180.097 270.966,183.993 284.124,172.491 281.865,162.478 273.338,161.855 	"/>
	<path fill="#161616" d="M238.589,275.835c0,0-4.559,11.697-7.324,12.475c0,0,4.915,0.879,8.68,0c0,0,8.132-2.236,4.819-10.668
		C244.763,277.642,242.504,269.509,238.589,275.835z"/>
	<path fill="#161616" d="M271.514,275.835c0,0,4.559,11.697,7.324,12.475c0,0-4.914,0.879-8.679,0c0,0-8.132-2.236-4.819-10.668
		C265.339,277.642,267.599,269.509,271.514,275.835z"/>
</g>
<g>
	<g>
		<path fill="#D0AC66" d="M395.493,108.805l-13.276,6.212c0,0-4.855,1.807-5.195,6.777l-5.195,16.603l9.826,2.485
			c0,0-2.598,20.896-0.226,25.979c0,0,0.452,12.196,4.065,15.358l-1.242,90.693c0,0,1.695-3.162,4.293,0l7.453-84.932
			c0,0,5.761,1.354,8.358-0.453l7.454,85.385c0,0,2.259-3.387,4.518,0.564l-0.79-92.311c0,0,11.858-14.532,4.969-40.962l9.375-1.694
			l-5.422-19.426c0,0-1.129-2.937-4.744-4.518l-15.756-5.76H395.493z"/>
		<path fill="#AC8151" enable-background="new    " d="M374.574,138.697c0,0-4.85,28.463-2.273,46.231l-2.093,9.939
			c0,0-0.452,3.766,3.012,6.928c0,0,5.12,4.668,6.626,5.422c0,0,4.066,0.602,0-4.82c0,0-0.904-4.064-0.301-6.023
			c0,0,0.977,0.709,1.204,4.217c0,0,1.694,4.273,1.412-3.238c0,0,1.863-6.268-5.195-11.633c0,0,2.993-22.42,2.653-26.146
			l2.764-18.862L374.574,138.697z"/>
		<path fill="#AC8151" enable-background="new    " d="M427.206,138.697c0,0,3.139,26.796,0.563,44.565l2.092,9.939
			c0,0,0.452,3.764-3.012,6.926c0,0-5.12,4.67-6.626,5.422c0,0-4.065,0.602,0-4.818c0,0,0.904-4.064,0.302-6.023
			c0,0-0.979,0.709-1.205,4.215c0,0-1.694,4.275-1.412-3.236c0,0-1.863-6.268,5.195-11.633c0,0-2.992-22.42-2.654-26.146
			l0.207-18.306L427.206,138.697z"/>
		<path fill="#A68952" d="M398.054,124.09l6.564-3.916l-1.883-3.765c0,0,3.162,0.753,4.141,2.71l1.199-8.811
			c0,0-1.951-5.646-4.173-6.474c-2.221-0.828-8.409,1.282-8.409,1.282l-2.561,4.885l-2.997,7.913l4.668-2.41l-0.301,3.012
			l4.703,2.108L398.054,124.09z"/>
		<g>
			<g>
				<g>
					<path fill="#372117" enable-background="new    " d="M375.839,62.551c0,0-6.661,9.572-3.962,12.884l0.328,3.26h-4.879
						c0,0,0.07,9.536,9.191,8.794c0,0,1.059-0.289,1.84,0.204c0,0,1.406,2.18-4.969,1.93c0,0,1.686,5.329,10.874,4.915l30.226,0.023
						c0,0,4.235,0.746,3.901-2.875c0,0,7.063,1.134,7.875-4.839c0,0-2.244,0.809-3.342-0.645l0.805-1.001c0,0,1.6,0.86,2.537,0.422
						s0-0.188,0-0.188s2.5-2,2.313-5.625c0,0-2.094,0.239-2.328-0.255l-4.136-18.56L375.839,62.551z"/>
					<path fill="#AC8151" enable-background="new    " d="M379.121,65.111l-1.17,9.511c0,0-3.125-5.625-6-1.625
						c0,0-1,8.125,3.875,13.75c0,0,1.125,2.375,4.375,0c0,0,3.104,15.496,15.292,18.371l8.864-0.575c0,0,10.844-6.796,14.47-18.671
						c0,0,2.75,1.75,4.5,0c0,0,6.885-9.798,5.26-17.721c0,0-7.797-0.5-8.385,8.721l-1.5,0.25c0,0,0.224-12.792-19.204-8.235
						c0,0-0.356,0.645-7.578-0.93L379.121,65.111z"/>
					<path fill="#443119" enable-background="new    " d="M383.633,77.317c0,0-2.056-3.736,0.61-6.57c0,0,6.291-5.708,11.083,2.792
						c0,0,0.5,1.869-0.828,4.192L383.633,77.317z"/>
					<ellipse fill="#E3E6F0" enable-background="new    " cx="389.117" cy="76.039" rx="5.625" ry="5.792"/>
					<ellipse fill="#8FA1C4" enable-background="new    " cx="389.6" cy="76.039" rx="2.273" ry="2.304"/>
					<ellipse fill="#314461" enable-background="new    " cx="389.131" cy="76.253" rx="1.253" ry="1.27"/>
					<path fill="#372117" enable-background="new    " d="M412.662,77.317c0,0,2.056-3.736-0.61-6.57c0,0-6.291-5.708-11.083,2.792
						c0,0-0.5,1.869,0.828,4.192L412.662,77.317z"/>
					<ellipse fill="#E3E6F0" enable-background="new    " cx="407.178" cy="76.039" rx="5.625" ry="5.792"/>
					<ellipse fill="#8FA1C4" enable-background="new    " cx="404.57" cy="75.605" rx="2.273" ry="2.304"/>
					<ellipse fill="#314461" enable-background="new    " cx="404.112" cy="76.039" rx="1.253" ry="1.27"/>
				</g>
				<path fill="#432F2E" enable-background="new    " d="M393.493,93.997c0,0,11.834,1.583,12.5-4.25
					C405.993,89.747,406.91,97.414,393.493,93.997z"/>
				<path fill="#806145" d="M396.326,78.747l-3.188,6.75c0,0-0.625,1.938,1.125,1.938h4.875l-4.75-0.813c0,0-0.896-0.5-0.375-1.438
					L396.326,78.747z"/>
			</g>
		</g>
		<path fill="#574024" d="M370.646,53.761c0,0-9.845-9.124-5.282,1.2c0,0,9.844,11.525,32.414,13.926
			c0,0,31.424-2.941,35.746-15.456c0,0,0.99-4.502-0.451-5.223c0,0-1.711-0.63-2.16,4.052c0,0-4.683,3.782-7.924,3.602
			c0,0-8.963-0.541-19.269,5.943c0,0-5.222,1.44-8.464,0.36c-3.241-1.081-13.025-4.922-18.817-6.663L370.646,53.761z"/>
		<path fill="#6D502E" d="M375.839,55.322l0.6-9.004c0,0,8.283-15.486,16.297-19.358h10.444l5.582,6.663c0,0,4.862-0.27,5.402,1.081
			c0,0,8.457,12.343,7.56,21.163C421.724,55.866,398.199,75.581,375.839,55.322z"/>
		<path fill="#574024" d="M392.195,29.841c0,0-3.781,11.255-8.193,13.056c0,0-3.242,1.351-1.531-2.521
			C382.471,40.375,386.343,33.533,392.195,29.841z"/>
		<path fill="#574024" d="M402.189,29.841c0,0,3.422,11.435,10.624,11.795C412.813,41.636,415.965,35.874,402.189,29.841z"/>
		<polygon fill="#EED18B" points="396.852,58.023 393.069,58.023 395.681,55.502 393.88,52.351 397.391,53.251 398.832,49.379 
			400.002,52.98 403.424,53.071 401.263,55.862 403.424,59.103 400.092,58.023 398.246,60.994 		"/>
		<polygon fill="#EED18B" points="412.587,127.671 411.226,127.671 412.165,126.763 411.517,125.629 412.78,125.953 413.3,124.56 
			413.721,125.856 414.952,125.889 414.175,126.893 414.952,128.06 413.753,127.671 413.089,128.74 		"/>
		<polygon fill="#C6C6C5" points="396.109,112.645 399.518,117.05 402.886,112.645 		"/>
		<rect x="398.957" y="122.584" fill="#A68952" width="0.713" height="24.622"/>
		<polygon fill="#A68952" points="385.855,129.511 392.043,129.511 391.291,132.523 388.949,132.523 387.978,133.427 
			386.622,132.673 384.514,132.373 		"/>
		<polygon fill="#A68952" points="409.136,129.511 417.042,129.511 417.042,132.824 414.181,132.824 413.089,134.18 
			411.771,132.674 409.136,133.427 		"/>
		<path fill="#353535" d="M373.182,145.963c0,0-4.065,0.113-3.389,2.71c0,0,2.373,0.113,3.389,2.484c0,0,5.083,8.021,7.115,9.263
			v-4.519c0,0-5.364-4.97-6.268-7.116l-0.731-1.143L373.182,145.963z"/>
		<rect x="379.432" y="166.633" fill="#382B1E" width="9.035" height="10.843"/>
		<polygon fill="#3F3327" points="385.342,169.494 382.895,171.339 380.034,171.339 380.034,171.677 382.82,171.677 
			385.342,169.794 		"/>
		<polygon fill="#473626" points="388.467,170.435 402.735,170.435 402.735,180.11 388.467,180.261 		"/>
		<polygon fill="#392B1D" points="389.258,172.054 395.884,175.442 397.389,175.442 401.681,172.054 401.681,172.581 
			397.428,176.007 395.921,176.007 389.258,172.618 		"/>
		<rect x="402.735" y="172.054" fill="#8E5F29" width="1.995" height="4.555"/>
		<rect x="404.73" y="172.968" fill="#48332B" width="7.19" height="2.738"/>
		<polygon fill="#0F0E0F" points="419.383,159.874 419.383,156.806 420.562,156.806 421.126,158.614 431.065,158.339 
			431.065,162.735 427.776,164.364 		"/>
		<polygon fill="#20201F" points="410.228,178.04 415.987,181.937 429.146,170.435 426.887,160.421 418.359,159.8 		"/>
		<path fill="#161616" d="M383.61,273.778c0,0-4.56,11.697-7.324,12.475c0,0,4.915,0.879,8.68,0c0,0,8.132-2.236,4.819-10.668
			C389.785,275.585,387.525,267.452,383.61,273.778z"/>
		<path fill="#161616" d="M416.536,273.778c0,0,4.559,11.697,7.323,12.475c0,0-4.914,0.879-8.679,0c0,0-8.133-2.236-4.82-10.668
			C410.36,275.585,412.62,267.452,416.536,273.778z"/>
	</g>
	<path fill="#AC8151" enable-background="new    " d="M395.707,105.118l0.402,7.527h6.776l1.685-8.102
		C404.57,104.543,396.586,104.5,395.707,105.118z"/>
</g>
</svg>
