<?xml version="1.0" encoding="utf-8"?>
<!-- Generator: Adobe Illustrator 16.0.0, SVG Export Plug-In . SVG Version: 6.00 Build 0)  -->
<!DOCTYPE svg PUBLIC "-//W3C//DTD SVG 1.1//EN" "http://www.w3.org/Graphics/SVG/1.1/DTD/svg11.dtd">
<svg version="1.1" id="Layer_1" xmlns="http://www.w3.org/2000/svg" xmlns:xlink="http://www.w3.org/1999/xlink" x="0px" y="0px"
	 width="684px" height="296px" viewBox="0 0 684 296" enable-background="new 0 0 684 296" xml:space="preserve">
<rect fill="#A7C5C5" width="684" height="296"/>
<g>
	<path fill="#414141" d="M154.333,159.667c0,0-2,7.667,0,14l-0.889,103c0,0,2.223,2.333,5.889,0l7.667-96c0,0,7,0.667,9.667-0.333
		c0,0,5.667,26.332,8.667,95.666c0,0,3.542,2,5.667,0l-1.25-105.75c0,0,3.125-5.625-0.125-11.5
		C189.625,158.75,159.167,153.584,154.333,159.667z"/>
	<path fill="#E5BC98" d="M138.875,172c0,0-2.875,15.001-1.375,19.667c0,0,7.667,8.332,10.167,9.666c0,0,4.833,4.167,2.833-1.333
		c0,0-4.333-3.833-2.667-11c0,0,2.834,0.891,1.833,4.667c0,0,3.5,12.834,2-7.5c0,0-2.5-6-5-9L145.875,172
		C145.875,172,142.25,170.167,138.875,172z"/>
	<path fill="#E5BC98" d="M207,171.375c0,0,2.774,14.845,1.274,19.511c0,0-7.667,8.332-10.167,9.666c0,0-4.833,4.167-2.833-1.333
		c0,0,4.333-3.833,2.667-11c0,0-2.834,0.891-1.833,4.667c0,0-3.5,12.834-2-7.5c0,0,2.5-6,5-9l0.893-5.011
		C200,171.375,203.625,169.542,207,171.375z"/>
	<path fill="#997098" d="M186.375,92.75l10.125,4.5c0,0,2.833-0.083,6,21.375c0,0,3.75,11.25,4.5,52.75h-7c0,0-3-35.375-5.25-43
		c0,0-1.875,22-1.75,30.75c0,0-23.625,5.25-40.75-0.25V129.5c0,0-4.75,22.25-6.375,42.5h-7c0,0,1.625-59.375,8.25-72
		c0,0,1.25-3.625,13.375-7.75C160.5,92.25,174.892,87.061,186.375,92.75z"/>
	<path fill="#D9B391" d="M169,85.916v2.959l-5.125,1.75c0,0-2.75,8.5,0.75,11.25c0,0,11.125,3,15.125-0.75c0,0,3.125-6.875,2.875-10
		l-5-2l0.125-3.875C177.75,85.25,172.625,84.206,169,85.916z"/>
	<path fill="#B092B0" d="M182.25,90.75l4.125,2c0,0-6.25,26.875-16.875,49.625l-9-50.125c0,0,2.375-2.125,3.375-2.125l6,43.875
		C169.875,134,180.25,103.75,182.25,90.75z"/>
	<path fill="#E5BC98" d="M142.133,43.644c0,0-1.883-31.769,16.867-32.519c0,0,33.25,1.625,35.125,14.5c0,0,2.801,16.085-1.1,27.23
		c0,0,3.1-11.855,8.85-8.23c0,0,7.625,2.875,0,14.375c0,0-4,6.625-6.5,4.125c0,0-0.5,20.5-17.625,22.125c0,0-22.5,6.5-32.875-21.125
		c0,0-8-1.375-8.25-13.625C136.625,50.5,135.266,42.537,142.133,43.644z"/>
	<path fill="#D0D0D0" d="M143.625,43.75c0,0,0.75-20.75,8.5-27.375c0,0,37.875,10.625,38.75,13c0,0-3.375,3.5-0.625,17l0.625,5.875
		l4,1.125c0,0,0.75-11.75,7-8.75c0,0,7.75-20.25-2.625-25.625c0,0-17.5-33.75-55.625-7.375c0,0-11,12-3.5,31.875L143.625,43.75z"/>
	<path fill="#323232" d="M152.041,276v5.833c0,0-11.1,5.334-7.487,10.667c0,0,5.001,3.832,8.891-0.834c0,0,4.055-7.834,6.722-7.5
		v-7.333C160.167,276.833,154.915,275.834,152.041,276z"/>
	<path fill="#323232" d="M184.625,275.981h7.542v5.852c0,0,15.5,7.628,5.167,12.147c0,0-5.667,1.852-9.667-6.314
		c0,0-0.833-4.854-3.667-4.854L184.625,275.981z"/>
	<path fill="#808080" d="M174.917,33.667c0,0,7.917-2,9.25,4.25c0,0-6.25-3.333-9.25-1.833V33.667z"/>
	<path fill="#808080" d="M156.583,39.167c0,0,4.613-2.917,6.265-2.917s0-2.083,0-2.083s-7.098-1.667-8.848,5H156.583z"/>
	<path fill="#333333" d="M174.583,48.417c0,0,5.611,1,8.056,3.833C182.639,52.25,182.333,44.667,174.583,48.417z"/>
	<path fill="#333333" d="M155.635,52.25c0,0,4.167-2.458,6.333-2.125c0,0-3.75-3.5-5.667-1
		C156.302,49.125,155.469,50.958,155.635,52.25z"/>
	<path fill="#9B8270" d="M168.583,53c0,0-10.254,13.334,2.498,12.167C171.082,65.167,161.417,64.583,168.583,53z"/>
	<path fill="#543D33" d="M159.583,73.833c0,0,19.417,1,21.417-3.083C181,70.75,180.75,78,159.583,73.833z"/>
	<path fill="#917765" d="M160.25,68.417c0,0,0.584,5.75-2.333,8.75C157.917,77.167,161.833,75.167,160.25,68.417z"/>
	<path fill="#917765" d="M179.542,66.083c0,0,1.042,7.167,5.042,11.083C184.583,77.167,181.5,72.5,179.542,66.083z"/>
</g>
<g>
	<g>
		<path fill="#8C6744" d="M335.03,56.488c0,0-7.248-5.546-4.415,8.454c0,0,4.124,13.958,7.458,7.958
			c0,0,10.041,20.375,21.375,18.708l10.5,0.096c0,0,8.951-3.966,12.834-19.263c0,0,7.666,5.167,10.5-11
			c0,0,3.574-12.866-5.463-7.601c0,0,2.403-9.4-8.815-19.566c0,0-18.722-11.667-41.722,2
			C337.281,36.275,330.944,42.201,335.03,56.488z"/>
		<path fill="#44321A" d="M354.447,50.9c0,0-4.635-6.747-14-5v2.354C340.447,48.254,346.697,45.275,354.447,50.9z"/>
		<path fill="#44321A" d="M361.78,50.9c0,0,4.635-6.747,14-5v2.354C375.78,48.254,369.53,45.275,361.78,50.9z"/>
		<g>
			<path fill="#45321B" d="M343.213,61.331c0,0-2.055-3.735,0.611-6.57c0,0,6.291-5.707,11.082,2.793c0,0,0.5,1.868-0.828,4.191
				L343.213,61.331z"/>
			<ellipse fill="#E3E6EF" cx="348.697" cy="60.053" rx="5.625" ry="5.792"/>
			<ellipse fill="#8FA1C4" cx="349.18" cy="60.053" rx="2.273" ry="2.304"/>
			<ellipse fill="#334562" cx="348.711" cy="60.267" rx="1.254" ry="1.27"/>
		</g>
		<g>
			<path fill="#372117" d="M375.242,61.331c0,0,2.057-3.735-0.609-6.57c0,0-6.291-5.707-11.084,2.793c0,0-0.5,1.868,0.828,4.191
				L375.242,61.331z"/>
			<ellipse fill="#E3E6EF" cx="369.758" cy="60.053" rx="5.625" ry="5.792"/>
			<ellipse fill="#8FA1C4" cx="367.151" cy="59.619" rx="2.272" ry="2.304"/>
			<ellipse fill="#334562" cx="366.694" cy="60.053" rx="1.252" ry="1.27"/>
		</g>
		<path fill="#6A4F37" d="M360.322,62.357c0,0-11.959,14.792,1.458,10.917C361.78,73.275,351.157,76.126,360.322,62.357z"/>
		<path fill="#5D2F2C" d="M354.447,80.775c0,0,10,4,16.25-4.125C370.697,76.65,365.447,87.9,354.447,80.775z"/>
		<path fill="#341D17" d="M339.168,35.207c0,0,11.225,6.91,31.057,9.243c0,0,12,0.833,11.334,10.333l0.025,10.443
			c0,0,4.627-11.345,10.627-1.158c0,0,1.737,5.788-9.43,8.373c0,0-4.344,15.347-15.428,19.264c0,0,28.355,11.05,31.605-23.117
			c0,0-1.251-21.75-5.832-26.917c0,0-17.585-55.083-55.25-17.25c0,0-14.25-6.667-6,35.917c0,0,3.592,33.92,28.193,31.275
			c0,0-17.825-8.942-20.575-17.692C339.496,73.921,331.918,66.624,339.168,35.207z"/>
		<path fill="#8C6744" d="M331.055,55.826c0,0-7.606,10.02,4.459,18.367c0,0,3.523,1.061,3.354-1.116s-2.689-18.816-2.689-18.816
			S332.412,52.875,331.055,55.826z"/>
	</g>
	<path fill="#414141" d="M345.445,157.464c0,0-2,7.667,0,14l-0.89,103c0,0,2.223,2.333,5.89,0l7.666-96c0,0,7,0.667,9.667-0.333
		c0,0,5.667,26.332,8.667,95.666c0,0,3.541,2,5.666,0l-1.25-105.75c0,0,3.125-5.625-0.125-11.5
		C380.736,156.547,350.278,151.381,345.445,157.464z"/>
	<path fill="#323232" d="M343.152,273.797v5.833c0,0-11.1,5.334-7.487,10.667c0,0,5.001,3.832,8.891-0.834
		c0,0,4.056-7.834,6.722-7.5v-7.333C351.277,274.63,346.025,273.631,343.152,273.797z"/>
	<path fill="#323232" d="M375.736,273.778h7.541v5.852c0,0,15.501,7.628,5.168,12.147c0,0-5.668,1.852-9.668-6.314
		c0,0-0.833-4.854-3.666-4.854L375.736,273.778z"/>
	<path fill="#8B6643" d="M382.214,122.917l6.071,41.52c-0.892,0.595-3.467,4.856-3.467,4.856c-1.982,2.625-1.041,9.957-1.041,9.957
		c1.98,4.363,1.485-3.961,1.485-3.961c1.19-2.874,1.884-0.2,1.884-0.2c0.891,3.867-2.279,7.233-2.279,7.233
		c-0.894,4.062,2.774,0.595,2.774,0.595l4.063-3.271c3.371-1.981,3.271-5.548,3.271-5.548c0.396-2.874-0.708-9.809-0.708-9.809
		c0.645-7.415-1.592-42.799-1.592-42.799L382.214,122.917z"/>
	<path fill="#8B6643" d="M334.386,125.741c0,0-2.236,35.384-1.592,42.799c0,0-1.104,6.935-0.708,9.809c0,0-0.1,3.566,3.271,5.548
		l4.063,3.271c0,0,3.668,3.467,2.774-0.595c0,0-3.17-3.366-2.279-7.233c0,0,0.693-2.674,1.884,0.2c0,0-0.495,8.324,1.485,3.961
		c0,0,0.941-7.332-1.041-9.957c0,0-2.575-4.262-3.467-4.856l6.071-41.52L334.386,125.741z"/>
	<path fill="#C23E41" d="M359.667,92.667l-17.667,8.5c0,0-3.375,0.292-10,24.5l15.457,5l2.508,10.5L342,162.5
		c0,0,20.166,10.5,43.5,1c0,0-1.5-14.333-7-21.833c0,0-0.666-10.167,2.667-12.5l15-3.5c0,0-6.5-23.833-10-25.667l-16.743-8.301
		C369.424,91.699,363.334,87.667,359.667,92.667z"/>
	<path fill="#8C6744" d="M360.07,91.613c0,0-5.383,13.762,1.898,18.387c0,0,5.644,1.296,6.812-8.5c0,0,0.094-6.083-0.562-10.13
		C368.219,91.37,365.391,87.851,360.07,91.613z"/>
</g>
<g>
	<path fill="#E5BC98" d="M576.709,82.005c0,0,4.08-1.494,4.904-13.281l-1.446-2.891C580.167,65.833,573.793,72.823,576.709,82.005z"
		/>
	<path fill="#E5BC98" d="M544.488,106.677l-12.904,6.49c0,0-4.251,2-5.084,13.5c0,0-5.471,32.583-5.807,39.666
		c0,0-3.777,29.251-1.693,31.667c0,0,9,11.417,12.744,11c0,0,1.276-3.667-2.567-6.5l5.656-0.5c0,0,12-35.665,36.5-0.166l1.834,0.166
		c0,0-2,3.666-2,4.833c0,0-0.167,3.667,4.333-1.333l7.167-6.333c0,0,2.714-3.001-0.619-15.834c0,0,0-22.384-1.548-32.666
		l-5.5-34.333c0,0-0.333-2.667-4-3.667l-13.063-5.99l-0.803-2.436C557.135,104.241,546.977,101.291,544.488,106.677z"/>
	<path fill="#333333" d="M520.667,42.5h-9.5c0,0,2.666-11,16.5-14.5c0,0-4-1.333-8.25-1.667c0,0-0.084-7,18.75-3.5
		c0,0-11.667-19.667,11,0.667c0,0,13.668-23.167,7.834-3.667c0,0,33.666-21.667,10.166,4c0,0,29.166,4.333,8.333,8
		c0,0,21.001,27.833,4.834,15.5c0,0,8.833,16.833,4.5,22.833h-2.5l-2.167-4.333c0,0,1,9.167-3.5,8c0,0,1,25.992-4,16.329
		c0,0,3.167,10.837-2.833,5.171c0,0,1.166,5.167-3.167,3c0,0,2,16.833-5.5,4.333c0,0,0.333,7.167-4.5,1
		c0,0-2.217,12.333-7.858,1.167c0,0-2.142,6.167-5.642,0c0,0-3.334,4.833-5,0.167c0,0-5.834,10-4-4.667c0,0-7.332,4.167-1.666-3
		c0,0-5.668,2.485-2.334-3.924c0,0-7.5,6.749-3.333-3.247c0,0-5.333,4.088-2.75-14.412c0,0-12.625,12.959-2.875-13.667
		c0,0-12.042,11.875-5.25-4.667C515.959,57.417,498.667,68.75,520.667,42.5z"/>
	<path fill="#E5BC98" d="M535.375,53.5c0,0-7.5,17.5-6,29.375c0,0,6.125,6.875,8,2.625c0,0,3.75-3.5,9-0.75c0,0,4.75,2,6.625-1.25
		c0,0,9.5-1.25,11.625,1.5c0,0,5.5-1.75,4.375-14c0,0-3.125,9.375-5.125-15.75c0,0,3.875,23-7.375-5.75
		c0,0-4.672,23.125-7.336-7.125c0,0-8.789,17.375-14.414,20.75C534.75,63.125,535.625,60.125,535.375,53.5z"/>
	<path fill="#333333" d="M549.001,57.5c0,0,16.751-7.083,14.917,5.417h-1.75C562.168,62.917,560.001,57.167,549.001,57.5z"/>
	<path fill="#333333" d="M531.584,62.25c0,0,7.167-3.582,11.167-3.041v-1.125C542.751,58.083,532,56.583,531.584,62.25z"/>
	<path fill="#E5BC98" d="M520.693,78.397c0,0,0.326,3.697,2.691,5.192l0.699-7.838L520.693,78.397z"/>
	<path fill="#E5BC98" d="M533.667,195.333l0.834,80.5c0,0-2.001,6.167-9.834,10.667c0,0,2.334,7.666,8.834,2.833
		c0,0,4.167-1.834,4-6.667c0,0,3.5-2.166,3-4.333c0,0-0.283-55.804,4.358-71.068l3.142-11.932h8l1.749,8.292
		c0,0,5.418,61.874,4.751,69.541c0,0-4.667,7.667,0.833,8.167c0,0,1.833,11.501,9,8.667c0,0,6.501-1.167,3.667-3.667
		c0,0-8.501-4.833-8.251-13.833l-0.66-69.094L570.5,188C570.5,188,535.959,175.916,533.667,195.333z"/>
	<path fill="#996632" d="M529.177,161.5c0,0,2.448,10.5,17.198,12c0,0,19.125,2.75,26.125-6v-8.25c0,0,13.375,8,4.75,8
		c0,0,10,14.125,1.125,11.375c0,0,7.875,26.625-2.375,14.25c0,0,2.75,18.625-3.75,6.625c0,0-0.75,17-8-2.625
		c0,0,1.375,20.625-6.5,6.75c0,0-4,17-8.625-1.75c0,0-2.625,18.5-6-2.375c0,0-3.25,17.25-6.75-0.625c0,0-2.625,15.75-5-2
		c0,0-3.875,15.375-3.5-5.875c0,0-4.25,12-2.5-7.75c0,0-4.346,7.625-0.423-10.875C524.952,172.375,517.854,174.125,529.177,161.5z"
		/>
	<path fill="#333333" d="M553.667,69.417c0,0,6.834-4.5,7.167,3.667C560.834,73.083,554.333,69.333,553.667,69.417z"/>
	<path fill="#333333" d="M536.334,73.919c0,0,2.666-3.253,5.333-2.419C541.667,71.5,537.334,67.589,536.334,73.919z"/>
	<path fill="#4B3A32" d="M539.751,92c0,0,20.667,1.75,22.5-3.917C562.251,88.083,561.085,96.583,539.751,92z"/>
	<path fill="#B99579" d="M546.563,67.406c0,0-8.75,21.125,6.313,15.938c0,0-13.124,3.183-6.124-13.039L546.563,67.406z"/>
	<ellipse fill="#CEA98A" cx="564.058" cy="134.583" rx="1.875" ry="1.75"/>
	<ellipse fill="#CEA98A" cx="538.208" cy="134.583" rx="1.875" ry="1.75"/>
</g>
</svg>
