<?xml version="1.0" encoding="utf-8"?>
<!-- Generator: Adobe Illustrator 16.0.0, SVG Export Plug-In . SVG Version: 6.00 Build 0)  -->
<!DOCTYPE svg PUBLIC "-//W3C//DTD SVG 1.1//EN" "http://www.w3.org/Graphics/SVG/1.1/DTD/svg11.dtd">
<svg version="1.1" id="Layer_1" xmlns="http://www.w3.org/2000/svg" xmlns:xlink="http://www.w3.org/1999/xlink" x="0px" y="0px"
	 width="684px" height="296.64px" viewBox="0 0 684 296.64" enable-background="new 0 0 684 296.64" xml:space="preserve">
<rect fill="#A7C5C5" width="684" height="296.64"/>
<g>
	<path fill="#213970" d="M88.219,166.661c0,0-1.374,5.563,0.626,8.438l-1.086,68.125l6.086,0.625c0,0,4.375-60.875,6.125-62.625
		l8.75,0.25c0,0,3,26.375,4.75,62.375h7.25v-77.188l-0.75-8.063h-17h-15.5L88.219,166.661z"/>
	<rect x="85.22" y="242.849" fill="#232323" width="11.625" height="7.125"/>
	<path fill="#333333" d="M87.47,249.974v18c0,0,3-3.875,5-0.875l2.125-17.125H87.47z"/>
	<polygon fill="#161616" points="111.595,242.849 122.595,242.849 122.595,249.974 111.595,249.349 	"/>
	<path fill="#333333" d="M113.326,249.446l2.02,17.527c0,0,2.75-3.625,5.375-0.375l0.75-17.152H113.326z"/>
	<path fill="#161616" d="M115.345,266.974c0,0-5.625,9.75,0.625,10.625c0,0,3.375,4.125,10.25,1.625c0,0-5.74-8.641-5.5-12.625
		C120.72,266.599,117.845,262.536,115.345,266.974z"/>
	<path fill="#171717" d="M86.802,267.021c0,0-6.357,12.141-8.354,13.785c0,0,5.286,4.111,9.868,0c0,0,4.936-2.35,5.758-4.816
		c0,0,0.9-6.658-1.488-8.969C92.585,267.021,89.563,262.247,86.802,267.021z"/>
	<path fill="#E2C193" d="M132.062,118.018c0,0,5.289,39.702,2.886,48.485c0,0,2.44,7.885,1.989,11.152c0,0,0.113,4.055-3.717,6.307
		l-4.617,3.717c0,0-4.168,3.943-3.154-0.676c0,0,3.604-3.828,2.59-8.223c0,0-0.786-3.041-2.139,0.227c0,0,0.563,9.461-1.69,4.504
		c0,0-1.068-8.334,1.185-11.317c0,0,2.928-4.845,3.94-5.521l-4.423-46.611L132.062,118.018z"/>
	<path fill="#E2C193" d="M85.663,118.937l-4.423,46.611c1.013,0.676,3.94,5.521,3.94,5.521c2.253,2.983,1.185,11.317,1.185,11.317
		c-2.254,4.957-1.69-4.504-1.69-4.504c-1.353-3.268-2.139-0.227-2.139-0.227c-1.015,4.395,2.59,8.223,2.59,8.223
		c1.014,4.619-3.154,0.676-3.154,0.676l-4.617-3.717c-3.83-2.252-3.717-6.307-3.717-6.307c-0.451-3.268,1.989-11.152,1.989-11.152
		c-2.403-8.783,2.886-48.485,2.886-48.485L85.663,118.937z"/>
	<path fill="#E2C193" d="M78.772,61.216c0,0-9.667-47.667,16-38.667c0,0,25.334-8.333,29.667,7.667v31
		c0,0,6.396-14.438,11.521-9.563c0,0,0.688,23.188-10.563,18.813c0,0-1.375,20.5-16.75,20.625h-9.5c0,0-15,0.125-20.625-19.625
		c0,0-6.5,3.375-8.25-15C70.272,56.466,73.397,46.716,78.772,61.216z"/>
	<path fill="#53433A" d="M73.24,53.261c0,0-4.093-35.67,19.157-38.795c0,0,29.5-3.625,38.125,9.5c0,0,6.75,2.25,2.5,27.125
		c0,0-4.813-0.375-7.25,11h-1.75c0,0-0.125-18.5-1.875-22.25c0,0,4.875-15.625-6.125-18.25c0,0-11.5-2.25-17,1.5l-6.375,0.125
		c0,0-4.625-3.125-10.25,1c0,0-7.875,4-2.75,37l-1.5-0.125C78.147,61.091,75.74,53.649,73.24,53.261z"/>
	<path fill="#333333" d="M101.522,44.216c0,0,7.693-7.779,17,1.5l-1.75,4.25C116.772,49.966,112.022,42.216,101.522,44.216z"/>
	<path fill="#333333" d="M95.397,44.341c0,0-8.125-1.5-11.375,2.625l1.375,3C85.397,49.966,88.684,44.979,95.397,44.341z"/>
	<ellipse fill="#FFFFFF" cx="110.397" cy="55.216" rx="3.375" ry="3.125"/>
	<ellipse fill="#333333" cx="110.397" cy="55.216" rx="1.875" ry="1.736"/>
	<ellipse fill="#FFFFFF" cx="92.397" cy="55.216" rx="3.375" ry="3.125"/>
	<ellipse fill="#333333" cx="93.397" cy="55.216" rx="1.875" ry="1.736"/>
	<path fill="#543D33" d="M92.397,80.091c0,0,17,2.25,19.875-1.75C112.272,78.341,110.522,83.341,92.397,80.091z"/>
	<path fill="#A88B65" d="M111.897,73.216c0,0,0.313,9.188,3.375,10.313C115.272,83.528,112.584,80.591,111.897,73.216z"/>
	<path fill="#A88B65" d="M90.459,84.091c0,0,2.688-3.125,2.938-9.313C93.397,74.778,92.209,81.216,90.459,84.091z"/>
	<path fill="#A88B65" d="M101.084,52.903c0,0-12.063,25.438,2.938,18.5C104.022,71.403,90.334,79.653,101.084,52.903z"/>
	<path fill="#DBDBCE" d="M96.498,97.216c0,0-13.476,3.375-15.476,4.125l-6.625,17.75l11.161,0.948l-2.793,44.177
		c0,0,20.632,5.75,44.757,0l-2.875-43.875l9.78-1.25l-6.03-17.875l-16.938-4"/>
	<path fill="#E2C193" d="M99.584,91.091c0,0-2,8.875-1.938,10.375c0,0,0.313,10.125,7.125,7.688c0,0,5.813,1.313,6.25-10.5
		l-2.563-7.563C108.459,91.091,101.647,89.091,99.584,91.091z"/>
	<path fill="#E9E9E1" d="M98.272,97.216c0,0-0.5,10.5,3.25,10.625h6c0,0,3.125-1.625,2.875-10.625h1.063
		c0,0,0.563,11.188-4.063,12.938h-5.813c0,0-5.188-0.188-4.25-12.938H98.272z"/>
	<path fill="#F15D36" d="M113.584,97.216c0,0-6.063,43-6.063,45.375c0,0-6.75,22.5,7.75,20.75l12.25,0.875l-1.875-37.875
		c0,0-4.875-4.072-2-26.474C123.647,99.867,117.522,96.216,113.584,97.216z"/>
	<path fill="#F15D36" d="M96.702,97.216c0,0,6.063,43,6.063,45.375c0,0,6.75,22.5-7.75,20.75l-12.25,0.875l1.875-37.875
		c0,0,4.875-4.072,2-26.474C86.64,99.867,92.765,96.216,96.702,97.216z"/>
	<path fill="#EAE95D" d="M115.256,97.042l-0.829,66.375c0,0,5.093,0.22,8.47,0.469c0,0-2.361-63.414-2.986-65.789
		C119.911,98.097,117.616,97.122,115.256,97.042z"/>
	<path fill="#EAE95D" d="M107.522,142.591l18.963,0.683l0.217,4.379l-20.248-0.24C106.455,147.413,107.188,143.507,107.522,142.591z
		"/>
	<path fill="#EAE95D" d="M94.872,97.042l0.829,66.375c0,0-5.093,0.22-8.47,0.469c0,0,2.361-63.414,2.986-65.789
		C90.217,98.097,92.512,97.122,94.872,97.042z"/>
	<path fill="#EAE95D" d="M102.765,142.591l-18.963,0.677l-0.217,4.385l20.235-0.32C103.819,147.333,103.098,143.507,102.765,142.591
		z"/>
</g>
<g>
	<path fill="#E2C193" d="M222.458,57.646c0,0-3-24,0-34c0,0,23.333-16.333,45.333,0c0,0,4.667,19,2.667,34
		c0,0,5.833-15.5,9.667-4.833c0,0-1.5,19.833-10.667,17c0,0-2.167,19.5-17.667,21.167h-9.167c0,0-15.333-2.833-20.333-20
		c0,0-5.667,2.167-8.833-10.333C213.458,60.646,211.625,42.48,222.458,57.646z"/>
	<path fill="#625A41" d="M222.792,57.979c0,0-4.167-2.5-5.667-7.667c0,0-2.5-7.833-1.833-19.667c0,0-0.5-0.5-2.333,1.167
		c0,0,0.833-6.833,3.5-8.5c0,0-4-2.333-5.333,0c0,0,2.833-4.667,5.833-5.167c0,0-1.167-1.833-2.167-2c0,0,6.5-3.5,9.333-2.5
		c0,0-1.333-2.667-3.167-2.5c0,0,7.833-1,10.5,1c0,0,8.333-5,11.667-5.333l1.333,1.5c0,0,20.333,0.167,21.167,4
		c0,0,4.167-0.333,6.167,1.833c0,0-2.333,0-3,1c0,0,8,2.666,9,4.833c0,0-2-0.167-2.667,1c0,0,4.667,4,5,6.667
		c0,0-1.833,0.667-2.167,1.5c0,0,2.167,4.833,2.167,6.833c0,0-1.833-1.833-2.667-1.167c0,0-2.261,14.468-2.261,15.135
		c0,0-1.656,0.469-4.739,7.698l-1.833-12.5c0,0-3.667-4.5-1.667-20.667c0,0-14.5-5.833-21.333-2.333c0,0-6,2.166-9.333-0.667
		c0,0-10.333-1.833-13,2.333c0,0,2.338,18.361-1.5,23.5L222.792,57.979z"/>
	<path fill="#E2C193" d="M275.194,117.141c0,0,5.289,39.702,2.886,48.485c0,0,2.44,7.885,1.989,11.152c0,0,0.113,4.055-3.717,6.307
		l-4.617,3.717c0,0-4.168,3.943-3.154-0.676c0,0,3.604-3.828,2.59-8.223c0,0-0.786-3.041-2.139,0.227c0,0,0.563,9.461-1.69,4.504
		c0,0-1.068-8.334,1.185-11.317c0,0,2.928-4.845,3.94-5.521l-4.423-46.611L275.194,117.141z"/>
	<path fill="#E2C193" d="M227.92,116.185l-4.423,46.611c1.013,0.676,3.94,5.521,3.94,5.521c2.253,2.983,1.185,11.317,1.185,11.317
		c-2.254,4.957-1.69-4.504-1.69-4.504c-1.353-3.268-2.139-0.227-2.139-0.227c-1.015,4.395,2.59,8.223,2.59,8.223
		c1.014,4.619-3.154,0.676-3.154,0.676l-4.617-3.717c-3.83-2.252-3.717-6.307-3.717-6.307c-0.451-3.268,1.989-11.152,1.989-11.152
		c-2.403-8.783,2.886-48.485,2.886-48.485L227.92,116.185z"/>
	<path fill="#DBDBCE" d="M239.63,96.339c0,0-13.476,3.375-15.476,4.125l-6.625,17.75l12.534,0.934l-2.793,44.177
		c0,0,16.945,5.574,41.07-0.176l-0.56-43.686l9.78-1.25l-6.03-17.875l-16.938-4"/>
	<path fill="#E2C193" d="M243.167,90.979c0,0-2.063,9.764-2,11.264c0,0,0.313,10.125,7.125,7.688c0,0,5.813,1.313,6.25-10.5
		l-2.75-8.451C251.792,90.979,245.229,88.979,243.167,90.979z"/>
	<path fill="#E9E9E1" d="M242.144,96.339c0,0-1.102,11.154,2.648,11.279h6c0,0,2.952-2.279,2.702-11.279l1.448,0.083
		c0,0,0.35,11.759-4.275,13.509l-5.958,0.379c0,0-5.042-1.221-4.104-13.971H242.144z"/>
	<path fill="#161616" d="M259.625,274.23c0,0-0.583,4.749-2.333,6.249c0,0-2.955,4.625,6.21,8.625c0,0,7.207,1.625,9.124,0
		c0,0-7.458-10.498-7.333-14.874C265.292,274.23,263.708,271.606,259.625,274.23z"/>
	<path fill="#161616" d="M234.625,274.23c0,0,0.583,4.749,2.333,6.249c0,0,2.955,4.625-6.21,8.625c0,0-7.207,1.625-9.124,0
		c0,0,7.458-10.498,7.333-14.874C228.958,274.23,230.542,271.606,234.625,274.23z"/>
	<path fill="#323232" d="M224.378,260.985c0,0,1.164,14.746,6.414,13.245c0,0,0.833-0.21,3.833,0l3.228-12.844
		C237.853,261.387,227.589,258.366,224.378,260.985z"/>
	<path fill="#323232" d="M256.343,261.293c0,0,2.115,11.854,3.282,12.938c0,0,3.876-2.251,5.667,0c0,0,2.987-0.729,5.369-13.739
		C270.66,260.491,258.895,258.939,256.343,261.293z"/>
	<path fill="#6193A6" d="M234.917,111.229h25.875c0,0,1.875,0.697,1.75,2.911l0.006,18.214c0,0,4.321,3.164,5.446,3.789
		l4.632,120.67c0,0,0,3.167-3.667,4.667c0,0-12.208,3.501-15.188-2.833l-5.479-80l-2,0.333l-5.833,80.167c0,0-8.333,10-18.833-0.5
		l7.25-123c0,0,5.75,0.487,3.916-21.506C232.792,114.141,232.708,111.979,234.917,111.229z"/>
	<path fill="#80A7B7" d="M256.417,96.104c0,0,3-0.5,4.375,1.875l-0.875,17.875h-5L256.417,96.104z"/>
	<path fill="#80A7B7" d="M234.917,96.061c0,0,2-1.919,4.25,0l1.875,19.794h-5.375L234.917,96.061z"/>
	<path fill="#80A7B7" d="M236.792,131.757h22.5v9.89c0,0-7.5,14.581-22.5,0.707V131.757z"/>
	<path fill="#4D7585" d="M228.127,148.343c0,0,17.442,6.247,40.311-0.615l0.71,18.501l-0.667,0.172l-1.897-14.962
		c0,0-18.29,8.539-37.708,1.957l-1.821,13.14l-0.263-15.722L228.127,148.343z"/>
	<path fill="#543F37" d="M235.792,78.979c0,0,19.333,2.333,23.5-4.167C259.292,74.813,257.292,82.979,235.792,78.979z"/>
	<path fill="#AB8F6F" d="M214.292,74.813"/>
	<path fill="#9B8568" d="M243.917,52.729c0,0-9.708,22.375,1.708,18.125C245.625,70.854,231.292,78.354,243.917,52.729z"/>
	<path fill="#333333" d="M238.716,43.104c0,0-6.55-3.125-10.925,3l2.75,2.5C230.542,48.604,230.891,42.229,238.716,43.104z"/>
	<path fill="#333333" d="M246.292,41.354c0,0,10.625-6.875,16.375,3.125l-2.5,4.125C260.167,48.604,256.042,38.979,246.292,41.354z"
		/>
	<path fill="#333333" d="M258.542,56.729c0,0-3-6.25-7.25-5.14l-1.188,2.265C250.104,53.854,257.229,53.917,258.542,56.729z"/>
	<path fill="#333333" d="M237.479,55.229l-1.938-2.5c0,0-4.438,2.188-4.75,5.25C230.792,57.979,235.532,55.15,237.479,55.229z"/>
</g>
<g>
	<path fill="#D9B391" d="M402.742,90.114l1.252,16.618c0,0,3.125,6.688,9.375,4.438c0,0,2.375-5.563,2.25-11.063
		c0,0-0.268-9.06-1.228-10.749C414.392,89.359,405.428,86.809,402.742,90.114z"/>
	<path fill="#E5BC98" d="M383.016,58.17c0,0-13-44.666,20-43.333c0,0,37.666-5.667,28.666,43.333c0,0,7.334-16.5,8.834-3.833
		c0,0-1,19.333-10.167,15.833c0,0-6.333,15.667-16.333,19.333c0,0-15.834,9.333-29.834-19.5c0,0-5.332,6-9.666-9.333
		C374.516,60.67,372.683,43.836,383.016,58.17z"/>
	<path fill="#77533C" d="M383.349,60.003c0,0-3.834-21.833,0.833-25.833l0.281-10.813l5.156,0.5c0,0,15.229,6.146,31.729-0.688
		h3.667l-0.709,6.5l-1.291,2.5c0,0,6.167,4.333,6.5,11.667c0,0,1.834,7.833,1,14.833c0,0,8.834-9,2-36.833
		c0,0-17.001-26.5-43.334-8.667c0,0-10.833,6.167-10.833,24.333C378.349,37.503,376.849,54.67,383.349,60.003z"/>
	<path fill="#333333" d="M407.599,48.17c0,0,1.416-8.417,15.5-6.917v4.917C423.099,46.17,411.349,43.92,407.599,48.17z"/>
	<path fill="#333333" d="M389.599,44.253c0,0,9-1.167,11.667,4.25c0,0-10.084-2.167-11.667-0.333V44.253z"/>
	<path fill="#B2937D" d="M404.433,53.17c0,0-12.973,21,2.222,18.917C406.654,72.086,393.517,73.253,404.433,53.17z"/>
	<circle fill="#FFFFFF" cx="413.933" cy="54.503" r="3.75"/>
	<circle fill="#333333" cx="413.933" cy="54.503" r="1.834"/>
	<circle fill="#FFFFFF" cx="395.933" cy="54.503" r="3.75"/>
	<circle fill="#333333" cx="396.933" cy="54.503" r="1.834"/>
	<path fill="#936E51" d="M396.933,79.67c0,0,19.249,2.167,22.416-4C419.349,75.67,413.85,80.003,396.933,79.67z"/>
	<path fill="#F15722" d="M389.485,163.576c0,0-0.521,10.703,1.827,12.896l-1.877,98.223c0,0,2.817-2.507,5.167,0l7.833-92.896
		c0,0,7.206,0.313,9.869-0.782c0,0,6.735,73.781,7.205,93.678c0,0,2.663-4.073,5.327,0l-0.627-100.962c0,0,3.289-2.221,0.627-10.156
		C422.174,155.639,390.398,161.723,389.485,163.576z"/>
	<path fill="#171717" d="M424.962,274.026c0,0,6.814,12.141,8.811,13.785c0,0-5.287,4.111-9.869,0c0,0-4.935-2.351-5.757-4.816
		c0,0-0.901-6.658,1.487-8.969C419.635,274.026,422.2,269.252,424.962,274.026z"/>
	<path fill="#171717" d="M389.486,272.86c0,0-6.356,12.141-8.354,13.785c0,0,5.286,4.111,9.868,0c0,0,4.936-2.351,5.758-4.816
		c0,0,0.9-6.658-1.488-8.969C395.27,272.86,392.247,268.086,389.486,272.86z"/>
	<path fill="#E2C193" d="M434.838,174.242c0,0,2.047-5.639,5.68-0.958c0,0-0.287,4.368,0.857,5.624c0,0,1.619,3.889-0.352,6.209
		c0,0-6.451,6.145-8.764,6.084c0,0-1.092-1.758,1.221-3.89c0,0,1.154-3.324,0.338-4.579c0,0-1.221-0.626-0.881,3.325
		c0,0,0.203,2.634-1.564,1.128c0,0-1.422-5.142,0.887-8.653C432.26,178.532,434.395,175.17,434.838,174.242z"/>
	<path fill="#E2C193" d="M385.349,178.532c2.309,3.512,0.887,8.653,0.887,8.653c-1.768,1.506-1.564-1.128-1.564-1.128
		c0.34-3.951-0.881-3.325-0.881-3.325c-0.816,1.255,0.338,4.579,0.338,4.579c2.313,2.132,1.221,3.89,1.221,3.89
		c-2.313,0.061-8.764-6.084-8.764-6.084c-1.971-2.32-0.352-6.209-0.352-6.209c1.145-1.256,0.857-5.624,0.857-5.624
		c3.633-4.681,5.68,0.958,5.68,0.958C383.214,175.17,385.349,178.532,385.349,178.532z"/>
	<path fill="#F26722" d="M401.266,89.561l-7.25,4.109l4.751,1.667v2l-12.085,4c0,0-4,2.833-4.5,6.833c0,0-7.332,52.999-5.666,65.333
		l7,0.667c0,0,1.838-33,5.252-38.167c0,0-2.753,25.333-2.586,26.833c0,0,18.834,5.5,45.167-1.167v-17.167
		c0,0,2.166,23.833,2.333,28.833l7.834-0.167c0,0-1.834-55-7.167-69c0,0-7.333-6.167-13.833-6.833v-2l2.583-1.333l-7.75-5.077
		l-1.89,0.854l0.035,14.14c0,0-3.299,12.837-9.438,0.188l-0.502-13.741C403.555,90.366,402.127,89.955,401.266,89.561z"/>
	<rect x="415.624" y="113.232" fill="#FFFFFF" width="12.87" height="5"/>
</g>
<g>
	<path fill="#434343" d="M542.901,173.393c0,0-2.072,4.803,0.89,8.756l-1.596,89.887h4.843l7.619-83.959l7.621-0.427
		c0,0,7.057,54.188,7.338,84.951l4.656-0.844l-1.107-87.798c0,0,4.483-3.016,3.496-10.702L542.901,173.393z"/>
	<path fill="#181818" d="M574.532,268.947c0,0-1.514-2.867-3.5,0c0,0-4.723,5.31-2.377,7.65c0,0,3.713,4.309,5.08,4.309h7.424
		c0,0-3.225-6.266-5.373-7.531C575.785,273.377,575.171,269.751,574.532,268.947z"/>
	<path fill="#181818" d="M542.244,270.332c0,0,1.515-2.864,3.5,0c0,0,4.718,5.308,2.375,7.654c0,0-3.712,4.308-5.081,4.308h-7.42
		c0,0,3.221-6.265,5.369-7.531C540.991,274.763,541.607,271.137,542.244,270.332z"/>
	<path fill="#E2C193" d="M534,32c0,0-3.25,27.667-1.25,29.833c0,0-8.688-9.271-6.938,5.417c0,0,1.813,13.75,9.688,8.875
		c0,0,5.875,19.563,19.25,20.938h9.125c0,0,12.813-0.625,16.938-21.063c0,0,6.438,5.813,9.813-8.313c0,0,3.5-22.188-6.813-6.75
		l-2.563-27.313C581.25,33.625,562.25,10.688,534,32z"/>
	<path fill="#3C3C3C" d="M532.875,61.875L535,32.75c0,0,26.375,6.75,42.5,5.75c0,0-2.25,3.375,0.5,8.813c0,0,3.625,5.938,3,14.563
		h2.75c0,0,4-13.75,3-33.75c0,0,0.25-0.5,0.16-1.125l-0.243-2c0,0-0.229-0.563-0.834-1.25c0,0-25.666-22.75-43.833-3.75h-7.167
		c0,0-7.334,5.417-8,7.583c0,0-0.999,1.5,2.834,1.5C529.667,29.083,527.917,64.333,532.875,61.875z"/>
	<path fill="#E2C193" d="M554.75,97.063v2.604l3.639,3.167l5.612-3.667l-0.126-2.104C563.875,97.063,557.499,96.292,554.75,97.063z"
		/>
	<path fill="#E2C193" d="M533.06,127.199c0,0-5.903,37.947-3.579,46.45c0,0-2.362,7.632-1.927,10.793c0,0-0.109,3.924,3.599,6.103
		l4.471,3.599c0,0,4.034,3.814,3.052-0.655c0,0-3.488-3.703-2.507-7.958c0,0,0.763-2.94,2.071,0.221c0,0-0.545,9.158,1.635,4.358
		c0,0,1.036-8.066-1.145-10.955c0,0-2.834-4.688-3.814-5.343l4.742-45.549L533.06,127.199z"/>
	<path fill="#E2C193" d="M581.777,131.229l4.047,45.648c-0.98,0.654-3.814,5.343-3.814,5.343
		c-2.181,2.889-1.145,10.955-1.145,10.955c2.18,4.8,1.635-4.358,1.635-4.358c1.309-3.161,2.071-0.221,2.071-0.221
		c0.981,4.255-2.507,7.958-2.507,7.958c-0.982,4.47,3.052,0.655,3.052,0.655l4.471-3.599c3.708-2.179,3.599-6.103,3.599-6.103
		c0.436-3.161-1.927-10.793-1.927-10.793c2.324-8.503-2.732-46.45-2.732-46.45L581.777,131.229z"/>
	<path fill="#F0F3F4" d="M567.313,101.96c0,0,10.272,4.706,17.438,6.04c0,0,7.191,35.667,6.494,45h-8.37c0,0-1.483-17-3.596-20.5
		l0.888,37.667c0,0-1.334,3.666-5.334,3.833c0,0-22.332,2.845-32.166-0.744c0,0-2.501-0.923-2.834-3.756l0.834-36.122
		c0,0-3.834,15.288-3.167,19.622l-8.125,0.25c0,0,3.124-40.583,5.958-45.75c0,0,11.97-4.119,15.229-4.667L567.313,101.96z"/>
	<path fill="#C6D3DB" d="M564.001,99.167l3.312,2.793c0,0-0.479,4.619-2.271,3.454l-11.642,0.473c0,0-3.338,0.967-2.838-3.054
		c0,0,1.75-4.062,4.188-3.667v0.5l3.639,3.167L564.001,99.167z"/>
	<path fill="#4E1918" d="M560.501,104.583c0,0,3.166-3,5.416-2.583c0,0,0.583,3.5-2.25,4.167c0,0,2.417,2.583,1.917,4.667
		c0,0-3.749,0.417-5.083-2.5l-1.667-0.167v-3.5L560.501,104.583z"/>
	<path fill="#4E1918" d="M557.3,104.583c0,0-3.166-3-5.416-2.583c0,0-0.583,3.5,2.25,4.167c0,0-2.417,2.583-1.917,4.667
		c0,0,3.749,0.417,5.083-2.5l1.667-0.167v-3.5L557.3,104.583z"/>
	<path fill="#505249" d="M571.107,103.588c0,0-2.847,65.673-0.347,70.84l3.06-0.309c0,0-0.821-67.784,0.013-69.451L571.107,103.588z
		"/>
	<polygon fill="#505249" points="544,104.648 544,173.683 547.167,174.367 546.437,103.903 	"/>
	<rect x="527.5" y="153" fill="#D9DDDD" width="10" height="6.167"/>
	<rect x="581.5" y="153" fill="#D9DDDD" width="11.333" height="6.167"/>
	<path fill="#3C3C3C" d="M556.822,48.156c0,0,11.134-6.145,17.678,2.178L572.833,55C572.833,55,565.145,46.812,556.822,48.156z"/>
	<path fill="#3C3C3C" d="M551.834,50c0,0-9.333-3.167-11.667,2.583L541.833,55C541.833,55,543.668,50,551.834,50z"/>
	<circle fill="#FFFFFF" cx="547.167" cy="60.781" r="3.75"/>
	<circle fill="#333333" cx="548.167" cy="60.781" r="1.834"/>
	<circle fill="#FFFFFF" cx="565.167" cy="60.781" r="3.75"/>
	<circle fill="#333333" cx="565.167" cy="60.781" r="1.834"/>
	<path fill="#93836E" d="M555.4,58.947c0,0-12.076,23.303,3.512,18.178C558.912,77.125,546.426,81.269,555.4,58.947z"/>
	<path fill="#574436" d="M550.939,84c0,0,10.688,2.625,16.062-2.625C567.001,81.375,563.254,88.375,550.939,84z"/>
	<path fill="#574436" d="M564.188,79.188c0,0,2.375,2.5,5.063,3.5c0,0-3-0.625-5.313-3.5"/>
</g>
</svg>
