<?xml version="1.0" encoding="utf-8"?>
<!-- Generator: Adobe Illustrator 16.0.0, SVG Export Plug-In . SVG Version: 6.00 Build 0)  -->
<!DOCTYPE svg PUBLIC "-//W3C//DTD SVG 1.1//EN" "http://www.w3.org/Graphics/SVG/1.1/DTD/svg11.dtd">
<svg version="1.1" id="Layer_1" xmlns="http://www.w3.org/2000/svg" xmlns:xlink="http://www.w3.org/1999/xlink" x="0px" y="0px"
	 width="90.749px" height="285.463px" viewBox="0 0 90.749 285.463" enable-background="new 0 0 90.749 285.463"
	 xml:space="preserve">
<g>
	<path fill="#171717" d="M25.761,268.805c0,0-6.348,12.011-9.481,13.76c0,0,4.387,1.936,11.279,0.967c0,0,6.579-3.445,7.049-5.481
		c0,0,1.88-4.388-2.82-9.242C31.789,268.805,28.463,264.015,25.761,268.805z"/>
	<path fill="#E2C193" d="M76.944,167.739c0,0,1.466-7.677,6.39-0.798c0,0-0.05,6.304,1.5,8.146c0,0,2.195,5.712-0.475,9.118
		c0,0-8.745,9.026-11.88,8.938c0,0-1.479-2.581,1.653-5.712c0,0,1.564-4.886,0.463-6.726c0,0-1.658-0.924-1.198,4.882
		c0,0,0.274,3.867-2.119,1.655c0,0-1.927-7.556,1.201-12.713C72.479,174.532,76.342,169.103,76.944,167.739z"/>
	<path fill="#E2C193" d="M21.581,174.532c3.128,5.157,1.201,12.713,1.201,12.713c-2.395,2.212-2.119-1.655-2.119-1.655
		c0.46-5.804-1.198-4.882-1.198-4.882c-1.104,1.84,0.462,6.726,0.462,6.726c3.133,3.131,1.654,5.712,1.654,5.712
		c-3.135,0.09-11.88-8.938-11.88-8.938c-2.67-3.406-0.475-9.118-0.475-9.118c1.551-1.843,1.163-8.259,1.163-8.259
		c4.922-6.878,7.698,1.403,7.698,1.403C18.689,169.596,21.581,174.532,21.581,174.532z"/>
	<path fill="#171717" d="M66.592,268.805c0,0,6.35,12.011,9.48,13.76c0,0-4.387,1.936-11.279,0.967c0,0-6.58-3.445-7.049-5.481
		c0,0-1.88-4.388,2.82-9.242C60.564,268.805,63.889,264.015,66.592,268.805z"/>
	<path fill="#A6B5CA" d="M26.048,158.228c0,0-1.308,7.812,1.668,11.104l-1.955,99.475c0,0,2.738-3.761,6.028,0l9.086-93.679
		l10.181-0.156c0,0,9.507,47.506,9.037,94.345c0,0,3.651-4.809,6.629-0.265l-1.41-102.069c0,0,2.783-3.893,0.529-9.465
		C65.844,157.516,40.671,146.967,26.048,158.228z"/>
	<path fill="#BEC9D9" d="M24.269,95.391c0,0-7.95-0.938-8.303,16.096c0,0-6.579,48.876-5.874,55.455c0,0,5.757,1.292,8.106,0.588
		c0,0,3.414-37.127,5.995-37.01l48.514,8.692c0,0,2.239,27.093,4.236,28.524c0,0,3.99-1.03,5.861-0.889
		c0.203,0.016,0.381,0.045,0.525,0.091c1.483,0.472-2.863-50.168-5.214-56.275c0,0,0.274-16.253-7.793-15.587L24.269,95.391z"/>
	<path fill="#D4DEEC" d="M38.055,89.751l-13.786,5.641c0,0-2.82,9.241-3.133,11.904c0,0,6.892,21.306,0,49.659
		c0,0,14.882,6.106,51.852-0.627c0,0-1.253-43.862,1.41-46.996c0,0,0.47-2.819,0-5.641l-4.073-8.614L56.03,89.633L38.055,89.751z"/>
	<path fill="#E2C193" d="M10.862,46.168c0,0-5.821,4.104-0.534,14.21c0,0,5.052,8.459,8.342,4.229c0,0,8.342,19.149,22.91,20.09
		v3.762l-3.524,1.292c0,0-1.41,6.695,7.108,7.284l1.234,8.342l1.175-9.164c0,0,6.579,1.646,8.459-6.58l-4.464-1.526l-0.354-3.407
		c0,0,11.278,0.472,19.737-21.028c0,0,7.754,5.521,11.866-11.278c0,0,2.467-10.339-3.407-8.93L64.727,15.969l-37.714-5.053
		l-5.757,14.567l-7.754,12.221L10.862,46.168z"/>
	<path fill="#341D17" d="M17.69,55.444c0,0,1.488-7.754,0-14.688c0,0,12.023-9.046,14.49-18.798c0,0,9.282,2.23,13.276-1.175h9.164
		c0,0,2.231,12.452,16.097,17.328l0.471,17.33c0,0,5.285-13.274,8.224-11.982v-2.702c0,0,7.285,2.468,10.574-4.937
		c0,0-4.229,3.174-7.05,0c0,0,2.82-2.938,4.111-1.995c0,0-9.634-4.7-10.809-11.046c0,0,1.645,1.882,4.229,2.115
		c0,0-15.391-18.329-16.918-20.562c0,0-7.049-6.934-19.501,2.351c0,0-3.877,1.41-7.284-2.938c0,0-15.626-5.287-24.203,12.219
		c0,0-2.467,8.93-5.757,10.457c0,0,0.823,0.705,2.938,0.235c0,0-4.582,7.4-6.462,7.521c0,0,3.995-0.118,6.109-0.823
		c0,0,0,4.937-9.047,5.875C0.341,39.23,18.239,48.982,17.69,55.444z"/>
	<path fill="#333333" d="M47.871,39.23c0,0,9.844-4.465,14.465,2.506c0,0,0.705,1.882-1.019,1.882c0,0-10.208-3.214-13.446-1.882
		V39.23z"/>
	<path fill="#333333" d="M38.76,38.917c0,0,1.802,0.784,0,2.664c0,0-10.887-0.473-12.375,2.036
		C26.385,43.617,22.154,36.88,38.76,38.917z"/>
	<ellipse fill="#333333" cx="33.396" cy="49.414" rx="2.781" ry="2.82"/>
	<ellipse fill="#333333" cx="52.82" cy="49.414" rx="2.781" ry="2.82"/>
	<path fill="#A08468" d="M42.754,46.594c0,0-14.138,23.104,2.409,18.015C45.163,64.608,27.872,71.736,42.754,46.594z"/>
	<path fill="#542626" d="M36.712,72.833c0,0,12.387,3.523,18.889-3.838C55.6,68.995,50.094,78.314,36.712,72.833z"/>
</g>
</svg>