<?xml version="1.0" encoding="utf-8"?>
<!-- Generator: Adobe Illustrator 16.0.0, SVG Export Plug-In . SVG Version: 6.00 Build 0)  -->
<!DOCTYPE svg PUBLIC "-//W3C//DTD SVG 1.1//EN" "http://www.w3.org/Graphics/SVG/1.1/DTD/svg11.dtd">
<svg version="1.1" id="Layer_1" xmlns="http://www.w3.org/2000/svg" xmlns:xlink="http://www.w3.org/1999/xlink" x="0px" y="0px"
	 width="100.807px" height="286.29px" viewBox="0 0 100.807 286.29" enable-background="new 0 0 100.807 286.29"
	 xml:space="preserve">
<g>
	<g>
		<path fill="#E2C193" d="M80.54,171.993c0,0-0.332-8.728,6.704-4.035c0,0,1.907,6.139,4.01,7.312c0,0,4.072,4.566,2.779,8.697
			c0,0-4.986,11.537-7.951,12.562c0,0-2.295-1.892-0.473-5.929c0,0-0.263-5.124-1.947-6.453c0,0-1.876-0.276,0.607,4.99
			c0,0,1.625,3.521-1.396,2.297c0,0-4.476-6.385-3.373-12.314C79.5,179.121,80.459,173.48,80.54,171.993z"/>
		<path fill="#BEC9D9" d="M55.891,111.709c0,0-5.101-9.958,6.603-10.107c0,0,5.358,1.449,5.446,6.627
			c0,0,19.401,49.192,20.139,61.742l-7.591,2.609c0,0-6.505-25.045-12.354-37.683L55.891,111.709z"/>
	</g>
	<path fill="#D4DEEC" d="M38.125,96.444l-10.625,3.75c0,0-2.75,44.375,2.25,60.875c0,0,23.5,3.5,39.5,0c0,0-2-33,0-50
		c0,0-0.25-7-5.25-9.75l-8-3.125c0,0,0.131,3.669-4.5,4v7.25l-2.375-6.625C49.125,102.819,41,102.319,38.125,96.444z"/>
	<g>
		<path fill="#E2C193" d="M26.11,179.491c2.226,5.605-0.933,12.734-0.933,12.734c-2.729,1.782-1.813-1.983-1.813-1.983
			c1.42-5.647-0.368-5.015-0.368-5.015c-1.396,1.63-0.665,6.708-0.665,6.708c2.568,3.609,0.68,5.907,0.68,5.907
			c-3.105-0.433-10.226-10.79-10.226-10.79c-2.065-3.804,1.049-9.07,1.049-9.07c1.836-1.559,2.522-7.949,2.522-7.949
			c5.998-5.963,7.356,2.665,7.356,2.665C24.08,174.142,26.11,179.491,26.11,179.491z"/>
		<path fill="#BEC9D9" d="M36.263,108.789c0,0,3.083-10.755-8.429-8.643c0,0-4.978,2.456-4.063,7.555c0,0-9.543,52.013-7.842,64.469
			l7.95,1.095c0,0,1.55-25.829,4.849-39.357L36.263,108.789z"/>
	</g>
	<g>
		<path fill="#E2C193" d="M28.5,56.819c0,0-8.25-20.875-16.25-6.875l1.916,4.89c0,0,4.584,20.235,14.334,12.985
			c0,0,4.875,12,14.625,19L40.5,95.194l-2.375,1.25c0,0,3.375,6,11,6.375l2.375,6.625v-7.25c0,0,4.625-0.375,4.5-4l-5-2.5
			l-0.25-5.625c0,0,17.691,2.497,23.25-28.25c0,0,1.396-7.505,1.448-16.189L70.5,23.819l-13.875-2.5l-12.776,1.625
			C43.849,22.944,25.875,33.569,28.5,56.819z"/>
		<path fill="#542626" d="M46.765,72.057c6.502,7.361,18.89,3.838,18.89,3.838C52.273,81.376,46.767,72.057,46.765,72.057z"/>
		<path fill="#333333" d="M52.812,44.979c0,0,1.803,0.784,0,2.664c0,0-10.887-0.473-12.375,2.036
			C40.438,49.679,36.207,42.941,52.812,44.979z"/>
		<path fill="#A08468" d="M57.765,70.67c16.548,5.09,2.409-18.015,2.409-18.015C75.056,77.798,57.765,70.67,57.765,70.67z"/>
		<ellipse fill="#333333" cx="66.873" cy="55.475" rx="2.781" ry="2.82"/>
		<ellipse fill="#333333" cx="47.873" cy="55.475" rx="2.781" ry="2.82"/>
		<path fill="#341D17" d="M47.037,28.25c0,0,16.713-2,21.713,0c0,0,3.25,29.062,18.25,15.531c0,0-5.75-1.531-6.75-5.031
			c0,0,3-0.268,4.5-1.383c0,0-5-3.117-5.917-6.45c0,0,1.416,0.417,2.083,0.083c0,0-10.25-30.5-25.25-20.5
			c0,0-25.666-21-37.666,20.333c0,0-2,6.5-11.5,6.667c0,0,2.667,7.5,6.5,9.167c0,0-1.834,1.245-4.667,0.706c0,0,1,3.628,5.833,7.461
			c0,0-2.333-6.833,2.167-7.333c0,0,9.5-0.333,10.667,11.667c0,0,2.667,0.667,3.667-3l1-10.833
			C31.667,45.333,44.074,42.833,47.037,28.25z"/>
		<path fill="#333333" d="M59.924,45.292c0,0,9.844-4.465,14.465,2.506c0,0,0.705,1.882-1.019,1.882c0,0-10.208-3.214-13.446-1.882
			V45.292L59.924,45.292z"/>
	</g>
	<path fill="#A6B5CA" d="M29.75,161.069c0,0,27,3.5,39.5,0c0,0-1.25,8-2.5,10.75l-1.125,37.875c0,0-0.789,6.456-0.75,11.125
		l-2.125,53.625c-5.125,0-5.993-0.513-6.625-0.625l-0.375-53.875l-1.125-42.625c0,0,4.576,1.125,0.413,0
		c0,0,8.628,24.666,12.708,40.875c0.172,0.686,0.279,1.463,0.026,2.125c-1.272,3.333-29.677,34.987-30.734,38.75
		c0,0-1.372-0.583-4.038-2.75l24.84-36.19l-23.206-42.535C34.634,177.594,31.433,169.515,29.75,161.069z"/>
	<path fill="#191918" d="M30.539,257.5l-2.108,4.607l4.461,3.449c0,0,0.586-0.551,1.629,1.562c0,0,3.505,5.104,11.195,6.303
		c0,0,3.674,0.191,1.434-2.153c0,0-9.955-8.918-11.078-13.653C36.072,257.615,33.91,252.925,30.539,257.5z"/>
	<path fill="#191918" d="M56.233,276.071l0.962,4.979l5.635,0.215c0,0,0.158-0.789,2.234,0.324c0,0,5.818,2.12,12.772-1.376
		c0,0,3.104-1.979-0.085-2.585c0,0-13.283-1.476-16.95-4.678C60.803,272.951,56.318,270.391,56.233,276.071z"/>
</g>
</svg>
