<?xml version="1.0" encoding="utf-8"?>
<!-- Generator: Adobe Illustrator 16.0.0, SVG Export Plug-In . SVG Version: 6.00 Build 0)  -->
<!DOCTYPE svg PUBLIC "-//W3C//DTD SVG 1.1//EN" "http://www.w3.org/Graphics/SVG/1.1/DTD/svg11.dtd">
<svg version="1.1" id="Layer_1" xmlns="http://www.w3.org/2000/svg" xmlns:xlink="http://www.w3.org/1999/xlink" x="0px" y="0px"
	 width="684px" height="296.64px" viewBox="0 0 684 296.64" enable-background="new 0 0 684 296.64" xml:space="preserve">
<radialGradient id="SVGID_1_" cx="342" cy="148.3198" r="263.5932" gradientUnits="userSpaceOnUse">
	<stop  offset="0" style="stop-color:#849B87"/>
	<stop  offset="1" style="stop-color:#586853"/>
</radialGradient>
<rect fill="url(#SVGID_1_)" width="684" height="296.64"/>
<g>
	<polygon fill="#E0E0E0" points="220.03,121.434 353.631,126.434 353.631,227.234 220.03,222.234 217.519,172.09 220.03,170.334 
		220.03,169.084 	"/>
	<polygon fill="#4A494A" points="220.03,121.434 236.63,106.083 357.131,106.083 353.631,126.434 	"/>
	<rect x="238.13" y="109.833" fill="#6F7549" stroke="#979B70" stroke-miterlimit="10" width="26.5" height="10.6"/>
	<polygon fill="#F04D23" points="333.627,110.271 336.381,110.271 335.004,112.54 332.08,112.54 	"/>
	<polygon fill="#6F7549" points="329.627,110.271 332.381,110.271 331.004,112.54 328.08,112.54 	"/>
	<polygon fill="#6F7549" points="325.627,110.271 328.381,110.271 327.004,112.54 324.08,112.54 	"/>
	<polygon fill="#6F7549" points="321.627,110.271 324.381,110.271 323.004,112.54 320.08,112.54 	"/>
	<polygon fill="#76C043" points="331.627,113.271 334.381,113.271 333.004,115.54 330.08,115.54 	"/>
	<polygon fill="#6F7549" points="327.627,113.271 330.381,113.271 329.004,115.54 326.08,115.54 	"/>
	<polygon fill="#6F7549" points="323.627,113.271 326.381,113.271 325.004,115.54 322.08,115.54 	"/>
	<polygon fill="#6F7549" points="319.627,113.271 322.381,113.271 321.004,115.54 318.08,115.54 	"/>
	<polygon fill="#3D5BA9" points="329.627,116.271 332.381,116.271 331.004,118.54 328.08,118.54 	"/>
	<polygon fill="#6F7549" points="325.627,116.271 328.381,116.271 327.004,118.54 324.08,118.54 	"/>
	<polygon fill="#6F7549" points="321.627,116.271 324.381,116.271 323.004,118.54 320.08,118.54 	"/>
	<polygon fill="#6F7549" points="317.627,116.271 320.381,116.271 319.004,118.54 316.08,118.54 	"/>
	<ellipse fill="#7B2917" cx="304.673" cy="114.186" rx="4.042" ry="4.354"/>
	<ellipse fill="#9B4722" cx="304.173" cy="113.681" rx="3.542" ry="3.848"/>
	<ellipse fill="#307037" cx="293.672" cy="114.186" rx="4.042" ry="4.354"/>
	<ellipse fill="#5ABA47" cx="293.172" cy="113.681" rx="3.542" ry="3.848"/>
	<polygon fill="#2F140B" points="265.13,120.833 267.38,109.833 265.13,109.5 	"/>
	<polygon fill="#2F140B" points="220.03,169.084 353.631,173.334 353.631,174.334 220.03,170.334 	"/>
	<polygon fill="#A7A9AC" points="353.631,174.334 345.881,178.334 347.125,226.99 220.03,222.234 223.63,227.234 353.631,230.834 	
		"/>
	<polygon fill="#D1D3D4" points="217.519,172.09 345.881,178.334 353.631,174.334 220.03,170.334 	"/>
	<polygon fill="#939598" points="218.691,195.498 346.5,202.584 346.5,204 218.691,196.667 	"/>
	<ellipse fill="#E5C020" cx="334.44" cy="131.167" rx="12.06" ry="1.833"/>
	
		<ellipse transform="matrix(0.9986 0.053 -0.053 0.9986 9.901 -14.7092)" fill="#BCBEC0" stroke="#808285" stroke-width="0.5" stroke-miterlimit="10" cx="282.547" cy="179.5" rx="11.25" ry="2"/>
	
		<ellipse transform="matrix(0.9986 0.0527 -0.0527 0.9986 11.2204 -14.6022)" fill="#BCBEC0" stroke="#808285" stroke-width="0.5" stroke-miterlimit="10" cx="282.547" cy="205.499" rx="11.25" ry="2"/>
	<path fill="#808285" d="M294.003,206.182c-0.028,0.521-4.998,1.535-11.038,1.152c-8.562-0.541-11.402-1.916-11.375-2.438
		c0.028-0.523,5.392,0.182,11.438,0.5C289.073,205.717,294.031,205.658,294.003,206.182z"/>
	<path fill="#808285" d="M271.568,178.85c-0.026,0.523,1.797,1.828,10.835,2.4c7.645,0.485,11.099-0.602,11.124-1.124"/>
	<polygon fill="#E6E7E8" points="232.936,109.5 203.318,109.587 198.38,113.866 198.38,163.895 202.38,165.723 204.38,229.168 
		207.63,232.459 223.63,232.459 220.03,227.236 217.519,174.867 220.03,173.033 220.03,121.963 	"/>
	<polygon fill="#D1D3D4" points="202.38,163.334 220.03,170.334 217.519,172.09 217.519,174.75 202.515,167.417 	"/>
	<polygon fill="#BCBEC0" points="220.03,170.498 217.519,172.41 220.03,222.234 223.63,227.234 223.63,232.459 215.379,232.459 
		215.379,168.488 	"/>
	<polygon fill="#6D6E71" points="220.03,170.334 220.497,121.512 232.936,109.5 218.255,109.541 219.044,169.942 	"/>
	<polygon fill="#F1F2F2" points="353.631,126.434 357.131,106.083 362.965,139.917 353.631,150.166 	"/>
	<polygon fill="#D1D3D4" points="362.965,139.917 357.131,106.083 429.297,98.834 436.965,128.167 	"/>
	<polygon fill="#A7A9AC" points="362.965,139.917 353.631,150.166 430.965,138.167 436.965,128.167 	"/>
	<path fill="#6D6E71" d="M353.631,150.166v24.168l75.668-8.293v-6.791l15-7.416c0,0,2.531-0.229,0.197-5.228l-13.201,1.312
		l-0.33-9.751L353.631,150.166z"/>
	<polygon fill="#58595B" points="428.965,154.834 365.131,162.959 357.131,169.084 423.631,161.334 	"/>
	<polygon fill="#58595B" points="357.131,162.959 364.965,157.417 428.965,148.333 428.965,144.083 357.131,153.584 	"/>
	<path fill="#D1D3D4" d="M353.631,174.334l75.668-8.293l4.998,2.447c0,0,10.332,30.012,0,50.012l-80.666,12.334V174.334z"/>
	<polygon fill="#E6E7E8" points="429.299,166.041 434.297,168.488 362.965,177.416 353.631,174.334 	"/>
	<path fill="#DEDDDD" d="M362.965,177.416c0,0,7.334,28.084,0,44.418l-9.334,9v-56.5L362.965,177.416z"/>
	<polygon fill="#939598" points="436.965,210.166 434.297,218.5 353.631,230.834 361.6,223.148 	"/>
	<polygon fill="#58595B" points="223.63,227.234 353.631,230.834 434.297,218.5 434.297,224.668 353.631,237.166 223.63,232.5 	"/>
	<polygon fill="#6D6E71" points="242.297,106.083 357.131,106.083 425.783,99.187 425.783,96.166 357.131,102.499 238.297,102.666 	
		"/>
	<polygon fill="#D1D3D4" points="238.297,102.666 357.131,102.499 425.783,96.166 421.963,82.5 416.297,79.5 349.631,82.167 
		346.5,79.5 304.172,81.5 300.63,91.083 245.63,91.083 	"/>
	<polygon fill="#BCBEC0" points="421.963,82.5 353.131,88.167 357.131,102.499 425.783,96.166 	"/>
	<polygon fill="#E6E7E8" points="353.131,88.167 350.963,102.666 357.131,102.499 	"/>
	<polygon fill="#E6E7E8" points="245.63,91.083 302.963,92.5 307.715,83.833 349.631,82.167 346.5,79.5 304.172,81.5 300.63,89.833 
			"/>
	<polygon fill="#58595B" points="244.733,92.5 238.297,79.5 191.964,79.5 206.297,109.5 232.936,109.5 236.63,106.083 
		242.297,106.083 238.297,102.666 	"/>
	<path fill="#414042" d="M198.38,116.258v-2.392l4.938-4.279l2.979-0.087L191.964,79.5l-4.667,5
		C187.297,84.5,182.13,108.683,198.38,116.258z"/>
	<polygon fill="#FFFFFF" points="241.328,97.879 238.297,102.666 242.297,106.083 236.63,106.083 232.936,109.5 213.129,109.5 
		203.379,86 235.879,86 	"/>
</g>
<g>
	<polygon fill="#405CAA" points="421.286,191.731 427.39,228.495 479.651,228.829 497.198,216.003 497.198,181.584 482.321,191.731 
			"/>
	<polygon fill="#2F499F" points="479.651,228.829 479.651,191.731 482.321,191.731 497.198,181.584 497.198,216.003 	"/>
	<polygon fill="#4665AF" points="421.286,191.731 418.997,191.731 416.708,189.441 483.389,189.441 482.321,191.731 	"/>
	<polygon fill="#28457D" points="483.389,189.441 482.321,191.731 497.198,181.584 499.01,180.287 499.01,178.475 	"/>
	<polygon fill="#7591CA" points="416.708,189.441 483.389,189.441 482.321,187.344 418.806,187.344 	"/>
	<polygon fill="#2D539F" points="499.01,178.475 497.198,177.902 482.321,187.344 483.389,189.441 	"/>
	<polygon fill="#224070" points="421.286,191.731 479.651,191.731 482.321,191.731 497.198,181.584 497.198,185.104 479.651,195.45 
		421.903,195.45 	"/>
	<polygon fill="#163156" points="479.651,195.45 479.651,191.731 482.321,191.731 497.198,181.584 497.198,185.104 	"/>
	<polygon fill="#224070" points="497.198,177.902 439.978,177.902 418.806,187.344 482.321,187.344 	"/>
	<path fill="#E6E7E8" d="M429.964,187.344l-4.148-9.441l2.718-6.438l8.012-5.436c0,0,5.865,2.861,10.442,1.287v4.148l8.583-0.143
		l-2.718-4.006l5.149-5.149h2.861l8.726,7.01l3.147-2.289l4.148,2.289l3.862-2.861l12.159,5.149l-4.481,12.006l-6.104,3.873H429.964
		z"/>
	<polygon fill="#D1D3D4" points="428.533,171.465 425.815,177.902 438.694,178.475 433.397,174.971 440.121,174.971 	"/>
	<polygon fill="#F1F2F2" points="436.545,166.029 443.839,167.789 442.839,174.756 	"/>
	<polygon fill="#BCBEC0" points="446.415,187.344 454.14,187.344 452.566,179.905 448.704,179.905 	"/>
	<polygon fill="#BCBEC0" points="460.863,162.167 458.002,173.325 462.723,179.905 461.578,187.344 466.585,187.344 
		469.589,178.475 469.589,169.177 	"/>
	<polygon fill="#BCBEC0" points="473.166,174.971 475.884,178.475 479.651,171.465 	"/>
	<polygon fill="#F1F2F2" points="485.763,168.439 492.906,171.465 484.037,178.475 	"/>
</g>
<g>
	<path fill="#CED6DD" d="M372.592,203.459c0,0,17.418,12.857,33.731,0l-3.87,34.564c0,0-14.93,7.189-25.576-1.105L372.592,203.459z"
		/>
	<path fill="#939DA5" d="M372.592,203.459c0,0,16.588,12.857,33.731,0C406.323,203.459,388.631,186.868,372.592,203.459z"/>
	<path fill="#E4ECF5" d="M372.592,203.459c0,0,15.619,12.857,33.731,0l-0.319,2.856c0,0-16.713,12.915-33.045,0L372.592,203.459z"/>
	<path fill="#BAC1C6" d="M402.453,238.023c0,0-13.825,7.154-25.576-1.105l-0.329-2.573c0,0,13.251,8.278,26.319,0L402.453,238.023z"
		/>
	<path fill="#BAC1C6" d="M392.518,211.779c0,0,3.721-0.32,8.572-2.605l-1.519,26.92c0,0-4.131,1.781-7.054,1.528V211.779z"/>
	<path fill="#B797B7" d="M374.562,204.705c0,0,5.171,2.995,6.94,3.053c0,0,2.689-2.537,0-4.299s-4.939-2.076-4.955-0.831
		C376.529,203.876,373.725,201.353,374.562,204.705z"/>
	<path fill="#FFFFFF" d="M392.518,209c0,0-5.838,0.671-11.016-1.242c0,0-2.689-2.95,2.391-3.469c0,0,3.197-2.366,4.338-0.656
		c0,0,2.317-0.518,2.715,1.02c0,0,1.813-1.452,2.245,0.449C393.19,205.102,395.371,207.282,392.518,209z"/>
	<path fill="#76A58C" d="M401.09,206.531c0,0-4.752,2.063-8.572,2.469c0,0-3.3-1.721,0-4.184c0,0,0.189-3.082,2.816-1.805
		c0,0,3.803-1.764,3.939,1.001C399.273,204.013,402.074,203.035,401.09,206.531z"/>
</g>
</svg>
