<?xml version="1.0" encoding="utf-8"?>
<!-- Generator: Adobe Illustrator 16.0.0, SVG Export Plug-In . SVG Version: 6.00 Build 0)  -->
<!DOCTYPE svg PUBLIC "-//W3C//DTD SVG 1.1//EN" "http://www.w3.org/Graphics/SVG/1.1/DTD/svg11.dtd">
<svg version="1.1" id="Layer_1" xmlns="http://www.w3.org/2000/svg" xmlns:xlink="http://www.w3.org/1999/xlink" x="0px" y="0px"
	 width="684px" height="296.64px" viewBox="0 0 684 296.64" enable-background="new 0 0 684 296.64" xml:space="preserve">
<rect fill="#A7C5C5" width="684" height="296.64"/>
<g>
	<path fill="#436730" d="M233.029,111.211l-1.862,0.621l-4.333,23.251l4.417-0.667l8.666,26.417l-17.041-0.084l-0.042-30.917
		l-2.5,0.083l-0.083,2.708l-3.891-0.047c0,0-1.526-3.327-1.443-4.994l2.5,1.25l-3.334-6.915c0,0,3.333-6.502,3.5-8.419
		c0,0-2.999,1.833-3.25,1.75s-0.25-0.083-0.25-0.083s8.499-17.585,10.166-26.251C224.248,88.915,226.906,101.921,233.029,111.211z"
		/>
	<path fill="#436730" d="M194.583,93.917c0,0-0.417,14.417-4,22.25c0,0,1.667-0.5,2-1.083c0,0-1.25,6.917-2.917,10.083
		c0,0,1.417,0.5,3.667-1.667c0,0-0.5,3.583-3.667,6.583c0,0,2.667-0.5,3.75-3.083c0,0-1.083,4.083-1.292,4.917l8.708,0.25
		l11.25,0.083c0,0-9.334-14.583-10.167-18.25l2.25,0.833C204.167,114.833,195.25,96,194.583,93.917z"/>
	<path fill="#4E7A38" d="M200.833,127.667c0,0,5.333-7.083,8.333-20.5c0,0,5,15.417,8.25,21.667c0,0-1.667-0.417-2.5-1.25
		c0,0,0.76,2.994,1.677,4.994l-15.761-0.411l2.75-5.25L200.833,127.667z"/>
	<path fill="#2D411C" d="M366.918,109.5c0,0-5.168,13.333-8.334,18c0,0,1.417,0.167,2.917-1l-4.583,7.583l5,22.583
		c0,0,15-1.75,19.833-4c0,0-7.584-17.833-8.417-19.583l2.833,0.5l0.334-2.5c0,0-3.751-3.75-3.834-5.583c0,0,1.834,1.25,2.917,1.417
		C375.584,126.917,367.002,114,366.918,109.5z"/>
	<path fill="#436730" d="M377.75,86.333c0,0-1.751,16.583-4.667,21.833c0,0,1.416-0.333,2.333-1.333c0,0-1.915,8.5-3.749,10.5
		c0,0,3.584-1.25,4.5-2.167c0,0-1.167,3.583-3.417,6.167c0,0,2.666-1.083,3.666-3c0,0-3,9.167-6.5,14.333
		c0,0,3.416,0.917,5.833-2.167c0,0-1.251,5.333-6.917,9.583c0,0,1.583,0.584,5.75-3.583c0,0-0.335,5.25-5.335,10.917
		c0,0,0.918,0.833,4.584-1.5c0,0,0.249,2-2.418,5.417c0,0,3.999,1.499,8.332-1.583l29.167-0.418l-17.167-35.166
		c0,0-4.583-4.834-5.583-8.417c0,0,1.003,1.167,2.71,1.167C388.872,106.916,380.089,93.085,377.75,86.333z"/>
	<path fill="#365024" d="M354.25,122.25c0,0-2.75,10-6.75,13.75l2.5-0.875l-5.25,8.25l4.75-1.875l-4.75,4l3.5-1.125l-3.5,4.75
		l-1,3.875l3.125-1.25l-3.125,3.5H345l-1.25,2l-0.751,2.75c0,0,18.626-2.5,21.626-3.875c0,0-1.625-3.125-1.875-4.125
		c0,0,1.5,1.375,3.625,1c0,0-3.5-4-4.875-7.125c0,0,1.75,1.219,3.156,1.344c0,0-3.906-3.094-3.875-3.906c0,0,0.75,0.75,2.344,0.969
		c0,0-3.906-6.594-3.688-7.5c0,0,1.156,0.469,1.875,0.469C361.312,137.25,354.25,123.531,354.25,122.25z"/>
	<path fill="#2D411C" d="M430.403,68.051c0,0,8.729,13.891,17.727,22.845c0,0-1.584,0.366-4.291-0.804c0,0,4.181,6.988,8.651,9.675
		l3.564,34.842l-9.771,5.466c0,0-9.455,7.38-13.907,7.544c0,0,7.574-6.08,7.443-7.204c0,0-6.921,7.245-17.218,6.546
		c0,0,4.794-7.01,4.625-7.741c0,0-5.404,3.815-8.534,4.154c0,0,8.831-10.637,8.268-14.741c0,0-4.654,4.284-7.766,5.259
		c0,0,8.738-8.819,9.965-12.952c0,0-4.58,5.165-8.741,3.817c0,0,8.849-15.003,9.288-19.21c0,0-2.838,4.376-5.835,5.839
		c0,0,6.536-7.798,5.131-8.884c0,0-3.447,2.85-6.164,3.862c0,0,5.392-11.639,4.764-13.803c0,0-1.826,2.09-3.381,2.578
		C424.222,95.14,431.438,78.076,430.403,68.051z"/>
	<path fill="#2D411C" d="M467,65.875c0,0-6.875,19.75-12.875,28.625c0,0,3.5-0.375,4.375-1.75c0,0-2.25,8.125-6.25,10.5
		l3.805,16.466l29.445-1.279c0,0-7.5-9.312-8.375-12.438c0,0,5.125,5.25,8.375,4.625c0,0-7.25-3.25-8.625-8.125c0,0,3.75,3,8,2.25
		c0,0-7.875-8.875-9.125-13.375c0,0,3.25,2,5.125,1.875C480.875,93.25,471.5,82.25,467,65.875z"/>
	<path fill="#365024" d="M447.812,86.125c0,0-4,15.25-10.625,22.5c0,0,2.562-0.312,3.438-1.125c0,0-3.75,7.625-7,10.562
		c0,0,4.312-0.25,6.625-1.938c0,0-2.312,3.938-3.188,4.438c0,0,1.438,0,3.062-1.438l-1.25,1.438l-0.625,3.312l24.25-1.375
		c0,0-7-10.5-7.375-14.062c0,0,1.938,0.812,2.938,1.125C458.062,109.562,447.875,88.188,447.812,86.125z"/>
	<g>
		<polygon fill="#7E7247" points="423.501,121.5 542.168,115 542.168,109.5 553.501,109.5 549.668,180.833 541.834,176.833 
			542.168,119 426.834,125.166 		"/>
		<path fill="#5C522E" d="M426.837,125.166l115.333-6.333v58.5c0,0-11.001-5.166-18.334-5.5c0,0-17.167-4.166-21.5-5.5
			c0,0,7.667-5.5-19.333-11.5c0,0-30.667-8.499-48.167-8.166c0,0-4.834-3-6.5-8.667l-4.666-11.667v-1.333L426.837,125.166z"/>
		<polygon fill="#4D452A" points="496.836,121.833 504.67,121.833 504.003,167.499 498.17,167.499 		"/>
		<polygon fill="#4D452A" points="473.503,122.999 479.503,122.999 478.67,154.666 473.503,153.832 		"/>
		<polygon fill="#4D452A" points="448.836,124.166 452.836,124.166 453.503,151.666 449.503,151.666 		"/>
		<rect x="430.836" y="124.999" fill="#4D452A" width="3.667" height="24.833"/>
		<polygon fill="#645A35" points="504.504,121.332 510.504,121.332 510.504,171.498 503.338,169.666 		"/>
		<polygon fill="#645A35" points="484.004,122.332 490.338,122.332 490.338,160.498 484.004,158.843 		"/>
		<polygon fill="#645A35" points="453.003,124.165 458.337,124.165 458.337,151.332 453.003,150.165 		"/>
		<rect x="439.67" y="124.665" fill="#645A35" width="4.5" height="22.667"/>
	</g>
	<g>
		<polygon fill="#6D6441" points="121.125,125.625 130.875,125.625 130.875,191.75 124,196.25 		"/>
		<polygon fill="#7E7247" points="130.5,130.5 220.25,132.625 220.25,135.875 130.5,134.75 		"/>
		<rect x="220.25" y="129.625" fill="#6D6441" width="2.625" height="31.125"/>
		<path fill="#5C522E" d="M130.75,134.753l89.5,1.122v24.875c0,0-37.875,4.015-52.25,17.57L130.75,192V134.753z"/>
		<polygon fill="#4D452A" points="161,135.375 167.25,135.375 166.375,178.32 161.625,180 		"/>
		<polygon fill="#4D452A" points="180.25,135.5 184.875,135.5 184.25,169 180.25,170.375 		"/>
		<polygon fill="#4D452A" points="199.75,135.625 202.5,135.625 202.5,163.375 199,163.375 		"/>
		<rect x="212" y="136.25" fill="#4D452A" width="2.875" height="25.5"/>
		<polygon fill="#645A35" points="138,135.125 143.5,135.125 144.5,186.25 137.375,189.125 		"/>
		<polygon fill="#645A35" points="156.125,135.625 161,135.625 161.75,180.25 156.125,182.625 		"/>
		<polygon fill="#645A35" points="172.5,135.625 176.5,135.625 176.5,175.625 171.125,176.75 		"/>
		<rect x="184.75" y="135.625" fill="#645A35" width="4" height="36.25"/>
		<polygon fill="#645A35" points="195.75,135.625 199.625,135.625 198.625,167.875 195.75,168.5 		"/>
		<polygon fill="#645A35" points="214.625,136.375 217.5,136.375 218.125,162 214.625,162 		"/>
		<polygon fill="#645A35" points="205.875,135.625 209.375,135.625 209.375,162 205.875,163.125 		"/>
	</g>
	<path fill="#76A140" d="M167,177.375c0,0-40.625,13.75-42.625,18.125c0,0-6.375,6.25,4.5,12.125c0,0,24.125,13.625,60.375,19.375
		c0,0,81.083,16.666,107.75,17.333c0,0,88.666,9.999,153.333-6.001c0,0,68.666-13.999,108.333-38.666
		c0,0,18.001-8.667-20.666-24.334c0,0-31.168-8.665-35.668-8.998c0,0,9.834-5.334-23.833-12.834c0,0-31.665-8-45.665-6.666
		l-55.333,6.832c0,0-25.667,5.334-36.167,6.668c0,0,1.291-1.146,2.291-3.021c0,0-2.812,2.25-4.125,2.75c0,0-0.438-0.438-0.625-3.438
		c0,0-1.062,1.438-0.875,3.938c0,0-18.25,2.312-34.625,2.562c0,0-29.875,1.625-39.5-0.375c0,0-19.875-1.5-26.375-2
		c0,0-27.5-1-40.25,2.75C197.25,163.5,179.5,168,167,177.375z"/>
	<path fill="#436730" d="M412.625,80.875c0,0-5.375,15.5-12.125,26.25c0,0,1.625,0,4-1.75c0,0-2.5,7.75-6.25,11.375l4.375,34.75
		l10.75,3.125c0,0,10.875,5.061,15.25,4.218c0,0-8.75-4.218-8.875-5.343c0,0,8.375,5.5,18.25,2.5c0,0-6.25-5.75-6.25-6.5
		c0,0,6.125,2.5,9.25,2.125c0,0-11-8.375-11.375-12.5c0,0,5.5,3.125,8.75,3.375c0,0-10.5-6.625-12.625-10.375
		c0,0,5.625,4,9.375,1.75c0,0-12-12.625-13.375-16.625c0,0,3.75,3.625,7,4.375c0,0-8.125-6.125-7-7.5c0,0,4,2,6.875,2.375
		c0,0-7.875-10.125-7.75-12.375c0,0,2.25,1.625,3.875,1.75C424.75,105.875,413.875,90.875,412.625,80.875z"/>
	<path fill="#4E7A38" d="M394.75,99.5c0,0-1.875,11-10.5,20.125c0,0,2.625-0.125,4.125-1.125c0,0-4.375,7.25-7,9.375
		c0,0,2.25,1.125,6.125-1.5c0,0-3.375,4.5-6.125,6.25c0,0,3.25-0.75,5.75-3.125c0,0-7.5,10.625-11.25,13.125c0,0,3.625,2.25,8-1.25
		c0,0-7.75,8-11,8.375c0,0,2,1.375,8.25-2.875c0,0-4.875,7.5-9.375,10.5c0,0,4.125-0.375,6.875-1.5c0,0-2.375,3.5-5.375,5.125
		c0,0,9,2.186,15.125-2.157c0,0-3.75,4.032-7,4.407c0,0,7.75-0.064,14.75-4.407c0,0,4.625,3.157,8.625,3.532
		c0,0-2.5-1.939-2.875-3.532c0,0,2.25,2.782,12.875,1.657c0,0-4.375-4.5-5.5-6.25c0,0,4,1,7.25,0.5c0,0-9-8.375-10-12.5
		c0,0,3.125,1.25,5.375,0.625c0,0-6.25-7.5-6.25-9.375c0,0,3.5,1.5,4.125,1.625c0,0-5.125-4.25-6-5.625c0,0,3,1.25,3.875,1.25
		c0,0-6.25-8.75-6.375-11.125c0,0,2.125,1.125,3.125,1.25C404.375,120.875,395,102,394.75,99.5z"/>
	<path fill="#D1D1C1" d="M297.5,167h10.833c0,0,5.333,2,0,3l-10.833,0.5C297.5,170.5,295,168.5,297.5,167z"/>
	<path fill="#D1D1C1" d="M303.167,172c0,0,8.667-1.333,12.5-1.333c0,0,8.167,3.333,2.667,3.5c0,0-13.5,1.667-15.167,1.167
		C303.167,175.334,298.833,174.333,303.167,172z"/>
	<path fill="#D1D1C1" d="M318.333,176.334l0.833-0.906c0,0,12.333-1.261,17.833,0.906c0,0,2.167,1.999-5.833,2.999
		c0,0-11.499,3.906-19.167,0c0,0-3.833-1.499,3.333-2.333L318.333,176.334z"/>
	<path fill="#D1D1C1" d="M329.167,184.333c0,0,12-7.86,21.5-6.013c0,0,9.332,2.013,1.666,5.013c0,0-7.333,3.333-22.166,3.5
		C330.167,186.833,323.874,187.198,329.167,184.333z"/>
	<polygon fill="#707569" points="231.167,111.832 253.167,104.499 257.167,128.499 226.5,134.999 	"/>
	<polygon fill="#707569" points="322,102.331 321,127.331 350.333,129.165 341.833,105.831 	"/>
	<polygon fill="#707569" points="327.166,92.498 283,64.831 246,97.831 244.5,95.331 282.833,60.331 328.666,90.331 	"/>
	<path fill="#E9E2C5" d="M251.5,92.998l31.5-28l39.833,25l-3,72.503c0,0-21.083,1.666-30.917,1.166c0,0-23.75,0.167-27.083-1.083
		L251.5,92.998z"/>
	<polygon fill="#838A7C" points="269.751,83.919 300.585,83.503 300.168,105.419 272.168,106.336 	"/>
	<polygon fill="#C2C4BF" points="272.168,85.669 298.585,85.169 298.585,104.503 274.085,105.086 	"/>
	<polygon fill="#4D4E4E" points="274.001,87.753 284.251,87.753 285.085,103.669 275.751,103.669 	"/>
	<polygon fill="#4D4E4E" points="287.085,87.503 297.085,87.503 296.751,103.169 287.668,103.169 	"/>
	<polygon fill="#CDCCA4" points="271.085,106.503 301.668,105.586 301.668,108.419 271.585,108.919 	"/>
	<polygon fill="#C2C4BF" points="271.083,126.25 305.75,125.583 305.75,158.333 273.667,158.843 	"/>
	<polygon fill="#4D4E4E" points="273.5,128.583 287.083,128.083 287.75,155.833 276,156.333 	"/>
	<polygon fill="#4D4E4E" points="288.667,128.167 302.917,128.167 303.417,155.666 289.417,156 	"/>
	<path fill="#BFBE9A" d="M271.584,158.843l37.25-0.677v2.168h1.583V163c0,0-31.5,1.25-40.25,0v-1.834l1.5-0.305L271.584,158.843z"/>
	<polygon fill="#DFD6B7" points="321.289,127.349 350.333,129.165 345.5,163.556 319.834,162.502 	"/>
	<polygon fill="#DFD6B7" points="256.602,127.349 226.5,134.999 233.833,160.834 261.835,162.585 	"/>
	<path fill="#67933E" d="M173.334,189.5c0,0,0.5-3.249,4.5-5.416C177.834,184.084,179.001,184,173.334,189.5z"/>
	<path fill="#67933E" d="M174.834,189.5c0,0,1.916-2,3.833-2C178.667,187.5,176.751,189.166,174.834,189.5z"/>
	<path fill="#67933E" d="M172.084,186.792c0,0,0.583,0.791,0.583,2.708C172.667,189.5,171.917,188,172.084,186.792z"/>
	<path fill="#67933E" d="M134.834,199.585c0,0,0.25-3,2.083-4.417C136.917,195.168,136.584,198.252,134.834,199.585z"/>
	<path fill="#67933E" d="M136.584,199.585c0,0,1.333-1.583,3-1.25C139.584,198.335,137.584,199.585,136.584,199.585z"/>
	<path fill="#67933E" d="M133.417,198.937c0,0-0.75-0.001-0.667-1.885C132.75,197.052,133.667,197.872,133.417,198.937z"/>
	<path fill="#67933E" d="M207.625,176.75c0,0,1.25-3.75,5.812-3.917C213.438,172.833,208.917,176.5,207.625,176.75z"/>
	<path fill="#67933E" d="M205.875,176.75c0,0,1.125-1.917-1.542-3.917C204.333,172.833,204.583,175.667,205.875,176.75z"/>
	<path fill="#67933E" d="M209.375,177.5c0,0,2.5-2,4.062-1.667C213.438,175.833,211.917,177.332,209.375,177.5z"/>
	<path fill="#67933E" d="M260,174.791c0,0-1-5.957,0-7.791C260,167,260.833,171.75,260,174.791z"/>
	<path fill="#67933E" d="M260.708,174.791c0,0,0.583-3.166,3.167-3.707C263.875,171.084,262.167,173.666,260.708,174.791z"/>
	<path fill="#67933E" d="M259.25,174.459c0,0-0.208-1.501-1.833-2.043C257.417,172.416,258.423,174.438,259.25,174.459z"/>
	<path fill="#67933E" d="M227.125,205.125c0,0,1.25-5.75,4.375-6.75C231.5,198.375,230.125,201.875,227.125,205.125z"/>
	<path fill="#67933E" d="M225.625,205.125c0,0-0.938-2.5-0.312-4C225.312,201.125,226.062,203.125,225.625,205.125z"/>
	<path fill="#67933E" d="M228.375,205.125c0,0,0.938-2,4.062-1.688C232.438,203.438,230.188,205,228.375,205.125z"/>
	<path fill="#67933E" d="M264,206.75c0,0,0.812-3.438,4.5-3.938C268.5,202.812,265.312,204.812,264,206.75z"/>
	<path fill="#67933E" d="M264.625,207.125c0,0,1.5-1.125,2.812-0.375C267.438,206.75,265.75,207.062,264.625,207.125z"/>
	<path fill="#67933E" d="M262.562,206.75c0,0,1.062-1.5,0-3.062C262.562,203.688,262.938,206.5,262.562,206.75z"/>
	<path fill="#67933E" d="M289.833,189.417c0,0-0.083-4.583,5.417-4C295.25,185.417,291.167,185.5,289.833,189.417z"/>
	<path fill="#67933E" d="M290.667,189.417c0,0,2.167-1.583,3.833-1.5C294.5,187.917,292,189.334,290.667,189.417z"/>
	<path fill="#67933E" d="M288.417,189.667c0,0-1.5-0.667-1.25-3.75C287.167,185.917,288.75,188.084,288.417,189.667z"/>
	<path fill="#67933E" d="M350.333,166.751c0,0,0.25-3.25,3.333-4.25C353.666,162.501,350.75,165.168,350.333,166.751z"/>
	<path fill="#67933E" d="M351.082,166.751c0,0,1.501-1.167,2.584-1.167C353.666,165.584,352.165,167.168,351.082,166.751z"/>
	<path fill="#67933E" d="M349.082,166.751c0,0-1.084-0.833-0.75-2.583C348.332,164.168,349.415,165.334,349.082,166.751z"/>
	<path fill="#67933E" d="M376.25,176.084c0,0,1.917-4.416,3.167-5.166C379.417,170.918,377.5,175.584,376.25,176.084z"/>
	<path fill="#67933E" d="M377.834,176.084c0,0,0.916-0.793,2.416-1.021C380.25,175.062,379.418,176.084,377.834,176.084z"/>
	<path fill="#67933E" d="M374.75,176.084c0,0-0.834-1.084,0-3C374.75,173.084,375.166,175.25,374.75,176.084z"/>
	<path fill="#67933E" d="M421.249,172.584c0,0,1.083-5.084,3.833-6.25C425.082,166.334,423.332,170.25,421.249,172.584z"/>
	<path fill="#67933E" d="M422.249,172.584c0,0,2-2.25,4-2C426.249,170.584,423.249,172.584,422.249,172.584z"/>
	<path fill="#67933E" d="M419.625,172.584c0,0-0.043-2.166-1.876-3.666C417.749,168.918,418.168,171.667,419.625,172.584z"/>
	<path fill="#67933E" d="M470.498,176.334c0,0,2.082-5.289,5.416-5.77C475.914,170.564,471.582,175.834,470.498,176.334z"/>
	<path fill="#67933E" d="M472.164,176.834c0,0,1.678-1.832,4.339-1.666C476.503,175.168,473.83,176.918,472.164,176.834z"/>
	<path fill="#67933E" d="M469.081,176.334c0,0,0.416-1.77-1.667-2.885C467.414,173.449,467.914,175.834,469.081,176.334z"/>
	<path fill="#67933E" d="M526.663,189.252c0,0-0.251-5.5,1.166-6.417C527.829,182.835,527.913,189.169,526.663,189.252z"/>
	<path fill="#67933E" d="M525.829,189.252c0,0-0.416-2.251-2.666-3.209C523.163,186.043,524.995,189.252,525.829,189.252z"/>
	<path fill="#67933E" d="M528.579,189.252c0,0,2.5-3.668,3.25-3.209C531.829,186.043,530.495,189.252,528.579,189.252z"/>
	<path fill="#67933E" d="M421.249,207.5c0,0,2.499-7.396,5-10.448C426.249,197.052,423.998,207.25,421.249,207.5z"/>
	<path fill="#67933E" d="M416.5,207.5c0,0-2-9.146,0-10.448C416.5,197.052,417.5,203.5,416.5,207.5z"/>
	<path fill="#67933E" d="M426.249,207.5c0,0,0.423-3,4.587-3C430.836,204.5,429.748,208.582,426.249,207.5z"/>
	<path fill="#67933E" d="M314,231.5c0,0,5.168-10.75,8.834-10.75C322.834,220.75,318.5,231,314,231.5z"/>
	<path fill="#67933E" d="M310.976,231.5c0,0,3.524-5.75-1.976-7.5C309,224,309.452,229.75,310.976,231.5z"/>
	<path fill="#67933E" d="M319.834,231.5c0,0,4.011-3.5,7.213-3.75C327.048,227.75,323.588,232.372,319.834,231.5z"/>
	<path fill="#67933E" d="M387.25,237.25c0,0,3-11.25,11-13.25C398.25,224,389.75,237,387.25,237.25z"/>
	<path fill="#67933E" d="M383.75,237.25c0,0-2.5-6-1-11.125C382.75,226.125,386.5,233,383.75,237.25z"/>
	<path fill="#67933E" d="M392.75,237.25c0,0,1-7,4.25-6.625C397,230.625,396,234.5,392.75,237.25z"/>
	<path fill="#67933E" d="M480.75,216c0,0,0.758-13.75,3.254-16C484.004,200,482,215,480.75,216z"/>
	<path fill="#67933E" d="M477.834,216.334c0,0-2.584-2.917-0.917-6.917C476.917,209.417,477.834,215.251,477.834,216.334z"/>
	<path fill="#67933E" d="M482.92,216c0,0,1.247-4.749,3.747-5.416C486.667,210.584,485.006,214.833,482.92,216z"/>
	<path fill="#67933E" d="M341.202,200.834c0,0,0.799-6.5,4.132-8.5C345.334,192.334,341.57,199.5,341.202,200.834z"/>
	<path fill="#67933E" d="M342.685,201.062c0,0,1.253-3.5,4.19-3.75C346.875,197.312,343.557,200.438,342.685,201.062z"/>
	<path fill="#67933E" d="M339.625,200.834c0,0-1.75-1.709-1.438-4.834C338.188,196,340.062,199.793,339.625,200.834z"/>
</g>
</svg>
