<?xml version="1.0" encoding="utf-8"?>
<!-- Generator: Adobe Illustrator 16.0.0, SVG Export Plug-In . SVG Version: 6.00 Build 0)  -->
<!DOCTYPE svg PUBLIC "-//W3C//DTD SVG 1.1//EN" "http://www.w3.org/Graphics/SVG/1.1/DTD/svg11.dtd">
<svg version="1.1" id="Layer_1" xmlns="http://www.w3.org/2000/svg" xmlns:xlink="http://www.w3.org/1999/xlink" x="0px" y="0px"
	 width="684px" height="296.64px" viewBox="0 0 684 296.64" enable-background="new 0 0 684 296.64" xml:space="preserve">
<rect x="-242" y="-196" fill="#B6C2B4" width="1060" height="661"/>
<g>
	<g>
		<g>
			<polygon fill="#855A3A" points="591,253.452 585.667,253.452 585.667,171.775 594,169.103 			"/>
			<polygon fill="#5F412A" points="566,245.311 560.667,245.311 560.667,163.634 569,160.961 			"/>
			<polygon fill="#5F412A" points="511,245.311 505.667,245.311 505.667,163.634 514,160.961 			"/>
			<polygon fill="#855A3A" points="530.666,258.5 525.333,258.5 525.333,176.823 533.666,174.149 			"/>
			<path fill="#5F412A" d="M602,154.364c0,19.785-23.841,28.579-53.25,28.579s-53.25-6.596-53.25-28.579
				c0-16.862,23.841-21.087,53.25-21.087S602,130.454,602,154.364z"/>
			<ellipse fill="#A87552" cx="548.75" cy="148.991" rx="53.25" ry="25.158"/>
		</g>
		<path fill="#CDCCCC" d="M560.765,153.77h-26.853c0,0-10.689-10.954-5.475-39.228c0,0,2.346-6.877,8.604-9.934
			c0,0,3.91-4.584,4.171-11.462c0,0,11.992-5.095,15.902,0c0,0,2.868,9.169,4.954,9.934c0,0,11.21,8.151,9.385,17.83
			C571.453,120.91,575.104,140.014,560.765,153.77z"/>
		<path fill="#B3B3B3" d="M544.601,153.77c0,0,10.949-8.915,11.211-22.161c0,0,1.563-12.736-3.39-23.434
			c0,0-3.155-11.208-2.1-14.773h7.053c0,0,1.694,8.214,9.646,14.009c0,0,4.432,4.076,4.953,9.934c0,0,0.988,13.054-0.782,18.594
			c0,0-2.085,10.699-10.428,17.831H544.601z"/>
		<linearGradient id="SVGID_1_" gradientUnits="userSpaceOnUse" x1="549.75" y1="85.728" x2="549.75" y2="100.8796">
			<stop  offset="0" style="stop-color:#FFF33B"/>
			<stop  offset="0.2118" style="stop-color:#FFE029;stop-opacity:0.8094"/>
			<stop  offset="0.4638" style="stop-color:#FFD218;stop-opacity:0.5826"/>
			<stop  offset="0.7234" style="stop-color:#FEC90F;stop-opacity:0.3489"/>
			<stop  offset="1" style="stop-color:#FDC70C;stop-opacity:0.1"/>
		</linearGradient>
		<path fill="url(#SVGID_1_)" d="M515,87.395l-5.334,11.034c0,0,48.5,9.771,80.167,0l-4.193-11.034H515z"/>
		<path fill="#F9EF6B" d="M509.666,85.568c0,0,43.604,17.384,80.167,0c0,0-17.353-33.241-17.964-50.053c0,0-21.729-8.788-39.717,0
			C532.152,35.516,529.023,65.7,509.666,85.568z"/>
	</g>
	<path fill="#FFCD33" d="M522.962,81.747c0,0,13.883-19.582,14.079-38.112C537.041,43.635,523.744,69.043,522.962,81.747z"/>
	<path fill="#FFCD33" d="M533.521,85.854c0,0,12.221-25.122,9.679-41.551C543.199,44.304,532.837,78.117,533.521,85.854z"/>
	<path fill="#FFCD33" d="M547.893,45.927c0,0-2.151,21.588,0,28.751C547.893,74.679,551.217,54.906,547.893,45.927z"/>
	<path fill="#FFCD33" d="M553.27,44.972c0,0,7.43,5.158,6.452,32.859C559.722,77.831,553.367,60.733,553.27,44.972z"/>
	<path fill="#FFCD33" d="M562.948,42.488c0,0-2.347,20.632,11.146,35.82C574.094,78.309,573.018,56.53,562.948,42.488z"/>
</g>
<g id="sobha">
	<path fill="#4B78BA" d="M58,65.333l35.667-15.667c0,0-5.333,55.667,11.667,102.333c0,0,38.667-31,97.667-22.667
		c0,0-18,51-17.667,56.333c0,0-5,41.334,17.667,87.667l-141-13c0,0-29.666-41.334,16.667-86.667
		C78.667,173.667,52.333,125.334,58,65.333z"/>
	<path fill="#3C639D" d="M246.318,59.771c0,0,80.432-13.771,139.182,6.229c0,0,10.5,39.5-9.5,61c0,0-19,17.75-39.5,17.5l-70-1.75
		C266.5,142.75,248.386,95.041,246.318,59.771z"/>
	<path fill="#4B78BA" d="M402.309,135.461c0,0,73.191-41.961,114.441-22.711l-24.5,145.75c0,0-43.75-5.25-51.75-7.75
		L402.309,135.461z"/>
	<path fill="#3C639D" d="M516.75,112.75l35,13.5c0,0,8.75,64.25-13,132.25h-46.5L516.75,112.75z"/>
	<path fill="#325281" d="M244,59h1.75c0,0,29.25,38.25,26,81.5c0,0,61-0.25,69.5-1.75c0,0,54.25-3,44.25-72.75l9,1.5
		c0,0,3.25,0.25,4.75,4.5c0,0,14.25,35.75,7,62.25l0.75,15.5c0,0-40.25,1.25-48,3.75c0,0-17,1.75-31.25-0.5
		c0,0-61.5-3.244-78.5,7.128l1-15.378l-17.5-6c0,0,1.653-67.754,10.577-80.002"/>
	<path fill="#3C639D" d="M93.667,49.667c0,0,84.583-15.417,150.333,9.333c0,0-1.5,15.75,1.75,19.75c0,0,12.75,41.5-13,60l17.5,6
		l-7,119.25L199,273.334c0,0-54.874-74.32-1.812-144.702L102.75,154.75C102.75,154.75,81.584,170.333,93.667,49.667z"/>
	<path fill="#325281" d="M247.314,177.725c0,0,248.686-5.475,253.436-4.725c0,0,6.25,29-30.5,78.75H243.969L247.314,177.725z"/>
	<path fill="#3C639D" d="M247.242,178.955l253.91-3.205c0,0-0.902-13.75-11.152-18.5c0,0-19.25-12.25-83-7.5
		c0,0-44.521,1.363-49.761,3.807c0,0-16.825,0.803-25.407-1.002c0,0-60.832-5.049-83.582,6.573L247.242,178.955z"/>
</g>
</svg>
