<?xml version="1.0" encoding="utf-8"?>
<!-- Generator: Adobe Illustrator 16.0.0, SVG Export Plug-In . SVG Version: 6.00 Build 0)  -->
<!DOCTYPE svg PUBLIC "-//W3C//DTD SVG 1.1//EN" "http://www.w3.org/Graphics/SVG/1.1/DTD/svg11.dtd">
<svg version="1.1" id="Layer_1" xmlns="http://www.w3.org/2000/svg" xmlns:xlink="http://www.w3.org/1999/xlink" x="0px" y="0px"
	 width="684px" height="296.641px" viewBox="0 0 684 296.641" enable-background="new 0 0 684 296.641" xml:space="preserve">
<rect x="-53.667" y="-79.846" fill="#8FB04A" enable-background="new    " width="864" height="489.333"/>
<g>
	<g id="table">
		<polygon fill="#B5A4B4" points="498.545,142.652 553.879,140.749 561.966,151.214 505.205,151.214 		"/>
		<polygon fill="#7F687B" points="505.205,151.214 505.205,227.952 497.118,220.342 498.545,142.652 		"/>
		<polygon fill="#91778E" points="505.205,151.214 561.966,151.214 561.966,227.476 505.205,227.952 		"/>
		<polygon fill="#5B4B5A" points="505.205,171.349 524.865,171.349 524.865,173.886 541.829,173.886 541.829,170.239 
			561.966,170.239 561.966,168.337 505.205,169.923 		"/>
		<polygon fill="#5B4B5A" points="505.205,193.547 561.966,193.547 561.966,195.291 543.099,195.291 542.939,199.413 
			525.341,199.413 525.023,194.973 505.205,195.449 		"/>
		<polygon fill="#5B4B5A" points="505.205,227.952 561.966,227.476 561.966,228.427 505.205,229.062 498.924,222.042 		"/>
		<ellipse fill="#CDCCCC" cx="533.981" cy="156.129" rx="1.506" ry="1.744"/>
	</g>
	<g id="plate">
		<polygon fill="#4B4A4B" points="500.484,135.358 545.724,135.358 560.404,137.44 500.817,140.46 		"/>
		<polyline fill="#676767" points="511.364,140.46 559.728,140.46 558.27,148.842 511.156,148.842 		"/>
		<polygon fill="#CDCCCC" points="500.692,138.377 500.484,135.358 511.417,137.753 511.364,140.46 		"/>
		<polygon fill="#989898" points="511.364,140.46 511.417,137.753 560.404,137.44 559.728,140.46 		"/>
		<polygon fill="#989898" points="500.692,138.377 501.058,144.468 511.156,148.842 511.364,140.46 		"/>
		<g>
			<polygon fill="#DCDDDD" points="517.925,113.389 523.078,113.389 523.078,118.751 527.034,123.489 527.034,137.648 
				513.968,137.648 513.968,122.603 518.028,118.855 			"/>
			<rect x="518.34" y="124.634" fill="#794F4F" width="8.694" height="13.015"/>
		</g>
		<g>
			<polygon fill="#DCDDDD" points="534.114,113.389 539.269,113.389 539.269,118.751 543.225,123.489 543.225,137.648 
				530.158,137.648 530.158,122.603 534.219,118.855 			"/>
			<rect x="534.531" y="124.634" fill="#79734F" width="8.693" height="13.015"/>
		</g>
	</g>
	<g id="bedset">
		<g id="bench2">
			<polygon fill="#92A9A1" points="181.742,151.183 471.686,151.183 467.013,238.732 456.93,238.732 457.422,228.158 192.07,227.91 
				192.316,238.732 185.923,238.732 			"/>
			<g>
				<path fill="#597168" d="M462.586,172.676c0,5.244-4.191,9.494-9.36,9.494H204.382c-5.17,0-9.361-4.25-9.361-9.494v-2.9
					c0-5.242,4.191-9.492,9.361-9.492h248.843c5.17,0,9.36,4.25,9.36,9.492V172.676z"/>
				<path fill="#92A9A1" d="M456.192,172.578c0,4.889-4.007,8.854-8.948,8.854H209.379c-4.941,0-8.948-3.965-8.948-8.854v-2.705
					c0-4.889,4.006-8.854,8.948-8.854h237.865c4.941,0,8.948,3.965,8.948,8.854V172.578z"/>
			</g>
			<g>
				<path fill="#597168" d="M463.324,203.416c0,5.244-4.191,9.494-9.362,9.494H205.12c-5.169,0-9.361-4.25-9.361-9.494v-2.9
					c0-5.242,4.19-9.492,9.361-9.492h248.842c5.171,0,9.362,4.25,9.362,9.492V203.416z"/>
				<path fill="#92A9A1" d="M456.929,203.318c0,4.891-4.006,8.854-8.948,8.854H210.116c-4.941,0-8.948-3.963-8.948-8.854v-2.705
					c0-4.889,4.006-8.854,8.948-8.854H447.98c4.942,0,8.948,3.965,8.948,8.854V203.318z"/>
			</g>
			<polygon fill="#597168" points="192.316,238.732 198.034,235.842 198.034,227.916 192.07,227.91 			"/>
			<polygon fill="#597168" points="452.564,236.211 456.929,238.732 457.422,228.158 452.564,228.158 			"/>
			<polygon fill="#7A9189" points="198.034,235.842 198.034,227.916 452.564,228.158 452.564,236.211 			"/>
		</g>
		<g id="bench">
			<rect x="161.084" y="142.575" fill="#7B6856" width="338.637" height="9.346"/>
			<polygon fill="#9C836B" points="161.084,142.575 168.216,136.427 491.359,134.706 499.721,142.575 			"/>
		</g>
		<g id="bed">
			<polygon fill="#E9E5E4" points="181.004,115.77 479.309,115.77 491.359,119.704 162.805,119.704 			"/>
			<path fill="#E0DCDC" d="M162.805,119.704c0,0-2.828,15.862,2.315,19.392c0,0-3.298,0.036,10.719,0.282l315.52-1.23
				c0,0,6.395-5.164,0-18.444L162.805,119.704L162.805,119.704z"/>
			<path fill="#C6BBBB" d="M162.185,124.869c0,0,23.997,13.451,140.947,12.793c0.326-0.001,0.654-0.004,0.982-0.005
				c117.798-0.738,58.038,0.029,58.038,0.029s114.979-0.275,131.209-12.817c0,0,1.349,4.672,0.565,8.959
				c0,0-1.065,4.105-2.417,4.321l-325.111,1.485C166.397,139.634,160.823,139.01,162.185,124.869z"/>
		</g>
	</g>
	<g id="weighter">
		<rect x="68.087" y="218.84" fill="#C7D5D0" width="51.874" height="15.21"/>
		<polygon fill="#DEEAEF" points="119.961,218.84 148.804,214.104 149.342,227.342 119.961,234.05 		"/>
		<polygon fill="#DEEAEF" points="148.804,214.104 144.176,214.104 119.961,218.84 		"/>
		<polygon fill="#3C3B3B" points="71.531,214.104 71.531,218.84 121.37,218.564 144.176,214.104 144.176,209.907 148.804,208.078 
			148.804,202.265 120.607,209.046 120.554,214.104 		"/>
		<polyline fill="#2A2424" points="68.087,214.104 120.554,214.104 120.607,209.046 68.087,209.046 68.087,213.889 		"/>
		<polygon fill="#746E6E" points="68.087,209.046 89.666,202.265 149.073,202.265 120.607,209.046 		"/>
		<polygon fill="#C7D5D0" points="111.352,202.265 116.087,89.478 95.639,82.159 95.639,77.639 117.989,77.639 120.607,77.639 
			151.387,77.639 151.387,83.451 124.481,90.123 128.141,202.265 		"/>
		<polygon fill="#DEEAEF" points="128.141,202.265 133.306,202.265 128.84,89.043 124.481,90.123 		"/>
		<polygon fill="#DEEAEF" points="151.387,77.639 154.615,77.639 154.615,82.805 151.387,83.451 		"/>
		
			<rect x="97.074" y="65.729" fill="none" stroke="#A0704F" stroke-width="3" stroke-miterlimit="10" width="55.927" height="8.036"/>
		<rect x="102.24" y="62.716" fill="#1F1F1F" width="3.157" height="5.74"/>
		<rect x="112.823" y="69.532" fill="#1F1F1F" width="6.924" height="2.942"/>
		<rect x="112.823" y="75.056" fill="#1F1F1F" width="5.166" height="1.435"/>
		<rect x="117.989" y="75.056" fill="#676767" width="2.619" height="2.583"/>
		<rect x="154.257" y="68.707" fill="#AD7C66" width="1.614" height="3.444"/>
	</g>
	<g id="chair">
		<path fill="#56524F" d="M161.279,252.276h38.172C199.452,252.276,178.656,247.35,161.279,252.276z"/>
		<path fill="#989898" d="M199.452,254.394h3.558v12.778c0,0-1.727,2.872-3.558,0V254.394L199.452,254.394z"/>
		<path fill="#CDCCCC" d="M158.406,256.654v-2.6c0,0,1.43-1.237,2.583-1.683c0.099-0.038,0.197-0.071,0.291-0.096
			c1.187-0.319,38.172,0,38.172,0s2.532,0.132,3.558,2.118h-41.73l-2.052,1.576c0,0,5.952,2.735,19.771,2.94v1.643
			C178.998,260.553,162.168,260.759,158.406,256.654z"/>
		<path fill="#CDCCCC" d="M203.009,256.808v-1.489c0,0-1.271,3.251-19.49,3.7v1.535C183.52,260.554,200.547,260.502,203.009,256.808
			z"/>
		<path fill="#989898" d="M175.372,212.53v41.307l3.625,1.907v18.249c0,0,2.121,3.778,4.857,0l-0.411-18.336l3.147-1.75V212.53
			H175.372z"/>
		<polygon fill="#56524F" points="175.303,212.939 186.591,212.939 186.591,223.253 175.372,218.096 		"/>
		<path fill="#232222" d="M150.061,193.306c0,0-1.437,7.32,0.202,10.946c0,0,0.413,3.403,6.638,6.43c0,0,30.1,8.347,53.496-1.642
			c0,0,4.789-1.321,3.284-15.443L150.061,193.306z"/>
		<ellipse fill="#676767" cx="181.871" cy="193.306" rx="31.811" ry="8.757"/>
		<path fill="#989898" d="M158.406,256.654v10.004c0,0,2.429,2.977,4.481,0v-11.339l14.986-0.167l-1.441-0.758h-15.153l-2.052,1.576
			L158.406,256.654z"/>
		<path fill="#583736" d="M158.406,266.658v3.85c0,0,2.172,2.77,4.533,0l-0.051-3.85H158.406z"/>
		<path fill="#583736" d="M179.075,274.118v4.136c0,0,2.283,2.977,4.746,0l0.034-4.261L179.075,274.118z"/>
		<path fill="#583736" d="M199.452,267.173v3.335c0,0,1.745,1.778,3.558,0v-3.335H199.452z"/>
	</g>
	<g id="man">
		<polygon fill="#E2E2E2" points="491.844,21.44 559.206,21.44 554.792,106.623 494.299,106.623 		"/>
		<polygon fill="#CBB7A9" points="498.058,26.182 553.484,26.182 549.396,102.044 500.021,102.044 		"/>
		<path fill="#FDCC99" d="M512.119,101.935c0,0-6.759-39.458,11.771-38.258c0,0,1.526,0-0.98-2.834c0,0-0.653-2.833-0.436-4.033
			h0.762l-0.107-3.379h-1.526l-0.545-1.198l-4.359-2.616l5.122-5.232c0,0,1.526-0.545-0.653-2.616h-0.763l-0.218-1.744
			c0,0,8.937-0.981,12.207,1.308v4.905l3.161,0.437c0,0,5.887,1.743,3.161,7.412l-3.706,1.307c0,0-1.309,7.304-0.981,8.394
			c0,0,9.728-0.653,10.3,7.521c0,0,0.98,7.358,0.735,14.021l-0.857,16.607H512.119L512.119,101.935z"/>
		<path fill="#83705E" d="M520.186,39.806c0,0,10.682-0.218,12.207,1.636v5.123l3.377,0.327v-8.666l-6.212-6.158l-0.436,3.433
			l-8.937-1.144l0.98,1.798l-3.762-1.199L520.186,39.806z"/>
		<path fill="#964A58" d="M523.235,56.81l-0.107-3.379c0,0,7.793-0.163,7.902,8.283l0.437,11.119l-3.106,0.817V62.804
			C528.36,62.804,527.215,57.954,523.235,56.81z"/>
		<path fill="#7D5D50" d="M528.36,73.649l-0.273,0.817l-3.815,1.744c0,0-1.253,3.107,0.6,4.852l3.489,1.743v0.546l3.596-0.817
			c0,0-1.908-0.328-0.489-2.126c0,0,5.559,0.055,5.831-4.142c0,0,1.525-3.815-5.396-2.998l-0.435-0.436L528.36,73.649z"/>
		<path fill="#BB9E93" enable-background="new    " d="M521.192,85.146c0,0-1.512,1.512,0.858,3.678c0,0-2.738,1.349-3.474,2.698
			c0,0-1.268,1.921,3.474,4.169c0,0,1.88,2.126,7.808,0.736c0,0,3.27,0.94,3.474,3.516v2.083h1.677v-5.027c0,0,0-0.776,0.572-1.349
			c0,0,2.003-1.144,2.534-3.596c0,0,0.612-1.635-0.676-2.902c0,0-0.92-1.226-2.431-2.167l2.736-1.594c0,0-2.9-2.78-5.434-2.902
			c0,0-3.68,0.988-4.742,0.861C527.569,83.35,523.073,83.306,521.192,85.146z"/>
		<path fill="#7D5C4F" enable-background="new    " d="M534.928,87.026h1.348c0,0,0.776-0.531,0.735-1.226c0,0-6.948-0.736-11.321,0
			v0.45L534.928,87.026z"/>
		<path fill="#7E5D50" d="M520.742,87.026c0,0,2.208,3.147,13.815,3.106v1.677c0,0-4.985,3.964-13.16,1.308l1.308-1.226l1.185,0.041
			c0,0,5.111,2.575,9.974-0.41l-0.041-0.654c0,0-11.362-0.286-13.08-3.27V87.026z"/>
		<ellipse fill="#333333" enable-background="new    " cx="524.605" cy="44.434" rx="1.206" ry="1.227"/>
	</g>
</g>
</svg>
