<?xml version="1.0" encoding="utf-8"?>
<!-- Generator: Adobe Illustrator 16.0.0, SVG Export Plug-In . SVG Version: 6.00 Build 0)  -->
<!DOCTYPE svg PUBLIC "-//W3C//DTD SVG 1.1//EN" "http://www.w3.org/Graphics/SVG/1.1/DTD/svg11.dtd">
<svg version="1.1" id="Layer_1" xmlns="http://www.w3.org/2000/svg" xmlns:xlink="http://www.w3.org/1999/xlink" x="0px" y="0px"
	 width="684px" height="296.641px" viewBox="0 0 684 296.641" enable-background="new 0 0 684 296.641" xml:space="preserve">
<rect y="0" fill="#667F75" width="684" height="296.641"/>
<g id="polce_station">
	<polygon fill="#5A7AA0" points="404.345,80.931 481.693,80.931 504.546,98.633 503.715,105.56 403.71,105.56 	"/>
	<rect x="324.614" y="53.117" fill="#BDA686" width="65.177" height="137.07"/>
	<polygon fill="#5A7AA0" points="499.283,185.989 486.818,183.681 488.481,108.738 500.945,108.738 	"/>
	<path fill="#33475B" d="M403.533,110.178l97.688-0.771c0,0,1.247-2.309,2.492-3.848H403.71L403.533,110.178z"/>
	<path fill="#BDA686" d="M299.783,44.016c0,0,3.636-0.386,7.895-0.577h97.021c0,0,3.585,0.299,7.376,1.25l-1.247,8.428l-6.129,0.231
		l-95.563-0.289l-7.501,0.058L299.783,44.016z"/>
	<polygon fill="#5A7AA0" points="389.744,53.117 405.175,53.117 403.179,190.187 389.744,190.187 	"/>
	<polygon fill="#5A7AA0" points="324.567,53.116 309.136,53.116 311.132,190.187 324.567,190.187 	"/>
	<line fill="none" x1="405.175" y1="53.116" x2="309.136" y2="53.116"/>
	<polygon fill="#5A7AA0" points="299.783,44.016 315.78,21.888 397.947,21.888 412.075,44.689 	"/>
	<rect x="311.061" y="186.76" fill="#968671" width="92.118" height="3.428"/>
	<rect x="404.818" y="77.855" fill="#33475B" width="76.875" height="3.075"/>
	<rect x="403.179" y="183.681" fill="#968671" width="96.104" height="3.078"/>
	<polygon fill="#BDA686" points="404.353,110.178 488.464,109.509 486.818,183.681 403.179,183.681 	"/>
	<g>
		<rect x="465.212" y="121.651" fill="#8C8C8C" stroke="#000000" stroke-miterlimit="10" width="9.418" height="47.849"/>
		<rect x="465.212" y="131.271" fill="#8C8C8C" stroke="#000000" stroke-miterlimit="10" width="9.418" height="0.255"/>
		<rect x="465.212" y="144.099" fill="#8C8C8C" stroke="#000000" stroke-miterlimit="10" width="9.418" height="0.255"/>
		<rect x="465.212" y="156.927" fill="#8C8C8C" stroke="#000000" stroke-miterlimit="10" width="9.418" height="0.255"/>
	</g>
	<g>
		<rect x="419.228" y="121.651" fill="#8C8C8C" stroke="#000000" stroke-miterlimit="10" width="9.42" height="47.849"/>
		<rect x="419.228" y="131.271" fill="#8C8C8C" stroke="#000000" stroke-miterlimit="10" width="9.42" height="0.255"/>
		<rect x="419.228" y="144.099" fill="#8C8C8C" stroke="#000000" stroke-miterlimit="10" width="9.42" height="0.255"/>
		<rect x="419.228" y="156.927" fill="#8C8C8C" stroke="#000000" stroke-miterlimit="10" width="9.42" height="0.255"/>
	</g>
	<g>
		<rect x="376.016" y="135.834" fill="#8C8C8C" stroke="#000000" stroke-miterlimit="10" width="9.418" height="47.848"/>
		<rect x="376.016" y="145.453" fill="#8C8C8C" stroke="#000000" stroke-miterlimit="10" width="9.418" height="0.254"/>
		<rect x="376.016" y="158.28" fill="#8C8C8C" stroke="#000000" stroke-miterlimit="10" width="9.418" height="0.255"/>
		<rect x="376.016" y="171.107" fill="#8C8C8C" stroke="#000000" stroke-miterlimit="10" width="9.418" height="0.255"/>
	</g>
	<rect x="327.539" y="135.834" fill="#8C8C8C" stroke="#000000" stroke-miterlimit="10" width="9.417" height="47.848"/>
	<rect x="327.539" y="145.453" fill="#8C8C8C" stroke="#000000" stroke-miterlimit="10" width="9.417" height="0.254"/>
	<rect x="327.539" y="158.28" fill="#8C8C8C" stroke="#000000" stroke-miterlimit="10" width="9.417" height="0.255"/>
	<rect x="327.539" y="171.107" fill="#8C8C8C" stroke="#000000" stroke-miterlimit="10" width="9.417" height="0.255"/>
	<rect x="311.061" y="190.187" fill="#AF9C87" width="92.046" height="19.277"/>
	<polygon fill="#AF9C87" points="497.621,206.037 403.082,206.037 403.082,186.76 499.283,186.76 	"/>
	<g>
		<polygon fill="#5A7AA0" points="310.487,80.931 233.138,80.931 210.285,98.633 211.116,105.56 311.121,105.56 		"/>
		<polygon fill="#5A7AA0" points="215.548,185.989 228.013,183.681 226.351,108.738 213.886,108.738 		"/>
		<path fill="#33475B" d="M311.298,110.178l-97.688-0.771c0,0-1.247-2.309-2.493-3.848h100.005L311.298,110.178z"/>
		<rect x="233.138" y="77.855" fill="#33475B" width="76.875" height="3.075"/>
		<rect x="215.548" y="183.681" fill="#968671" width="96.105" height="3.078"/>
		<polygon fill="#BDA686" points="310.479,110.178 226.368,109.509 228.013,183.681 311.653,183.681 		"/>
		<g>
			<rect x="240.202" y="121.651" fill="#8C8C8C" stroke="#000000" stroke-miterlimit="10" width="9.418" height="47.849"/>
			<rect x="240.202" y="131.271" fill="#8C8C8C" stroke="#000000" stroke-miterlimit="10" width="9.418" height="0.255"/>
			<rect x="240.202" y="144.099" fill="#8C8C8C" stroke="#000000" stroke-miterlimit="10" width="9.418" height="0.255"/>
			<rect x="240.202" y="156.927" fill="#8C8C8C" stroke="#000000" stroke-miterlimit="10" width="9.418" height="0.255"/>
		</g>
		<g>
			<rect x="286.186" y="121.651" fill="#8C8C8C" stroke="#000000" stroke-miterlimit="10" width="9.418" height="47.849"/>
			<rect x="286.186" y="131.271" fill="#8C8C8C" stroke="#000000" stroke-miterlimit="10" width="9.418" height="0.255"/>
			<rect x="286.186" y="144.099" fill="#8C8C8C" stroke="#000000" stroke-miterlimit="10" width="9.418" height="0.255"/>
			<rect x="286.186" y="156.927" fill="#8C8C8C" stroke="#000000" stroke-miterlimit="10" width="9.418" height="0.255"/>
		</g>
		<polygon fill="#AF9C87" points="217.21,206.037 311.749,206.037 311.749,186.76 215.548,186.76 		"/>
	</g>
	<rect x="345.125" y="174.829" fill="#D8B491" width="23.411" height="34.571"/>
	<rect x="346.789" y="176.401" fill="#2D2D2D" width="20.083" height="32.968"/>
	<rect x="351.049" y="182.654" fill="#E5E07F" width="11.564" height="12.207"/>
	<rect x="351.706" y="183.574" fill="#96C8E4" width="10.25" height="11.287"/>
	<polygon fill="#33475B" points="397.947,21.888 315.78,21.888 316.597,19.295 397.414,19.486 	"/>
	<g id="police">
		<g>
			<path fill="#33475B" d="M357.154,100.685c0,0-10.836-2.616-13.904-7.944c-4.389-7.624,1.18-12.58,1.875-14.889
				c0.695-2.31,1.793-4.233-2.21-5.917l-2.339-3.656l3.115-3.223c0,0,12.541-0.818,13.465-3.416v39.045H357.154z"/>
			<path fill="#33475B" d="M357.156,100.685c0,0,10.838-2.604,13.906-7.934c4.388-7.625-1.181-12.58-1.875-14.889
				c-0.696-2.309-1.793-4.232,2.207-5.916l2.342-3.656l-3.116-3.223c0,0-12.541-0.829-13.464-3.428V100.685z"/>
		</g>
		
			<ellipse fill="none" stroke="#FFDE17" stroke-width="0.5" stroke-miterlimit="10" cx="357.667" cy="86.182" rx="10.875" ry="10.925"/>
		
			<ellipse fill="none" stroke="#FFDE17" stroke-width="0.5" stroke-miterlimit="10" cx="357.667" cy="86.182" rx="8.208" ry="8.246"/>
		<polygon fill="#B3C9D7" points="356.57,92.329 357.646,92.329 357.646,90.21 362.197,90.957 360.882,89.666 363.911,87.421 
			362.836,86.901 364.061,85.119 361.611,85.475 361.758,84.006 360.045,84.896 360.621,82.114 358.725,82.8 357.154,80.035 
			355.566,82.723 353.678,82.044 354.266,84.896 352.553,84.006 352.553,85.401 350.25,85.161 351.475,86.901 350.439,87.405 
			353.438,89.682 352.172,90.917 356.635,90.151 		"/>
		<path fill="none" d="M347.033,79.423c0,0,2.839-5.708,10.283-5.708c0,0,7.203-0.32,11.082,5.708"/>
		
			<text transform="matrix(0.8069 -0.7175 0.6645 0.7473 348.8281 77.0623)" fill="#FFFFFF" font-family="'MyriadPro-Regular'" font-size="5.3876"> </text>
		
			<text transform="matrix(0.919 -0.5668 0.525 0.8511 349.5742 76.2693)" fill="#FFFFFF" font-family="'MyriadPro-Regular'" font-size="5.3876">P</text>
		
			<text transform="matrix(1.041 -0.2861 0.265 0.9643 351.9453 74.6951)" fill="#FFFFFF" font-family="'MyriadPro-Regular'" font-size="5.3879">O</text>
		
			<text transform="matrix(1.0793 -0.0294 0.0273 0.9996 355.5996 73.7566)" fill="#FFFFFF" font-family="'MyriadPro-Regular'" font-size="5.3876">L</text>
		
			<text transform="matrix(1.0729 0.1224 -0.1134 0.9935 358.2148 73.7219)" fill="#FFFFFF" font-family="'MyriadPro-Regular'" font-size="5.3873">I</text>
		
			<text transform="matrix(1.0422 0.282 -0.2612 0.9653 359.457 73.7776)" fill="#FFFFFF" font-family="'MyriadPro-Regular'" font-size="5.3876">C</text>
		
			<text transform="matrix(0.9603 0.4937 -0.4572 0.8894 362.5195 74.6047)" fill="#FFFFFF" font-family="'MyriadPro-Regular'" font-size="5.3878">E</text>
	</g>
</g>
<g id="car">
	<path fill="#33475B" d="M112.435,253.132"/>
	<path fill="#0E0E0E" d="M113.036,251.271h33.76c0,0,0.962-16.559-14.322-16.708C117.189,234.414,113.808,241.457,113.036,251.271z"
		/>
	<path fill="#E6E6E6" d="M139.437,217.923c0,0-1.744-10.492,15.572-11.846c0,0,30.689-1.506,38.939-0.728
		c0,0,17.888,5.095,26.945,16.896l4.189,27.817l-76.081,0.279c0,0-0.321-14.008-9.614-17.751L139.437,217.923z"/>
	<path fill="#0E0E0E" d="M234.629,250.345h36.007c0,0,1.027-16.56-15.275-16.708C239.06,233.486,235.452,240.53,234.629,250.345z"/>
	<path fill="#CFCECE" d="M118.553,218.548c0,0,5.435-14.237,34.417-15.485c0,0,34.191-1.872,46.758,1.768l28.696,15.078
		l1.358,29.948h-5.713l-3.623-27.349l-19.586-14.246c0,0-5.548-3.535-24.115-3.017l-1.698-0.104l3.539,44.923l-0.596-0.209
		l-3.483-44.61l-19.499,0.832c0,0-14.006,2.304-14.718,8.215l-0.854,3.631L118.553,218.548z"/>
	<path fill="#191919" d="M75.413,247.921c0,0-3.227-3.057,1.868-14.287h18.51v-6.862H83.055c0,0,0.011-3.275,2.043-4.835
		c0,0-1.025-3.97,54.338-4.014l0.849,13.685c0,0,11.548,5.459,8.831,18.249h80.666l-1.358-29.948c0,0,26.153,1.716,41.437,6.552
		c0,0,5.773,0.937,7.132,4.057l-13.585,0.468l0.17,2.907l19.699,5.358l0.849,6.552c0,0-2.547,6.552-2.377,7.8H270.54
		c0,0,2.094-17.573-18.341-19.395c0,0-16.586,0.313-15.454,18.771l-90.346,0.624c0,0,2.377-19.498-14.774-19.03
		c0,0-17.152-0.936-18.794,18.511L75.413,247.921z"/>
	<path fill="#C39134" d="M83.055,226.771c0,0-2.377,5.252-2.151,6.862h14.888v-6.862H83.055z"/>
	<polygon fill="#C39134" points="263.407,230.982 268.67,230.801 272.296,236.262 263.577,233.89 	"/>
	<polygon fill="#DBD9D7" points="268.67,230.801 276.993,230.515 279.897,238.33 272.296,236.262 	"/>
	<path fill="#7F7F7F" d="M146.85,220.792h26.889l-1.246-12.999c0,0-17.379-0.676-20.379,2.027
		C152.114,209.82,146.17,211.173,146.85,220.792z"/>
	<path fill="#7F7F7F" d="M177.133,207.718l14.775,0.804c0,0,5.208,0.104,11.208,4.368l10.53,7.539l-35.097,0.363L177.133,207.718z"
		/>
	<path fill="#353535" d="M220.66,222.653c0,0-15.446-11.117-12.389,0.737L220.66,222.653z"/>
	<path fill="#353535" d="M144.191,224.119h8.661c0,0-0.118,1.483-6.539,1.326C146.314,225.445,145.041,226.225,144.191,224.119z"/>
	<path fill="#353535" d="M178.92,224.119h8.661c0,0-0.117,1.483-6.538,1.326C181.043,225.445,179.77,226.225,178.92,224.119z"/>
	<g id="tyre">
		<ellipse fill="#191919" cx="129.589" cy="250.064" rx="14.603" ry="12.946"/>
		<ellipse fill="#8E8E8E" cx="129.589" cy="250.064" rx="8.489" ry="7.526"/>
		<ellipse fill="#B2B2B2" cx="129.759" cy="250.024" rx="6.451" ry="5.719"/>
	</g>
	<g id="tyre_1_">
		<ellipse fill="#191919" cx="252.639" cy="249.208" rx="14.603" ry="12.946"/>
		<ellipse fill="#8E8E8E" cx="252.639" cy="249.208" rx="8.489" ry="7.526"/>
		<ellipse fill="#B2B2B2" cx="252.809" cy="249.168" rx="6.451" ry="5.72"/>
	</g>
</g>
<g id="car_1_">
	<path fill="#33475B" d="M432.655,212.621"/>
	<path fill="#0E0E0E" d="M432.877,211.936h12.441c0,0,0.354-6.103-5.277-6.157C434.408,205.723,433.162,208.318,432.877,211.936z"/>
	<path fill="#E6E6E6" d="M442.606,199.646c0,0-0.644-3.867,5.738-4.366c0,0,11.311-0.555,14.351-0.268c0,0,6.593,1.878,9.93,6.228
		l1.545,10.251l-28.038,0.104c0,0-0.118-5.162-3.544-6.542L442.606,199.646z"/>
	<path fill="#0E0E0E" d="M477.688,211.594h13.27c0,0,0.379-6.103-5.629-6.156C479.321,205.382,477.991,207.978,477.688,211.594z"/>
	<path fill="#CFCECE" d="M434.91,199.876c0,0,2.003-5.248,12.685-5.708c0,0,12.602-0.688,17.231,0.652l10.575,5.557l0.501,11.037
		h-2.106l-1.334-10.079l-7.219-5.25c0,0-2.045-1.304-8.887-1.11l-0.626-0.038l1.304,16.555l-0.22-0.076l-1.283-16.439l-7.187,0.306
		c0,0-5.162,0.85-5.424,3.028l-0.314,1.338L434.91,199.876z"/>
	<path fill="#191919" d="M419.013,210.701c0,0-1.188-1.127,0.688-5.266h6.821v-2.529h-4.694c0,0,0.005-1.207,0.754-1.782
		c0,0-0.378-1.462,20.024-1.479l0.313,5.043c0,0,4.256,2.012,3.255,6.726h29.729l-0.501-11.037c0,0,9.638,0.632,15.271,2.414
		c0,0,2.128,0.345,2.628,1.495l-5.007,0.172l0.063,1.072l7.259,1.975l0.313,2.414c0,0-0.938,2.415-0.876,2.875h-4.131
		c0,0,0.771-6.478-6.759-7.146c0,0-6.112,0.113-5.695,6.917l-33.296,0.229c0,0,0.877-7.187-5.443-7.014c0,0-6.32-0.345-6.927,6.821
		L419.013,210.701z"/>
	<path fill="#C39134" d="M421.828,202.906c0,0-0.876,1.936-0.792,2.529h5.486v-2.529H421.828z"/>
	<polygon fill="#C39134" points="488.293,204.458 490.232,204.391 491.569,206.403 488.356,205.53 	"/>
	<polygon fill="#DBD9D7" points="490.232,204.391 493.3,204.286 494.37,207.166 491.569,206.403 	"/>
	<path fill="#7F7F7F" d="M445.339,200.702h9.909l-0.459-4.79c0,0-6.404-0.249-7.511,0.747
		C447.278,196.659,445.088,197.157,445.339,200.702z"/>
	<path fill="#7F7F7F" d="M456.499,195.885l5.445,0.297c0,0,1.919,0.037,4.131,1.608l3.88,2.778l-12.936,0.134L456.499,195.885z"/>
	<path fill="#353535" d="M472.54,201.389c0,0-5.692-4.098-4.565,0.271L472.54,201.389z"/>
	<path fill="#353535" d="M444.359,201.929h3.19c0,0-0.044,0.547-2.409,0.488C445.142,202.418,444.672,202.705,444.359,201.929z"/>
	<path fill="#353535" d="M457.158,201.929h3.19c0,0-0.043,0.547-2.409,0.488C457.939,202.418,457.471,202.705,457.158,201.929z"/>
	<g id="tyre_3_">
		<ellipse fill="#191919" cx="438.978" cy="211.49" rx="5.383" ry="4.771"/>
		<ellipse fill="#8E8E8E" cx="438.978" cy="211.49" rx="3.129" ry="2.773"/>
		<ellipse fill="#B2B2B2" cx="439.04" cy="211.477" rx="2.377" ry="2.106"/>
	</g>
	<g id="tyre_2_">
		<ellipse fill="#191919" cx="484.325" cy="211.175" rx="5.381" ry="4.771"/>
		<ellipse fill="#8E8E8E" cx="484.325" cy="211.175" rx="3.128" ry="2.773"/>
		<ellipse fill="#B2B2B2" cx="484.388" cy="211.16" rx="2.377" ry="2.108"/>
	</g>
</g>
</svg>
