<?xml version="1.0" encoding="utf-8"?>
<!-- Generator: Adobe Illustrator 16.0.0, SVG Export Plug-In . SVG Version: 6.00 Build 0)  -->
<!DOCTYPE svg PUBLIC "-//W3C//DTD SVG 1.1//EN" "http://www.w3.org/Graphics/SVG/1.1/DTD/svg11.dtd">
<svg version="1.1" id="Layer_1" xmlns="http://www.w3.org/2000/svg" xmlns:xlink="http://www.w3.org/1999/xlink" x="0px" y="0px"
	 width="684px" height="296.64px" viewBox="0 0 684 296.64" enable-background="new 0 0 684 296.64" xml:space="preserve">
<rect x="-89" y="-70.335" fill="#83A349" width="817.333" height="395.333"/>
<g id="table">
	<polygon fill="#BCCCC8" points="181.033,253.528 112.622,245.163 112.622,204.336 188.415,212.703 	"/>
	<polygon fill="#9DBFB9" points="288.405,216.573 181.033,253.528 188.415,212.703 304.156,181.027 	"/>
	<polygon fill="#D0D8D8" points="112.622,204.336 188.415,212.703 190.358,205.683 115.303,197.808 	"/>
	<polygon fill="#B9C6C0" points="188.415,212.703 304.156,181.027 300.919,175.381 190.358,205.683 	"/>
	<polygon fill="#C4C2C2" points="116.235,197.808 114.11,139.277 196.532,139.903 190.358,205.683 	"/>
	<polygon fill="#E0DEDE" points="196.532,139.903 295.833,126.055 300.919,175.381 190.358,205.683 	"/>
	<polygon fill="#798E84" points="114.11,139.277 113.521,136.879 197.244,136.879 196.532,139.903 	"/>
	<polyline fill="#798E84" points="196.532,139.903 197.244,136.879 295.983,123.787 295.833,126.055 	"/>
	<polygon fill="#9EB2A9" points="113.521,136.879 230.867,121.842 295.983,123.787 197.244,136.879 	"/>
</g>
<g id="chair">
	<path fill="#9EB2A9" d="M301.829,168.851H406.14c0,0-12.69,21.604-1.833,39.677l-106.926-2.024
		C297.381,206.503,294.789,192.295,301.829,168.851z"/>
	<polygon fill="#AEC4B8" points="297.381,206.503 274.359,211.397 374.972,214.145 404.307,208.527 	"/>
	<polygon fill="#5B7567" points="274.359,211.397 374.972,214.145 404.307,208.527 404.307,210.484 374.972,215.977 
		274.359,213.229 	"/>
	<path fill="#5B7567" d="M406.14,168.851c0,0-14.253,17.196-1.93,39.774l0.097,1.859l1.228-1.574
		C405.534,208.91,397.641,194.366,406.14,168.851z"/>
	<polygon fill="#7FA28F" points="274.359,213.229 374.972,215.977 374.972,214.145 274.359,211.397 	"/>
	<g id="stand">
		<path fill="#7FA28F" d="M289.996,230.371c0,0,1.323-11.724,12.463-11.907c0,0,6.31-0.365,8.497,6.869h1.629
			c0,0-2.342-9.387-12.211-7.647c0,0-10.226,1.282-12.669,12.686H289.996z"/>
		<path fill="#7FA28F" d="M297.032,218.682v-3.894h2.003v2.107v0.574h6.709v-0.424l1.649,0.039v1.503
			C307.394,218.588,301.959,217.239,297.032,218.682z"/>
		<path fill="#D1D3D4" d="M297.032,214.788v3.894c0,0-7.42,2.635-9.327,11.689h-2.126c0,0,2.97-9.104,9.717-11.689l0.11-3.894
			H297.032z"/>
		<path fill="#D1D3D4" d="M301.829,218.487c0,0,7.042-0.681,9.127,6.846h-1.946C309.01,225.333,309.02,219.624,301.829,218.487z"/>
		<polygon fill="#92AD9E" points="287.705,230.371 287.705,230.941 289.951,230.941 289.996,230.371 		"/>
		<polygon fill="#92AD9E" points="285.579,230.371 287.705,230.371 287.705,230.941 285.579,230.839 		"/>
		<rect x="310.956" y="225.333" fill="#92AD9E" width="1.629" height="0.31"/>
		<rect x="309.01" y="225.333" fill="#92AD9E" width="1.946" height="0.31"/>
	</g>
	<g id="stand_1_">
		<path fill="#7FA28F" d="M369.137,232.554c0,0,1.324-11.723,12.465-11.906c0,0,6.31-0.367,8.495,6.869h1.627
			c0,0-2.339-9.388-12.208-7.648c0,0-10.226,1.282-12.666,12.686H369.137z"/>
		<path fill="#7FA28F" d="M376.174,220.867v-3.899h2.005v2.109v0.578h6.709v-1.159l1.647,0.037v2.236
			C386.535,220.77,381.103,219.421,376.174,220.867z"/>
		<path fill="#D1D3D4" d="M376.174,216.968v3.899c0,0-7.419,2.634-9.324,11.687h-2.129c0,0,2.97-9.103,9.718-11.687l0.109-3.899
			H376.174z"/>
		<path fill="#D1D3D4" d="M380.971,220.671c0,0,7.039-0.679,9.126,6.846h-1.945C388.151,227.517,388.161,221.809,380.971,220.671z"
			/>
		<polygon fill="#92AD9E" points="366.85,232.554 366.85,233.127 369.094,233.127 369.137,232.554 		"/>
		<polygon fill="#92AD9E" points="364.721,232.554 366.85,232.554 366.85,233.127 364.721,233.022 		"/>
		<rect x="390.097" y="227.517" fill="#92AD9E" width="1.627" height="0.308"/>
		<rect x="388.151" y="227.517" fill="#92AD9E" width="1.945" height="0.308"/>
	</g>
	<polygon fill="#6D6E71" points="281.402,213.423 281.402,216.494 394.697,219.06 398.756,219.06 398.756,211.524 374.972,215.977 	
		"/>
</g>
<g id="chair_1_">
	<path fill="#9EB2A9" d="M414.302,169.123l105.543-2.223c0,0-10.855,27.351,0,45.424l-106.927-2.025
		C412.918,210.299,407.262,192.568,414.302,169.123z"/>
	<polygon fill="#AEC4B8" points="412.918,210.299 389.898,215.194 490.51,217.941 519.845,212.324 	"/>
	<polygon fill="#5B7567" points="389.898,215.194 490.51,217.941 519.845,212.324 519.845,214.281 490.51,219.772 389.898,217.027 	
		"/>
	<path fill="#5B7567" d="M519.845,166.9c0,0-12.418,22.944-0.097,45.522l0.097,1.858l1.229-1.576
		C521.073,212.705,511.344,192.414,519.845,166.9z"/>
	<polygon fill="#7FA28F" points="389.898,217.027 490.51,219.772 490.51,217.941 389.898,215.194 	"/>
	<g id="stand_3_">
		<path fill="#7FA28F" d="M405.534,234.167c0,0,1.322-11.724,12.465-11.905c0,0,6.308-0.366,8.496,6.869h1.628
			c0,0-2.342-9.389-12.211-7.646c0,0-10.225,1.281-12.668,12.683H405.534z"/>
		<path fill="#7FA28F" d="M412.571,222.479v-3.896h2.003v2.108v0.576h6.709v-0.425l1.648,0.037v1.505
			C422.932,222.385,417.497,221.035,412.571,222.479z"/>
		<path fill="#D1D3D4" d="M412.571,218.583v3.896c0,0-7.42,2.635-9.327,11.688h-2.126c0,0,2.97-9.101,9.717-11.688l0.11-3.896
			H412.571z"/>
		<path fill="#D1D3D4" d="M417.368,222.285c0,0,7.041-0.681,9.127,6.846h-1.947C424.548,229.131,424.56,223.423,417.368,222.285z"/>
		<polygon fill="#92AD9E" points="403.244,234.167 403.244,234.739 405.49,234.739 405.534,234.167 		"/>
		<polygon fill="#92AD9E" points="401.118,234.167 403.244,234.167 403.244,234.739 401.118,234.637 		"/>
		<rect x="426.495" y="229.131" fill="#92AD9E" width="1.628" height="0.309"/>
		<rect x="424.548" y="229.131" fill="#92AD9E" width="1.947" height="0.309"/>
	</g>
	<g id="stand_2_">
		<path fill="#7FA28F" d="M484.677,236.351c0,0,1.322-11.722,12.464-11.906c0,0,6.309-0.366,8.496,6.868h1.628
			c0,0-2.34-9.387-12.211-7.646c0,0-10.224,1.281-12.666,12.685H484.677z"/>
		<path fill="#7FA28F" d="M491.711,224.665v-3.898h2.006v2.108v0.576h6.71v-1.158l1.646,0.039v2.235
			C502.073,224.567,496.641,223.218,491.711,224.665z"/>
		<path fill="#D1D3D4" d="M491.711,220.767v3.898c0,0-7.418,2.634-9.323,11.686h-2.127c0,0,2.968-9.103,9.716-11.686l0.109-3.898
			H491.711z"/>
		<path fill="#D1D3D4" d="M496.509,224.467c0,0,7.041-0.679,9.128,6.846h-1.947C503.689,231.313,503.7,225.605,496.509,224.467z"/>
		<polygon fill="#92AD9E" points="482.388,236.351 482.388,236.923 484.634,236.923 484.677,236.351 		"/>
		<polygon fill="#92AD9E" points="480.261,236.351 482.388,236.351 482.388,236.923 480.261,236.819 		"/>
		<rect x="505.637" y="231.313" fill="#92AD9E" width="1.628" height="0.31"/>
		<rect x="503.689" y="231.313" fill="#92AD9E" width="1.947" height="0.31"/>
	</g>
	<polygon fill="#6D6E71" points="396.939,217.219 396.939,220.293 510.237,222.857 514.295,222.857 514.295,215.32 490.51,219.772 	
		"/>
</g>
<g id="plant">
	<path fill="#4A2E22" d="M104.126,228.146c0,0,22.093-11.873,48.757,0C152.883,228.146,128.505,240.021,104.126,228.146z"/>
	<path fill="#8A5E4E" d="M104.126,228.146l8.889,35.858h25.394l14.475-35.858C152.883,228.146,133.33,238.855,104.126,228.146z"/>
	<path fill="#B38454" d="M124.886,228.146c0,0,3.619,2.092,7.047,0v-38.939h-7.047V228.146z"/>
	<path fill="#896025" d="M128.411,189.207h3.522v17.813c0,0-1.81-1.223-1.761-5.413c0,0,0.047-6.286-1.667-6.635
		C128.505,194.972,126.41,193.574,128.411,189.207z"/>
	<path fill="#3B7758" d="M106.412,188.316c0,0-0.19,5.221,4.381,3.729c0,0,2.476,3.729,4.952,1.866c0,0,5.333,1.417,7.237,0.521
		c0,0,3.809,5.216,8.951,0.298c0,0,7.808,1.181,10.285-2.149c0,0,5.523-0.72,5.904-8.738c0,0,6.856,1.514,5.523-5.303
		c0,0,2.095-5.324-3.237-6.631c0,0-0.952-6.712-5.523-5.406c0,0-6.094-6.525-11.617-0.933c0,0-4.191-4.661-10.094-1.489
		c0,0-4.952-4.104-8,1.489c0,0-5.523-3.169-7.428,2.425c0,0-4.38,0.932-3.619,5.405c0,0-3.035,2.822-0.088,5.14
		c0,0-2.196,3.999,0.088,4.929C104.126,183.468,102.032,187.197,106.412,188.316z"/>
	<path fill="#1FAF77" d="M109.252,163.41c0,0-6.39,1.766-4.374,6.022c0,0-2.691,0.293-1.176,4.112c0,0-3.531,1.612-1.514,5.578
		c0,0-0.117,5.676,3.222,5.574c0,0,2.665,4.117,5.358,1.18c0,0,2.354,4.168,5.55,1.059c0,0,4.037,3.2,6.895-0.323
		c0,0,2.69,1.761,4.373-1.176c0,0,5.046,0.295,6.224-2.055c0,0,4.875,0.294,5.214-2.351c0,0,5.043-3.19,1.343-5.193
		c0,0,2.026-4.585-2.188-3.83c0,0,1.178-5.657-2.355-5.07c0,0-1.681-3.673-6.894-1.764c0,0-4.541-3.377-6.057-1.765
		c0,0-5.38-2.638-6.558-0.435C116.317,162.975,112.784,159.154,109.252,163.41z"/>
</g>
<g id="water_docter">
	<g id="water_tank">
		<path fill="#B3C1C6" d="M519.92,135.776v37.345c0,0,13.053,7.579,30.761,0v-37.345
			C550.683,135.776,536.604,128.366,519.92,135.776z"/>
		<ellipse fill="#6A7A7E" cx="535.207" cy="135.342" rx="15.939" ry="4.095"/>
		<path fill="#B3C1C6" d="M550.683,173.121c0,0,0.558,3.137-1.865,3.37l-27.124-0.025c0,0-2.983,0.086-1.771-3.345v-6.816h30.761
			V173.121L550.683,173.121z"/>
		<ellipse fill="#909599" cx="535.3" cy="135.775" rx="15.383" ry="3.344"/>
		<ellipse fill="#CACCCD" cx="535.488" cy="135.786" rx="13.005" ry="2.826"/>
		<path fill="#7A8F94" d="M520.248,151.506v19.892v1.899c0,0-0.771,2.534,1.257,2.724h26.985c0,0,1.538-0.698,1.538-2.224
			l0.276-22.291H520.248z"/>
		<ellipse fill="#8E9BA8" cx="534.848" cy="174.571" rx="8.153" ry="1.449"/>
		<path fill="#B6B7B7" d="M519.92,173.053c0,0,25.075,0.176,30.761,0v-0.307c0,0-29.362,0.152-30.761-0.064V173.053z"/>
		<ellipse fill="#94A8B9" cx="535.347" cy="135.88" rx="8.811" ry="1.588"/>
		<path fill="#90AAAF" d="M550.308,151.506c0,1.999-6.821,3.621-15.123,3.621s-14.937-1.621-14.937-3.621
			c0-2.002,6.635-3.621,14.937-3.621C543.485,147.885,550.308,149.506,550.308,151.506z"/>
		<ellipse fill="#B6B7B7" cx="525.233" cy="161.658" rx="0.839" ry="0.773"/>
		<ellipse fill="#B6B7B7" cx="529.382" cy="157.286" rx="1.071" ry="0.974"/>
		<ellipse fill="#B6B7B7" cx="531.619" cy="171.73" rx="0.42" ry="0.333"/>
	</g>
	<g id="cleaner">
		<path fill="#E7E7E7" d="M499.551,235.104l34.343,1.579l24.177-8.804l-0.121-50.132c0,0-1.247-3.495-6.556-2.566l-45.604-0.155
			c0,0-6.241-0.076-6.241,4.121C499.549,183.347,499.551,235.104,499.551,235.104z"/>
		<polygon fill="#E5E5E5" points="499.551,179.38 534.198,179.846 557.949,180.081 557.949,225.543 533.894,236.684 
			499.551,235.104 		"/>
		<polygon fill="#F3F3F3" points="499.551,179.38 534.207,177.932 533.894,236.684 499.551,235.104 		"/>
		<polyline fill="#737474" points="499.551,219.25 533.987,219.25 539.114,218.782 539.05,236.636 538.119,236.976 538.254,219.6 
			533.984,220.067 499.551,220.298 		"/>
		<path fill="#D2D3D4" d="M557.949,179.924c0,0,1.533-4.787-6.335-4.774c-7.868,0.012-0.221,0.032-0.221,0.032h-13.661
			c0,0-3.378-0.348-3.381,1.981l-0.153,2.683L557.949,179.924z"/>
		<path fill="#E5E5E5" d="M509.929,190.688h11.475c0,0,1.326,0.059,1.326,0.933v10.258c0,0,0.153,0.813-1.326,0.813
			c-1.483,0-10.146,0-10.146,0s-2.107,0.234-2.186-1.334v-9.562C509.071,191.796,508.992,190.688,509.929,190.688z"/>
		<path fill="#898888" d="M511.139,190.688c0,0-1.053,0.671-1.014,2.013v9.209l-0.562,0.416c0,0-0.463-0.269-0.479-0.834v-9.522
			c0,0-0.158-1.084,0.704-1.271L511.139,190.688z"/>
		<path fill="#CCCBCA" d="M510.125,201.91l12.605,0.084c0,0,0,0.615-1.095,0.715h-10.822c0,0-0.871,0-1.25-0.384L510.125,201.91z"/>
		<rect x="511.876" y="190.688" fill="#CCB7A3" width="2.614" height="3.922"/>
		<polygon fill="#D9D6D4" points="515.228,190.688 515.228,194.035 514.49,194.61 514.49,190.688 		"/>
		<polygon fill="#F47752" points="512.517,194.61 514.277,194.61 513.659,196.211 511.876,196.211 		"/>
		<rect x="517.138" y="190.688" fill="#CCB7A3" width="2.612" height="3.922"/>
		<polygon fill="#D9D6D4" points="520.49,190.688 520.49,194.035 519.75,194.61 519.75,190.688 		"/>
		<polygon fill="#608BC7" points="517.781,194.61 519.54,194.61 518.921,196.211 517.138,196.211 		"/>
		<path fill="#AFADAE" d="M529.934,179.789"/>
	</g>
</g>
<g id="tissue">
	<polygon fill="#565144" points="176.546,122.985 177.666,133.035 194.424,135.583 193.895,130.843 185.536,123.623 	"/>
	<polygon fill="#605847" points="197.8,120.867 204.308,128.718 204.916,128.594 198.749,120.772 	"/>
	<polyline fill="#494034" points="197.8,120.867 197.958,123.68 202.613,129.063 204.308,128.718 	"/>
	<path fill="#494034" d="M176.546,122.985"/>
	<path fill="#494034" d="M176.546,122.985"/>
	<polygon fill="#38342C" points="187.151,123.462 188.352,124.464 198.231,123.124 197.808,120.938 	"/>
	<path fill="#E0E0E0" d="M190.509,122.68l7.624-0.313c0,0,3.594,6.322,3.993,6.745c0.398,0.424-7.079,1.495-7.079,1.495
		L190.509,122.68z"/>
	<path fill="#E0E0E0" d="M187.993,124.133l8.683-2.61c0,0,5.118,7.064,5.937,7.54c0.819,0.477-7.525,1.916-7.525,1.916l-7.083-6.739
		"/>
	<polygon fill="#564A37" points="193.895,130.843 204.916,128.594 205.465,133.524 194.424,135.583 	"/>
	<polygon fill="#38342C" points="185.536,123.623 187.25,123.452 195.046,130.607 193.895,130.843 	"/>
	<polygon fill="#38342C" points="176.546,122.985 185.536,123.623 187.25,123.452 198.815,120.766 190.82,121.082 	"/>
</g>
<g id="frame">
	<polygon fill="#968F83" points="246.285,126.581 253.812,126.581 263.01,124.153 253.881,124.51 	"/>
	<polygon fill="#B7B4B0" points="246.39,126.581 246.39,127.724 253.881,127.724 253.812,126.581 	"/>
	<polygon fill="#A49F9A" points="263.01,124.153 263.01,124.831 253.881,127.724 253.812,126.581 	"/>
	<polygon fill="#9A9794" points="249.491,115.795 255.345,113.366 256.668,124.725 251.024,126.367 	"/>
	<polygon fill="#E0DCD5" points="250.832,116.689 254.499,114.795 255.328,123.656 251.793,124.938 	"/>
</g>
<g id="photos">
	<g>
		<rect x="348.174" y="36.866" fill="#1B1B1C" width="66.925" height="65.498"/>
		<rect x="352.186" y="36.866" fill="#434343" width="63.76" height="65.498"/>
		<rect x="356.514" y="41.292" fill="#D8D8D8" width="55.629" height="57.001"/>
		<rect x="364.535" y="52.445" fill="#BCE2E1" width="37.053" height="34.341"/>
		<path fill="#969262" d="M364.535,72.271c0,0,5.384-2.301,10.24-0.884c4.855,1.416,12.032,0.531,13.512-1.771
			c1.478-2.301,8.442-2.654,9.288,0.177c0.845,2.833,4.013-3.717,4.013-3.717v20.711h-37.053V72.271z"/>
		<ellipse fill="#C39648" cx="373.191" cy="58.994" rx="3.062" ry="2.301"/>
	</g>
	<g>
		<rect x="465.342" y="28.823" fill="#1B1B1C" width="38.982" height="42.798"/>
		<rect x="467.677" y="28.823" fill="#434343" width="37.139" height="42.798"/>
		<rect x="470.199" y="31.714" fill="#D8D8D8" width="32.402" height="37.246"/>
		<rect x="474.871" y="39.001" fill="#959999" width="21.581" height="22.439"/>
		<ellipse fill="#D2D6D6" cx="485.201" cy="43.917" rx="2.32" ry="2.256"/>
		<path fill="#D2D6D6" d="M487.521,51.735c0,1.207-1.038,2.183-2.32,2.183l0,0c-1.282,0-2.319-0.977-2.319-2.183v-3.378
			c0-1.207,1.037-2.184,2.319-2.184l0,0c1.282,0,2.32,0.977,2.32,2.184V51.735z"/>
	</g>
	<g>
		<rect x="428.335" y="80.966" fill="#1B1B1C" width="38.979" height="42.797"/>
		<rect x="430.667" y="80.966" fill="#434343" width="37.138" height="42.797"/>
		<rect x="433.188" y="83.857" fill="#D8D8D8" width="32.403" height="37.246"/>
		<rect x="437.864" y="91.145" fill="#959999" width="21.581" height="22.44"/>
		<ellipse fill="#D2D6D6" cx="448.192" cy="96.06" rx="2.321" ry="2.256"/>
		<path fill="#D2D6D6" d="M450.514,103.878c0,1.206-1.039,2.183-2.32,2.183l0,0c-1.281,0-2.322-0.977-2.322-2.183V100.5
			c0-1.207,1.041-2.184,2.322-2.184l0,0c1.281,0,2.32,0.978,2.32,2.184V103.878z"/>
	</g>
</g>
</svg>
