<?xml version="1.0" encoding="utf-8"?>
<!-- Generator: Adobe Illustrator 16.0.0, SVG Export Plug-In . SVG Version: 6.00 Build 0)  -->
<!DOCTYPE svg PUBLIC "-//W3C//DTD SVG 1.1//EN" "http://www.w3.org/Graphics/SVG/1.1/DTD/svg11.dtd">
<svg version="1.1" id="Layer_1" xmlns="http://www.w3.org/2000/svg" xmlns:xlink="http://www.w3.org/1999/xlink" x="0px" y="0px"
	 width="684px" height="296.64px" viewBox="0 0 684 296.64" enable-background="new 0 0 684 296.64" xml:space="preserve">
<rect y="-1.125" fill="#AEC4B9" width="684" height="296.641"/>
<g>
	<polygon fill="#808285" points="48.043,99.846 54.443,104.166 195.843,52.846 330.443,104.166 473.643,52.846 600.043,104.166 
		608.843,101.446 474.243,44.646 330.443,95.046 196.501,44.646 	"/>
	<polygon fill="#BCBEC0" points="66.641,99.738 195.843,52.846 330.443,104.166 473.643,52.846 587.377,99.023 587.377,198.846 
		66.641,198.846 	"/>
	<rect x="48.043" y="198.846" fill="#939598" width="555" height="9"/>
	<polygon fill="#4D63AE" points="66.641,99.738 195.843,52.846 330.443,104.166 473.643,52.846 587.377,99.023 587.377,114.166 
		66.641,114.166 	"/>
	<g>
		<rect x="87.043" y="125.721" fill="#F1F2F2" width="200.333" height="20.125"/>
		<rect x="88.709" y="126.846" fill="#58595B" width="31.333" height="17.666"/>
		<rect x="121.709" y="126.846" fill="#58595B" width="31.333" height="17.666"/>
		<rect x="154.709" y="126.846" fill="#58595B" width="31.333" height="17.666"/>
		<rect x="187.709" y="126.846" fill="#58595B" width="31.333" height="17.666"/>
		<rect x="220.709" y="126.846" fill="#58595B" width="31.333" height="17.666"/>
		<rect x="253.709" y="126.846" fill="#58595B" width="31.333" height="17.666"/>
	</g>
	<g>
		<rect x="367.043" y="125.846" fill="#F1F2F2" width="199.665" height="20"/>
		<rect x="368.709" y="126.846" fill="#58595B" width="31.334" height="17.666"/>
		<rect x="401.709" y="126.846" fill="#58595B" width="31.334" height="17.666"/>
		<rect x="434.709" y="126.846" fill="#58595B" width="31.334" height="17.666"/>
		<rect x="467.709" y="126.846" fill="#58595B" width="31.334" height="17.666"/>
		<rect x="500.709" y="126.846" fill="#58595B" width="31.334" height="17.666"/>
		<rect x="533.709" y="126.846" fill="#58595B" width="31.334" height="17.666"/>
	</g>
	<rect x="109.709" y="155.513" fill="#F1F2F2" width="52" height="43.333"/>
	<rect x="230.709" y="155.513" fill="#F1F2F2" width="52" height="43.333"/>
	<rect x="234.709" y="158.846" fill="#4264AF" width="44.001" height="40"/>
	<rect x="370.709" y="155.513" fill="#F1F2F2" width="52" height="43.333"/>
	<rect x="491.709" y="155.513" fill="#F1F2F2" width="52" height="43.333"/>
	<rect x="66.641" y="207.846" fill="#6D6E71" width="520.736" height="18.334"/>
	<rect x="66.641" y="226.18" fill="#58595B" width="520.736" height="3.542"/>
	<rect x="234.709" y="161.596" fill="#1B4690" width="44.001" height="1.875"/>
	<rect x="234.709" y="165.596" fill="#1B4690" width="44.001" height="1.875"/>
	<rect x="234.709" y="169.596" fill="#1B4690" width="44.001" height="1.875"/>
	<rect x="234.709" y="173.596" fill="#1B4690" width="44.001" height="1.875"/>
	<rect x="234.709" y="177.596" fill="#1B4690" width="44.001" height="1.875"/>
	<rect x="234.709" y="181.596" fill="#1B4690" width="44.001" height="1.875"/>
	<g>
		<g>
			<rect x="113.709" y="158.846" fill="#4264AF" width="44.001" height="40"/>
			<rect x="113.709" y="161.596" fill="#1B4690" width="44.001" height="1.875"/>
			<rect x="113.709" y="165.596" fill="#1B4690" width="44.001" height="1.875"/>
			<rect x="113.709" y="169.596" fill="#1B4690" width="44.001" height="1.875"/>
			<rect x="113.709" y="173.596" fill="#1B4690" width="44.001" height="1.875"/>
			<rect x="113.709" y="177.596" fill="#1B4690" width="44.001" height="1.875"/>
			<rect x="113.709" y="181.596" fill="#1B4690" width="44.001" height="1.875"/>
			<rect x="113.709" y="185.596" fill="#1B4690" width="44.001" height="1.875"/>
			<rect x="113.709" y="189.596" fill="#1B4690" width="44.001" height="1.875"/>
			<rect x="113.709" y="193.596" fill="#1B4690" width="44.001" height="1.875"/>
		</g>
		
			<rect x="119.293" y="172.471" fill="#20396E" stroke="#F1F2F2" stroke-width="0.75" stroke-miterlimit="10" width="10.375" height="4"/>
		
			<rect x="140.293" y="172.471" fill="#20396E" stroke="#F1F2F2" stroke-width="0.75" stroke-miterlimit="10" width="10.375" height="4"/>
	</g>
	<g>
		<g>
			<rect x="495.709" y="158.846" fill="#4264AF" width="44.001" height="40"/>
			<rect x="495.709" y="161.596" fill="#1B4690" width="44.001" height="1.875"/>
			<rect x="495.709" y="165.596" fill="#1B4690" width="44.001" height="1.875"/>
			<rect x="495.709" y="169.596" fill="#1B4690" width="44.001" height="1.875"/>
			<rect x="495.709" y="173.596" fill="#1B4690" width="44.001" height="1.875"/>
			<rect x="495.709" y="177.596" fill="#1B4690" width="44.001" height="1.875"/>
			<rect x="495.709" y="181.596" fill="#1B4690" width="44.001" height="1.875"/>
			<rect x="495.709" y="185.596" fill="#1B4690" width="44.001" height="1.875"/>
			<rect x="495.709" y="189.596" fill="#1B4690" width="44.001" height="1.875"/>
			<rect x="495.709" y="193.596" fill="#1B4690" width="44.001" height="1.875"/>
		</g>
		
			<rect x="501.293" y="172.471" fill="#20396E" stroke="#F1F2F2" stroke-width="0.75" stroke-miterlimit="10" width="10.375" height="4"/>
		
			<rect x="522.293" y="172.471" fill="#20396E" stroke="#F1F2F2" stroke-width="0.75" stroke-miterlimit="10" width="10.375" height="4"/>
	</g>
	
		<rect x="241.293" y="162.471" fill="#20396E" stroke="#F1F2F2" stroke-width="0.75" stroke-miterlimit="10" width="10.375" height="4"/>
	
		<rect x="262.293" y="162.471" fill="#20396E" stroke="#F1F2F2" stroke-width="0.75" stroke-miterlimit="10" width="10.375" height="4"/>
	<rect x="234.709" y="185.471" fill="#414042" width="44.001" height="13.375"/>
	<rect x="374.709" y="158.846" fill="#4264AF" width="44.001" height="40"/>
	<rect x="374.709" y="161.596" fill="#1B4690" width="44.001" height="1.875"/>
	<rect x="374.709" y="165.596" fill="#1B4690" width="44.001" height="1.875"/>
	<rect x="374.709" y="169.596" fill="#1B4690" width="44.001" height="1.875"/>
	<rect x="374.709" y="173.596" fill="#1B4690" width="44.001" height="1.875"/>
	<rect x="374.709" y="177.596" fill="#1B4690" width="44.001" height="1.875"/>
	<rect x="374.709" y="181.596" fill="#1B4690" width="44.001" height="1.875"/>
	<rect x="374.709" y="175.393" fill="#414042" width="44.001" height="23.453"/>
	<g>
		<polygon fill="#A97C50" points="267.708,198.846 303.874,198.846 304.012,198.314 267.449,198.314 		"/>
		<polygon fill="#A97C50" points="267.708,193.765 303.874,193.765 304.012,194.296 267.449,194.296 		"/>
		<g>
			<rect x="269.488" y="194.296" fill="#C49A6C" width="4.484" height="4.016"/>
			<rect x="276.488" y="194.296" fill="#C49A6C" width="4.484" height="4.016"/>
			<rect x="283.488" y="194.296" fill="#C49A6C" width="4.484" height="4.016"/>
			<rect x="290.488" y="194.296" fill="#C49A6C" width="4.484" height="4.016"/>
			<rect x="297.488" y="194.296" fill="#C49A6C" width="4.484" height="4.016"/>
		</g>
	</g>
	<g>
		<polygon fill="#A97C50" points="328.708,198.846 364.874,198.846 365.012,198.314 328.449,198.314 		"/>
		<polygon fill="#A97C50" points="328.708,193.765 364.874,193.765 365.012,194.296 328.449,194.296 		"/>
		<g>
			<rect x="330.488" y="194.296" fill="#C49A6C" width="4.484" height="4.016"/>
			<rect x="337.488" y="194.296" fill="#C49A6C" width="4.484" height="4.016"/>
			<rect x="344.488" y="194.296" fill="#C49A6C" width="4.484" height="4.016"/>
			<rect x="351.488" y="194.296" fill="#C49A6C" width="4.484" height="4.016"/>
			<rect x="358.488" y="194.296" fill="#C49A6C" width="4.484" height="4.016"/>
		</g>
	</g>
	<g>
		<polygon fill="#A97C50" points="409.707,198.846 445.874,198.846 446.012,198.314 409.449,198.314 		"/>
		<polygon fill="#A97C50" points="409.707,193.765 445.874,193.765 446.012,194.296 409.449,194.296 		"/>
		<g>
			<rect x="411.488" y="194.296" fill="#C49A6C" width="4.484" height="4.016"/>
			<rect x="418.488" y="194.296" fill="#C49A6C" width="4.484" height="4.016"/>
			<rect x="425.488" y="194.296" fill="#C49A6C" width="4.484" height="4.016"/>
			<rect x="432.488" y="194.296" fill="#C49A6C" width="4.484" height="4.016"/>
			<rect x="439.488" y="194.296" fill="#C49A6C" width="4.484" height="4.016"/>
		</g>
	</g>
	<g>
		<polygon fill="#F7C96F" points="291.168,189.096 284.074,189.096 284.23,190.252 284.449,190.252 284.855,193.765 
			291.168,193.765 291.355,190.127 291.512,190.127 		"/>
		<rect x="286.543" y="191.033" fill="#F1F2F2" width="2.844" height="1.281"/>
	</g>
	<g>
		<polygon fill="#F7C96F" points="291.98,189.096 299.074,189.096 298.918,190.252 298.699,190.252 298.293,193.765 291.98,193.765 
			291.793,190.127 291.637,190.127 		"/>
		<rect x="293.762" y="191.033" fill="#F1F2F2" width="2.844" height="1.281"/>
	</g>
	<g>
		<polygon fill="#F7C96F" points="276.98,189.096 284.074,189.096 283.918,190.252 283.699,190.252 283.293,193.765 276.98,193.765 
			276.793,190.127 276.637,190.127 		"/>
		<rect x="278.762" y="191.033" fill="#F1F2F2" width="2.844" height="1.281"/>
	</g>
	<g>
		<polygon fill="#F7C96F" points="269.543,189.096 276.637,189.096 276.48,190.252 276.262,190.252 275.855,193.765 
			269.543,193.765 269.355,190.127 269.199,190.127 		"/>
		<rect x="271.324" y="191.033" fill="#F1F2F2" width="2.844" height="1.281"/>
	</g>
	<g>
		<polygon fill="#F7C96F" points="277.334,184.427 284.428,184.427 284.272,185.583 284.053,185.583 283.647,189.096 
			277.334,189.096 277.147,185.458 276.991,185.458 		"/>
		<rect x="279.116" y="186.364" fill="#F1F2F2" width="2.844" height="1.281"/>
	</g>
	<g>
		<polygon fill="#F7C96F" points="284.85,179.758 291.944,179.758 291.788,180.914 291.569,180.914 291.163,184.427 284.85,184.427 
			284.663,180.789 284.506,180.789 		"/>
		<rect x="286.631" y="181.695" fill="#F1F2F2" width="2.844" height="1.281"/>
	</g>
	<g>
		<polygon fill="#F7C96F" points="284.084,179.758 276.991,179.758 277.147,180.914 277.366,180.914 277.772,184.427 
			284.084,184.427 284.272,180.789 284.428,180.789 		"/>
		<rect x="279.459" y="181.695" fill="#F1F2F2" width="2.844" height="1.281"/>
	</g>
	<g>
		<polygon fill="#F7C96F" points="269.918,184.427 277.012,184.427 276.855,185.583 276.637,185.583 276.23,189.096 
			269.918,189.096 269.73,185.458 269.574,185.458 		"/>
		<rect x="271.699" y="186.364" fill="#F1F2F2" width="2.844" height="1.281"/>
	</g>
	<g>
		<polygon fill="#F7C96F" points="291.667,184.427 284.574,184.427 284.73,185.583 284.949,185.583 285.355,189.096 
			291.667,189.096 291.855,185.458 292.011,185.458 		"/>
		<rect x="287.042" y="186.364" fill="#F1F2F2" width="2.844" height="1.281"/>
	</g>
	<g>
		<polygon fill="#F7C96F" points="299.084,184.427 291.99,184.427 292.146,185.583 292.365,185.583 292.771,189.096 
			299.084,189.096 299.271,185.458 299.428,185.458 		"/>
		<rect x="294.459" y="186.364" fill="#F1F2F2" width="2.844" height="1.281"/>
	</g>
	<g>
		<polygon fill="#F7C96F" points="299.084,179.758 291.99,179.758 292.146,180.914 292.365,180.914 292.771,184.427 
			299.084,184.427 299.271,180.789 299.428,180.789 		"/>
		<rect x="294.459" y="181.695" fill="#F1F2F2" width="2.844" height="1.281"/>
	</g>
	<g>
		<polygon fill="#F7C96F" points="299.084,175.089 291.99,175.089 292.146,176.245 292.365,176.245 292.771,179.758 
			299.084,179.758 299.271,176.12 299.428,176.12 		"/>
		<rect x="294.459" y="177.026" fill="#F1F2F2" width="2.844" height="1.281"/>
	</g>
	<g>
		<polygon fill="#F7C96F" points="418.145,189.096 411.051,189.096 411.207,190.252 411.426,190.252 411.832,193.765 
			418.145,193.765 418.332,190.127 418.488,190.127 		"/>
		<rect x="413.52" y="191.033" fill="#F1F2F2" width="2.844" height="1.281"/>
	</g>
	<g>
		<polygon fill="#F7C96F" points="418.832,189.096 425.926,189.096 425.77,190.252 425.551,190.252 425.145,193.765 
			418.832,193.765 418.645,190.127 418.488,190.127 		"/>
		<rect x="420.613" y="191.033" fill="#F1F2F2" width="2.844" height="1.281"/>
	</g>
	<g>
		<polygon fill="#F7C96F" points="426.27,189.096 433.363,189.096 433.207,190.252 432.988,190.252 432.582,193.765 426.27,193.765 
			426.082,190.127 425.926,190.127 		"/>
		<rect x="428.051" y="191.033" fill="#F1F2F2" width="2.844" height="1.281"/>
	</g>
	<g>
		<polygon fill="#F7C96F" points="418.145,184.427 411.051,184.427 411.207,185.583 411.426,185.583 411.832,189.096 
			418.145,189.096 418.332,185.458 418.488,185.458 		"/>
		<rect x="413.52" y="186.364" fill="#F1F2F2" width="2.844" height="1.281"/>
	</g>
	<g>
		<polygon fill="#F7C96F" points="387.145,194.177 380.051,194.177 380.207,195.333 380.426,195.333 380.832,198.846 
			387.145,198.846 387.332,195.208 387.488,195.208 		"/>
		<rect x="382.52" y="196.114" fill="#F1F2F2" width="2.844" height="1.281"/>
	</g>
	<g>
		<polygon fill="#F7C96F" points="386.145,189.508 379.051,189.508 379.207,190.664 379.426,190.664 379.832,194.177 
			386.145,194.177 386.332,190.539 386.488,190.539 		"/>
		<rect x="381.52" y="191.445" fill="#F1F2F2" width="2.844" height="1.281"/>
	</g>
	<g>
		<polygon fill="#F7C96F" points="387.145,184.839 380.051,184.839 380.207,185.995 380.426,185.995 380.832,189.508 
			387.145,189.508 387.332,185.87 387.488,185.87 		"/>
		<rect x="382.52" y="186.776" fill="#F1F2F2" width="2.844" height="1.281"/>
	</g>
	<g>
		<polygon fill="#F7C96F" points="418.832,184.427 425.926,184.427 425.77,185.583 425.551,185.583 425.145,189.096 
			418.832,189.096 418.645,185.458 418.488,185.458 		"/>
		<rect x="420.613" y="186.364" fill="#F1F2F2" width="2.844" height="1.281"/>
	</g>
	<g>
		<polygon fill="#F7C96F" points="426.27,184.427 433.363,184.427 433.207,185.583 432.988,185.583 432.582,189.096 426.27,189.096 
			426.082,185.458 425.926,185.458 		"/>
		<rect x="428.051" y="186.364" fill="#F1F2F2" width="2.844" height="1.281"/>
	</g>
	<g>
		<polygon fill="#F7C96F" points="434.904,186.828 441.304,189.891 440.663,190.866 440.466,190.771 438.583,193.765 432.89,191.04 
			434.29,187.678 434.149,187.61 		"/>
		
			<rect x="435.259" y="189.896" transform="matrix(0.9021 0.4316 -0.4316 0.9021 125.0121 -169.8203)" fill="#F1F2F2" width="2.844" height="1.282"/>
	</g>
	<g>
		<polygon fill="#9E8063" points="330.043,191.533 330.488,193.765 364.168,193.765 365.012,191.533 		"/>
		<polygon fill="#9E8063" points="330.043,189.302 330.488,191.533 364.168,191.533 365.012,189.302 		"/>
		<polygon fill="#9E8063" points="328.949,187.146 329.408,189.377 364.142,189.377 365.012,187.146 		"/>
		<polygon fill="#9E8063" points="330.043,184.914 330.478,187.146 363.345,187.146 364.168,184.914 		"/>
		<polygon fill="#9E8063" points="330.043,182.683 330.488,184.914 364.168,184.914 365.012,182.683 		"/>
		<polygon fill="#726658" points="330.488,184.914 364.168,184.914 365.012,182.683 363.949,184.533 330.444,184.69 		"/>
		<polygon fill="#726658" points="330.478,187.146 363.345,187.146 364.168,184.914 363.131,186.765 330.434,186.922 		"/>
		<polygon fill="#726658" points="329.408,189.302 364.142,189.302 365.012,187.07 363.916,188.921 329.363,189.078 		"/>
		<polygon fill="#726658" points="330.488,191.533 364.168,191.533 365.012,189.302 363.949,191.152 330.444,191.31 		"/>
		<polygon fill="#726658" points="330.488,193.765 364.168,193.765 365.012,191.533 363.949,193.384 330.444,193.541 		"/>
		<polygon fill="#414042" points="335.356,182.683 335.585,182.683 336.981,193.765 336.814,193.765 		"/>
		<polygon fill="#414042" points="358.167,182.683 358.292,182.683 357.584,193.765 357.418,193.765 		"/>
	</g>
</g>
<g>
	<polygon fill="#8F773E" points="355.266,249.921 359.969,248.576 359.969,253.49 354.887,254.288 	"/>
	<polygon fill="#473E31" points="355.811,254.144 357.533,253.868 357.533,250.508 355.811,250.76 	"/>
	<polygon fill="#473E31" points="358.137,253.774 358.137,250.314 359.396,249.951 359.396,253.58 	"/>
	<polygon fill="#C0A76D" points="312.216,249.5 355.266,249.921 359.969,248.576 352.004,248.282 352.004,248.843 316.556,249.102 	
		"/>
	<path fill="#987D55" d="M334.869,249.102v-14.125c0,0,15.342-0.561,17.246,0l-0.111,14L334.869,249.102z"/>
	<g>
		<path fill="#987D55" d="M317.349,235.906l17.191-0.071c0,0,1.676-8.685-0.014-14.008l-18.47,0.619l-0.421,0.798
			C315.636,223.244,315.978,233.431,317.349,235.906z"/>
		<path fill="#7C6544" d="M334.527,221.827c0,0,1.662,4.819,0.014,14.008c0,0,1.348-9.795-0.468-13.992L334.527,221.827z"/>
		<path fill="#7C6544" d="M317.349,235.906c0,0,16.065-0.033,17.191-0.071l-0.017-0.504L317.349,235.906z"/>
	</g>
	<g>
		<path fill="#987D55" d="M336.39,234.827l17.184,0.504c0,0,1.967-8.624,0.455-14H335.55l-0.448,0.784
			C335.102,222.115,335.103,232.308,336.39,234.827z"/>
		<path fill="#7C6544" d="M354.029,221.331c0,0,1.498,4.872-0.455,14c0,0,1.674-9.744,0-14H354.029z"/>
		<path fill="#7C6544" d="M336.39,234.827c0,0,16.057,0.505,17.184,0.504v-0.504H336.39z"/>
	</g>
	<g>
		<path fill="#987D55" d="M316.556,249.102l18.313-0.134v-13.173h-18.313C316.556,235.795,315.997,243.312,316.556,249.102z"/>
		<polygon fill="#7C6544" points="334.195,235.795 334.869,235.795 334.869,248.968 		"/>
	</g>
	<polygon fill="#7C6544" points="318.012,247.988 318.852,247.988 318.852,245.973 319.314,245.973 318.348,244.838 
		317.592,245.973 317.928,246.057 	"/>
	<polygon fill="#7C6544" points="320.364,247.988 321.204,247.988 321.204,245.973 321.666,245.973 320.7,244.838 319.944,245.973 
		320.28,246.057 	"/>
	<polygon fill="#7C6544" points="337.164,247.988 338.004,247.988 338.004,245.973 338.466,245.973 337.5,244.838 336.744,245.973 
		337.08,246.057 	"/>
	<polygon fill="#7C6544" points="339.516,247.988 340.356,247.988 340.356,245.973 340.817,245.973 339.853,244.838 
		339.097,245.973 339.432,246.057 	"/>
	<polygon fill="#7C6544" points="338.172,233.205 339.012,233.205 339.012,231.188 339.474,231.188 338.508,230.055 
		337.752,231.188 338.088,231.272 	"/>
	<polygon fill="#7C6544" points="340.524,233.205 341.364,233.205 341.364,231.188 341.825,231.188 340.86,230.055 340.104,231.188 
		340.44,231.272 	"/>
	<polygon fill="#7C6544" points="319.02,233.877 319.86,233.877 319.86,231.86 320.322,231.86 319.356,230.727 318.6,231.86 
		318.936,231.945 	"/>
	<polygon fill="#7C6544" points="321.372,233.877 322.212,233.877 322.212,231.86 322.674,231.86 321.708,230.727 320.952,231.86 
		321.288,231.945 	"/>
	<polyline fill="#B79B70" points="322.533,237.797 322.925,237.488 323.205,237.713 323.555,237.488 323.989,237.713 
		324.367,237.433 324.716,237.685 325.053,237.433 325.458,237.797 325.458,235.879 322.533,235.795 	"/>
	<polyline fill="#B79B70" points="342.189,236.998 342.581,236.69 342.861,236.914 343.212,236.69 343.646,236.914 344.024,236.635 
		344.373,236.887 344.71,236.635 345.115,236.998 345.115,235.08 342.189,234.996 	"/>
	<polyline fill="#B79B70" points="327.114,224.101 326.722,223.793 326.442,224.017 326.092,223.793 325.658,224.017 
		325.28,223.736 324.93,223.988 324.594,223.736 324.188,224.101 324.188,222.183 327.114,222.099 	"/>
	<line fill="#7C6544" x1="318.684" y1="217.987" x2="317.718" y2="216.854"/>
	<polyline fill="#B79B70" points="342.499,223.333 342.892,223.025 343.172,223.249 343.522,223.025 343.956,223.249 
		344.334,222.969 344.684,223.221 345.021,222.969 345.426,223.333 345.426,221.415 342.499,221.331 	"/>
	<g>
		<g>
			<path fill="#987D55" d="M317.333,222.447l14.926-0.523c0,0,1.223-7.586-0.388-12.162l-16.02,1.032l-0.345,0.705
				C315.505,211.499,316.076,220.335,317.333,222.447z"/>
			<path fill="#7C6544" d="M332.268,222.216c0.074-0.591,0.819-8.727-0.782-12.137l0.385-0.317
				C331.871,209.762,333.429,213.065,332.268,222.216z"/>
			<polygon fill="#7C6544" points="320.772,220.576 321.501,220.555 321.447,218.804 321.848,218.792 320.979,217.833 
				320.353,218.838 320.647,218.902 			"/>
			<polyline fill="#B79B70" points="325.496,211.935 325.146,211.678 324.909,211.88 324.6,211.694 324.229,211.9 323.894,211.668 
				323.596,211.896 323.298,211.687 322.955,212.013 322.903,210.348 325.442,210.196 			"/>
		</g>
		<polygon fill="#7C6544" points="318.696,220.726 319.425,220.703 319.371,218.952 319.771,218.939 318.903,217.981 
			318.277,218.985 318.571,219.05 		"/>
	</g>
	<g>
		<g>
			<path fill="#987D55" d="M351.848,221.337l-14.935,0.008c0,0-1.492-6.865-0.045-11.496l16.046-0.21l0.369,0.691
				C353.283,210.33,353.027,219.181,351.848,221.337z"/>
			<path fill="#7C6544" d="M336.914,221.637c-0.095-0.588-1.128-8.021,0.35-11.485l-0.396-0.303
				C336.868,209.849,335.429,212.533,336.914,221.637z"/>
			<polygon fill="#7C6544" points="348.344,219.59 347.613,219.593 347.605,217.843 347.205,217.845 348.039,216.855 
				348.701,217.838 348.408,217.912 			"/>
			<polyline fill="#B79B70" points="343.247,211.52 343.587,211.251 343.829,211.444 344.134,211.249 344.511,211.44 
				344.839,211.196 345.144,211.414 345.434,211.194 345.787,211.508 345.787,209.731 343.237,209.781 			"/>
		</g>
		<polygon fill="#7C6544" points="350.424,219.665 349.695,219.668 349.688,217.917 349.285,217.919 350.119,216.929 
			350.781,217.911 350.488,217.985 		"/>
	</g>
	<path fill="#414042" d="M307.335,235.038c0,0-4.441-0.806-6.328-5.88c0,0-0.087-2.575,9.352-2.688c0,0,2.056,0.528,0.225,4.492
		c0,0-0.803,2.522-2.577,3.852l-0.263-0.855c0,0,2.772-2.785,2.38-6.146c0,0,0.392-0.56-2.296-0.28c0,0-5.208,0.567-5.376,1.659
		c0,0,1.113,3.318,4.087,4.613c0,0,0.344,0.091,0.617,0.133L307.335,235.038z"/>
	<path fill="#414042" d="M306.782,233.864c0,0,0.989,0.117,1.32-0.308c0.332-0.424-0.094,1.258-0.094,1.258l0.896,4.647l1.328-0.272
		l-0.197,1.68l-0.84-0.001l0.569,2.663l-0.231,2.274l-1.189,0.208L306.782,233.864z"/>
	<polygon fill="#414042" points="308.366,246.01 309.532,245.806 309.034,250.706 306.302,249.02 	"/>
	<polygon fill="#B85D28" points="310.36,237.67 312.391,237.351 315.288,237.727 316.016,243.717 316.556,249.102 312.859,249.441 
		312.225,249.514 312.292,250.78 309.026,250.78 	"/>
	<polygon fill="#934921" points="309.026,250.701 312.791,250.78 312.391,237.351 310.36,237.67 	"/>
	<polygon fill="#934921" points="353.031,254.288 352.582,254.793 310.335,254.361 306.652,252.734 306.652,251.614 
		308.902,250.703 312.292,250.78 312.468,253.784 	"/>
	<polygon fill="#B85D28" points="309.026,250.701 312.791,250.78 312.791,251.895 306.652,251.614 	"/>
	<polygon fill="#CBB786" points="312.216,249.5 355.266,249.921 354.887,254.288 312.468,253.784 	"/>
	<path fill="#58595B" d="M347.914,254.744l2.625,0.027c0,0-0.146,0.882-1.596,0.966
		C348.943,255.737,347.936,255.663,347.914,254.744z"/>
</g>
<g>
	<path fill="#395686" d="M586.71,194.742l8.297-2.43l24.81,2.43l8.297,21.037l-2.179,17.434h-4.358l-0.713,5.304l-14.458-0.022
		c0,0-3.498-14.186-18.146-12.992l-0.922-1.801L586.71,194.742z"/>
	<polygon fill="#5D6A81" points="593.634,197.844 595.552,195.676 618.684,196.933 619.281,198.158 613.184,198.315 
		613.403,203.439 611.77,209.631 610.072,198.725 	"/>
	<path fill="#5D6A81" d="M611.989,212.805l1.352-3.646l1.477,1.163l-1.414,4.62l11.001-2.325l0.975,2.325l-2.641,12.069h-2.577
		c0,0-2.138,0.125-3.709-2.546c0,0-4.432-8.298-5.092-8.989l1.038-0.346L611.989,212.805z"/>
	<path fill="#4D535D" d="M614.881,216.797l8.015-1.729l0.565,1.477l-2.168,8.203c0,0-1.823,0.566-2.767-0.848l-3.426-5.061
		L614.881,216.797z"/>
	<polygon fill="#4D535D" points="613.309,215.037 614.755,210.291 613.309,209.096 611.958,212.899 610.764,212.931 
		613.907,202.024 615.101,202.024 614.535,205.293 616.17,205.324 616.452,204.287 621.073,203.471 624.436,212.617 	"/>
	<polygon fill="#4D535D" points="593.634,199.699 596.431,199.51 596.431,205.419 598.631,205.419 601.806,211.396 594.263,210.762 
			"/>
	<path fill="#7E8DAA" d="M593.54,197.907v1.792h2.923v5.783h2.168l3.144,5.913c0,0,8.329,0.718,9.429,3.987l1.069-0.158v-2.294
		l-1.509-0.031l0.849-3.08l-1.571-11.001L593.54,197.907z"/>
	<polygon fill="#7E8DAA" points="613.12,198.379 619.124,198.379 621.073,203.345 616.483,204.256 616.201,205.355 614.755,205.355 
		615.227,201.867 613.875,201.867 613.466,203.502 	"/>
	<path fill="#9B9A97" d="M595.174,192.354l22.337,2.39c0,0-2.306-9.513-7.795-12.153c0,0-10.561-3.939-14.164-4.651l-1.09,1.005
		L595.174,192.354z"/>
	<polygon fill="#333330" points="584.027,207.945 587.045,206.814 587.045,208.699 584.027,209.957 	"/>
	<polygon fill="#333330" points="583.901,212.22 587.212,211.13 587.212,212.513 583.901,213.393 	"/>
	<polygon fill="#7B7A74" points="581.345,169.809 584.991,169.809 583.733,225.503 449.506,225.84 448.709,168.068 453.235,168.068 
		453.737,220.474 580.213,220.474 	"/>
	<polygon fill="#D3D1CC" points="453.108,169.683 581.314,171.189 580.213,220.474 453.612,220.6 	"/>
	<polygon fill="#E7E6E3" points="458.389,169.683 462.915,169.798 462.915,220.474 458.389,220.474 	"/>
	<polygon fill="#E7E6E3" points="465.933,169.859 470.459,169.935 470.459,220.474 465.933,220.474 	"/>
	<polygon fill="#E7E6E3" points="473.477,169.922 478.033,169.976 478.002,220.474 473.477,220.474 	"/>
	<polygon fill="#E7E6E3" points="481.521,170.017 486.048,170.07 486.048,220.474 481.521,220.474 	"/>
	<polygon fill="#E7E6E3" points="489.065,170.105 493.592,170.158 493.592,220.474 489.065,220.474 	"/>
	<polygon fill="#E7E6E3" points="496.608,170.193 501.135,170.247 501.135,220.474 496.608,220.474 	"/>
	<polygon fill="#E7E6E3" points="504.655,170.288 509.214,170.342 509.181,220.474 504.655,220.474 	"/>
	<polygon fill="#E7E6E3" points="511.695,170.371 516.221,170.424 516.221,220.474 511.695,220.474 	"/>
	<polygon fill="#E7E6E3" points="519.741,170.466 524.268,170.52 524.268,220.474 519.741,220.474 	"/>
	<polygon fill="#E7E6E3" points="527.284,170.555 531.811,170.607 531.811,220.474 527.284,220.474 	"/>
	<polygon fill="#E7E6E3" points="535.331,170.648 539.856,170.702 539.856,220.474 535.331,220.474 	"/>
	<polygon fill="#E7E6E3" points="542.874,170.738 547.399,170.791 547.399,220.474 542.874,220.474 	"/>
	<polygon fill="#E7E6E3" points="550.417,170.826 554.943,170.879 554.943,220.474 550.417,220.474 	"/>
	<polygon fill="#E7E6E3" points="558.463,170.921 562.989,170.974 562.989,220.474 558.463,220.474 	"/>
	<polygon fill="#E7E6E3" points="565.504,171.004 570.03,171.057 570.03,220.474 565.504,220.474 	"/>
	<polygon fill="#E7E6E3" points="573.047,171.092 577.573,171.146 577.573,220.474 573.047,220.474 	"/>
	<path fill="#333330" d="M453.108,225.754l130.625-0.251v-9.304l3.395-1.257l0.21,8.759l0.922,1.801c0,0,13.871-2.01,18.146,12.992
		h5.699l-1.844,2.851h-3.688l-0.168,1.173h-2.599c0,0-1.173-13.242-15.086-10.979c0,0-8.465,1.257-8.382,11.315h-4.861l0.168-9.053
		l-4.107-0.084l-0.084,1.928l-18.606,0.084l0.084,2.515h-15.506l-0.167-4.694l-13.746,0.084v5.28h-10.979l-0.084-2.599
		l-14.332-0.084c0,0-4.525-9.722-16.26-4.609c0,0-5.364,2.242-5.783,9.64c0,0-2.347,3.521-4.861,5.699h-1.425
		c0,0,5.28-7.963,6.789-16.009h-5.616l-1.76,5.867h-13.192l2.329-4.619l1.896-0.074l0.083-2.934l-7.208,0.084V225.754z"/>
	<g>
		<ellipse fill="#1E1E1C" cx="487.792" cy="241.359" rx="11.708" ry="11.582"/>
		<path fill="#C0BFBF" d="M485.043,236.062c0,0,1.215-0.629,2.766-0.377c0,0,0.796,2.43,4.064,1.634c0,0,1.803,1.048,1.677,4.022
			c0,0-2.892,1.51-1.635,4.107c0,0-1.126,1.258-2.616,1.676c0,0-1.867-1.55-3.545,0c0,0-2.556-1.173-2.682-2.012
			c0,0,0.629-2.012-1.299-3.352c0,0-0.042-2.138,0.335-2.641C482.108,239.121,485.084,238.869,485.043,236.062z"/>
		<ellipse fill="#0C0C0C" cx="487.682" cy="241.656" rx="1.718" ry="1.739"/>
	</g>
	<g>
		<ellipse fill="#1E1E1C" cx="591.89" cy="242.365" rx="11.708" ry="11.582"/>
		<path fill="#C0BFBF" d="M589.14,237.067c0,0,1.216-0.628,2.766-0.377c0,0,0.797,2.431,4.065,1.635c0,0,1.802,1.048,1.676,4.022
			c0,0-2.892,1.51-1.634,4.107c0,0-1.126,1.257-2.616,1.676c0,0-1.868-1.551-3.545,0c0,0-2.556-1.174-2.682-2.012
			c0,0,0.629-2.012-1.3-3.352c0,0-0.041-2.138,0.336-2.641C586.206,240.127,589.182,239.875,589.14,237.067z"/>
		<ellipse fill="#0C0C0C" cx="591.779" cy="242.662" rx="1.718" ry="1.739"/>
	</g>
	<polygon fill="#5C5A55" points="455.079,229.271 459.94,229.021 447.536,253.621 444.142,253.621 444.645,251.273 379.144,254.091 
		379.144,252.361 445.692,248.631 	"/>
	<path fill="#DAA628" d="M452.48,222.769h3.488c0,0,1.384,1.288-0.346,1.917h-2.985C452.638,224.686,451.412,224.119,452.48,222.769
		z"/>
	<path fill="#DAA628" d="M515.342,222.769h3.488c0,0,1.383,1.288-0.347,1.917h-2.985
		C515.498,224.686,514.272,224.119,515.342,222.769z"/>
	<path fill="#DAA628" d="M578.201,222.769h3.489c0,0,1.383,1.288-0.346,1.917h-2.986
		C578.358,224.686,577.133,224.119,578.201,222.769z"/>
	<path fill="#DAA628" d="M582.042,173.14h2.075c0,0,0.821,1.289-0.206,1.917h-1.775C582.136,175.057,581.407,174.492,582.042,173.14
		z"/>
	<path fill="#DAA628" d="M449.982,170.846h2.074c0,0,0.822,1.288-0.205,1.917h-1.775
		C450.076,172.763,449.348,172.197,449.982,170.846z"/>
	<g>
		<polygon fill="#A97C50" points="387.613,251.795 435.206,249.329 435.352,248.619 387.236,251.114 		"/>
		<polygon fill="#A97C50" points="387.267,245.109 434.86,242.643 435.077,243.332 386.963,245.825 		"/>
		<g>
			
				<rect x="389.779" y="245.53" transform="matrix(0.9987 -0.0516 0.0516 0.9987 -12.2739 20.58)" fill="#C49A6C" width="5.909" height="5.292"/>
			
				<rect x="398.991" y="245.052" transform="matrix(0.9987 -0.0519 0.0519 0.9987 -12.3118 21.191)" fill="#C49A6C" width="5.909" height="5.292"/>
			
				<rect x="408.202" y="244.576" transform="matrix(0.9987 -0.0517 0.0517 0.9987 -12.2374 21.5985)" fill="#C49A6C" width="5.909" height="5.29"/>
			
				<rect x="417.414" y="244.098" transform="matrix(0.9987 -0.0516 0.0516 0.9987 -12.1652 22.0066)" fill="#C49A6C" width="5.908" height="5.291"/>
			
				<rect x="426.625" y="243.621" transform="matrix(0.9987 -0.0517 0.0517 0.9987 -12.1633 22.5502)" fill="#C49A6C" width="5.909" height="5.29"/>
		</g>
	</g>
	<g>
		<polygon fill="#9E8063" points="388.871,242.082 389.609,244.987 433.931,242.689 434.889,239.695 		"/>
		<polygon fill="#9E8063" points="388.719,239.145 389.458,242.052 433.778,239.754 434.736,236.76 		"/>
		<polygon fill="#9E8063" points="387.133,236.383 387.889,239.287 433.596,236.919 434.589,233.922 		"/>
		<polygon fill="#9E8063" points="388.42,233.371 389.144,236.278 432.396,234.035 433.327,231.043 		"/>
		<polygon fill="#9E8063" points="388.268,230.435 389.006,233.342 433.327,231.043 434.284,228.05 		"/>
		<polygon fill="#726658" points="389.006,233.342 433.327,231.043 434.284,228.05 433.013,230.557 388.932,233.051 		"/>
		<polygon fill="#726658" points="389.144,236.278 432.396,234.035 433.327,231.043 432.088,233.549 389.071,235.986 		"/>
		<polygon fill="#726658" points="387.884,239.188 433.592,236.818 434.584,233.823 433.27,236.334 387.81,238.897 		"/>
		<polygon fill="#726658" points="389.458,242.052 433.778,239.754 434.736,236.76 433.465,239.267 389.384,241.76 		"/>
		<polygon fill="#726658" points="389.609,244.987 433.931,242.689 434.889,239.695 433.616,242.204 389.536,244.697 		"/>
		<polygon fill="#414042" points="395.26,230.072 395.561,230.057 398.154,244.545 397.935,244.557 		"/>
		<polygon fill="#414042" points="425.277,228.517 425.442,228.508 425.266,243.14 425.048,243.15 		"/>
	</g>
</g>
</svg>
