<?xml version="1.0" encoding="utf-8"?>
<!-- Generator: Adobe Illustrator 16.0.0, SVG Export Plug-In . SVG Version: 6.00 Build 0)  -->
<!DOCTYPE svg PUBLIC "-//W3C//DTD SVG 1.1//EN" "http://www.w3.org/Graphics/SVG/1.1/DTD/svg11.dtd">
<svg version="1.1" id="Layer_1" xmlns="http://www.w3.org/2000/svg" xmlns:xlink="http://www.w3.org/1999/xlink" x="0px" y="0px"
	 width="100.807px" height="286.29px" viewBox="0 0 100.807 286.29" enable-background="new 0 0 100.807 286.29"
	 xml:space="preserve">
<g>
	<path fill="#D4DEEC" d="M42.125,96.444l-10.625,3.75c0,0-2.75,44.375,2.25,60.875c0,0,23.5,3.5,39.5,0c0,0-2-33,0-50
		c0,0-0.25-7-5.25-9.75l-8-3.125c0,0,0.131,3.669-4.5,4v7.25l-2.375-6.625C53.125,102.819,45,102.319,42.125,96.444z"/>
	<g>
		<path fill="#E2C193" d="M32.5,56.819c0,0-8.25-20.875-16.25-6.875l1.916,4.89c0,0,4.584,20.235,14.334,12.985
			c0,0,4.875,12,14.625,19L44.5,95.194l-2.375,1.25c0,0,3.375,6,11,6.375l2.375,6.625v-7.25c0,0,4.625-0.375,4.5-4l-5-2.5
			l-0.25-5.625c0,0,17.691,2.497,23.25-28.25c0,0,1.396-7.505,1.447-16.189L74.5,23.819l-13.875-2.5l-12.776,1.625
			C47.849,22.944,29.875,33.569,32.5,56.819z"/>
		<path fill="#542626" d="M50.766,72.057c6.502,7.361,18.89,3.838,18.89,3.838C56.273,81.376,50.768,72.057,50.766,72.057z"/>
		<path fill="#333333" d="M56.812,44.979c0,0,1.803,0.784,0,2.664c0,0-10.888-0.473-12.375,2.036
			C44.438,49.679,40.207,42.941,56.812,44.979z"/>
		<path fill="#A08468" d="M61.765,70.67c16.548,5.09,2.409-18.015,2.409-18.015C79.056,77.798,61.765,70.67,61.765,70.67z"/>
		<ellipse fill="#333333" cx="70.873" cy="55.475" rx="2.781" ry="2.82"/>
		<ellipse fill="#333333" cx="51.873" cy="55.475" rx="2.781" ry="2.82"/>
		<path fill="#341D17" d="M51.037,28.25c0,0,16.713-2,21.713,0c0,0,3.25,29.062,18.25,15.531c0,0-5.75-1.531-6.75-5.031
			c0,0,3-0.268,4.5-1.383c0,0-5-3.117-5.917-6.45c0,0,1.416,0.417,2.083,0.083c0,0-10.25-30.5-25.25-20.5
			c0,0-25.666-21-37.666,20.333c0,0-2,6.5-11.5,6.667c0,0,2.667,7.5,6.5,9.167c0,0-1.834,1.245-4.667,0.706c0,0,1,3.628,5.833,7.461
			c0,0-2.333-6.833,2.167-7.333c0,0,9.5-0.333,10.667,11.667c0,0,2.667,0.667,3.667-3l1-10.833
			C35.667,45.333,48.074,42.833,51.037,28.25z"/>
		<path fill="#333333" d="M63.924,45.292c0,0,9.844-4.465,14.465,2.506c0,0,0.705,1.882-1.019,1.882c0,0-10.208-3.214-13.446-1.882
			V45.292L63.924,45.292z"/>
	</g>
	<path fill="#A6B5CA" d="M33.75,161.069c0,0,27,3.5,39.5,0c0,0-1.25,8-2.5,10.75l3.875,37.875c0,0,1.25,10.5-2.75,11.125
		L33.75,259.444c0,0-1.125-3-4.625-3.625l36.625-40.875l-7.125-37.625c0,0-3.424,1.125-7.587,0c0,0,2.038,89.5,0,96.75
		c0,0-4.288-1.5-5.038,1.25l-7.366-97.727C38.634,177.594,35.433,169.515,33.75,161.069z"/>
	<path fill="#191918" d="M27.539,257.5l-2.109,4.607l4.461,3.449c0,0,0.588-0.551,1.632,1.562c0,0,3.504,5.104,11.193,6.303
		c0,0,3.675,0.191,1.434-2.153c0,0-9.955-8.918-11.077-13.653C33.072,257.615,30.91,252.925,27.539,257.5z"/>
	<g>
		<path fill="#E2C193" d="M59.477,174.897c4.316,4.213,4.338,12.011,4.338,12.011c-1.768,2.739-2.467-1.072-2.467-1.072
			c-1.003-5.736-2.378-4.43-2.378-4.43c-0.609,2.059,2.126,6.396,2.126,6.396c3.815,2.25,3.027,5.119,3.027,5.119
			c-3.013,0.869-13.734-5.689-13.734-5.689c-3.436-2.631-2.735-8.711-2.735-8.711c1.041-2.17-0.938-8.287-0.938-8.287
			c3.049-7.889,7.806-0.562,7.806-0.562C55.443,170.84,59.477,174.897,59.477,174.897z"/>
		<path fill="#BEC9D9" d="M39.945,106.193c0,0-1.566-11.077-11.22-4.458c0,0-3.546,4.271-0.635,8.555
			c0,0,12.478,51.388,19.104,62.071l7.706-2.239c0,0-9.106-24.22-11.606-37.918L39.945,106.193z"/>
	</g>
	<path fill="#191918" d="M46.232,276.071l0.963,4.979l5.635,0.215c0,0,0.158-0.789,2.234,0.324c0,0,5.817,2.12,12.771-1.376
		c0,0,3.104-1.979-0.085-2.585c0,0-13.283-1.476-16.95-4.678C50.803,272.951,46.318,270.391,46.232,276.071z"/>
</g>
</svg>
