<?xml version="1.0" encoding="utf-8"?>
<!-- Generator: Adobe Illustrator 16.0.0, SVG Export Plug-In . SVG Version: 6.00 Build 0)  -->
<!DOCTYPE svg PUBLIC "-//W3C//DTD SVG 1.1//EN" "http://www.w3.org/Graphics/SVG/1.1/DTD/svg11.dtd">
<svg version="1.1" id="Layer_1" xmlns="http://www.w3.org/2000/svg" xmlns:xlink="http://www.w3.org/1999/xlink" x="0px" y="0px"
	 width="684px" height="296.64px" viewBox="0 0 684 296.64" enable-background="new 0 0 684 296.64" xml:space="preserve">
<rect x="-8.5" y="-28.961" fill="#AC9D87" width="765.5" height="396.667"/>
<g>
	<g id="cloud">
		<path fill="#EDEDED" d="M319.932,108.517c0,0-30.195,6.206-38.262-22.336c0,0-2.896-35.987,40.33-28.335
			c0,0,5.998-12.616,13.857-15.305c0,0,16.339-32.264,45.294-4.343c0,0,24.612-11.168,37.229,17.374c0,0,10.34,2.067,14.063,9.72
			c0,0,23.164-2.02,22.544,22.981c0,0-2.068,26.243-29.989,18.176c0,0-5.171,19.108-27.715,23.165c0,0-25.646,1.033-34.125-5.377
			C363.158,124.236,332.135,144.918,319.932,108.517z"/>
		<path fill="#C3E0E0" d="M325.93,68.6c0,0,22.957,4.344,19.855,29.989C345.785,98.589,355.919,72.944,325.93,68.6z"/>
		<path fill="#C3E0E0" d="M346.167,81.77c0,0,20.714,0.481,30.641-3.035C376.808,78.735,363.922,90.802,346.167,81.77z"/>
		<path fill="#C3E0E0" d="M380.117,92.178c0,0-4.964-14.27,4.136-23.578c0,0,4.344-6.618,19.855-6.618
			c0,0-13.857-7.239-26.473,11.582C377.636,73.564,370.396,84.112,380.117,92.178z"/>
	</g>
	<g id="iphone">
		<path opacity="0.3" fill="#0D0D0D" d="M598.869,62.656l-15.84,60.653c0,0-2.844,7.04,5.686,9.206l30.326,7.582
			c0,0,5.415,2.842,7.987-5.416l15.435-59.704c0,0,2.979-6.092-4.604-8.259l-31.273-8.258
			C606.586,58.459,600.504,56.396,598.869,62.656z"/>
		<path fill="#0D0D0D" d="M601.263,61.46l-15.841,60.652c0,0-2.843,7.041,5.687,9.207l30.326,7.581c0,0,5.415,2.844,7.987-5.416
			l15.435-59.704c0,0,2.979-6.092-4.603-8.258l-31.274-8.259C608.979,57.263,602.897,55.2,601.263,61.46z"/>
		<polygon fill="#373737" points="601.877,68.398 640.873,78.971 628.307,127.042 589.51,116.869 		"/>
		<circle fill="#212221" cx="607.213" cy="128.587" r="3.89"/>
	</g>
	<g id="laptop">
		<rect x="53.795" y="49.618" fill="#666699" width="109.818" height="76.283"/>
		<rect x="59.463" y="53.869" fill="#ACC9C9" width="97.301" height="68.017"/>
		<polygon fill="#8B8BB1" points="53.795,126.137 35.375,139.833 182.271,139.833 162.905,126.137 		"/>
		<polygon fill="#669A99" points="62.062,127.081 47.183,139.125 171.407,139.125 155.111,127.081 		"/>
		<polygon fill="#5F5F8D" points="35.788,140.306 182.625,140.306 182.625,145.974 35.788,146.859 		"/>
		<polygon fill="#82ACAC" points="56.689,131.626 70.858,132.866 72.807,127.198 61.294,127.198 		"/>
		<polygon fill="#82ACAC" points="93.708,132.866 94.771,139.42 114.078,139.42 114.078,132.866 		"/>
		<polygon fill="#82ACAC" points="141.354,132.866 163.496,132.866 171.998,139.42 144.72,139.42 		"/>
		<polygon fill="#82ACAC" points="114.254,133.043 140.646,133.043 138.875,129.855 129.488,129.855 128.425,127.376 
			113.546,127.376 		"/>
	</g>
	<g id="printer">
		<path fill="#CDCCCC" d="M291.667,278.328c0,0,1.873-28.947,7.492-37.461c0,0,8.939-13.451,32.011-15.835
			c0,0-24.86,5.193-28.606,24.86c0,0-3.235,22.476-2.384,28.436H291.667z"/>
		<path fill="#38465E" d="M300.18,278.328l74.92,3.064l73.502-2.837c0,0-0.113-19.81-1.135-23.215H301.833
			C301.833,255.341,299.329,275.434,300.18,278.328z"/>
		<path fill="#CDCCCC" d="M419.202,225.032c0,0,27.244,4.938,28.266,30.309l1.135,23.215h8.23c0,0-0.965-30.196-8.23-39.731
			C448.603,238.824,443.38,228.778,419.202,225.032z"/>
		<path fill="#38465E" d="M331.17,225.032l-3.405,8.854l-8.514,6.13h112.211c0,0-6.404-5.279-8.787-5.96l-3.234-8.977
			c0,0,26.154,4.72,28.027,30.261H301.833c0,0,1.712-13.673,6.167-18.004C308,237.337,318.57,227.757,331.17,225.032z"/>
		<path fill="#E5E5E5" d="M326.232,240.017l13.282-37.801c0,0,3.065-5.96,5.448-6.471h58.234c0,0,6.129-1.192,8.684,8.343
			l12.941,35.929H326.232z"/>
		<polygon fill="#333333" points="319.251,240.017 327.765,233.887 326.232,240.017 		"/>
		<path fill="#333333" d="M424.821,240.017h6.641c0,0-6.727-5.748-8.787-5.96L424.821,240.017z"/>
	</g>
	<g id="wave">
		<path fill="#98CA3C" d="M218.625,81.142l4.272-3.656c0,0,5.843,6.182,4.701,15.934c0,0-0.536,7.795-7,13.333l-3.667-4.286
			c0,0,4.022-3.388,4.874-8.449C221.804,94.019,222.803,86.252,218.625,81.142z"/>
		<path fill="#98CA3C" d="M226.984,74.004l4.271-3.654c0,0,9.183,9.589,7.221,24.551c0,0-0.437,10.908-10.74,20.195l-3.661-4.278
			c0,0,8.378-6.853,8.962-18.156C233.037,92.663,234.255,82.389,226.984,74.004z"/>
		<circle fill="#98CA3C" cx="212.404" cy="91.096" r="3.834"/>
	</g>
	<g id="wave_1_">
		<path fill="#98CA3C" d="M520.292,82.543l4.272-3.656c0,0,5.843,6.182,4.7,15.934c0,0-0.536,7.795-7.001,13.333l-3.667-4.286
			c0,0,4.022-3.388,4.874-8.449C523.471,95.42,524.47,87.654,520.292,82.543z"/>
		<path fill="#98CA3C" d="M528.65,75.406l4.271-3.654c0,0,9.184,9.589,7.221,24.551c0,0-0.437,10.908-10.74,20.195l-3.66-4.278
			c0,0,8.377-6.853,8.961-18.156C534.703,94.064,535.922,83.79,528.65,75.406z"/>
		<circle fill="#98CA3C" cx="514.071" cy="92.497" r="3.834"/>
	</g>
	<g id="wave_2_">
		<path fill="#98CA3C" d="M389.522,154.903l4.013,3.938c0,0-5.65,6.358-15.465,6.067c0,0-7.813,0.143-13.892-5.816l3.951-4.025
			c0,0,3.725,3.713,8.84,4.121C376.97,159.188,384.793,159.51,389.522,154.903z"/>
		<path fill="#98CA3C" d="M397.358,162.61l4.012,3.938c0,0-8.754,9.981-23.831,9.326c0,0-10.904,0.513-21.052-8.944l3.944-4.019
			c0,0,7.554,7.75,18.865,7.35C379.297,170.261,389.638,170.582,397.358,162.61z"/>
		<circle fill="#98CA3C" cx="379.065" cy="149.57" r="3.834"/>
	</g>
</g>
</svg>
