<?xml version="1.0" encoding="utf-8"?>
<!-- Generator: Adobe Illustrator 16.0.0, SVG Export Plug-In . SVG Version: 6.00 Build 0)  -->
<!DOCTYPE svg PUBLIC "-//W3C//DTD SVG 1.1//EN" "http://www.w3.org/Graphics/SVG/1.1/DTD/svg11.dtd">
<svg version="1.1" id="Layer_1" xmlns="http://www.w3.org/2000/svg" xmlns:xlink="http://www.w3.org/1999/xlink" x="0px" y="0px"
	 width="684px" height="296.64px" viewBox="0 0 684 296.64" enable-background="new 0 0 684 296.64" xml:space="preserve">
<rect x="-31" y="-65.667" fill="#A8B5A6" width="854.667" height="486.667"/>
<g>
	<circle fill="#676767" cx="199.25" cy="215.146" r="11.337"/>
	<circle fill="#CDCCCC" cx="199.25" cy="215.146" r="7.601"/>
	<g>
		<ellipse fill="none" stroke="#232323" stroke-width="2" stroke-miterlimit="10" cx="199.333" cy="214.5" rx="56" ry="56.5"/>
		
			<ellipse fill="none" stroke="#454545" stroke-width="5" stroke-miterlimit="10" cx="199.333" cy="214.749" rx="58.667" ry="58.916"/>
		
			<ellipse fill="none" stroke="#4F4F4F" stroke-width="5" stroke-miterlimit="10" cx="199.583" cy="214.748" rx="63.25" ry="63.417"/>
		
			<ellipse fill="none" stroke="#686868" stroke-width="5" stroke-miterlimit="10" cx="199.5" cy="214.906" rx="67.833" ry="68.092"/>
		<circle fill="none" stroke="#9D9D9D" stroke-width="5" stroke-miterlimit="10" cx="199.25" cy="214.98" r="72.534"/>
	</g>
	<g>
		<ellipse fill="none" stroke="#232323" stroke-width="2" stroke-miterlimit="10" cx="476.922" cy="217.018" rx="56" ry="56.5"/>
		
			<ellipse fill="none" stroke="#454545" stroke-width="5" stroke-miterlimit="10" cx="476.921" cy="217.267" rx="58.667" ry="58.916"/>
		
			<ellipse fill="none" stroke="#4F4F4F" stroke-width="5" stroke-miterlimit="10" cx="477.172" cy="217.266" rx="63.25" ry="63.417"/>
		
			<ellipse fill="none" stroke="#686868" stroke-width="5" stroke-miterlimit="10" cx="477.088" cy="217.424" rx="67.833" ry="68.092"/>
		<circle fill="none" stroke="#9D9D9D" stroke-width="5" stroke-miterlimit="10" cx="476.838" cy="217.498" r="72.534"/>
	</g>
	<circle fill="#676767" cx="474.583" cy="216.146" r="11.337"/>
	<circle fill="#CDCCCC" cx="474.583" cy="216.146" r="7.601"/>
	<polygon fill="#333333" points="194.575,214.783 201.362,217.498 232.583,116.14 224.892,112.973 	"/>
	<polygon fill="none" points="205.25,219.25 201.362,217.498 232.583,116.14 235.25,116.14 	"/>
	<polygon fill="#666699" points="224.892,112.973 234.125,83.875 244.125,87 235.25,116.875 	"/>
	<polygon fill="#333333" points="235.25,84.227 235.25,75 242,77.125 241.15,86.07 	"/>
	<polygon fill="#1F1F1F" points="226.625,66.25 224.892,71.75 242,77.125 241.15,86.07 244.125,87 247.125,79 247.125,74.25 	"/>
	<polygon fill="#333333" points="247.125,74.25 247.125,71.125 229.25,64.875 226.625,64.875 226.625,66.25 	"/>
	<path fill="#1F1F1F" d="M229.25,64.875l17.875-40.124v-1.917h8.208c0,0,7.5-7.083,2.5-12c0,0-4.844-5.296-11.255-3.107
		l-19.557,57.21L229.25,64.875z"/>
	<path fill="#333333" d="M227.125,64.875l17-44.375h6.25c0,0,7.875-4.125,5.75-11.625c0,0-6.375-5.667-11.958,1l-4,0.042
		l-15.169,61.5L227.125,64.875z"/>
	<polygon fill="#666699" points="244.125,87 381.167,124.833 477.25,217.498 378.5,133 350.875,197.875 342.875,196.125 
		343.75,191.25 367.875,131.5 242.904,91.11 	"/>
	<polygon fill="#666699" points="242,95 344.875,192.375 332.25,198.625 330.875,197.5 239.211,103.54 	"/>
	<ellipse fill="#4D4E74" cx="341" cy="205.604" rx="12.876" ry="12.482"/>
	<polygon fill="#4D4E74" points="353.104,201.339 469.125,214.5 377.651,134.993 378.5,133 476.839,217.146 349.95,214.569 	"/>
	<polygon fill="#4D4E74" points="242,95 366.305,135.389 367.875,131.5 242.904,91.11 	"/>
	<polygon fill="#4D4E74" points="236.859,111.458 328.621,202.174 331.069,197.659 239.211,103.54 	"/>
	<path fill="#333333" d="M379.469,124.365l2.781-8.225l13,8.225c0,0,7.5,8.885,13-5.615c0,0,1.75-4.25-16.75-9l-39.667-7.25l-5,1.04
		c0,0-0.833,3.127,7.043,3.71l20.874,6l-3.925,8.729L379.469,124.365z"/>
</g>
</svg>
