<?xml version="1.0" encoding="utf-8"?>
<!-- Generator: Adobe Illustrator 16.0.0, SVG Export Plug-In . SVG Version: 6.00 Build 0)  -->
<!DOCTYPE svg PUBLIC "-//W3C//DTD SVG 1.1//EN" "http://www.w3.org/Graphics/SVG/1.1/DTD/svg11.dtd">
<svg version="1.1" id="layer" xmlns="http://www.w3.org/2000/svg" xmlns:xlink="http://www.w3.org/1999/xlink" x="0px" y="0px"
	 width="684px" height="296.641px" viewBox="0 0 684 296.641" enable-background="new 0 0 684 296.641" xml:space="preserve">
<rect y="0" fill="#A07B52" stroke="#937B65" stroke-miterlimit="10" width="684" height="296.641"/>
<g id="board">
	<rect x="398.677" y="21.539" fill="#7A6354" width="127.334" height="68.382"/>
	<rect x="400.44" y="23.919" fill="#69564B" width="124.002" height="64.271"/>
	<rect x="402.692" y="26.949" fill="#A58A77" width="119.498" height="58.212"/>
	<rect x="405.655" y="29.126" fill="#537687" width="113.377" height="53.856"/>
	<polygon fill="#3B5159" points="405.655,69.363 411.802,69.363 411.802,60.707 421.009,60.707 421.009,69.363 427.669,69.363 
		429.04,76.288 436.878,76.288 436.878,69.795 447.456,69.363 447.456,59.625 453.038,59.625 452.94,52.917 460.972,52.917 
		460.972,72.609 473.999,72.826 474.099,61.14 484.677,61.14 484.677,71.311 488.007,71.419 488.007,67.848 492.315,67.74 
		492.315,71.96 497.214,71.96 497.114,78.452 503.091,78.452 509.163,78.452 509.163,71.527 513.276,71.527 513.081,63.521 
		519.032,63.737 519.032,82.982 405.655,82.982 	"/>
	<polygon fill="#3B5159" points="464.694,59.625 464.694,72.671 469.103,72.744 469.103,59.625 	"/>
	<ellipse fill="#3B5159" cx="466.898" cy="59.869" rx="2.203" ry="1.055"/>
	<polygon fill="#D0D2D3" points="436.976,29.126 435.267,29.126 443.438,82.982 445.015,82.982 	"/>
	<polygon fill="#D0D2D3" points="443.587,29.126 442.614,29.126 450.786,82.982 452.009,82.982 	"/>
</g>
<g id="fridge">
	<path fill="#72B5B5" d="M221.101,177.662h73.203c0,0,8.727-87.397,5.333-117.502c0,0-39.268-42.727-88.716,6.313
		C210.92,66.473,213.344,113.083,221.101,177.662z"/>
	<path fill="#1A827D" d="M294.303,177.662c0,0,8.242-95.167,5.333-117.502c0,0-38.783-40.785-88.716,6.313
		c0,0,19.876-27.191,61.568-33.502c0,0,35.874-4.856,48.963,19.421v105.846L294.303,177.662z"/>
	<polygon fill="#243332" points="226.433,177.662 294.303,177.662 318.838,160.109 318.838,168.885 294.788,185.43 229.342,185.43 	
		"/>
	<rect x="216.328" y="133.955" fill="#243332" width="81.128" height="2.484"/>
	<path fill="#77BCB4" d="M216.328,133.955c0,0-5.892-53.887-5.408-67.481c0,0,43.631-44.672,88.716-6.313l-2.181,73.795l-8.97-0.964
		l1.455-68.461c0,0-31.511-30.588-70.779,3.398l3.393,66.026H216.328z"/>
	<path fill="#E6E8E7" d="M225.651,100.134l-3.169,1.26c0,0-1.879,10.042,0,13.914l3.169,2.47l-0.429-2.749l-1.573-1.241
		l0.411-10.853l1.591-1.262V100.134z"/>
	<path fill="#95A09F" d="M225.651,100.134l-2.348,1.26c0,0-1.878,10.042,0,13.914l2.348,2.47v-2.47l-1.591-1.03v-11.342l1.591-1.262
		V100.134z"/>
	<polyline fill="#243332" points="297.456,133.955 304.969,132.7 304.969,135.209 297.456,136.439 	"/>
	<path fill="#243332" d="M231.714,48.185c0,0,36.411-26.141,76.405,3.963l-3.662,118.42l-0.77,0.553l3.705-118.566
		c0,0-32.723-29.214-75.142-4.208L231.714,48.185z"/>
	<path fill="#EFEFEF" d="M240.337,69.062l14.543,1.294c0,0-0.001,14.082-1.293,15.376h-13.25
		C240.337,85.732,241.953,73.432,240.337,69.062z"/>
	<path fill="#939393" d="M241.461,69.75l12.12,1.335c0,0,0.067,13.039-0.845,14.163h-11.518
		C241.219,85.248,242.602,73.541,241.461,69.75z"/>
	<ellipse fill="#E95242" cx="247.17" cy="69.771" rx="1.284" ry="1.234"/>
	<ellipse fill="#A35853" cx="247.038" cy="69.771" rx="1.151" ry="1.234"/>
	<path fill="#505251" d="M241.536,82.071l0.956-0.911l0.909,0.455l1.818-0.455v-2.55c0,0,0.667,0.425,1.272,0v2.792l2.303,0.121
		l1.515,1.152l1.151-0.909l1.813,0.55l-0.537,2.931h-11.518L241.536,82.071z"/>
	<path fill="#505251" d="M245.219,78.61c0,0,0.687-0.446,1.272,0"/>
</g>
<g id="caboard">
	<polygon fill="#66563F" points="360.044,138.443 390.881,117.913 390.881,165.133 358.775,188.059 	"/>
	<polygon fill="#858C8B" points="357.087,136.646 299.636,136.646 333.431,114.577 390.881,114.577 	"/>
	<polygon fill="#779997" points="299.636,142.892 301.749,186.947 358.775,188.059 360.044,139.127 	"/>
	<rect x="299.636" y="136.646" fill="#666B6A" width="57.451" height="6.929"/>
	<polygon fill="#555656" points="390.881,114.577 357.087,136.646 357.087,143.576 390.881,121.25 	"/>
	<polyline fill="#A0C1BF" points="357.087,143.576 357.087,185.832 301.695,185.832 299.636,143.576 	"/>
	<polygon fill="#779997" points="343.852,151.787 343.852,154.697 315.266,154.697 315.266,175.57 313.999,152.986 	"/>
</g>
<g id="caboard_1_">
	<polygon fill="#66563F" points="420.45,138.578 451.288,117.932 451.288,165.418 419.183,188.473 	"/>
	<polygon fill="#858C8B" points="417.493,136.771 360.044,136.771 393.838,114.577 451.288,114.577 	"/>
	<polygon fill="#779997" points="360.044,143.051 362.154,187.354 419.183,188.473 420.45,139.266 	"/>
	<rect x="360.044" y="136.771" fill="#666B6A" width="57.449" height="6.968"/>
	<polygon fill="#555656" points="451.288,114.577 417.493,136.771 417.493,143.739 451.288,121.287 	"/>
	<polyline fill="#A0C1BF" points="417.493,143.739 417.493,186.234 362.104,186.234 360.044,143.739 	"/>
	<polygon fill="#779997" points="404.257,151.998 404.257,154.924 375.673,154.924 375.673,175.914 374.406,153.203 	"/>
</g>
<g id="maker">
	<path fill="#B04444" d="M318.495,81.645l3,41.5l-0.75,4.25c0,0,27.375,5.125,40.125,0c0,0,5.5-3.375,0-8.625
		c0,0-4.625-5.285-25.75-3.33l1-20.295c0,0,16.25,3.125,21.5-3.5c0,0,6.625-4.875-1.75-11.5l-28.75-1
		C327.12,79.145,322.187,79.46,318.495,81.645z"/>
	<path fill="#943737" d="M335.12,115.439l-4.125,4.955V85.77c0,0,2.035,8.938,5.125,9.375L335.12,115.439z"/>
	<path fill="#CE6767" d="M318.495,81.645c0,0,17.708,5.781,40.229,1.391c0,0-1.104-1.016-2.854-2.891c0,0-27.922-1.271-29.375-1
		C326.495,79.145,320.995,79.895,318.495,81.645z"/>
	<path fill="#7C2424" d="M326.093,82.969v36.677c0,0,21.314,3.375,35.609,0c0,0-4.457-6.875-22.332-6l-4.156,0.016l-4.219,2.848
		V85.77c0,0,1.916,8.583,5.125,9.375c0,0,20.606,3.85,23.93-7.514c0,0,0.277-1.83-1.325-4.596
		C358.725,83.036,342.62,86.77,326.093,82.969z"/>
	<ellipse fill="#6CA542" cx="327.12" cy="108.854" rx="2.375" ry="2.584"/>
	<ellipse fill="#648C44" cx="326.823" cy="109.159" rx="2.078" ry="2.278"/>
</g>
<g id="jug">
	<path fill="#7B7B7B" d="M350.898,102.324l4.24-2.232c0,0,2.641,6.328-0.328,10.109l-0.438,2.293c0,0,6.063-1.979,1.438-13.668
		l-6.199,2.943L350.898,102.324z"/>
	<path fill="#C1BFBF" d="M355.813,109.782c0,4.919-3.992,8.458-8.916,8.458c-3.489,0-6.246,0.626-8.354-0.073
		c-4.086-1.354-5.736-4.935-5.564-8.386c0.086-1.721,0.698-3.31,1.872-4.572c1.631-1.756,9.18-2.886,12.045-2.886
		C351.818,102.324,355.813,105.664,355.813,109.782z"/>
	<path fill="#994445" d="M335.312,100.826l15.167,1l1.834,2.167l-15.334,0.833C336.978,104.826,337.146,102.493,335.312,100.826z"/>
	<path fill="#994445" d="M336.646,102.826"/>
	<path fill="#C1BFBF" d="M339.562,105.54"/>
	<path fill="#563B3A" d="M334.896,110.282h19.583c0,0-0.1,4.205-3.832,5.627c0,0-8.75,2.083-12.334-0.417
		C338.312,115.493,335.062,114.072,334.896,110.282z"/>
	<path fill="#5C4A49" d="M334.896,110.338c0,0,7.332-2.917,19.583,0C354.479,110.338,341.396,113.004,334.896,110.338z"/>
	<path fill="#D2D0CF" d="M340.979,104.609c0,0-3.914,5.641,0,11.887l-1.418-0.375c0,0-2.061-3.625-0.322-11.418L340.979,104.609z"/>
</g>
<g id="micro_ovan">
	<polygon fill="#848484" points="371.77,99.531 387.764,91.648 440.317,91.648 439.302,120.465 420.345,131.227 371.77,131.227 	"/>
	<polygon fill="#B6B7B7" points="371.77,99.531 422.038,99.531 420.345,131.227 371.77,131.227 	"/>
	<polygon fill="#1B1B1C" points="377.016,104.441 405.28,104.441 403.081,127.443 377.016,127.443 	"/>
	<polygon fill="#848484" points="378.454,107.026 402.741,107.026 401.304,124.859 378.454,124.859 	"/>
	<polygon fill="#BFBFBF" points="422.038,99.531 422.716,98.498 421.106,130.836 420.345,131.227 	"/>
	<polygon fill="#EFEFEF" points="373.518,98.498 422.716,98.498 422.038,99.531 371.77,99.531 	"/>
	<polygon fill="#636464" points="422.716,98.498 440.317,91.648 439.528,120.896 421.106,130.836 	"/>
	<polygon fill="#2D2D2D" points="407.849,99.531 408.384,99.531 404.308,131.227 403.718,131.227 	"/>
	<polygon fill="#2D2D2D" points="410.782,104.441 419.218,104.441 418.44,109.438 410.077,109.438 	"/>
	<ellipse fill="#695F4E" cx="413.124" cy="121.154" rx="3.047" ry="4.824"/>
	<ellipse fill="#B29D7F" cx="413.124" cy="121.111" rx="2.85" ry="4.436"/>
	<polygon fill="#DBC7AF" points="413.47,117.45 413.47,125.052 412.063,120.127 	"/>
	<polygon fill="#BCAA96" points="413.47,117.45 412.978,117.45 411.714,119.993 413.03,125.052 413.47,125.052 412.239,119.993 	"/>
</g>
<g id="cup_4_">
	<g id="cup_3_">
		<path fill="#9F9D9B" d="M416.544,85.915l-1.303,9.639c0,0,6.244,1.529,11.678-0.129l-1.209-9.51H416.544z"/>
		<ellipse fill="#EFEEED" cx="421.127" cy="85.915" rx="4.583" ry="1.243"/>
		<ellipse fill="#9F9D9B" cx="421.092" cy="85.906" rx="4.464" ry="1.042"/>
		<path fill="#EFEEED" d="M422.017,86.948l1.097,9.151c0,0,2.809-0.267,3.807-0.675l-1.209-9.51
			C425.71,85.915,424.737,86.873,422.017,86.948z"/>
	</g>
	<g id="cup_2_">
		<path fill="#9F9D9B" d="M416.595,81.753l-1.303,9.639c0,0,6.246,1.529,11.68-0.127l-1.211-9.512H416.595z"/>
		<ellipse fill="#EFEEED" cx="421.178" cy="81.753" rx="4.583" ry="1.243"/>
		<ellipse fill="#9F9D9B" cx="421.145" cy="81.744" rx="4.465" ry="1.042"/>
		<path fill="#EFEEED" d="M422.067,82.787l1.098,9.15c0,0,2.807-0.266,3.807-0.673l-1.211-9.512
			C425.761,81.753,424.79,82.71,422.067,82.787z"/>
	</g>
	<g id="cup_1_">
		<path fill="#9F9D9B" d="M416.544,77.95l-1.303,9.638c0,0,6.244,1.529,11.678-0.128l-1.209-9.51H416.544z"/>
		<ellipse fill="#EFEEED" cx="421.127" cy="77.95" rx="4.583" ry="1.243"/>
		<ellipse fill="#9F9D9B" cx="421.092" cy="77.94" rx="4.464" ry="1.042"/>
		<path fill="#EFEEED" d="M422.017,78.982l1.097,9.149c0,0,2.809-0.264,3.807-0.673l-1.209-9.51
			C425.71,77.95,424.737,78.907,422.017,78.982z"/>
	</g>
	<g id="cup">
		<path fill="#9F9D9B" d="M416.544,73.072l-1.303,9.638c0,0,6.244,1.53,11.678-0.127l-1.209-9.511H416.544z"/>
		<ellipse fill="#EFEEED" cx="421.127" cy="73.072" rx="4.583" ry="1.243"/>
		<ellipse fill="#9F9D9B" cx="421.092" cy="73.062" rx="4.464" ry="1.042"/>
		<path fill="#EFEEED" d="M422.017,74.104l1.097,9.15c0,0,2.809-0.265,3.807-0.673l-1.209-9.511
			C425.71,73.072,424.737,74.029,422.017,74.104z"/>
	</g>
	<path fill="#919191" d="M415.739,82.796l-0.062,0.363c0,0,6.967,1.142,10.906-0.182l-0.061-0.284
		C426.524,82.694,418.604,83.382,415.739,82.796z"/>
	<path fill="#919191" d="M415.739,87.873l-0.062,0.363c0,0,6.967,1.142,10.906-0.182l-0.061-0.285
		C426.524,87.77,418.604,88.458,415.739,87.873z"/>
	<path fill="#919191" d="M415.784,91.676l-0.06,0.363c0,0,6.968,1.144,10.904-0.182l-0.059-0.284
		C426.571,91.574,418.649,92.26,415.784,91.676z"/>
</g>
<g id="cup_5_">
	<g id="cup_9_">
		<path fill="#9F9D9B" d="M407.403,88.528l-1.068,8.526c0,0,5.121,1.354,9.576-0.113l-0.992-8.413H407.403z"/>
		<ellipse fill="#EFEEED" cx="411.161" cy="88.528" rx="3.758" ry="1.1"/>
		<ellipse fill="#9F9D9B" cx="411.133" cy="88.521" rx="3.659" ry="0.921"/>
		<path fill="#EFEEED" d="M411.89,89.442l0.898,8.095c0,0,2.303-0.235,3.123-0.596l-0.992-8.413
			C414.919,88.528,414.122,89.375,411.89,89.442z"/>
	</g>
	<g id="cup_8_">
		<path fill="#9F9D9B" d="M407.446,84.846l-1.068,8.525c0,0,5.119,1.354,9.574-0.112l-0.992-8.413H407.446z"/>
		<ellipse fill="#EFEEED" cx="411.203" cy="84.846" rx="3.757" ry="1.1"/>
		<ellipse fill="#9F9D9B" cx="411.175" cy="84.838" rx="3.66" ry="0.922"/>
		<path fill="#EFEEED" d="M411.933,85.76l0.898,8.096c0,0,2.303-0.234,3.121-0.596l-0.992-8.413
			C414.96,84.846,414.165,85.693,411.933,85.76z"/>
	</g>
	<g id="cup_7_">
		<path fill="#9F9D9B" d="M407.403,81.482l-1.068,8.525c0,0,5.121,1.354,9.576-0.112l-0.992-8.413H407.403z"/>
		<ellipse fill="#EFEEED" cx="411.161" cy="81.482" rx="3.758" ry="1.1"/>
		<ellipse fill="#9F9D9B" cx="411.133" cy="81.473" rx="3.659" ry="0.922"/>
		<path fill="#EFEEED" d="M411.89,82.396l0.898,8.095c0,0,2.303-0.234,3.123-0.596l-0.992-8.413
			C414.919,81.482,414.122,82.329,411.89,82.396z"/>
	</g>
	<g id="cup_6_">
		<path fill="#9F9D9B" d="M407.403,77.167l-1.068,8.526c0,0,5.121,1.354,9.576-0.113l-0.992-8.414L407.403,77.167L407.403,77.167z"
			/>
		<ellipse fill="#EFEEED" cx="411.161" cy="77.167" rx="3.758" ry="1.1"/>
		<ellipse fill="#9F9D9B" cx="411.133" cy="77.158" rx="3.659" ry="0.922"/>
		<path fill="#EFEEED" d="M411.89,78.08l0.898,8.096c0,0,2.303-0.233,3.123-0.596l-0.992-8.414
			C414.919,77.167,414.122,78.014,411.89,78.08z"/>
	</g>
	<path fill="#919191" d="M406.743,85.769l-0.049,0.321c0,0,5.711,1.011,8.94-0.16l-0.049-0.251
		C415.587,85.679,409.093,86.287,406.743,85.769z"/>
	<path fill="#919191" d="M406.743,90.26l-0.049,0.321c0,0,5.711,1.01,8.94-0.161l-0.049-0.252
		C415.587,90.168,409.093,90.777,406.743,90.26z"/>
	<path fill="#919191" d="M406.782,93.624l-0.049,0.321c0,0,5.711,1.011,8.938-0.161l-0.047-0.251
		C415.626,93.534,409.13,94.142,406.782,93.624z"/>
</g>
<g id="water_docter">
	<g id="water_tank">
		<path fill="#B3C1C6" d="M435.569,105.805v30.896c0,0,10.408,6.271,24.53,0v-30.896
			C460.101,105.805,448.875,99.675,435.569,105.805z"/>
		<ellipse fill="#6A797D" cx="447.761" cy="105.446" rx="12.711" ry="3.388"/>
		<path fill="#B3C1C6" d="M460.101,136.701c0,0,0.446,2.596-1.487,2.787l-21.63-0.02c0,0-2.379,0.07-1.413-2.768v-5.64h24.53
			V136.701L460.101,136.701z"/>
		<ellipse fill="#8F9599" cx="447.835" cy="105.805" rx="12.266" ry="2.767"/>
		<ellipse fill="#CACCCE" cx="447.984" cy="105.813" rx="10.37" ry="2.338"/>
		<path fill="#7A8E93" d="M435.831,118.818v16.456v1.572c0,0-0.614,2.097,1.003,2.254h21.52c0,0,1.227-0.578,1.227-1.841
			l0.221-18.441H435.831z"/>
		<ellipse fill="#8E9BA8" cx="447.473" cy="137.901" rx="6.504" ry="1.199"/>
		<path fill="#B6B7B7" d="M435.569,136.643c0,0,19.997,0.147,24.53,0v-0.253c0,0-23.415,0.126-24.53-0.054V136.643z"/>
		<ellipse fill="#94A8B9" cx="447.872" cy="105.892" rx="7.025" ry="1.314"/>
		<path fill="#90AAAF" d="M459.803,118.818c0,1.654-5.439,2.996-12.061,2.996c-6.62,0-11.911-1.341-11.911-2.996
			s5.292-2.995,11.911-2.995C454.362,115.823,459.803,117.164,459.803,118.818z"/>
		<ellipse fill="#B6B7B7" cx="439.807" cy="127.217" rx="0.669" ry="0.639"/>
		<ellipse fill="#B6B7B7" cx="443.115" cy="123.6" rx="0.854" ry="0.806"/>
		<ellipse fill="#B6B7B7" cx="444.899" cy="135.549" rx="0.334" ry="0.275"/>
	</g>
	<g id="cleaner">
		<path fill="#E6E7E8" d="M419.325,187.979l27.389,1.307l19.279-7.282l-0.096-41.475c0,0-0.996-2.893-5.229-2.122l-36.367-0.13
			c0,0-4.978-0.063-4.978,3.41C419.324,145.16,419.325,187.979,419.325,187.979z"/>
		<polygon fill="#E5E5E5" points="419.325,141.879 446.955,142.265 465.897,142.458 465.897,180.07 446.714,189.286 
			419.325,187.979 		"/>
		<polygon fill="#F2F2F2" points="419.325,141.879 446.963,140.68 446.714,189.286 419.325,187.979 		"/>
		<polyline fill="#727373" points="419.325,174.863 446.788,174.863 450.876,174.477 450.824,189.246 450.083,189.529 
			450.19,175.152 446.785,175.541 419.325,175.73 		"/>
		<path fill="#D1D3D4" d="M465.897,142.329c0,0,1.222-3.961-5.054-3.951c-6.274,0.012-0.175,0.028-0.175,0.028h-10.895
			c0,0-2.694-0.289-2.695,1.64l-0.124,2.219L465.897,142.329z"/>
		<path fill="#E5E5E5" d="M427.602,151.233h9.149c0,0,1.059,0.049,1.059,0.771v8.486c0,0,0.123,0.674-1.059,0.674
			c-1.183,0-8.09,0-8.09,0s-1.681,0.193-1.743-1.104v-7.91C426.918,152.15,426.854,151.233,427.602,151.233z"/>
		<path fill="#898888" d="M428.566,151.233c0,0-0.839,0.556-0.809,1.665v7.619l-0.448,0.344c0,0-0.369-0.223-0.381-0.689v-7.877
			c0,0-0.127-0.898,0.562-1.053L428.566,151.233z"/>
		<path fill="#CCCBCA" d="M427.758,160.518l10.053,0.069c0,0,0,0.509-0.873,0.591h-8.631c0,0-0.693,0-0.997-0.316L427.758,160.518z"
			/>
		<rect x="429.154" y="151.233" fill="#CCB7A3" width="2.085" height="3.245"/>
		<polygon fill="#D8D5D4" points="431.826,151.233 431.826,154.004 431.239,154.479 431.239,151.233 		"/>
		<polygon fill="#F47751" points="429.666,154.479 431.069,154.479 430.576,155.802 429.154,155.802 		"/>
		<rect x="433.35" y="151.233" fill="#CCB7A3" width="2.085" height="3.245"/>
		<polygon fill="#D8D5D4" points="436.023,151.233 436.023,154.004 435.435,154.479 435.435,151.233 		"/>
		<polygon fill="#5F8AC7" points="433.863,154.479 435.267,154.479 434.771,155.802 433.35,155.802 		"/>
		<path fill="#AEADAE" d="M443.556,142.218"/>
	</g>
</g>
<g id="table">
	<rect x="277.556" y="202.736" fill="#68655E" width="10.223" height="55.578"/>
	<polygon fill="#4C463E" points="276.826,202.736 287.779,223.457 288.327,202.736 	"/>
	<path fill="#6E868E" d="M207.983,185.871c0,0-0.73,4.617,0,6.209c0,0,14.807,12.103,77.24,12.103
		c22.112,0,68.151-3.104,77.403-12.103v-6.209H207.983z"/>
	<ellipse fill="#87A4AF" cx="285.223" cy="185.871" rx="77.403" ry="9.959"/>
	<ellipse fill="#3E6375" cx="285.223" cy="184.479" rx="77.403" ry="9.959"/>
	<polygon fill="#695C4B" points="222.79,271.781 222.79,273.818 276.34,263.055 279.625,283.615 286.198,283.615 287.779,264.02 
		334.757,269.48 334.757,266.428 286.503,260.379 280.477,281.42 277.556,260.002 	"/>
	<polygon fill="#68655E" points="277.556,256.76 224.25,268.754 222.79,271.967 277.556,260.188 279.503,281.605 285.833,281.605 
		286.563,260.83 334.757,266.613 333.052,261.473 287.779,255.477 	"/>
</g>
<g id="chair">
	<polygon fill="#735A2F" points="168.389,235.479 178.869,234.832 177.764,274.443 174.583,274.641 	"/>
	<polygon fill="#735A2F" points="198.128,232.186 208.605,232.879 202.036,276.324 198.856,276.113 	"/>
	<polygon fill="#735A2F" points="219.82,216.125 230.296,216.818 221.477,257.383 219.797,257.172 	"/>
	<polygon fill="#735A2F" points="185.563,216.125 196.04,216.818 188.721,258.822 187.041,258.611 	"/>
	<path fill="#8DA4AA" d="M162.383,209.006"/>
	<path fill="#54686D" d="M182.386,158.43c0,0-19.795-4.425-32.516,8.297c0,0-0.883,32.146,3,58.082c0,0-2.064,9.977,15.88,11.225
		c0,0,38.299-0.688,45.798-2.09c0,0,15.802-3.646,21.158-18.111c0,0,1.196-8.213-6.365-8.971l-29.791,0.99
		c0,0-18.828,1.602-19.993-8.179C178.393,189.895,182.386,158.43,182.386,158.43z"/>
	<path fill="#809FA8" d="M182.386,158.43c0,0-15.502-2.884-27.38,9.368c0,0-0.625,31.234,3.001,56.222
		c0,0,0.375,8.166,14.627,10.813c0,0,35.757-0.664,42.759-2.014c0,0,14.753-3.514,19.753-17.447c0,0,1.117-7.914-5.942-8.643
		l-27.814,0.953c0,0-17.578,1.543-18.666-7.877C181.636,190.383,182.386,158.43,182.386,158.43z"/>
	<path fill="#A4B6BA" d="M179.763,158.418c0,0-12.998-3.061-25.066,11.75c0,0-6.049-0.074-4.827-3.44c0,0,7.762-10.509,28.516-9.041
		l4,0.744L179.763,158.418z"/>
</g>
<g id="chair_1_">
	<polygon fill="#735A2F" points="386.979,250.729 376.499,250.082 377.604,289.693 380.785,289.891 	"/>
	<polygon fill="#735A2F" points="357.239,247.436 346.764,248.129 353.333,291.574 356.514,291.363 	"/>
	<polygon fill="#735A2F" points="335.548,231.375 325.071,232.07 333.892,272.633 335.571,272.422 	"/>
	<polygon fill="#735A2F" points="369.807,231.375 359.329,232.07 366.646,274.072 368.327,273.861 	"/>
	<path fill="#8DA4AA" d="M392.984,224.256"/>
	<path fill="#54686D" d="M372.98,173.68c0,0,19.797-4.423,32.517,8.297c0,0,0.883,32.146-3,58.084c0,0,2.063,9.975-15.88,11.223
		c0,0-38.299-0.688-45.798-2.09c0,0-15.801-3.646-21.159-18.111c0,0-1.195-8.213,6.366-8.971l29.791,0.99
		c0,0,18.828,1.602,19.994-8.179C376.977,205.145,372.98,173.68,372.98,173.68z"/>
	<path fill="#809FA8" d="M372.98,173.68c0,0,15.504-2.884,27.38,9.37c0,0,0.625,31.232-2.999,56.22c0,0-0.375,8.166-14.627,10.813
		c0,0-35.758-0.664-42.759-2.014c0,0-14.754-3.514-19.754-17.447c0,0-1.116-7.912,5.944-8.641l27.813,0.953
		c0,0,17.578,1.541,18.666-7.879C373.732,205.635,372.98,173.68,372.98,173.68z"/>
	<path fill="#A4B6BA" d="M375.605,173.67c0,0,12.998-3.061,25.064,11.748c0,0,6.049-0.074,4.826-3.44c0,0-7.761-10.506-28.516-9.041
		l-4,0.744L375.605,173.67z"/>
</g>
</svg>
