<?xml version="1.0" encoding="utf-8"?>
<!-- Generator: Adobe Illustrator 16.0.0, SVG Export Plug-In . SVG Version: 6.00 Build 0)  -->
<!DOCTYPE svg PUBLIC "-//W3C//DTD SVG 1.1//EN" "http://www.w3.org/Graphics/SVG/1.1/DTD/svg11.dtd">
<svg version="1.1" id="Layer_1" xmlns="http://www.w3.org/2000/svg" xmlns:xlink="http://www.w3.org/1999/xlink" x="0px" y="0px"
	 width="684px" height="296.64px" viewBox="0 0 684 296.64" enable-background="new 0 0 684 296.64" xml:space="preserve">
<radialGradient id="SVGID_1_" cx="342" cy="148.3198" r="263.5932" gradientUnits="userSpaceOnUse">
	<stop  offset="0" style="stop-color:#68BE62"/>
	<stop  offset="1" style="stop-color:#4EB74D"/>
</radialGradient>
<rect fill="url(#SVGID_1_)" width="684" height="296.64"/>
<g>
	<rect x="176.796" y="229.377" fill="#7F9A90" width="122.936" height="3.736"/>
	<rect x="176.784" y="233.144" fill="#566A63" width="122.936" height="6.94"/>
	<g>
		<ellipse fill="#2F413B" cx="172.058" cy="237.938" rx="7.909" ry="8.009"/>
		<ellipse fill="#C7D5D0" cx="171.983" cy="238.013" rx="5.681" ry="5.431"/>
	</g>
	<g>
		<ellipse fill="#2F413B" cx="304.204" cy="237.938" rx="7.909" ry="8.009"/>
		<ellipse fill="#C7D5D0" cx="304.128" cy="238.013" rx="5.681" ry="5.431"/>
	</g>
	<polygon fill="#C7D5D0" points="181.869,226.307 291.59,226.173 291.59,229.377 181.869,229.377 	"/>
	<polygon fill="#DEEAEF" points="182,215.629 182,226.307 291.721,226.175 291.721,215.629 	"/>
	<polygon fill="#C7D5D0" points="180.532,212.294 182,215.629 291.721,215.629 293.19,212.294 	"/>
	<polygon fill="#DEEAEF" points="180.532,212.294 180.532,200.413 293.19,200.68 293.19,212.294 	"/>
	<polygon fill="#BBC6C3" points="178.396,197.207 180.532,200.413 293.19,200.68 295.059,197.207 	"/>
	<polygon fill="#D2DDE2" points="178.396,175.448 178.396,197.207 295.059,197.207 295.594,175.118 	"/>
	<polygon fill="#ECF5FA" points="178.396,175.049 180.397,172.245 293.792,172.315 295.594,175.118 	"/>
	<g>
		<path fill="#597168" d="M205.758,195.338c0,0-12.813,0-11.079-2.67c0,0,10.412-3.737,24.427,0
			C219.107,192.668,221.91,195.338,205.758,195.338z"/>
		<path fill="#9BAEA8" d="M195.748,194.27c0,0,8.009-2.803,22.291,0C218.039,194.27,207.093,197.207,195.748,194.27z"/>
	</g>
	<g>
		<path fill="#597168" d="M262.621,195.338c0,0-12.814,0-11.079-2.67c0,0,10.412-3.737,24.427,0
			C275.969,192.668,278.772,195.338,262.621,195.338z"/>
		<path fill="#9BAEA8" d="M252.61,194.27c0,0,8.009-2.803,22.292,0C274.901,194.27,263.956,197.207,252.61,194.27z"/>
	</g>
	<rect x="126.408" y="165.908" fill="#597168" width="231.856" height="3.203"/>
	<path fill="#92A9A1" d="M131.413,169.111h217.439c0,0,0.2,10.812-23.426,18.821h-30.144l0.311-12.814l-1.802-2.803l-113.725-0.2
		l-1.602,2.803v13.015h-25.628C152.837,187.933,136.619,184.729,131.413,169.111z"/>
	<polygon fill="#92A9A1" points="126.608,166.108 358.264,165.908 358.264,163.306 126.608,163.306 	"/>
	<path fill="#D2DDE2" d="M287.585,163.105h14.215c0,0-1.602-31.035,10.412-48.253c0,0,23.025-35.239,48.053,2.803
		c0,0,23.291,40.044-5.273,83.025c0,0-15.012,21.851-36.635,2.097c0,0-6.747-6.867-9.083-12.808l-14.042,0.032l-0.175,7.206
		c0,0,12.282,22.561,32.17,25.097c0,0,24.294,6.142,41.247-28.431c0,0,19.22,0.8,34.303-14.017c0,0,12.281-25.361-0.8-44.315
		c0,0-5.072-10.545-25.895-12.947c0,0-14.684-41.514-42.047-40.312c0,0-24.027-4.471-41.646,37.576
		C292.391,119.857,286.985,135.875,287.585,163.105z"/>
	<path fill="#EDF5F7" d="M313.748,163.439h4.271c0,0-1.201-24.694,4.405-35.639c0,0,9.478-20.69,23.626-25.362
		c0,0-4.273-2.002-7.609-2.135c0,0-19.621,15.083-22.558,33.503C315.884,133.807,312.948,150.091,313.748,163.439z"/>
	<path fill="#D2DDE2" d="M317.886,163.439h10.011c0,0-2.871-51.391,27.563-52.993c0,0-5.005-5.606-9.41-8.009
		C346.05,102.438,315.15,112.518,317.886,163.439z"/>
	<path fill="#D2DDE2" d="M325.427,187.933c0,0,6.808-2.604,8.81-3.604c0,0,6.207,15.417,20.823,16.418c0,0-5.228,6.271-7.83,7.072
		C347.229,207.818,334.237,203.35,325.427,187.933z"/>
	<path fill="#EDF5F7" d="M322.224,189.939c0,0,10.011,19.416,21.958,19.416c0,0,2.447-0.736,3.048-1.537
		c0,0-11.958-3.798-21.803-19.886l-1.001,2.002L322.224,189.939z"/>
	<path fill="#597168" d="M379.286,128.667c0,0,4.205,10.412,3.204,16.618c0,0-8.609,1.402-9.011,7.208
		c0,0,3.004,19.622-4.805,31.234c0,0-1.602,4.405,2.402,4.205c0,0,20.022,0.4,27.631-14.016c0,0,6.607-14.016,1.201-33.237
		C399.909,140.68,394.703,128.267,379.286,128.667z"/>
	<path fill="#41564F" d="M379.286,128.467c0,0,5.406,12.814,3.004,17.019c0,0-7.809,0.801-8.61,6.207c0,0,1.402,23.426-5.005,31.835
		c0,0-1.401,5.406,3.003,4.605c0,0-1.401-0.801,1.401-7.008c0,0,4.205-7.008,4.005-27.631c0,0-1.401-3.804,3.003-6.207
		c0,0,8.209-0.4,5.807-5.807l-2.803-13.014C383.091,128.467,380.487,128.066,379.286,128.467z"/>
	<path fill="#EDF5F7" d="M292.19,120.658c0,0,16.618-45.05,47.853-37.842c0,0,23.025,3.404,35.84,39.644
		c0,0,31.234,2.603,32.235,30.433c0,0,0.4-8.609-2.402-15.817l43.047,0.2c0,0,14.216,47.853-25.027,60.066h5.206
		c0,0,34.838-4.586,25.228-57.654c0,0-4.505-19.932-26.429-23.235l-49.855-0.4c0,0-12.014-35.639-37.241-39.844
		C340.644,76.209,307.607,68.2,292.19,120.658z"/>
	<path fill="#597168" d="M319.02,80.214c0,0,7.408-4.205,15.817-4.004l26.429-0.007c0,0,20.623,7.415,29.633,35.847h66.072
		l2.804-5.606l-63.871-0.2c0,0-10.011-45.049-44.448-47.252C351.456,58.99,333.236,58.189,319.02,80.214z"/>
	<path fill="#92A9A1" d="M356.875,59.727h61.854c0,0,26.229-1.337,41.046,46.716l-63.871-0.2
		C395.904,106.242,387.855,67.738,356.875,59.727z"/>
	<path fill="#D2DDE2" d="M338.441,76.208l22.825-0.006c0,0,20.153,7.281,29.633,35.847h66.072l2.804-5.606
		c0,0-3.374-14.201-13.099-28.19l39.129-0.106c0,0,36.308,17.352,36.041,78.753H455.64c0,0,4.539-36.38-28.563-40.615h-49.389
		C377.688,116.284,365.4,78.81,338.441,76.208z"/>
	<path fill="#BBC6C3" d="M455.64,156.898h66.207c0,0-0.268,26.163-7.742,40.579h-86.228
		C427.877,197.478,456.975,192.67,455.64,156.898z"/>
	<path fill="#D2DDE2" d="M405.719,136.61h43.515c0,0,7.475,28.833-4.806,45.651h-42.714
		C401.714,182.261,413.461,160.637,405.719,136.61z"/>
	<path fill="#BBC6C3" d="M368.476,193.873c0,0,19.42-0.034,34.303-14.017l-0.934,2.27l42.583,0.135c0,0-5.878,11.212-21.228,15.35
		h-46.717c0,0-10.011,28.564-30.033,35.372c0,0-27.831,12.213-47.052-24.828c0,0-3.392-6.301-4.793-10.104l0.905-1.744
		c0,0,13.166,29.736,41.53,26.064C337.04,222.37,356.128,220.235,368.476,193.873z"/>
	<path fill="#C3D1D7" d="M344.182,209.355c0,0-19.021,9.98-34.907-19.387l12.949-0.029
		C322.224,189.939,332.769,209.824,344.182,209.355z"/>
	<path fill="#C3D1D7" d="M301.801,163.105l11.947,0.334c0,0-6.941-40.044,24.693-63.136
		C338.441,100.303,301.557,95.972,301.801,163.105z"/>
	<path fill="#9DA8A5" d="M312.212,114.852c0,0,11.814-17.218,26.229-14.549c0,0-12.413,8.86-19.421,23.651
		C319.02,123.954,314.282,120.591,312.212,114.852z"/>
	<path fill="#2B3833" d="M299.398,208.154c0,0,2.069,13.781,4.805,21.774c0,0,10.852,0.933,6.928,11.871l188.555,0.128
		c0,0,8.009-4.672,11.746-19.488l-142.97,0.286c0,0,4.366-6.862,8.021-25.115c0,0-15.617,36.434-38.042,37.172
		C338.441,234.782,315.216,238.986,299.398,208.154z"/>
	<path fill="#41564F" d="M376.483,197.61c0,0-4.562,20.062-8.021,25.115l142.97-0.286c0,0,2.803-11.217,3.203-24.829H376.483z"/>
	<path fill="#485C55" d="M378.619,158.251l20.957-1.886c0,0,5.473,8.277-17.219,17.621c0,0-5.513,3.337-4.959-0.935
		C377.398,173.052,378.619,161.471,378.619,158.251z"/>
	<ellipse fill="#D2DDE2" cx="382.189" cy="163.18" rx="0.851" ry="2.228"/>
	<ellipse fill="#D2DDE2" cx="382.189" cy="169.587" rx="0.851" ry="2.228"/>
	<ellipse fill="#D2DDE2" cx="385.744" cy="167.635" rx="0.851" ry="2.228"/>
	<ellipse fill="#D2DDE2" cx="385.744" cy="161.663" rx="0.851" ry="2.228"/>
	<ellipse fill="#D2DDE2" cx="389.272" cy="147.188" rx="1.126" ry="3.504"/>
	<ellipse fill="#D2DDE2" cx="394.478" cy="144.284" rx="1.126" ry="3.504"/>
	<ellipse fill="#D2DDE2" cx="388.472" cy="137.927" rx="1.126" ry="3.504"/>
	<path fill="#4C8982" d="M355.46,110.447c0,0,13.124,15.684,13.003,37.341c0,0,2.814,13.65-2.258,32.069
		c0,0-4.938,12.68-11.146,20.889c0,0-14.083-0.2-20.823-16.418c0,0,13.064-5.806,14.616-15.217h6.607h2.804v-3.003v-2.669h-30.367
		C327.897,163.439,324.56,113.25,355.46,110.447z"/>
	<polygon fill="#6A7C76" points="295.283,187.933 325.427,187.933 324.426,189.935 295.233,190.001 	"/>
	<polygon fill="#6A7C76" points="178.465,187.933 152.837,187.933 154.104,190.001 178.396,190.001 	"/>
	<path opacity="0.6" fill="#A8AFB3" d="M319.02,123.954c0,0,8.018,4.907,13.72,5.511c0,0,6.502-17.616,22.72-19.018
		c0,0-8.409-9.876-17.019-10.144C338.441,100.303,326.628,108.629,319.02,123.954z"/>
</g>
</svg>
