<?xml version="1.0" encoding="utf-8"?>
<!-- Generator: Adobe Illustrator 16.0.0, SVG Export Plug-In . SVG Version: 6.00 Build 0)  -->
<!DOCTYPE svg PUBLIC "-//W3C//DTD SVG 1.1//EN" "http://www.w3.org/Graphics/SVG/1.1/DTD/svg11.dtd">
<svg version="1.1" id="Layer_1" xmlns="http://www.w3.org/2000/svg" xmlns:xlink="http://www.w3.org/1999/xlink" x="0px" y="0px"
	 width="684px" height="296.641px" viewBox="0 0 684 296.641" enable-background="new 0 0 684 296.641" xml:space="preserve">
<rect x="-143.5" y="-155.179" fill="#BDCEB9" width="970" height="622"/>
<g id="watch">
	<ellipse fill="#565452" cx="176.261" cy="115.373" rx="22.564" ry="22.754"/>
	<ellipse fill="#C4C4C3" cx="176.166" cy="115.373" rx="17.957" ry="18.108"/>
	<rect x="174.934" y="97.264" fill="#6B6A65" width="2.654" height="6.281"/>
	<rect x="174.839" y="127.271" fill="#6B6A65" width="2.654" height="6.21"/>
	<rect x="187.496" y="114.282" fill="#6B6A65" width="6.731" height="2.371"/>
	<rect x="158.209" y="114.282" fill="#6B6A65" width="5.87" height="2.371"/>
	<polygon fill="#6B6A65" points="176.64,116.036 182.897,112.623 184.225,112.623 184.225,114.33 176.64,117.364 165.832,112.623 
		165.832,111.201 167.396,111.201 	"/>
</g>
<g id="door">
	<polygon fill="#CA904B" points="210.012,262.164 145.67,263.049 143.142,150.798 209.38,150.798 	"/>
	<polyline fill="#966B3C" points="146.444,154.211 205.108,152.189 205.556,261.658 206.852,263.049 206.093,150.798 
		146.429,151.809 146.44,153.453 	"/>
	<polygon fill="#AA8052" points="144.658,263.049 141.119,146.754 211.149,146.754 211.149,263.049 206.852,263.049 
		206.093,150.798 146.429,151.809 147.187,263.049 	"/>
	<polygon fill="#966B3C" points="164.22,170.929 189.439,170.266 189.439,194.283 164.122,194.283 	"/>
	<polygon fill="#D6D6D6" points="165.643,172.793 187.89,171.53 187.89,193.02 165.643,193.02 	"/>
</g>
<g id="board">
	<polygon fill="#B59160" points="342.983,179.983 468.555,179.983 470.706,97.834 340.636,96.269 	"/>
	<polygon fill="#836038" points="344.353,100.376 467.185,100.376 465.425,177.049 345.917,177.049 	"/>
	<polygon fill="#775636" points="346.309,177.44 349.047,177.44 346.309,103.31 467.185,103.31 467.185,100.181 344.353,100.181 	
		"/>
	<polygon fill="#836038" points="346.699,103.506 467.577,103.506 465.816,177.244 349.438,177.244 	"/>
	<path fill="#FEFDFC" d="M354.426,110.058h21.516c0,0,0.195,18.386,0.88,21.417h-22.004L354.426,110.058z"/>
	<path fill="#FEFDFC" d="M355.925,137.767h21.516c0,0,0.195,18.385,0.88,21.417h-22.004L355.925,137.767z"/>
	<g>
		<polygon fill="#FEFDFC" points="416.526,132.454 442.345,132.454 440.976,107.418 416.526,107.418 		"/>
		<g>
			<ellipse fill="#AA1124" cx="440.78" cy="107.97" rx="0.616" ry="0.588"/>
			<ellipse fill="#CA0615" cx="440.78" cy="108.186" rx="0.616" ry="0.589"/>
		</g>
		<g>
			<ellipse fill="#AA1124" cx="417.48" cy="108.077" rx="0.616" ry="0.589"/>
			<ellipse fill="#CA0615" cx="417.48" cy="108.294" rx="0.616" ry="0.588"/>
		</g>
	</g>
	<g>
		<polygon fill="#FEFDFC" points="388.651,131.901 410.238,131.901 409.093,110.968 388.651,110.968 		"/>
		<g>
			<ellipse fill="#AA1124" cx="408.93" cy="111.429" rx="0.515" ry="0.492"/>
			<ellipse fill="#CA0615" cx="408.93" cy="111.611" rx="0.515" ry="0.492"/>
		</g>
		<g>
			<ellipse fill="#AA1124" cx="389.449" cy="111.52" rx="0.515" ry="0.492"/>
			<ellipse fill="#CA0615" cx="389.449" cy="111.701" rx="0.515" ry="0.492"/>
		</g>
	</g>
</g>
<g id="shelf">
	<g id="book_shelf">
		<rect x="288.648" y="206.766" fill="#B5915F" width="161.74" height="53.281"/>
		<rect x="294.242" y="211.6" fill="#5F4E37" width="150.552" height="20.668"/>
		<rect x="294.052" y="234.922" fill="#5F4E37" width="150.553" height="20.668"/>
		<g>
			<rect x="295.916" y="216.198" fill="#CB9832" width="7.111" height="16.023"/>
			<rect x="297.694" y="217.567" fill="#DEB562" width="3.199" height="12.701"/>
		</g>
		<g>
			<rect x="398.434" y="216.854" fill="#CB9832" width="5.31" height="16.025"/>
			<rect x="399.762" y="218.221" fill="#DEB562" width="2.388" height="12.703"/>
		</g>
		<g>
			<rect x="303.027" y="221.08" fill="#73A3A2" width="7.016" height="11.566"/>
			<rect x="304.165" y="223.356" fill="#9AC2C2" width="4.171" height="8.154"/>
		</g>
		<g>
			<rect x="310.042" y="217.289" fill="#659A41" width="7.3" height="15.357"/>
			<rect x="311.749" y="219.565" fill="#A1BF80" width="3.919" height="10.617"/>
		</g>
		<g>
			<rect x="375.829" y="240.233" fill="#659A41" width="7.3" height="15.357"/>
			<rect x="377.536" y="242.508" fill="#A1BF80" width="3.919" height="10.617"/>
		</g>
		<g>
			<rect x="317.564" y="217.289" fill="#9A3333" width="4.93" height="15.357"/>
			<rect x="318.48" y="218.994" fill="#B05150" width="2.275" height="11.947"/>
		</g>
		<g>
			<rect x="342.458" y="239.615" fill="#CB9832" width="7.11" height="16.023"/>
			<rect x="344.235" y="240.985" fill="#DEB562" width="3.199" height="12.701"/>
		</g>
		<g>
			<rect x="349.567" y="244.498" fill="#73A3A2" width="7.016" height="11.141"/>
			<rect x="350.705" y="246.69" fill="#9AC2C2" width="4.171" height="7.854"/>
		</g>
		<g>
			<rect x="356.583" y="240.705" fill="#659A41" width="7.3" height="14.934"/>
			<rect x="358.289" y="242.918" fill="#A1BF80" width="3.92" height="10.324"/>
		</g>
		<g>
			<rect x="363.883" y="240.731" fill="#9A3333" width="4.93" height="14.885"/>
			<rect x="364.8" y="242.385" fill="#B05150" width="2.275" height="11.576"/>
		</g>
		<g>
			<rect x="382.882" y="217.004" fill="#9A3333" width="6.067" height="15.359"/>
			<rect x="384.009" y="218.711" fill="#B05150" width="3.558" height="11.945"/>
		</g>
		<g>
			<rect x="337.284" y="217.383" fill="#9A3333" width="6.7" height="15.359"/>
			<rect x="338.528" y="219.09" fill="#B05150" width="3.93" height="11.945"/>
		</g>
		<g>
			<rect x="411.043" y="217.383" fill="#9A3333" width="7.363" height="15.359"/>
			<rect x="412.412" y="219.09" fill="#B05150" width="4.318" height="11.945"/>
		</g>
		<g>
			<rect x="322.494" y="217.289" fill="#1F77AA" width="7.584" height="15.547"/>
			<rect x="324.39" y="218.615" fill="#3887B4" width="3.413" height="12.326"/>
		</g>
		<g>
			<rect x="383.129" y="240.043" fill="#1F77AA" width="7.584" height="15.547"/>
			<rect x="385.024" y="241.369" fill="#3887B4" width="3.413" height="12.324"/>
		</g>
		<g>
			<rect x="330.268" y="220.891" fill="#73A3A2" width="7.016" height="11.566"/>
			<rect x="331.406" y="223.166" fill="#9AC2C2" width="4.171" height="8.154"/>
		</g>
		<g>
			<rect x="368.813" y="244.168" fill="#73A3A2" width="7.017" height="11.566"/>
			<rect x="369.95" y="246.444" fill="#9AC2C2" width="4.173" height="8.152"/>
		</g>
		<g>
			<rect x="409.59" y="240.233" fill="#659A41" width="7.301" height="15.357"/>
			<rect x="411.297" y="242.508" fill="#A1BF80" width="3.919" height="10.617"/>
		</g>
		<g>
			<rect x="390.345" y="240.656" fill="#659A41" width="7.3" height="14.934"/>
			<rect x="392.051" y="242.869" fill="#A1BF80" width="3.919" height="10.324"/>
		</g>
		<g>
			<rect x="397.645" y="240.705" fill="#9A3333" width="4.93" height="14.885"/>
			<rect x="398.561" y="242.36" fill="#B05150" width="2.275" height="11.576"/>
		</g>
		<g>
			<rect x="416.891" y="240.043" fill="#1F77AA" width="7.584" height="15.547"/>
			<rect x="418.786" y="241.369" fill="#3887B4" width="3.413" height="12.324"/>
		</g>
		<g>
			<rect x="402.447" y="244.024" fill="#73A3A2" width="7.017" height="11.566"/>
			<rect x="403.585" y="246.299" fill="#9AC2C2" width="4.172" height="8.154"/>
		</g>
		<g>
			<rect x="403.743" y="217.612" fill="#659A41" width="7.3" height="15.359"/>
			<rect x="405.449" y="219.887" fill="#A1BF80" width="3.919" height="10.619"/>
		</g>
		<g>
			<rect x="344.047" y="217.1" fill="#669A99" width="4.93" height="15.357"/>
			<rect x="344.963" y="218.805" fill="#9AC2C2" width="2.275" height="11.947"/>
		</g>
		<g>
			<rect x="330.916" y="240.373" fill="#9A3333" width="6.699" height="15.219"/>
			<rect x="332.161" y="242.065" fill="#B05150" width="3.929" height="11.836"/>
		</g>
		<g>
			<rect x="323.9" y="243.881" fill="#73A3A2" width="7.016" height="11.711"/>
			<rect x="325.038" y="246.186" fill="#9AC2C2" width="4.172" height="8.254"/>
		</g>
		<g>
			<rect x="337.679" y="240.09" fill="#669A99" width="4.931" height="15.502"/>
			<rect x="338.595" y="241.813" fill="#9AC2C2" width="2.275" height="12.055"/>
		</g>
		<g>
			<rect x="418.405" y="217.004" fill="#669A99" width="4.931" height="15.359"/>
			<rect x="419.322" y="218.711" fill="#9AC2C2" width="2.275" height="11.945"/>
		</g>
		<g>
			<rect x="423.336" y="219.887" fill="#669A99" width="4.93" height="12.855"/>
			<rect x="424.253" y="221.317" fill="#9AC2C2" width="2.274" height="9.998"/>
		</g>
		<g>
			<rect x="393.504" y="217.383" fill="#669A99" width="4.93" height="15.359"/>
			<rect x="394.42" y="219.09" fill="#9AC2C2" width="2.275" height="11.945"/>
		</g>
		<g>
			<rect x="372.643" y="217.518" fill="#669A99" width="5.31" height="15.359"/>
			<rect x="373.63" y="219.225" fill="#9AC2C2" width="2.45" height="11.945"/>
		</g>
		<g>
			<rect x="377.952" y="220.416" fill="#669A99" width="4.93" height="11.947"/>
			<rect x="378.868" y="221.742" fill="#9AC2C2" width="2.275" height="9.293"/>
		</g>
		<polygon fill="#1F77AA" points="348.977,230.278 363.071,217.289 365.789,219.406 352.311,232.364 		"/>
		<rect x="388.949" y="217.383" fill="#3887B4" width="4.555" height="14.98"/>
		<rect x="365.789" y="217.383" fill="#3887B4" width="6.854" height="14.98"/>
		<g>
			<rect x="313.278" y="240.233" fill="#9A3333" width="6.067" height="15.357"/>
			<rect x="314.405" y="241.938" fill="#B05150" width="3.558" height="11.947"/>
		</g>
		<g>
			<rect x="303.039" y="240.99" fill="#669A99" width="5.309" height="14.6"/>
			<rect x="304.025" y="242.612" fill="#9AC2C2" width="2.451" height="11.357"/>
		</g>
		<g>
			<rect x="308.348" y="243.643" fill="#669A99" width="4.93" height="11.947"/>
			<rect x="309.264" y="244.971" fill="#9AC2C2" width="2.275" height="9.293"/>
		</g>
		<rect x="319.346" y="240.612" fill="#3887B4" width="4.554" height="14.979"/>
		<g>
			<rect x="435.098" y="243.881" fill="#73A3A2" width="7.016" height="11.711"/>
			<rect x="436.235" y="246.186" fill="#9AC2C2" width="4.171" height="8.254"/>
		</g>
		<g>
			<rect x="424.475" y="240.233" fill="#9A3333" width="6.067" height="15.357"/>
			<rect x="425.602" y="241.938" fill="#B05150" width="3.559" height="11.947"/>
		</g>
		<rect x="430.542" y="240.612" fill="#3887B4" width="4.556" height="14.979"/>
		<rect x="296.186" y="240.612" fill="#3887B4" width="6.854" height="14.979"/>
		<rect x="294.242" y="232.268" fill="#B5915F" width="151.344" height="2.654"/>
		<rect x="294.242" y="232.221" fill="#CDAC88" width="150.552" height="1.328"/>
		<rect x="294.074" y="255.735" fill="#CDAC88" width="150.553" height="1.326"/>
	</g>
	<polygon fill="#CDAC88" points="288.648,206.766 292.114,201.606 447.883,201.606 450.388,206.766 	"/>
</g>
<g id="world">
	<polygon fill="#4D4D4D" enable-background="new    " points="420.856,194.221 421.2,192.805 421.543,193.164 421.2,194.221 	"/>
	<polygon fill="#4D4D4D" points="428.727,167.631 429.068,167.754 428.897,168.538 428.504,168.463 	"/>
	<ellipse fill="#256686" cx="424.653" cy="180.829" rx="12.905" ry="12.954"/>
	<path fill="#CECECE" d="M430.889,169.389c0,0-0.645,1.967-2.707,0.741c0,0-4.607-0.516-6.477,0.032c0,0-1.225,0.741-1.193,1.129
		c0,0-2.48-0.549-2.577-0.951c0,0-0.322-0.339,0.193-0.726C418.128,169.615,423.639,165.684,430.889,169.389z"/>
	<path fill="#767A56" d="M417.935,169.814c0,0-0.58,0.612,0.419,0.901c0,0,1.45,0.709,4.028,0.871c0,0,1.771,0,0,1.482
		c0,0-1.741,0.387-3.183,0.298c0,0-0.612,0.362-0.436,1.192c0,0-0.066,0.68-1.925,0.229c0,0-2.407-0.871-2.181-2.127
		C414.659,172.66,416.399,170.705,417.935,169.814z"/>
	<path fill="#838754" d="M414.68,172.58c0,0,1.257-1.516,1.9-1.838c0,0,0.452,1.515,2.805,1.225c0,0-1.418,0.999-1.643,1.192
		l0.063,0.773C417.806,173.933,416.517,174.964,414.68,172.58z"/>
	<path fill="#838754" d="M414.562,172.805c0,0,0.645,0.816,1.633,1.504c0,0,0.601,0.258,1.418,0.645"/>
	<path fill="#42957C" d="M411.812,180.161h0.612c0,0,0.145-0.354,0.822-0.661h0.611v-0.521c0,0,1.5,0.226,1.714,0.892l0.516-0.892
		l-0.301-0.29c0,0,0.666-1.912,2.191-2.32l1.805-0.795l-0.876-0.945l-4.345-1.986c0,0-0.602,0.697-0.612,0.881
		C413.949,173.524,411.511,177.111,411.812,180.161z"/>
	<path fill="#4FA389" d="M411.962,178.594c0,0,1.064-0.055,1.493-0.387h0.548c0,0,1.031,1.492,2.191,0.074c0,0-0.537-0.344,0-0.988
		h0.881c0,0,0.902-0.215,0.784-0.881l0.01-0.655l-2.341,0.044c0,0-1.321,0.01-1.547-2.289
		C413.981,173.512,412.08,176.338,411.962,178.594z"/>
	<path fill="#397E69" d="M415.571,179.871c0,0,0.639,0.402,0.93,2.11c0,0,0.644,0.597,0.982-0.499c0,0,0.097-0.999-0.451-1.644
		c0,0-0.338-1.208,0.837-1.772c0,0,0.903-0.16,0.887-0.87l3.271-1.466l0.113-0.777l-0.757-0.109l-1.628,0.709l-1.896,0.859
		c0,0,0.037,0.566-0.645,0.837l-1.021,0.044c0,0-0.516,0.559,0,0.988l-0.391,0.377C415.804,178.658,415.958,179.302,415.571,179.871
		z"/>
	<path fill="#607734" d="M417.483,191.584l0.146-2.246c0,0-0.262,0.318-0.999,0.152c0,0-1.735-1.08-1.714-1.127v-0.371
		c0,0,0.506-1.967,0.086-2.691c0,0-0.548,0.387-1.145,0c0,0-1.337-1.578-1.772-1.643
		C412.085,183.658,412.94,188.508,417.483,191.584z"/>
	<path fill="#51642A" d="M417.629,189.41v-1.91c0,0-0.468-0.258-0.557-0.338c0,0-0.097-0.193,0.152-0.314
		c0,0,0.291-0.008,0.348-0.129c0,0,0.297-1.144-0.813-2.063c0,0-0.21-0.467-0.726-0.137l-1.096,0.758c0,0,0.023,1.023,0.062,2.344
		c0,0-0.481,0.678,0.115,0.967c0,0,1.37,1.031,1.491,1.08S417.629,189.41,417.629,189.41"/>
	<path fill="#626921" d="M425.519,190.699c0,0,2.062-1.998,1.396-4.212l-0.193-0.43c0,0,2.083-0.106,1.848-4.038l1.117-0.945
		l2.126,0.107l1.203,0.799l-1.031,4.7l-3.458,3.288l-1.827,0.922L425.519,190.699z"/>
	<path fill="#6F7728" d="M426.828,186.297c0,0-0.278-0.582-1.159-1.056c0,0-0.646-0.43,0-1.31l3.034-2.025
		C428.703,181.906,429.536,185.461,426.828,186.297z"/>
	<path fill="#4D511E" d="M432.822,182.804l-1.079,3.415c0,0-0.017,0.388-0.387,0.436c0,0-2.756,1.643-3.948,3.625
		c0,0-0.74,0.58-1.788,0.242c0,0-0.95,0.193-0.226,0.934c0,0,2.288,1.629,5.784-2.996l1.644-2.191c0,0,0.451-0.596,0.097-1.418
		c0,0-0.145-0.758,0.597-1.191c0,0-0.42-0.386-0.307-1.515l-0.402-0.339L432.822,182.804z"/>
	<path fill="#B1B66E" d="M433.402,173.147h1.644c0,0,1.245,1.744,1.278,2.16C436.324,175.307,433.65,173.867,433.402,173.147z"/>
	<path fill="#9FA36A" d="M431.89,174.131c0,0,0.891-0.274,1.341-0.984c0,0,2.686,1.719,3.052,2.063l0.944,2.17
		c0,0-0.729-0.15-1.052,0.086c0,0-1.524,0.58-2.019,0.215c0,0-0.152-1.215-0.453-1.477L431.89,174.131z"/>
	<path fill="#A39055" d="M436.152,177.379c0,0,0.688-0.258,1.074,0c0,0,1.203,4.168-0.258,7.477c0,0-0.472,0.097-1.117-1.197
		C435.852,183.658,436.539,179.012,436.152,177.379z"/>
	<path fill="#8E7733" d="M434.219,177.264c0,0,0.515,0.631,1.934,0.115c0,0,0.773,4.008-0.301,6.279c0,0-0.504,0.123-0.532-0.264
		c0,0-0.413-0.816-0.758-0.301c0,0-0.632,0.181-1.046,0.564c0,0-0.456-0.746-0.307-1.515c0,0-0.527-0.65-1.177-0.817
		c0,0-0.563-0.451,0.554-0.266c0,0,0.388-0.975,0-1.877C432.586,179.184,433.488,179.384,434.219,177.264z"/>
	<path fill="#607731" d="M428.788,175.994c0,0-2.066-0.725-0.949-1.84c0,0,1.182-0.406,2.126,0.174c0,0,1.256,0.299,1.767-0.312
		c0,0,0.036,0.114,1.227,0.61c0.019,0.008,0.038,0.016,0.058,0.023c1.246,0.516,1.805,0.451,1.805,0.451s0.215,0.236-0.086,0.451
		c0,0-0.645,0.215-0.924,0.279c0,0,0.494,0.823,0.258,1.432c0,0,0.232,1.094-1.377,2.236c0,0-0.552-1.159-0.923-1.41
		c-0.013-0.009-0.024-0.017-0.037-0.023C431.361,177.873,428.788,175.994,428.788,175.994z"/>
	<path fill="#50622C" d="M428.72,176.09c0,0,0.192-0.322,0.547-0.451c0,0,1.364-0.344,1.729,0.344l-0.258,0.419
		c0,0-0.064,0.376,0.516,0.591l0.474,0.271v0.889c0,0-0.474-0.107-0.516,0.129c0,0-0.172,0.816,0.516,1.096
		c0,0,0.107,0.838-0.709,0.559c0,0-0.555,0.043-0.793-1.848c0,0-0.325-0.301-0.519-0.064l-0.106,1.01c0,0-0.613,0.838-2.498-1.096
		c0,0,0.091-0.408,0.585-0.451l1.136-0.223c0,0,0.262-0.229,0.326-0.637L428.72,176.09z"/>
	<path fill="#9A8A3F" enable-background="new    " d="M420.219,193.748l-0.237,0.988c0,0,2.429,1.172,6.717,0.646
		c0,0,4.721-0.463,8.425-4.273c0,0,3.27-2.977,4.041-7.853c0,0,0.987-6.099-1.512-9.452c0,0-2.499-5.76-9.411-7.488l-0.278,1.08
		c0,0,4.382,1.094,6.758,4.28c0,0,3.672,3.847,3.363,9.241c0,0,0.464,6.844-6.171,11.287
		C431.913,192.205,427.162,195.846,420.219,193.748z"/>
	<path fill="#BFAB4D" enable-background="new    " d="M420.028,194.34l-0.246,1.031c0,0,3.212,1.031,7.015,0.678
		c0,0,4.092,0.074,8.797-4.465c0,0,3.094-2.207,4.222-8.2c0,0,1.021-5.61-1.579-9.872c0,0-2.857-6.145-9.829-7.82l-0.29,1.129
		c0,0,4.576,1.142,7.058,4.471c0,0,3.835,4.016,3.513,9.649c0,0,0.483,7.147-6.444,11.788
		C432.243,192.729,427.279,196.531,420.028,194.34z"/>
	<polygon fill="#B4A34F" enable-background="new    " points="432.468,203.428 425.122,201.043 425.122,196.123 424.509,196.112 
		424.509,201.01 418.288,203.428 	"/>
	<polygon fill="#9A8A3F" enable-background="new    " points="423.574,196.123 424.509,196.112 424.509,201.01 418.288,203.428 
		423.541,200.946 	"/>
</g>
<g id="table">
	<path fill="#5D654B" d="M215.74,260.112c0,0-1.287,3.57,7.941,3.443l87.095,0.633c0,0,2.995-2,2.065-5.277L215.74,260.112z"/>
	<path fill="#AEC480" d="M223.425,248.133l-7.837,11.377c0,0-1.264,2.023,10.113,2.275h81.913c0,0,6.336,0.363,5.057-4.551
		l-3.54-6.572c0,0-2.529-2.781-9.607-2.529H223.425z"/>
	<polygon fill="#8A986B" points="221.413,263.502 226.08,263.573 228.355,291.112 224.884,291.112 	"/>
	<polygon fill="#8A986B" points="306.476,264.188 311.532,263.53 307.867,289.721 304.327,289.721 	"/>
	<polygon fill="#8A986B" points="224.884,291.112 228.355,291.112 229.177,292.977 224.278,293.135 	"/>
	<polygon fill="#8A986B" points="304.327,289.721 307.867,289.721 308.309,291.365 303.916,291.365 	"/>
	<polyline fill="#DCDBDB" points="226.08,263.573 306.476,264.188 304.677,285.553 228.074,287.699 226.08,264.188 	"/>
	<polyline fill="#5D654B" points="304.664,285.719 304.327,289.721 300.784,285.651 304.721,285.045 	"/>
	<polygon fill="#5D654B" points="228.103,287.699 230.884,287.699 228.355,291.112 	"/>
	<polygon fill="#5D654B" points="300.784,285.651 304.327,289.721 303.916,291.365 298.994,285.68 	"/>
	<polygon fill="#5D654B" points="229.177,292.977 228.355,291.112 230.884,287.699 232.59,287.561 	"/>
</g>
<g id="table_1_">
	<path fill="#5D654B" d="M327.506,258.91c-0.929,3.277,2.064,5.277,2.064,5.277l87.096-0.633c9.228,0.127,7.94-3.443,7.94-3.443
		L327.506,258.91z"/>
	<path fill="#AEC480" d="M340.824,248.133c-7.08-0.252-9.608,2.529-9.608,2.529l-3.539,6.572c-1.28,4.914,5.056,4.551,5.056,4.551
		h81.913c11.377-0.252,10.113-2.275,10.113-2.275l-7.838-11.377H340.824z"/>
	<polygon fill="#8A986B" points="415.462,291.112 411.991,291.112 414.267,263.573 418.934,263.502 	"/>
	<polygon fill="#8A986B" points="336.02,289.721 332.479,289.721 328.815,263.53 333.871,264.188 	"/>
	<polygon fill="#8A986B" points="416.068,293.135 411.169,292.977 411.991,291.112 415.462,291.112 	"/>
	<polygon fill="#8A986B" points="336.431,291.365 332.038,291.365 332.479,289.721 336.02,289.721 	"/>
	<polyline fill="#DCDBDB" points="414.267,264.188 412.272,287.699 335.669,285.553 333.871,264.188 414.267,263.573 	"/>
	<polyline fill="#5D654B" points="335.626,285.045 339.563,285.651 336.02,289.721 335.683,285.719 	"/>
	<polygon fill="#5D654B" points="411.991,291.112 409.463,287.699 412.244,287.699 	"/>
	<polygon fill="#5D654B" points="341.353,285.68 336.431,291.365 336.02,289.721 339.563,285.651 	"/>
	<polygon fill="#5D654B" points="407.756,287.561 409.463,287.699 411.991,291.112 411.169,292.977 	"/>
</g>
<g id="table_2_">
	<path fill="#5D654B" d="M439.763,258.91c-0.93,3.277,2.064,5.277,2.064,5.277l87.097-0.633c9.227,0.127,7.939-3.443,7.939-3.443
		L439.763,258.91z"/>
	<path fill="#AEC480" d="M453.081,248.133c-7.079-0.252-9.608,2.529-9.608,2.529l-3.539,6.572c-1.279,4.914,5.057,4.551,5.057,4.551
		h81.912c11.377-0.252,10.113-2.275,10.113-2.275l-7.838-11.377H453.081z"/>
	<polygon fill="#8A986B" points="527.719,291.112 524.248,291.112 526.523,263.573 531.19,263.502 	"/>
	<polygon fill="#8A986B" points="448.277,289.721 444.736,289.721 441.071,263.53 446.128,264.188 	"/>
	<polygon fill="#8A986B" points="528.325,293.135 523.426,292.977 524.248,291.112 527.719,291.112 	"/>
	<polygon fill="#8A986B" points="448.688,291.365 444.295,291.365 444.736,289.721 448.277,289.721 	"/>
	<polyline fill="#DCDBDB" points="526.523,264.188 524.529,287.699 447.926,285.553 446.128,264.188 526.523,263.573 	"/>
	<polyline fill="#5D654B" points="447.883,285.045 451.82,285.651 448.277,289.721 447.94,285.719 	"/>
	<polygon fill="#5D654B" points="524.248,291.112 521.72,287.699 524.502,287.699 	"/>
	<polygon fill="#5D654B" points="453.61,285.68 448.688,291.365 448.277,289.721 451.82,285.651 	"/>
	<polygon fill="#5D654B" points="520.013,287.561 521.72,287.699 524.248,291.112 523.426,292.977 	"/>
</g>
<g>
	<rect x="238.334" y="106.218" fill="#E5E3E3" width="80.16" height="78.214"/>
	<path fill="#C8CDCC" d="M234.98,104.487c0,0-0.324-2.801,1.407-4.111h78.754c0,0-2.847,1.731-2.289,4.111H234.98z"/>
	<path fill="#7C9892" d="M234.98,104.487h77.781c0,0,0.757,2.271,3.408,2.597h-80.106
		C236.062,107.084,234.972,105.686,234.98,104.487z"/>
	<ellipse fill="#8E8E8E" cx="316.168" cy="103.73" rx="3.408" ry="3.354"/>
	<rect x="242.877" y="108.598" fill="#AAC8E2" width="71.615" height="71.939"/>
	<path fill="#B89A4F" d="M263.342,120.775c0,0-6.402,2.968-5.968,8.593c0,0-0.003,1.179,2.572,1.57
		c0.127,0.02,0.261,0.037,0.401,0.052c2.977,0.325,4.383,2.164,3.733,8.871c0,0-0.757,3.354,5.409,5.625c0,0,7.802,3.49,7.605,8.871
		c-0.005,0.143-0.016,0.287-0.033,0.433c-0.649,5.626,0.037,12.224,0.037,12.224l3.101,0.434l2.38-9.52
		c0,0,7.248,0.324,10.168,4.326c0,0,1.298,3.679,4.002,3.679l0.541-45.158H263.342z"/>
	<path fill="#5A6437" d="M265.811,108.814c0,0,5.084,8.871-3.678,12.549h34.617l0.541-12.549H265.811z"/>
	<rect x="296.75" y="108.814" fill="#7C8540" width="17.742" height="28.992"/>
	<path fill="#6A7E55" d="M296.994,137.806l-0.568,28.667c0,0,7.044,1.515,9.317,3.245c0,0,6.817,2.488,8.749,2.705v-34.618H296.994z
		"/>
</g>
<g id="light_1_">
	<linearGradient id="SVGID_1_" gradientUnits="userSpaceOnUse" x1="330.2681" y1="99.4827" x2="330.2681" y2="65.0898">
		<stop  offset="0" style="stop-color:#FFFFFF;stop-opacity:0"/>
		<stop  offset="1" style="stop-color:#FFF764;stop-opacity:0.2"/>
	</linearGradient>
	<polygon fill="url(#SVGID_1_)" points="223.252,57.643 198.607,92.36 461.929,92.36 446.617,57.643 	"/>
	<g id="light">
		<rect x="248.717" y="0" fill="#989898" width="5.158" height="44.215"/>
		<rect x="413.049" y="0" fill="#989898" width="5.157" height="44.215"/>
		<polygon fill="#CDC9C0" points="222.597,57.643 234.224,44.215 437.938,44.215 446.617,57.643 		"/>
		<polygon fill="#E8C94E" points="223.252,57.643 226.364,67.796 442.852,67.796 446.617,57.643 		"/>
		<g id="bulps">
			<polygon fill="#FCE276" points="227.838,63.374 246.669,63.374 247.98,65.503 227.838,65.503 			"/>
			<polygon fill="#FCE276" points="229.803,57.643 228.82,60.331 245.523,60.331 244.05,57.643 			"/>
			<polygon fill="#FCE276" points="251.296,57.643 251.296,60.331 270.742,60.331 269.596,57.643 			"/>
			<polygon fill="#FCE276" points="251.296,63.374 251.296,65.503 272.871,65.503 272.052,63.374 			"/>
			<polygon fill="#FCE276" points="276.146,63.374 303.166,63.374 304.313,65.503 276.146,65.503 			"/>
			<polygon fill="#FCE276" points="276.146,57.643 276.146,60.331 301.201,60.331 300.382,57.643 			"/>
			<rect x="306.278" y="57.643" fill="#FCE276" width="60.753" height="2.688"/>
			<rect x="306.278" y="63.374" fill="#FCE276" width="60.753" height="2.129"/>
			<rect x="370.634" y="63.374" fill="#FCE276" width="36.52" height="2.948"/>
			<polygon fill="#FCE276" points="373.5,57.643 372.354,60.755 406.825,60.755 406.825,57.643 			"/>
			<polygon fill="#FCE276" points="413.049,57.643 411.656,60.755 439.903,60.755 438.103,57.643 			"/>
			<polygon fill="#FCE276" points="410.428,63.374 409.689,65.503 441.378,65.503 440.56,63.374 			"/>
		</g>
	</g>
</g>
</svg>
