<?xml version="1.0" encoding="utf-8"?>
<!-- Generator: Adobe Illustrator 16.0.0, SVG Export Plug-In . SVG Version: 6.00 Build 0)  -->
<!DOCTYPE svg PUBLIC "-//W3C//DTD SVG 1.1//EN" "http://www.w3.org/Graphics/SVG/1.1/DTD/svg11.dtd">
<svg version="1.1" id="Layer_1" xmlns="http://www.w3.org/2000/svg" xmlns:xlink="http://www.w3.org/1999/xlink" x="0px" y="0px"
	 width="684px" height="296.641px" viewBox="0 0 684 296.641" enable-background="new 0 0 684 296.641" xml:space="preserve">
<g>
	<rect x="-33.501" y="-56.515" fill="#B1BDAF" enable-background="new    " width="756.667" height="417.333"/>
	<g>
		<g>
			
				<circle fill="none" stroke="#898989" stroke-width="9" stroke-miterlimit="10" enable-background="new    " cx="493.647" cy="240.757" r="50.399"/>
			
				<circle fill="none" stroke="#5B5B5B" stroke-width="8" stroke-miterlimit="10" enable-background="new    " cx="493.39" cy="241.027" r="42.427"/>
			
				<circle fill="none" stroke="#3A3A3A" stroke-width="11" stroke-miterlimit="10" enable-background="new    " cx="493.39" cy="241.027" r="33.442"/>
			<circle fill="#999999" enable-background="new    " cx="493.391" cy="241.027" r="19.309"/>
			<circle fill="#CCCCCC" enable-background="new    " cx="493.39" cy="241.027" r="11.594"/>
			<circle fill="#666666" enable-background="new    " cx="493.39" cy="241.027" r="8.251"/>
			<circle fill="#CCCCCC" enable-background="new    " cx="493.391" cy="241.027" r="5.994"/>
		</g>
		<g>
			
				<circle fill="none" stroke="#898989" stroke-width="9" stroke-miterlimit="10" enable-background="new    " cx="215.837" cy="240.757" r="50.399"/>
			
				<circle fill="none" stroke="#5B5B5B" stroke-width="8" stroke-miterlimit="10" enable-background="new    " cx="215.58" cy="241.027" r="42.427"/>
			
				<circle fill="none" stroke="#3A3A3A" stroke-width="11" stroke-miterlimit="10" enable-background="new    " cx="215.58" cy="241.027" r="33.442"/>
			<circle fill="#999999" enable-background="new    " cx="215.581" cy="241.027" r="19.309"/>
			<circle fill="#CCCCCC" enable-background="new    " cx="215.58" cy="241.027" r="11.594"/>
			<circle fill="#666666" enable-background="new    " cx="215.58" cy="241.027" r="8.251"/>
			<circle fill="#CCCCCC" enable-background="new    " cx="215.581" cy="241.027" r="5.994"/>
		</g>
		<path fill="#659A41" d="M289.597,62.294c0,0-31.674,55.204-34.389,71.946c0,0-6.335,28.053,0,34.841
			c0,0,28.507,23.53,34.389,55.204c0,0,95.475,6.787,125.338,0c0,0-4.524-33.484,36.651-55.656c0,0-17.646,20.815-9.954,48.869
			c0,0,8.146,22.171,121.268-0.453c0,0-3.62-45.25-32.579-58.371l-33.938-17.646l-100.452-9.502c0,0,12.219,46.154-19.457,73.303
			c0,0-55.204,10.407-62.444,4.979c0,0-20.362-105.431-14.932-142.082L289.597,62.294z"/>
		<path fill="#CDCCCC" d="M543.167,167.667l-0.667-20.333c0,0-24.667-20.667-65.167,3.667c0,0,51.668-2.666,65.834,17.334"/>
		<path fill="#989898" d="M530,158.334v-5.167c0,0-15.834-14.834-52.667-2.167c0,0-23.166,14-24.333,16.667
			C453,167.667,490.5,145.001,530,158.334z"/>
		<path fill="#466931" d="M289.597,224.285c0,0,83.237,6.798,124.07-1.618c0,0-1.412-35.704,37.921-54.038
			c0,0-16.171,30.205-9.588,48.038c0,0,3.9,23.544,120.9,0.378l0.767,19.622H414.5l0.167-2.833c0,0-82.167,8-123-1L289.597,224.285z
			"/>
		<path fill="#CDCCCC" d="M187.5,162.875l4.5-16c0,0,23.125-10,52,14.5l21.25,22.875C265.25,184.25,224.125,145.875,187.5,162.875z"
			/>
		<path fill="#989898" d="M200.597,158.585c0,0,5.028-14.46,34.153-1.46c0,0,23.5,12.5,31.125,28L200.597,158.585z"/>
		<path fill="#659A41" d="M159.438,200.477c0,0,18.563-44.728,48.563-42.228c0,0,30.5,0,57.25,26c0,0,17.75,34.625-9.5,46.375
			C255.75,230.625,199.375,226.203,159.438,200.477z"/>
		<path fill="#466931" d="M160,199l-6,15.75l126,31.5c0,0,11.683-11.139,6.25-32.75c0,0-3.25-15.847-21-29.25c0,0,12.75,35-10.75,45
			C254.5,229.25,191,221.75,160,199z"/>
		<path fill="#333333" enable-background="new    " d="M295.835,65.859c0,0,2.332-4.539,6.832-6.539h5.667c0,0,11.833-9.833,0-17
			c0,0-9.33-4.032-12.499,5.484c0,0-4.44,6.557-4.138,8.953l-0.015,5.537L295.835,65.859z"/>
		<path fill="#CCCCCC" enable-background="new    " d="M268,31c0,0,21.25-1.68,29,12.82c0,0-1.5,4.359-2,8.18
			c0,0-31.873,11.77-35.016,8.936C259.984,60.935,264,36.929,268,31z"/>
		<path fill="#EFEFEF" d="M268,31c0,0-7,14.645-7,30.072l-4.25-0.572c0,0,0.25-20.75,7.25-29.5H268z"/>
		<path fill="#989898" d="M295,52h-5.25c0,0-6.25,7.5-33,8.5v7.75c0,0,15.75,5,23.75-1.25l10.109-4.128
			C290.609,62.872,289.75,57.25,295,52z"/>
		<path fill="#675030" enable-background="new    " d="M371.833,118.151c0,0,40.264-11,54.799-14.333
			c0,0,52.534-13.333,50.701,9.333c0,0,11.5,22.88-24.333,23.773c0,0-51.637-5.023-57.068-5.398c0,0-25.099,2.292-29.099-7.375
			C366.833,124.151,365.908,119.761,371.833,118.151z"/>
		<path fill="#84663E" enable-background="new    " d="M369.115,119.342c0,0,69.384-23.857,99.718-17.857c0,0,4.666,15-6,21.333
			c0,0-7.332,5.333-21.666,4.667L369.115,119.342z"/>
	</g>
</g>
</svg>
