<?xml version="1.0" encoding="utf-8"?>
<!-- Generator: Adobe Illustrator 16.0.0, SVG Export Plug-In . SVG Version: 6.00 Build 0)  -->
<!DOCTYPE svg PUBLIC "-//W3C//DTD SVG 1.1//EN" "http://www.w3.org/Graphics/SVG/1.1/DTD/svg11.dtd">
<svg version="1.1" id="Layer_1" xmlns="http://www.w3.org/2000/svg" xmlns:xlink="http://www.w3.org/1999/xlink" x="0px" y="0px"
	 width="93.549px" height="286.29px" viewBox="0 0 93.549 286.29" enable-background="new 0 0 93.549 286.29" xml:space="preserve">
<g>
	<g>
		<path fill="#E2C193" d="M57.651,173.513c0,0,2.775-8.281,7.698-1.403c0,0-0.388,6.416,1.163,8.259c0,0,2.195,5.713-0.475,9.118
			c0,0-8.746,9.027-11.881,8.938c0,0-1.479-2.581,1.654-5.712c0,0,1.566-4.886,0.462-6.726c0,0-1.658-0.922-1.198,4.882
			c0,0,0.276,3.867-2.119,1.655c0,0-1.927-7.556,1.201-12.713C54.158,179.812,57.05,174.875,57.651,173.513z"/>
		<path fill="#BEC9D9" d="M55.917,108.405c0,0-1.25-11.118,9.75-7.118c0,0,4.5,3.25,2.75,8.125c0,0,0.75,52.875-3,64.875
			l-8.021-0.244c0,0,2.771-25.727,1.771-39.615L55.917,108.405z"/>
	</g>
	<path fill="#A6B5CA" d="M30.524,161.037c0,0,27,3.5,39.5,0c0,0-1.25,8-2.5,10.75l3.875,37.875c0,0,0.75,8.854,0.25,11.125
		l3.875,54.625c0,0-2.125,1-5.625,0.375l-7.375-60.875l-7.125-37.625c0,0-3.424,1.125-7.587,0c0,0,0.948,19.811,1.212,42.041
		c0.007,0.611-0.165,2.085-0.458,2.625c-12.125,22.334-18.64,40.834-20.92,44.085c0,0-2.908-5.112-5.241-4.778l16.417-38.415
		l-3.413-45.283C35.408,177.562,32.208,169.482,30.524,161.037z"/>
	<path fill="#D4DEEC" d="M38.899,96.412l-10.625,3.75c0,0-2.75,44.375,2.25,60.875c0,0,23.5,3.5,39.5,0c0,0-2-33,0-50
		c0,0-0.25-7-5.25-9.75l-8-3.125c0,0,0.131,3.669-4.5,4v7.25l-2.375-6.625C49.899,102.787,41.774,102.287,38.899,96.412z"/>
	<g>
		<path fill="#E2C193" d="M55.417,175.241c4.317,4.213,4.338,12.011,4.338,12.011c-1.768,2.739-2.465-1.073-2.465-1.073
			c-1.004-5.735-2.379-4.429-2.379-4.429c-0.609,2.058,2.127,6.396,2.127,6.396c3.814,2.25,3.027,5.118,3.027,5.118
			c-3.014,0.87-13.735-5.688-13.735-5.688c-3.436-2.632-2.736-8.711-2.736-8.711c1.042-2.171-0.936-8.287-0.936-8.287
			c3.049-7.889,7.805-0.562,7.805-0.562C51.384,171.184,55.417,175.241,55.417,175.241z"/>
		<path fill="#BEC9D9" d="M35.885,106.536c0,0-1.566-11.077-11.219-4.458c0,0-3.546,4.271-0.634,8.555
			c0,0,12.476,51.388,19.103,62.07l7.706-2.239c0,0-9.106-24.22-11.605-37.918L35.885,106.536z"/>
	</g>
	<g>
		<path fill="#E2C193" d="M29.274,56.787c0,0-8.25-20.875-16.25-6.875l1.916,4.89c0,0,4.584,20.235,14.334,12.985
			c0,0,4.875,12,14.625,19l-2.625,8.375l-2.375,1.25c0,0,3.375,6,11,6.375l2.375,6.625v-7.25c0,0,4.625-0.375,4.5-4l-5-2.5
			l-0.25-5.625c0,0,17.691,2.497,23.25-28.25c0,0,1.396-7.505,1.448-16.189l-4.948-21.811l-13.875-2.5l-12.776,1.625
			C44.624,22.912,26.649,33.537,29.274,56.787z"/>
		<path fill="#542626" d="M47.54,72.024c6.502,7.361,18.889,3.838,18.889,3.838C53.048,81.344,47.542,72.024,47.54,72.024z"/>
		<path fill="#333333" d="M53.587,44.946c0,0,1.803,0.784,0,2.664c0,0-10.887-0.473-12.375,2.036
			C41.212,49.646,36.981,42.909,53.587,44.946z"/>
		<path fill="#A08468" d="M58.54,70.638c16.547,5.09,2.408-18.015,2.408-18.015C75.831,77.766,58.54,70.638,58.54,70.638z"/>
		<ellipse fill="#333333" cx="67.647" cy="55.443" rx="2.781" ry="2.82"/>
		<ellipse fill="#333333" cx="48.647" cy="55.443" rx="2.781" ry="2.82"/>
		<path fill="#341D17" d="M47.812,28.218c0,0,16.713-2,21.713,0c0,0,3.25,29.062,18.25,15.531c0,0-5.75-1.531-6.75-5.031
			c0,0,3-0.268,4.5-1.383c0,0-5-3.117-5.917-6.45c0,0,1.416,0.417,2.083,0.083c0,0-10.25-30.5-25.25-20.5
			c0,0-25.666-21-37.666,20.333c0,0-2,6.5-11.5,6.667c0,0,2.667,7.5,6.5,9.167c0,0-1.834,1.245-4.667,0.706c0,0,1,3.628,5.833,7.461
			c0,0-2.333-6.833,2.167-7.333c0,0,9.5-0.333,10.667,11.667c0,0,2.667,0.667,3.667-3l1-10.833
			C32.441,45.301,44.849,42.801,47.812,28.218z"/>
		<path fill="#333333" d="M60.698,45.26c0,0,9.844-4.465,14.465,2.506c0,0,0.705,1.882-1.019,1.882c0,0-10.208-3.214-13.446-1.882
			V45.26z"/>
	</g>
	<path fill="#191918" d="M21.313,262.468l-2.109,4.607l4.461,3.449c0,0,0.587-0.551,1.63,1.562c0,0,3.504,5.104,11.195,6.303
		c0,0,3.674,0.191,1.433-2.153c0,0-9.955-8.918-11.078-13.653C26.846,262.583,24.685,257.893,21.313,262.468z"/>
	<path fill="#191918" d="M69.007,276.039l0.963,4.979l5.635,0.215c0,0,0.158-0.789,2.234,0.324c0,0,5.818,2.12,12.772-1.376
		c0,0,3.103-1.979-0.085-2.585c0,0-13.283-1.476-16.95-4.678C73.577,272.919,69.093,270.358,69.007,276.039z"/>
</g>
</svg>
